<?xml version="1.0" encoding="UTF-8"?>
<svg id="Calque_1" data-name="Calque 1" xmlns="http://www.w3.org/2000/svg" version="1.1" viewBox="0 0 522 150">
  <g>
    <g>
      <g>
        <path d="M36.48,63.178l25.235-23.43h-10.481c-4.513,0-8.436,1.527-11.733,4.582l-12.183,11.142v-15.724h-2.95c-2.5,0-4.615.868-6.386,2.638-1.77,1.771-2.638,3.886-2.638,6.386v30.996c0,.487.034.973.105,1.459v.277c0,3.227,1.145,5.693,3.402,7.461.068.07.139.141.244.175l9.264,5.9c.453.277.973.418,1.494.418.486,0,.939-.105,1.354-.348,1.007-.52,1.494-1.354,1.494-2.466v-16.695l9.649,8.991c3.298,3.054,7.22,4.582,11.731,4.582h11.004l-28.603-26.344Z" fill="#264e51" fill-rule="evenodd" stroke-width="0"/>
        <path d="M29.851,92.645l-9.268-5.9c-1.561-1.216-2.325-2.949-2.325-5.24v-31.587c.21,2.534,1.805,4.757,4.825,6.666,1.075.659,2.602,1.561,4.582,2.673,1.457.832,2.186,2.254,2.186,4.234v29.155Z" fill="#a67135" fill-rule="evenodd" stroke-width="0"/>
      </g>
      <g>
        <path d="M102.067,50.136c-1.077.427-1.864.814-2.364,1.164-.501.35-.776.551-.825.6l-1.276-1.726h-9.001c.1.45.201,1.001.301,1.65.1.651.15,1.425.15,2.326v31.428c0,.85-.038,1.488-.112,1.912-.076.427-.164.863-.263,1.313h11.026c-.2-.499-.337-.937-.412-1.313-.074-.375-.112-1.013-.112-1.912v-25.202c0-.4.061-.888.187-1.463.125-.575.424-1.126.9-1.65.475-.526,1.201-.976,2.175-1.351.975-.375,2.288-.562,3.938-.562h1.124v-5.85h-1.875c-1.3,0-2.488.213-3.562.636Z" fill="#264e51" stroke-width="0"/>
        <path d="M128.355,67.65c-.701-.248-1.4-.45-2.101-.6-.701-.15-1.4-.35-2.101-.6-.999-.301-1.8-.613-2.399-.938-.6-.325-1.05-.686-1.35-1.087-.301-.4-.501-.874-.6-1.425-.101-.549-.151-1.25-.151-2.101v-4.351c0-2,.99-3,2.968-3,1.384,0,2.361.4,2.93,1.2.569.8.852,2,.852,3.6v4.351h7.577v-12.45c-1.5-.25-3.102-.438-4.801-.562-1.7-.125-3.269-.188-4.703-.188h-4.522c-3,0-5.363.476-7.089,1.425-1.725.95-2.588,2.549-2.588,4.799v8.476c0,.75.049,1.438.15,2.063.101.625.312,1.189.638,1.688.324.499.813.949,1.462,1.349.649.402,1.501.776,2.551,1.126,1.05.35,2.036.65,2.962.899.924.25,1.962.5,3.112.751,1.05.25,2,.674,2.85,1.274.85.6,1.276,1.551,1.276,2.85v6.076c0,2.152-1.001,3.225-3,3.225-.852,0-1.614-.337-2.287-1.013-.676-.675-1.013-1.962-1.013-3.862v-5.776h-8.327v13.726c1.6.4,3.399.648,5.401.749,2,.101,3.8.151,5.401.151h3c3.7,0,6.363-.526,7.988-1.577,1.624-1.048,2.437-2.774,2.437-5.174v-9.076c0-1.65-.486-2.875-1.462-3.675-.975-.8-2.662-1.576-5.063-2.326Z" fill="#264e51" stroke-width="0"/>
        <path d="M80.877,50.436c-.951-.423-2.239-.686-3.864-.787-1.624-.099-3.711-.15-6.262-.15-2.301,0-4.238.063-5.813.188-1.575.124-2.863.412-3.863.861-.999.45-1.724,1.113-2.174,1.989-.451.876-.676,2.063-.676,3.562v22.926l11.351,10.444c.244.002.472.008.725.008,2.75,0,4.976-.101,6.676-.301,1.699-.2,3.025-.562,3.974-1.088.95-.524,1.6-1.249,1.951-2.174.35-.925.525-2.112.525-3.564v-9h-9.75v9.076c0,.901-.188,1.575-.564,2.025-.374.451-1.037.675-1.987.675s-1.638-.174-2.063-.526c-.425-.348-.637-1.024-.637-2.025v-13.276h15.002v-13.427c0-1.499-.188-2.674-.563-3.524-.374-.85-1.037-1.488-1.987-1.913ZM73.601,65.7h-5.176v-9.901c0-1.5.876-2.25,2.626-2.25,1.699,0,2.55.724,2.55,2.174v9.977Z" fill="#264e51" stroke-width="0"/>
        <path d="M152.356,83.927c-.551-.701-.826-2.075-.826-4.125v-25.877h5.252v-3.751h-5.326v-8.775l-10.05,1.726v7.05h-3.151v3.751h3.151v28.502c0,1.501.236,2.7.712,3.601.475.9,1.149,1.587,2.025,2.061.875.478,1.951.775,3.227.901,1.273.125,2.711.188,4.312.188.799,0,1.724-.05,2.775-.15,1.05-.1,1.9-.2,2.551-.3.649-.1,1.023-.15,1.124-.15v-3.599h-3c-1.301,0-2.226-.35-2.776-1.051Z" fill="#264e51" stroke-width="0"/>
        <path d="M191.281,73.2v8.851c0,1.9-.875,2.85-2.625,2.85-.75,0-1.362-.201-1.837-.6-.476-.4-.712-1.149-.712-2.25v-25.128c0-1,.225-1.811.679-2.437.451-.624,1.406-.937,2.864-.937.752,0,1.343.101,1.772.299.426.202.754.476.979.825.226.351.365.726.415,1.126.051.4.076.776.076,1.124v7.051h7.916v-13.576c-.05,0-.374-.076-.975-.225-.6-.15-1.789-.312-3.563-.487-1.777-.175-4.138-.263-7.088-.263-2.402,0-4.413.1-6.039.299-1.624.201-2.926.526-3.9.976-.975.449-1.663,1.075-2.063,1.875-.4.8-.6,1.8-.6,3v27.001c0,1.351.137,2.47.413,3.359.273.888.85,1.598,1.726,2.132.874.533,2.099.901,3.675,1.105,1.574.203,3.637.306,6.188.306,2.749,0,4.961-.115,6.637-.343,1.675-.23,2.963-.624,3.862-1.182.901-.559,1.5-1.306,1.801-2.244.299-.937.449-2.081.449-3.431v-9.076h-10.051Z" fill="#264e51" stroke-width="0"/>
        <path d="M170.169,40.565c-.875-.545-2.314-.817-4.312-.817-2.202,0-3.713.285-4.538.855-.826.568-1.238,1.471-1.238,2.708,0,1.288.412,2.228,1.238,2.821.825.594,2.287.891,4.386.891s3.589-.297,4.464-.891c.874-.593,1.312-1.533,1.312-2.821s-.438-2.201-1.312-2.746Z" fill="#264e51" stroke-width="0"/>
        <path d="M170.957,85.577v-35.404h-10.577c.1.45.2,1.001.301,1.65.1.651.15,1.425.15,2.326v31.428c0,.85-.038,1.488-.112,1.912-.076.427-.164.863-.263,1.313h11.026c-.2-.499-.336-.937-.412-1.313-.074-.375-.112-1.013-.112-1.912Z" fill="#264e51" stroke-width="0"/>
      </g>
    </g>
    <g>
      <path d="M22.544,107.862h-4.861l-1.006,2.286h-1.346l4.142-9.146h1.293l4.155,9.146h-1.372l-1.006-2.286ZM22.087,106.817l-1.973-4.482-1.973,4.482h3.946Z" fill="#7d848f" stroke-width="0"/>
      <path d="M26.281,101.002h3.855c.967,0,1.825.192,2.574.575s1.331.921,1.744,1.614c.413.692.621,1.487.621,2.384s-.207,1.692-.621,2.384c-.414.693-.995,1.23-1.744,1.614-.749.384-1.607.575-2.574.575h-3.855v-9.146ZM30.057,109.012c.74,0,1.392-.144,1.953-.431.562-.288.995-.691,1.3-1.209.305-.518.457-1.117.457-1.797s-.152-1.278-.457-1.797c-.305-.518-.738-.921-1.3-1.209-.562-.287-1.213-.431-1.953-.431h-2.469v6.873h2.469Z" fill="#7d848f" stroke-width="0"/>
      <path d="M44.939,101.002v9.146h-1.307v-4.076h-5.252v4.076h-1.307v-9.146h1.307v3.933h5.252v-3.933h1.307Z" fill="#7d848f" stroke-width="0"/>
      <path d="M54.319,109.012v1.136h-6.637v-9.146h6.454v1.136h-5.148v2.809h4.586v1.111h-4.586v2.953h5.331ZM51.72,98.559h1.594l-2.195,1.698h-1.176l1.777-1.698Z" fill="#7d848f" stroke-width="0"/>
      <path d="M57.109,109.932c-.64-.214-1.144-.489-1.509-.83l.483-1.019c.348.314.795.568,1.339.764.545.196,1.104.294,1.679.294.758,0,1.324-.129,1.698-.386.375-.256.562-.599.562-1.025,0-.314-.103-.569-.307-.764-.205-.196-.457-.346-.758-.451-.3-.105-.725-.223-1.274-.354-.688-.165-1.244-.33-1.666-.496s-.784-.421-1.084-.764c-.3-.344-.451-.808-.451-1.392,0-.487.128-.928.385-1.319.257-.392.647-.706,1.17-.941s1.171-.353,1.947-.353c.54,0,1.071.069,1.594.208.522.14.971.34,1.345.602l-.431,1.044c-.384-.243-.793-.428-1.228-.555-.436-.126-.862-.189-1.28-.189-.74,0-1.296.135-1.666.405-.37.27-.555.618-.555,1.045,0,.314.104.568.314.764.209.196.468.348.777.457.309.109.73.225,1.261.346.688.166,1.241.331,1.659.497s.778.418,1.078.757c.3.34.451.797.451,1.372,0,.479-.131.917-.392,1.313-.262.396-.658.71-1.189.94-.531.231-1.185.346-1.96.346-.688,0-1.352-.106-1.992-.32Z" fill="#7d848f" stroke-width="0"/>
      <path d="M64.55,101.002h1.307v9.146h-1.307v-9.146Z" fill="#7d848f" stroke-width="0"/>
      <path d="M69.907,102.138v3.188h4.586v1.124h-4.586v3.697h-1.307v-9.146h6.454v1.136h-5.148Z" fill="#7d848f" stroke-width="0"/>
      <path d="M77.53,109.932c-.64-.214-1.143-.489-1.509-.83l.483-1.019c.348.314.795.568,1.339.764.544.196,1.104.294,1.679.294.758,0,1.324-.129,1.698-.386.375-.256.562-.599.562-1.025,0-.314-.103-.569-.307-.764-.205-.196-.457-.346-.758-.451-.3-.105-.725-.223-1.274-.354-.688-.165-1.243-.33-1.666-.496s-.784-.421-1.084-.764c-.301-.344-.451-.808-.451-1.392,0-.487.129-.928.386-1.319.256-.392.646-.706,1.169-.941s1.172-.353,1.947-.353c.54,0,1.071.069,1.594.208.523.14.971.34,1.346.602l-.431,1.044c-.383-.243-.792-.428-1.228-.555-.435-.126-.862-.189-1.28-.189-.74,0-1.295.135-1.666.405s-.555.618-.555,1.045c0,.314.105.568.314.764s.468.348.778.457c.309.109.729.225,1.261.346.688.166,1.241.331,1.66.497.418.166.777.418,1.078.757.3.34.451.797.451,1.372,0,.479-.131.917-.392,1.313-.261.396-.658.71-1.189.94-.531.231-1.184.346-1.959.346-.688,0-1.352-.106-1.993-.32Z" fill="#7d848f" stroke-width="0"/>
      <path d="M94.849,101.851c.68.566,1.019,1.346,1.019,2.339s-.34,1.772-1.019,2.338c-.679.567-1.612.849-2.796.849h-2.26v2.77h-1.307v-9.146h3.567c1.184,0,2.117.283,2.796.849ZM93.908,105.712c.435-.353.654-.859.654-1.522s-.218-1.17-.654-1.523-1.067-.529-1.895-.529h-2.221v4.103h2.221c.828,0,1.459-.176,1.895-.529Z" fill="#7d848f" stroke-width="0"/>
      <path d="M104.426,109.012v1.136h-6.637v-9.146h6.454v1.136h-5.148v2.809h4.586v1.111h-4.586v2.953h5.331Z" fill="#7d848f" stroke-width="0"/>
      <path d="M112.657,110.148l-1.973-2.809c-.244.017-.435.027-.575.027h-2.26v2.783h-1.307v-9.146h3.567c1.184,0,2.117.283,2.796.849.68.566,1.019,1.346,1.019,2.339,0,.705-.174,1.306-.523,1.803-.348.497-.845.858-1.489,1.084l2.169,3.071h-1.424ZM111.964,105.719c.435-.358.654-.867.654-1.529s-.218-1.17-.654-1.523-1.067-.529-1.895-.529h-2.221v4.116h2.221c.828,0,1.459-.179,1.895-.535Z" fill="#7d848f" stroke-width="0"/>
      <path d="M116.714,109.932c-.64-.214-1.143-.489-1.509-.83l.483-1.019c.348.314.795.568,1.339.764.544.196,1.104.294,1.679.294.758,0,1.324-.129,1.698-.386.375-.256.562-.599.562-1.025,0-.314-.103-.569-.307-.764-.205-.196-.457-.346-.758-.451-.3-.105-.725-.223-1.274-.354-.688-.165-1.243-.33-1.666-.496s-.784-.421-1.084-.764c-.301-.344-.451-.808-.451-1.392,0-.487.129-.928.386-1.319.256-.392.646-.706,1.169-.941s1.172-.353,1.947-.353c.54,0,1.071.069,1.594.208.523.14.971.34,1.346.602l-.431,1.044c-.383-.243-.792-.428-1.228-.555-.435-.126-.862-.189-1.28-.189-.74,0-1.295.135-1.666.405s-.555.618-.555,1.045c0,.314.105.568.314.764s.468.348.778.457c.309.109.729.225,1.261.346.688.166,1.241.331,1.66.497.418.166.777.418,1.078.757.3.34.451.797.451,1.372,0,.479-.131.917-.392,1.313-.261.396-.658.71-1.189.94-.531.231-1.184.346-1.959.346-.688,0-1.352-.106-1.993-.32Z" fill="#7d848f" stroke-width="0"/>
      <path d="M125.788,109.645c-.74-.406-1.322-.965-1.744-1.679s-.634-1.511-.634-2.391.211-1.677.634-2.391,1.004-1.273,1.744-1.679c.74-.405,1.572-.607,2.495-.607.915,0,1.742.202,2.483.607.74.406,1.319.963,1.738,1.673.418.71.627,1.509.627,2.397s-.209,1.688-.627,2.397c-.418.71-.998,1.267-1.738,1.673-.74.405-1.568.607-2.483.607-.923,0-1.755-.202-2.495-.607ZM130.093,108.633c.535-.305.958-.726,1.267-1.261s.464-1.134.464-1.797-.155-1.261-.464-1.797-.732-.955-1.267-1.261c-.536-.305-1.139-.457-1.81-.457s-1.278.152-1.823.457c-.545.306-.971.726-1.28,1.261-.309.535-.464,1.134-.464,1.797s.155,1.261.464,1.797c.309.535.736.957,1.28,1.261.544.305,1.152.457,1.823.457s1.274-.152,1.81-.457Z" fill="#7d848f" stroke-width="0"/>
      <path d="M142.995,101.002v9.146h-1.071l-5.488-6.82v6.82h-1.307v-9.146h1.071l5.488,6.82v-6.82h1.307Z" fill="#7d848f" stroke-width="0"/>
      <path d="M153.604,101.002v9.146h-1.071l-5.488-6.82v6.82h-1.307v-9.146h1.071l5.487,6.82v-6.82h1.307Z" fill="#7d848f" stroke-width="0"/>
      <path d="M162.175,107.862h-4.86l-1.006,2.286h-1.346l4.142-9.146h1.294l4.155,9.146h-1.372l-1.006-2.286ZM161.718,106.817l-1.973-4.482-1.973,4.482h3.946Z" fill="#7d848f" stroke-width="0"/>
      <path d="M165.912,101.002h1.307v8.01h4.952v1.136h-6.258v-9.146Z" fill="#7d848f" stroke-width="0"/>
      <path d="M173.673,101.002h1.307v9.146h-1.307v-9.146Z" fill="#7d848f" stroke-width="0"/>
      <path d="M178.396,109.932c-.64-.214-1.144-.489-1.509-.83l.483-1.019c.348.314.795.568,1.339.764.545.196,1.104.294,1.679.294.758,0,1.324-.129,1.698-.386.375-.256.562-.599.562-1.025,0-.314-.103-.569-.307-.764-.205-.196-.457-.346-.758-.451-.3-.105-.725-.223-1.274-.354-.688-.165-1.244-.33-1.666-.496s-.784-.421-1.084-.764c-.3-.344-.451-.808-.451-1.392,0-.487.128-.928.385-1.319.257-.392.647-.706,1.17-.941s1.171-.353,1.947-.353c.54,0,1.071.069,1.594.208.522.14.971.34,1.345.602l-.431,1.044c-.384-.243-.793-.428-1.228-.555-.436-.126-.862-.189-1.28-.189-.74,0-1.296.135-1.666.405-.37.27-.555.618-.555,1.045,0,.314.104.568.314.764.209.196.468.348.777.457.309.109.73.225,1.261.346.688.166,1.241.331,1.659.497s.778.418,1.078.757c.3.34.451.797.451,1.372,0,.479-.131.917-.392,1.313-.262.396-.658.71-1.189.94-.531.231-1.185.346-1.96.346-.688,0-1.352-.106-1.992-.32Z" fill="#7d848f" stroke-width="0"/>
      <path d="M192.474,109.012v1.136h-6.637v-9.146h6.454v1.136h-5.148v2.809h4.586v1.111h-4.586v2.953h5.331ZM189.874,98.559h1.594l-2.195,1.698h-1.176l1.777-1.698Z" fill="#7d848f" stroke-width="0"/>
      <path d="M195.264,109.932c-.64-.214-1.144-.489-1.509-.83l.483-1.019c.348.314.795.568,1.339.764.545.196,1.104.294,1.679.294.758,0,1.324-.129,1.698-.386.375-.256.562-.599.562-1.025,0-.314-.103-.569-.307-.764-.205-.196-.457-.346-.758-.451-.3-.105-.725-.223-1.274-.354-.688-.165-1.244-.33-1.666-.496s-.784-.421-1.084-.764c-.3-.344-.451-.808-.451-1.392,0-.487.128-.928.385-1.319.257-.392.647-.706,1.17-.941s1.171-.353,1.947-.353c.54,0,1.071.069,1.594.208.522.14.971.34,1.345.602l-.431,1.044c-.384-.243-.793-.428-1.228-.555-.436-.126-.862-.189-1.28-.189-.74,0-1.296.135-1.666.405-.37.27-.555.618-.555,1.045,0,.314.104.568.314.764.209.196.468.348.777.457.309.109.73.225,1.261.346.688.166,1.241.331,1.659.497s.778.418,1.078.757c.3.34.451.797.451,1.372,0,.479-.131.917-.392,1.313-.262.396-.658.71-1.189.94-.531.231-1.185.346-1.96.346-.688,0-1.352-.106-1.992-.32Z" fill="#7d848f" stroke-width="0"/>
    </g>
  </g>
  <g>
    <path d="M248.155,31.16l-1.554,1.596v2.506h-1.82v-9.8h1.82v5.025l4.844-5.025h2.044l-4.116,4.382,4.368,5.418h-2.128l-3.458-4.102Z" fill="#000" stroke-width="0"/>
    <path d="M262.337,33.735v1.526h-7.35v-9.8h7.153v1.525h-5.333v2.549h4.732v1.498h-4.732v2.701h5.53Z" fill="#000" stroke-width="0"/>
    <path d="M270.779,35.262l-2.002-2.87c-.084.01-.21.014-.378.014h-2.212v2.856h-1.82v-9.8h4.032c.849,0,1.589.14,2.219.42s1.113.682,1.449,1.204.504,1.144.504,1.861c0,.738-.18,1.372-.539,1.904s-.875.929-1.547,1.19l2.254,3.22h-1.96ZM270.121,27.506c-.41-.336-1.013-.504-1.806-.504h-2.128v3.906h2.128c.793,0,1.396-.171,1.806-.512.411-.341.616-.823.616-1.449s-.205-1.105-.616-1.441Z" fill="#000" stroke-width="0"/>
    <path d="M275.448,35.08c-.705-.215-1.263-.5-1.673-.854l.63-1.414c.401.317.894.576,1.477.777.583.2,1.169.301,1.757.301.729,0,1.271-.116,1.631-.35s.539-.542.539-.925c0-.279-.1-.511-.301-.692-.201-.183-.455-.324-.763-.427s-.729-.22-1.261-.351c-.746-.177-1.351-.354-1.812-.532-.462-.177-.859-.454-1.189-.833-.332-.378-.498-.889-.498-1.532,0-.542.147-1.034.441-1.478s.737-.795,1.33-1.057,1.318-.393,2.177-.393c.598,0,1.186.075,1.765.225.578.149,1.078.364,1.498.644l-.574,1.414c-.43-.252-.878-.443-1.344-.574-.467-.13-.92-.195-1.358-.195-.719,0-1.253.121-1.603.363-.351.243-.525.565-.525.967,0,.279.1.509.301.686.201.178.455.317.764.42.308.103.728.22,1.26.351.728.168,1.325.343,1.792.524.466.183.865.46,1.196.833.332.374.497.878.497,1.512,0,.542-.146,1.032-.44,1.471s-.74.788-1.337,1.05c-.598.261-1.325.392-2.185.392-.756,0-1.486-.107-2.19-.321Z" fill="#000" stroke-width="0"/>
    <path d="M285.255,27.002h-3.248v-1.54h8.316v1.54h-3.248v8.26h-1.82v-8.26Z" fill="#000" stroke-width="0"/>
    <path d="M291.695,25.462h1.819v9.8h-1.819v-9.8Z" fill="#000" stroke-width="0"/>
    <path d="M298.016,34.751c-.798-.435-1.424-1.034-1.876-1.799-.452-.766-.679-1.629-.679-2.591s.229-1.824.686-2.59c.457-.765,1.085-1.365,1.883-1.799.799-.434,1.692-.651,2.682-.651.803,0,1.535.141,2.197.421.663.279,1.223.686,1.681,1.218l-1.176,1.105c-.71-.765-1.582-1.147-2.618-1.147-.672,0-1.274.146-1.807.44-.531.294-.947.703-1.246,1.226s-.447,1.115-.447,1.777.148,1.256.447,1.778.715.931,1.246,1.225c.532.295,1.135.441,1.807.441,1.036,0,1.908-.387,2.618-1.162l1.176,1.12c-.458.532-1.021.938-1.688,1.218-.667.28-1.402.42-2.204.42-.99,0-1.884-.217-2.682-.65Z" fill="#000" stroke-width="0"/>
    <path d="M309.656,30.642h3.85v1.456h-3.85v-1.456Z" fill="#000" stroke-width="0"/>
    <path d="M324.752,33.162h-4.464l-.924,2.1h-1.236l3.804-8.4h1.188l3.815,8.4h-1.26l-.924-2.1ZM324.332,32.202l-1.812-4.116-1.812,4.116h3.624Z" fill="#000" stroke-width="0"/>
    <path d="M333.956,26.357v8.904h-1.104v-1.008c-.256.352-.58.62-.972.804-.392.185-.824.276-1.296.276-.616,0-1.168-.136-1.656-.408-.488-.271-.869-.654-1.146-1.146-.276-.491-.414-1.058-.414-1.697s.138-1.204.414-1.692.657-.868,1.146-1.14c.488-.272,1.04-.408,1.656-.408.456,0,.876.086,1.26.258.385.172.704.426.96.762v-3.504h1.152ZM331.771,34.044c.328-.188.584-.452.769-.792.184-.34.276-.73.276-1.17s-.093-.83-.276-1.17c-.185-.34-.44-.603-.769-.786-.328-.185-.691-.276-1.092-.276-.408,0-.773.092-1.098.276-.324.184-.58.446-.768.786-.188.34-.282.729-.282,1.17s.094.83.282,1.17c.188.34.443.604.768.792.324.188.689.282,1.098.282.4,0,.764-.095,1.092-.282Z" fill="#000" stroke-width="0"/>
    <path d="M341.462,29.544c.476.468.714,1.154.714,2.058v3.66h-1.151v-3.528c0-.615-.148-1.08-.444-1.392-.296-.312-.72-.468-1.271-.468-.625,0-1.116.182-1.477.546-.359.364-.54.886-.54,1.565v3.276h-1.151v-8.904h1.151v3.444c.24-.304.554-.54.942-.708.388-.168.822-.252,1.302-.252.808,0,1.45.234,1.926.702Z" fill="#000" stroke-width="0"/>
    <path d="M350.072,32.466h-5.16c.072.56.318,1.01.738,1.35.42.341.941.511,1.565.511.76,0,1.372-.257,1.836-.769l.636.744c-.287.336-.646.592-1.074.768-.428.177-.905.265-1.434.265-.672,0-1.268-.139-1.788-.414-.52-.276-.922-.662-1.206-1.158-.283-.496-.426-1.056-.426-1.68,0-.616.139-1.172.414-1.668.276-.496.656-.883,1.141-1.158.483-.276,1.029-.414,1.638-.414s1.149.138,1.626.414c.476.275.848.662,1.115,1.158.269.496.402,1.063.402,1.704,0,.088-.008.203-.023.348ZM345.566,30.317c-.373.336-.591.776-.654,1.32h4.08c-.064-.536-.282-.974-.654-1.314-.372-.34-.834-.51-1.386-.51s-1.015.168-1.386.504ZM347.672,26.418h1.464l-2.016,1.56h-1.08l1.632-1.56Z" fill="#000" stroke-width="0"/>
    <path d="M352.016,35.124c-.479-.141-.855-.318-1.128-.534l.48-.912c.279.2.62.36,1.02.48.4.119.804.18,1.212.18,1.008,0,1.512-.288,1.512-.864,0-.192-.067-.344-.203-.456-.137-.111-.307-.193-.51-.246-.205-.052-.494-.109-.871-.174-.512-.08-.93-.172-1.254-.276-.323-.104-.602-.279-.834-.527-.231-.248-.348-.596-.348-1.044,0-.576.24-1.038.72-1.387.48-.348,1.124-.521,1.933-.521.424,0,.848.052,1.271.156.424.104.772.244,1.044.42l-.491.912c-.521-.336-1.133-.504-1.836-.504-.488,0-.86.08-1.116.239-.257.16-.384.372-.384.637,0,.208.071.371.215.491.145.12.322.208.535.265.211.056.51.12.894.191.512.089.926.183,1.242.282.315.101.586.271.81.51.224.24.336.576.336,1.009,0,.575-.246,1.033-.738,1.373-.491.341-1.162.511-2.01.511-.52,0-1.02-.07-1.5-.21Z" fill="#000" stroke-width="0"/>
    <path d="M357.722,27.462c-.147-.145-.222-.32-.222-.528s.074-.386.222-.534c.148-.147.334-.222.558-.222s.41.07.559.21.222.314.222.522c0,.216-.073.397-.222.546-.148.147-.334.222-.559.222s-.409-.072-.558-.216ZM357.704,28.901h1.151v6.36h-1.151v-6.36Z" fill="#000" stroke-width="0"/>
    <path d="M362.348,28.35v.552h1.848v.948h-1.823v5.412h-1.152v-5.412h-1.08v-.948h1.08v-.563c0-.632.184-1.132.552-1.5s.884-.552,1.549-.552c.256,0,.495.031.72.096.224.064.415.156.575.276l-.348.876c-.264-.2-.56-.301-.888-.301-.688,0-1.032.372-1.032,1.116Z" fill="#000" stroke-width="0"/>
    <path d="M365.611,35.124c-.479-.141-.855-.318-1.128-.534l.48-.912c.279.2.62.36,1.02.48.4.119.804.18,1.212.18,1.008,0,1.512-.288,1.512-.864,0-.192-.067-.344-.203-.456-.137-.111-.307-.193-.51-.246-.205-.052-.494-.109-.871-.174-.512-.08-.93-.172-1.254-.276-.323-.104-.602-.279-.834-.527-.231-.248-.348-.596-.348-1.044,0-.576.24-1.038.72-1.387.48-.348,1.124-.521,1.933-.521.424,0,.848.052,1.271.156.424.104.772.244,1.044.42l-.491.912c-.521-.336-1.133-.504-1.836-.504-.488,0-.86.08-1.116.239-.257.16-.384.372-.384.637,0,.208.071.371.215.491.145.12.322.208.535.265.211.056.51.12.894.191.512.089.926.183,1.242.282.315.101.586.271.81.51.224.24.336.576.336,1.009,0,.575-.246,1.033-.738,1.373-.491.341-1.162.511-2.01.511-.52,0-1.02-.07-1.5-.21Z" fill="#000" stroke-width="0"/>
    <path d="M374.119,31.47h3.229v.996h-3.229v-.996Z" fill="#000" stroke-width="0"/>
    <path d="M388.615,34.218v1.044h-6.096v-8.4h5.928v1.044h-4.728v2.58h4.212v1.021h-4.212v2.712h4.896ZM386.228,24.618h1.464l-2.016,1.56h-1.08l1.632-1.56Z" fill="#000" stroke-width="0"/>
    <path d="M393.823,34.89c-.168.145-.376.254-.624.33s-.504.114-.768.114c-.641,0-1.137-.172-1.488-.517-.352-.344-.527-.836-.527-1.476v-3.492h-1.08v-.948h1.08v-1.392h1.151v1.392h1.824v.948h-1.824v3.444c0,.344.086.607.258.792.173.184.418.275.738.275.353,0,.652-.1.9-.3l.359.828Z" fill="#000" stroke-width="0"/>
    <path d="M395.233,27.462c-.148-.145-.222-.32-.222-.528s.073-.386.222-.534c.147-.147.334-.222.558-.222s.41.07.559.21c.147.14.222.314.222.522,0,.216-.074.397-.222.546-.148.147-.334.222-.559.222s-.41-.072-.558-.216ZM395.215,28.901h1.152v6.36h-1.152v-6.36Z" fill="#000" stroke-width="0"/>
    <path d="M404.563,28.901v8.688h-1.152v-3.288c-.264.336-.586.592-.966.768-.38.177-.798.265-1.254.265-.616,0-1.168-.136-1.656-.408-.488-.271-.87-.654-1.146-1.146-.275-.491-.414-1.058-.414-1.697s.139-1.204.414-1.692c.276-.488.658-.868,1.146-1.14.488-.272,1.04-.408,1.656-.408.472,0,.904.09,1.296.27.392.181.716.446.972.799v-1.009h1.104ZM402.379,34.044c.328-.188.584-.452.769-.792.184-.34.275-.73.275-1.17s-.094-.828-.282-1.164c-.188-.336-.443-.599-.768-.786-.324-.188-.686-.282-1.086-.282-.408,0-.773.092-1.098.276-.324.184-.58.446-.769.786-.188.34-.282.729-.282,1.17s.095.83.282,1.17c.188.34.444.604.769.792.324.188.689.282,1.098.282.4,0,.764-.095,1.092-.282Z" fill="#000" stroke-width="0"/>
    <path d="M412.675,28.901v6.36h-1.092v-.96c-.232.328-.538.582-.918.762-.38.181-.794.271-1.242.271-.848,0-1.516-.234-2.004-.702s-.731-1.158-.731-2.07v-3.66h1.151v3.528c0,.616.148,1.082.444,1.398.296.315.72.474,1.271.474.608,0,1.088-.184,1.44-.552.352-.368.528-.889.528-1.561v-3.288h1.151Z" fill="#000" stroke-width="0"/>
    <path d="M420.595,32.466h-5.159c.071.56.317,1.01.737,1.35.42.341.942.511,1.566.511.76,0,1.372-.257,1.836-.769l.636.744c-.288.336-.646.592-1.074.768-.428.177-.906.265-1.434.265-.672,0-1.268-.139-1.788-.414-.521-.276-.922-.662-1.206-1.158s-.426-1.056-.426-1.68c0-.616.138-1.172.414-1.668.275-.496.656-.883,1.14-1.158.484-.276,1.03-.414,1.638-.414s1.15.138,1.627.414c.476.275.848.662,1.115,1.158.269.496.402,1.063.402,1.704,0,.088-.008.203-.024.348ZM416.089,30.317c-.372.336-.59.776-.653,1.32h4.08c-.064-.536-.282-.974-.654-1.314-.372-.34-.834-.51-1.387-.51s-1.014.168-1.386.504Z" fill="#000" stroke-width="0"/>
    <path d="M425.791,34.89c-.168.145-.376.254-.624.33s-.504.114-.769.114c-.64,0-1.136-.172-1.487-.517-.353-.344-.528-.836-.528-1.476v-3.492h-1.08v-.948h1.08v-1.392h1.152v1.392h1.824v.948h-1.824v3.444c0,.344.086.607.258.792.172.184.418.275.738.275.352,0,.652-.1.9-.3l.359.828Z" fill="#000" stroke-width="0"/>
    <path d="M430.604,34.89c-.168.145-.377.254-.625.33s-.504.114-.768.114c-.64,0-1.136-.172-1.488-.517-.352-.344-.527-.836-.527-1.476v-3.492h-1.08v-.948h1.08v-1.392h1.152v1.392h1.823v.948h-1.823v3.444c0,.344.085.607.258.792.172.184.418.275.737.275.353,0,.652-.1.9-.3l.36.828Z" fill="#000" stroke-width="0"/>
    <path d="M437.503,32.466h-5.16c.072.56.318,1.01.738,1.35.42.341.942.511,1.565.511.761,0,1.373-.257,1.836-.769l.637.744c-.288.336-.646.592-1.074.768-.428.177-.906.265-1.434.265-.672,0-1.269-.139-1.788-.414-.521-.276-.923-.662-1.206-1.158-.284-.496-.426-1.056-.426-1.68,0-.616.138-1.172.414-1.668.275-.496.655-.883,1.14-1.158.483-.276,1.03-.414,1.638-.414s1.15.138,1.626.414c.476.275.849.662,1.116,1.158s.402,1.063.402,1.704c0,.088-.008.203-.024.348ZM432.997,30.317c-.372.336-.59.776-.654,1.32h4.08c-.063-.536-.282-.974-.653-1.314-.373-.34-.834-.51-1.387-.51s-1.014.168-1.386.504Z" fill="#000" stroke-width="0"/>
    <path d="M439.447,35.124c-.48-.141-.856-.318-1.128-.534l.479-.912c.28.2.62.36,1.021.48.399.119.804.18,1.212.18,1.008,0,1.512-.288,1.512-.864,0-.192-.068-.344-.204-.456-.136-.111-.306-.193-.51-.246-.204-.052-.494-.109-.87-.174-.512-.08-.93-.172-1.254-.276-.324-.104-.602-.279-.834-.527s-.348-.596-.348-1.044c0-.576.239-1.038.72-1.387.479-.348,1.124-.521,1.932-.521.424,0,.849.052,1.272.156.424.104.771.244,1.044.42l-.492.912c-.521-.336-1.132-.504-1.836-.504-.488,0-.86.08-1.116.239-.256.16-.384.372-.384.637,0,.208.072.371.216.491.145.12.322.208.534.265.212.056.51.12.894.191.512.089.926.183,1.242.282.316.101.586.271.811.51.224.24.336.576.336,1.009,0,.575-.246,1.033-.738,1.373-.492.341-1.162.511-2.01.511-.521,0-1.021-.07-1.5-.21Z" fill="#000" stroke-width="0"/>
    <path d="M447.955,31.47h3.228v.996h-3.228v-.996Z" fill="#000" stroke-width="0"/>
    <path d="M456.354,26.861h1.2v7.356h4.548v1.044h-5.748v-8.4Z" fill="#000" stroke-width="0"/>
    <path d="M468.955,32.466h-5.16c.072.56.318,1.01.738,1.35.42.341.941.511,1.565.511.76,0,1.372-.257,1.836-.769l.636.744c-.287.336-.646.592-1.074.768-.428.177-.905.265-1.434.265-.672,0-1.268-.139-1.788-.414-.52-.276-.922-.662-1.206-1.158-.283-.496-.426-1.056-.426-1.68,0-.616.139-1.172.414-1.668.276-.496.656-.883,1.141-1.158.483-.276,1.029-.414,1.638-.414s1.149.138,1.626.414c.476.275.848.662,1.115,1.158.269.496.402,1.063.402,1.704,0,.088-.008.203-.023.348ZM464.449,30.317c-.373.336-.591.776-.654,1.32h4.08c-.064-.536-.282-.974-.654-1.314-.372-.34-.834-.51-1.386-.51s-1.015.168-1.386.504Z" fill="#000" stroke-width="0"/>
    <path d="M474.15,34.89c-.168.145-.376.254-.624.33s-.504.114-.768.114c-.64,0-1.136-.172-1.488-.517-.353-.344-.528-.836-.528-1.476v-3.492h-1.08v-.948h1.08v-1.392h1.152v1.392h1.824v.948h-1.824v3.444c0,.344.086.607.258.792.172.184.418.275.738.275.352,0,.652-.1.9-.3l.359.828Z" fill="#000" stroke-width="0"/>
    <path d="M478.963,34.89c-.168.145-.376.254-.624.33s-.504.114-.769.114c-.64,0-1.136-.172-1.487-.517-.353-.344-.528-.836-.528-1.476v-3.492h-1.08v-.948h1.08v-1.392h1.152v1.392h1.824v.948h-1.824v3.444c0,.344.086.607.258.792.172.184.418.275.738.275.352,0,.651-.1.899-.3l.36.828Z" fill="#000" stroke-width="0"/>
    <path d="M482.347,29.13c.392-.192.868-.288,1.428-.288v1.116c-.063-.008-.151-.013-.264-.013-.624,0-1.114.187-1.47.559-.356.372-.534.902-.534,1.59v3.168h-1.152v-6.36h1.104v1.068c.199-.368.496-.648.888-.84Z" fill="#000" stroke-width="0"/>
    <path d="M489.517,29.489c.468.433.702,1.076.702,1.933v3.84h-1.092v-.84c-.192.296-.467.521-.822.678-.356.156-.778.234-1.267.234-.712,0-1.282-.172-1.71-.517-.428-.344-.642-.796-.642-1.355s.204-1.01.612-1.351c.408-.34,1.056-.51,1.943-.51h1.824v-.228c0-.496-.145-.876-.432-1.141-.288-.264-.713-.396-1.272-.396-.376,0-.744.062-1.104.186-.36.124-.665.29-.912.498l-.48-.863c.328-.265.72-.467,1.177-.606.455-.14.939-.21,1.451-.21.88,0,1.555.216,2.022.647ZM488.37,34.151c.32-.195.552-.474.696-.834v-.888h-1.775c-.977,0-1.465.328-1.465.984,0,.319.124.571.372.756.248.184.592.275,1.032.275s.82-.098,1.14-.294Z" fill="#000" stroke-width="0"/>
    <path d="M498.475,28.901v5.496c0,1.112-.276,1.935-.828,2.466-.553.532-1.376.799-2.473.799-.6,0-1.172-.082-1.716-.246s-.983-.398-1.319-.702l.552-.888c.296.256.662.457,1.098.605.437.148.886.222,1.351.222.744,0,1.294-.176,1.649-.527.356-.353.534-.889.534-1.608v-.504c-.271.328-.605.574-1.002.738s-.826.246-1.29.246c-.608,0-1.158-.13-1.649-.391-.492-.26-.879-.624-1.158-1.092-.28-.468-.42-1.002-.42-1.602s.14-1.135.42-1.603c.279-.468.666-.83,1.158-1.086.491-.256,1.041-.384,1.649-.384.479,0,.926.088,1.338.264.412.177.75.437,1.015.78v-.984h1.092ZM496.284,33.726c.332-.176.592-.422.78-.738.188-.315.282-.674.282-1.073,0-.616-.204-1.114-.612-1.494s-.932-.57-1.572-.57c-.647,0-1.176.19-1.584.57s-.611.878-.611,1.494c0,.399.094.758.281,1.073.188.316.448.562.78.738s.71.264,1.134.264c.416,0,.79-.088,1.122-.264Z" fill="#000" stroke-width="0"/>
    <path d="M506.395,32.466h-5.16c.072.56.318,1.01.738,1.35.42.341.941.511,1.565.511.76,0,1.372-.257,1.836-.769l.636.744c-.287.336-.646.592-1.074.768-.428.177-.905.265-1.434.265-.672,0-1.268-.139-1.788-.414-.52-.276-.922-.662-1.206-1.158-.283-.496-.426-1.056-.426-1.68,0-.616.139-1.172.414-1.668.276-.496.656-.883,1.141-1.158.483-.276,1.029-.414,1.638-.414s1.149.138,1.626.414c.476.275.848.662,1.115,1.158.269.496.402,1.063.402,1.704,0,.088-.008.203-.023.348ZM501.889,30.317c-.373.336-.591.776-.654,1.32h4.08c-.064-.536-.282-.974-.654-1.314-.372-.34-.834-.51-1.386-.51s-1.015.168-1.386.504Z" fill="#000" stroke-width="0"/>
    <path d="M508.338,35.124c-.479-.141-.855-.318-1.128-.534l.48-.912c.279.2.62.36,1.02.48.4.119.804.18,1.212.18,1.008,0,1.512-.288,1.512-.864,0-.192-.067-.344-.203-.456-.137-.111-.307-.193-.51-.246-.205-.052-.494-.109-.871-.174-.512-.08-.93-.172-1.254-.276-.323-.104-.602-.279-.834-.527-.231-.248-.348-.596-.348-1.044,0-.576.24-1.038.72-1.387.48-.348,1.124-.521,1.933-.521.424,0,.848.052,1.271.156.424.104.772.244,1.044.42l-.491.912c-.521-.336-1.133-.504-1.836-.504-.488,0-.86.08-1.116.239-.257.16-.384.372-.384.637,0,.208.071.371.215.491.145.12.322.208.535.265.211.056.51.12.894.191.512.089.926.183,1.242.282.315.101.586.271.81.51.224.24.336.576.336,1.009,0,.575-.246,1.033-.738,1.373-.491.341-1.162.511-2.01.511-.52,0-1.02-.07-1.5-.21Z" fill="#000" stroke-width="0"/>
    <path d="M246.207,52.8c-.676-.372-1.206-.884-1.59-1.536s-.576-1.386-.576-2.202.192-1.55.576-2.202c.384-.651.916-1.164,1.596-1.536.68-.371,1.44-.558,2.28-.558.656,0,1.256.11,1.8.33s1.008.546,1.393.978l-.78.757c-.632-.664-1.42-.996-2.364-.996-.624,0-1.188.14-1.691.42-.504.28-.898.666-1.183,1.158-.284.491-.426,1.042-.426,1.649s.142,1.158.426,1.65c.284.492.678.878,1.183,1.158.504.279,1.067.42,1.691.42.937,0,1.724-.336,2.364-1.009l.78.757c-.384.432-.851.76-1.398.983-.548.225-1.15.336-1.806.336-.84,0-1.598-.186-2.274-.558Z" fill="#000" stroke-width="0"/>
    <path d="M253.989,52.914c-.504-.28-.898-.666-1.182-1.158-.284-.492-.426-1.05-.426-1.674s.142-1.183.426-1.674c.284-.492.678-.877,1.182-1.152.504-.276,1.072-.414,1.704-.414s1.198.138,1.698.414c.5.275.892.66,1.176,1.152.284.491.426,1.05.426,1.674s-.142,1.182-.426,1.674-.676.878-1.176,1.158c-.5.279-1.066.42-1.698.42s-1.2-.141-1.704-.42ZM256.792,52.044c.324-.188.578-.452.762-.792.184-.34.275-.73.275-1.17s-.092-.83-.275-1.17c-.185-.34-.438-.603-.762-.786-.324-.185-.69-.276-1.098-.276s-.774.092-1.098.276c-.324.184-.58.446-.769.786-.188.34-.282.729-.282,1.17s.094.83.282,1.17c.188.34.444.604.769.792.324.188.689.282,1.098.282s.774-.095,1.098-.282Z" fill="#000" stroke-width="0"/>
    <path d="M265.911,47.544c.476.468.714,1.154.714,2.058v3.66h-1.151v-3.528c0-.615-.148-1.08-.444-1.392-.296-.312-.72-.468-1.271-.468-.625,0-1.116.182-1.477.546-.36.364-.54.886-.54,1.565v3.276h-1.152v-6.36h1.104v.96c.232-.327.546-.579.941-.756.396-.176.847-.264,1.351-.264.808,0,1.45.234,1.926.702Z" fill="#000" stroke-width="0"/>
    <path d="M270.058,46.35v.552h1.848v.948h-1.823v5.412h-1.152v-5.412h-1.08v-.948h1.08v-.563c0-.632.184-1.132.552-1.5s.884-.552,1.548-.552c.256,0,.496.031.721.096.224.064.415.156.575.276l-.348.876c-.265-.2-.56-.301-.888-.301-.688,0-1.032.372-1.032,1.116Z" fill="#000" stroke-width="0"/>
    <path d="M278.625,50.466h-5.16c.072.56.318,1.01.738,1.35.42.341.942.511,1.566.511.76,0,1.372-.257,1.836-.769l.636.744c-.288.336-.646.592-1.074.768-.428.177-.905.265-1.434.265-.672,0-1.269-.139-1.788-.414-.52-.276-.922-.662-1.206-1.158s-.426-1.056-.426-1.68c0-.616.138-1.172.414-1.668s.655-.883,1.14-1.158c.484-.276,1.03-.414,1.639-.414s1.149.138,1.625.414c.477.275.849.662,1.116,1.158.269.496.402,1.063.402,1.704,0,.088-.008.203-.024.348ZM274.119,48.317c-.372.336-.59.776-.654,1.32h4.08c-.063-.536-.281-.974-.653-1.314-.372-.34-.834-.51-1.386-.51s-1.015.168-1.387.504Z" fill="#000" stroke-width="0"/>
    <path d="M281.283,52.914c-.508-.28-.906-.666-1.193-1.158-.289-.492-.433-1.05-.433-1.674s.144-1.183.433-1.674c.287-.492.686-.877,1.193-1.152.508-.276,1.086-.414,1.734-.414.576,0,1.09.116,1.542.348.452.232.802.568,1.05,1.008l-.876.564c-.2-.304-.448-.532-.744-.684-.296-.152-.624-.229-.983-.229-.416,0-.791.092-1.123.276-.332.184-.592.446-.779.786-.188.34-.282.729-.282,1.17,0,.448.094.842.282,1.182.188.34.447.603.779.786s.707.276,1.123.276c.359,0,.688-.076.983-.229.296-.151.544-.38.744-.684l.876.552c-.248.44-.598.778-1.05,1.014-.452.236-.966.354-1.542.354-.648,0-1.227-.141-1.734-.42Z" fill="#000" stroke-width="0"/>
    <path d="M290.757,52.89c-.168.145-.376.254-.624.33s-.504.114-.768.114c-.641,0-1.137-.172-1.488-.517-.352-.344-.527-.836-.527-1.476v-3.492h-1.08v-.948h1.08v-1.392h1.151v1.392h1.824v.948h-1.824v3.444c0,.344.086.607.258.792.173.184.418.275.738.275.353,0,.652-.1.9-.3l.359.828Z" fill="#000" stroke-width="0"/>
    <path d="M292.167,45.462c-.147-.145-.222-.32-.222-.528s.074-.386.222-.534c.148-.147.334-.222.558-.222s.41.07.559.21.222.314.222.522c0,.216-.073.397-.222.546-.148.147-.334.222-.559.222s-.409-.072-.558-.216ZM292.149,46.901h1.151v6.36h-1.151v-6.36Z" fill="#000" stroke-width="0"/>
    <path d="M296.517,52.914c-.504-.28-.897-.666-1.182-1.158s-.427-1.05-.427-1.674.143-1.183.427-1.674c.284-.492.678-.877,1.182-1.152.504-.276,1.072-.414,1.704-.414s1.198.138,1.698.414c.5.275.892.66,1.176,1.152.284.491.426,1.05.426,1.674s-.142,1.182-.426,1.674-.676.878-1.176,1.158c-.5.279-1.066.42-1.698.42s-1.2-.141-1.704-.42ZM299.318,52.044c.324-.188.578-.452.763-.792.184-.34.275-.73.275-1.17s-.092-.83-.275-1.17c-.185-.34-.438-.603-.763-.786-.323-.185-.689-.276-1.098-.276s-.773.092-1.098.276c-.324.184-.58.446-.769.786-.188.34-.282.729-.282,1.17s.095.83.282,1.17c.188.34.444.604.769.792.324.188.689.282,1.098.282s.774-.095,1.098-.282Z" fill="#000" stroke-width="0"/>
    <path d="M308.439,47.544c.476.468.713,1.154.713,2.058v3.66h-1.151v-3.528c0-.615-.148-1.08-.444-1.392-.296-.312-.72-.468-1.271-.468-.624,0-1.116.182-1.477.546-.359.364-.54.886-.54,1.565v3.276h-1.151v-6.36h1.104v.96c.232-.327.546-.579.942-.756.396-.176.846-.264,1.35-.264.808,0,1.45.234,1.927.702Z" fill="#000" stroke-width="0"/>
    <path d="M320.24,50.466h-5.159c.071.56.317,1.01.737,1.35.42.341.942.511,1.566.511.76,0,1.372-.257,1.836-.769l.636.744c-.288.336-.646.592-1.073.768-.429.177-.906.265-1.435.265-.672,0-1.268-.139-1.788-.414-.52-.276-.922-.662-1.206-1.158s-.426-1.056-.426-1.68c0-.616.138-1.172.414-1.668s.656-.883,1.14-1.158c.484-.276,1.03-.414,1.639-.414s1.149.138,1.626.414c.476.275.848.662,1.116,1.158.268.496.401,1.063.401,1.704,0,.088-.008.203-.024.348ZM315.734,48.317c-.371.336-.59.776-.653,1.32h4.08c-.064-.536-.282-.974-.654-1.314-.372-.34-.834-.51-1.386-.51s-1.015.168-1.387.504Z" fill="#000" stroke-width="0"/>
    <path d="M325.437,52.89c-.168.145-.376.254-.624.33s-.504.114-.768.114c-.641,0-1.137-.172-1.488-.517-.352-.344-.527-.836-.527-1.476v-3.492h-1.08v-.948h1.08v-1.392h1.151v1.392h1.824v.948h-1.824v3.444c0,.344.086.607.258.792.173.184.418.275.738.275.353,0,.652-.1.9-.3l.359.828Z" fill="#000" stroke-width="0"/>
    <path d="M330.074,45.462c-.147-.145-.222-.32-.222-.528s.074-.386.222-.534c.148-.147.334-.222.559-.222s.41.07.558.21c.148.14.222.314.222.522,0,.216-.073.397-.222.546-.147.147-.334.222-.558.222s-.41-.072-.559-.216ZM330.057,46.901h1.152v6.36h-1.152v-6.36Z" fill="#000" stroke-width="0"/>
    <path d="M343.263,47.538c.468.464.702,1.151.702,2.063v3.66h-1.152v-3.528c0-.615-.143-1.08-.426-1.392-.284-.312-.69-.468-1.219-.468-.584,0-1.048.182-1.392.546s-.516.886-.516,1.565v3.276h-1.152v-3.528c0-.615-.142-1.08-.426-1.392-.284-.312-.69-.468-1.218-.468-.584,0-1.049.182-1.393.546s-.516.886-.516,1.565v3.276h-1.152v-6.36h1.104v.948c.231-.328.536-.578.911-.75.377-.172.805-.258,1.285-.258.495,0,.936.1,1.319.3s.68.492.888.876c.24-.368.574-.655,1.002-.864.428-.208.91-.312,1.446-.312.8,0,1.435.232,1.902.696Z" fill="#000" stroke-width="0"/>
    <path d="M351.116,47.25c.488.271.87.651,1.146,1.14.275.488.413,1.052.413,1.692s-.138,1.206-.413,1.697c-.276.492-.658.875-1.146,1.146-.488.272-1.04.408-1.655.408-.457,0-.875-.088-1.255-.265-.38-.176-.702-.432-.966-.768v3.288h-1.152v-8.688h1.104v1.009c.256-.353.58-.618.972-.799.393-.18.824-.27,1.297-.27.615,0,1.167.136,1.655.408ZM350.463,52.044c.323-.188.579-.452.768-.792.188-.34.282-.73.282-1.17s-.095-.83-.282-1.17c-.188-.34-.444-.603-.768-.786-.324-.185-.69-.276-1.099-.276-.4,0-.762.094-1.086.282-.324.188-.58.45-.769.786-.188.336-.281.724-.281,1.164s.092.83.275,1.17c.185.34.44.604.769.792.328.188.691.282,1.092.282.408,0,.774-.095,1.099-.282Z" fill="#000" stroke-width="0"/>
    <path d="M356.264,47.13c.393-.192.868-.288,1.429-.288v1.116c-.064-.008-.152-.013-.265-.013-.623,0-1.113.187-1.47.559s-.534.902-.534,1.59v3.168h-1.151v-6.36h1.104v1.068c.2-.368.496-.648.888-.84Z" fill="#000" stroke-width="0"/>
    <path d="M364.772,50.466h-5.16c.072.56.318,1.01.738,1.35.42.341.941.511,1.565.511.76,0,1.372-.257,1.836-.769l.637.744c-.288.336-.646.592-1.074.768-.428.177-.906.265-1.434.265-.673,0-1.269-.139-1.789-.414-.52-.276-.922-.662-1.205-1.158-.284-.496-.427-1.056-.427-1.68,0-.616.139-1.172.414-1.668.276-.496.656-.883,1.141-1.158.483-.276,1.029-.414,1.638-.414s1.15.138,1.626.414c.476.275.848.662,1.116,1.158.268.496.402,1.063.402,1.704,0,.088-.009.203-.024.348ZM360.267,48.317c-.372.336-.591.776-.654,1.32h4.08c-.064-.536-.282-.974-.654-1.314-.372-.34-.834-.51-1.386-.51s-1.014.168-1.386.504Z" fill="#000" stroke-width="0"/>
    <path d="M366.717,53.124c-.48-.141-.856-.318-1.129-.534l.48-.912c.279.2.62.36,1.02.48.4.119.805.18,1.213.18,1.008,0,1.512-.288,1.512-.864,0-.192-.068-.344-.204-.456-.136-.111-.306-.193-.51-.246-.204-.052-.494-.109-.87-.174-.512-.08-.93-.172-1.254-.276-.324-.104-.603-.279-.834-.527-.232-.248-.349-.596-.349-1.044,0-.576.24-1.038.72-1.387.48-.348,1.125-.521,1.933-.521.424,0,.848.052,1.272.156.424.104.771.244,1.043.42l-.491.912c-.521-.336-1.132-.504-1.836-.504-.488,0-.86.08-1.116.239-.256.16-.384.372-.384.637,0,.208.071.371.216.491.144.12.322.208.534.265.212.056.51.12.894.191.512.089.926.183,1.242.282.316.101.586.271.81.51.224.24.337.576.337,1.009,0,.575-.246,1.033-.738,1.373-.492.341-1.162.511-2.01.511-.521,0-1.021-.07-1.5-.21Z" fill="#000" stroke-width="0"/>
    <path d="M372.729,53.124c-.48-.141-.856-.318-1.129-.534l.48-.912c.279.2.62.36,1.02.48.4.119.805.18,1.213.18,1.008,0,1.512-.288,1.512-.864,0-.192-.068-.344-.204-.456-.136-.111-.306-.193-.51-.246-.204-.052-.494-.109-.87-.174-.512-.08-.93-.172-1.254-.276-.324-.104-.603-.279-.834-.527-.232-.248-.349-.596-.349-1.044,0-.576.24-1.038.72-1.387.48-.348,1.125-.521,1.933-.521.424,0,.848.052,1.272.156.424.104.771.244,1.043.42l-.491.912c-.521-.336-1.132-.504-1.836-.504-.488,0-.86.08-1.116.239-.256.16-.384.372-.384.637,0,.208.071.371.216.491.144.12.322.208.534.265.212.056.51.12.894.191.512.089.926.183,1.242.282.316.101.586.271.81.51.224.24.337.576.337,1.009,0,.575-.246,1.033-.738,1.373-.492.341-1.162.511-2.01.511-.521,0-1.021-.07-1.5-.21Z" fill="#000" stroke-width="0"/>
    <path d="M378.434,45.462c-.147-.145-.222-.32-.222-.528s.074-.386.222-.534c.148-.147.334-.222.559-.222s.41.07.558.21c.148.14.222.314.222.522,0,.216-.073.397-.222.546-.147.147-.334.222-.558.222s-.41-.072-.559-.216ZM378.416,46.901h1.152v6.36h-1.152v-6.36Z" fill="#000" stroke-width="0"/>
    <path d="M382.784,52.914c-.505-.28-.898-.666-1.183-1.158-.283-.492-.426-1.05-.426-1.674s.143-1.183.426-1.674c.284-.492.678-.877,1.183-1.152.504-.276,1.071-.414,1.704-.414s1.197.138,1.697.414c.5.275.893.66,1.176,1.152.284.491.427,1.05.427,1.674s-.143,1.182-.427,1.674c-.283.492-.676.878-1.176,1.158-.5.279-1.066.42-1.697.42s-1.2-.141-1.704-.42ZM385.586,52.044c.324-.188.578-.452.762-.792s.276-.73.276-1.17-.093-.83-.276-1.17-.438-.603-.762-.786c-.324-.185-.689-.276-1.098-.276s-.774.092-1.099.276c-.323.184-.58.446-.768.786-.188.34-.282.729-.282,1.17s.094.83.282,1.17c.188.34.444.604.768.792.324.188.69.282,1.099.282s.773-.095,1.098-.282Z" fill="#000" stroke-width="0"/>
    <path d="M394.706,47.544c.476.468.714,1.154.714,2.058v3.66h-1.152v-3.528c0-.615-.147-1.08-.443-1.392-.297-.312-.721-.468-1.272-.468-.624,0-1.116.182-1.476.546-.36.364-.54.886-.54,1.565v3.276h-1.152v-6.36h1.104v.96c.231-.327.546-.579.941-.756.396-.176.846-.264,1.351-.264.808,0,1.45.234,1.926.702Z" fill="#000" stroke-width="0"/>
    <path d="M405.812,47.25c.487.271.869.651,1.146,1.14s.414,1.052.414,1.692-.138,1.206-.414,1.697c-.276.492-.658.875-1.146,1.146-.488.272-1.041.408-1.656.408-.456,0-.875-.088-1.254-.265-.381-.176-.702-.432-.967-.768v3.288h-1.151v-8.688h1.104v1.009c.256-.353.58-.618.972-.799.393-.18.824-.27,1.297-.27.615,0,1.168.136,1.656.408ZM405.158,52.044c.324-.188.58-.452.768-.792s.282-.73.282-1.17-.095-.83-.282-1.17-.443-.603-.768-.786c-.324-.185-.69-.276-1.099-.276-.399,0-.762.094-1.086.282-.323.188-.58.45-.768.786-.188.336-.282.724-.282,1.164s.092.83.276,1.17c.184.34.439.604.768.792.328.188.692.282,1.092.282.408,0,.774-.095,1.099-.282Z" fill="#000" stroke-width="0"/>
    <path d="M414.691,50.466h-5.16c.072.56.318,1.01.738,1.35.42.341.942.511,1.566.511.76,0,1.372-.257,1.836-.769l.636.744c-.288.336-.646.592-1.074.768-.428.177-.905.265-1.434.265-.672,0-1.269-.139-1.788-.414-.52-.276-.922-.662-1.206-1.158s-.426-1.056-.426-1.68c0-.616.138-1.172.414-1.668s.655-.883,1.14-1.158c.484-.276,1.03-.414,1.639-.414s1.149.138,1.625.414c.477.275.849.662,1.116,1.158.269.496.402,1.063.402,1.704,0,.088-.008.203-.024.348ZM410.186,48.317c-.372.336-.59.776-.654,1.32h4.08c-.063-.536-.281-.974-.653-1.314-.372-.34-.834-.51-1.386-.51s-1.015.168-1.387.504Z" fill="#000" stroke-width="0"/>
    <path d="M418.304,47.13c.392-.192.868-.288,1.428-.288v1.116c-.063-.008-.151-.013-.264-.013-.624,0-1.114.187-1.47.559-.356.372-.534.902-.534,1.59v3.168h-1.152v-6.36h1.104v1.068c.199-.368.496-.648.888-.84Z" fill="#000" stroke-width="0"/>
    <path d="M421.52,53.124c-.479-.141-.855-.318-1.128-.534l.48-.912c.279.2.62.36,1.02.48.4.119.804.18,1.212.18,1.008,0,1.512-.288,1.512-.864,0-.192-.067-.344-.203-.456-.137-.111-.307-.193-.51-.246-.205-.052-.494-.109-.871-.174-.512-.08-.93-.172-1.254-.276-.323-.104-.602-.279-.834-.527-.231-.248-.348-.596-.348-1.044,0-.576.24-1.038.72-1.387.48-.348,1.124-.521,1.933-.521.424,0,.848.052,1.271.156.424.104.772.244,1.044.42l-.491.912c-.521-.336-1.133-.504-1.836-.504-.488,0-.86.08-1.116.239-.257.16-.384.372-.384.637,0,.208.071.371.215.491.145.12.322.208.535.265.211.056.51.12.894.191.512.089.926.183,1.242.282.315.101.586.271.81.51.224.24.336.576.336,1.009,0,.575-.246,1.033-.738,1.373-.491.341-1.162.511-2.01.511-.52,0-1.02-.07-1.5-.21Z" fill="#000" stroke-width="0"/>
    <path d="M428.228,52.914c-.504-.28-.897-.666-1.182-1.158s-.427-1.05-.427-1.674.143-1.183.427-1.674c.284-.492.678-.877,1.182-1.152.504-.276,1.072-.414,1.704-.414s1.198.138,1.698.414c.5.275.892.66,1.176,1.152.284.491.426,1.05.426,1.674s-.142,1.182-.426,1.674-.676.878-1.176,1.158c-.5.279-1.066.42-1.698.42s-1.2-.141-1.704-.42ZM431.029,52.044c.324-.188.578-.452.763-.792.184-.34.275-.73.275-1.17s-.092-.83-.275-1.17c-.185-.34-.438-.603-.763-.786-.323-.185-.689-.276-1.098-.276s-.773.092-1.098.276c-.324.184-.58.446-.769.786-.188.34-.282.729-.282,1.17s.095.83.282,1.17c.188.34.444.604.769.792.324.188.689.282,1.098.282s.774-.095,1.098-.282Z" fill="#000" stroke-width="0"/>
    <path d="M440.149,47.544c.476.468.714,1.154.714,2.058v3.66h-1.151v-3.528c0-.615-.148-1.08-.444-1.392-.296-.312-.72-.468-1.271-.468-.625,0-1.116.182-1.477.546-.359.364-.54.886-.54,1.565v3.276h-1.151v-6.36h1.104v.96c.232-.327.546-.579.941-.756.396-.176.847-.264,1.351-.264.808,0,1.45.234,1.926.702Z" fill="#000" stroke-width="0"/>
    <path d="M448.321,47.544c.476.468.714,1.154.714,2.058v3.66h-1.151v-3.528c0-.615-.148-1.08-.444-1.392-.296-.312-.72-.468-1.271-.468-.625,0-1.116.182-1.477.546-.359.364-.54.886-.54,1.565v3.276h-1.151v-6.36h1.104v.96c.232-.327.546-.579.941-.756.396-.176.847-.264,1.351-.264.808,0,1.45.234,1.926.702Z" fill="#000" stroke-width="0"/>
    <path d="M455.51,47.489c.468.433.702,1.076.702,1.933v3.84h-1.093v-.84c-.191.296-.466.521-.821.678-.356.156-.778.234-1.267.234-.712,0-1.281-.172-1.71-.517-.428-.344-.642-.796-.642-1.355s.204-1.01.611-1.351c.408-.34,1.057-.51,1.944-.51h1.824v-.228c0-.496-.144-.876-.432-1.141-.288-.264-.712-.396-1.272-.396-.376,0-.744.062-1.104.186-.36.124-.664.29-.912.498l-.48-.863c.328-.265.721-.467,1.176-.606.457-.14.94-.21,1.452-.21.88,0,1.554.216,2.022.647ZM454.363,52.151c.32-.195.553-.474.696-.834v-.888h-1.776c-.976,0-1.464.328-1.464.984,0,.319.124.571.372.756.248.184.592.275,1.032.275s.819-.098,1.14-.294Z" fill="#000" stroke-width="0"/>
    <path d="M458.348,44.357h1.151v8.904h-1.151v-8.904Z" fill="#000" stroke-width="0"/>
    <path d="M461.713,45.462c-.147-.145-.222-.32-.222-.528s.074-.386.222-.534c.148-.147.334-.222.559-.222s.41.07.558.21c.148.14.222.314.222.522,0,.216-.073.397-.222.546-.147.147-.334.222-.558.222s-.41-.072-.559-.216ZM461.695,46.901h1.152v6.36h-1.152v-6.36Z" fill="#000" stroke-width="0"/>
    <path d="M465.367,53.124c-.48-.141-.856-.318-1.128-.534l.479-.912c.28.2.62.36,1.021.48.399.119.804.18,1.212.18,1.008,0,1.512-.288,1.512-.864,0-.192-.068-.344-.203-.456-.137-.111-.307-.193-.511-.246-.204-.052-.494-.109-.87-.174-.512-.08-.93-.172-1.254-.276-.324-.104-.602-.279-.834-.527s-.348-.596-.348-1.044c0-.576.24-1.038.72-1.387.479-.348,1.124-.521,1.933-.521.424,0,.848.052,1.271.156.424.104.771.244,1.044.42l-.492.912c-.521-.336-1.132-.504-1.836-.504-.487,0-.86.08-1.116.239-.256.16-.384.372-.384.637,0,.208.072.371.216.491.145.12.322.208.534.265.212.056.511.12.894.191.513.089.927.183,1.242.282.316.101.586.271.811.51.224.24.336.576.336,1.009,0,.575-.246,1.033-.738,1.373-.492.341-1.162.511-2.01.511-.52,0-1.02-.07-1.5-.21Z" fill="#000" stroke-width="0"/>
    <path d="M476.779,50.466h-5.16c.072.56.318,1.01.738,1.35.42.341.941.511,1.565.511.761,0,1.372-.257,1.836-.769l.636.744c-.287.336-.646.592-1.073.768-.429.177-.906.265-1.435.265-.672,0-1.268-.139-1.787-.414-.521-.276-.923-.662-1.207-1.158-.283-.496-.426-1.056-.426-1.68,0-.616.139-1.172.414-1.668.276-.496.656-.883,1.141-1.158.483-.276,1.029-.414,1.638-.414s1.149.138,1.626.414c.476.275.848.662,1.116,1.158.268.496.401,1.063.401,1.704,0,.088-.008.203-.023.348ZM472.273,48.317c-.372.336-.59.776-.654,1.32h4.08c-.064-.536-.282-.974-.654-1.314-.372-.34-.834-.51-1.386-.51s-1.015.168-1.386.504ZM474.379,44.418h1.464l-2.016,1.56h-1.08l1.632-1.56Z" fill="#000" stroke-width="0"/>
    <path d="M484.123,50.466h-5.16c.072.56.318,1.01.738,1.35.42.341.941.511,1.566.511.76,0,1.371-.257,1.836-.769l.636.744c-.288.336-.646.592-1.074.768-.428.177-.906.265-1.434.265-.673,0-1.269-.139-1.788-.414-.521-.276-.922-.662-1.206-1.158s-.427-1.056-.427-1.68c0-.616.139-1.172.414-1.668.276-.496.656-.883,1.141-1.158.484-.276,1.029-.414,1.638-.414s1.15.138,1.626.414c.477.275.848.662,1.116,1.158s.402,1.063.402,1.704c0,.088-.009.203-.024.348ZM479.617,48.317c-.372.336-.59.776-.654,1.32h4.08c-.064-.536-.281-.974-.654-1.314-.371-.34-.834-.51-1.386-.51s-1.014.168-1.386.504Z" fill="#000" stroke-width="0"/>
    <path d="M486.067,53.124c-.48-.141-.856-.318-1.128-.534l.479-.912c.28.2.62.36,1.021.48.399.119.804.18,1.212.18,1.008,0,1.512-.288,1.512-.864,0-.192-.068-.344-.204-.456-.136-.111-.306-.193-.51-.246-.204-.052-.494-.109-.87-.174-.512-.08-.93-.172-1.254-.276-.324-.104-.603-.279-.834-.527-.232-.248-.349-.596-.349-1.044,0-.576.24-1.038.721-1.387.479-.348,1.124-.521,1.932-.521.424,0,.848.052,1.272.156.424.104.771.244,1.044.42l-.492.912c-.521-.336-1.132-.504-1.836-.504-.488,0-.86.08-1.116.239-.256.16-.384.372-.384.637,0,.208.072.371.216.491s.322.208.534.265c.212.056.51.12.894.191.513.089.927.183,1.242.282.316.101.586.271.81.51.225.24.337.576.337,1.009,0,.575-.246,1.033-.738,1.373-.492.341-1.162.511-2.01.511-.521,0-1.021-.07-1.5-.21Z" fill="#000" stroke-width="0"/>
    <path d="M254.182,82.901l-2.376,6.36h-1.104l-1.836-4.824-1.86,4.824h-1.104l-2.364-6.36h1.092l1.848,5.064,1.92-5.064h.972l1.884,5.088,1.896-5.088h1.032Z" fill="#000" stroke-width="0"/>
    <path d="M264.873,82.901l-2.376,6.36h-1.104l-1.836-4.824-1.86,4.824h-1.104l-2.364-6.36h1.092l1.848,5.064,1.92-5.064h.973l1.884,5.088,1.896-5.088h1.031Z" fill="#000" stroke-width="0"/>
    <path d="M275.565,82.901l-2.376,6.36h-1.104l-1.836-4.824-1.86,4.824h-1.104l-2.364-6.36h1.093l1.848,5.064,1.92-5.064h.972l1.884,5.088,1.896-5.088h1.032Z" fill="#000" stroke-width="0"/>
    <path d="M276.033,89.1c-.16-.156-.24-.354-.24-.594,0-.232.08-.426.24-.582s.352-.234.576-.234.412.076.563.229c.152.151.229.348.229.588s-.078.438-.234.594c-.155.156-.342.234-.558.234-.225,0-.416-.078-.576-.234Z" fill="#000" stroke-width="0"/>
    <path d="M281.529,86.298l-1.32,1.224v1.74h-1.152v-8.904h1.152v5.712l3.468-3.168h1.392l-2.676,2.628,2.94,3.732h-1.416l-2.388-2.964Z" fill="#000" stroke-width="0"/>
    <path d="M291.909,86.466h-5.16c.072.56.318,1.01.738,1.35.42.341.941.511,1.565.511.76,0,1.372-.257,1.836-.769l.637.744c-.288.336-.646.592-1.074.768-.428.177-.906.265-1.434.265-.673,0-1.269-.139-1.789-.414-.52-.276-.922-.662-1.205-1.158-.284-.496-.427-1.056-.427-1.68,0-.616.139-1.172.414-1.668.276-.496.656-.883,1.141-1.158.483-.276,1.029-.414,1.638-.414s1.15.138,1.626.414c.476.275.848.662,1.116,1.158.268.496.402,1.063.402,1.704,0,.088-.009.203-.024.348ZM287.403,84.317c-.372.336-.591.776-.654,1.32h4.08c-.064-.536-.282-.974-.654-1.314-.372-.34-.834-.51-1.386-.51s-1.014.168-1.386.504Z" fill="#000" stroke-width="0"/>
    <path d="M295.521,83.13c.392-.192.867-.288,1.428-.288v1.116c-.064-.008-.152-.013-.264-.013-.625,0-1.115.187-1.471.559s-.534.902-.534,1.59v3.168h-1.151v-6.36h1.104v1.068c.2-.368.496-.648.889-.84Z" fill="#000" stroke-width="0"/>
    <path d="M298.737,89.124c-.48-.141-.856-.318-1.128-.534l.479-.912c.28.2.62.36,1.021.48.399.119.804.18,1.212.18,1.008,0,1.512-.288,1.512-.864,0-.192-.068-.344-.204-.456-.136-.111-.306-.193-.51-.246-.204-.052-.494-.109-.87-.174-.512-.08-.93-.172-1.254-.276-.324-.104-.603-.279-.834-.527-.232-.248-.349-.596-.349-1.044,0-.576.24-1.038.721-1.387.479-.348,1.124-.521,1.932-.521.424,0,.848.052,1.272.156.424.104.771.244,1.044.42l-.492.912c-.521-.336-1.132-.504-1.836-.504-.488,0-.86.08-1.116.239-.256.16-.384.372-.384.637,0,.208.072.371.216.491s.322.208.534.265c.212.056.51.12.894.191.513.089.927.183,1.242.282.316.101.586.271.81.51.225.24.337.576.337,1.009,0,.575-.246,1.033-.738,1.373-.492.341-1.162.511-2.01.511-.521,0-1.021-.07-1.5-.21Z" fill="#000" stroke-width="0"/>
    <path d="M308.001,88.89c-.168.145-.376.254-.624.33s-.504.114-.768.114c-.641,0-1.137-.172-1.488-.517-.353-.344-.528-.836-.528-1.476v-3.492h-1.08v-.948h1.08v-1.392h1.152v1.392h1.824v.948h-1.824v3.444c0,.344.086.607.258.792.172.184.418.275.738.275.352,0,.651-.1.899-.3l.36.828Z" fill="#000" stroke-width="0"/>
    <path d="M309.411,81.462c-.148-.145-.223-.32-.223-.528s.074-.386.223-.534c.147-.147.333-.222.558-.222s.41.07.559.21c.147.14.222.314.222.522,0,.216-.074.397-.222.546-.148.147-.335.222-.559.222s-.41-.072-.558-.216ZM309.393,82.901h1.152v6.36h-1.152v-6.36Z" fill="#000" stroke-width="0"/>
    <path d="M313.778,88.914c-.508-.28-.905-.666-1.193-1.158s-.433-1.05-.433-1.674.145-1.183.433-1.674c.288-.492.686-.877,1.193-1.152.509-.276,1.087-.414,1.734-.414.576,0,1.09.116,1.542.348.452.232.802.568,1.05,1.008l-.876.564c-.2-.304-.448-.532-.744-.684-.296-.152-.624-.229-.983-.229-.416,0-.79.092-1.122.276-.332.184-.592.446-.78.786s-.282.729-.282,1.17c0,.448.094.842.282,1.182s.448.603.78.786.706.276,1.122.276c.359,0,.688-.076.983-.229.296-.151.544-.38.744-.684l.876.552c-.248.44-.598.778-1.05,1.014-.452.236-.966.354-1.542.354-.647,0-1.226-.141-1.734-.42Z" fill="#000" stroke-width="0"/>
    <path d="M319.532,89.1c-.16-.156-.239-.354-.239-.594,0-.232.079-.426.239-.582s.353-.234.576-.234.412.076.563.229c.152.151.229.348.229.588s-.078.438-.234.594c-.155.156-.342.234-.558.234-.224,0-.416-.078-.576-.234Z" fill="#000" stroke-width="0"/>
    <path d="M323.45,88.914c-.508-.28-.905-.666-1.193-1.158s-.433-1.05-.433-1.674.145-1.183.433-1.674c.288-.492.686-.877,1.193-1.152.509-.276,1.087-.414,1.734-.414.576,0,1.09.116,1.542.348.452.232.802.568,1.05,1.008l-.876.564c-.2-.304-.448-.532-.744-.684-.296-.152-.624-.229-.983-.229-.416,0-.79.092-1.122.276-.332.184-.592.446-.78.786s-.282.729-.282,1.17c0,.448.094.842.282,1.182s.448.603.78.786.706.276,1.122.276c.359,0,.688-.076.983-.229.296-.151.544-.38.744-.684l.876.552c-.248.44-.598.778-1.05,1.014-.452.236-.966.354-1.542.354-.647,0-1.226-.141-1.734-.42Z" fill="#000" stroke-width="0"/>
    <path d="M330.188,88.914c-.504-.28-.897-.666-1.182-1.158s-.427-1.05-.427-1.674.143-1.183.427-1.674c.284-.492.678-.877,1.182-1.152.504-.276,1.072-.414,1.704-.414s1.198.138,1.698.414c.5.275.892.66,1.176,1.152.284.491.426,1.05.426,1.674s-.142,1.182-.426,1.674-.676.878-1.176,1.158c-.5.279-1.066.42-1.698.42s-1.2-.141-1.704-.42ZM332.99,88.044c.324-.188.578-.452.763-.792.184-.34.275-.73.275-1.17s-.092-.83-.275-1.17c-.185-.34-.438-.603-.763-.786-.323-.185-.689-.276-1.098-.276s-.773.092-1.098.276c-.324.184-.58.446-.769.786-.188.34-.282.729-.282,1.17s.095.83.282,1.17c.188.34.444.604.769.792.324.188.689.282,1.098.282s.774-.095,1.098-.282Z" fill="#000" stroke-width="0"/>
    <path d="M346.646,83.538c.468.464.702,1.151.702,2.063v3.66h-1.152v-3.528c0-.615-.142-1.08-.426-1.392-.284-.312-.69-.468-1.218-.468-.584,0-1.049.182-1.393.546s-.516.886-.516,1.565v3.276h-1.152v-3.528c0-.615-.142-1.08-.426-1.392-.284-.312-.689-.468-1.218-.468-.584,0-1.048.182-1.392.546-.345.364-.517.886-.517,1.565v3.276h-1.151v-6.36h1.104v.948c.232-.328.536-.578.912-.75s.804-.258,1.284-.258c.495,0,.936.1,1.319.3.385.2.68.492.889.876.24-.368.573-.655,1.002-.864.428-.208.91-.312,1.445-.312.801,0,1.435.232,1.902.696Z" fill="#000" stroke-width="0"/>
    <path d="M245.595,106.914c-.508-.28-.906-.666-1.194-1.158s-.432-1.05-.432-1.674.144-1.183.432-1.674c.288-.492.686-.877,1.194-1.152.508-.276,1.086-.414,1.734-.414.576,0,1.09.116,1.542.348.452.232.802.568,1.05,1.008l-.876.564c-.2-.304-.448-.532-.744-.684-.296-.152-.624-.229-.984-.229-.416,0-.79.092-1.122.276-.332.184-.592.446-.78.786-.188.34-.282.729-.282,1.17,0,.448.094.842.282,1.182.188.34.448.603.78.786s.706.276,1.122.276c.36,0,.688-.076.984-.229.296-.151.544-.38.744-.684l.876.552c-.248.44-.598.778-1.05,1.014-.452.236-.966.354-1.542.354-.647,0-1.226-.141-1.734-.42Z" fill="#000" stroke-width="0"/>
    <path d="M252.333,106.914c-.504-.28-.898-.666-1.182-1.158s-.426-1.05-.426-1.674.142-1.183.426-1.674c.284-.492.678-.877,1.182-1.152.504-.276,1.072-.414,1.704-.414s1.198.138,1.698.414c.5.275.892.66,1.176,1.152.284.491.426,1.05.426,1.674s-.142,1.182-.426,1.674c-.284.492-.676.878-1.176,1.158-.5.279-1.066.42-1.698.42s-1.2-.141-1.704-.42ZM255.136,106.044c.324-.188.578-.452.762-.792.184-.34.276-.73.276-1.17s-.092-.83-.276-1.17c-.184-.34-.438-.603-.762-.786-.324-.185-.69-.276-1.099-.276s-.773.092-1.098.276c-.324.184-.58.446-.768.786s-.282.729-.282,1.17.094.83.282,1.17.444.604.768.792c.324.188.69.282,1.098.282s.774-.095,1.099-.282Z" fill="#000" stroke-width="0"/>
    <path d="M264.256,101.544c.476.468.713,1.154.713,2.058v3.66h-1.151v-3.528c0-.615-.148-1.08-.444-1.392-.296-.312-.72-.468-1.271-.468-.624,0-1.116.182-1.477.546-.359.364-.54.886-.54,1.565v3.276h-1.151v-6.36h1.104v.96c.232-.327.546-.579.942-.756.396-.176.846-.264,1.35-.264.808,0,1.45.234,1.927.702Z" fill="#000" stroke-width="0"/>
    <path d="M270.682,106.89c-.168.145-.377.254-.625.33s-.504.114-.768.114c-.64,0-1.136-.172-1.488-.517-.352-.344-.527-.836-.527-1.476v-3.492h-1.08v-.948h1.08v-1.392h1.152v1.392h1.823v.948h-1.823v3.444c0,.344.085.607.258.792.172.184.418.275.737.275.353,0,.652-.1.9-.3l.36.828Z" fill="#000" stroke-width="0"/>
    <path d="M276.411,101.489c.468.433.702,1.076.702,1.933v3.84h-1.092v-.84c-.192.296-.467.521-.822.678-.356.156-.778.234-1.266.234-.713,0-1.282-.172-1.711-.517-.428-.344-.642-.796-.642-1.355s.204-1.01.612-1.351c.408-.34,1.056-.51,1.943-.51h1.824v-.228c0-.496-.144-.876-.432-1.141-.288-.264-.712-.396-1.272-.396-.376,0-.743.062-1.104.186s-.664.29-.912.498l-.479-.863c.327-.265.72-.467,1.176-.606s.939-.21,1.451-.21c.881,0,1.555.216,2.022.647ZM275.266,106.151c.319-.195.552-.474.695-.834v-.888h-1.775c-.977,0-1.465.328-1.465.984,0,.319.125.571.373.756.247.184.592.275,1.031.275s.82-.098,1.141-.294Z" fill="#000" stroke-width="0"/>
    <path d="M280.322,106.914c-.508-.28-.905-.666-1.193-1.158s-.432-1.05-.432-1.674.144-1.183.432-1.674c.288-.492.686-.877,1.193-1.152.509-.276,1.087-.414,1.734-.414.576,0,1.09.116,1.542.348.452.232.802.568,1.05,1.008l-.875.564c-.201-.304-.449-.532-.744-.684-.297-.152-.625-.229-.984-.229-.416,0-.79.092-1.122.276-.332.184-.592.446-.78.786-.188.34-.281.729-.281,1.17,0,.448.094.842.281,1.182.188.34.448.603.78.786s.706.276,1.122.276c.359,0,.688-.076.984-.229.295-.151.543-.38.744-.684l.875.552c-.248.44-.598.778-1.05,1.014-.452.236-.966.354-1.542.354-.647,0-1.226-.141-1.734-.42Z" fill="#000" stroke-width="0"/>
    <path d="M289.797,106.89c-.168.145-.376.254-.624.33s-.504.114-.769.114c-.64,0-1.136-.172-1.487-.517-.353-.344-.528-.836-.528-1.476v-3.492h-1.08v-.948h1.08v-1.392h1.152v1.392h1.824v.948h-1.824v3.444c0,.344.086.607.258.792.172.184.418.275.738.275.352,0,.652-.1.9-.3l.359.828Z" fill="#000" stroke-width="0"/>
    <path d="M299.229,99.443c.848.444,1.51,1.066,1.986,1.866.476.8.714,1.712.714,2.736s-.188,1.828-.563,2.412c-.377.584-.9.876-1.572.876-.385,0-.702-.098-.954-.294s-.414-.479-.486-.847c-.239.368-.554.65-.942.847-.388.196-.834.294-1.338.294-.56,0-1.063-.132-1.512-.396-.448-.264-.798-.63-1.05-1.098s-.378-.998-.378-1.59c0-.584.126-1.11.378-1.578s.602-.832,1.05-1.092.952-.391,1.512-.391c.465,0,.885.086,1.261.258.376.173.688.427.936.763v-.973h1.044v4.32c0,.296.064.515.192.654s.292.21.491.21c.353,0,.627-.206.822-.618.196-.412.295-.994.295-1.746,0-.888-.201-1.67-.601-2.346-.4-.676-.962-1.202-1.687-1.578-.724-.376-1.554-.564-2.489-.564-.944,0-1.778.196-2.502.589-.725.392-1.286.939-1.687,1.644s-.6,1.508-.6,2.412c0,.912.197,1.72.594,2.424s.952,1.254,1.668,1.65c.716.396,1.542.594,2.479.594.392,0,.791-.044,1.199-.132.408-.089.78-.221,1.116-.396l.265.769c-.353.184-.761.323-1.225.42-.464.096-.916.144-1.355.144-1.097,0-2.07-.233-2.922-.702-.853-.468-1.515-1.118-1.986-1.949-.473-.832-.708-1.772-.708-2.82s.237-1.984.714-2.809c.476-.823,1.144-1.468,2.004-1.932.859-.464,1.842-.696,2.946-.696,1.08,0,2.044.223,2.892.666ZM297.291,106.134c.308-.176.552-.426.731-.75.181-.324.271-.702.271-1.134s-.09-.811-.271-1.135c-.18-.323-.424-.571-.731-.743-.309-.172-.658-.259-1.051-.259-.607,0-1.1.194-1.476.582-.376.389-.563.906-.563,1.555s.189,1.168.569,1.56c.38.393.87.588,1.47.588.393,0,.742-.088,1.051-.264Z" fill="#000" stroke-width="0"/>
    <path d="M306.068,104.298l-1.32,1.224v1.74h-1.151v-8.904h1.151v5.712l3.469-3.168h1.392l-2.676,2.628,2.94,3.732h-1.416l-2.389-2.964Z" fill="#000" stroke-width="0"/>
    <path d="M316.449,104.466h-5.16c.072.56.318,1.01.738,1.35.42.341.941.511,1.565.511.76,0,1.372-.257,1.836-.769l.636.744c-.287.336-.646.592-1.074.768-.428.177-.905.265-1.434.265-.672,0-1.268-.139-1.788-.414-.52-.276-.922-.662-1.206-1.158-.283-.496-.426-1.056-.426-1.68,0-.616.139-1.172.414-1.668.276-.496.656-.883,1.141-1.158.483-.276,1.029-.414,1.638-.414s1.149.138,1.626.414c.476.275.848.662,1.115,1.158.269.496.402,1.063.402,1.704,0,.088-.008.203-.023.348ZM311.943,102.317c-.373.336-.591.776-.654,1.32h4.08c-.064-.536-.282-.974-.654-1.314-.372-.34-.834-.51-1.386-.51s-1.015.168-1.386.504Z" fill="#000" stroke-width="0"/>
    <path d="M320.061,101.13c.392-.192.868-.288,1.428-.288v1.116c-.064-.008-.152-.013-.264-.013-.624,0-1.114.187-1.47.559-.356.372-.534.902-.534,1.59v3.168h-1.152v-6.36h1.104v1.068c.2-.368.495-.648.888-.84Z" fill="#000" stroke-width="0"/>
    <path d="M323.276,107.124c-.479-.141-.856-.318-1.128-.534l.48-.912c.279.2.619.36,1.02.48.4.119.805.18,1.212.18,1.009,0,1.513-.288,1.513-.864,0-.192-.068-.344-.204-.456-.137-.111-.307-.193-.511-.246-.203-.052-.494-.109-.869-.174-.513-.08-.931-.172-1.254-.276-.324-.104-.603-.279-.834-.527-.232-.248-.349-.596-.349-1.044,0-.576.24-1.038.72-1.387.48-.348,1.124-.521,1.933-.521.424,0,.848.052,1.271.156.424.104.772.244,1.044.42l-.492.912c-.52-.336-1.132-.504-1.836-.504-.487,0-.859.08-1.115.239-.257.16-.385.372-.385.637,0,.208.072.371.217.491.144.12.321.208.533.265.213.056.511.12.895.191.512.089.926.183,1.242.282.315.101.586.271.81.51.224.24.336.576.336,1.009,0,.575-.246,1.033-.737,1.373-.492.341-1.162.511-2.011.511-.52,0-1.02-.07-1.5-.21Z" fill="#000" stroke-width="0"/>
    <path d="M332.541,106.89c-.168.145-.377.254-.625.33s-.504.114-.768.114c-.64,0-1.136-.172-1.488-.517-.352-.344-.527-.836-.527-1.476v-3.492h-1.08v-.948h1.08v-1.392h1.152v1.392h1.823v.948h-1.823v3.444c0,.344.085.607.258.792.172.184.418.275.737.275.353,0,.652-.1.9-.3l.36.828Z" fill="#000" stroke-width="0"/>
    <path d="M333.95,99.462c-.147-.145-.222-.32-.222-.528s.074-.386.222-.534c.148-.147.334-.222.558-.222s.41.07.559.21.222.314.222.522c0,.216-.073.397-.222.546-.148.147-.334.222-.559.222s-.409-.072-.558-.216ZM333.933,100.901h1.151v6.36h-1.151v-6.36Z" fill="#000" stroke-width="0"/>
    <path d="M338.318,106.914c-.508-.28-.906-.666-1.194-1.158s-.432-1.05-.432-1.674.144-1.183.432-1.674c.288-.492.687-.877,1.194-1.152.508-.276,1.086-.414,1.734-.414.575,0,1.09.116,1.541.348.452.232.803.568,1.051,1.008l-.876.564c-.2-.304-.448-.532-.744-.684-.296-.152-.624-.229-.984-.229-.416,0-.79.092-1.122.276-.332.184-.592.446-.779.786-.188.34-.282.729-.282,1.17,0,.448.094.842.282,1.182.188.34.447.603.779.786s.706.276,1.122.276c.36,0,.688-.076.984-.229.296-.151.544-.38.744-.684l.876.552c-.248.44-.599.778-1.051,1.014-.451.236-.966.354-1.541.354-.648,0-1.227-.141-1.734-.42Z" fill="#000" stroke-width="0"/>
    <path d="M344.072,107.1c-.16-.156-.24-.354-.24-.594,0-.232.08-.426.24-.582s.352-.234.576-.234.412.076.563.229c.152.151.229.348.229.588s-.078.438-.234.594c-.155.156-.342.234-.558.234-.225,0-.416-.078-.576-.234Z" fill="#000" stroke-width="0"/>
    <path d="M347.99,106.914c-.508-.28-.906-.666-1.194-1.158s-.432-1.05-.432-1.674.144-1.183.432-1.674c.288-.492.687-.877,1.194-1.152.508-.276,1.086-.414,1.734-.414.575,0,1.09.116,1.541.348.452.232.803.568,1.051,1.008l-.876.564c-.2-.304-.448-.532-.744-.684-.296-.152-.624-.229-.984-.229-.416,0-.79.092-1.122.276-.332.184-.592.446-.779.786-.188.34-.282.729-.282,1.17,0,.448.094.842.282,1.182.188.34.447.603.779.786s.706.276,1.122.276c.36,0,.688-.076.984-.229.296-.151.544-.38.744-.684l.876.552c-.248.44-.599.778-1.051,1.014-.451.236-.966.354-1.541.354-.648,0-1.227-.141-1.734-.42Z" fill="#000" stroke-width="0"/>
    <path d="M354.729,106.914c-.504-.28-.898-.666-1.183-1.158s-.426-1.05-.426-1.674.142-1.183.426-1.674c.284-.492.679-.877,1.183-1.152.504-.276,1.071-.414,1.703-.414s1.198.138,1.698.414c.5.275.893.66,1.177,1.152.283.491.426,1.05.426,1.674s-.143,1.182-.426,1.674c-.284.492-.677.878-1.177,1.158-.5.279-1.065.42-1.698.42s-1.199-.141-1.703-.42ZM357.53,106.044c.324-.188.578-.452.762-.792.185-.34.276-.73.276-1.17s-.092-.83-.276-1.17c-.184-.34-.438-.603-.762-.786-.324-.185-.69-.276-1.099-.276s-.773.092-1.098.276c-.324.184-.58.446-.768.786-.188.34-.282.729-.282,1.17s.094.83.282,1.17c.188.34.443.604.768.792.324.188.69.282,1.098.282s.774-.095,1.099-.282Z" fill="#000" stroke-width="0"/>
    <path d="M371.186,101.538c.469.464.703,1.151.703,2.063v3.66h-1.152v-3.528c0-.615-.143-1.08-.426-1.392-.284-.312-.69-.468-1.219-.468-.584,0-1.048.182-1.392.546-.345.364-.517.886-.517,1.565v3.276h-1.151v-3.528c0-.615-.143-1.08-.426-1.392-.284-.312-.69-.468-1.218-.468-.585,0-1.049.182-1.393.546s-.516.886-.516,1.565v3.276h-1.152v-6.36h1.104v.948c.232-.328.536-.578.912-.75s.805-.258,1.284-.258c.496,0,.937.1,1.32.3s.68.492.888.876c.24-.368.574-.655,1.002-.864.428-.208.91-.312,1.446-.312.8,0,1.434.232,1.901.696Z" fill="#000" stroke-width="0"/>
    <path d="M245.697,124.872c-.528-.34-.944-.836-1.248-1.488s-.456-1.426-.456-2.322.152-1.67.456-2.322c.304-.651.72-1.147,1.248-1.487.528-.34,1.128-.51,1.8-.51s1.274.17,1.806.51.95.836,1.254,1.487c.304.652.456,1.427.456,2.322s-.152,1.67-.456,2.322c-.305.652-.723,1.148-1.254,1.488s-1.134.51-1.806.51-1.271-.17-1.8-.51ZM248.919,123.281c.348-.495.522-1.235.522-2.22s-.174-1.724-.522-2.22-.822-.744-1.422-.744c-.592,0-1.062.248-1.41.744s-.522,1.236-.522,2.22.174,1.725.522,2.22c.348.497.818.744,1.41.744.601,0,1.074-.247,1.422-.744Z" fill="#000" stroke-width="0"/>
    <path d="M257.373,120.396c.44.212.784.515,1.032.906s.372.844.372,1.356c0,.544-.136,1.021-.408,1.434s-.64.73-1.104.954c-.464.224-.984.336-1.561.336-1.152,0-2.046-.36-2.682-1.08-.636-.72-.954-1.752-.954-3.096,0-.944.172-1.75.516-2.418.344-.668.826-1.177,1.446-1.524s1.338-.521,2.154-.521c.432,0,.838.046,1.218.138s.71.226.99.401l-.576,1.177c-.416-.272-.948-.408-1.596-.408-.808,0-1.44.248-1.896.744s-.684,1.212-.684,2.147v.013c.248-.288.563-.506.948-.654.384-.148.816-.222,1.296-.222.552,0,1.048.105,1.488.317ZM256.81,123.768c.304-.26.456-.605.456-1.038,0-.439-.152-.788-.456-1.044-.305-.256-.712-.384-1.225-.384-.504,0-.914.136-1.229.408-.316.271-.474.616-.474,1.032,0,.407.154.745.462,1.014.308.268.734.402,1.278.402.488,0,.884-.131,1.188-.391Z" fill="#000" stroke-width="0"/>
    <path d="M269.241,116.861v1.044l-3.265,7.356h-1.668l3.156-7.08h-3.3v1.428h-1.452v-2.748h6.528Z" fill="#000" stroke-width="0"/>
    <path d="M273.225,116.861v8.4h-1.56v-7.092h-1.776v-1.309h3.336Z" fill="#000" stroke-width="0"/>
    <path d="M279.908,124.872c-.527-.34-.943-.836-1.248-1.488-.304-.652-.455-1.426-.455-2.322s.151-1.67.455-2.322c.305-.651.721-1.147,1.248-1.487.528-.34,1.129-.51,1.801-.51s1.273.17,1.806.51.95.836,1.254,1.487c.304.652.456,1.427.456,2.322s-.152,1.67-.456,2.322-.722,1.148-1.254,1.488-1.134.51-1.806.51-1.272-.17-1.801-.51ZM283.131,123.281c.348-.495.521-1.235.521-2.22s-.174-1.724-.521-2.22c-.349-.496-.822-.744-1.422-.744-.593,0-1.062.248-1.41.744-.349.496-.522,1.236-.522,2.22s.174,1.725.522,2.22c.348.497.817.744,1.41.744.6,0,1.073-.247,1.422-.744Z" fill="#000" stroke-width="0"/>
    <path d="M292.305,123.941v1.32h-6.192v-1.044l3.337-3.168c.375-.36.629-.674.762-.942.132-.268.197-.534.197-.798,0-.392-.132-.691-.396-.899-.265-.208-.652-.312-1.164-.312-.856,0-1.512.292-1.968.876l-1.092-.84c.327-.44.77-.782,1.326-1.026.556-.243,1.178-.365,1.865-.365.912,0,1.641.216,2.184.647.545.432.816,1.021.816,1.764,0,.456-.096.885-.288,1.284-.191.4-.56.856-1.104,1.368l-2.244,2.136h3.96Z" fill="#000" stroke-width="0"/>
    <path d="M299.42,116.861v8.4h-1.56v-7.092h-1.776v-1.309h3.336Z" fill="#000" stroke-width="0"/>
    <path d="M306.393,120.396c.439.212.783.515,1.031.906s.372.844.372,1.356c0,.544-.136,1.021-.408,1.434-.271.412-.64.73-1.104.954s-.984.336-1.56.336c-1.152,0-2.047-.36-2.683-1.08s-.954-1.752-.954-3.096c0-.944.172-1.75.516-2.418.345-.668.826-1.177,1.446-1.524s1.338-.521,2.154-.521c.432,0,.838.046,1.218.138s.71.226.99.401l-.576,1.177c-.416-.272-.948-.408-1.596-.408-.809,0-1.44.248-1.896.744s-.684,1.212-.684,2.147v.013c.248-.288.564-.506.948-.654s.815-.222,1.296-.222c.552,0,1.048.105,1.488.317ZM305.828,123.768c.304-.26.456-.605.456-1.038,0-.439-.152-.788-.456-1.044-.305-.256-.712-.384-1.225-.384-.504,0-.914.136-1.229.408-.316.271-.474.616-.474,1.032,0,.407.153.745.462,1.014.308.268.733.402,1.278.402.487,0,.883-.131,1.188-.391Z" fill="#000" stroke-width="0"/>
    <path d="M319.412,123.354h-1.488v1.908h-1.512v-1.908h-4.608v-1.08l4.141-5.412h1.668l-3.9,5.173h2.748v-1.692h1.464v1.692h1.488v1.319Z" fill="#000" stroke-width="0"/>
    <path d="M325.304,121.122c.408.432.612.972.612,1.62,0,.487-.124.932-.372,1.331-.248.4-.622.719-1.122.954-.5.236-1.11.354-1.83.354-.6,0-1.178-.086-1.734-.258-.556-.172-1.029-.41-1.422-.714l.672-1.213c.305.257.674.459,1.11.606.437.148.886.222,1.351.222.552,0,.985-.113,1.302-.342.315-.228.474-.538.474-.93s-.15-.698-.45-.918-.758-.33-1.374-.33h-.768v-1.068l1.908-2.268h-3.816v-1.309h5.725v1.044l-2.041,2.425c.776.096,1.368.359,1.776.792Z" fill="#000" stroke-width="0"/>
  </g>
  <rect x="233.478" width="2" height="150" fill="#272824" stroke-width="0"/>
  <rect width="522" height="150" fill="none" stroke-width="0"/>
</svg>