<?xml version="1.0" encoding="UTF-8"?>
<svg id="Calque_1" data-name="Calque 1" xmlns="http://www.w3.org/2000/svg" version="1.1" viewBox="0 0 522 150.001">
  <g>
    <g>
      <g>
        <path d="M36.48,61.587l25.235-23.43h-10.481c-4.513,0-8.436,1.527-11.733,4.582l-12.183,11.142v-15.724h-2.95c-2.5,0-4.615.868-6.386,2.638-1.77,1.771-2.638,3.886-2.638,6.386v30.996c0,.487.034.973.105,1.459v.277c0,3.227,1.145,5.693,3.402,7.461.068.07.139.141.244.175l9.264,5.9c.453.277.973.418,1.494.418.486,0,.939-.105,1.354-.348,1.007-.52,1.494-1.354,1.494-2.466v-16.695l9.649,8.991c3.298,3.054,7.22,4.582,11.731,4.582h11.004l-28.603-26.344Z" fill="#264e51" fill-rule="evenodd" stroke-width="0"/>
        <path d="M29.851,91.053l-9.268-5.9c-1.561-1.216-2.325-2.949-2.325-5.24v-31.587c.21,2.534,1.805,4.757,4.825,6.666,1.075.659,2.602,1.561,4.582,2.673,1.457.832,2.186,2.254,2.186,4.234v29.155Z" fill="#a67135" fill-rule="evenodd" stroke-width="0"/>
      </g>
      <g>
        <path d="M102.067,48.544c-1.077.427-1.864.814-2.364,1.164-.501.35-.776.551-.825.6l-1.276-1.726h-9.001c.1.45.201,1.001.301,1.65.1.651.15,1.425.15,2.326v31.428c0,.85-.038,1.488-.112,1.912-.076.427-.164.863-.263,1.313h11.026c-.2-.499-.337-.937-.412-1.313-.074-.375-.112-1.013-.112-1.912v-25.202c0-.4.061-.888.187-1.463.125-.575.424-1.126.9-1.65.475-.526,1.201-.976,2.175-1.351.975-.375,2.288-.562,3.938-.562h1.124v-5.85h-1.875c-1.3,0-2.488.213-3.562.636Z" fill="#264e51" stroke-width="0"/>
        <path d="M128.355,66.058c-.701-.248-1.4-.45-2.101-.6-.701-.15-1.4-.35-2.101-.6-.999-.301-1.8-.613-2.399-.938-.6-.325-1.05-.686-1.35-1.087-.301-.4-.501-.874-.6-1.425-.101-.549-.151-1.25-.151-2.101v-4.351c0-2,.99-3,2.968-3,1.384,0,2.361.4,2.93,1.2.569.8.852,2,.852,3.6v4.351h7.577v-12.45c-1.5-.25-3.102-.438-4.801-.562-1.7-.125-3.269-.188-4.703-.188h-4.522c-3,0-5.363.476-7.089,1.425-1.725.95-2.588,2.549-2.588,4.799v8.476c0,.75.049,1.438.15,2.063.101.625.312,1.189.638,1.688.324.499.813.949,1.462,1.349.649.402,1.501.776,2.551,1.126,1.05.35,2.036.65,2.962.899.924.25,1.962.5,3.112.751,1.05.25,2,.674,2.85,1.274.85.6,1.276,1.551,1.276,2.85v6.076c0,2.152-1.001,3.225-3,3.225-.852,0-1.614-.337-2.287-1.013-.676-.675-1.013-1.962-1.013-3.862v-5.776h-8.327v13.726c1.6.4,3.399.648,5.401.749,2,.101,3.8.151,5.401.151h3c3.7,0,6.363-.526,7.988-1.577,1.624-1.048,2.437-2.774,2.437-5.174v-9.076c0-1.65-.486-2.875-1.462-3.675-.975-.8-2.662-1.576-5.063-2.326Z" fill="#264e51" stroke-width="0"/>
        <path d="M80.877,48.844c-.951-.423-2.239-.686-3.864-.787-1.624-.099-3.711-.15-6.262-.15-2.301,0-4.238.063-5.813.188-1.575.124-2.863.412-3.863.861-.999.45-1.724,1.113-2.174,1.989-.451.876-.676,2.063-.676,3.562v22.926l11.351,10.444c.244.002.472.008.725.008,2.75,0,4.976-.101,6.676-.301,1.699-.2,3.025-.562,3.974-1.088.95-.524,1.6-1.249,1.951-2.174.35-.925.525-2.112.525-3.564v-9h-9.75v9.076c0,.901-.188,1.575-.564,2.025-.374.451-1.037.675-1.987.675s-1.638-.174-2.063-.526c-.425-.348-.637-1.024-.637-2.025v-13.276h15.002v-13.427c0-1.499-.188-2.674-.563-3.524-.374-.85-1.037-1.488-1.987-1.913ZM73.601,64.109h-5.176v-9.901c0-1.5.876-2.25,2.626-2.25,1.699,0,2.55.724,2.55,2.174v9.977Z" fill="#264e51" stroke-width="0"/>
        <path d="M152.356,82.335c-.551-.701-.826-2.075-.826-4.125v-25.877h5.252v-3.751h-5.326v-8.775l-10.05,1.726v7.05h-3.151v3.751h3.151v28.502c0,1.501.236,2.7.712,3.601.475.9,1.149,1.587,2.025,2.061.875.478,1.951.775,3.227.901,1.273.125,2.711.188,4.312.188.799,0,1.724-.05,2.775-.15,1.05-.1,1.9-.2,2.551-.3.649-.1,1.023-.15,1.124-.15v-3.599h-3c-1.301,0-2.226-.35-2.776-1.051Z" fill="#264e51" stroke-width="0"/>
        <path d="M191.281,71.609v8.851c0,1.9-.875,2.85-2.625,2.85-.75,0-1.362-.201-1.837-.6-.476-.4-.712-1.149-.712-2.25v-25.128c0-1,.225-1.811.679-2.437.451-.624,1.406-.937,2.864-.937.752,0,1.343.101,1.772.299.426.202.754.476.979.825.226.351.365.726.415,1.126.051.4.076.776.076,1.124v7.051h7.916v-13.576c-.05,0-.374-.076-.975-.225-.6-.15-1.789-.312-3.563-.487-1.777-.175-4.138-.263-7.088-.263-2.402,0-4.413.1-6.039.299-1.624.201-2.926.526-3.9.976-.975.449-1.663,1.075-2.063,1.875-.4.8-.6,1.8-.6,3v27.001c0,1.351.137,2.47.413,3.359.273.888.85,1.598,1.726,2.132.874.533,2.099.901,3.675,1.105,1.574.203,3.637.306,6.188.306,2.749,0,4.961-.115,6.637-.343,1.675-.23,2.963-.624,3.862-1.182.901-.559,1.5-1.306,1.801-2.244.299-.937.449-2.081.449-3.431v-9.076h-10.051Z" fill="#264e51" stroke-width="0"/>
        <path d="M170.169,38.973c-.875-.545-2.314-.817-4.312-.817-2.202,0-3.713.285-4.538.855-.826.568-1.238,1.471-1.238,2.708,0,1.288.412,2.228,1.238,2.821.825.594,2.287.891,4.386.891s3.589-.297,4.464-.891c.874-.593,1.312-1.533,1.312-2.821s-.438-2.201-1.312-2.746Z" fill="#264e51" stroke-width="0"/>
        <path d="M170.957,83.985v-35.404h-10.577c.1.45.2,1.001.301,1.65.1.651.15,1.425.15,2.326v31.428c0,.85-.038,1.488-.112,1.912-.076.427-.164.863-.263,1.313h11.026c-.2-.499-.336-.937-.412-1.313-.074-.375-.112-1.013-.112-1.912Z" fill="#264e51" stroke-width="0"/>
      </g>
    </g>
    <g>
      <path d="M22.544,106.27h-4.861l-1.006,2.286h-1.346l4.142-9.146h1.293l4.155,9.146h-1.372l-1.006-2.286ZM22.087,105.225l-1.973-4.482-1.973,4.482h3.946Z" fill="#7d848f" stroke-width="0"/>
      <path d="M26.281,99.41h3.855c.967,0,1.825.192,2.574.575s1.331.921,1.744,1.614c.413.692.621,1.487.621,2.384s-.207,1.692-.621,2.384c-.414.693-.995,1.23-1.744,1.614-.749.384-1.607.575-2.574.575h-3.855v-9.146ZM30.057,107.42c.74,0,1.392-.144,1.953-.431.562-.288.995-.691,1.3-1.209.305-.518.457-1.117.457-1.797s-.152-1.278-.457-1.797c-.305-.518-.738-.921-1.3-1.209-.562-.287-1.213-.431-1.953-.431h-2.469v6.873h2.469Z" fill="#7d848f" stroke-width="0"/>
      <path d="M44.939,99.41v9.146h-1.307v-4.076h-5.252v4.076h-1.307v-9.146h1.307v3.933h5.252v-3.933h1.307Z" fill="#7d848f" stroke-width="0"/>
      <path d="M54.319,107.42v1.136h-6.637v-9.146h6.454v1.136h-5.148v2.809h4.586v1.111h-4.586v2.953h5.331ZM51.72,96.967h1.594l-2.195,1.698h-1.176l1.777-1.698Z" fill="#7d848f" stroke-width="0"/>
      <path d="M57.109,108.341c-.64-.214-1.144-.489-1.509-.83l.483-1.019c.348.314.795.568,1.339.764.545.196,1.104.294,1.679.294.758,0,1.324-.129,1.698-.386.375-.256.562-.599.562-1.025,0-.314-.103-.569-.307-.764-.205-.196-.457-.346-.758-.451-.3-.105-.725-.223-1.274-.354-.688-.165-1.244-.33-1.666-.496s-.784-.421-1.084-.764c-.3-.344-.451-.808-.451-1.392,0-.487.128-.928.385-1.319.257-.392.647-.706,1.17-.941s1.171-.353,1.947-.353c.54,0,1.071.069,1.594.208.522.14.971.34,1.345.602l-.431,1.044c-.384-.243-.793-.428-1.228-.555-.436-.126-.862-.189-1.28-.189-.74,0-1.296.135-1.666.405-.37.27-.555.618-.555,1.045,0,.314.104.568.314.764.209.196.468.348.777.457.309.109.73.225,1.261.346.688.166,1.241.331,1.659.497s.778.418,1.078.757c.3.34.451.797.451,1.372,0,.479-.131.917-.392,1.313-.262.396-.658.71-1.189.94-.531.231-1.185.346-1.96.346-.688,0-1.352-.106-1.992-.32Z" fill="#7d848f" stroke-width="0"/>
      <path d="M64.55,99.41h1.307v9.146h-1.307v-9.146Z" fill="#7d848f" stroke-width="0"/>
      <path d="M69.907,100.547v3.188h4.586v1.124h-4.586v3.697h-1.307v-9.146h6.454v1.136h-5.148Z" fill="#7d848f" stroke-width="0"/>
      <path d="M77.53,108.341c-.64-.214-1.143-.489-1.509-.83l.483-1.019c.348.314.795.568,1.339.764.544.196,1.104.294,1.679.294.758,0,1.324-.129,1.698-.386.375-.256.562-.599.562-1.025,0-.314-.103-.569-.307-.764-.205-.196-.457-.346-.758-.451-.3-.105-.725-.223-1.274-.354-.688-.165-1.243-.33-1.666-.496s-.784-.421-1.084-.764c-.301-.344-.451-.808-.451-1.392,0-.487.129-.928.386-1.319.256-.392.646-.706,1.169-.941s1.172-.353,1.947-.353c.54,0,1.071.069,1.594.208.523.14.971.34,1.346.602l-.431,1.044c-.383-.243-.792-.428-1.228-.555-.435-.126-.862-.189-1.28-.189-.74,0-1.295.135-1.666.405s-.555.618-.555,1.045c0,.314.105.568.314.764s.468.348.778.457c.309.109.729.225,1.261.346.688.166,1.241.331,1.66.497.418.166.777.418,1.078.757.3.34.451.797.451,1.372,0,.479-.131.917-.392,1.313-.261.396-.658.71-1.189.94-.531.231-1.184.346-1.959.346-.688,0-1.352-.106-1.993-.32Z" fill="#7d848f" stroke-width="0"/>
      <path d="M94.849,100.259c.68.566,1.019,1.346,1.019,2.339s-.34,1.772-1.019,2.338c-.679.567-1.612.849-2.796.849h-2.26v2.77h-1.307v-9.146h3.567c1.184,0,2.117.283,2.796.849ZM93.908,104.12c.435-.353.654-.859.654-1.522s-.218-1.17-.654-1.523-1.067-.529-1.895-.529h-2.221v4.103h2.221c.828,0,1.459-.176,1.895-.529Z" fill="#7d848f" stroke-width="0"/>
      <path d="M104.426,107.42v1.136h-6.637v-9.146h6.454v1.136h-5.148v2.809h4.586v1.111h-4.586v2.953h5.331Z" fill="#7d848f" stroke-width="0"/>
      <path d="M112.657,108.556l-1.973-2.809c-.244.017-.435.027-.575.027h-2.26v2.783h-1.307v-9.146h3.567c1.184,0,2.117.283,2.796.849.68.566,1.019,1.346,1.019,2.339,0,.705-.174,1.306-.523,1.803-.348.497-.845.858-1.489,1.084l2.169,3.071h-1.424ZM111.964,104.127c.435-.358.654-.867.654-1.529s-.218-1.17-.654-1.523-1.067-.529-1.895-.529h-2.221v4.116h2.221c.828,0,1.459-.179,1.895-.535Z" fill="#7d848f" stroke-width="0"/>
      <path d="M116.714,108.341c-.64-.214-1.143-.489-1.509-.83l.483-1.019c.348.314.795.568,1.339.764.544.196,1.104.294,1.679.294.758,0,1.324-.129,1.698-.386.375-.256.562-.599.562-1.025,0-.314-.103-.569-.307-.764-.205-.196-.457-.346-.758-.451-.3-.105-.725-.223-1.274-.354-.688-.165-1.243-.33-1.666-.496s-.784-.421-1.084-.764c-.301-.344-.451-.808-.451-1.392,0-.487.129-.928.386-1.319.256-.392.646-.706,1.169-.941s1.172-.353,1.947-.353c.54,0,1.071.069,1.594.208.523.14.971.34,1.346.602l-.431,1.044c-.383-.243-.792-.428-1.228-.555-.435-.126-.862-.189-1.28-.189-.74,0-1.295.135-1.666.405s-.555.618-.555,1.045c0,.314.105.568.314.764s.468.348.778.457c.309.109.729.225,1.261.346.688.166,1.241.331,1.66.497.418.166.777.418,1.078.757.3.34.451.797.451,1.372,0,.479-.131.917-.392,1.313-.261.396-.658.71-1.189.94-.531.231-1.184.346-1.959.346-.688,0-1.352-.106-1.993-.32Z" fill="#7d848f" stroke-width="0"/>
      <path d="M125.788,108.053c-.74-.406-1.322-.965-1.744-1.679s-.634-1.511-.634-2.391.211-1.677.634-2.391,1.004-1.273,1.744-1.679c.74-.405,1.572-.607,2.495-.607.915,0,1.742.202,2.483.607.74.406,1.319.963,1.738,1.673.418.71.627,1.509.627,2.397s-.209,1.688-.627,2.397c-.418.71-.998,1.267-1.738,1.673-.74.405-1.568.607-2.483.607-.923,0-1.755-.202-2.495-.607ZM130.093,107.041c.535-.305.958-.726,1.267-1.261s.464-1.134.464-1.797-.155-1.261-.464-1.797-.732-.955-1.267-1.261c-.536-.305-1.139-.457-1.81-.457s-1.278.152-1.823.457c-.545.306-.971.726-1.28,1.261-.309.535-.464,1.134-.464,1.797s.155,1.261.464,1.797c.309.535.736.957,1.28,1.261.544.305,1.152.457,1.823.457s1.274-.152,1.81-.457Z" fill="#7d848f" stroke-width="0"/>
      <path d="M142.995,99.41v9.146h-1.071l-5.488-6.82v6.82h-1.307v-9.146h1.071l5.488,6.82v-6.82h1.307Z" fill="#7d848f" stroke-width="0"/>
      <path d="M153.604,99.41v9.146h-1.071l-5.488-6.82v6.82h-1.307v-9.146h1.071l5.487,6.82v-6.82h1.307Z" fill="#7d848f" stroke-width="0"/>
      <path d="M162.175,106.27h-4.86l-1.006,2.286h-1.346l4.142-9.146h1.294l4.155,9.146h-1.372l-1.006-2.286ZM161.718,105.225l-1.973-4.482-1.973,4.482h3.946Z" fill="#7d848f" stroke-width="0"/>
      <path d="M165.912,99.41h1.307v8.01h4.952v1.136h-6.258v-9.146Z" fill="#7d848f" stroke-width="0"/>
      <path d="M173.673,99.41h1.307v9.146h-1.307v-9.146Z" fill="#7d848f" stroke-width="0"/>
      <path d="M178.396,108.341c-.64-.214-1.144-.489-1.509-.83l.483-1.019c.348.314.795.568,1.339.764.545.196,1.104.294,1.679.294.758,0,1.324-.129,1.698-.386.375-.256.562-.599.562-1.025,0-.314-.103-.569-.307-.764-.205-.196-.457-.346-.758-.451-.3-.105-.725-.223-1.274-.354-.688-.165-1.244-.33-1.666-.496s-.784-.421-1.084-.764c-.3-.344-.451-.808-.451-1.392,0-.487.128-.928.385-1.319.257-.392.647-.706,1.17-.941s1.171-.353,1.947-.353c.54,0,1.071.069,1.594.208.522.14.971.34,1.345.602l-.431,1.044c-.384-.243-.793-.428-1.228-.555-.436-.126-.862-.189-1.28-.189-.74,0-1.296.135-1.666.405-.37.27-.555.618-.555,1.045,0,.314.104.568.314.764.209.196.468.348.777.457.309.109.73.225,1.261.346.688.166,1.241.331,1.659.497s.778.418,1.078.757c.3.34.451.797.451,1.372,0,.479-.131.917-.392,1.313-.262.396-.658.71-1.189.94-.531.231-1.185.346-1.96.346-.688,0-1.352-.106-1.992-.32Z" fill="#7d848f" stroke-width="0"/>
      <path d="M192.474,107.42v1.136h-6.637v-9.146h6.454v1.136h-5.148v2.809h4.586v1.111h-4.586v2.953h5.331ZM189.874,96.967h1.594l-2.195,1.698h-1.176l1.777-1.698Z" fill="#7d848f" stroke-width="0"/>
      <path d="M195.264,108.341c-.64-.214-1.144-.489-1.509-.83l.483-1.019c.348.314.795.568,1.339.764.545.196,1.104.294,1.679.294.758,0,1.324-.129,1.698-.386.375-.256.562-.599.562-1.025,0-.314-.103-.569-.307-.764-.205-.196-.457-.346-.758-.451-.3-.105-.725-.223-1.274-.354-.688-.165-1.244-.33-1.666-.496s-.784-.421-1.084-.764c-.3-.344-.451-.808-.451-1.392,0-.487.128-.928.385-1.319.257-.392.647-.706,1.17-.941s1.171-.353,1.947-.353c.54,0,1.071.069,1.594.208.522.14.971.34,1.345.602l-.431,1.044c-.384-.243-.793-.428-1.228-.555-.436-.126-.862-.189-1.28-.189-.74,0-1.296.135-1.666.405-.37.27-.555.618-.555,1.045,0,.314.104.568.314.764.209.196.468.348.777.457.309.109.73.225,1.261.346.688.166,1.241.331,1.659.497s.778.418,1.078.757c.3.34.451.797.451,1.372,0,.479-.131.917-.392,1.313-.262.396-.658.71-1.189.94-.531.231-1.185.346-1.96.346-.688,0-1.352-.106-1.992-.32Z" fill="#7d848f" stroke-width="0"/>
    </g>
  </g>
  <g>
    <path d="M248.155,30.259l-1.554,1.596v2.506h-1.82v-9.8h1.82v5.025l4.844-5.025h2.044l-4.116,4.382,4.368,5.418h-2.128l-3.458-4.102Z" fill="#1d1d1b" stroke-width="0"/>
    <path d="M262.337,32.834v1.526h-7.351v-9.8h7.154v1.525h-5.334v2.549h4.732v1.498h-4.732v2.701h5.53Z" fill="#1d1d1b" stroke-width="0"/>
    <path d="M270.779,34.36l-2.002-2.87c-.084.01-.21.014-.378.014h-2.212v2.856h-1.82v-9.8h4.032c.85,0,1.589.14,2.219.42.63.28,1.113.682,1.449,1.204.336.522.504,1.144.504,1.861,0,.738-.18,1.372-.539,1.904-.359.532-.875.929-1.547,1.19l2.254,3.22h-1.96ZM270.122,26.604c-.411-.336-1.013-.504-1.807-.504h-2.128v3.906h2.128c.793,0,1.396-.171,1.807-.512.41-.341.616-.823.616-1.449s-.206-1.105-.616-1.441Z" fill="#1d1d1b" stroke-width="0"/>
    <path d="M275.448,34.178c-.705-.215-1.262-.5-1.673-.854l.63-1.414c.401.317.894.576,1.477.777.583.2,1.169.301,1.757.301.728,0,1.271-.116,1.631-.35s.539-.542.539-.925c0-.279-.101-.511-.301-.692-.201-.183-.455-.324-.763-.427-.308-.103-.728-.22-1.26-.351-.747-.177-1.351-.354-1.813-.532-.462-.177-.859-.454-1.19-.833-.332-.378-.497-.889-.497-1.532,0-.542.147-1.034.441-1.478.294-.443.737-.795,1.33-1.057.592-.262,1.318-.393,2.177-.393.597,0,1.185.075,1.764.225s1.078.364,1.498.644l-.574,1.414c-.429-.252-.877-.443-1.344-.574-.467-.13-.919-.195-1.358-.195-.719,0-1.253.121-1.603.363-.35.243-.525.565-.525.967,0,.279.1.509.301.686.201.178.455.317.763.42.308.103.728.22,1.26.351.729.168,1.325.343,1.792.524.467.183.866.46,1.197.833.331.374.497.878.497,1.512,0,.542-.147,1.032-.441,1.471s-.739.788-1.337,1.05c-.597.261-1.325.392-2.184.392-.756,0-1.486-.107-2.191-.321Z" fill="#1d1d1b" stroke-width="0"/>
    <path d="M285.255,26.1h-3.248v-1.54h8.316v1.54h-3.248v8.26h-1.82v-8.26Z" fill="#1d1d1b" stroke-width="0"/>
    <path d="M291.695,24.56h1.82v9.8h-1.82v-9.8Z" fill="#1d1d1b" stroke-width="0"/>
    <path d="M298.016,33.849c-.798-.435-1.423-1.034-1.876-1.799-.453-.766-.679-1.629-.679-2.591s.229-1.824.687-2.59c.457-.765,1.085-1.365,1.883-1.799s1.691-.651,2.681-.651c.803,0,1.535.141,2.198.421.663.279,1.223.686,1.68,1.218l-1.176,1.105c-.709-.765-1.582-1.147-2.618-1.147-.672,0-1.273.146-1.806.44s-.947.703-1.246,1.226-.448,1.115-.448,1.777.149,1.256.448,1.778.714.931,1.246,1.225c.532.295,1.134.441,1.806.441,1.036,0,1.909-.387,2.618-1.162l1.176,1.12c-.457.532-1.02.938-1.687,1.218-.667.28-1.402.42-2.205.42-.989,0-1.883-.217-2.681-.65Z" fill="#1d1d1b" stroke-width="0"/>
    <path d="M309.656,29.74h3.85v1.456h-3.85v-1.456Z" fill="#1d1d1b" stroke-width="0"/>
    <path d="M324.752,32.261h-4.464l-.924,2.1h-1.236l3.804-8.4h1.188l3.816,8.4h-1.26l-.924-2.1ZM324.332,31.301l-1.812-4.116-1.812,4.116h3.624Z" fill="#1d1d1b" stroke-width="0"/>
    <path d="M333.956,25.456v8.904h-1.104v-1.008c-.256.352-.58.62-.972.804-.393.185-.824.276-1.296.276-.616,0-1.168-.136-1.656-.408-.488-.271-.87-.654-1.146-1.146-.275-.491-.414-1.058-.414-1.697s.139-1.204.414-1.692c.276-.488.658-.868,1.146-1.14.487-.272,1.04-.408,1.656-.408.456,0,.876.086,1.26.258.384.172.704.426.96.762v-3.504h1.152ZM331.772,33.142c.328-.188.584-.452.768-.792s.276-.73.276-1.17-.092-.83-.276-1.17-.44-.603-.768-.786c-.328-.185-.692-.276-1.092-.276-.408,0-.774.092-1.098.276-.324.184-.58.446-.768.786s-.282.729-.282,1.17.094.83.282,1.17.444.604.768.792c.324.188.69.282,1.098.282.399,0,.764-.095,1.092-.282Z" fill="#1d1d1b" stroke-width="0"/>
    <path d="M341.462,28.642c.476.468.714,1.154.714,2.058v3.66h-1.152v-3.528c0-.615-.148-1.08-.444-1.392-.296-.312-.72-.468-1.272-.468-.624,0-1.116.182-1.476.546s-.54.886-.54,1.565v3.276h-1.152v-8.904h1.152v3.444c.24-.304.554-.54.942-.708.388-.168.822-.252,1.302-.252.808,0,1.45.234,1.926.702Z" fill="#1d1d1b" stroke-width="0"/>
    <path d="M350.072,31.564h-5.16c.072.56.318,1.01.738,1.35.42.341.942.511,1.566.511.76,0,1.372-.257,1.836-.769l.636.744c-.288.336-.646.592-1.074.768-.428.177-.906.265-1.434.265-.672,0-1.269-.139-1.788-.414-.521-.276-.922-.662-1.206-1.158-.284-.496-.426-1.056-.426-1.68,0-.616.138-1.172.414-1.668s.656-.883,1.14-1.158c.484-.276,1.03-.414,1.638-.414s1.15.138,1.626.414c.476.275.848.662,1.116,1.158s.402,1.063.402,1.704c0,.088-.008.203-.024.348ZM345.566,29.416c-.372.336-.59.776-.654,1.32h4.08c-.064-.536-.282-.974-.654-1.314-.372-.34-.834-.51-1.386-.51s-1.014.168-1.386.504ZM347.672,25.516h1.464l-2.016,1.56h-1.08l1.632-1.56Z" fill="#1d1d1b" stroke-width="0"/>
    <path d="M352.016,34.222c-.48-.141-.856-.318-1.128-.534l.479-.912c.28.2.62.36,1.021.48.399.119.804.18,1.212.18,1.008,0,1.512-.288,1.512-.864,0-.192-.068-.344-.204-.456-.136-.111-.306-.193-.51-.246-.204-.052-.494-.109-.87-.174-.512-.08-.93-.172-1.254-.276-.324-.104-.602-.279-.834-.527-.232-.248-.348-.596-.348-1.044,0-.576.24-1.038.72-1.387.479-.348,1.124-.521,1.932-.521.424,0,.848.052,1.272.156.424.104.771.244,1.044.42l-.492.912c-.521-.336-1.132-.504-1.836-.504-.488,0-.86.08-1.116.239-.256.16-.384.372-.384.637,0,.208.072.371.216.491.144.12.322.208.534.265.212.056.51.12.894.191.512.089.926.183,1.242.282.316.101.586.271.81.51.224.24.336.576.336,1.009,0,.575-.246,1.033-.738,1.373-.492.341-1.162.511-2.01.511-.521,0-1.021-.07-1.5-.21Z" fill="#1d1d1b" stroke-width="0"/>
    <path d="M357.722,26.56c-.148-.145-.223-.32-.223-.528s.074-.386.223-.534c.147-.147.333-.222.558-.222s.41.07.558.21.222.314.222.522c0,.216-.074.397-.222.546-.148.147-.334.222-.558.222s-.41-.072-.558-.216ZM357.704,28h1.152v6.36h-1.152v-6.36Z" fill="#1d1d1b" stroke-width="0"/>
    <path d="M362.348,27.448v.552h1.848v.948h-1.824v5.412h-1.152v-5.412h-1.08v-.948h1.08v-.563c0-.632.184-1.132.552-1.5.368-.368.884-.552,1.548-.552.256,0,.496.031.72.096.224.064.416.156.576.276l-.348.876c-.265-.2-.561-.301-.889-.301-.688,0-1.032.372-1.032,1.116Z" fill="#1d1d1b" stroke-width="0"/>
    <path d="M365.612,34.222c-.48-.141-.856-.318-1.128-.534l.479-.912c.28.2.62.36,1.021.48.399.119.804.18,1.212.18,1.008,0,1.512-.288,1.512-.864,0-.192-.068-.344-.204-.456-.136-.111-.306-.193-.51-.246-.204-.052-.494-.109-.87-.174-.512-.08-.93-.172-1.254-.276-.324-.104-.602-.279-.834-.527-.232-.248-.348-.596-.348-1.044,0-.576.24-1.038.72-1.387.479-.348,1.124-.521,1.932-.521.424,0,.848.052,1.272.156.424.104.771.244,1.044.42l-.492.912c-.521-.336-1.132-.504-1.836-.504-.488,0-.86.08-1.116.239-.256.16-.384.372-.384.637,0,.208.072.371.216.491.144.12.322.208.534.265.212.056.51.12.894.191.512.089.926.183,1.242.282.316.101.586.271.81.51.224.24.336.576.336,1.009,0,.575-.246,1.033-.738,1.373-.492.341-1.162.511-2.01.511-.521,0-1.021-.07-1.5-.21Z" fill="#1d1d1b" stroke-width="0"/>
    <path d="M374.12,30.568h3.228v.996h-3.228v-.996Z" fill="#1d1d1b" stroke-width="0"/>
    <path d="M388.616,33.316v1.044h-6.096v-8.4h5.928v1.044h-4.729v2.58h4.212v1.021h-4.212v2.712h4.896ZM386.227,23.717h1.464l-2.016,1.56h-1.08l1.632-1.56Z" fill="#1d1d1b" stroke-width="0"/>
    <path d="M393.824,33.988c-.168.145-.376.254-.624.33s-.504.114-.769.114c-.64,0-1.136-.172-1.487-.517-.353-.344-.528-.836-.528-1.476v-3.492h-1.08v-.948h1.08v-1.392h1.152v1.392h1.824v.948h-1.824v3.444c0,.344.085.607.258.792.172.184.418.275.738.275.352,0,.652-.1.9-.3l.36.828Z" fill="#1d1d1b" stroke-width="0"/>
    <path d="M395.233,26.56c-.148-.145-.222-.32-.222-.528s.074-.386.222-.534c.148-.147.333-.222.558-.222s.41.07.558.21c.148.14.222.314.222.522,0,.216-.074.397-.222.546-.148.147-.334.222-.558.222s-.41-.072-.558-.216ZM395.215,28h1.152v6.36h-1.152v-6.36Z" fill="#1d1d1b" stroke-width="0"/>
    <path d="M404.563,28v8.688h-1.152v-3.288c-.264.336-.586.592-.966.768-.38.177-.798.265-1.254.265-.616,0-1.168-.136-1.656-.408-.488-.271-.87-.654-1.146-1.146-.276-.491-.414-1.058-.414-1.697s.138-1.204.414-1.692c.276-.488.658-.868,1.146-1.14.488-.272,1.04-.408,1.656-.408.472,0,.904.09,1.296.27.392.181.716.446.972.799v-1.009h1.104ZM402.379,33.142c.328-.188.584-.452.768-.792.184-.34.276-.73.276-1.17s-.094-.828-.282-1.164-.444-.599-.768-.786c-.324-.188-.687-.282-1.086-.282-.408,0-.774.092-1.098.276-.324.184-.58.446-.768.786-.188.34-.282.729-.282,1.17s.094.83.282,1.17c.188.34.444.604.768.792.324.188.69.282,1.098.282.4,0,.764-.095,1.092-.282Z" fill="#1d1d1b" stroke-width="0"/>
    <path d="M412.675,28v6.36h-1.092v-.96c-.232.328-.538.582-.918.762-.38.181-.794.271-1.242.271-.849,0-1.517-.234-2.004-.702s-.732-1.158-.732-2.07v-3.66h1.152v3.528c0,.616.147,1.082.443,1.398.296.315.72.474,1.272.474.607,0,1.088-.184,1.44-.552s.528-.889.528-1.561v-3.288h1.152Z" fill="#1d1d1b" stroke-width="0"/>
    <path d="M420.595,31.564h-5.16c.072.56.318,1.01.738,1.35.42.341.941.511,1.565.511.76,0,1.372-.257,1.836-.769l.636.744c-.288.336-.646.592-1.074.768-.428.177-.906.265-1.434.265-.672,0-1.268-.139-1.788-.414-.52-.276-.922-.662-1.206-1.158s-.426-1.056-.426-1.68c0-.616.139-1.172.414-1.668.276-.496.656-.883,1.141-1.158.483-.276,1.029-.414,1.638-.414s1.15.138,1.626.414c.476.275.848.662,1.116,1.158.268.496.402,1.063.402,1.704,0,.088-.008.203-.024.348ZM416.089,29.416c-.372.336-.59.776-.654,1.32h4.08c-.064-.536-.282-.974-.654-1.314-.372-.34-.834-.51-1.386-.51s-1.014.168-1.386.504Z" fill="#1d1d1b" stroke-width="0"/>
    <path d="M425.791,33.988c-.168.145-.376.254-.624.33s-.504.114-.768.114c-.64,0-1.136-.172-1.488-.517-.352-.344-.528-.836-.528-1.476v-3.492h-1.08v-.948h1.08v-1.392h1.152v1.392h1.824v.948h-1.824v3.444c0,.344.085.607.258.792.172.184.418.275.738.275.353,0,.652-.1.9-.3l.36.828Z" fill="#1d1d1b" stroke-width="0"/>
    <path d="M430.603,33.988c-.168.145-.376.254-.624.33s-.504.114-.768.114c-.64,0-1.136-.172-1.488-.517-.353-.344-.528-.836-.528-1.476v-3.492h-1.08v-.948h1.08v-1.392h1.152v1.392h1.824v.948h-1.824v3.444c0,.344.086.607.258.792.172.184.418.275.738.275.352,0,.652-.1.9-.3l.36.828Z" fill="#1d1d1b" stroke-width="0"/>
    <path d="M437.503,31.564h-5.16c.072.56.318,1.01.738,1.35.42.341.942.511,1.566.511.76,0,1.372-.257,1.836-.769l.636.744c-.288.336-.646.592-1.074.768-.428.177-.906.265-1.434.265-.672,0-1.268-.139-1.788-.414-.52-.276-.922-.662-1.206-1.158-.284-.496-.426-1.056-.426-1.68,0-.616.138-1.172.414-1.668.276-.496.656-.883,1.14-1.158.484-.276,1.03-.414,1.638-.414s1.149.138,1.626.414c.476.275.848.662,1.116,1.158s.402,1.063.402,1.704c0,.088-.008.203-.024.348ZM432.997,29.416c-.372.336-.59.776-.654,1.32h4.08c-.064-.536-.282-.974-.654-1.314-.372-.34-.834-.51-1.386-.51s-1.015.168-1.386.504Z" fill="#1d1d1b" stroke-width="0"/>
    <path d="M439.447,34.222c-.479-.141-.856-.318-1.128-.534l.48-.912c.279.2.62.36,1.02.48.4.119.804.18,1.212.18,1.008,0,1.512-.288,1.512-.864,0-.192-.068-.344-.204-.456-.137-.111-.307-.193-.51-.246-.204-.052-.494-.109-.87-.174-.512-.08-.93-.172-1.254-.276-.324-.104-.602-.279-.834-.527s-.348-.596-.348-1.044c0-.576.24-1.038.72-1.387.48-.348,1.124-.521,1.933-.521.424,0,.848.052,1.271.156.424.104.772.244,1.044.42l-.492.912c-.52-.336-1.132-.504-1.836-.504-.488,0-.86.08-1.116.239-.257.16-.384.372-.384.637,0,.208.072.371.216.491s.322.208.534.265c.212.056.51.12.894.191.512.089.926.183,1.242.282.315.101.586.271.81.51.224.24.336.576.336,1.009,0,.575-.246,1.033-.738,1.373-.492.341-1.162.511-2.01.511-.52,0-1.02-.07-1.5-.21Z" fill="#1d1d1b" stroke-width="0"/>
    <path d="M447.955,30.568h3.229v.996h-3.229v-.996Z" fill="#1d1d1b" stroke-width="0"/>
    <path d="M456.355,25.96h1.2v7.356h4.548v1.044h-5.748v-8.4Z" fill="#1d1d1b" stroke-width="0"/>
    <path d="M468.955,31.564h-5.16c.072.56.318,1.01.738,1.35.42.341.942.511,1.566.511.76,0,1.372-.257,1.836-.769l.636.744c-.288.336-.646.592-1.074.768-.428.177-.906.265-1.434.265-.672,0-1.269-.139-1.788-.414-.521-.276-.922-.662-1.206-1.158-.284-.496-.426-1.056-.426-1.68,0-.616.138-1.172.414-1.668s.656-.883,1.14-1.158c.484-.276,1.03-.414,1.638-.414s1.15.138,1.626.414c.476.275.848.662,1.116,1.158s.402,1.063.402,1.704c0,.088-.008.203-.024.348ZM464.449,29.416c-.372.336-.59.776-.654,1.32h4.08c-.064-.536-.282-.974-.654-1.314-.372-.34-.834-.51-1.386-.51s-1.014.168-1.386.504Z" fill="#1d1d1b" stroke-width="0"/>
    <path d="M474.151,33.988c-.168.145-.376.254-.624.33s-.504.114-.769.114c-.64,0-1.136-.172-1.487-.517-.353-.344-.528-.836-.528-1.476v-3.492h-1.08v-.948h1.08v-1.392h1.152v1.392h1.824v.948h-1.824v3.444c0,.344.085.607.258.792.172.184.418.275.738.275.352,0,.652-.1.9-.3l.36.828Z" fill="#1d1d1b" stroke-width="0"/>
    <path d="M478.962,33.988c-.168.145-.376.254-.624.33s-.504.114-.768.114c-.64,0-1.136-.172-1.488-.517-.352-.344-.528-.836-.528-1.476v-3.492h-1.08v-.948h1.08v-1.392h1.152v1.392h1.824v.948h-1.824v3.444c0,.344.086.607.258.792.172.184.418.275.738.275.352,0,.652-.1.9-.3l.359.828Z" fill="#1d1d1b" stroke-width="0"/>
    <path d="M482.347,28.228c.392-.192.868-.288,1.428-.288v1.116c-.064-.008-.152-.013-.264-.013-.624,0-1.114.187-1.47.559s-.534.902-.534,1.59v3.168h-1.151v-6.36h1.104v1.068c.2-.368.496-.648.888-.84Z" fill="#1d1d1b" stroke-width="0"/>
    <path d="M489.516,28.588c.468.433.702,1.076.702,1.933v3.84h-1.092v-.84c-.192.296-.466.521-.822.678-.356.156-.778.234-1.266.234-.712,0-1.282-.172-1.71-.517-.428-.344-.642-.796-.642-1.355s.204-1.01.612-1.351c.408-.34,1.056-.51,1.944-.51h1.824v-.228c0-.496-.144-.876-.432-1.141-.288-.264-.712-.396-1.272-.396-.376,0-.744.062-1.104.186-.36.124-.664.29-.912.498l-.479-.863c.328-.265.72-.467,1.176-.606s.94-.21,1.452-.21c.88,0,1.554.216,2.021.647ZM488.371,33.25c.319-.195.552-.474.696-.834v-.888h-1.776c-.977,0-1.464.328-1.464.984,0,.319.124.571.372.756.248.184.592.275,1.032.275s.82-.098,1.14-.294Z" fill="#1d1d1b" stroke-width="0"/>
    <path d="M498.474,28v5.496c0,1.112-.276,1.935-.828,2.466-.552.532-1.376.799-2.472.799-.6,0-1.172-.082-1.716-.246s-.984-.398-1.32-.702l.552-.888c.296.256.662.457,1.098.605.436.148.886.222,1.35.222.744,0,1.294-.176,1.65-.527.355-.353.534-.889.534-1.608v-.504c-.272.328-.606.574-1.002.738s-.826.246-1.29.246c-.608,0-1.158-.13-1.65-.391-.492-.26-.878-.624-1.158-1.092s-.42-1.002-.42-1.602.14-1.135.42-1.603.666-.83,1.158-1.086,1.042-.384,1.65-.384c.48,0,.926.088,1.338.264.412.177.75.437,1.014.78v-.984h1.092ZM496.285,32.824c.332-.176.592-.422.78-.738.188-.315.282-.674.282-1.073,0-.616-.204-1.114-.612-1.494s-.932-.57-1.572-.57c-.648,0-1.176.19-1.584.57-.408.38-.612.878-.612,1.494,0,.399.094.758.282,1.073.188.316.448.562.78.738.332.176.71.264,1.134.264.416,0,.79-.088,1.122-.264Z" fill="#1d1d1b" stroke-width="0"/>
    <path d="M506.394,31.564h-5.16c.072.56.318,1.01.738,1.35.42.341.942.511,1.566.511.76,0,1.372-.257,1.836-.769l.636.744c-.288.336-.646.592-1.074.768-.428.177-.906.265-1.434.265-.672,0-1.269-.139-1.788-.414-.521-.276-.922-.662-1.206-1.158-.284-.496-.426-1.056-.426-1.68,0-.616.138-1.172.414-1.668s.656-.883,1.14-1.158c.484-.276,1.03-.414,1.638-.414s1.15.138,1.626.414c.476.275.848.662,1.116,1.158s.402,1.063.402,1.704c0,.088-.008.203-.024.348ZM501.888,29.416c-.372.336-.59.776-.654,1.32h4.08c-.064-.536-.282-.974-.654-1.314-.372-.34-.834-.51-1.386-.51s-1.014.168-1.386.504Z" fill="#1d1d1b" stroke-width="0"/>
    <path d="M508.338,34.222c-.48-.141-.856-.318-1.128-.534l.479-.912c.28.2.62.36,1.021.48.399.119.804.18,1.212.18,1.008,0,1.512-.288,1.512-.864,0-.192-.068-.344-.204-.456-.136-.111-.306-.193-.51-.246-.204-.052-.494-.109-.87-.174-.512-.08-.93-.172-1.254-.276-.324-.104-.602-.279-.834-.527-.232-.248-.348-.596-.348-1.044,0-.576.24-1.038.72-1.387.479-.348,1.124-.521,1.932-.521.424,0,.848.052,1.272.156.424.104.771.244,1.044.42l-.492.912c-.521-.336-1.132-.504-1.836-.504-.488,0-.86.08-1.116.239-.256.16-.384.372-.384.637,0,.208.072.371.216.491.144.12.322.208.534.265.212.056.51.12.894.191.512.089.926.183,1.242.282.316.101.586.271.81.51.224.24.336.576.336,1.009,0,.575-.246,1.033-.738,1.373-.492.341-1.162.511-2.01.511-.521,0-1.021-.07-1.5-.21Z" fill="#1d1d1b" stroke-width="0"/>
    <path d="M246.207,51.898c-.676-.372-1.206-.884-1.59-1.536-.384-.652-.576-1.386-.576-2.202s.192-1.55.576-2.202c.384-.651.916-1.164,1.596-1.536.68-.371,1.44-.558,2.28-.558.655,0,1.256.11,1.8.33s1.008.546,1.392.978l-.78.757c-.632-.664-1.42-.996-2.364-.996-.624,0-1.188.14-1.692.42s-.898.666-1.182,1.158c-.284.491-.426,1.042-.426,1.649s.142,1.158.426,1.65c.284.492.678.878,1.182,1.158.504.279,1.068.42,1.692.42.936,0,1.724-.336,2.364-1.009l.78.757c-.384.432-.85.76-1.397.983-.548.225-1.15.336-1.806.336-.84,0-1.598-.186-2.274-.558Z" fill="#1d1d1b" stroke-width="0"/>
    <path d="M253.99,52.012c-.504-.28-.898-.666-1.183-1.158-.284-.492-.426-1.05-.426-1.674s.142-1.183.426-1.674c.284-.492.678-.877,1.183-1.152.504-.276,1.071-.414,1.704-.414s1.198.138,1.698.414c.5.275.893.66,1.176,1.152.284.491.426,1.05.426,1.674s-.143,1.182-.426,1.674-.676.878-1.176,1.158c-.5.279-1.066.42-1.698.42s-1.2-.141-1.704-.42ZM256.791,51.142c.324-.188.578-.452.762-.792.184-.34.276-.73.276-1.17s-.092-.83-.276-1.17c-.184-.34-.438-.603-.762-.786-.324-.185-.69-.276-1.098-.276s-.774.092-1.098.276c-.324.184-.58.446-.768.786-.188.34-.282.729-.282,1.17s.094.83.282,1.17c.188.34.444.604.768.792.324.188.69.282,1.098.282s.774-.095,1.098-.282Z" fill="#1d1d1b" stroke-width="0"/>
    <path d="M265.912,46.642c.476.468.714,1.154.714,2.058v3.66h-1.152v-3.528c0-.615-.148-1.08-.444-1.392-.296-.312-.72-.468-1.272-.468-.624,0-1.116.182-1.476.546s-.54.886-.54,1.565v3.276h-1.152v-6.36h1.104v.96c.232-.327.546-.579.942-.756.396-.176.846-.264,1.35-.264.808,0,1.45.234,1.926.702Z" fill="#1d1d1b" stroke-width="0"/>
    <path d="M270.057,45.448v.552h1.849v.948h-1.824v5.412h-1.152v-5.412h-1.08v-.948h1.08v-.563c0-.632.184-1.132.552-1.5.368-.368.884-.552,1.548-.552.256,0,.496.031.72.096.224.064.416.156.576.276l-.348.876c-.264-.2-.56-.301-.888-.301-.688,0-1.032.372-1.032,1.116Z" fill="#1d1d1b" stroke-width="0"/>
    <path d="M278.625,49.564h-5.16c.072.56.318,1.01.738,1.35.42.341.941.511,1.565.511.76,0,1.372-.257,1.836-.769l.636.744c-.288.336-.646.592-1.074.768-.428.177-.906.265-1.434.265-.672,0-1.268-.139-1.788-.414-.52-.276-.922-.662-1.206-1.158s-.426-1.056-.426-1.68c0-.616.139-1.172.414-1.668.276-.496.656-.883,1.141-1.158.483-.276,1.029-.414,1.638-.414s1.15.138,1.626.414c.476.275.848.662,1.116,1.158.268.496.402,1.063.402,1.704,0,.088-.008.203-.024.348ZM274.12,47.416c-.372.336-.59.776-.654,1.32h4.08c-.064-.536-.282-.974-.654-1.314-.372-.34-.834-.51-1.386-.51s-1.014.168-1.386.504Z" fill="#1d1d1b" stroke-width="0"/>
    <path d="M281.283,52.012c-.508-.28-.906-.666-1.194-1.158s-.432-1.05-.432-1.674.144-1.183.432-1.674c.288-.492.686-.877,1.194-1.152.508-.276,1.086-.414,1.734-.414.576,0,1.09.116,1.542.348.452.232.802.568,1.05,1.008l-.876.564c-.2-.304-.448-.532-.744-.684-.296-.152-.624-.229-.984-.229-.416,0-.79.092-1.122.276-.332.184-.592.446-.78.786-.188.34-.282.729-.282,1.17,0,.448.094.842.282,1.182.188.34.448.603.78.786s.706.276,1.122.276c.36,0,.688-.076.984-.229.296-.151.544-.38.744-.684l.876.552c-.248.44-.598.778-1.05,1.014-.452.236-.966.354-1.542.354-.647,0-1.226-.141-1.734-.42Z" fill="#1d1d1b" stroke-width="0"/>
    <path d="M290.757,51.988c-.168.145-.376.254-.624.33s-.504.114-.769.114c-.64,0-1.136-.172-1.487-.517-.353-.344-.528-.836-.528-1.476v-3.492h-1.08v-.948h1.08v-1.392h1.152v1.392h1.824v.948h-1.824v3.444c0,.344.085.607.258.792.172.184.418.275.738.275.352,0,.652-.1.9-.3l.36.828Z" fill="#1d1d1b" stroke-width="0"/>
    <path d="M292.167,44.56c-.148-.145-.223-.32-.223-.528s.074-.386.223-.534c.147-.147.333-.222.558-.222s.41.07.558.21.222.314.222.522c0,.216-.074.397-.222.546-.148.147-.334.222-.558.222s-.41-.072-.558-.216ZM292.149,46h1.152v6.36h-1.152v-6.36Z" fill="#1d1d1b" stroke-width="0"/>
    <path d="M296.517,52.012c-.504-.28-.898-.666-1.183-1.158-.284-.492-.426-1.05-.426-1.674s.142-1.183.426-1.674c.284-.492.678-.877,1.183-1.152.504-.276,1.071-.414,1.704-.414s1.198.138,1.698.414c.5.275.893.66,1.176,1.152.284.491.426,1.05.426,1.674s-.143,1.182-.426,1.674-.676.878-1.176,1.158c-.5.279-1.066.42-1.698.42s-1.2-.141-1.704-.42ZM299.319,51.142c.324-.188.578-.452.762-.792.184-.34.276-.73.276-1.17s-.092-.83-.276-1.17c-.184-.34-.438-.603-.762-.786-.324-.185-.69-.276-1.098-.276s-.774.092-1.098.276c-.324.184-.58.446-.768.786-.188.34-.282.729-.282,1.17s.094.83.282,1.17c.188.34.444.604.768.792.324.188.69.282,1.098.282s.774-.095,1.098-.282Z" fill="#1d1d1b" stroke-width="0"/>
    <path d="M308.439,46.642c.476.468.714,1.154.714,2.058v3.66h-1.152v-3.528c0-.615-.148-1.08-.444-1.392-.296-.312-.72-.468-1.272-.468-.624,0-1.116.182-1.476.546-.36.364-.54.886-.54,1.565v3.276h-1.152v-6.36h1.104v.96c.231-.327.546-.579.941-.756.396-.176.846-.264,1.351-.264.808,0,1.45.234,1.926.702Z" fill="#1d1d1b" stroke-width="0"/>
    <path d="M320.241,49.564h-5.16c.072.56.318,1.01.738,1.35.42.341.942.511,1.566.511.76,0,1.372-.257,1.836-.769l.636.744c-.288.336-.646.592-1.074.768-.428.177-.906.265-1.434.265-.672,0-1.269-.139-1.788-.414-.521-.276-.922-.662-1.206-1.158-.284-.496-.426-1.056-.426-1.68,0-.616.138-1.172.414-1.668s.656-.883,1.14-1.158c.484-.276,1.03-.414,1.638-.414s1.15.138,1.626.414c.476.275.848.662,1.116,1.158s.402,1.063.402,1.704c0,.088-.008.203-.024.348ZM315.735,47.416c-.372.336-.59.776-.654,1.32h4.08c-.064-.536-.282-.974-.654-1.314-.372-.34-.834-.51-1.386-.51s-1.014.168-1.386.504Z" fill="#1d1d1b" stroke-width="0"/>
    <path d="M325.437,51.988c-.168.145-.376.254-.624.33s-.504.114-.769.114c-.64,0-1.136-.172-1.487-.517-.353-.344-.528-.836-.528-1.476v-3.492h-1.08v-.948h1.08v-1.392h1.152v1.392h1.824v.948h-1.824v3.444c0,.344.085.607.258.792.172.184.418.275.738.275.352,0,.652-.1.9-.3l.36.828Z" fill="#1d1d1b" stroke-width="0"/>
    <path d="M330.075,44.56c-.148-.145-.222-.32-.222-.528s.074-.386.222-.534c.148-.147.334-.222.558-.222s.41.07.559.21c.147.14.222.314.222.522,0,.216-.074.397-.222.546-.148.147-.334.222-.559.222s-.41-.072-.558-.216ZM330.057,46h1.152v6.36h-1.152v-6.36Z" fill="#1d1d1b" stroke-width="0"/>
    <path d="M343.262,46.636c.468.464.702,1.151.702,2.063v3.66h-1.152v-3.528c0-.615-.142-1.08-.426-1.392-.284-.312-.689-.468-1.218-.468-.584,0-1.048.182-1.392.546-.345.364-.517.886-.517,1.565v3.276h-1.152v-3.528c0-.615-.142-1.08-.426-1.392-.284-.312-.69-.468-1.218-.468-.584,0-1.048.182-1.392.546-.344.364-.517.886-.517,1.565v3.276h-1.151v-6.36h1.104v.948c.232-.328.536-.578.912-.75s.804-.258,1.284-.258c.496,0,.936.1,1.32.3s.68.492.888.876c.24-.368.574-.655,1.002-.864.428-.208.91-.312,1.446-.312.8,0,1.434.232,1.901.696Z" fill="#1d1d1b" stroke-width="0"/>
    <path d="M351.117,46.348c.487.271.87.651,1.146,1.14.276.488.414,1.052.414,1.692s-.138,1.206-.414,1.697c-.276.492-.658.875-1.146,1.146-.488.272-1.041.408-1.656.408-.456,0-.874-.088-1.254-.265-.38-.176-.702-.432-.966-.768v3.288h-1.152v-8.688h1.104v1.009c.256-.353.58-.618.972-.799.392-.18.824-.27,1.296-.27.616,0,1.168.136,1.656.408ZM350.462,51.142c.324-.188.58-.452.768-.792.188-.34.282-.73.282-1.17s-.094-.83-.282-1.17c-.188-.34-.443-.603-.768-.786-.324-.185-.69-.276-1.098-.276-.4,0-.762.094-1.086.282-.324.188-.58.45-.768.786s-.282.724-.282,1.164.092.83.276,1.17c.184.34.439.604.768.792.328.188.692.282,1.092.282.408,0,.774-.095,1.098-.282Z" fill="#1d1d1b" stroke-width="0"/>
    <path d="M356.264,46.228c.392-.192.868-.288,1.428-.288v1.116c-.064-.008-.152-.013-.264-.013-.624,0-1.114.187-1.47.559-.356.372-.534.902-.534,1.59v3.168h-1.152v-6.36h1.104v1.068c.2-.368.496-.648.888-.84Z" fill="#1d1d1b" stroke-width="0"/>
    <path d="M364.772,49.564h-5.16c.072.56.318,1.01.738,1.35.42.341.942.511,1.566.511.76,0,1.372-.257,1.836-.769l.636.744c-.288.336-.646.592-1.074.768-.428.177-.906.265-1.434.265-.672,0-1.268-.139-1.788-.414-.52-.276-.922-.662-1.206-1.158s-.426-1.056-.426-1.68c0-.616.138-1.172.414-1.668.276-.496.656-.883,1.14-1.158.484-.276,1.03-.414,1.638-.414s1.15.138,1.626.414c.476.275.848.662,1.116,1.158.269.496.402,1.063.402,1.704,0,.088-.008.203-.024.348ZM360.266,47.416c-.372.336-.59.776-.654,1.32h4.08c-.064-.536-.282-.974-.654-1.314-.372-.34-.834-.51-1.386-.51s-1.014.168-1.386.504Z" fill="#1d1d1b" stroke-width="0"/>
    <path d="M366.716,52.222c-.48-.141-.856-.318-1.128-.534l.48-.912c.28.2.62.36,1.02.48.4.119.804.18,1.212.18,1.008,0,1.512-.288,1.512-.864,0-.192-.068-.344-.204-.456-.136-.111-.306-.193-.51-.246-.204-.052-.494-.109-.87-.174-.512-.08-.93-.172-1.254-.276-.324-.104-.602-.279-.834-.527-.232-.248-.348-.596-.348-1.044,0-.576.24-1.038.72-1.387.48-.348,1.124-.521,1.932-.521.424,0,.848.052,1.272.156.424.104.772.244,1.044.42l-.492.912c-.52-.336-1.132-.504-1.836-.504-.488,0-.86.08-1.116.239-.256.16-.384.372-.384.637,0,.208.072.371.216.491.145.12.322.208.534.265.212.056.51.12.894.191.512.089.926.183,1.242.282.316.101.586.271.81.51.224.24.336.576.336,1.009,0,.575-.246,1.033-.738,1.373-.492.341-1.162.511-2.01.511-.52,0-1.02-.07-1.5-.21Z" fill="#1d1d1b" stroke-width="0"/>
    <path d="M372.728,52.222c-.48-.141-.856-.318-1.128-.534l.48-.912c.28.2.62.36,1.02.48.4.119.804.18,1.212.18,1.008,0,1.512-.288,1.512-.864,0-.192-.068-.344-.204-.456-.136-.111-.306-.193-.51-.246-.204-.052-.494-.109-.87-.174-.512-.08-.93-.172-1.254-.276-.324-.104-.602-.279-.834-.527-.232-.248-.348-.596-.348-1.044,0-.576.24-1.038.72-1.387.48-.348,1.124-.521,1.932-.521.424,0,.848.052,1.272.156.424.104.772.244,1.044.42l-.492.912c-.52-.336-1.132-.504-1.836-.504-.488,0-.86.08-1.116.239-.256.16-.384.372-.384.637,0,.208.072.371.216.491.145.12.322.208.534.265.212.056.51.12.894.191.512.089.926.183,1.242.282.316.101.586.271.81.51.224.24.336.576.336,1.009,0,.575-.246,1.033-.738,1.373-.492.341-1.162.511-2.01.511-.52,0-1.02-.07-1.5-.21Z" fill="#1d1d1b" stroke-width="0"/>
    <path d="M378.434,44.56c-.148-.145-.222-.32-.222-.528s.074-.386.222-.534c.148-.147.334-.222.558-.222s.41.07.559.21c.147.14.222.314.222.522,0,.216-.074.397-.222.546-.148.147-.334.222-.559.222s-.41-.072-.558-.216ZM378.416,46h1.152v6.36h-1.152v-6.36Z" fill="#1d1d1b" stroke-width="0"/>
    <path d="M382.784,52.012c-.504-.28-.898-.666-1.182-1.158-.284-.492-.426-1.05-.426-1.674s.142-1.183.426-1.674c.284-.492.678-.877,1.182-1.152.504-.276,1.072-.414,1.704-.414s1.198.138,1.698.414c.5.275.892.66,1.176,1.152.284.491.426,1.05.426,1.674s-.142,1.182-.426,1.674-.676.878-1.176,1.158c-.5.279-1.066.42-1.698.42s-1.2-.141-1.704-.42ZM385.586,51.142c.324-.188.578-.452.762-.792.184-.34.275-.73.275-1.17s-.092-.83-.275-1.17c-.185-.34-.438-.603-.762-.786-.324-.185-.69-.276-1.098-.276s-.774.092-1.098.276c-.324.184-.58.446-.769.786-.188.34-.282.729-.282,1.17s.094.83.282,1.17c.188.34.444.604.769.792.324.188.689.282,1.098.282s.774-.095,1.098-.282Z" fill="#1d1d1b" stroke-width="0"/>
    <path d="M394.706,46.642c.476.468.714,1.154.714,2.058v3.66h-1.152v-3.528c0-.615-.148-1.08-.444-1.392-.296-.312-.72-.468-1.271-.468-.624,0-1.116.182-1.477.546-.359.364-.54.886-.54,1.565v3.276h-1.151v-6.36h1.104v.96c.232-.327.546-.579.942-.756.396-.176.846-.264,1.35-.264.808,0,1.45.234,1.926.702Z" fill="#1d1d1b" stroke-width="0"/>
    <path d="M405.812,46.348c.488.271.87.651,1.146,1.14s.414,1.052.414,1.692-.138,1.206-.414,1.697c-.276.492-.658.875-1.146,1.146-.488.272-1.04.408-1.656.408-.456,0-.874-.088-1.254-.265-.38-.176-.702-.432-.966-.768v3.288h-1.152v-8.688h1.104v1.009c.256-.353.58-.618.972-.799.392-.18.824-.27,1.296-.27.616,0,1.168.136,1.656.408ZM405.158,51.142c.324-.188.58-.452.768-.792s.282-.73.282-1.17-.094-.83-.282-1.17-.444-.603-.768-.786c-.324-.185-.69-.276-1.098-.276-.4,0-.762.094-1.086.282-.324.188-.58.45-.769.786-.188.336-.282.724-.282,1.164s.092.83.276,1.17c.184.34.44.604.768.792.328.188.692.282,1.092.282.408,0,.774-.095,1.098-.282Z" fill="#1d1d1b" stroke-width="0"/>
    <path d="M414.692,49.564h-5.16c.072.56.318,1.01.738,1.35.42.341.941.511,1.565.511.76,0,1.372-.257,1.836-.769l.636.744c-.288.336-.646.592-1.074.768-.428.177-.906.265-1.434.265-.672,0-1.268-.139-1.788-.414-.52-.276-.922-.662-1.206-1.158s-.426-1.056-.426-1.68c0-.616.139-1.172.414-1.668.276-.496.656-.883,1.141-1.158.483-.276,1.029-.414,1.638-.414s1.15.138,1.626.414c.476.275.848.662,1.116,1.158.268.496.402,1.063.402,1.704,0,.088-.008.203-.024.348ZM410.186,47.416c-.372.336-.59.776-.654,1.32h4.08c-.064-.536-.282-.974-.654-1.314-.372-.34-.834-.51-1.386-.51s-1.014.168-1.386.504Z" fill="#1d1d1b" stroke-width="0"/>
    <path d="M418.304,46.228c.392-.192.868-.288,1.428-.288v1.116c-.064-.008-.152-.013-.264-.013-.624,0-1.114.187-1.47.559s-.534.902-.534,1.59v3.168h-1.151v-6.36h1.104v1.068c.2-.368.496-.648.888-.84Z" fill="#1d1d1b" stroke-width="0"/>
    <path d="M421.52,52.222c-.48-.141-.856-.318-1.128-.534l.479-.912c.28.2.62.36,1.021.48.399.119.804.18,1.212.18,1.008,0,1.512-.288,1.512-.864,0-.192-.068-.344-.204-.456-.136-.111-.306-.193-.51-.246-.204-.052-.494-.109-.87-.174-.512-.08-.93-.172-1.254-.276-.324-.104-.602-.279-.834-.527-.232-.248-.348-.596-.348-1.044,0-.576.24-1.038.72-1.387.479-.348,1.124-.521,1.932-.521.424,0,.848.052,1.272.156.424.104.771.244,1.044.42l-.492.912c-.521-.336-1.132-.504-1.836-.504-.488,0-.86.08-1.116.239-.256.16-.384.372-.384.637,0,.208.072.371.216.491.144.12.322.208.534.265.212.056.51.12.894.191.512.089.926.183,1.242.282.316.101.586.271.81.51.224.24.336.576.336,1.009,0,.575-.246,1.033-.738,1.373-.492.341-1.162.511-2.01.511-.521,0-1.021-.07-1.5-.21Z" fill="#1d1d1b" stroke-width="0"/>
    <path d="M428.228,52.012c-.504-.28-.898-.666-1.183-1.158-.284-.492-.426-1.05-.426-1.674s.142-1.183.426-1.674c.284-.492.678-.877,1.183-1.152.504-.276,1.071-.414,1.704-.414s1.198.138,1.698.414c.5.275.893.66,1.176,1.152.284.491.426,1.05.426,1.674s-.143,1.182-.426,1.674-.676.878-1.176,1.158c-.5.279-1.066.42-1.698.42s-1.2-.141-1.704-.42ZM431.03,51.142c.324-.188.578-.452.762-.792.184-.34.276-.73.276-1.17s-.092-.83-.276-1.17c-.184-.34-.438-.603-.762-.786-.324-.185-.69-.276-1.098-.276s-.774.092-1.098.276c-.324.184-.58.446-.768.786-.188.34-.282.729-.282,1.17s.094.83.282,1.17c.188.34.444.604.768.792.324.188.69.282,1.098.282s.774-.095,1.098-.282Z" fill="#1d1d1b" stroke-width="0"/>
    <path d="M440.15,46.642c.476.468.714,1.154.714,2.058v3.66h-1.152v-3.528c0-.615-.148-1.08-.444-1.392-.296-.312-.72-.468-1.272-.468-.624,0-1.116.182-1.476.546s-.54.886-.54,1.565v3.276h-1.152v-6.36h1.104v.96c.232-.327.546-.579.942-.756.396-.176.846-.264,1.35-.264.808,0,1.45.234,1.926.702Z" fill="#1d1d1b" stroke-width="0"/>
    <path d="M448.322,46.642c.476.468.714,1.154.714,2.058v3.66h-1.152v-3.528c0-.615-.148-1.08-.444-1.392-.296-.312-.72-.468-1.272-.468-.624,0-1.116.182-1.476.546s-.54.886-.54,1.565v3.276h-1.152v-6.36h1.104v.96c.232-.327.546-.579.942-.756.396-.176.846-.264,1.35-.264.808,0,1.45.234,1.926.702Z" fill="#1d1d1b" stroke-width="0"/>
    <path d="M455.509,46.588c.468.433.702,1.076.702,1.933v3.84h-1.092v-.84c-.192.296-.466.521-.822.678-.356.156-.778.234-1.266.234-.712,0-1.282-.172-1.71-.517-.428-.344-.642-.796-.642-1.355s.204-1.01.612-1.351c.408-.34,1.056-.51,1.944-.51h1.824v-.228c0-.496-.144-.876-.432-1.141-.288-.264-.712-.396-1.272-.396-.376,0-.744.062-1.104.186-.36.124-.664.29-.912.498l-.479-.863c.328-.265.72-.467,1.176-.606s.94-.21,1.452-.21c.88,0,1.554.216,2.021.647ZM454.364,51.25c.319-.195.552-.474.696-.834v-.888h-1.776c-.977,0-1.464.328-1.464.984,0,.319.124.571.372.756.248.184.592.275,1.032.275s.82-.098,1.14-.294Z" fill="#1d1d1b" stroke-width="0"/>
    <path d="M458.347,43.456h1.152v8.904h-1.152v-8.904Z" fill="#1d1d1b" stroke-width="0"/>
    <path d="M461.713,44.56c-.148-.145-.222-.32-.222-.528s.074-.386.222-.534c.148-.147.334-.222.558-.222s.41.07.559.21c.147.14.222.314.222.522,0,.216-.074.397-.222.546-.148.147-.334.222-.559.222s-.41-.072-.558-.216ZM461.695,46h1.152v6.36h-1.152v-6.36Z" fill="#1d1d1b" stroke-width="0"/>
    <path d="M465.367,52.222c-.48-.141-.856-.318-1.128-.534l.48-.912c.28.2.62.36,1.02.48.4.119.804.18,1.212.18,1.008,0,1.512-.288,1.512-.864,0-.192-.068-.344-.204-.456-.136-.111-.306-.193-.51-.246-.204-.052-.494-.109-.87-.174-.512-.08-.93-.172-1.254-.276-.324-.104-.603-.279-.834-.527-.232-.248-.349-.596-.349-1.044,0-.576.24-1.038.72-1.387.48-.348,1.124-.521,1.932-.521.424,0,.848.052,1.272.156.424.104.772.244,1.044.42l-.492.912c-.521-.336-1.132-.504-1.836-.504-.488,0-.86.08-1.116.239-.256.16-.384.372-.384.637,0,.208.072.371.216.491.144.12.322.208.534.265.212.056.51.12.894.191.512.089.926.183,1.242.282.316.101.586.271.81.51.224.24.336.576.336,1.009,0,.575-.246,1.033-.738,1.373-.492.341-1.162.511-2.01.511-.52,0-1.02-.07-1.5-.21Z" fill="#1d1d1b" stroke-width="0"/>
    <path d="M476.779,49.564h-5.16c.072.56.318,1.01.738,1.35.42.341.942.511,1.566.511.76,0,1.372-.257,1.836-.769l.636.744c-.288.336-.646.592-1.074.768-.428.177-.906.265-1.434.265-.672,0-1.268-.139-1.788-.414-.52-.276-.922-.662-1.206-1.158s-.426-1.056-.426-1.68c0-.616.138-1.172.414-1.668.276-.496.656-.883,1.14-1.158.484-.276,1.03-.414,1.638-.414s1.15.138,1.626.414c.476.275.848.662,1.116,1.158.269.496.402,1.063.402,1.704,0,.088-.008.203-.024.348ZM472.273,47.416c-.372.336-.59.776-.654,1.32h4.08c-.064-.536-.282-.974-.654-1.314-.372-.34-.834-.51-1.386-.51s-1.014.168-1.386.504ZM474.379,43.516h1.464l-2.016,1.56h-1.08l1.632-1.56Z" fill="#1d1d1b" stroke-width="0"/>
    <path d="M484.123,49.564h-5.16c.072.56.318,1.01.738,1.35.42.341.942.511,1.566.511.76,0,1.372-.257,1.836-.769l.636.744c-.288.336-.646.592-1.074.768-.428.177-.906.265-1.434.265-.672,0-1.268-.139-1.788-.414-.52-.276-.922-.662-1.206-1.158-.284-.496-.426-1.056-.426-1.68,0-.616.138-1.172.414-1.668.276-.496.656-.883,1.14-1.158.484-.276,1.03-.414,1.638-.414s1.149.138,1.626.414c.476.275.848.662,1.116,1.158s.402,1.063.402,1.704c0,.088-.008.203-.024.348ZM479.617,47.416c-.372.336-.59.776-.654,1.32h4.08c-.064-.536-.282-.974-.654-1.314-.372-.34-.834-.51-1.386-.51s-1.015.168-1.386.504Z" fill="#1d1d1b" stroke-width="0"/>
    <path d="M486.067,52.222c-.479-.141-.856-.318-1.128-.534l.48-.912c.279.2.62.36,1.02.48.4.119.804.18,1.212.18,1.008,0,1.512-.288,1.512-.864,0-.192-.068-.344-.204-.456-.137-.111-.307-.193-.51-.246-.204-.052-.494-.109-.87-.174-.512-.08-.93-.172-1.254-.276-.324-.104-.602-.279-.834-.527s-.348-.596-.348-1.044c0-.576.24-1.038.72-1.387.48-.348,1.124-.521,1.933-.521.424,0,.848.052,1.271.156.424.104.772.244,1.044.42l-.492.912c-.52-.336-1.132-.504-1.836-.504-.488,0-.86.08-1.116.239-.257.16-.384.372-.384.637,0,.208.072.371.216.491s.322.208.534.265c.212.056.51.12.894.191.512.089.926.183,1.242.282.315.101.586.271.81.51.224.24.336.576.336,1.009,0,.575-.246,1.033-.738,1.373-.492.341-1.162.511-2.01.511-.52,0-1.02-.07-1.5-.21Z" fill="#1d1d1b" stroke-width="0"/>
    <path d="M254.181,82l-2.376,6.36h-1.104l-1.836-4.824-1.86,4.824h-1.104l-2.364-6.36h1.092l1.848,5.064,1.92-5.064h.973l1.884,5.088,1.896-5.088h1.032Z" fill="#1d1d1b" stroke-width="0"/>
    <path d="M264.873,82l-2.376,6.36h-1.104l-1.836-4.824-1.86,4.824h-1.104l-2.364-6.36h1.092l1.848,5.064,1.92-5.064h.972l1.884,5.088,1.896-5.088h1.032Z" fill="#1d1d1b" stroke-width="0"/>
    <path d="M275.565,82l-2.376,6.36h-1.104l-1.836-4.824-1.86,4.824h-1.104l-2.364-6.36h1.092l1.848,5.064,1.92-5.064h.973l1.884,5.088,1.896-5.088h1.032Z" fill="#1d1d1b" stroke-width="0"/>
    <path d="M276.033,88.198c-.16-.156-.24-.354-.24-.594,0-.232.08-.426.24-.582.16-.156.352-.234.576-.234s.412.076.564.229c.152.151.228.348.228.588s-.078.438-.233.594c-.156.156-.342.234-.559.234-.224,0-.416-.078-.576-.234Z" fill="#1d1d1b" stroke-width="0"/>
    <path d="M281.529,85.396l-1.32,1.224v1.74h-1.151v-8.904h1.151v5.712l3.468-3.168h1.392l-2.676,2.628,2.939,3.732h-1.416l-2.388-2.964Z" fill="#1d1d1b" stroke-width="0"/>
    <path d="M291.909,85.564h-5.16c.072.56.318,1.01.738,1.35.42.341.942.511,1.566.511.76,0,1.372-.257,1.836-.769l.636.744c-.288.336-.646.592-1.074.768-.428.177-.906.265-1.434.265-.672,0-1.268-.139-1.788-.414-.52-.276-.922-.662-1.206-1.158s-.426-1.056-.426-1.68c0-.616.138-1.172.414-1.668.276-.496.656-.883,1.14-1.158.484-.276,1.03-.414,1.638-.414s1.15.138,1.626.414c.476.275.848.662,1.116,1.158.269.496.402,1.063.402,1.704,0,.088-.008.203-.024.348ZM287.403,83.416c-.372.336-.59.776-.654,1.32h4.08c-.064-.536-.282-.974-.654-1.314-.372-.34-.834-.51-1.386-.51s-1.014.168-1.386.504Z" fill="#1d1d1b" stroke-width="0"/>
    <path d="M295.521,82.228c.392-.192.868-.288,1.428-.288v1.116c-.064-.008-.152-.013-.264-.013-.624,0-1.114.187-1.47.559-.356.372-.534.902-.534,1.59v3.168h-1.152v-6.36h1.104v1.068c.2-.368.496-.648.888-.84Z" fill="#1d1d1b" stroke-width="0"/>
    <path d="M298.737,88.222c-.479-.141-.856-.318-1.128-.534l.48-.912c.279.2.62.36,1.02.48.4.119.804.18,1.212.18,1.008,0,1.512-.288,1.512-.864,0-.192-.068-.344-.204-.456-.137-.111-.307-.193-.51-.246-.204-.052-.494-.109-.87-.174-.512-.08-.93-.172-1.254-.276-.324-.104-.602-.279-.834-.527s-.348-.596-.348-1.044c0-.576.24-1.038.72-1.387.48-.348,1.124-.521,1.933-.521.424,0,.848.052,1.271.156.424.104.772.244,1.044.42l-.492.912c-.52-.336-1.132-.504-1.836-.504-.488,0-.86.08-1.116.239-.257.16-.384.372-.384.637,0,.208.072.371.216.491s.322.208.534.265c.212.056.51.12.894.191.512.089.926.183,1.242.282.315.101.586.271.81.51.224.24.336.576.336,1.009,0,.575-.246,1.033-.738,1.373-.492.341-1.162.511-2.01.511-.52,0-1.02-.07-1.5-.21Z" fill="#1d1d1b" stroke-width="0"/>
    <path d="M308.001,87.988c-.168.145-.376.254-.624.33s-.504.114-.768.114c-.64,0-1.136-.172-1.488-.517-.352-.344-.528-.836-.528-1.476v-3.492h-1.08v-.948h1.08v-1.392h1.152v1.392h1.824v.948h-1.824v3.444c0,.344.085.607.258.792.172.184.418.275.738.275.353,0,.652-.1.9-.3l.36.828Z" fill="#1d1d1b" stroke-width="0"/>
    <path d="M309.411,80.56c-.148-.145-.222-.32-.222-.528s.074-.386.222-.534c.148-.147.334-.222.558-.222s.41.07.558.21c.148.14.222.314.222.522,0,.216-.074.397-.222.546-.148.147-.334.222-.558.222s-.41-.072-.558-.216ZM309.393,82h1.151v6.36h-1.151v-6.36Z" fill="#1d1d1b" stroke-width="0"/>
    <path d="M313.779,88.012c-.508-.28-.906-.666-1.194-1.158s-.432-1.05-.432-1.674.144-1.183.432-1.674c.288-.492.686-.877,1.194-1.152.508-.276,1.086-.414,1.734-.414.576,0,1.09.116,1.542.348.452.232.802.568,1.05,1.008l-.876.564c-.2-.304-.448-.532-.744-.684-.296-.152-.624-.229-.984-.229-.416,0-.79.092-1.122.276-.332.184-.592.446-.78.786s-.282.729-.282,1.17c0,.448.094.842.282,1.182s.448.603.78.786.706.276,1.122.276c.36,0,.688-.076.984-.229.296-.151.544-.38.744-.684l.876.552c-.248.44-.599.778-1.05,1.014-.452.236-.966.354-1.542.354-.648,0-1.226-.141-1.734-.42Z" fill="#1d1d1b" stroke-width="0"/>
    <path d="M319.533,88.198c-.16-.156-.24-.354-.24-.594,0-.232.08-.426.24-.582.16-.156.352-.234.576-.234s.412.076.564.229c.152.151.228.348.228.588s-.078.438-.234.594-.342.234-.558.234c-.224,0-.416-.078-.576-.234Z" fill="#1d1d1b" stroke-width="0"/>
    <path d="M323.451,88.012c-.508-.28-.906-.666-1.194-1.158s-.432-1.05-.432-1.674.144-1.183.432-1.674c.288-.492.686-.877,1.194-1.152.508-.276,1.086-.414,1.734-.414.576,0,1.09.116,1.542.348.452.232.802.568,1.05,1.008l-.876.564c-.2-.304-.448-.532-.744-.684-.296-.152-.624-.229-.984-.229-.416,0-.79.092-1.122.276-.332.184-.592.446-.78.786s-.282.729-.282,1.17c0,.448.094.842.282,1.182s.448.603.78.786.706.276,1.122.276c.36,0,.688-.076.984-.229.296-.151.544-.38.744-.684l.876.552c-.248.44-.599.778-1.05,1.014-.452.236-.966.354-1.542.354-.648,0-1.226-.141-1.734-.42Z" fill="#1d1d1b" stroke-width="0"/>
    <path d="M330.189,88.012c-.504-.28-.898-.666-1.183-1.158-.284-.492-.426-1.05-.426-1.674s.142-1.183.426-1.674c.284-.492.678-.877,1.183-1.152.504-.276,1.071-.414,1.704-.414s1.198.138,1.698.414c.5.275.893.66,1.176,1.152.284.491.426,1.05.426,1.674s-.143,1.182-.426,1.674-.676.878-1.176,1.158c-.5.279-1.066.42-1.698.42s-1.2-.141-1.704-.42ZM332.991,87.142c.324-.188.578-.452.762-.792.184-.34.276-.73.276-1.17s-.092-.83-.276-1.17c-.184-.34-.438-.603-.762-.786-.324-.185-.69-.276-1.098-.276s-.774.092-1.098.276c-.324.184-.58.446-.768.786-.188.34-.282.729-.282,1.17s.094.83.282,1.17c.188.34.444.604.768.792.324.188.69.282,1.098.282s.774-.095,1.098-.282Z" fill="#1d1d1b" stroke-width="0"/>
    <path d="M346.646,82.636c.468.464.702,1.151.702,2.063v3.66h-1.152v-3.528c0-.615-.143-1.08-.426-1.392-.284-.312-.69-.468-1.218-.468-.584,0-1.048.182-1.392.546-.344.364-.516.886-.516,1.565v3.276h-1.152v-3.528c0-.615-.143-1.08-.426-1.392-.284-.312-.69-.468-1.218-.468-.584,0-1.048.182-1.392.546s-.516.886-.516,1.565v3.276h-1.152v-6.36h1.104v.948c.232-.328.536-.578.912-.75s.805-.258,1.284-.258c.496,0,.936.1,1.32.3.384.2.68.492.888.876.24-.368.574-.655,1.002-.864.428-.208.91-.312,1.446-.312.8,0,1.434.232,1.902.696Z" fill="#1d1d1b" stroke-width="0"/>
    <path d="M245.595,106.012c-.508-.28-.906-.666-1.194-1.158s-.432-1.05-.432-1.674.144-1.183.432-1.674c.288-.492.686-.877,1.194-1.152.508-.276,1.086-.414,1.734-.414.576,0,1.09.116,1.542.348.452.232.802.568,1.05,1.008l-.876.564c-.2-.304-.448-.532-.744-.684-.296-.152-.624-.229-.984-.229-.416,0-.791.092-1.122.276-.332.184-.592.446-.78.786-.188.34-.282.729-.282,1.17,0,.448.094.842.282,1.182.188.34.448.603.78.786.332.184.706.276,1.122.276.36,0,.688-.076.984-.229.296-.151.544-.38.744-.684l.876.552c-.248.44-.598.778-1.05,1.014-.452.236-.966.354-1.542.354-.648,0-1.227-.141-1.734-.42Z" fill="#1d1d1b" stroke-width="0"/>
    <path d="M252.333,106.012c-.504-.28-.898-.666-1.182-1.158s-.426-1.05-.426-1.674.143-1.183.426-1.674c.284-.492.678-.877,1.182-1.152.504-.276,1.072-.414,1.704-.414s1.198.138,1.698.414c.5.275.892.66,1.176,1.152.284.491.426,1.05.426,1.674s-.142,1.182-.426,1.674c-.284.492-.676.878-1.176,1.158-.5.279-1.066.42-1.698.42s-1.2-.141-1.704-.42ZM255.135,105.142c.324-.188.578-.452.762-.792s.276-.73.276-1.17-.092-.83-.276-1.17-.438-.603-.762-.786c-.324-.185-.689-.276-1.098-.276s-.774.092-1.098.276c-.324.184-.58.446-.768.786s-.282.729-.282,1.17.094.83.282,1.17.444.604.768.792c.324.188.69.282,1.098.282s.774-.095,1.098-.282Z" fill="#1d1d1b" stroke-width="0"/>
    <path d="M264.255,100.642c.476.468.714,1.154.714,2.058v3.66h-1.152v-3.528c0-.615-.148-1.08-.444-1.392-.296-.312-.72-.468-1.272-.468-.624,0-1.116.182-1.476.546-.36.364-.54.886-.54,1.565v3.276h-1.152v-6.36h1.104v.96c.231-.327.546-.579.941-.756.396-.176.846-.264,1.351-.264.808,0,1.45.234,1.926.702Z" fill="#1d1d1b" stroke-width="0"/>
    <path d="M270.681,105.988c-.168.145-.376.254-.624.33s-.504.114-.768.114c-.64,0-1.136-.172-1.488-.517-.353-.344-.528-.836-.528-1.476v-3.492h-1.08v-.948h1.08v-1.392h1.152v1.392h1.824v.948h-1.824v3.444c0,.344.086.607.258.792.172.184.418.275.738.275.352,0,.652-.1.9-.3l.36.828Z" fill="#1d1d1b" stroke-width="0"/>
    <path d="M276.411,100.588c.468.433.702,1.076.702,1.933v3.84h-1.092v-.84c-.192.296-.466.521-.822.678s-.778.234-1.266.234c-.712,0-1.282-.172-1.71-.517-.428-.344-.642-.796-.642-1.355s.204-1.01.611-1.351c.408-.34,1.057-.51,1.944-.51h1.824v-.228c0-.496-.145-.876-.432-1.141-.288-.264-.712-.396-1.272-.396-.376,0-.744.062-1.104.186s-.665.29-.912.498l-.48-.863c.328-.265.72-.467,1.176-.606s.94-.21,1.452-.21c.88,0,1.554.216,2.022.647ZM275.265,105.25c.32-.195.552-.474.696-.834v-.888h-1.776c-.976,0-1.464.328-1.464.984,0,.319.124.571.372.756.248.184.592.275,1.032.275s.819-.098,1.14-.294Z" fill="#1d1d1b" stroke-width="0"/>
    <path d="M280.323,106.012c-.508-.28-.906-.666-1.194-1.158s-.432-1.05-.432-1.674.144-1.183.432-1.674c.288-.492.686-.877,1.194-1.152.508-.276,1.086-.414,1.734-.414.576,0,1.09.116,1.542.348.452.232.802.568,1.05,1.008l-.876.564c-.2-.304-.448-.532-.744-.684-.296-.152-.624-.229-.984-.229-.416,0-.791.092-1.122.276-.332.184-.592.446-.78.786-.188.34-.282.729-.282,1.17,0,.448.094.842.282,1.182.188.34.448.603.78.786.332.184.706.276,1.122.276.36,0,.688-.076.984-.229.296-.151.544-.38.744-.684l.876.552c-.248.44-.598.778-1.05,1.014-.452.236-.966.354-1.542.354-.648,0-1.227-.141-1.734-.42Z" fill="#1d1d1b" stroke-width="0"/>
    <path d="M289.797,105.988c-.168.145-.376.254-.624.33s-.504.114-.768.114c-.64,0-1.136-.172-1.488-.517-.352-.344-.528-.836-.528-1.476v-3.492h-1.08v-.948h1.08v-1.392h1.152v1.392h1.824v.948h-1.824v3.444c0,.344.085.607.258.792.172.184.418.275.738.275.353,0,.652-.1.9-.3l.36.828Z" fill="#1d1d1b" stroke-width="0"/>
    <path d="M299.229,98.542c.848.444,1.51,1.066,1.985,1.866.477.8.714,1.712.714,2.736s-.188,1.828-.564,2.412-.9.876-1.572.876c-.384,0-.702-.098-.954-.294s-.414-.479-.485-.847c-.24.368-.555.65-.942.847-.388.196-.834.294-1.338.294-.56,0-1.064-.132-1.512-.396-.448-.264-.798-.63-1.05-1.098s-.378-.998-.378-1.59c0-.584.126-1.11.378-1.578s.602-.832,1.05-1.092c.447-.26.952-.391,1.512-.391.464,0,.884.086,1.26.258.376.173.688.427.937.763v-.973h1.044v4.32c0,.296.063.515.191.654s.292.21.492.21c.352,0,.626-.206.822-.618.196-.412.294-.994.294-1.746,0-.888-.2-1.67-.6-2.346s-.962-1.202-1.686-1.578c-.724-.376-1.554-.564-2.49-.564-.944,0-1.778.196-2.502.589-.724.392-1.286.939-1.686,1.644-.4.704-.601,1.508-.601,2.412,0,.912.198,1.72.594,2.424s.952,1.254,1.668,1.65c.716.396,1.542.594,2.478.594.392,0,.792-.044,1.2-.132.408-.089.78-.221,1.116-.396l.264.769c-.352.184-.76.323-1.224.42-.464.096-.917.144-1.356.144-1.096,0-2.07-.233-2.922-.702-.852-.468-1.514-1.118-1.986-1.949-.472-.832-.708-1.772-.708-2.82s.238-1.984.714-2.809c.476-.823,1.144-1.468,2.004-1.932s1.842-.696,2.946-.696c1.08,0,2.044.223,2.893.666ZM297.29,105.232c.308-.176.552-.426.732-.75.18-.324.27-.702.27-1.134s-.09-.811-.27-1.135c-.18-.323-.424-.571-.732-.743-.308-.172-.658-.259-1.05-.259-.608,0-1.1.194-1.476.582-.376.389-.564.906-.564,1.555s.19,1.168.57,1.56c.38.393.87.588,1.47.588.392,0,.742-.088,1.05-.264Z" fill="#1d1d1b" stroke-width="0"/>
    <path d="M306.069,103.396l-1.32,1.224v1.74h-1.152v-8.904h1.152v5.712l3.468-3.168h1.393l-2.676,2.628,2.94,3.732h-1.416l-2.388-2.964Z" fill="#1d1d1b" stroke-width="0"/>
    <path d="M316.449,103.564h-5.16c.072.56.318,1.01.738,1.35.42.341.942.511,1.566.511.76,0,1.372-.257,1.836-.769l.636.744c-.288.336-.646.592-1.074.768-.428.177-.906.265-1.434.265-.672,0-1.269-.139-1.788-.414-.521-.276-.922-.662-1.206-1.158-.284-.496-.426-1.056-.426-1.68,0-.616.138-1.172.414-1.668s.656-.883,1.14-1.158c.484-.276,1.03-.414,1.638-.414s1.15.138,1.626.414c.476.275.848.662,1.116,1.158s.402,1.063.402,1.704c0,.088-.008.203-.024.348ZM311.943,101.416c-.372.336-.59.776-.654,1.32h4.08c-.064-.536-.282-.974-.654-1.314-.372-.34-.834-.51-1.386-.51s-1.014.168-1.386.504Z" fill="#1d1d1b" stroke-width="0"/>
    <path d="M320.06,100.228c.392-.192.868-.288,1.428-.288v1.116c-.064-.008-.152-.013-.264-.013-.624,0-1.114.187-1.47.559s-.534.902-.534,1.59v3.168h-1.151v-6.36h1.104v1.068c.2-.368.496-.648.888-.84Z" fill="#1d1d1b" stroke-width="0"/>
    <path d="M323.277,106.222c-.48-.141-.856-.318-1.128-.534l.479-.912c.28.2.62.36,1.021.48.399.119.804.18,1.212.18,1.008,0,1.512-.288,1.512-.864,0-.192-.068-.344-.204-.456-.136-.111-.306-.193-.51-.246-.204-.052-.494-.109-.87-.174-.512-.08-.93-.172-1.254-.276-.324-.104-.602-.279-.834-.527-.232-.248-.348-.596-.348-1.044,0-.576.24-1.038.72-1.387.479-.348,1.124-.521,1.932-.521.424,0,.848.052,1.272.156.424.104.771.244,1.044.42l-.492.912c-.521-.336-1.132-.504-1.836-.504-.488,0-.86.08-1.116.239-.256.16-.384.372-.384.637,0,.208.072.371.216.491.144.12.322.208.534.265.212.056.51.12.894.191.512.089.926.183,1.242.282.316.101.586.271.81.51.224.24.336.576.336,1.009,0,.575-.246,1.033-.738,1.373-.492.341-1.162.511-2.01.511-.521,0-1.021-.07-1.5-.21Z" fill="#1d1d1b" stroke-width="0"/>
    <path d="M332.54,105.988c-.168.145-.376.254-.624.33s-.504.114-.768.114c-.64,0-1.136-.172-1.488-.517-.353-.344-.528-.836-.528-1.476v-3.492h-1.08v-.948h1.08v-1.392h1.152v1.392h1.824v.948h-1.824v3.444c0,.344.086.607.258.792.172.184.418.275.738.275.352,0,.652-.1.9-.3l.36.828Z" fill="#1d1d1b" stroke-width="0"/>
    <path d="M333.951,98.56c-.148-.145-.223-.32-.223-.528s.074-.386.223-.534c.147-.147.333-.222.558-.222s.41.07.558.21.222.314.222.522c0,.216-.074.397-.222.546-.148.147-.334.222-.558.222s-.41-.072-.558-.216ZM333.932,100h1.152v6.36h-1.152v-6.36Z" fill="#1d1d1b" stroke-width="0"/>
    <path d="M338.318,106.012c-.508-.28-.905-.666-1.193-1.158s-.433-1.05-.433-1.674.145-1.183.433-1.674c.288-.492.686-.877,1.193-1.152.508-.276,1.086-.414,1.734-.414.576,0,1.09.116,1.542.348.452.232.802.568,1.05,1.008l-.876.564c-.2-.304-.448-.532-.744-.684-.296-.152-.624-.229-.983-.229-.416,0-.791.092-1.122.276-.332.184-.592.446-.78.786s-.282.729-.282,1.17c0,.448.094.842.282,1.182s.448.603.78.786c.332.184.706.276,1.122.276.359,0,.688-.076.983-.229.296-.151.544-.38.744-.684l.876.552c-.248.44-.598.778-1.05,1.014-.452.236-.966.354-1.542.354-.648,0-1.226-.141-1.734-.42Z" fill="#1d1d1b" stroke-width="0"/>
    <path d="M344.072,106.198c-.16-.156-.24-.354-.24-.594,0-.232.08-.426.24-.582.16-.156.352-.234.576-.234s.412.076.564.229c.152.151.228.348.228.588s-.078.438-.233.594c-.156.156-.342.234-.559.234-.224,0-.416-.078-.576-.234Z" fill="#1d1d1b" stroke-width="0"/>
    <path d="M347.99,106.012c-.508-.28-.905-.666-1.193-1.158s-.433-1.05-.433-1.674.145-1.183.433-1.674c.288-.492.686-.877,1.193-1.152.508-.276,1.086-.414,1.734-.414.576,0,1.09.116,1.542.348.452.232.802.568,1.05,1.008l-.876.564c-.2-.304-.448-.532-.744-.684-.296-.152-.624-.229-.983-.229-.416,0-.791.092-1.122.276-.332.184-.592.446-.78.786s-.282.729-.282,1.17c0,.448.094.842.282,1.182s.448.603.78.786c.332.184.706.276,1.122.276.359,0,.688-.076.983-.229.296-.151.544-.38.744-.684l.876.552c-.248.44-.598.778-1.05,1.014-.452.236-.966.354-1.542.354-.648,0-1.226-.141-1.734-.42Z" fill="#1d1d1b" stroke-width="0"/>
    <path d="M354.728,106.012c-.504-.28-.898-.666-1.182-1.158-.284-.492-.426-1.05-.426-1.674s.142-1.183.426-1.674c.284-.492.678-.877,1.182-1.152.504-.276,1.072-.414,1.704-.414s1.198.138,1.698.414c.5.275.892.66,1.176,1.152.284.491.426,1.05.426,1.674s-.142,1.182-.426,1.674-.676.878-1.176,1.158c-.5.279-1.066.42-1.698.42s-1.2-.141-1.704-.42ZM357.53,105.142c.324-.188.578-.452.762-.792.184-.34.275-.73.275-1.17s-.092-.83-.275-1.17c-.185-.34-.438-.603-.762-.786-.324-.185-.69-.276-1.098-.276s-.774.092-1.098.276c-.324.184-.58.446-.769.786-.188.34-.282.729-.282,1.17s.094.83.282,1.17c.188.34.444.604.769.792.324.188.689.282,1.098.282s.774-.095,1.098-.282Z" fill="#1d1d1b" stroke-width="0"/>
    <path d="M371.186,100.636c.468.464.702,1.151.702,2.063v3.66h-1.152v-3.528c0-.615-.142-1.08-.426-1.392-.284-.312-.69-.468-1.218-.468-.584,0-1.048.182-1.392.546-.344.364-.516.886-.516,1.565v3.276h-1.152v-3.528c0-.615-.142-1.08-.426-1.392-.284-.312-.69-.468-1.218-.468-.584,0-1.048.182-1.392.546-.344.364-.516.886-.516,1.565v3.276h-1.152v-6.36h1.104v.948c.232-.328.536-.578.912-.75s.804-.258,1.284-.258c.496,0,.936.1,1.319.3.384.2.68.492.889.876.24-.368.573-.655,1.002-.864.428-.208.91-.312,1.446-.312.8,0,1.434.232,1.902.696Z" fill="#1d1d1b" stroke-width="0"/>
    <path d="M245.697,123.97c-.528-.34-.944-.836-1.248-1.488s-.456-1.426-.456-2.322.151-1.67.456-2.322c.304-.651.72-1.147,1.248-1.487s1.128-.51,1.8-.51,1.273.17,1.806.51.95.836,1.254,1.487c.304.652.456,1.427.456,2.322s-.152,1.67-.456,2.322c-.304.652-.722,1.148-1.254,1.488s-1.134.51-1.806.51-1.272-.17-1.8-.51ZM248.919,122.38c.348-.495.522-1.235.522-2.22s-.174-1.724-.522-2.22c-.348-.496-.822-.744-1.422-.744-.592,0-1.062.248-1.41.744-.348.496-.522,1.236-.522,2.22s.174,1.725.522,2.22c.348.497.818.744,1.41.744.6,0,1.074-.247,1.422-.744Z" fill="#1d1d1b" stroke-width="0"/>
    <path d="M257.373,119.494c.439.212.784.515,1.032.906.248.392.372.844.372,1.356,0,.544-.136,1.021-.408,1.434s-.64.73-1.104.954-.984.336-1.56.336c-1.152,0-2.046-.36-2.683-1.08-.636-.72-.954-1.752-.954-3.096,0-.944.172-1.75.516-2.418.344-.668.826-1.177,1.446-1.524.62-.348,1.338-.521,2.154-.521.432,0,.838.046,1.218.138.38.092.709.226.99.401l-.576,1.177c-.416-.272-.948-.408-1.596-.408-.808,0-1.44.248-1.896.744s-.684,1.212-.684,2.147v.013c.248-.288.564-.506.948-.654s.816-.222,1.296-.222c.552,0,1.048.105,1.488.317ZM256.809,122.866c.304-.26.456-.605.456-1.038,0-.439-.152-.788-.456-1.044-.304-.256-.712-.384-1.224-.384-.504,0-.914.136-1.23.408-.316.271-.474.616-.474,1.032,0,.407.154.745.462,1.014.308.268.734.402,1.278.402.487,0,.884-.131,1.188-.391Z" fill="#1d1d1b" stroke-width="0"/>
    <path d="M269.241,115.96v1.044l-3.264,7.356h-1.668l3.156-7.08h-3.3v1.428h-1.452v-2.748h6.528Z" fill="#1d1d1b" stroke-width="0"/>
    <path d="M273.225,115.96v8.4h-1.56v-7.092h-1.776v-1.309h3.336Z" fill="#1d1d1b" stroke-width="0"/>
    <path d="M279.909,123.97c-.528-.34-.944-.836-1.248-1.488-.304-.652-.456-1.426-.456-2.322s.152-1.67.456-2.322c.304-.651.72-1.147,1.248-1.487.528-.34,1.128-.51,1.8-.51s1.274.17,1.806.51c.532.34.95.836,1.254,1.487.304.652.456,1.427.456,2.322s-.152,1.67-.456,2.322-.722,1.148-1.254,1.488c-.532.34-1.134.51-1.806.51s-1.272-.17-1.8-.51ZM283.13,122.38c.348-.495.522-1.235.522-2.22s-.174-1.724-.522-2.22c-.348-.496-.822-.744-1.422-.744-.592,0-1.062.248-1.41.744-.348.496-.521,1.236-.521,2.22s.174,1.725.521,2.22c.348.497.818.744,1.41.744.6,0,1.074-.247,1.422-.744Z" fill="#1d1d1b" stroke-width="0"/>
    <path d="M292.305,123.04v1.32h-6.192v-1.044l3.336-3.168c.376-.36.63-.674.762-.942.132-.268.198-.534.198-.798,0-.392-.132-.691-.396-.899s-.652-.312-1.164-.312c-.856,0-1.512.292-1.968.876l-1.092-.84c.328-.44.77-.782,1.326-1.026.556-.243,1.178-.365,1.866-.365.912,0,1.64.216,2.184.647s.816,1.021.816,1.764c0,.456-.097.885-.288,1.284-.192.4-.561.856-1.104,1.368l-2.244,2.136h3.96Z" fill="#1d1d1b" stroke-width="0"/>
    <path d="M299.42,115.96v8.4h-1.56v-7.092h-1.776v-1.309h3.336Z" fill="#1d1d1b" stroke-width="0"/>
    <path d="M306.392,119.494c.44.212.784.515,1.032.906.248.392.372.844.372,1.356,0,.544-.137,1.021-.408,1.434-.272.412-.64.73-1.104.954-.464.224-.984.336-1.56.336-1.152,0-2.046-.36-2.682-1.08s-.954-1.752-.954-3.096c0-.944.172-1.75.516-2.418s.826-1.177,1.446-1.524c.62-.348,1.338-.521,2.154-.521.432,0,.838.046,1.218.138.38.092.709.226.99.401l-.576,1.177c-.416-.272-.948-.408-1.596-.408-.808,0-1.439.248-1.896.744s-.684,1.212-.684,2.147v.013c.248-.288.564-.506.948-.654s.816-.222,1.296-.222c.552,0,1.048.105,1.488.317ZM305.828,122.866c.304-.26.456-.605.456-1.038,0-.439-.152-.788-.456-1.044s-.712-.384-1.224-.384c-.504,0-.914.136-1.23.408-.316.271-.474.616-.474,1.032,0,.407.154.745.462,1.014.308.268.734.402,1.278.402.488,0,.884-.131,1.188-.391Z" fill="#1d1d1b" stroke-width="0"/>
    <path d="M319.412,122.452h-1.488v1.908h-1.512v-1.908h-4.608v-1.08l4.14-5.412h1.668l-3.9,5.173h2.748v-1.692h1.464v1.692h1.488v1.319Z" fill="#1d1d1b" stroke-width="0"/>
    <path d="M325.304,120.22c.408.432.612.972.612,1.62,0,.487-.124.932-.372,1.331-.249.4-.623.719-1.122.954-.5.236-1.11.354-1.83.354-.6,0-1.178-.086-1.734-.258-.556-.172-1.03-.41-1.422-.714l.672-1.213c.304.257.674.459,1.11.606.436.148.886.222,1.35.222.552,0,.986-.113,1.302-.342.316-.228.474-.538.474-.93s-.15-.698-.45-.918c-.3-.22-.758-.33-1.374-.33h-.769v-1.068l1.908-2.268h-3.816v-1.309h5.724v1.044l-2.04,2.425c.776.096,1.368.359,1.776.792Z" fill="#1d1d1b" stroke-width="0"/>
  </g>
  <rect x="233.478" y="0" width="2" height="150" fill="#272824" stroke-width="0"/>
  <rect y="0" width="522" height="150" fill="none" stroke-width="0"/>
</svg>