<?xml version="1.0" encoding="UTF-8"?>
<svg id="Calque_1" data-name="Calque 1" xmlns="http://www.w3.org/2000/svg" version="1.1" xmlns:xlink="http://www.w3.org/1999/xlink" viewBox="0 0 522 150">
  <defs>
    <linearGradient id="linear-gradient" x1="41.124" y1="89.8" x2="42.614" y2="89.8" gradientUnits="userSpaceOnUse">
      <stop offset="0" stop-color="#ffef26"/>
      <stop offset=".058" stop-color="#fcdc26"/>
      <stop offset=".234" stop-color="#f4a828"/>
      <stop offset=".406" stop-color="#ee7d2a"/>
      <stop offset=".572" stop-color="#e95c2b"/>
      <stop offset=".73" stop-color="#e5442c"/>
      <stop offset=".876" stop-color="#e3352c"/>
      <stop offset="1" stop-color="#e3312d"/>
    </linearGradient>
    <linearGradient id="linear-gradient-2" x1="21.285" y1="85.299" x2="39.031" y2="85.299" xlink:href="#linear-gradient"/>
    <linearGradient id="linear-gradient-3" x1="34.499" y1="87.106" x2="41.125" y2="87.106" xlink:href="#linear-gradient"/>
    <linearGradient id="linear-gradient-4" x1="30.916" y1="80.815" x2="43.449" y2="80.815" xlink:href="#linear-gradient"/>
  </defs>
  <g>
    <g>
      <path d="M37.627,90.395c.019.143.038.287.061.427-.003-.107-.004-.214-.005-.321-.019-.035-.037-.071-.056-.106Z" fill="#95c11f" stroke-width="0"/>
      <path d="M42.322,93.683c.022-1.003.11-2.012.195-2.988.026-.301.052-.602.077-.902.147-1.819-.513-3.446-1.47-4.972.129.766.155,1.557.134,2.398-.009.337-.02.675-.032,1.012-.03.886.214,1.803.241,2.693.042,1.396.345,2.683.905,3.853-.041-.364-.057-.729-.049-1.095Z" fill="url(#linear-gradient)" stroke-width="0"/>
      <path d="M22.724,72.386c-.101-.031-.202-.062-.304-.094-.384-.119-.76-.236-1.135-.322,1.076.843,2.061,1.827,2.943,2.941,1.367,1.727,1.97,3.829,2.491,6.617.264,1.412.486,2.852.7,4.245.21,1.362.702,2.771.958,4.145.46,2.477,1.434,4.351,2.978,5.729,2.199,1.962,4.862,2.62,7.676,2.982-.941-.663-1.747-1.412-2.334-2.016-.235-.236-.462-.484-.674-.733-.134-.155-.21-.25-.213-.254l-.084-.112c-1.374-1.743-2.55-3.826-2.954-6.193-.236-1.384-.417-2.795-.593-4.16-.123-.954-.249-1.941-.393-2.906-.306-2.048-.582-3.626-1.461-4.969-1.858-2.836-4.751-4.031-7.601-4.899Z" fill="url(#linear-gradient-2)" stroke-width="0"/>
      <path d="M38.305,84.216c-.45-2.585-1.466-4.57-3.806-6.189.779,1.227.962,2.612,1.112,4.177.077.807.143,1.626.206,2.419.081,1.016.165,2.067.274,3.094.363,3.418,2.202,6.239,4.922,8.384.036.029.074.056.112.084-1.269-2.054-2.234-4.465-2.371-7.298-.073-1.505-.177-3.113-.449-4.672Z" fill="url(#linear-gradient-3)" stroke-width="0"/>
      <path d="M34.863,76.935c1.509.925,6.187,4.785,7.674,7.602.409.705.713,1.431.913,2.186-.15-3.936-3.095-7.896-6.469-9.526-1.661-.803-3.461-1.316-5.193-1.974-.289-.11-.58-.214-.872-.315,0,0,.484.188,1.267.564.995.451,1.888.937,2.68,1.463Z" fill="url(#linear-gradient-4)" stroke-width="0"/>
      <path d="M32.182,75.471c-.782-.376-1.267-.564-1.267-.564l1.087.482c.061.027.119.055.179.082Z" fill="#95c11f" stroke-width="0"/>
      <path d="M24.19,94.234c-6.847-8.144-3.751-16.961-3.751-16.961-2.534,5.324-2.597,10.57-.028,15.735,2.612,5.25,6.944,8.359,12.635,9.656.853.194,1.112-.031,1.148-.873.004-.093.006-.184.007-.276-.246-.087-.488-.178-.73-.273.427.149.73.273.73.273-2.179-1.013-4.039-2.109-5.627-3.257-1.787-1.292-3.228-2.648-4.384-4.024Z" fill="#95c11f" stroke-width="0"/>
      <path d="M45.639,85.596c2.161-1.938,4.764-2.398,7.437-2.72,1.247-.15,2.293-.315,1.842-2.285-.601-2.625-1.526-5.079-2.754-7.406-.001.009-.003.019-.005.028-.088.556-.172,1.096-.269,1.632-.067.37-.3.608-.672.696-.359.085-.649-.037-.875-.312-.218-.266-.209-.573-.142-.893.12-.569.238-1.139.355-1.708.111-.541.222-1.083.332-1.625.001-.007.003-.014.005-.021-1.025-1.672-2.105-3.309-3.206-4.938-.021.067-.018.14-.031.203-.204.977-.406,1.954-.608,2.931-.131.631-.261,1.261-.395,1.891-.006.029-.012.057-.018.086-.03.143-.026.268.008.388.026.093.07.183.133.276.636.94,1.258,1.89,1.879,2.84.35.535.288,1.038-.151,1.339-.447.306-.971.162-1.335-.377-.342-.507-.675-1.02-1.012-1.531-.187.062-.16.218-.185.336-.146.685-.277,1.374-.429,2.058-.13.59-.543.881-1.059.773-.509-.106-.775-.554-.66-1.135.16-.802.331-1.601.526-2.538-.657.434-1.203.806-1.762,1.16-.616.389-1.311.116-1.421-.552-.073-.444.164-.732.512-.961.961-.631,1.919-1.267,2.881-1.899.165-.108.297-.216.341-.436.019-.093.038-.187.057-.28.249-1.239.503-2.476.758-3.713.081-.394.162-.788.243-1.182.011-.054.002-.112.003-.171-.19-.034-.29.1-.406.177-1.361.893-2.715,1.797-4.082,2.682-.174.113-.281.242-.35.405-.03.071-.053.147-.069.233-.138.71-.283,1.418-.431,2.126-.081.388-.162.777-.244,1.165-.135.638-.563.968-1.086.854-.527-.115-.768-.578-.631-1.231.105-.504.216-1.006.323-1.5.02-.091.04-.183.059-.273-.19-.116-.268.014-.356.071-.002.001-.004.002-.005.003-.613.396-1.217.806-1.831,1.2-.463.297-.996.206-1.269-.199-.276-.41-.161-.94.294-1.248.462-.313.93-.621,1.412-.937.238-.156.479-.314.726-.478-.365-.192-.706-.206-1.029-.277-.126-.028-.253-.053-.379-.078-.195-.039-.391-.078-.585-.123-.545-.125-.85-.543-.761-1.033.041-.227.163-.413.337-.54.205-.149.482-.214.783-.155.79.154,1.58.315,2.368.482.322.068.644.134.965.206.334.075.591.017.873-.173.137-.092.275-.184.412-.276,1.178-.789,2.365-1.565,3.547-2.347.13-.086.283-.152.414-.395-.562-.099-1.072-.178-1.578-.28-1.229-.247-2.457-.496-3.681-.762-.165-.036-.308-.034-.446.005-.102.028-.201.076-.303.145-.545.369-1.093.733-1.643,1.094-.399.262-.798.523-1.197.784-.43.281-.846.277-1.141.014-.056-.05-.108-.108-.154-.176-.179-.262-.202-.548-.082-.81.081-.178.228-.345.438-.486.532-.356,1.067-.706,1.64-1.083-.223-.163-.452-.155-.658-.201-.537-.12-1.078-.225-1.617-.335-.017-.003-.033-.007-.05-.01-.701-.143-1.031-.526-.929-1.074.095-.509.504-.752,1.124-.677.056.007.114.015.174.027.629.127,1.257.257,1.886.384.067.013.135.023.226.035.064.008.138.018.232.031-.066-.1-.13-.196-.193-.292-.33-.496-.632-.947-.923-1.404-.293-.462-.248-.911.098-1.218.443-.394,1.009-.304,1.374.24.038.057.076.115.114.172.61.911,1.209,1.829,1.814,2.743.022.033.043.067.065.099.073.108.156.204.32.237,1.724.346,3.445.706,5.167,1.062-1.096-1.609-2.187-3.231-3.239-4.891-.208-.04-.415-.083-.623-.124-.888-.175-1.775-.357-2.661-.538-.026-.005-.05-.012-.074-.018-.605-.149-.906-.542-.803-1.053.106-.526.579-.792,1.215-.658.239.05.477.105.715.16.333.077.666.155.998.233-.984-1.639-1.921-3.324-2.781-5.077-3.197,6.592-7.366,12.166-11.29,17.886-1.305,1.903-.67,2.689,1.007,3.573,2.835,1.493,5.965,2.154,8.913,3.325,4.85,1.927,8.482,4.891,9.225,10.62Z" fill="#09537c" stroke-width="0"/>
      <path d="M44.808,90.009q2.892-2.152,3.847-2.085c-2.272,2.019-4.01,4.278-4.327,7.627,1.657-1.622,3.653-2.1,5.552-2.806,4.168-1.548,6.923-5.678,6.885-10.486-1.656,2.239-3.915,2.719-6.349,3.034-3.095.401-5.179,2.303-5.608,4.714Z" fill="#95c11f" stroke-width="0"/>
      <path d="M41.571,101.515c0,.091.003.183.007.276.036.842.295,1.068,1.148.873,5.691-1.297,10.024-4.406,12.635-9.656,1.271-2.554,1.896-5.128,1.899-7.721,0,0-1.627,11.781-15.689,16.228Z" fill="#95c11f" stroke-width="0"/>
    </g>
    <g>
      <rect x="151.006" y="74.743" width="11.165" height="3.109" fill="#95c11f" stroke-width="0"/>
      <path d="M77.581,66.515c-.28-.212-.625-.319-1.026-.319s-.749.107-1.038.319c-.282.207-.529.492-.734.845l-11.467,19.093h4.177l8.926-15.093,4.236,7.112h-5.953l-1.748,3h9.478l2.938,4.933.029.048h4.394l-11.493-19.092c-.205-.354-.448-.638-.72-.846Z" fill="#09537c" stroke-width="0"/>
      <path d="M108.193,77.617c0,.982-.122,1.832-.362,2.526-.238.687-.63,1.258-1.167,1.698-.54.442-1.272.77-2.178.973-.914.206-2.061.311-3.408.311s-2.494-.105-3.408-.311c-.906-.204-1.638-.531-2.177-.973-.536-.439-.929-1.01-1.167-1.698-.24-.694-.362-1.544-.362-2.526v-11.149h-3.762v11.149c0,1.529.203,2.882.604,4.02.403,1.145,1.044,2.107,1.906,2.859.86.75,1.986,1.316,3.346,1.681,1.354.363,3.007.548,4.911.548,1.922,0,3.584-.184,4.938-.548,1.36-.365,2.486-.931,3.346-1.681.862-.752,1.503-1.713,1.906-2.859.401-1.14.604-2.492.604-4.02v-11.149h-3.572v11.149Z" fill="#09537c" stroke-width="0"/>
      <path d="M135.591,66.223c-.82,0-1.409.414-1.751,1.23l-6.007,13.783-6.006-13.782c-.171-.398-.426-.706-.76-.916-.333-.209-.694-.314-1.073-.314-.954,0-1.563.501-1.81,1.488l-5.089,18.617-.034.124h3.606l3.729-13.71,5.467,12.615c.378.907,1.004,1.367,1.861,1.367.438,0,.811-.122,1.11-.362.291-.234.542-.571.75-1.004l5.495-12.617,3.71,13.638.02.073h3.633l-5.096-18.743c-.285-.986-.875-1.486-1.755-1.486Z" fill="#09537c" stroke-width="0"/>
      <polygon points="148.672 70.122 162.907 70.122 162.907 66.468 145.045 66.468 145.045 86.453 162.934 86.453 162.934 82.799 148.672 82.799 148.672 70.122" fill="#09537c" stroke-width="0"/>
      <path d="M186.747,77.983c.724-1.127,1.091-2.541,1.091-4.204,0-1.114-.167-2.133-.496-3.028-.33-.898-.814-1.675-1.438-2.308-.623-.633-1.396-1.126-2.294-1.465-.897-.339-1.925-.51-3.056-.51h-14.306v19.984h3.626v-16.331h10.68c1.166,0,2.082.307,2.722.912.639.604.963,1.546.963,2.8s-.312,2.227-.926,2.886c-.613.656-1.541.989-2.759.989h-8.345v3.245h7.458l5.008,5.498h5.179l-6.022-6.077c1.236-.5,2.216-1.304,2.915-2.392Z" fill="#09537c" stroke-width="0"/>
      <path d="M205.434,67.361c-.205-.354-.447-.638-.72-.846-.28-.212-.625-.319-1.026-.319s-.749.107-1.038.319c-.283.207-.53.492-.734.845l-11.377,18.944-.09.149h4.177l8.926-15.093,4.236,7.112h-5.953l-1.748,3h9.478l2.938,4.933.029.048h4.394l-11.493-19.092Z" fill="#09537c" stroke-width="0"/>
    </g>
  </g>
  <g>
    <g>
      <path d="M264.713,23.092h-4.9l-.966,2.268h-1.876l4.41-9.8h1.792l4.424,9.8h-1.903l-.98-2.268ZM264.112,21.663l-1.849-4.284-1.834,4.284h3.683Z" fill="#1d1d1b" stroke-width="0"/>
      <path d="M269.683,24.359c-.756-.761-1.134-1.851-1.134-3.269v-5.53h1.82v5.46c0,1.923.83,2.884,2.492,2.884,1.652,0,2.478-.961,2.478-2.884v-5.46h1.792v5.53c0,1.418-.376,2.508-1.127,3.269-.751.761-1.804,1.141-3.157,1.141s-2.408-.38-3.164-1.141Z" fill="#1d1d1b" stroke-width="0"/>
      <path d="M288.681,25.36l-.014-6.496-3.22,5.376h-.812l-3.22-5.292v6.412h-1.736v-9.8h1.498l3.892,6.496,3.822-6.496h1.498l.014,9.8h-1.722Z" fill="#1d1d1b" stroke-width="0"/>
      <path d="M300.399,23.833v1.526h-7.35v-9.8h7.154v1.525h-5.334v2.549h4.732v1.498h-4.732v2.701h5.53Z" fill="#1d1d1b" stroke-width="0"/>
      <path d="M308.841,25.36l-2.002-2.87c-.084.01-.21.014-.378.014h-2.212v2.856h-1.82v-9.8h4.032c.849,0,1.589.14,2.219.42s1.113.682,1.449,1.204c.336.522.504,1.144.504,1.861,0,.738-.18,1.372-.539,1.904-.359.532-.875.929-1.547,1.19l2.254,3.22h-1.96ZM308.183,17.604c-.411-.336-1.013-.504-1.806-.504h-2.128v3.906h2.128c.793,0,1.395-.171,1.806-.512.411-.341.616-.823.616-1.449s-.206-1.105-.616-1.441Z" fill="#1d1d1b" stroke-width="0"/>
      <path d="M319.019,23.092h-4.9l-.966,2.268h-1.876l4.41-9.8h1.792l4.424,9.8h-1.904l-.98-2.268ZM318.417,21.663l-1.848-4.284-1.834,4.284h3.682Z" fill="#1d1d1b" stroke-width="0"/>
      <path d="M326.466,20.74h3.851v1.456h-3.851v-1.456Z" fill="#1d1d1b" stroke-width="0"/>
      <path d="M343.506,16.959l-3.684,8.4h-1.188l-3.696-8.4h1.296l3.024,6.9,3.048-6.9h1.2Z" fill="#1d1d1b" stroke-width="0"/>
      <path d="M344.946,25.012c-.504-.28-.898-.666-1.182-1.158s-.426-1.05-.426-1.674.142-1.183.426-1.674c.284-.492.678-.877,1.182-1.152.504-.276,1.072-.414,1.704-.414s1.198.138,1.698.414c.5.275.892.66,1.176,1.152.284.491.426,1.05.426,1.674s-.142,1.182-.426,1.674c-.284.492-.676.878-1.176,1.158-.5.279-1.066.42-1.698.42s-1.2-.141-1.704-.42ZM347.748,24.142c.324-.188.578-.452.762-.792.184-.34.276-.73.276-1.17s-.092-.83-.276-1.17c-.184-.34-.438-.603-.762-.786-.324-.185-.69-.276-1.099-.276s-.773.092-1.098.276c-.324.184-.58.446-.768.786s-.282.729-.282,1.17.094.83.282,1.17.444.604.768.792c.324.188.69.282,1.098.282s.774-.095,1.099-.282Z" fill="#1d1d1b" stroke-width="0"/>
      <path d="M355.122,24.988c-.168.145-.376.254-.624.33s-.504.114-.768.114c-.64,0-1.136-.172-1.488-.517-.352-.344-.528-.836-.528-1.476v-3.492h-1.08v-.948h1.08v-1.392h1.152v1.392h1.824v.948h-1.824v3.444c0,.344.085.607.258.792.172.184.418.275.738.275.353,0,.652-.1.9-.3l.36.828Z" fill="#1d1d1b" stroke-width="0"/>
      <path d="M358.506,19.228c.392-.192.868-.288,1.428-.288v1.116c-.064-.008-.152-.013-.264-.013-.624,0-1.114.187-1.47.559s-.534.902-.534,1.59v3.168h-1.151v-6.36h1.104v1.068c.2-.368.496-.648.888-.84Z" fill="#1d1d1b" stroke-width="0"/>
      <path d="M367.014,22.564h-5.16c.072.56.318,1.01.738,1.35.42.341.941.511,1.565.511.76,0,1.372-.257,1.836-.769l.636.744c-.288.336-.646.592-1.074.768-.428.177-.906.265-1.434.265-.672,0-1.268-.139-1.788-.414-.52-.276-.922-.662-1.206-1.158s-.426-1.056-.426-1.68c0-.616.139-1.172.414-1.668.276-.496.656-.883,1.141-1.158.483-.276,1.029-.414,1.638-.414s1.15.138,1.626.414c.476.275.848.662,1.116,1.158.268.496.402,1.063.402,1.704,0,.088-.008.203-.024.348ZM362.508,20.415c-.372.336-.59.776-.654,1.32h4.08c-.064-.536-.282-.974-.654-1.314-.372-.34-.834-.51-1.386-.51s-1.014.168-1.386.504Z" fill="#1d1d1b" stroke-width="0"/>
      <path d="M376.89,19.348c.488.271.87.651,1.146,1.14s.414,1.052.414,1.692-.138,1.206-.414,1.697c-.276.492-.658.875-1.146,1.146-.488.272-1.04.408-1.656.408-.456,0-.874-.088-1.254-.265-.38-.176-.702-.432-.966-.768v3.288h-1.152v-8.688h1.104v1.009c.256-.353.58-.618.972-.799.392-.18.824-.27,1.296-.27.616,0,1.168.136,1.656.408ZM376.236,24.142c.324-.188.58-.452.768-.792s.282-.73.282-1.17-.094-.83-.282-1.17-.444-.603-.768-.786c-.324-.185-.69-.276-1.098-.276-.4,0-.762.094-1.086.282-.324.188-.58.45-.769.786-.188.336-.282.724-.282,1.164s.092.83.276,1.17c.184.34.44.604.768.792.328.188.692.282,1.092.282.408,0,.774-.095,1.098-.282Z" fill="#1d1d1b" stroke-width="0"/>
      <path d="M384.324,19.587c.468.433.702,1.076.702,1.933v3.84h-1.092v-.84c-.192.296-.466.521-.822.678-.356.156-.778.234-1.266.234-.712,0-1.282-.172-1.71-.517-.428-.344-.642-.796-.642-1.355s.204-1.01.612-1.351c.408-.34,1.056-.51,1.944-.51h1.824v-.228c0-.496-.144-.876-.432-1.141-.288-.264-.712-.396-1.272-.396-.376,0-.744.062-1.104.186-.36.124-.664.29-.912.498l-.479-.863c.328-.265.72-.467,1.176-.606s.94-.21,1.452-.21c.88,0,1.554.216,2.021.647ZM383.178,24.249c.319-.195.552-.474.696-.834v-.888h-1.776c-.977,0-1.464.328-1.464.984,0,.319.124.571.372.756.248.184.592.275,1.032.275s.82-.098,1.14-.294Z" fill="#1d1d1b" stroke-width="0"/>
      <path d="M389.154,19.228c.392-.192.868-.288,1.428-.288v1.116c-.064-.008-.152-.013-.264-.013-.624,0-1.114.187-1.47.559-.356.372-.534.902-.534,1.59v3.168h-1.152v-6.36h1.104v1.068c.2-.368.496-.648.888-.84Z" fill="#1d1d1b" stroke-width="0"/>
      <path d="M395.837,24.988c-.168.145-.376.254-.624.33s-.504.114-.768.114c-.64,0-1.136-.172-1.488-.517-.352-.344-.528-.836-.528-1.476v-3.492h-1.08v-.948h1.08v-1.392h1.152v1.392h1.824v.948h-1.824v3.444c0,.344.086.607.258.792.172.184.418.275.738.275.352,0,.652-.1.9-.3l.359.828Z" fill="#1d1d1b" stroke-width="0"/>
      <path d="M402.738,22.564h-5.16c.072.56.318,1.01.738,1.35.42.341.941.511,1.565.511.76,0,1.372-.257,1.836-.769l.636.744c-.288.336-.646.592-1.074.768-.428.177-.906.265-1.434.265-.672,0-1.268-.139-1.788-.414-.52-.276-.922-.662-1.206-1.158s-.426-1.056-.426-1.68c0-.616.139-1.172.414-1.668.276-.496.656-.883,1.141-1.158.483-.276,1.029-.414,1.638-.414s1.15.138,1.626.414c.476.275.848.662,1.116,1.158.268.496.402,1.063.402,1.704,0,.088-.008.203-.024.348ZM398.232,20.415c-.372.336-.59.776-.654,1.32h4.08c-.064-.536-.282-.974-.654-1.314-.372-.34-.834-.51-1.386-.51s-1.014.168-1.386.504Z" fill="#1d1d1b" stroke-width="0"/>
      <path d="M409.68,19.642c.476.468.714,1.154.714,2.058v3.66h-1.152v-3.528c0-.615-.148-1.08-.444-1.392-.296-.312-.72-.468-1.271-.468-.624,0-1.116.182-1.477.546-.359.364-.54.886-.54,1.565v3.276h-1.151v-6.36h1.104v.96c.232-.327.546-.579.942-.756.396-.176.846-.264,1.35-.264.808,0,1.45.234,1.926.702Z" fill="#1d1d1b" stroke-width="0"/>
      <path d="M416.868,19.587c.468.433.702,1.076.702,1.933v3.84h-1.092v-.84c-.192.296-.466.521-.822.678-.356.156-.778.234-1.267.234-.712,0-1.282-.172-1.71-.517-.428-.344-.642-.796-.642-1.355s.204-1.01.612-1.351c.408-.34,1.056-.51,1.944-.51h1.824v-.228c0-.496-.144-.876-.432-1.141-.288-.264-.712-.396-1.272-.396-.376,0-.744.062-1.104.186-.36.124-.665.29-.912.498l-.48-.863c.328-.265.72-.467,1.176-.606s.94-.21,1.452-.21c.88,0,1.554.216,2.022.647ZM415.721,24.249c.32-.195.552-.474.696-.834v-.888h-1.776c-.976,0-1.464.328-1.464.984,0,.319.124.571.372.756.248.184.592.275,1.032.275s.82-.098,1.14-.294Z" fill="#1d1d1b" stroke-width="0"/>
      <path d="M419.723,17.56c-.148-.145-.222-.32-.222-.528s.074-.386.222-.534c.148-.147.333-.222.558-.222s.41.07.558.21c.148.14.222.314.222.522,0,.216-.074.397-.222.546-.148.147-.334.222-.558.222s-.41-.072-.558-.216ZM419.705,18.999h1.152v6.36h-1.152v-6.36Z" fill="#1d1d1b" stroke-width="0"/>
      <path d="M425.045,19.228c.392-.192.868-.288,1.428-.288v1.116c-.064-.008-.152-.013-.264-.013-.624,0-1.114.187-1.47.559-.356.372-.534.902-.534,1.59v3.168h-1.152v-6.36h1.104v1.068c.2-.368.496-.648.888-.84Z" fill="#1d1d1b" stroke-width="0"/>
      <path d="M433.553,22.564h-5.16c.072.56.318,1.01.738,1.35.42.341.942.511,1.566.511.76,0,1.372-.257,1.836-.769l.636.744c-.288.336-.646.592-1.074.768-.428.177-.906.265-1.434.265-.672,0-1.269-.139-1.788-.414-.521-.276-.922-.662-1.206-1.158-.284-.496-.426-1.056-.426-1.68,0-.616.138-1.172.414-1.668s.656-.883,1.14-1.158c.484-.276,1.03-.414,1.638-.414s1.15.138,1.626.414c.476.275.848.662,1.116,1.158s.402,1.063.402,1.704c0,.088-.008.203-.024.348ZM429.047,20.415c-.372.336-.59.776-.654,1.32h4.08c-.064-.536-.282-.974-.654-1.314-.372-.34-.834-.51-1.386-.51s-1.014.168-1.386.504Z" fill="#1d1d1b" stroke-width="0"/>
      <path d="M443.429,19.348c.488.271.87.651,1.146,1.14.275.488.414,1.052.414,1.692s-.138,1.206-.414,1.697c-.276.492-.658.875-1.146,1.146-.488.272-1.04.408-1.656.408-.456,0-.875-.088-1.254-.265-.38-.176-.702-.432-.966-.768v3.288h-1.152v-8.688h1.104v1.009c.256-.353.58-.618.972-.799.392-.18.824-.27,1.296-.27.616,0,1.167.136,1.656.408ZM442.775,24.142c.324-.188.58-.452.768-.792.188-.34.282-.73.282-1.17s-.095-.83-.282-1.17c-.188-.34-.444-.603-.768-.786-.324-.185-.69-.276-1.098-.276-.4,0-.762.094-1.086.282-.324.188-.58.45-.768.786s-.282.724-.282,1.164.092.83.276,1.17.44.604.768.792c.328.188.691.282,1.092.282.408,0,.774-.095,1.098-.282Z" fill="#1d1d1b" stroke-width="0"/>
      <path d="M446.585,16.455h1.151v8.904h-1.151v-8.904Z" fill="#1d1d1b" stroke-width="0"/>
      <path d="M450.953,25.012c-.504-.28-.898-.666-1.182-1.158s-.426-1.05-.426-1.674.142-1.183.426-1.674c.284-.492.678-.877,1.182-1.152.504-.276,1.072-.414,1.704-.414s1.198.138,1.698.414c.5.275.892.66,1.176,1.152.284.491.426,1.05.426,1.674s-.142,1.182-.426,1.674c-.284.492-.676.878-1.176,1.158-.5.279-1.066.42-1.698.42s-1.2-.141-1.704-.42ZM453.755,24.142c.324-.188.578-.452.762-.792.184-.34.276-.73.276-1.17s-.092-.83-.276-1.17c-.184-.34-.438-.603-.762-.786-.324-.185-.69-.276-1.099-.276s-.773.092-1.098.276c-.324.184-.58.446-.768.786s-.282.729-.282,1.17.094.83.282,1.17.444.604.768.792c.324.188.69.282,1.098.282s.774-.095,1.099-.282Z" fill="#1d1d1b" stroke-width="0"/>
      <path d="M467.411,19.636c.468.464.702,1.151.702,2.063v3.66h-1.152v-3.528c0-.615-.142-1.08-.426-1.392-.284-.312-.689-.468-1.218-.468-.584,0-1.048.182-1.392.546-.345.364-.517.886-.517,1.565v3.276h-1.152v-3.528c0-.615-.142-1.08-.426-1.392-.284-.312-.69-.468-1.218-.468-.584,0-1.048.182-1.392.546-.344.364-.517.886-.517,1.565v3.276h-1.151v-6.36h1.104v.948c.232-.328.536-.578.912-.75s.804-.258,1.284-.258c.496,0,.936.1,1.32.3s.68.492.888.876c.24-.368.574-.655,1.002-.864.428-.208.91-.312,1.446-.312.8,0,1.434.232,1.901.696Z" fill="#1d1d1b" stroke-width="0"/>
      <path d="M475.265,19.348c.488.271.87.651,1.146,1.14s.414,1.052.414,1.692-.138,1.206-.414,1.697c-.276.492-.658.875-1.146,1.146-.488.272-1.04.408-1.656.408-.472,0-.904-.092-1.296-.276-.392-.184-.716-.452-.972-.804v1.008h-1.104v-8.904h1.152v3.504c.256-.336.576-.59.96-.762s.804-.258,1.26-.258c.616,0,1.168.136,1.656.408ZM474.611,24.142c.324-.188.58-.452.768-.792s.282-.73.282-1.17-.094-.83-.282-1.17-.444-.603-.768-.786c-.324-.185-.69-.276-1.098-.276-.4,0-.764.092-1.092.276-.328.184-.584.446-.768.786-.184.34-.276.729-.276,1.17s.092.83.276,1.17c.184.34.44.604.768.792.328.188.692.282,1.092.282.408,0,.774-.095,1.098-.282Z" fill="#1d1d1b" stroke-width="0"/>
      <path d="M478.439,17.56c-.148-.145-.222-.32-.222-.528s.074-.386.222-.534c.148-.147.334-.222.558-.222s.41.07.559.21c.147.14.222.314.222.522,0,.216-.074.397-.222.546-.148.147-.334.222-.559.222s-.41-.072-.558-.216ZM478.421,18.999h1.152v6.36h-1.152v-6.36Z" fill="#1d1d1b" stroke-width="0"/>
      <path d="M487.493,22.564h-5.16c.072.56.318,1.01.738,1.35.42.341.942.511,1.566.511.76,0,1.372-.257,1.836-.769l.636.744c-.288.336-.646.592-1.074.768-.428.177-.906.265-1.434.265-.672,0-1.269-.139-1.788-.414-.521-.276-.922-.662-1.206-1.158-.284-.496-.426-1.056-.426-1.68,0-.616.138-1.172.414-1.668s.656-.883,1.14-1.158c.484-.276,1.03-.414,1.638-.414s1.15.138,1.626.414c.476.275.848.662,1.116,1.158s.402,1.063.402,1.704c0,.088-.008.203-.024.348ZM482.987,20.415c-.372.336-.59.776-.654,1.32h4.08c-.064-.536-.282-.974-.654-1.314-.372-.34-.834-.51-1.386-.51s-1.014.168-1.386.504Z" fill="#1d1d1b" stroke-width="0"/>
      <path d="M491.105,19.228c.392-.192.868-.288,1.428-.288v1.116c-.064-.008-.152-.013-.264-.013-.624,0-1.114.187-1.47.559s-.534.902-.534,1.59v3.168h-1.152v-6.36h1.104v1.068c.2-.368.496-.648.888-.84Z" fill="#1d1d1b" stroke-width="0"/>
      <path d="M259.784,42.898c-.676-.372-1.206-.884-1.59-1.536-.384-.652-.576-1.386-.576-2.202s.192-1.55.576-2.202c.384-.651.916-1.164,1.596-1.536.68-.371,1.44-.558,2.28-.558.655,0,1.256.11,1.8.33s1.008.546,1.392.978l-.78.757c-.632-.664-1.42-.996-2.364-.996-.624,0-1.188.14-1.692.42s-.898.666-1.182,1.158c-.284.491-.426,1.042-.426,1.649s.142,1.158.426,1.65c.284.492.678.878,1.182,1.158.504.279,1.068.42,1.692.42.936,0,1.724-.336,2.364-1.009l.78.757c-.384.432-.85.76-1.397.983-.548.225-1.15.336-1.806.336-.84,0-1.598-.186-2.274-.558Z" fill="#1d1d1b" stroke-width="0"/>
      <path d="M266.809,34.455h1.152v8.904h-1.152v-8.904Z" fill="#1d1d1b" stroke-width="0"/>
      <path d="M270.175,35.56c-.148-.145-.222-.32-.222-.528s.074-.386.222-.534c.148-.147.334-.222.558-.222s.41.07.558.21c.148.14.222.314.222.522,0,.216-.074.397-.222.546-.148.147-.334.222-.558.222s-.41-.072-.558-.216ZM270.158,36.999h1.151v6.36h-1.151v-6.36Z" fill="#1d1d1b" stroke-width="0"/>
      <path d="M283.363,37.636c.468.464.702,1.151.702,2.063v3.66h-1.152v-3.528c0-.615-.142-1.08-.426-1.392-.284-.312-.689-.468-1.218-.468-.584,0-1.048.182-1.392.546-.345.364-.517.886-.517,1.565v3.276h-1.152v-3.528c0-.615-.142-1.08-.426-1.392-.284-.312-.69-.468-1.218-.468-.584,0-1.048.182-1.392.546-.344.364-.517.886-.517,1.565v3.276h-1.151v-6.36h1.104v.948c.232-.328.536-.578.912-.75s.804-.258,1.284-.258c.496,0,.936.1,1.32.3s.68.492.888.876c.24-.368.574-.655,1.002-.864.428-.208.91-.312,1.446-.312.8,0,1.434.232,1.901.696Z" fill="#1d1d1b" stroke-width="0"/>
      <path d="M290.527,37.587c.468.433.702,1.076.702,1.933v3.84h-1.092v-.84c-.192.296-.466.521-.822.678-.356.156-.778.234-1.266.234-.712,0-1.282-.172-1.71-.517-.428-.344-.642-.796-.642-1.355s.204-1.01.612-1.351c.408-.34,1.056-.51,1.944-.51h1.824v-.228c0-.496-.144-.876-.432-1.141-.288-.264-.712-.396-1.272-.396-.376,0-.744.062-1.104.186-.36.124-.664.29-.912.498l-.479-.863c.328-.265.72-.467,1.176-.606s.94-.21,1.452-.21c.88,0,1.554.216,2.021.647ZM289.381,42.249c.319-.195.552-.474.696-.834v-.888h-1.776c-.977,0-1.464.328-1.464.984,0,.319.124.571.372.756.248.184.592.275,1.032.275s.82-.098,1.14-.294Z" fill="#1d1d1b" stroke-width="0"/>
      <path d="M296.941,42.988c-.168.145-.376.254-.624.33s-.504.114-.768.114c-.64,0-1.136-.172-1.488-.517-.353-.344-.528-.836-.528-1.476v-3.492h-1.08v-.948h1.08v-1.392h1.152v1.392h1.824v.948h-1.824v3.444c0,.344.086.607.258.792.172.184.418.275.738.275.352,0,.652-.1.9-.3l.36.828Z" fill="#1d1d1b" stroke-width="0"/>
      <path d="M298.351,35.56c-.148-.145-.223-.32-.223-.528s.074-.386.223-.534c.147-.147.333-.222.558-.222s.41.07.558.21.222.314.222.522c0,.216-.074.397-.222.546-.148.147-.334.222-.558.222s-.41-.072-.558-.216ZM298.332,36.999h1.152v6.36h-1.152v-6.36Z" fill="#1d1d1b" stroke-width="0"/>
      <path d="M302.005,43.222c-.48-.141-.856-.318-1.128-.534l.48-.912c.28.2.62.36,1.02.48.4.119.804.18,1.212.18,1.008,0,1.512-.288,1.512-.864,0-.192-.068-.344-.204-.456-.136-.111-.306-.193-.51-.246-.204-.052-.494-.109-.87-.174-.512-.08-.93-.172-1.254-.276-.324-.104-.603-.279-.834-.527-.232-.248-.349-.596-.349-1.044,0-.576.24-1.038.72-1.387.48-.348,1.124-.521,1.932-.521.424,0,.848.052,1.272.156.424.104.772.244,1.044.42l-.492.912c-.521-.336-1.132-.504-1.836-.504-.488,0-.86.08-1.116.239-.256.16-.384.372-.384.637,0,.208.072.371.216.491.144.12.322.208.534.265.212.056.51.12.894.191.512.089.926.183,1.242.282.316.101.586.271.81.51.224.24.336.576.336,1.009,0,.575-.246,1.033-.738,1.373-.492.341-1.162.511-2.01.511-.52,0-1.02-.07-1.5-.21Z" fill="#1d1d1b" stroke-width="0"/>
      <path d="M312.031,37.587c.468.433.702,1.076.702,1.933v3.84h-1.092v-.84c-.192.296-.466.521-.822.678-.356.156-.778.234-1.267.234-.712,0-1.282-.172-1.71-.517-.428-.344-.642-.796-.642-1.355s.204-1.01.612-1.351c.408-.34,1.056-.51,1.944-.51h1.824v-.228c0-.496-.144-.876-.432-1.141-.288-.264-.712-.396-1.272-.396-.376,0-.744.062-1.104.186-.36.124-.665.29-.912.498l-.48-.863c.328-.265.72-.467,1.176-.606s.94-.21,1.452-.21c.88,0,1.554.216,2.022.647ZM310.884,42.249c.32-.195.552-.474.696-.834v-.888h-1.776c-.976,0-1.464.328-1.464.984,0,.319.124.571.372.756.248.184.592.275,1.032.275s.82-.098,1.14-.294Z" fill="#1d1d1b" stroke-width="0"/>
      <path d="M318.445,42.988c-.168.145-.376.254-.624.33s-.504.114-.769.114c-.64,0-1.136-.172-1.487-.517-.353-.344-.528-.836-.528-1.476v-3.492h-1.08v-.948h1.08v-1.392h1.152v1.392h1.824v.948h-1.824v3.444c0,.344.085.607.258.792.172.184.418.275.738.275.352,0,.652-.1.9-.3l.36.828Z" fill="#1d1d1b" stroke-width="0"/>
      <path d="M319.854,35.56c-.148-.145-.222-.32-.222-.528s.074-.386.222-.534c.148-.147.333-.222.558-.222s.41.07.558.21c.148.14.222.314.222.522,0,.216-.074.397-.222.546-.148.147-.334.222-.558.222s-.41-.072-.558-.216ZM319.836,36.999h1.152v6.36h-1.152v-6.36Z" fill="#1d1d1b" stroke-width="0"/>
      <path d="M324.204,43.012c-.504-.28-.898-.666-1.183-1.158-.284-.492-.426-1.05-.426-1.674s.142-1.183.426-1.674c.284-.492.678-.877,1.183-1.152.504-.276,1.071-.414,1.704-.414s1.198.138,1.698.414c.5.275.893.66,1.176,1.152.284.491.426,1.05.426,1.674s-.143,1.182-.426,1.674-.676.878-1.176,1.158c-.5.279-1.066.42-1.698.42s-1.2-.141-1.704-.42ZM327.006,42.142c.324-.188.578-.452.762-.792.184-.34.276-.73.276-1.17s-.092-.83-.276-1.17c-.184-.34-.438-.603-.762-.786-.324-.185-.69-.276-1.098-.276s-.774.092-1.098.276c-.324.184-.58.446-.768.786-.188.34-.282.729-.282,1.17s.094.83.282,1.17c.188.34.444.604.768.792.324.188.69.282,1.098.282s.774-.095,1.098-.282Z" fill="#1d1d1b" stroke-width="0"/>
      <path d="M336.126,37.642c.476.468.714,1.154.714,2.058v3.66h-1.152v-3.528c0-.615-.148-1.08-.444-1.392-.296-.312-.72-.468-1.272-.468-.624,0-1.116.182-1.476.546s-.54.886-.54,1.565v3.276h-1.152v-6.36h1.104v.96c.232-.327.546-.579.942-.756.396-.176.846-.264,1.35-.264.808,0,1.45.234,1.926.702Z" fill="#1d1d1b" stroke-width="0"/>
      <path d="M344.736,33.256h1.044l-3.96,11.304h-1.044l3.96-11.304Z" fill="#1d1d1b" stroke-width="0"/>
      <path d="M351.306,42.898c-.676-.372-1.206-.884-1.59-1.536-.384-.652-.576-1.386-.576-2.202s.192-1.55.576-2.202c.384-.651.916-1.164,1.596-1.536.68-.371,1.44-.558,2.28-.558.655,0,1.256.11,1.8.33s1.008.546,1.392.978l-.78.757c-.632-.664-1.42-.996-2.364-.996-.624,0-1.188.14-1.692.42s-.898.666-1.182,1.158c-.284.491-.426,1.042-.426,1.649s.142,1.158.426,1.65c.284.492.678.878,1.182,1.158.504.279,1.068.42,1.692.42.936,0,1.724-.336,2.364-1.009l.78.757c-.384.432-.85.76-1.397.983-.548.225-1.15.336-1.806.336-.84,0-1.598-.186-2.274-.558Z" fill="#1d1d1b" stroke-width="0"/>
      <path d="M363.654,37.642c.476.468.714,1.154.714,2.058v3.66h-1.151v-3.528c0-.615-.148-1.08-.444-1.392-.296-.312-.72-.468-1.272-.468-.624,0-1.116.182-1.476.546-.36.364-.54.886-.54,1.565v3.276h-1.152v-8.904h1.152v3.444c.24-.304.554-.54.942-.708.388-.168.822-.252,1.302-.252.808,0,1.45.234,1.926.702Z" fill="#1d1d1b" stroke-width="0"/>
      <path d="M370.842,37.587c.468.433.702,1.076.702,1.933v3.84h-1.092v-.84c-.192.296-.466.521-.822.678s-.778.234-1.266.234c-.712,0-1.282-.172-1.71-.517-.428-.344-.642-.796-.642-1.355s.204-1.01.611-1.351c.408-.34,1.057-.51,1.944-.51h1.824v-.228c0-.496-.145-.876-.432-1.141-.288-.264-.712-.396-1.272-.396-.376,0-.744.062-1.104.186s-.665.29-.912.498l-.48-.863c.328-.265.72-.467,1.176-.606s.94-.21,1.452-.21c.88,0,1.554.216,2.022.647ZM369.696,42.249c.32-.195.552-.474.696-.834v-.888h-1.776c-.976,0-1.464.328-1.464.984,0,.319.124.571.372.756.248.184.592.275,1.032.275s.819-.098,1.14-.294Z" fill="#1d1d1b" stroke-width="0"/>
      <path d="M379.608,36.999v6.36h-1.092v-.96c-.232.328-.538.582-.918.762-.38.181-.794.271-1.242.271-.848,0-1.516-.234-2.004-.702-.488-.468-.732-1.158-.732-2.07v-3.66h1.152v3.528c0,.616.148,1.082.444,1.398.296.315.72.474,1.272.474.608,0,1.088-.184,1.44-.552.352-.368.527-.889.527-1.561v-3.288h1.152Z" fill="#1d1d1b" stroke-width="0"/>
      <path d="M383.099,36.448v.552h1.848v.948h-1.824v5.412h-1.152v-5.412h-1.08v-.948h1.08v-.563c0-.632.184-1.132.552-1.5.368-.368.884-.552,1.548-.552.256,0,.496.031.72.096.224.064.416.156.576.276l-.348.876c-.265-.2-.561-.301-.889-.301-.688,0-1.032.372-1.032,1.116Z" fill="#1d1d1b" stroke-width="0"/>
      <path d="M387.335,36.448v.552h1.849v.948h-1.824v5.412h-1.152v-5.412h-1.08v-.948h1.08v-.563c0-.632.184-1.132.552-1.5.368-.368.884-.552,1.548-.552.256,0,.496.031.72.096.224.064.416.156.576.276l-.348.876c-.264-.2-.56-.301-.888-.301-.688,0-1.032.372-1.032,1.116Z" fill="#1d1d1b" stroke-width="0"/>
      <path d="M394.494,37.587c.468.433.702,1.076.702,1.933v3.84h-1.092v-.84c-.192.296-.466.521-.822.678-.356.156-.778.234-1.266.234-.712,0-1.282-.172-1.71-.517-.428-.344-.642-.796-.642-1.355s.204-1.01.612-1.351c.408-.34,1.056-.51,1.944-.51h1.824v-.228c0-.496-.144-.876-.432-1.141-.288-.264-.712-.396-1.272-.396-.376,0-.744.062-1.104.186-.36.124-.664.29-.912.498l-.48-.863c.328-.265.72-.467,1.176-.606s.939-.21,1.452-.21c.88,0,1.554.216,2.022.647ZM393.348,42.249c.32-.195.552-.474.696-.834v-.888h-1.775c-.977,0-1.464.328-1.464.984,0,.319.124.571.372.756.248.184.592.275,1.032.275s.82-.098,1.14-.294Z" fill="#1d1d1b" stroke-width="0"/>
      <path d="M403.452,36.999v5.496c0,1.112-.276,1.935-.828,2.466-.552.532-1.376.799-2.472.799-.6,0-1.172-.082-1.716-.246s-.983-.398-1.319-.702l.552-.888c.296.256.662.457,1.098.605.437.148.886.222,1.351.222.744,0,1.294-.176,1.649-.527.356-.353.534-.889.534-1.608v-.504c-.272.328-.606.574-1.002.738s-.826.246-1.29.246c-.608,0-1.158-.13-1.65-.391-.492-.26-.878-.624-1.158-1.092-.28-.468-.42-1.002-.42-1.602s.14-1.135.42-1.603c.279-.468.666-.83,1.158-1.086s1.042-.384,1.65-.384c.48,0,.926.088,1.338.264.412.177.75.437,1.014.78v-.984h1.092ZM401.261,41.824c.332-.176.592-.422.78-.738.188-.315.282-.674.282-1.073,0-.616-.204-1.114-.612-1.494s-.932-.57-1.572-.57c-.647,0-1.176.19-1.584.57-.408.38-.612.878-.612,1.494,0,.399.094.758.282,1.073.188.316.448.562.78.738s.71.264,1.134.264c.416,0,.79-.088,1.122-.264Z" fill="#1d1d1b" stroke-width="0"/>
      <path d="M411.371,40.564h-5.16c.072.56.318,1.01.738,1.35.42.341.942.511,1.566.511.76,0,1.372-.257,1.836-.769l.636.744c-.288.336-.646.592-1.074.768-.428.177-.906.265-1.434.265-.672,0-1.268-.139-1.788-.414-.52-.276-.922-.662-1.206-1.158-.284-.496-.426-1.056-.426-1.68,0-.616.138-1.172.414-1.668.276-.496.656-.883,1.14-1.158.484-.276,1.03-.414,1.638-.414s1.149.138,1.626.414c.476.275.848.662,1.116,1.158s.402,1.063.402,1.704c0,.088-.008.203-.024.348ZM406.865,38.415c-.372.336-.59.776-.654,1.32h4.08c-.064-.536-.282-.974-.654-1.314-.372-.34-.834-.51-1.386-.51s-1.015.168-1.386.504Z" fill="#1d1d1b" stroke-width="0"/>
      <path d="M418.751,33.256h1.044l-3.96,11.304h-1.044l3.96-11.304Z" fill="#1d1d1b" stroke-width="0"/>
      <path d="M431.135,34.959l-3.684,8.4h-1.188l-3.696-8.4h1.296l3.024,6.9,3.048-6.9h1.2Z" fill="#1d1d1b" stroke-width="0"/>
      <path d="M437.279,40.564h-5.16c.072.56.318,1.01.738,1.35.42.341.942.511,1.566.511.76,0,1.372-.257,1.836-.769l.636.744c-.288.336-.646.592-1.074.768-.428.177-.906.265-1.434.265-.672,0-1.268-.139-1.788-.414-.52-.276-.922-.662-1.206-1.158s-.426-1.056-.426-1.68c0-.616.138-1.172.414-1.668.276-.496.656-.883,1.14-1.158.484-.276,1.03-.414,1.638-.414s1.15.138,1.626.414c.476.275.848.662,1.116,1.158.269.496.402,1.063.402,1.704,0,.088-.008.203-.024.348ZM432.773,38.415c-.372.336-.59.776-.654,1.32h4.08c-.064-.536-.282-.974-.654-1.314-.372-.34-.834-.51-1.386-.51s-1.014.168-1.386.504Z" fill="#1d1d1b" stroke-width="0"/>
      <path d="M444.221,37.642c.476.468.714,1.154.714,2.058v3.66h-1.152v-3.528c0-.615-.148-1.08-.444-1.392-.296-.312-.72-.468-1.272-.468-.624,0-1.116.182-1.476.546-.36.364-.54.886-.54,1.565v3.276h-1.152v-6.36h1.104v.96c.231-.327.546-.579.941-.756.396-.176.846-.264,1.351-.264.808,0,1.45.234,1.926.702Z" fill="#1d1d1b" stroke-width="0"/>
      <path d="M450.647,42.988c-.168.145-.376.254-.624.33s-.504.114-.768.114c-.64,0-1.136-.172-1.488-.517-.353-.344-.528-.836-.528-1.476v-3.492h-1.08v-.948h1.08v-1.392h1.152v1.392h1.824v.948h-1.824v3.444c0,.344.086.607.258.792.172.184.418.275.738.275.352,0,.652-.1.9-.3l.36.828Z" fill="#1d1d1b" stroke-width="0"/>
      <path d="M452.057,35.56c-.148-.145-.223-.32-.223-.528s.074-.386.223-.534c.147-.147.333-.222.558-.222s.41.07.558.21.222.314.222.522c0,.216-.074.397-.222.546-.148.147-.334.222-.558.222s-.41-.072-.558-.216ZM452.038,36.999h1.152v6.36h-1.152v-6.36Z" fill="#1d1d1b" stroke-width="0"/>
      <path d="M455.387,34.455h1.151v8.904h-1.151v-8.904Z" fill="#1d1d1b" stroke-width="0"/>
      <path d="M463.073,37.587c.468.433.702,1.076.702,1.933v3.84h-1.092v-.84c-.192.296-.466.521-.822.678-.356.156-.778.234-1.267.234-.712,0-1.282-.172-1.71-.517-.428-.344-.642-.796-.642-1.355s.204-1.01.612-1.351c.408-.34,1.056-.51,1.944-.51h1.824v-.228c0-.496-.144-.876-.432-1.141-.288-.264-.712-.396-1.272-.396-.376,0-.744.062-1.104.186-.36.124-.665.29-.912.498l-.48-.863c.328-.265.72-.467,1.176-.606s.94-.21,1.452-.21c.88,0,1.554.216,2.022.647ZM461.926,42.249c.32-.195.552-.474.696-.834v-.888h-1.776c-.976,0-1.464.328-1.464.984,0,.319.124.571.372.756.248.184.592.275,1.032.275s.82-.098,1.14-.294Z" fill="#1d1d1b" stroke-width="0"/>
      <path d="M469.487,42.988c-.168.145-.376.254-.624.33s-.504.114-.769.114c-.64,0-1.136-.172-1.487-.517-.353-.344-.528-.836-.528-1.476v-3.492h-1.08v-.948h1.08v-1.392h1.152v1.392h1.824v.948h-1.824v3.444c0,.344.085.607.258.792.172.184.418.275.738.275.352,0,.652-.1.9-.3l.36.828Z" fill="#1d1d1b" stroke-width="0"/>
      <path d="M470.896,35.56c-.148-.145-.222-.32-.222-.528s.074-.386.222-.534c.148-.147.333-.222.558-.222s.41.07.558.21c.148.14.222.314.222.522,0,.216-.074.397-.222.546-.148.147-.334.222-.558.222s-.41-.072-.558-.216ZM470.878,36.999h1.152v6.36h-1.152v-6.36Z" fill="#1d1d1b" stroke-width="0"/>
      <path d="M475.246,43.012c-.504-.28-.898-.666-1.183-1.158-.284-.492-.426-1.05-.426-1.674s.142-1.183.426-1.674c.284-.492.678-.877,1.183-1.152.504-.276,1.071-.414,1.704-.414s1.198.138,1.698.414c.5.275.893.66,1.176,1.152.284.491.426,1.05.426,1.674s-.143,1.182-.426,1.674-.676.878-1.176,1.158c-.5.279-1.066.42-1.698.42s-1.2-.141-1.704-.42ZM478.048,42.142c.324-.188.578-.452.762-.792.184-.34.276-.73.276-1.17s-.092-.83-.276-1.17c-.184-.34-.438-.603-.762-.786-.324-.185-.69-.276-1.098-.276s-.774.092-1.098.276c-.324.184-.58.446-.768.786-.188.34-.282.729-.282,1.17s.094.83.282,1.17c.188.34.444.604.768.792.324.188.69.282,1.098.282s.774-.095,1.098-.282Z" fill="#1d1d1b" stroke-width="0"/>
      <path d="M487.168,37.642c.476.468.714,1.154.714,2.058v3.66h-1.152v-3.528c0-.615-.148-1.08-.444-1.392-.296-.312-.72-.468-1.272-.468-.624,0-1.116.182-1.476.546-.36.364-.54.886-.54,1.565v3.276h-1.152v-6.36h1.104v.96c.231-.327.546-.579.941-.756.396-.176.846-.264,1.351-.264.808,0,1.45.234,1.926.702Z" fill="#1d1d1b" stroke-width="0"/>
      <path d="M267.757,72.999l-2.376,6.36h-1.104l-1.836-4.824-1.86,4.824h-1.104l-2.364-6.36h1.092l1.848,5.064,1.92-5.064h.973l1.884,5.088,1.896-5.088h1.032Z" fill="#1d1d1b" stroke-width="0"/>
      <path d="M278.45,72.999l-2.376,6.36h-1.104l-1.836-4.824-1.86,4.824h-1.104l-2.364-6.36h1.092l1.848,5.064,1.92-5.064h.972l1.884,5.088,1.896-5.088h1.032Z" fill="#1d1d1b" stroke-width="0"/>
      <path d="M289.141,72.999l-2.376,6.36h-1.104l-1.836-4.824-1.86,4.824h-1.104l-2.364-6.36h1.092l1.848,5.064,1.92-5.064h.973l1.884,5.088,1.896-5.088h1.032Z" fill="#1d1d1b" stroke-width="0"/>
      <path d="M289.609,79.198c-.16-.156-.24-.354-.24-.594,0-.232.08-.426.24-.582.16-.156.352-.234.576-.234s.412.076.564.229c.152.151.228.348.228.588s-.078.438-.233.594c-.156.156-.342.234-.559.234-.224,0-.416-.078-.576-.234Z" fill="#1d1d1b" stroke-width="0"/>
      <path d="M297.091,73.587c.468.433.702,1.076.702,1.933v3.84h-1.092v-.84c-.192.296-.466.521-.822.678-.356.156-.778.234-1.267.234-.712,0-1.282-.172-1.71-.517-.428-.344-.642-.796-.642-1.355s.204-1.01.612-1.351c.408-.34,1.056-.51,1.944-.51h1.824v-.228c0-.496-.144-.876-.432-1.141-.288-.264-.712-.396-1.272-.396-.376,0-.744.062-1.104.186-.36.124-.665.29-.912.498l-.48-.863c.328-.265.72-.467,1.176-.606s.94-.21,1.452-.21c.88,0,1.554.216,2.022.647ZM295.945,78.249c.32-.195.552-.474.696-.834v-.888h-1.776c-.976,0-1.464.328-1.464.984,0,.319.124.571.372.756.248.184.592.275,1.032.275s.82-.098,1.14-.294Z" fill="#1d1d1b" stroke-width="0"/>
      <path d="M305.857,72.999v6.36h-1.092v-.96c-.232.328-.538.582-.918.762-.38.181-.794.271-1.242.271-.848,0-1.516-.234-2.004-.702-.488-.468-.732-1.158-.732-2.07v-3.66h1.152v3.528c0,.616.148,1.082.444,1.398.296.315.72.474,1.272.474.608,0,1.088-.184,1.44-.552.352-.368.527-.889.527-1.561v-3.288h1.152Z" fill="#1d1d1b" stroke-width="0"/>
      <path d="M317.911,73.636c.468.464.702,1.151.702,2.063v3.66h-1.152v-3.528c0-.615-.142-1.08-.426-1.392-.284-.312-.689-.468-1.218-.468-.584,0-1.048.182-1.392.546-.345.364-.517.886-.517,1.565v3.276h-1.152v-3.528c0-.615-.142-1.08-.426-1.392-.284-.312-.69-.468-1.218-.468-.584,0-1.048.182-1.392.546-.344.364-.517.886-.517,1.565v3.276h-1.151v-6.36h1.104v.948c.232-.328.536-.578.912-.75s.804-.258,1.284-.258c.496,0,.936.1,1.32.3s.68.492.888.876c.24-.368.574-.655,1.002-.864.428-.208.91-.312,1.446-.312.8,0,1.434.232,1.901.696Z" fill="#1d1d1b" stroke-width="0"/>
      <path d="M326.496,76.564h-5.16c.072.56.318,1.01.738,1.35.42.341.942.511,1.566.511.76,0,1.372-.257,1.836-.769l.636.744c-.288.336-.646.592-1.074.768-.428.177-.906.265-1.434.265-.672,0-1.269-.139-1.788-.414-.521-.276-.922-.662-1.206-1.158-.284-.496-.426-1.056-.426-1.68,0-.616.138-1.172.414-1.668s.656-.883,1.14-1.158c.484-.276,1.03-.414,1.638-.414s1.15.138,1.626.414c.476.275.848.662,1.116,1.158s.402,1.063.402,1.704c0,.088-.008.203-.024.348ZM321.991,74.415c-.372.336-.59.776-.654,1.32h4.08c-.064-.536-.282-.974-.654-1.314-.372-.34-.834-.51-1.386-.51s-1.014.168-1.386.504Z" fill="#1d1d1b" stroke-width="0"/>
      <path d="M330.109,73.228c.392-.192.868-.288,1.428-.288v1.116c-.064-.008-.152-.013-.264-.013-.624,0-1.114.187-1.47.559s-.534.902-.534,1.59v3.168h-1.152v-6.36h1.104v1.068c.2-.368.496-.648.888-.84Z" fill="#1d1d1b" stroke-width="0"/>
      <path d="M337.279,73.587c.468.433.702,1.076.702,1.933v3.84h-1.092v-.84c-.192.296-.466.521-.822.678-.356.156-.778.234-1.267.234-.712,0-1.282-.172-1.71-.517-.428-.344-.642-.796-.642-1.355s.204-1.01.612-1.351c.408-.34,1.056-.51,1.944-.51h1.824v-.228c0-.496-.144-.876-.432-1.141-.288-.264-.712-.396-1.272-.396-.376,0-.744.062-1.104.186-.36.124-.665.29-.912.498l-.48-.863c.328-.265.72-.467,1.176-.606s.94-.21,1.452-.21c.88,0,1.554.216,2.022.647ZM336.132,78.249c.32-.195.552-.474.696-.834v-.888h-1.776c-.976,0-1.464.328-1.464.984,0,.319.124.571.372.756.248.184.592.275,1.032.275s.82-.098,1.14-.294Z" fill="#1d1d1b" stroke-width="0"/>
      <path d="M339.816,79.198c-.16-.156-.24-.354-.24-.594,0-.232.08-.426.24-.582.16-.156.352-.234.576-.234s.412.076.564.229c.152.151.228.348.228.588s-.078.438-.233.594c-.156.156-.342.234-.559.234-.224,0-.416-.078-.576-.234Z" fill="#1d1d1b" stroke-width="0"/>
      <path d="M344.136,72.448v.552h1.848v.948h-1.824v5.412h-1.152v-5.412h-1.08v-.948h1.08v-.563c0-.632.184-1.132.552-1.5s.884-.552,1.548-.552c.256,0,.496.031.72.096.224.064.416.156.576.276l-.348.876c-.264-.2-.56-.301-.888-.301-.688,0-1.032.372-1.032,1.116Z" fill="#1d1d1b" stroke-width="0"/>
      <path d="M350.028,73.228c.392-.192.868-.288,1.428-.288v1.116c-.064-.008-.152-.013-.264-.013-.624,0-1.114.187-1.47.559-.356.372-.534.902-.534,1.59v3.168h-1.152v-6.36h1.104v1.068c.2-.368.496-.648.888-.84Z" fill="#1d1d1b" stroke-width="0"/>
      <path d="M259.171,97.012c-.508-.28-.906-.666-1.194-1.158s-.432-1.05-.432-1.674.144-1.183.432-1.674c.288-.492.686-.877,1.194-1.152.508-.276,1.086-.414,1.734-.414.576,0,1.09.116,1.542.348.452.232.802.568,1.05,1.008l-.876.564c-.2-.304-.448-.532-.744-.684-.296-.152-.624-.229-.984-.229-.416,0-.791.092-1.122.276-.332.184-.592.446-.78.786-.188.34-.282.729-.282,1.17,0,.448.094.842.282,1.182.188.34.448.603.78.786.332.184.706.276,1.122.276.36,0,.688-.076.984-.229.296-.151.544-.38.744-.684l.876.552c-.248.44-.598.778-1.05,1.014-.452.236-.966.354-1.542.354-.648,0-1.227-.141-1.734-.42Z" fill="#1d1d1b" stroke-width="0"/>
      <path d="M265.91,97.012c-.504-.28-.898-.666-1.182-1.158s-.426-1.05-.426-1.674.143-1.183.426-1.674c.284-.492.678-.877,1.182-1.152.504-.276,1.072-.414,1.704-.414s1.198.138,1.698.414c.5.275.892.66,1.176,1.152.284.491.426,1.05.426,1.674s-.142,1.182-.426,1.674c-.284.492-.676.878-1.176,1.158-.5.279-1.066.42-1.698.42s-1.2-.141-1.704-.42ZM268.711,96.142c.324-.188.578-.452.762-.792s.276-.73.276-1.17-.092-.83-.276-1.17-.438-.603-.762-.786c-.324-.185-.689-.276-1.098-.276s-.774.092-1.098.276c-.324.184-.58.446-.768.786s-.282.729-.282,1.17.094.83.282,1.17.444.604.768.792c.324.188.69.282,1.098.282s.774-.095,1.098-.282Z" fill="#1d1d1b" stroke-width="0"/>
      <path d="M277.831,91.642c.476.468.714,1.154.714,2.058v3.66h-1.152v-3.528c0-.615-.148-1.08-.444-1.392-.296-.312-.72-.468-1.272-.468-.624,0-1.116.182-1.476.546-.36.364-.54.886-.54,1.565v3.276h-1.152v-6.36h1.104v.96c.231-.327.546-.579.941-.756.396-.176.846-.264,1.351-.264.808,0,1.45.234,1.926.702Z" fill="#1d1d1b" stroke-width="0"/>
      <path d="M284.257,96.988c-.168.145-.376.254-.624.33s-.504.114-.768.114c-.64,0-1.136-.172-1.488-.517-.353-.344-.528-.836-.528-1.476v-3.492h-1.08v-.948h1.08v-1.392h1.152v1.392h1.824v.948h-1.824v3.444c0,.344.086.607.258.792.172.184.418.275.738.275.352,0,.652-.1.9-.3l.36.828Z" fill="#1d1d1b" stroke-width="0"/>
      <path d="M289.987,91.587c.468.433.702,1.076.702,1.933v3.84h-1.092v-.84c-.192.296-.466.521-.822.678s-.778.234-1.266.234c-.712,0-1.282-.172-1.71-.517-.428-.344-.642-.796-.642-1.355s.204-1.01.611-1.351c.408-.34,1.057-.51,1.944-.51h1.824v-.228c0-.496-.145-.876-.432-1.141-.288-.264-.712-.396-1.272-.396-.376,0-.744.062-1.104.186s-.665.29-.912.498l-.48-.863c.328-.265.72-.467,1.176-.606s.94-.21,1.452-.21c.88,0,1.554.216,2.022.647ZM288.841,96.249c.32-.195.552-.474.696-.834v-.888h-1.776c-.976,0-1.464.328-1.464.984,0,.319.124.571.372.756.248.184.592.275,1.032.275s.819-.098,1.14-.294Z" fill="#1d1d1b" stroke-width="0"/>
      <path d="M293.899,97.012c-.508-.28-.906-.666-1.194-1.158s-.432-1.05-.432-1.674.144-1.183.432-1.674c.288-.492.686-.877,1.194-1.152.508-.276,1.086-.414,1.734-.414.576,0,1.09.116,1.542.348.452.232.802.568,1.05,1.008l-.876.564c-.2-.304-.448-.532-.744-.684-.296-.152-.624-.229-.984-.229-.416,0-.791.092-1.122.276-.332.184-.592.446-.78.786-.188.34-.282.729-.282,1.17,0,.448.094.842.282,1.182.188.34.448.603.78.786.332.184.706.276,1.122.276.36,0,.688-.076.984-.229.296-.151.544-.38.744-.684l.876.552c-.248.44-.598.778-1.05,1.014-.452.236-.966.354-1.542.354-.648,0-1.227-.141-1.734-.42Z" fill="#1d1d1b" stroke-width="0"/>
      <path d="M303.373,96.988c-.168.145-.376.254-.624.33s-.504.114-.768.114c-.64,0-1.136-.172-1.488-.517-.352-.344-.528-.836-.528-1.476v-3.492h-1.08v-.948h1.08v-1.392h1.152v1.392h1.824v.948h-1.824v3.444c0,.344.085.607.258.792.172.184.418.275.738.275.353,0,.652-.1.9-.3l.36.828Z" fill="#1d1d1b" stroke-width="0"/>
      <path d="M312.805,89.541c.848.444,1.51,1.066,1.985,1.866.477.8.714,1.712.714,2.736s-.188,1.828-.564,2.412-.9.876-1.572.876c-.384,0-.702-.098-.954-.294s-.414-.479-.485-.847c-.24.368-.555.65-.942.847-.388.196-.834.294-1.338.294-.56,0-1.064-.132-1.512-.396-.448-.264-.798-.63-1.05-1.098s-.378-.998-.378-1.59c0-.584.126-1.11.378-1.578s.602-.832,1.05-1.092c.447-.26.952-.391,1.512-.391.464,0,.884.086,1.26.258.376.173.688.427.937.763v-.973h1.044v4.32c0,.296.063.515.191.654s.292.21.492.21c.352,0,.626-.206.822-.618.196-.412.294-.994.294-1.746,0-.888-.2-1.67-.6-2.346s-.962-1.202-1.686-1.578c-.724-.376-1.554-.564-2.49-.564-.944,0-1.778.196-2.502.589-.724.392-1.286.939-1.686,1.644-.4.704-.601,1.508-.601,2.412,0,.912.198,1.72.594,2.424s.952,1.254,1.668,1.65c.716.396,1.542.594,2.478.594.392,0,.792-.044,1.2-.132.408-.089.78-.221,1.116-.396l.264.769c-.352.184-.76.323-1.224.42-.464.096-.917.144-1.356.144-1.096,0-2.07-.233-2.922-.702-.852-.468-1.514-1.118-1.986-1.949-.472-.832-.708-1.772-.708-2.82s.238-1.984.714-2.809c.476-.823,1.144-1.468,2.004-1.932s1.842-.696,2.946-.696c1.08,0,2.044.223,2.893.666ZM310.867,96.232c.308-.176.552-.426.732-.75.18-.324.27-.702.27-1.134s-.09-.811-.27-1.135c-.18-.323-.424-.571-.732-.743-.308-.172-.658-.259-1.05-.259-.608,0-1.1.194-1.476.582-.376.389-.564.906-.564,1.555s.19,1.168.57,1.56c.38.393.87.588,1.47.588.392,0,.742-.088,1.05-.264Z" fill="#1d1d1b" stroke-width="0"/>
      <path d="M316.633,97.198c-.16-.156-.24-.354-.24-.594,0-.232.08-.426.24-.582.16-.156.352-.234.576-.234s.412.076.564.229c.152.151.228.348.228.588s-.078.438-.233.594c-.156.156-.342.234-.559.234-.224,0-.416-.078-.576-.234Z" fill="#1d1d1b" stroke-width="0"/>
      <path d="M324.115,91.587c.468.433.702,1.076.702,1.933v3.84h-1.092v-.84c-.192.296-.466.521-.822.678-.356.156-.778.234-1.267.234-.712,0-1.282-.172-1.71-.517-.428-.344-.642-.796-.642-1.355s.204-1.01.612-1.351c.408-.34,1.056-.51,1.944-.51h1.824v-.228c0-.496-.144-.876-.432-1.141-.288-.264-.712-.396-1.272-.396-.376,0-.744.062-1.104.186-.36.124-.665.29-.912.498l-.48-.863c.328-.265.72-.467,1.176-.606s.94-.21,1.452-.21c.88,0,1.554.216,2.022.647ZM322.968,96.249c.32-.195.552-.474.696-.834v-.888h-1.776c-.976,0-1.464.328-1.464.984,0,.319.124.571.372.756.248.184.592.275,1.032.275s.82-.098,1.14-.294Z" fill="#1d1d1b" stroke-width="0"/>
      <path d="M332.88,90.999v6.36h-1.092v-.96c-.232.328-.538.582-.918.762-.38.181-.794.271-1.242.271-.848,0-1.516-.234-2.004-.702s-.732-1.158-.732-2.07v-3.66h1.152v3.528c0,.616.148,1.082.444,1.398.296.315.72.474,1.271.474.608,0,1.088-.184,1.44-.552.352-.368.528-.889.528-1.561v-3.288h1.152Z" fill="#1d1d1b" stroke-width="0"/>
      <path d="M344.934,91.636c.468.464.702,1.151.702,2.063v3.66h-1.152v-3.528c0-.615-.142-1.08-.426-1.392-.284-.312-.689-.468-1.218-.468-.584,0-1.048.182-1.392.546-.345.364-.517.886-.517,1.565v3.276h-1.152v-3.528c0-.615-.142-1.08-.426-1.392-.284-.312-.69-.468-1.218-.468-.584,0-1.048.182-1.392.546-.344.364-.517.886-.517,1.565v3.276h-1.151v-6.36h1.104v.948c.232-.328.536-.578.912-.75s.804-.258,1.284-.258c.496,0,.936.1,1.32.3s.68.492.888.876c.24-.368.574-.655,1.002-.864.428-.208.91-.312,1.446-.312.8,0,1.434.232,1.901.696Z" fill="#1d1d1b" stroke-width="0"/>
      <path d="M353.52,94.564h-5.16c.072.56.318,1.01.738,1.35.42.341.942.511,1.566.511.76,0,1.372-.257,1.836-.769l.636.744c-.288.336-.646.592-1.074.768-.428.177-.906.265-1.434.265-.672,0-1.269-.139-1.788-.414-.521-.276-.922-.662-1.206-1.158-.284-.496-.426-1.056-.426-1.68,0-.616.138-1.172.414-1.668s.656-.883,1.14-1.158c.484-.276,1.03-.414,1.638-.414s1.15.138,1.626.414c.476.275.848.662,1.116,1.158s.402,1.063.402,1.704c0,.088-.008.203-.024.348ZM349.014,92.415c-.372.336-.59.776-.654,1.32h4.08c-.064-.536-.282-.974-.654-1.314-.372-.34-.834-.51-1.386-.51s-1.014.168-1.386.504Z" fill="#1d1d1b" stroke-width="0"/>
      <path d="M357.132,91.228c.392-.192.868-.288,1.428-.288v1.116c-.064-.008-.152-.013-.264-.013-.624,0-1.114.187-1.47.559-.356.372-.534.902-.534,1.59v3.168h-1.152v-6.36h1.104v1.068c.2-.368.496-.648.888-.84Z" fill="#1d1d1b" stroke-width="0"/>
      <path d="M364.302,91.587c.468.433.702,1.076.702,1.933v3.84h-1.092v-.84c-.192.296-.466.521-.822.678-.356.156-.778.234-1.267.234-.712,0-1.282-.172-1.71-.517-.428-.344-.642-.796-.642-1.355s.204-1.01.612-1.351c.408-.34,1.056-.51,1.944-.51h1.824v-.228c0-.496-.144-.876-.432-1.141-.288-.264-.712-.396-1.272-.396-.376,0-.744.062-1.104.186-.36.124-.665.29-.912.498l-.48-.863c.328-.265.72-.467,1.176-.606s.94-.21,1.452-.21c.88,0,1.554.216,2.022.647ZM363.156,96.249c.32-.195.552-.474.696-.834v-.888h-1.776c-.976,0-1.464.328-1.464.984,0,.319.124.571.372.756.248.184.592.275,1.032.275s.82-.098,1.14-.294Z" fill="#1d1d1b" stroke-width="0"/>
      <path d="M366.84,97.198c-.16-.156-.24-.354-.24-.594,0-.232.08-.426.24-.582.16-.156.352-.234.576-.234s.412.076.564.229c.152.151.228.348.228.588s-.078.438-.234.594-.342.234-.558.234c-.224,0-.416-.078-.576-.234Z" fill="#1d1d1b" stroke-width="0"/>
      <path d="M371.16,90.448v.552h1.849v.948h-1.824v5.412h-1.152v-5.412h-1.08v-.948h1.08v-.563c0-.632.184-1.132.552-1.5.368-.368.884-.552,1.548-.552.256,0,.496.031.72.096.224.064.416.156.576.276l-.348.876c-.264-.2-.56-.301-.888-.301-.688,0-1.032.372-1.032,1.116Z" fill="#1d1d1b" stroke-width="0"/>
      <path d="M377.052,91.228c.392-.192.868-.288,1.428-.288v1.116c-.064-.008-.152-.013-.264-.013-.624,0-1.114.187-1.47.559s-.534.902-.534,1.59v3.168h-1.151v-6.36h1.104v1.068c.2-.368.496-.648.888-.84Z" fill="#1d1d1b" stroke-width="0"/>
      <path d="M264.925,113.295h-1.596v2.064h-1.164v-2.064h-4.668v-.84l4.296-5.496h1.296l-4.116,5.305h3.229v-1.824h1.128v1.824h1.596v1.031Z" fill="#1d1d1b" stroke-width="0"/>
      <path d="M272.953,113.295h-1.596v2.064h-1.164v-2.064h-4.668v-.84l4.296-5.496h1.296l-4.116,5.305h3.228v-1.824h1.128v1.824h1.596v1.031Z" fill="#1d1d1b" stroke-width="0"/>
      <path d="M280.033,111.747c.256.345.384.756.384,1.236,0,.504-.136.942-.408,1.314-.272.371-.66.657-1.164.857s-1.096.3-1.776.3c-.672,0-1.258-.1-1.758-.3s-.886-.486-1.158-.857c-.272-.372-.408-.811-.408-1.314,0-.48.126-.892.378-1.236.252-.344.618-.607,1.098-.792-.384-.184-.676-.428-.876-.731s-.3-.664-.3-1.08c0-.464.126-.868.378-1.212s.606-.608,1.062-.792c.456-.185.984-.276,1.584-.276.608,0,1.142.092,1.602.276.46.184.816.448,1.068.792s.378.748.378,1.212c0,.408-.102.766-.306,1.074-.204.308-.498.554-.882.737.48.185.848.448,1.104.792ZM278.641,114.07c.384-.276.576-.649.576-1.122,0-.464-.192-.83-.576-1.098-.384-.269-.908-.402-1.572-.402s-1.184.134-1.56.402c-.376.268-.564.634-.564,1.098,0,.473.188.846.564,1.122s.896.414,1.56.414,1.188-.138,1.572-.414ZM275.725,108.201c-.328.244-.492.574-.492.99s.162.744.486.984c.324.239.774.359,1.35.359.583,0,1.042-.12,1.374-.359.332-.24.498-.568.498-.984s-.17-.746-.51-.99-.794-.366-1.362-.366-1.016.122-1.344.366Z" fill="#1d1d1b" stroke-width="0"/>
      <path d="M286.627,110.572c.436.208.778.506,1.026.895.248.388.372.834.372,1.338,0,.527-.13.992-.39,1.392-.26.4-.616.71-1.068.93-.452.221-.958.33-1.518.33-1.128,0-1.998-.363-2.61-1.092-.611-.728-.918-1.76-.918-3.096,0-.937.166-1.734.498-2.395s.796-1.159,1.393-1.5c.596-.34,1.29-.51,2.082-.51.408,0,.792.042,1.151.126.36.084.672.206.937.366l-.456.936c-.4-.264-.937-.396-1.608-.396-.872,0-1.556.27-2.052.81s-.744,1.326-.744,2.358c0,.128.004.228.012.3.24-.36.57-.634.99-.822.42-.188.895-.281,1.422-.281.552,0,1.046.104,1.482.312ZM286.345,114.039c.344-.296.516-.691.516-1.188s-.174-.89-.522-1.183c-.348-.292-.814-.438-1.398-.438-.376,0-.71.072-1.002.216-.292.145-.52.34-.684.588s-.246.524-.246.828c0,.296.078.566.234.811.156.244.384.439.684.588.3.147.658.222,1.074.222.552,0,1-.148,1.344-.444Z" fill="#1d1d1b" stroke-width="0"/>
      <path d="M290.587,114.946c-.517-.34-.922-.834-1.218-1.482-.296-.647-.444-1.415-.444-2.304s.147-1.656.444-2.304c.296-.648.702-1.142,1.218-1.482.516-.34,1.105-.51,1.77-.51.656,0,1.242.17,1.758.51.516.341.922.834,1.218,1.482.296.647.444,1.416.444,2.304s-.148,1.656-.444,2.304c-.296.648-.702,1.143-1.218,1.482s-1.102.51-1.758.51c-.664,0-1.254-.17-1.77-.51ZM293.971,113.56c.404-.552.606-1.353.606-2.4s-.202-1.848-.606-2.399c-.404-.553-.942-.828-1.614-.828-.68,0-1.222.275-1.626.828-.404.552-.606,1.352-.606,2.399s.202,1.849.606,2.4c.404.552.946.828,1.626.828.672,0,1.21-.276,1.614-.828Z" fill="#1d1d1b" stroke-width="0"/>
      <path d="M306.685,107.74c.624.521.936,1.236.936,2.148s-.312,1.628-.936,2.147c-.624.521-1.48.78-2.568.78h-2.076v2.544h-1.2v-8.4h3.275c1.088,0,1.944.261,2.568.78ZM305.821,111.285c.4-.324.601-.79.601-1.397s-.2-1.074-.601-1.398c-.4-.324-.979-.486-1.74-.486h-2.04v3.769h2.04c.76,0,1.34-.162,1.74-.486Z" fill="#1d1d1b" stroke-width="0"/>
      <path d="M310.213,115.012c-.504-.28-.898-.666-1.182-1.158s-.426-1.05-.426-1.674.142-1.183.426-1.674c.284-.492.678-.877,1.182-1.152.504-.276,1.072-.414,1.704-.414s1.198.138,1.698.414c.5.275.892.66,1.176,1.152.284.491.426,1.05.426,1.674s-.142,1.182-.426,1.674c-.284.492-.676.878-1.176,1.158-.5.279-1.066.42-1.698.42s-1.2-.141-1.704-.42ZM313.015,114.142c.324-.188.578-.452.762-.792.184-.34.276-.73.276-1.17s-.092-.83-.276-1.17c-.184-.34-.438-.603-.762-.786-.324-.185-.69-.276-1.099-.276s-.773.092-1.098.276c-.324.184-.58.446-.768.786s-.282.729-.282,1.17.094.83.282,1.17.444.604.768.792c.324.188.69.282,1.098.282s.774-.095,1.099-.282Z" fill="#1d1d1b" stroke-width="0"/>
      <path d="M322.135,109.642c.476.468.714,1.154.714,2.058v3.66h-1.152v-3.528c0-.615-.148-1.08-.444-1.392-.296-.312-.72-.468-1.271-.468-.624,0-1.116.182-1.477.546-.359.364-.54.886-.54,1.565v3.276h-1.151v-6.36h1.104v.96c.232-.327.546-.579.942-.756.396-.176.846-.264,1.35-.264.808,0,1.45.234,1.926.702Z" fill="#1d1d1b" stroke-width="0"/>
      <path d="M328.561,114.988c-.168.145-.376.254-.624.33s-.504.114-.769.114c-.64,0-1.136-.172-1.487-.517-.353-.344-.528-.836-.528-1.476v-3.492h-1.08v-.948h1.08v-1.392h1.152v1.392h1.824v.948h-1.824v3.444c0,.344.085.607.258.792.172.184.418.275.738.275.352,0,.652-.1.9-.3l.36.828Z" fill="#1d1d1b" stroke-width="0"/>
      <path d="M333.966,115.161c-.588-.195-1.05-.45-1.386-.762l.444-.937c.319.288.729.522,1.229.702.5.181,1.014.271,1.542.271.696,0,1.216-.118,1.561-.354.344-.235.516-.55.516-.941,0-.288-.094-.522-.282-.702-.188-.18-.42-.318-.696-.414s-.666-.204-1.17-.324c-.632-.151-1.142-.304-1.53-.456-.389-.151-.72-.386-.996-.702-.276-.315-.414-.741-.414-1.277,0-.448.118-.853.354-1.212.236-.36.594-.648,1.074-.864.48-.216,1.076-.324,1.788-.324.496,0,.984.064,1.464.192.48.128.892.312,1.236.552l-.396.96c-.352-.224-.728-.394-1.128-.51-.399-.116-.792-.174-1.176-.174-.68,0-1.19.124-1.53.372-.34.248-.51.567-.51.96,0,.287.096.521.288.701.192.181.43.32.714.42.284.101.67.206,1.158.318.632.152,1.14.305,1.524.456.384.152.714.384.99.696.276.312.414.731.414,1.26,0,.44-.12.842-.359,1.206-.24.364-.604.652-1.092.864s-1.088.317-1.8.317c-.632,0-1.242-.098-1.83-.294Z" fill="#1d1d1b" stroke-width="0"/>
      <path d="M344.97,109.587c.468.433.702,1.076.702,1.933v3.84h-1.092v-.84c-.192.296-.466.521-.822.678-.356.156-.778.234-1.266.234-.712,0-1.282-.172-1.71-.517-.428-.344-.642-.796-.642-1.355s.204-1.01.612-1.351c.408-.34,1.056-.51,1.944-.51h1.824v-.228c0-.496-.144-.876-.432-1.141-.288-.264-.712-.396-1.272-.396-.376,0-.744.062-1.104.186-.36.124-.664.29-.912.498l-.479-.863c.328-.265.72-.467,1.176-.606s.94-.21,1.452-.21c.88,0,1.554.216,2.021.647ZM343.825,114.249c.319-.195.552-.474.696-.834v-.888h-1.776c-.977,0-1.464.328-1.464.984,0,.319.124.571.372.756.248.184.592.275,1.032.275s.82-.098,1.14-.294Z" fill="#1d1d1b" stroke-width="0"/>
      <path d="M347.827,107.56c-.148-.145-.223-.32-.223-.528s.074-.386.223-.534c.147-.147.333-.222.558-.222s.41.07.558.21.222.314.222.522c0,.216-.074.397-.222.546-.148.147-.334.222-.558.222s-.41-.072-.558-.216ZM347.808,108.999h1.152v6.36h-1.152v-6.36Z" fill="#1d1d1b" stroke-width="0"/>
      <path d="M356.478,109.642c.476.468.714,1.154.714,2.058v3.66h-1.151v-3.528c0-.615-.148-1.08-.444-1.392-.296-.312-.72-.468-1.272-.468-.624,0-1.116.182-1.476.546-.36.364-.54.886-.54,1.565v3.276h-1.152v-6.36h1.104v.96c.232-.327.546-.579.942-.756.396-.176.846-.264,1.35-.264.808,0,1.45.234,1.926.702Z" fill="#1d1d1b" stroke-width="0"/>
      <path d="M362.904,114.988c-.168.145-.376.254-.624.33s-.504.114-.768.114c-.64,0-1.136-.172-1.488-.517-.352-.344-.528-.836-.528-1.476v-3.492h-1.08v-.948h1.08v-1.392h1.152v1.392h1.824v.948h-1.824v3.444c0,.344.085.607.258.792.172.184.418.275.738.275.353,0,.652-.1.9-.3l.36.828Z" fill="#1d1d1b" stroke-width="0"/>
      <path d="M375.48,115.36l-.012-6.12-3.036,5.101h-.552l-3.036-5.064v6.084h-1.152v-8.4h.984l3.504,5.904,3.456-5.904h.984l.012,8.4h-1.152Z" fill="#1d1d1b" stroke-width="0"/>
      <path d="M383.322,109.587c.468.433.702,1.076.702,1.933v3.84h-1.092v-.84c-.192.296-.466.521-.822.678-.356.156-.778.234-1.266.234-.712,0-1.282-.172-1.71-.517-.428-.344-.642-.796-.642-1.355s.204-1.01.612-1.351c.408-.34,1.056-.51,1.944-.51h1.824v-.228c0-.496-.144-.876-.432-1.141-.288-.264-.712-.396-1.272-.396-.376,0-.744.062-1.104.186-.36.124-.664.29-.912.498l-.48-.863c.328-.265.72-.467,1.176-.606s.939-.21,1.452-.21c.88,0,1.554.216,2.022.647ZM382.176,114.249c.32-.195.552-.474.696-.834v-.888h-1.775c-.977,0-1.464.328-1.464.984,0,.319.124.571.372.756.248.184.592.275,1.032.275s.82-.098,1.14-.294Z" fill="#1d1d1b" stroke-width="0"/>
      <path d="M388.152,109.228c.392-.192.868-.288,1.428-.288v1.116c-.064-.008-.152-.013-.264-.013-.624,0-1.114.187-1.47.559-.356.372-.534.902-.534,1.59v3.168h-1.152v-6.36h1.104v1.068c.2-.368.496-.648.888-.84Z" fill="#1d1d1b" stroke-width="0"/>
      <path d="M394.835,114.988c-.168.145-.376.254-.624.33s-.504.114-.768.114c-.64,0-1.136-.172-1.488-.517-.353-.344-.528-.836-.528-1.476v-3.492h-1.08v-.948h1.08v-1.392h1.152v1.392h1.824v.948h-1.824v3.444c0,.344.086.607.258.792.172.184.418.275.738.275.352,0,.652-.1.9-.3l.36.828Z" fill="#1d1d1b" stroke-width="0"/>
      <path d="M396.245,107.56c-.148-.145-.222-.32-.222-.528s.074-.386.222-.534c.148-.147.334-.222.558-.222s.41.07.559.21c.147.14.222.314.222.522,0,.216-.074.397-.222.546-.148.147-.334.222-.559.222s-.41-.072-.558-.216ZM396.227,108.999h1.152v6.36h-1.152v-6.36Z" fill="#1d1d1b" stroke-width="0"/>
      <path d="M404.897,109.642c.476.468.714,1.154.714,2.058v3.66h-1.152v-3.528c0-.615-.148-1.08-.444-1.392-.296-.312-.72-.468-1.271-.468-.624,0-1.116.182-1.477.546-.359.364-.54.886-.54,1.565v3.276h-1.151v-6.36h1.104v.96c.232-.327.546-.579.942-.756.396-.176.846-.264,1.35-.264.808,0,1.45.234,1.926.702Z" fill="#1d1d1b" stroke-width="0"/>
      <path d="M259.273,132.97c-.528-.34-.944-.836-1.248-1.488s-.456-1.426-.456-2.322.151-1.67.456-2.322c.304-.651.72-1.147,1.248-1.487s1.128-.51,1.8-.51,1.273.17,1.806.51.95.836,1.254,1.487c.304.652.456,1.427.456,2.322s-.152,1.67-.456,2.322c-.304.652-.722,1.148-1.254,1.488s-1.134.51-1.806.51-1.272-.17-1.8-.51ZM262.495,131.379c.348-.495.522-1.235.522-2.22s-.174-1.724-.522-2.22c-.348-.496-.822-.744-1.422-.744-.592,0-1.062.248-1.41.744-.348.496-.522,1.236-.522,2.22s.174,1.725.522,2.22c.348.497.818.744,1.41.744.6,0,1.074-.247,1.422-.744Z" fill="#1d1d1b" stroke-width="0"/>
      <path d="M271.669,132.039v1.32h-6.192v-1.044l3.336-3.168c.375-.36.63-.674.762-.942.132-.268.198-.534.198-.798,0-.392-.132-.691-.396-.899-.264-.208-.652-.312-1.164-.312-.856,0-1.512.292-1.968.876l-1.092-.84c.328-.44.77-.782,1.326-1.026.556-.243,1.178-.365,1.866-.365.912,0,1.64.216,2.184.647s.816,1.021.816,1.764c0,.456-.096.885-.288,1.284-.192.4-.56.856-1.104,1.368l-2.244,2.136h3.96Z" fill="#1d1d1b" stroke-width="0"/>
      <path d="M282.343,129.753c.235.341.354.738.354,1.194,0,.512-.142.96-.426,1.344-.284.385-.686.679-1.206.883-.52.203-1.124.306-1.812.306s-1.29-.103-1.806-.306c-.516-.204-.914-.498-1.194-.883-.28-.384-.42-.832-.42-1.344,0-.456.116-.854.348-1.194.232-.34.564-.609.996-.81-.336-.184-.594-.426-.774-.726-.18-.301-.27-.646-.27-1.038,0-.473.13-.884.39-1.236.26-.352.626-.624,1.098-.816.472-.191,1.016-.287,1.632-.287.624,0,1.172.096,1.644.287.472.192.84.465,1.104.816.264.353.396.764.396,1.236,0,.392-.092.735-.276,1.031-.184.297-.448.54-.792.732.44.2.778.47,1.014.81ZM280.621,131.896c.336-.24.504-.572.504-.996,0-.416-.168-.744-.504-.984-.336-.239-.792-.359-1.368-.359s-1.028.12-1.356.359c-.328.24-.492.568-.492.984,0,.424.164.756.492.996s.78.36,1.356.36,1.032-.12,1.368-.36ZM278.095,126.375c-.284.209-.426.5-.426.876,0,.36.142.646.426.858.284.212.67.318,1.158.318.496,0,.888-.106,1.176-.318s.432-.498.432-.858c0-.376-.146-.667-.438-.876-.292-.208-.683-.312-1.17-.312s-.874.104-1.158.312Z" fill="#1d1d1b" stroke-width="0"/>
      <path d="M288.961,128.902c.568.46.852,1.086.852,1.878,0,.504-.124.96-.372,1.368s-.62.731-1.116.972-1.108.36-1.836.36c-.6,0-1.18-.086-1.74-.258s-1.032-.41-1.416-.714l.66-1.213c.312.257.687.459,1.122.606.437.148.886.222,1.351.222.552,0,.985-.113,1.302-.342.316-.228.474-.542.474-.941,0-.433-.17-.759-.51-.979s-.922-.33-1.746-.33h-2.028l.432-4.572h4.932v1.309h-3.612l-.18,1.943h.804c1.184,0,2.06.23,2.628.69Z" fill="#1d1d1b" stroke-width="0"/>
      <path d="M299.281,128.902c.568.46.852,1.086.852,1.878,0,.504-.124.96-.372,1.368s-.62.731-1.116.972-1.108.36-1.836.36c-.601,0-1.181-.086-1.74-.258-.56-.172-1.032-.41-1.416-.714l.66-1.213c.312.257.686.459,1.122.606.436.148.886.222,1.35.222.552,0,.986-.113,1.302-.342.316-.228.474-.542.474-.941,0-.433-.17-.759-.51-.979s-.922-.33-1.746-.33h-2.028l.432-4.572h4.933v1.309h-3.612l-.18,1.943h.804c1.184,0,2.06.23,2.628.69Z" fill="#1d1d1b" stroke-width="0"/>
      <path d="M307.057,132.039v1.32h-6.192v-1.044l3.336-3.168c.375-.36.63-.674.762-.942.132-.268.198-.534.198-.798,0-.392-.132-.691-.396-.899-.264-.208-.652-.312-1.164-.312-.856,0-1.512.292-1.968.876l-1.092-.84c.328-.44.77-.782,1.326-1.026.556-.243,1.178-.365,1.866-.365.912,0,1.64.216,2.184.647s.816,1.021.816,1.764c0,.456-.096.885-.288,1.284-.191.4-.56.856-1.104,1.368l-2.244,2.136h3.96Z" fill="#1d1d1b" stroke-width="0"/>
      <path d="M312.973,132.97c-.528-.34-.944-.836-1.248-1.488s-.456-1.426-.456-2.322.151-1.67.456-2.322c.304-.651.72-1.147,1.248-1.487s1.128-.51,1.8-.51,1.273.17,1.806.51.95.836,1.254,1.487c.304.652.456,1.427.456,2.322s-.152,1.67-.456,2.322c-.304.652-.722,1.148-1.254,1.488s-1.134.51-1.806.51-1.272-.17-1.8-.51ZM316.195,131.379c.348-.495.522-1.235.522-2.22s-.174-1.724-.522-2.22c-.348-.496-.822-.744-1.422-.744-.592,0-1.062.248-1.41.744-.348.496-.522,1.236-.522,2.22s.174,1.725.522,2.22c.348.497.818.744,1.41.744.6,0,1.074-.247,1.422-.744Z" fill="#1d1d1b" stroke-width="0"/>
      <path d="M321.048,132.97c-.528-.34-.944-.836-1.248-1.488s-.456-1.426-.456-2.322.152-1.67.456-2.322c.304-.651.72-1.147,1.248-1.487.528-.34,1.128-.51,1.8-.51s1.274.17,1.806.51.95.836,1.254,1.487c.304.652.456,1.427.456,2.322s-.152,1.67-.456,2.322c-.305.652-.723,1.148-1.254,1.488s-1.134.51-1.806.51-1.271-.17-1.8-.51ZM324.27,131.379c.348-.495.522-1.235.522-2.22s-.174-1.724-.522-2.22-.822-.744-1.422-.744c-.592,0-1.062.248-1.41.744s-.522,1.236-.522,2.22.174,1.725.522,2.22c.348.497.818.744,1.41.744.601,0,1.074-.247,1.422-.744Z" fill="#1d1d1b" stroke-width="0"/>
      <path d="M332.436,132.97c-.528-.34-.944-.836-1.248-1.488s-.456-1.426-.456-2.322.152-1.67.456-2.322c.304-.651.72-1.147,1.248-1.487.528-.34,1.128-.51,1.8-.51s1.274.17,1.806.51.95.836,1.254,1.487c.304.652.456,1.427.456,2.322s-.152,1.67-.456,2.322c-.305.652-.723,1.148-1.254,1.488s-1.134.51-1.806.51-1.271-.17-1.8-.51ZM335.658,131.379c.348-.495.522-1.235.522-2.22s-.174-1.724-.522-2.22-.822-.744-1.422-.744c-.592,0-1.062.248-1.41.744s-.522,1.236-.522,2.22.174,1.725.522,2.22c.348.497.818.744,1.41.744.601,0,1.074-.247,1.422-.744Z" fill="#1d1d1b" stroke-width="0"/>
      <path d="M344.04,129.22c.408.432.612.972.612,1.62,0,.487-.124.932-.372,1.331-.249.4-.623.719-1.122.954-.5.236-1.11.354-1.83.354-.6,0-1.178-.086-1.734-.258-.556-.172-1.03-.41-1.422-.714l.672-1.213c.304.257.674.459,1.11.606.436.148.886.222,1.35.222.552,0,.986-.113,1.302-.342.316-.228.474-.538.474-.93s-.15-.698-.45-.918c-.3-.22-.758-.33-1.374-.33h-.769v-1.068l1.908-2.268h-3.816v-1.309h5.724v1.044l-2.04,2.425c.776.096,1.368.359,1.776.792Z" fill="#1d1d1b" stroke-width="0"/>
      <path d="M352.056,123.256h1.344l-3.96,11.304h-1.344l3.96-11.304Z" fill="#1d1d1b" stroke-width="0"/>
      <path d="M358.452,132.97c-.528-.34-.944-.836-1.248-1.488-.304-.652-.456-1.426-.456-2.322s.152-1.67.456-2.322c.304-.651.72-1.147,1.248-1.487.528-.34,1.128-.51,1.8-.51s1.274.17,1.806.51c.532.34.95.836,1.254,1.487.304.652.456,1.427.456,2.322s-.152,1.67-.456,2.322-.722,1.148-1.254,1.488c-.532.34-1.134.51-1.806.51s-1.272-.17-1.8-.51ZM361.673,131.379c.348-.495.522-1.235.522-2.22s-.174-1.724-.522-2.22c-.348-.496-.822-.744-1.422-.744-.592,0-1.062.248-1.41.744-.348.496-.521,1.236-.521,2.22s.174,1.725.521,2.22c.348.497.818.744,1.41.744.6,0,1.074-.247,1.422-.744Z" fill="#1d1d1b" stroke-width="0"/>
      <path d="M370.127,128.493c.44.212.784.515,1.032.906.248.392.372.844.372,1.356,0,.544-.137,1.021-.408,1.434-.272.412-.64.73-1.104.954-.464.224-.984.336-1.56.336-1.152,0-2.046-.36-2.682-1.08s-.954-1.752-.954-3.096c0-.944.172-1.75.516-2.418s.826-1.177,1.446-1.524c.62-.348,1.338-.521,2.154-.521.432,0,.838.046,1.218.138.38.092.709.226.99.401l-.576,1.177c-.416-.272-.948-.408-1.596-.408-.808,0-1.439.248-1.896.744s-.684,1.212-.684,2.147v.013c.248-.288.564-.506.948-.654s.816-.222,1.296-.222c.552,0,1.048.105,1.488.317ZM369.563,131.866c.304-.26.456-.605.456-1.038,0-.439-.152-.788-.456-1.044s-.712-.384-1.224-.384c-.504,0-.914.136-1.23.408-.316.271-.474.616-.474,1.032,0,.407.154.745.462,1.014.308.268.734.402,1.278.402.488,0,.884-.131,1.188-.391Z" fill="#1d1d1b" stroke-width="0"/>
      <path d="M381.995,124.959v1.044l-3.264,7.356h-1.668l3.156-7.08h-3.3v1.428h-1.452v-2.748h6.528Z" fill="#1d1d1b" stroke-width="0"/>
      <path d="M385.979,124.959v8.4h-1.56v-7.092h-1.776v-1.309h3.336Z" fill="#1d1d1b" stroke-width="0"/>
      <path d="M392.662,132.97c-.528-.34-.944-.836-1.248-1.488s-.456-1.426-.456-2.322.152-1.67.456-2.322c.304-.651.72-1.147,1.248-1.487.528-.34,1.128-.51,1.8-.51s1.274.17,1.806.51.95.836,1.254,1.487c.304.652.456,1.427.456,2.322s-.152,1.67-.456,2.322c-.305.652-.723,1.148-1.254,1.488s-1.134.51-1.806.51-1.271-.17-1.8-.51ZM395.885,131.379c.348-.495.522-1.235.522-2.22s-.174-1.724-.522-2.22-.822-.744-1.422-.744c-.592,0-1.062.248-1.41.744s-.522,1.236-.522,2.22.174,1.725.522,2.22c.348.497.818.744,1.41.744.601,0,1.074-.247,1.422-.744Z" fill="#1d1d1b" stroke-width="0"/>
      <path d="M405.059,132.039v1.32h-6.192v-1.044l3.336-3.168c.376-.36.63-.674.762-.942.132-.268.198-.534.198-.798,0-.392-.132-.691-.396-.899-.265-.208-.652-.312-1.164-.312-.856,0-1.512.292-1.968.876l-1.092-.84c.328-.44.771-.782,1.326-1.026.556-.243,1.178-.365,1.866-.365.912,0,1.64.216,2.184.647s.816,1.021.816,1.764c0,.456-.096.885-.288,1.284-.192.4-.56.856-1.104,1.368l-2.244,2.136h3.96Z" fill="#1d1d1b" stroke-width="0"/>
      <path d="M412.174,124.959v8.4h-1.56v-7.092h-1.776v-1.309h3.336Z" fill="#1d1d1b" stroke-width="0"/>
      <path d="M419.146,128.493c.44.212.784.515,1.032.906s.372.844.372,1.356c0,.544-.136,1.021-.408,1.434-.271.412-.64.73-1.104.954s-.984.336-1.56.336c-1.152,0-2.046-.36-2.682-1.08s-.954-1.752-.954-3.096c0-.944.172-1.75.516-2.418s.826-1.177,1.446-1.524,1.338-.521,2.154-.521c.432,0,.838.046,1.218.138s.71.226.99.401l-.576,1.177c-.416-.272-.948-.408-1.596-.408-.809,0-1.44.248-1.896.744s-.684,1.212-.684,2.147v.013c.248-.288.564-.506.948-.654.384-.148.815-.222,1.296-.222.552,0,1.048.105,1.488.317ZM418.582,131.866c.304-.26.456-.605.456-1.038,0-.439-.152-.788-.456-1.044-.304-.256-.712-.384-1.224-.384-.504,0-.914.136-1.23.408-.316.271-.474.616-.474,1.032,0,.407.153.745.462,1.014.308.268.733.402,1.278.402.488,0,.884-.131,1.188-.391Z" fill="#1d1d1b" stroke-width="0"/>
      <path d="M432.166,131.451h-1.488v1.908h-1.512v-1.908h-4.608v-1.08l4.14-5.412h1.668l-3.9,5.173h2.748v-1.692h1.464v1.692h1.488v1.319Z" fill="#1d1d1b" stroke-width="0"/>
      <path d="M438.058,129.22c.408.432.612.972.612,1.62,0,.487-.124.932-.372,1.331-.249.4-.623.719-1.122.954-.5.236-1.11.354-1.83.354-.6,0-1.178-.086-1.734-.258-.556-.172-1.03-.41-1.422-.714l.672-1.213c.304.257.674.459,1.11.606.436.148.886.222,1.35.222.552,0,.986-.113,1.302-.342.316-.228.474-.538.474-.93s-.15-.698-.45-.918-.758-.33-1.374-.33h-.768v-1.068l1.908-2.268h-3.816v-1.309h5.724v1.044l-2.04,2.425c.776.096,1.368.359,1.776.792Z" fill="#1d1d1b" stroke-width="0"/>
    </g>
    <rect x="247.124" width="2" height="150" fill="#272824" stroke-width="0"/>
  </g>
  <rect width="522" height="150" fill="none" stroke-width="0"/>
</svg>