<?xml version="1.0" encoding="UTF-8"?>
<svg id="Calque_1" data-name="Calque 1" xmlns="http://www.w3.org/2000/svg" version="1.1" xmlns:xlink="http://www.w3.org/1999/xlink" viewBox="0 0 521.787 150">
  <defs>
    <linearGradient id="linear-gradient" x1="10.321" y1="81.43" x2="43.771" y2="53.598" gradientUnits="userSpaceOnUse">
      <stop offset="0" stop-color="#eaca85"/>
      <stop offset="1" stop-color="#815b38"/>
    </linearGradient>
    <linearGradient id="linear-gradient-2" x1="21.683" y1="95.086" x2="55.133" y2="67.253" xlink:href="#linear-gradient"/>
    <linearGradient id="linear-gradient-3" x1="13.27" y1="84.974" x2="46.72" y2="57.142" xlink:href="#linear-gradient"/>
    <linearGradient id="linear-gradient-4" x1="21.406" y1="94.752" x2="54.856" y2="66.92" xlink:href="#linear-gradient"/>
    <linearGradient id="linear-gradient-5" x1="30.232" y1="105.359" x2="63.681" y2="77.527" xlink:href="#linear-gradient"/>
    <linearGradient id="linear-gradient-6" x1="15.302" y1="87.417" x2="48.752" y2="59.584" xlink:href="#linear-gradient"/>
    <linearGradient id="linear-gradient-7" x1="38.799" y1="115.656" x2="72.249" y2="87.824" xlink:href="#linear-gradient"/>
    <linearGradient id="linear-gradient-8" x1="38.088" y1="114.801" x2="71.538" y2="86.969" xlink:href="#linear-gradient"/>
    <linearGradient id="linear-gradient-9" x1="26.158" y1="100.464" x2="59.608" y2="72.631" xlink:href="#linear-gradient"/>
    <linearGradient id="linear-gradient-10" x1="26.19" y1="100.502" x2="59.64" y2="72.67" xlink:href="#linear-gradient"/>
    <linearGradient id="linear-gradient-11" x1="13.194" y1="84.883" x2="46.644" y2="57.051" xlink:href="#linear-gradient"/>
    <linearGradient id="linear-gradient-12" x1="13.37" y1="85.094" x2="46.82" y2="57.262" xlink:href="#linear-gradient"/>
    <linearGradient id="linear-gradient-13" x1="6.998" y1="77.436" x2="40.448" y2="49.604" xlink:href="#linear-gradient"/>
    <linearGradient id="linear-gradient-14" x1="7.158" y1="77.629" x2="40.608" y2="49.796" xlink:href="#linear-gradient"/>
    <linearGradient id="linear-gradient-15" x1="10.146" y1="81.219" x2="43.595" y2="53.387" xlink:href="#linear-gradient"/>
    <linearGradient id="linear-gradient-16" x1="11.115" y1="82.385" x2="44.565" y2="54.553" xlink:href="#linear-gradient"/>
  </defs>
  <g>
    <g>
      <g>
        <path d="M81.305,91.492c-1.075,1.587-3.366,3.097-6.87,4.529-3.506,1.433-6.897,2.149-10.171,2.149-2.815,0-5.604-.486-8.367-1.459-3.276-1.177-6.064-2.942-8.367-5.297-1.945-1.996-3.506-4.401-4.683-7.216-1.331-3.172-1.996-6.499-1.996-9.979,0-2.507.549-5.168,1.65-7.983,1.1-2.814,2.725-5.297,4.875-7.446,2.405-2.405,5.117-4.209,8.137-5.412,3.019-1.202,5.884-1.804,8.597-1.804,1.637,0,3.378.243,5.22.729,1.842.487,3.582,1.216,5.22,2.188.716.41,1.151.819,1.305,1.228.154.41.154.742,0,.998-.308.359-.693.359-1.155,0-.205-.204-.602-.511-1.192-.921-.59-.409-1.347-.844-2.271-1.305-.924-.461-1.925-.831-3.002-1.113-1.077-.281-2.437-.422-4.079-.422-2.053,0-4.002.397-5.85,1.19-1.847.794-3.643,2.034-5.387,3.723-4.106,3.941-6.158,9.494-6.158,16.658,0,7.779,2.128,13.792,6.386,18.04,1.128,1.126,2.871,2.137,5.231,3.032,2.359.896,4.513,1.343,6.462,1.343,2.871,0,5.629-.601,8.27-1.804,2.641-1.202,4.707-2.674,6.194-4.414.667-.768,1.334-.921,2.001-.461.409.307.409.717,0,1.228Z" fill="#131328" stroke-width="0"/>
        <path d="M92.863,86.916l-3.343.015-2.349-4.897c-.66.288-1.191.504-1.595.649-1.357.468-2.585.702-3.685.702-.99,0-2.677-.386-5.06-1.159-1.247-.404-2.218-.607-2.915-.607-.55,0-1.054.093-1.512.279-.459.186-.816.502-1.073.948l-1.65,3.68c-.147.26-.368.391-.661.391-.257,0-.33-.202-.22-.607l11.368-26.559,12.694,27.166ZM86.781,81.071l-.118-.383-7.596-16.258-6.952,16.803c.918-.295,1.791-.561,2.619-.801.827-.24,1.571-.36,2.234-.36.955,0,2.002.184,3.142.552,2.61.847,4.282,1.269,5.018,1.269.368,0,.735-.054,1.102-.165.367-.11.552-.329.552-.658Z" fill="#131328" stroke-width="0"/>
        <path d="M120.876,86.613h-3.145v-26.545h3.145v26.545Z" fill="#131328" stroke-width="0"/>
        <path d="M143.462,60.384v25.876c-.073.333-.146.5-.22.5l-.769-.666-16.171-24.167v24.226c-.147.222-.313.332-.497.332-.221,0-.387-.128-.497-.387v-26.158l3.208-.007,13.952,21.778v-21.325c0-.297.146-.446.441-.446.294-.073.478.075.552.444Z" fill="#131328" stroke-width="0"/>
        <path d="M164.284,79.576c0,2.024-.782,3.744-2.345,5.16-1.564,1.417-3.358,2.125-5.38,2.125-1.509,0-2.806-.267-3.891-.8-1.086-.533-2.272-1.37-3.559-2.511-.331-.294-.616-.616-.856-.966-.239-.349-.359-.653-.359-.911,0-.442.166-.662.497-.662.147,0,.386.301.717.901.331.6.754,1.137,1.269,1.61.736.691,1.508,1.237,2.318,1.637,1.104.546,2.281.818,3.532.818,1.655,0,3.007-.486,4.056-1.459,1.049-.973,1.573-2.212,1.573-3.717,0-.735-.175-1.487-.524-2.258-.35-.771-.911-1.578-1.683-2.423-1.545-1.211-2.879-2.275-4.001-3.194-1.123-.917-1.959-1.67-2.511-2.258-.736-.734-1.316-1.615-1.738-2.643-.423-1.028-.634-1.909-.634-2.644,0-.586.138-1.275.414-2.064.276-.79.668-1.462,1.187-2.011,1.122-1.187,2.749-1.487,3.973-1.487.736,0,1.508.166,2.318.497.809.331,1.214.644,1.214.938s-.147.441-.441.441c-.147,0-.497-.166-1.049-.497-.552-.331-1.251-.497-2.097-.497-1.178,0-2.061.331-2.649.993-.589.662-.883,1.472-.883,2.428,0,.626.128,1.196.386,1.711.257.516.791,1.214,1.601,2.097l3.09,2.815c1.324.993,2.078,1.573,2.262,1.738.184.166.533.506,1.049,1.021,1.03,1.031,1.812,1.996,2.345,2.897.533.902.8,1.959.8,3.173Z" fill="#131328" stroke-width="0"/>
        <path d="M171.862,86.613h-3.146v-26.545h3.146v26.545Z" fill="#131328" stroke-width="0"/>
        <path d="M200.406,86.916l-3.343.015-2.349-4.897c-.661.288-1.191.504-1.595.649-1.357.468-2.585.702-3.685.702-.99,0-2.677-.386-5.06-1.159-1.247-.404-2.218-.607-2.915-.607-.55,0-1.054.093-1.512.279-.459.186-.816.502-1.073.948l-1.65,3.68c-.147.26-.367.391-.661.391-.257,0-.331-.202-.22-.607l11.368-26.559,12.694,27.166ZM194.324,81.071l-.118-.383-7.596-16.258-6.952,16.803c.918-.295,1.791-.561,2.619-.801.827-.24,1.571-.36,2.233-.36.955,0,2.002.185,3.142.552,2.61.847,4.282,1.269,5.018,1.269.368,0,.735-.054,1.102-.165.367-.11.552-.329.552-.658Z" fill="#131328" stroke-width="0"/>
        <path d="M113.293,86.246c0-.007.006-.013.006-.02,0-.011-.007-.021-.009-.032,0-.043.003-.085-.009-.134,0-.295-.149-.441-.446-.441h-12.339v-25.551h-3.201v26.545h15.542c.228-.046.361-.138.421-.268.011-.016.015-.033.022-.049.004-.017.012-.032.014-.05Z" fill="#131328" stroke-width="0"/>
      </g>
      <g>
        <path d="M86.995,91.187h.588v3.787h1.992v.552h-2.58v-4.339Z" fill="#131328" stroke-width="0"/>
        <path d="M93.393,95.636c-.331,0-.635-.058-.913-.175-.278-.116-.516-.277-.714-.481-.198-.204-.354-.445-.466-.723-.112-.278-.169-.578-.169-.901s.056-.623.169-.901c.112-.278.268-.519.466-.723.198-.204.436-.365.714-.481.278-.116.582-.175.913-.175s.635.058.913.175c.278.117.516.277.714.481.198.204.353.445.466.723.113.278.169.578.169.901s-.056.623-.169.901c-.112.278-.268.519-.466.723-.198.204-.436.365-.714.481-.278.116-.582.175-.913.175ZM93.393,95.084c.249,0,.474-.046.674-.138.2-.092.372-.215.515-.371.143-.155.253-.338.331-.548.078-.21.116-.434.116-.671s-.039-.46-.116-.671c-.078-.21-.188-.393-.331-.549-.143-.155-.314-.279-.515-.371-.2-.092-.425-.138-.674-.138s-.474.046-.674.138c-.2.092-.372.216-.515.371-.143.155-.253.338-.331.549-.078.21-.116.434-.116.671s.039.461.116.671c.078.21.188.393.331.548.143.156.314.279.515.371.2.092.425.138.674.138Z" fill="#131328" stroke-width="0"/>
        <path d="M97.131,91.187h.68l1.275,3.53h.012l1.324-3.53h.643l-1.71,4.339h-.552l-1.673-4.339Z" fill="#131328" stroke-width="0"/>
        <path d="M102.812,91.187h2.801v.552h-2.212v1.293h2.059v.552h-2.059v1.391h2.322v.552h-2.911v-4.339Z" fill="#131328" stroke-width="0"/>
        <path d="M110.711,91.187h1.526c.278,0,.507.038.686.113.18.076.322.172.426.288.104.116.177.247.218.392.04.145.061.285.061.42,0,.139-.025.273-.074.401-.049.129-.12.245-.211.349-.092.104-.204.193-.337.264-.133.071-.281.115-.444.132l1.232,1.979h-.735l-1.103-1.912h-.656v1.912h-.589v-4.339ZM111.299,93.099h.772c.115,0,.228-.009.34-.027.113-.018.212-.052.3-.101.088-.049.159-.12.211-.211.053-.092.08-.211.08-.359s-.026-.266-.08-.359c-.053-.092-.123-.162-.211-.211-.088-.049-.188-.083-.3-.101-.112-.018-.225-.028-.34-.028h-.772v1.397Z" fill="#131328" stroke-width="0"/>
        <path d="M117.673,95.636c-.331,0-.635-.058-.913-.175-.278-.116-.516-.277-.714-.481-.198-.204-.354-.445-.466-.723-.112-.278-.169-.578-.169-.901s.056-.623.169-.901c.112-.278.268-.519.466-.723.198-.204.436-.365.714-.481.278-.116.582-.175.913-.175s.635.058.913.175c.278.117.516.277.714.481.198.204.354.445.466.723.112.278.169.578.169.901s-.056.623-.169.901c-.112.278-.268.519-.466.723-.198.204-.436.365-.714.481-.278.116-.582.175-.913.175ZM117.673,95.084c.249,0,.474-.046.674-.138.2-.092.372-.215.515-.371.143-.155.253-.338.331-.548.078-.21.116-.434.116-.671s-.038-.46-.116-.671c-.078-.21-.188-.393-.331-.549-.143-.155-.314-.279-.515-.371-.2-.092-.425-.138-.674-.138s-.474.046-.674.138c-.2.092-.372.216-.515.371-.143.155-.253.338-.331.549-.078.21-.116.434-.116.671s.038.461.116.671c.078.21.188.393.331.548.143.156.314.279.515.371.2.092.425.138.674.138Z" fill="#131328" stroke-width="0"/>
        <path d="M123.997,95.636c-.331,0-.635-.058-.913-.175-.278-.116-.516-.277-.714-.481-.198-.204-.353-.445-.466-.723-.112-.278-.168-.578-.168-.901s.056-.623.168-.901c.113-.278.268-.519.466-.723.199-.204.436-.365.714-.481.278-.116.582-.175.913-.175s.635.058.913.175c.278.117.516.277.714.481.198.204.354.445.466.723.112.278.169.578.169.901s-.056.623-.169.901c-.112.278-.267.519-.466.723-.198.204-.436.365-.714.481-.278.116-.582.175-.913.175ZM123.997,95.084c.249,0,.474-.046.674-.138.2-.092.372-.215.515-.371.143-.155.253-.338.331-.548.078-.21.117-.434.117-.671s-.039-.46-.117-.671c-.077-.21-.188-.393-.331-.549-.143-.155-.315-.279-.515-.371-.2-.092-.425-.138-.674-.138s-.474.046-.674.138c-.2.092-.372.216-.515.371s-.253.338-.331.549c-.077.21-.116.434-.116.671s.039.461.116.671c.078.21.188.393.331.548.143.156.315.279.515.371.2.092.425.138.674.138Z" fill="#131328" stroke-width="0"/>
        <path d="M128.286,91.187h.876l1.379,3.285h.024l1.367-3.285h.876v4.339h-.589v-3.567h-.012l-1.465,3.567h-.392l-1.465-3.567h-.012v3.567h-.589v-4.339Z" fill="#131328" stroke-width="0"/>
        <path d="M141.842,95.526h-.79l-.533-.576c-.184.22-.379.39-.585.509-.206.118-.454.178-.745.178-.245,0-.457-.036-.637-.107-.18-.071-.328-.167-.444-.285-.117-.119-.202-.252-.258-.401-.055-.149-.082-.303-.082-.463,0-.151.026-.289.079-.413.053-.125.125-.238.214-.34.09-.102.195-.194.316-.276.121-.082.246-.153.377-.214-.139-.147-.258-.298-.359-.454-.1-.155-.15-.339-.15-.552,0-.163.031-.308.095-.435.063-.127.148-.233.254-.319s.229-.151.368-.196c.139-.045.286-.067.441-.067.151,0,.295.02.432.061.137.041.256.102.359.184.102.082.183.184.242.307.059.122.089.265.089.429,0,.135-.026.258-.08.371-.053.113-.122.214-.208.307-.086.092-.182.174-.288.245-.106.071-.214.136-.325.193l.858.895.546-.889h.668l-.839,1.299.986,1.011ZM139.121,93.479c-.086.049-.173.102-.26.159-.088.057-.167.121-.236.19-.07.07-.126.148-.169.236-.043.088-.064.187-.064.297,0,.106.022.205.067.297.045.092.106.173.184.242.077.069.164.123.26.162.096.039.197.058.303.058s.205-.016.297-.049c.092-.033.178-.075.257-.126.08-.051.153-.109.221-.175.067-.065.13-.133.187-.202l-1.048-1.091ZM139.936,92.094c0-.143-.049-.256-.147-.34-.098-.084-.225-.126-.38-.126s-.29.044-.404.132c-.115.088-.172.213-.172.377,0,.073.013.143.04.208.026.065.061.129.104.19.043.061.089.119.138.172.049.053.098.104.147.153.073-.041.15-.086.23-.135.079-.049.152-.104.217-.165.065-.061.119-.13.162-.205.043-.076.064-.163.064-.26Z" fill="#131328" stroke-width="0"/>
        <path d="M146.744,94.618c.106.16.242.277.407.353.166.076.336.113.512.113.098,0,.199-.015.301-.046.102-.03.195-.076.279-.138.083-.061.152-.137.205-.227.053-.09.08-.194.08-.313,0-.168-.053-.295-.159-.383-.107-.088-.238-.161-.396-.22-.157-.059-.329-.117-.515-.172-.186-.055-.358-.132-.515-.23-.158-.098-.289-.23-.395-.395-.106-.165-.159-.389-.159-.671,0-.127.027-.261.082-.404.055-.143.142-.274.261-.393s.27-.217.456-.297c.186-.08.409-.12.671-.12.237,0,.463.033.68.098.216.065.406.198.57.398l-.478.435c-.073-.115-.178-.206-.313-.276-.135-.069-.288-.104-.459-.104-.164,0-.3.021-.407.064-.109.043-.195.098-.261.166-.065.067-.111.14-.138.217-.027.078-.04.149-.04.214,0,.184.053.325.159.423.106.098.238.178.396.239.157.061.329.117.515.166.186.049.358.117.515.205.158.088.289.206.395.356s.159.355.159.616c0,.208-.039.396-.119.564-.08.168-.187.308-.322.422-.135.115-.294.202-.478.264-.184.061-.38.092-.588.092-.278,0-.542-.049-.791-.147-.249-.098-.447-.249-.594-.453l.484-.417Z" fill="#131328" stroke-width="0"/>
        <path d="M151.248,91.187h1.526c.278,0,.507.038.686.113.18.076.322.172.426.288.104.116.177.247.217.392.041.145.061.285.061.42s-.02.275-.061.42c-.041.145-.113.276-.217.392-.104.117-.246.212-.426.288-.18.075-.408.113-.686.113h-.938v1.912h-.589v-4.339ZM151.837,93.099h.772c.114,0,.228-.009.34-.027.112-.018.212-.052.3-.101.088-.049.159-.12.211-.211.053-.092.08-.211.08-.359s-.026-.266-.08-.359c-.053-.092-.124-.162-.211-.211-.088-.049-.188-.083-.3-.101-.112-.018-.226-.028-.34-.028h-.772v1.397Z" fill="#131328" stroke-width="0"/>
        <path d="M157.015,91.187h.533l1.857,4.339h-.686l-.435-1.072h-2.065l-.429,1.072h-.687l1.912-4.339ZM158.07,93.938l-.809-1.991h-.012l-.821,1.991h1.643Z" fill="#131328" stroke-width="0"/>
        <path d="M164.013,93.356c0-.151.028-.292.086-.423.057-.131.135-.245.233-.343.098-.098.212-.176.343-.233.131-.057.272-.086.423-.086s.292.028.423.086c.131.057.245.135.343.233.098.098.176.212.233.343.057.131.086.272.086.423s-.028.292-.086.423-.135.245-.233.343c-.098.098-.212.176-.343.233-.131.057-.272.086-.423.086s-.292-.028-.423-.086c-.131-.057-.245-.135-.343-.233-.098-.098-.176-.212-.233-.343s-.086-.272-.086-.423Z" fill="#131328" stroke-width="0"/>
        <path d="M171.343,91.187h.772l2.39,3.567h.012v-3.567h.588v4.339h-.748l-2.415-3.567h-.012v3.567h-.588v-4.339Z" fill="#131328" stroke-width="0"/>
        <path d="M178.807,91.187h.533l1.857,4.339h-.686l-.435-1.072h-2.065l-.429,1.072h-.687l1.912-4.339ZM179.861,93.938l-.809-1.991h-.012l-.821,1.991h1.643Z" fill="#131328" stroke-width="0"/>
        <path d="M182.986,91.187h.772l2.39,3.567h.012v-3.567h.588v4.339h-.748l-2.415-3.567h-.012v3.567h-.588v-4.339Z" fill="#131328" stroke-width="0"/>
        <path d="M189.997,91.738h-1.397v-.552h3.383v.552h-1.397v3.787h-.588v-3.787Z" fill="#131328" stroke-width="0"/>
        <path d="M193.833,91.187h2.801v.552h-2.212v1.293h2.059v.552h-2.059v1.391h2.322v.552h-2.911v-4.339Z" fill="#131328" stroke-width="0"/>
        <path d="M198.932,94.618c.106.16.242.277.407.353.166.076.336.113.512.113.098,0,.199-.015.301-.046.102-.03.195-.076.279-.138.083-.061.152-.137.205-.227.053-.09.08-.194.08-.313,0-.168-.053-.295-.159-.383-.107-.088-.238-.161-.395-.22-.157-.059-.329-.117-.515-.172-.186-.055-.358-.132-.515-.23-.158-.098-.289-.23-.395-.395-.106-.165-.159-.389-.159-.671,0-.127.027-.261.082-.404.055-.143.142-.274.261-.393s.27-.217.456-.297c.186-.08.409-.12.671-.12.237,0,.463.033.68.098.216.065.406.198.57.398l-.478.435c-.073-.115-.178-.206-.313-.276-.135-.069-.288-.104-.459-.104-.164,0-.3.021-.407.064-.109.043-.195.098-.261.166-.065.067-.111.14-.138.217-.027.078-.04.149-.04.214,0,.184.053.325.159.423.106.098.238.178.396.239.157.061.329.117.515.166.186.049.358.117.515.205.158.088.289.206.395.356s.159.355.159.616c0,.208-.039.396-.119.564-.08.168-.187.308-.322.422-.135.115-.294.202-.478.264-.184.061-.38.092-.588.092-.278,0-.542-.049-.791-.147-.249-.098-.447-.249-.594-.453l.484-.417Z" fill="#131328" stroke-width="0"/>
      </g>
    </g>
    <g>
      <path d="M43.683,59.074c-.308-2.161-.332-4.379-.084-6.664,1.279,1.02,2.434,2.136,3.469,3.319.512-.444,1.034-.871,1.57-1.271-1.574-2.097-3.506-4.028-5.766-5.699-.206-.152-.524-.142-.799-.03-.279.105-.505.336-.544.587-.624,4.156-.314,8.197.77,11.858.434-.676.904-1.33,1.406-1.963-.007-.046-.015-.091-.021-.138Z" fill="url(#linear-gradient)" stroke-width="0"/>
      <path d="M37.001,80.527c-.205.17-.409.345-.612.524-.198.177-.392.357-.586.543-.168.16-.196.381-.126.561.067.183.257.313.486.308,1.088-.025,2.169-.129,3.229-.299-.089-.31-.178-.62-.256-.933-.494.049-.99.089-1.491.108.417-.384.839-.743,1.269-1.091-.071-.337-.133-.676-.192-1.015-.158.109-.316.207-.474.321-.424.309-.836.632-1.247.974Z" fill="url(#linear-gradient-2)" stroke-width="0"/>
      <path d="M35.133,70.296c-1.727-1.305-3.338-2.864-4.766-4.653,2.285-.249,4.502-.223,6.664.084.267.037.533.078.796.122.267.047.534.099.798.153.403.083.793.182,1.184.282.101-.283.202-.565.313-.85.089-.229.189-.452.285-.677-3.987-1.414-8.489-1.883-13.135-1.185-.25.039-.482.264-.587.543-.112.276-.122.594.03.8,1.841,2.49,3.996,4.586,6.343,6.239,1.663,1.174,3.428,2.12,5.248,2.848.009-.539.039-1.083.092-1.634-1.123-.601-2.213-1.284-3.266-2.073Z" fill="url(#linear-gradient-3)" stroke-width="0"/>
      <path d="M38.625,83.998c-.264.054-.531.106-.798.153-.263.044-.529.085-.796.122-2.162.308-4.379.333-6.664.085,1.428-1.789,3.038-3.35,4.766-4.653,1.08-.81,2.2-1.507,3.353-2.119-.06-.532-.108-1.067-.138-1.605-1.835.73-3.614,1.682-5.289,2.865-2.347,1.652-4.502,3.748-6.343,6.239-.152.205-.142.523-.03.799.105.279.337.505.587.543,4.665.701,9.185.225,13.184-1.203-.209-.503-.4-1.012-.579-1.525-.413.106-.827.209-1.253.298Z" fill="url(#linear-gradient-4)" stroke-width="0"/>
      <path d="M43.599,97.59c-.247-2.278-.223-4.49.082-6.644-.494-.663-.959-1.356-1.394-2.08-1.075,3.65-1.38,7.677-.759,11.818.039.251.265.482.544.587.275.112.594.122.799-.03,2.186-1.616,4.068-3.474,5.614-5.493-.548-.409-1.079-.838-1.589-1.292-.992,1.112-2.087,2.167-3.298,3.133Z" fill="url(#linear-gradient-5)" stroke-width="0"/>
      <path d="M35.677,67.845c-.07.181-.042.401.126.561.194.185.389.365.586.542.202.179.407.354.612.524.411.341.823.665,1.247.974.127.091.254.169.38.257.059-.339.125-.679.2-1.022-.4-.326-.794-.662-1.182-1.021.47.018.936.054,1.399.099.08-.311.166-.624.259-.938-1.031-.162-2.082-.26-3.14-.284-.23-.005-.419.124-.486.308Z" fill="url(#linear-gradient-6)" stroke-width="0"/>
      <path d="M57.401,101.8c-.98,2.809-2.574,5.529-4.445,8.133h0s0,0,0,0c-1.871-2.604-3.463-5.324-4.444-8.133,1.137-1.321,2.164-2.69,3.045-4.106-.454-.242-.899-.496-1.333-.764-.239.345-.483.688-.74,1.028-.317.414-.645.816-.988,1.222-.342.405-.697.813-1.059,1.199-.428.463-.837.726-.805,1.339.041.804.524,1.739.845,2.519.352.886.756,1.781,1.208,2.644.236.458.485.918.744,1.377.26.457.53.9.81,1.349.279.449.567.898.862,1.347.295.439.597.877.903,1.316.197.282.576.381.949.355h.004c.374.025.752-.073.949-.355.307-.439.608-.877.903-1.316.295-.449.583-.898.862-1.347.279-.45.55-.893.809-1.349.26-.46.508-.919.745-1.377.451-.863.855-1.758,1.207-2.644.322-.781.804-1.715.845-2.519.032-.613-.377-.876-.805-1.339-.065-.07-.129-.143-.194-.214-.932-.209-1.86-.465-2.783-.773.591.819,1.228,1.622,1.904,2.407Z" fill="url(#linear-gradient-7)" stroke-width="0"/>
      <path d="M51.008,103.366c.355.707.754,1.384,1.17,2.063.166.273.474.37.776.349h.003c.303.02.61-.077.777-.349.416-.68.815-1.357,1.171-2.063.187-.364.568-.846.512-1.24-.062-.439-.538-.877-.788-1.237-.366-.516-.721-1.06-1.049-1.596-.129-.211-.376-.312-.623-.306-.246-.006-.493.095-.623.306-.329.537-.683,1.08-1.049,1.596-.25.36-.725.798-.788,1.237-.055.394.324.876.512,1.24ZM52.956,101.052c.247.394.499.79.76,1.187-.237.451-.489.902-.759,1.348h0c-.271-.447-.523-.897-.759-1.348.26-.397.513-.793.759-1.187Z" fill="url(#linear-gradient-8)" stroke-width="0"/>
      <path d="M39.945,87.36c-1.791.693-3.684,1.147-5.676,1.417-1.026.132-2.098.227-3.158.265-.633.027-1.111-.074-1.52.38-.537.595-.853,1.594-1.185,2.377-.371.87-.724,1.792-1.017,2.721-.31.979-.599,2.003-.83,3.026-.119.514-.232,1.034-.341,1.56-.107.525-.199,1.045-.292,1.574-.06.339.139.677.423.924l.002.002.002.002c.247.284.585.482.924.423.529-.094,1.049-.186,1.573-.293.526-.108,1.046-.221,1.561-.34,1.022-.231,2.047-.521,3.026-.83.929-.293,1.851-.646,2.721-1.017.783-.333,1.782-.649,2.377-1.185.454-.409.354-.886.38-1.52.038-1.061.133-2.132.265-3.159.271-1.991.725-3.886,1.418-5.675.083-.217.026-.42-.107-.545-.125-.133-.328-.19-.544-.107ZM37.152,97.092c-2.68,1.297-5.73,2.1-8.897,2.61h0s-.001-.001-.001-.001c.51-3.168,1.313-6.217,2.61-8.896,2.759-.205,5.414-.689,7.848-1.561-.872,2.435-1.355,5.09-1.56,7.848Z" fill="url(#linear-gradient-9)" stroke-width="0"/>
      <path d="M31.193,96.764h0c.2.231.486.38.797.305.388-.094.773-.189,1.152-.291.384-.106.765-.22,1.137-.341.389-.124.998-.195,1.237-.514.266-.354.24-1.001.319-1.434.107-.626.235-1.255.384-1.87.058-.241-.044-.487-.222-.658-.171-.178-.417-.281-.658-.223-.615.15-1.244.277-1.87.384-.432.079-1.08.053-1.434.319-.319.239-.39.848-.515,1.237-.121.373-.234.753-.341,1.137-.101.38-.197.764-.291,1.152-.076.311.074.597.304.797h.001ZM33.156,93.724c.465-.097.925-.198,1.378-.303-.105.454-.206.913-.302,1.379-.487.151-.984.291-1.491.415.124-.508.263-1.005.415-1.491Z" fill="url(#linear-gradient-10)" stroke-width="0"/>
      <path d="M27.576,80.518c.386-.361.794-.717,1.199-1.058.406-.343.808-.671,1.223-.988,1.607-1.217,3.26-2.232,5.019-3.01.213-.095.315-.279.309-.462.005-.184-.097-.367-.309-.463-1.759-.778-3.412-1.793-5.019-3.01-.415-.317-.817-.645-1.223-.988-.405-.342-.813-.697-1.199-1.058-.463-.429-.727-.838-1.339-.805-.804.041-1.739.523-2.519.844-.886.353-1.782.758-2.644,1.208-.458.236-.917.486-1.377.745-.457.259-.899.53-1.35.809-.449.28-.898.568-1.347.863-.439.295-.877.596-1.316.903-.282.197-.381.574-.355.948v.005c-.025.374.073.752.355.949.439.307.878.608,1.316.903.449.295.898.583,1.347.863.451.279.893.55,1.35.81.459.259.919.508,1.377.745.862.451,1.759.854,2.644,1.208.781.321,1.715.803,2.519.844.612.033.875-.377,1.339-.805ZM18.022,75h.001-.001c2.605-1.872,5.325-3.464,8.133-4.445,2.099,1.807,4.321,3.338,6.656,4.445-2.334,1.106-4.556,2.638-6.656,4.445-2.808-.981-5.529-2.573-8.133-4.445Z" fill="url(#linear-gradient-11)" stroke-width="0"/>
      <path d="M28.664,74.378c-.537-.329-1.081-.683-1.597-1.049-.36-.25-.798-.725-1.237-.788-.394-.056-.876.324-1.239.511-.708.356-1.384.755-2.064,1.171-.273.166-.37.473-.35.776v.002h0c-.02.304.077.612.35.777.68.416,1.357.815,2.064,1.171.363.187.845.568,1.239.511.439-.062.877-.537,1.237-.788.516-.366,1.059-.72,1.597-1.049.211-.129.312-.377.306-.623.006-.246-.095-.493-.306-.623ZM25.717,75.76c-.452-.237-.901-.489-1.349-.76h0c.447-.271.897-.524,1.349-.76.396.261.793.513,1.187.76-.394.246-.791.499-1.187.76Z" fill="url(#linear-gradient-12)" stroke-width="0"/>
      <path d="M26.558,52.453c.232,1.023.52,2.047.83,3.026.293.928.646,1.851,1.017,2.721.333.783.649,1.782,1.185,2.377.409.455.887.354,1.52.381,1.061.037,2.133.133,3.158.265,1.992.271,3.885.724,5.676,1.417.217.084.419.026.544-.107.133-.125.19-.328.107-.545-.693-1.79-1.147-3.684-1.418-5.676-.132-1.026-.227-2.097-.265-3.158-.027-.634.074-1.112-.38-1.52-.595-.536-1.594-.853-2.377-1.185-.87-.371-1.792-.724-2.721-1.017-.979-.31-2.003-.599-3.026-.83-.514-.12-1.035-.232-1.561-.34-.524-.107-1.045-.199-1.573-.293-.339-.06-.677.14-.924.423h-.002s-.002.003-.002.003c-.284.247-.482.585-.423.924.094.529.185,1.049.292,1.574.108.526.221,1.046.341,1.56ZM28.255,50.298c3.168.511,6.217,1.313,8.897,2.61.205,2.758.688,5.414,1.56,7.848-2.434-.871-5.089-1.355-7.848-1.56-1.297-2.68-2.1-5.729-2.61-8.897h.001,0Z" fill="url(#linear-gradient-13)" stroke-width="0"/>
      <path d="M31.178,55.186c.107.384.22.764.341,1.137.125.389.195.998.515,1.237.354.266,1.002.24,1.434.318.625.108,1.255.235,1.87.385.242.057.488-.046.658-.223.178-.17.28-.416.222-.657-.149-.615-.277-1.244-.384-1.87-.078-.432-.053-1.08-.319-1.434-.239-.319-.847-.39-1.237-.514-.372-.121-.753-.235-1.137-.341-.379-.101-.764-.197-1.152-.291-.311-.075-.597.074-.797.304h0s-.001.002-.001.002c-.23.2-.379.486-.304.797.094.388.19.773.291,1.152ZM34.233,55.2c.096.466.197.925.302,1.378-.453-.104-.913-.206-1.378-.302-.151-.486-.291-.983-.415-1.491.508.124,1.004.263,1.491.415Z" fill="url(#linear-gradient-14)" stroke-width="0"/>
      <path d="M48.511,48.2c.981-2.808,2.573-5.529,4.444-8.133h0s0,0,0,0c1.871,2.604,3.464,5.324,4.445,8.133-.742.862-1.435,1.747-2.074,2.65.959-.354,1.91-.657,2.849-.9.099-.11.198-.222.298-.329.428-.464.838-.727.805-1.339-.041-.804-.524-1.739-.845-2.519-.353-.886-.756-1.782-1.207-2.644-.237-.458-.485-.917-.745-1.377-.26-.457-.53-.9-.809-1.35-.279-.449-.568-.897-.862-1.346-.295-.439-.596-.877-.903-1.316-.197-.282-.575-.381-.949-.355h-.004c-.374-.025-.752.073-.949.355-.306.439-.608.878-.903,1.316-.295.449-.583.897-.862,1.346-.279.451-.55.893-.81,1.35-.259.459-.508.918-.744,1.377-.451.863-.855,1.758-1.208,2.644-.321.781-.804,1.715-.845,2.519-.032.612.377.875.805,1.339.361.386.717.794,1.059,1.199.342.406.671.809.988,1.223.31.409.606.82.888,1.236.429-.27.864-.526,1.306-.77-.909-1.487-1.976-2.925-3.166-4.308Z" fill="url(#linear-gradient-15)" stroke-width="0"/>
      <path d="M54.905,46.635c-.356-.707-.755-1.384-1.171-2.063-.166-.273-.473-.37-.777-.35h-.003c-.303-.02-.61.077-.776.35-.416.68-.815,1.357-1.17,2.063-.187.364-.567.846-.512,1.24.063.439.538.877.788,1.237.366.516.721,1.059,1.049,1.597.13.211.377.312.623.306.246.006.493-.095.623-.306.329-.537.683-1.081,1.049-1.597.25-.36.726-.797.788-1.237.056-.394-.324-.876-.512-1.24ZM52.956,48.948c-.246-.394-.499-.79-.759-1.187.237-.451.489-.902.759-1.349h0c.271.447.523.897.759,1.349-.261.397-.513.793-.76,1.187Z" fill="url(#linear-gradient-16)" stroke-width="0"/>
    </g>
  </g>
  <g>
    <path d="M246.636,34.399c-.798-.435-1.423-1.034-1.876-1.799-.453-.766-.679-1.629-.679-2.591s.229-1.824.687-2.59c.457-.765,1.085-1.365,1.883-1.799s1.691-.651,2.681-.651c.803,0,1.535.141,2.198.421.663.279,1.223.686,1.68,1.218l-1.176,1.105c-.709-.765-1.582-1.147-2.618-1.147-.672,0-1.273.146-1.806.44s-.947.703-1.246,1.226-.448,1.115-.448,1.777.149,1.256.448,1.778.714.931,1.246,1.225c.532.295,1.134.441,1.806.441,1.036,0,1.909-.387,2.618-1.162l1.176,1.12c-.457.532-1.02.938-1.687,1.218-.667.28-1.402.42-2.205.42-.989,0-1.883-.217-2.681-.65Z" fill="#000" stroke-width="0"/>
    <path d="M261.105,32.642h-4.9l-.966,2.268h-1.876l4.41-9.8h1.792l4.424,9.8h-1.904l-.979-2.268ZM260.503,31.213l-1.848-4.284-1.834,4.284h3.682Z" fill="#000" stroke-width="0"/>
    <path d="M265.235,25.11h1.819v8.26h5.125v1.54h-6.944v-9.8Z" fill="#000" stroke-width="0"/>
    <path d="M273.621,25.11h1.82v9.8h-1.82v-9.8Z" fill="#000" stroke-width="0"/>
    <path d="M286.795,25.11v9.8h-1.498l-5.404-6.636v6.636h-1.806v-9.8h1.498l5.404,6.636v-6.636h1.806Z" fill="#000" stroke-width="0"/>
    <path d="M290.273,34.728c-.704-.215-1.262-.5-1.673-.854l.63-1.414c.401.317.895.576,1.478.777.583.2,1.169.301,1.757.301.729,0,1.271-.116,1.631-.35s.539-.542.539-.925c0-.279-.101-.511-.301-.692-.201-.183-.455-.324-.764-.427-.308-.103-.728-.22-1.26-.351-.746-.177-1.351-.354-1.812-.532-.462-.177-.859-.454-1.19-.833-.331-.378-.497-.889-.497-1.532,0-.542.147-1.034.441-1.478s.737-.795,1.33-1.057c.592-.262,1.318-.393,2.177-.393.597,0,1.186.075,1.765.225.578.149,1.077.364,1.497.644l-.573,1.414c-.43-.252-.878-.443-1.345-.574-.467-.13-.919-.195-1.357-.195-.719,0-1.253.121-1.604.363-.35.243-.524.565-.524.967,0,.279.1.509.301.686.2.178.455.317.763.42s.729.22,1.261.351c.728.168,1.324.343,1.791.524.467.183.866.46,1.197.833.331.374.497.878.497,1.512,0,.542-.147,1.032-.44,1.471-.295.438-.74.788-1.338,1.05-.597.261-1.325.392-2.184.392-.756,0-1.486-.107-2.191-.321Z" fill="#000" stroke-width="0"/>
    <path d="M298.232,25.11h1.82v9.8h-1.82v-9.8Z" fill="#000" stroke-width="0"/>
    <path d="M309.055,32.642h-4.9l-.966,2.268h-1.876l4.41-9.8h1.792l4.424,9.8h-1.903l-.98-2.268ZM308.453,31.213l-1.849-4.284-1.834,4.284h3.683Z" fill="#000" stroke-width="0"/>
    <path d="M316.502,30.289h3.851v1.456h-3.851v-1.456Z" fill="#000" stroke-width="0"/>
    <path d="M333.542,26.509l-3.684,8.4h-1.188l-3.695-8.4h1.295l3.024,6.9,3.048-6.9h1.2Z" fill="#000" stroke-width="0"/>
    <path d="M334.982,34.562c-.504-.28-.898-.666-1.183-1.158s-.426-1.05-.426-1.674.142-1.183.426-1.674c.284-.492.679-.877,1.183-1.152.504-.276,1.071-.414,1.703-.414s1.198.138,1.698.414c.5.275.893.66,1.177,1.152.283.491.426,1.05.426,1.674s-.143,1.182-.426,1.674c-.284.492-.677.878-1.177,1.158-.5.279-1.065.42-1.698.42s-1.199-.141-1.703-.42ZM337.784,33.692c.324-.188.578-.452.762-.792.185-.34.276-.73.276-1.17s-.092-.83-.276-1.17c-.184-.34-.438-.603-.762-.786-.324-.185-.69-.276-1.099-.276s-.773.092-1.098.276c-.324.184-.58.446-.768.786-.188.34-.282.729-.282,1.17s.094.83.282,1.17c.188.34.443.604.768.792.324.188.69.282,1.098.282s.774-.095,1.099-.282Z" fill="#000" stroke-width="0"/>
    <path d="M345.158,34.538c-.168.145-.376.254-.624.33s-.504.114-.769.114c-.64,0-1.136-.172-1.487-.517-.353-.344-.528-.836-.528-1.476v-3.492h-1.08v-.948h1.08v-1.392h1.152v1.392h1.824v.948h-1.824v3.444c0,.344.086.607.258.792.172.184.418.275.738.275.352,0,.651-.1.899-.3l.36.828Z" fill="#000" stroke-width="0"/>
    <path d="M348.542,28.778c.392-.192.868-.288,1.428-.288v1.116c-.064-.008-.152-.013-.264-.013-.624,0-1.114.187-1.47.559-.356.372-.535.902-.535,1.59v3.168h-1.151v-6.36h1.104v1.068c.199-.368.495-.648.888-.84Z" fill="#000" stroke-width="0"/>
    <path d="M357.05,32.114h-5.16c.072.56.318,1.01.738,1.35.42.341.941.511,1.565.511.76,0,1.372-.257,1.836-.769l.637.744c-.288.336-.646.592-1.074.768-.428.177-.906.265-1.434.265-.673,0-1.269-.139-1.789-.414-.52-.276-.922-.662-1.205-1.158-.284-.496-.427-1.056-.427-1.68,0-.616.139-1.172.414-1.668.276-.496.656-.883,1.141-1.158.483-.276,1.029-.414,1.638-.414s1.15.138,1.626.414c.476.275.848.662,1.116,1.158.268.496.402,1.063.402,1.704,0,.088-.009.203-.024.348ZM352.544,29.965c-.372.336-.591.776-.654,1.32h4.08c-.064-.536-.282-.974-.654-1.314-.372-.34-.834-.51-1.386-.51s-1.014.168-1.386.504Z" fill="#000" stroke-width="0"/>
    <path d="M367.621,32.114h-5.159c.071.56.317,1.01.737,1.35.42.341.942.511,1.566.511.76,0,1.372-.257,1.836-.769l.636.744c-.288.336-.646.592-1.073.768-.429.177-.906.265-1.435.265-.672,0-1.268-.139-1.788-.414-.52-.276-.922-.662-1.206-1.158s-.426-1.056-.426-1.68c0-.616.138-1.172.414-1.668s.656-.883,1.14-1.158c.484-.276,1.03-.414,1.639-.414s1.149.138,1.626.414c.476.275.848.662,1.116,1.158.268.496.401,1.063.401,1.704,0,.088-.008.203-.024.348ZM363.115,29.965c-.371.336-.59.776-.653,1.32h4.08c-.064-.536-.282-.974-.654-1.314-.372-.34-.834-.51-1.386-.51s-1.015.168-1.387.504Z" fill="#000" stroke-width="0"/>
    <path d="M369.565,34.772c-.479-.141-.856-.318-1.128-.534l.48-.912c.279.2.619.36,1.02.48.4.119.805.18,1.212.18,1.009,0,1.513-.288,1.513-.864,0-.192-.068-.344-.204-.456-.137-.111-.307-.193-.511-.246-.203-.052-.494-.109-.869-.174-.513-.08-.931-.172-1.254-.276-.324-.104-.603-.279-.834-.527-.232-.248-.349-.596-.349-1.044,0-.576.24-1.038.72-1.387.48-.348,1.124-.521,1.933-.521.424,0,.848.052,1.271.156.424.104.772.244,1.044.42l-.492.912c-.52-.336-1.132-.504-1.836-.504-.487,0-.859.08-1.115.239-.257.16-.385.372-.385.637,0,.208.072.371.217.491.144.12.321.208.533.265.213.056.511.12.895.191.512.089.926.183,1.242.282.315.101.586.271.81.51.224.24.336.576.336,1.009,0,.575-.246,1.033-.737,1.373-.492.341-1.162.511-2.011.511-.52,0-1.02-.07-1.5-.21Z" fill="#000" stroke-width="0"/>
    <path d="M380.281,28.898c.488.271.87.651,1.146,1.14.275.488.414,1.052.414,1.692s-.139,1.206-.414,1.697c-.276.492-.658.875-1.146,1.146-.488.272-1.04.408-1.655.408-.456,0-.874-.088-1.255-.265-.38-.176-.701-.432-.966-.768v3.288h-1.151v-8.688h1.104v1.009c.256-.353.58-.618.973-.799.392-.18.823-.27,1.296-.27.615,0,1.167.136,1.655.408ZM379.628,33.692c.323-.188.579-.452.768-.792s.282-.73.282-1.17-.094-.83-.282-1.17-.444-.603-.768-.786c-.324-.185-.69-.276-1.099-.276-.4,0-.762.094-1.086.282-.324.188-.58.45-.768.786-.188.336-.282.724-.282,1.164s.092.83.276,1.17c.184.34.439.604.768.792.328.188.691.282,1.092.282.408,0,.774-.095,1.099-.282Z" fill="#000" stroke-width="0"/>
    <path d="M387.716,29.137c.468.433.702,1.076.702,1.933v3.84h-1.092v-.84c-.192.296-.467.521-.822.678-.356.156-.778.234-1.267.234-.712,0-1.282-.172-1.71-.517-.428-.344-.642-.796-.642-1.355s.204-1.01.612-1.351c.408-.34,1.056-.51,1.943-.51h1.824v-.228c0-.496-.145-.876-.432-1.141-.288-.264-.713-.396-1.272-.396-.376,0-.744.062-1.104.186-.36.124-.665.29-.912.498l-.48-.863c.328-.265.72-.467,1.177-.606.455-.14.939-.21,1.451-.21.88,0,1.555.216,2.022.647ZM386.569,33.799c.32-.195.552-.474.696-.834v-.888h-1.775c-.977,0-1.465.328-1.465.984,0,.319.124.571.372.756.248.184.592.275,1.032.275s.82-.098,1.14-.294Z" fill="#000" stroke-width="0"/>
    <path d="M391.627,34.562c-.508-.28-.905-.666-1.193-1.158s-.433-1.05-.433-1.674.145-1.183.433-1.674c.288-.492.686-.877,1.193-1.152.508-.276,1.086-.414,1.734-.414.576,0,1.09.116,1.542.348.452.232.802.568,1.05,1.008l-.876.564c-.2-.304-.448-.532-.744-.684-.296-.152-.624-.229-.983-.229-.416,0-.791.092-1.122.276-.332.184-.593.446-.78.786s-.282.729-.282,1.17c0,.448.095.842.282,1.182s.448.603.78.786c.331.184.706.276,1.122.276.359,0,.688-.076.983-.229.296-.151.544-.38.744-.684l.876.552c-.248.44-.598.778-1.05,1.014-.452.236-.966.354-1.542.354-.648,0-1.227-.141-1.734-.42Z" fill="#000" stroke-width="0"/>
    <path d="M403.069,32.114h-5.16c.072.56.318,1.01.738,1.35.42.341.942.511,1.565.511.761,0,1.373-.257,1.836-.769l.637.744c-.288.336-.646.592-1.074.768-.428.177-.906.265-1.434.265-.672,0-1.269-.139-1.788-.414-.521-.276-.923-.662-1.206-1.158-.284-.496-.426-1.056-.426-1.68,0-.616.138-1.172.414-1.668.275-.496.655-.883,1.14-1.158.483-.276,1.03-.414,1.638-.414s1.15.138,1.626.414c.476.275.849.662,1.116,1.158s.402,1.063.402,1.704c0,.088-.008.203-.024.348ZM398.563,29.965c-.372.336-.59.776-.654,1.32h4.08c-.063-.536-.282-.974-.653-1.314-.373-.34-.834-.51-1.387-.51s-1.014.168-1.386.504Z" fill="#000" stroke-width="0"/>
    <path d="M412.945,28.898c.488.271.87.651,1.146,1.14.275.488.414,1.052.414,1.692s-.139,1.206-.414,1.697c-.276.492-.658.875-1.146,1.146-.488.272-1.04.408-1.656.408-.472,0-.904-.092-1.296-.276-.392-.184-.716-.452-.972-.804v1.008h-1.104v-8.904h1.151v3.504c.256-.336.576-.59.96-.762s.805-.258,1.26-.258c.616,0,1.168.136,1.656.408ZM412.291,33.692c.324-.188.58-.452.769-.792.188-.34.282-.73.282-1.17s-.095-.83-.282-1.17c-.188-.34-.444-.603-.769-.786-.323-.185-.689-.276-1.098-.276-.4,0-.764.092-1.092.276-.328.184-.584.446-.768.786-.185.34-.276.729-.276,1.17s.092.83.276,1.17c.184.34.439.604.768.792.328.188.691.282,1.092.282.408,0,.774-.095,1.098-.282Z" fill="#000" stroke-width="0"/>
    <path d="M416.119,27.11c-.148-.145-.222-.32-.222-.528s.073-.386.222-.534c.148-.147.334-.222.559-.222s.409.07.558.21c.147.14.222.314.222.522,0,.216-.074.397-.222.546-.148.147-.334.222-.558.222s-.41-.072-.559-.216ZM416.102,28.549h1.151v6.36h-1.151v-6.36Z" fill="#000" stroke-width="0"/>
    <path d="M425.173,32.114h-5.159c.071.56.317,1.01.737,1.35.42.341.942.511,1.566.511.76,0,1.372-.257,1.836-.769l.636.744c-.288.336-.646.592-1.074.768-.428.177-.906.265-1.434.265-.672,0-1.268-.139-1.788-.414-.521-.276-.922-.662-1.206-1.158s-.426-1.056-.426-1.68c0-.616.138-1.172.414-1.668.275-.496.656-.883,1.14-1.158.484-.276,1.03-.414,1.638-.414s1.15.138,1.627.414c.476.275.848.662,1.115,1.158.269.496.402,1.063.402,1.704,0,.088-.008.203-.024.348ZM420.667,29.965c-.372.336-.59.776-.653,1.32h4.08c-.064-.536-.282-.974-.654-1.314-.372-.34-.834-.51-1.387-.51s-1.014.168-1.386.504Z" fill="#000" stroke-width="0"/>
    <path d="M432.115,29.192c.476.468.714,1.154.714,2.058v3.66h-1.151v-3.528c0-.615-.148-1.08-.444-1.392-.296-.312-.72-.468-1.272-.468-.624,0-1.115.182-1.476.546s-.54.886-.54,1.565v3.276h-1.152v-6.36h1.104v.96c.231-.327.546-.579.941-.756.396-.176.847-.264,1.351-.264.808,0,1.449.234,1.926.702Z" fill="#000" stroke-width="0"/>
    <path d="M434.557,31.118h3.229v.996h-3.229v-.996Z" fill="#000" stroke-width="0"/>
    <path d="M445.405,32.114h-5.16c.072.56.318,1.01.738,1.35.42.341.941.511,1.565.511.76,0,1.372-.257,1.836-.769l.637.744c-.288.336-.646.592-1.074.768-.428.177-.906.265-1.434.265-.673,0-1.269-.139-1.789-.414-.52-.276-.922-.662-1.205-1.158-.284-.496-.427-1.056-.427-1.68,0-.616.139-1.172.414-1.668.276-.496.656-.883,1.141-1.158.483-.276,1.029-.414,1.638-.414s1.15.138,1.626.414c.476.275.848.662,1.116,1.158.268.496.402,1.063.402,1.704,0,.088-.009.203-.024.348ZM443.377,27.625l-1.104-.924-1.104.924h-1.044l1.596-1.56h1.104l1.596,1.56h-1.044ZM440.899,29.965c-.372.336-.591.776-.654,1.32h4.08c-.064-.536-.282-.974-.654-1.314-.372-.34-.834-.51-1.386-.51s-1.014.168-1.386.504Z" fill="#000" stroke-width="0"/>
    <path d="M450.602,34.538c-.168.145-.377.254-.625.33s-.504.114-.768.114c-.64,0-1.136-.172-1.488-.517-.352-.344-.527-.836-.527-1.476v-3.492h-1.08v-.948h1.08v-1.392h1.152v1.392h1.823v.948h-1.823v3.444c0,.344.085.607.258.792.172.184.418.275.737.275.353,0,.652-.1.9-.3l.36.828Z" fill="#000" stroke-width="0"/>
    <path d="M453.984,28.778c.393-.192.868-.288,1.429-.288v1.116c-.064-.008-.152-.013-.265-.013-.623,0-1.113.187-1.47.559s-.534.902-.534,1.59v3.168h-1.151v-6.36h1.104v1.068c.2-.368.496-.648.888-.84Z" fill="#000" stroke-width="0"/>
    <path d="M462.492,32.114h-5.159c.071.56.317,1.01.737,1.35.42.341.942.511,1.566.511.76,0,1.372-.257,1.836-.769l.636.744c-.288.336-.646.592-1.073.768-.429.177-.906.265-1.435.265-.672,0-1.268-.139-1.788-.414-.52-.276-.922-.662-1.206-1.158s-.426-1.056-.426-1.68c0-.616.138-1.172.414-1.668s.656-.883,1.14-1.158c.484-.276,1.03-.414,1.639-.414s1.149.138,1.626.414c.476.275.848.662,1.116,1.158.268.496.401,1.063.401,1.704,0,.088-.008.203-.024.348ZM457.986,29.965c-.371.336-.59.776-.653,1.32h4.08c-.064-.536-.282-.974-.654-1.314-.372-.34-.834-.51-1.386-.51s-1.015.168-1.387.504Z" fill="#000" stroke-width="0"/>
    <path d="M245.343,52.711c-.588-.195-1.05-.45-1.386-.762l.444-.937c.32.288.73.522,1.23.702.5.181,1.014.271,1.542.271.696,0,1.216-.118,1.56-.354.344-.235.516-.55.516-.941,0-.288-.094-.522-.282-.702s-.42-.318-.696-.414c-.276-.096-.666-.204-1.17-.324-.632-.151-1.143-.304-1.53-.456-.388-.151-.72-.386-.996-.702-.276-.315-.414-.741-.414-1.277,0-.448.118-.853.354-1.212.235-.36.594-.648,1.074-.864s1.076-.324,1.788-.324c.496,0,.984.064,1.464.192s.892.312,1.236.552l-.396.96c-.353-.224-.729-.394-1.128-.51s-.792-.174-1.176-.174c-.68,0-1.19.124-1.53.372-.34.248-.51.567-.51.96,0,.287.096.521.288.701.192.181.43.32.714.42.284.101.67.206,1.158.318.632.152,1.141.305,1.524.456.384.152.714.384.99.696.276.312.414.731.414,1.26,0,.44-.12.842-.36,1.206s-.604.652-1.092.864c-.488.212-1.088.317-1.8.317-.632,0-1.242-.098-1.83-.294Z" fill="#000" stroke-width="0"/>
    <path d="M257.938,46.549v6.36h-1.092v-.96c-.232.328-.538.582-.918.762-.38.181-.794.271-1.242.271-.849,0-1.517-.234-2.004-.702s-.732-1.158-.732-2.07v-3.66h1.152v3.528c0,.616.147,1.082.443,1.398.296.315.72.474,1.272.474.607,0,1.088-.184,1.44-.552s.528-.889.528-1.561v-3.288h1.152Z" fill="#000" stroke-width="0"/>
    <path d="M260.151,45.11c-.148-.145-.223-.32-.223-.528s.074-.386.223-.534c.147-.147.333-.222.558-.222s.41.07.558.21.222.314.222.522c0,.216-.074.397-.222.546-.148.147-.334.222-.558.222s-.41-.072-.558-.216ZM260.133,46.549h1.152v6.36h-1.152v-6.36Z" fill="#000" stroke-width="0"/>
    <path d="M267.057,52.538c-.168.145-.376.254-.624.33s-.504.114-.768.114c-.64,0-1.136-.172-1.488-.517-.353-.344-.528-.836-.528-1.476v-3.492h-1.08v-.948h1.08v-1.392h1.152v1.392h1.824v.948h-1.824v3.444c0,.344.086.607.258.792.172.184.418.275.738.275.352,0,.652-.1.9-.3l.359.828Z" fill="#000" stroke-width="0"/>
    <path d="M273.957,50.114h-5.16c.072.56.318,1.01.738,1.35.42.341.941.511,1.565.511.761,0,1.372-.257,1.836-.769l.636.744c-.287.336-.646.592-1.073.768-.429.177-.906.265-1.435.265-.672,0-1.268-.139-1.787-.414-.521-.276-.923-.662-1.207-1.158-.283-.496-.426-1.056-.426-1.68,0-.616.139-1.172.414-1.668.276-.496.656-.883,1.141-1.158.483-.276,1.029-.414,1.638-.414s1.149.138,1.626.414c.476.275.848.662,1.116,1.158.268.496.401,1.063.401,1.704,0,.088-.008.203-.023.348ZM269.451,47.965c-.372.336-.59.776-.654,1.32h4.08c-.064-.536-.282-.974-.654-1.314-.372-.34-.834-.51-1.386-.51s-1.015.168-1.386.504Z" fill="#000" stroke-width="0"/>
    <path d="M280.797,46.778c.392-.192.868-.288,1.428-.288v1.116c-.064-.008-.152-.013-.264-.013-.624,0-1.114.187-1.47.559-.356.372-.534.902-.534,1.59v3.168h-1.152v-6.36h1.104v1.068c.2-.368.495-.648.888-.84Z" fill="#000" stroke-width="0"/>
    <path d="M284.601,52.562c-.504-.28-.897-.666-1.182-1.158s-.427-1.05-.427-1.674.143-1.183.427-1.674c.284-.492.678-.877,1.182-1.152.504-.276,1.072-.414,1.704-.414s1.198.138,1.698.414c.5.275.892.66,1.176,1.152.284.491.426,1.05.426,1.674s-.142,1.182-.426,1.674-.676.878-1.176,1.158c-.5.279-1.066.42-1.698.42s-1.2-.141-1.704-.42ZM287.402,51.692c.324-.188.578-.452.763-.792.184-.34.275-.73.275-1.17s-.092-.83-.275-1.17c-.185-.34-.438-.603-.763-.786-.323-.185-.689-.276-1.098-.276s-.773.092-1.098.276c-.324.184-.58.446-.769.786-.188.34-.282.729-.282,1.17s.095.83.282,1.17c.188.34.444.604.769.792.324.188.689.282,1.098.282s.774-.095,1.098-.282Z" fill="#000" stroke-width="0"/>
    <path d="M301.059,47.186c.468.464.702,1.151.702,2.063v3.66h-1.152v-3.528c0-.615-.142-1.08-.426-1.392-.284-.312-.69-.468-1.218-.468-.584,0-1.049.182-1.393.546s-.516.886-.516,1.565v3.276h-1.152v-3.528c0-.615-.142-1.08-.426-1.392-.284-.312-.689-.468-1.218-.468-.584,0-1.048.182-1.392.546-.345.364-.517.886-.517,1.565v3.276h-1.151v-6.36h1.104v.948c.232-.328.536-.578.912-.75s.804-.258,1.284-.258c.495,0,.936.1,1.319.3.385.2.68.492.889.876.24-.368.573-.655,1.002-.864.428-.208.91-.312,1.445-.312.801,0,1.435.232,1.902.696Z" fill="#000" stroke-width="0"/>
    <path d="M308.223,47.137c.468.433.702,1.076.702,1.933v3.84h-1.093v-.84c-.191.296-.466.521-.821.678-.356.156-.778.234-1.267.234-.712,0-1.281-.172-1.71-.517-.428-.344-.642-.796-.642-1.355s.204-1.01.611-1.351c.408-.34,1.057-.51,1.944-.51h1.824v-.228c0-.496-.144-.876-.432-1.141-.288-.264-.712-.396-1.272-.396-.376,0-.744.062-1.104.186-.36.124-.664.29-.912.498l-.48-.863c.328-.265.721-.467,1.176-.606.457-.14.94-.21,1.452-.21.88,0,1.554.216,2.022.647ZM307.076,51.799c.32-.195.553-.474.696-.834v-.888h-1.776c-.976,0-1.464.328-1.464.984,0,.319.124.571.372.756.248.184.592.275,1.032.275s.819-.098,1.14-.294Z" fill="#000" stroke-width="0"/>
    <path d="M316.383,47.192c.476.468.714,1.154.714,2.058v3.66h-1.152v-3.528c0-.615-.147-1.08-.444-1.392-.296-.312-.72-.468-1.271-.468-.624,0-1.116.182-1.477.546-.359.364-.539.886-.539,1.565v3.276h-1.152v-6.36h1.104v.96c.232-.327.547-.579.942-.756.396-.176.846-.264,1.351-.264.808,0,1.449.234,1.926.702Z" fill="#000" stroke-width="0"/>
    <path d="M322.809,52.538c-.168.145-.376.254-.624.33s-.504.114-.769.114c-.64,0-1.136-.172-1.487-.517-.353-.344-.528-.836-.528-1.476v-3.492h-1.08v-.948h1.08v-1.392h1.152v1.392h1.824v.948h-1.824v3.444c0,.344.086.607.258.792.172.184.418.275.738.275.352,0,.652-.1.9-.3l.359.828Z" fill="#000" stroke-width="0"/>
    <path d="M324.219,45.11c-.148-.145-.223-.32-.223-.528s.074-.386.223-.534c.147-.147.334-.222.558-.222s.41.07.558.21c.148.14.223.314.223.522,0,.216-.074.397-.223.546-.147.147-.334.222-.558.222s-.41-.072-.558-.216ZM324.2,46.549h1.152v6.36h-1.152v-6.36Z" fill="#000" stroke-width="0"/>
    <path d="M333.549,46.549v8.688h-1.152v-3.288c-.264.336-.586.592-.966.768-.38.177-.798.265-1.255.265-.615,0-1.168-.136-1.655-.408-.488-.271-.87-.654-1.146-1.146-.275-.491-.414-1.058-.414-1.697s.139-1.204.414-1.692c.276-.488.658-.868,1.146-1.14.487-.272,1.04-.408,1.655-.408.473,0,.904.09,1.297.27.392.181.716.446.972.799v-1.009h1.104ZM331.364,51.692c.328-.188.584-.452.769-.792.184-.34.275-.73.275-1.17s-.094-.828-.282-1.164c-.188-.336-.443-.599-.768-.786-.324-.188-.687-.282-1.086-.282-.408,0-.774.092-1.099.276-.323.184-.58.446-.768.786s-.282.729-.282,1.17.095.83.282,1.17.444.604.768.792c.324.188.69.282,1.099.282.399,0,.764-.095,1.092-.282Z" fill="#000" stroke-width="0"/>
    <path d="M341.66,46.549v6.36h-1.092v-.96c-.232.328-.538.582-.918.762-.381.181-.795.271-1.242.271-.848,0-1.516-.234-2.004-.702s-.732-1.158-.732-2.07v-3.66h1.152v3.528c0,.616.148,1.082.443,1.398.297.315.721.474,1.272.474.608,0,1.088-.184,1.44-.552.352-.368.527-.889.527-1.561v-3.288h1.152Z" fill="#000" stroke-width="0"/>
    <path d="M349.58,50.114h-5.16c.072.56.318,1.01.738,1.35.42.341.941.511,1.565.511.761,0,1.372-.257,1.836-.769l.636.744c-.287.336-.646.592-1.073.768-.429.177-.906.265-1.435.265-.672,0-1.268-.139-1.787-.414-.521-.276-.923-.662-1.207-1.158-.283-.496-.426-1.056-.426-1.68,0-.616.139-1.172.414-1.668.276-.496.656-.883,1.141-1.158.483-.276,1.029-.414,1.638-.414s1.149.138,1.626.414c.476.275.848.662,1.116,1.158.268.496.401,1.063.401,1.704,0,.088-.008.203-.023.348ZM345.074,47.965c-.372.336-.59.776-.654,1.32h4.08c-.064-.536-.282-.974-.654-1.314-.372-.34-.834-.51-1.386-.51s-1.015.168-1.386.504Z" fill="#000" stroke-width="0"/>
    <path d="M358.766,47.137c.469.433.702,1.076.702,1.933v3.84h-1.092v-.84c-.192.296-.466.521-.822.678s-.778.234-1.266.234c-.712,0-1.282-.172-1.71-.517-.428-.344-.643-.796-.643-1.355s.204-1.01.612-1.351c.408-.34,1.056-.51,1.944-.51h1.824v-.228c0-.496-.145-.876-.433-1.141-.288-.264-.712-.396-1.272-.396-.375,0-.743.062-1.104.186-.359.124-.664.29-.912.498l-.479-.863c.327-.265.72-.467,1.176-.606s.94-.21,1.452-.21c.88,0,1.554.216,2.021.647ZM354.632,44.066h1.464l1.633,1.56h-1.08l-2.017-1.56ZM357.62,51.799c.319-.195.552-.474.696-.834v-.888h-1.776c-.977,0-1.464.328-1.464.984,0,.319.124.571.372.756.247.184.592.275,1.032.275s.819-.098,1.14-.294Z" fill="#000" stroke-width="0"/>
    <path d="M372.224,44.509v8.4h-.983l-5.041-6.264v6.264h-1.199v-8.4h.983l5.04,6.265v-6.265h1.2Z" fill="#000" stroke-width="0"/>
    <path d="M378.914,47.137c.468.433.702,1.076.702,1.933v3.84h-1.093v-.84c-.191.296-.466.521-.821.678-.356.156-.778.234-1.267.234-.712,0-1.281-.172-1.71-.517-.428-.344-.642-.796-.642-1.355s.204-1.01.611-1.351c.408-.34,1.057-.51,1.944-.51h1.824v-.228c0-.496-.144-.876-.432-1.141-.288-.264-.712-.396-1.272-.396-.376,0-.744.062-1.104.186-.36.124-.664.29-.912.498l-.48-.863c.328-.265.721-.467,1.176-.606.457-.14.94-.21,1.452-.21.88,0,1.554.216,2.022.647ZM377.768,51.799c.32-.195.553-.474.696-.834v-.888h-1.776c-.976,0-1.464.328-1.464.984,0,.319.124.571.372.756.248.184.592.275,1.032.275s.819-.098,1.14-.294Z" fill="#000" stroke-width="0"/>
    <path d="M387.074,47.192c.476.468.713,1.154.713,2.058v3.66h-1.151v-3.528c0-.615-.148-1.08-.444-1.392-.296-.312-.72-.468-1.271-.468-.624,0-1.116.182-1.477.546-.359.364-.54.886-.54,1.565v3.276h-1.151v-6.36h1.104v.96c.232-.327.546-.579.942-.756.396-.176.846-.264,1.35-.264.808,0,1.45.234,1.927.702Z" fill="#000" stroke-width="0"/>
    <path d="M393.5,52.538c-.168.145-.377.254-.625.33s-.504.114-.768.114c-.64,0-1.136-.172-1.488-.517-.352-.344-.527-.836-.527-1.476v-3.492h-1.08v-.948h1.08v-1.392h1.152v1.392h1.823v.948h-1.823v3.444c0,.344.085.607.258.792.172.184.418.275.737.275.353,0,.652-.1.9-.3l.36.828Z" fill="#000" stroke-width="0"/>
    <path d="M400.399,50.114h-5.16c.072.56.318,1.01.738,1.35.42.341.942.511,1.565.511.761,0,1.373-.257,1.836-.769l.637.744c-.288.336-.646.592-1.074.768-.428.177-.906.265-1.434.265-.672,0-1.269-.139-1.788-.414-.521-.276-.923-.662-1.206-1.158-.284-.496-.426-1.056-.426-1.68,0-.616.138-1.172.414-1.668.275-.496.655-.883,1.14-1.158.483-.276,1.03-.414,1.638-.414s1.15.138,1.626.414c.476.275.849.662,1.116,1.158s.402,1.063.402,1.704c0,.088-.008.203-.024.348ZM395.894,47.965c-.372.336-.59.776-.654,1.32h4.08c-.063-.536-.282-.974-.653-1.314-.373-.34-.834-.51-1.387-.51s-1.014.168-1.386.504Z" fill="#000" stroke-width="0"/>
    <path d="M402.344,52.772c-.48-.141-.856-.318-1.128-.534l.479-.912c.28.2.62.36,1.021.48.399.119.804.18,1.212.18,1.008,0,1.512-.288,1.512-.864,0-.192-.068-.344-.203-.456-.137-.111-.307-.193-.511-.246-.204-.052-.494-.109-.87-.174-.512-.08-.93-.172-1.254-.276-.324-.104-.602-.279-.834-.527s-.348-.596-.348-1.044c0-.576.24-1.038.72-1.387.479-.348,1.124-.521,1.933-.521.424,0,.848.052,1.271.156.424.104.771.244,1.044.42l-.492.912c-.521-.336-1.132-.504-1.836-.504-.487,0-.86.08-1.116.239-.256.16-.384.372-.384.637,0,.208.072.371.216.491.145.12.322.208.534.265.212.056.511.12.894.191.513.089.927.183,1.242.282.316.101.586.271.811.51.224.24.336.576.336,1.009,0,.575-.246,1.033-.738,1.373-.492.341-1.162.511-2.01.511-.52,0-1.02-.07-1.5-.21Z" fill="#000" stroke-width="0"/>
    <path d="M254.182,82.549l-2.376,6.36h-1.104l-1.836-4.824-1.86,4.824h-1.104l-2.364-6.36h1.092l1.848,5.064,1.92-5.064h.972l1.884,5.088,1.896-5.088h1.032Z" fill="#000" stroke-width="0"/>
    <path d="M264.873,82.549l-2.376,6.36h-1.104l-1.836-4.824-1.86,4.824h-1.104l-2.364-6.36h1.092l1.848,5.064,1.92-5.064h.973l1.884,5.088,1.896-5.088h1.031Z" fill="#000" stroke-width="0"/>
    <path d="M275.565,82.549l-2.376,6.36h-1.104l-1.836-4.824-1.86,4.824h-1.104l-2.364-6.36h1.093l1.848,5.064,1.92-5.064h.972l1.884,5.088,1.896-5.088h1.032Z" fill="#000" stroke-width="0"/>
    <path d="M276.033,88.747c-.16-.156-.24-.354-.24-.594,0-.232.08-.426.24-.582s.352-.234.576-.234.412.076.563.229c.152.151.229.348.229.588s-.078.438-.234.594c-.155.156-.342.234-.558.234-.225,0-.416-.078-.576-.234Z" fill="#000" stroke-width="0"/>
    <path d="M279.951,88.562c-.508-.28-.906-.666-1.194-1.158s-.432-1.05-.432-1.674.144-1.183.432-1.674c.288-.492.687-.877,1.194-1.152.508-.276,1.086-.414,1.734-.414.575,0,1.09.116,1.541.348.452.232.803.568,1.051,1.008l-.876.564c-.2-.304-.448-.532-.744-.684-.296-.152-.624-.229-.984-.229-.416,0-.79.092-1.122.276-.332.184-.592.446-.779.786-.188.34-.282.729-.282,1.17,0,.448.094.842.282,1.182.188.34.447.603.779.786s.706.276,1.122.276c.36,0,.688-.076.984-.229.296-.151.544-.38.744-.684l.876.552c-.248.44-.599.778-1.051,1.014-.451.236-.966.354-1.541.354-.648,0-1.227-.141-1.734-.42Z" fill="#000" stroke-width="0"/>
    <path d="M290.104,83.137c.468.433.701,1.076.701,1.933v3.84h-1.092v-.84c-.191.296-.466.521-.822.678-.355.156-.777.234-1.266.234-.712,0-1.282-.172-1.71-.517-.428-.344-.642-.796-.642-1.355s.203-1.01.611-1.351c.408-.34,1.057-.51,1.944-.51h1.824v-.228c0-.496-.145-.876-.433-1.141-.287-.264-.712-.396-1.271-.396-.376,0-.744.062-1.104.186-.36.124-.665.29-.912.498l-.48-.863c.328-.265.72-.467,1.176-.606s.94-.21,1.452-.21c.88,0,1.554.216,2.022.647ZM288.957,87.799c.32-.195.552-.474.696-.834v-.888h-1.776c-.977,0-1.464.328-1.464.984,0,.319.124.571.372.756.248.184.592.275,1.032.275s.819-.098,1.14-.294Z" fill="#000" stroke-width="0"/>
    <path d="M292.941,80.005h1.151v8.904h-1.151v-8.904Z" fill="#000" stroke-width="0"/>
    <path d="M296.307,81.11c-.148-.145-.222-.32-.222-.528s.073-.386.222-.534c.148-.147.334-.222.559-.222s.409.07.558.21c.147.14.222.314.222.522,0,.216-.074.397-.222.546-.148.147-.334.222-.558.222s-.41-.072-.559-.216ZM296.289,82.549h1.151v6.36h-1.151v-6.36Z" fill="#000" stroke-width="0"/>
    <path d="M304.959,83.192c.476.468.714,1.154.714,2.058v3.66h-1.152v-3.528c0-.615-.147-1.08-.444-1.392-.296-.312-.72-.468-1.271-.468-.624,0-1.116.182-1.477.546-.359.364-.539.886-.539,1.565v3.276h-1.152v-6.36h1.104v.96c.232-.327.547-.579.942-.756.396-.176.846-.264,1.351-.264.808,0,1.449.234,1.926.702Z" fill="#000" stroke-width="0"/>
    <path d="M308.133,88.772c-.48-.141-.856-.318-1.128-.534l.479-.912c.28.2.62.36,1.021.48.399.119.804.18,1.212.18,1.008,0,1.512-.288,1.512-.864,0-.192-.068-.344-.203-.456-.137-.111-.307-.193-.511-.246-.204-.052-.494-.109-.87-.174-.512-.08-.93-.172-1.254-.276-.324-.104-.602-.279-.834-.527s-.348-.596-.348-1.044c0-.576.24-1.038.72-1.387.479-.348,1.124-.521,1.933-.521.424,0,.848.052,1.271.156.424.104.771.244,1.044.42l-.492.912c-.521-.336-1.132-.504-1.836-.504-.487,0-.86.08-1.116.239-.256.16-.384.372-.384.637,0,.208.072.371.216.491.145.12.322.208.534.265.212.056.511.12.894.191.513.089.927.183,1.242.282.316.101.586.271.811.51.224.24.336.576.336,1.009,0,.575-.246,1.033-.738,1.373-.492.341-1.162.511-2.01.511-.52,0-1.02-.07-1.5-.21Z" fill="#000" stroke-width="0"/>
    <path d="M313.839,81.11c-.148-.145-.223-.32-.223-.528s.074-.386.223-.534c.147-.147.333-.222.558-.222s.41.07.559.21c.147.14.222.314.222.522,0,.216-.074.397-.222.546-.148.147-.335.222-.559.222s-.41-.072-.558-.216ZM313.82,82.549h1.152v6.36h-1.152v-6.36Z" fill="#000" stroke-width="0"/>
    <path d="M321.507,83.137c.468.433.702,1.076.702,1.933v3.84h-1.092v-.84c-.192.296-.467.521-.822.678-.356.156-.778.234-1.267.234-.712,0-1.282-.172-1.71-.517-.428-.344-.642-.796-.642-1.355s.204-1.01.612-1.351c.408-.34,1.056-.51,1.943-.51h1.824v-.228c0-.496-.145-.876-.432-1.141-.288-.264-.713-.396-1.272-.396-.376,0-.744.062-1.104.186-.36.124-.665.29-.912.498l-.48-.863c.328-.265.72-.467,1.177-.606.455-.14.939-.21,1.451-.21.88,0,1.555.216,2.022.647ZM320.36,87.799c.32-.195.552-.474.696-.834v-.888h-1.775c-.977,0-1.465.328-1.465.984,0,.319.124.571.372.756.248.184.592.275,1.032.275s.82-.098,1.14-.294Z" fill="#000" stroke-width="0"/>
    <path d="M324.045,88.747c-.16-.156-.24-.354-.24-.594,0-.232.08-.426.24-.582.159-.156.352-.234.575-.234s.412.076.564.229c.151.151.228.348.228.588s-.078.438-.233.594c-.156.156-.343.234-.559.234-.224,0-.416-.078-.575-.234Z" fill="#000" stroke-width="0"/>
    <path d="M328.364,81.997v.552h1.849v.948h-1.824v5.412h-1.152v-5.412h-1.08v-.948h1.08v-.563c0-.632.184-1.132.552-1.5s.884-.552,1.548-.552c.256,0,.496.031.721.096.224.064.416.156.576.276l-.349.876c-.264-.2-.56-.301-.888-.301-.688,0-1.032.372-1.032,1.116Z" fill="#000" stroke-width="0"/>
    <path d="M334.256,82.778c.393-.192.868-.288,1.428-.288v1.116c-.063-.008-.151-.013-.264-.013-.624,0-1.114.187-1.47.559-.356.372-.534.902-.534,1.59v3.168h-1.152v-6.36h1.104v1.068c.2-.368.496-.648.888-.84Z" fill="#000" stroke-width="0"/>
    <path d="M245.595,106.562c-.508-.28-.906-.666-1.194-1.158s-.432-1.05-.432-1.674.144-1.183.432-1.674c.288-.492.686-.877,1.194-1.152.508-.276,1.086-.414,1.734-.414.576,0,1.09.116,1.542.348.452.232.802.568,1.05,1.008l-.876.564c-.2-.304-.448-.532-.744-.684-.296-.152-.624-.229-.984-.229-.416,0-.79.092-1.122.276-.332.184-.592.446-.78.786-.188.34-.282.729-.282,1.17,0,.448.094.842.282,1.182.188.34.448.603.78.786s.706.276,1.122.276c.36,0,.688-.076.984-.229.296-.151.544-.38.744-.684l.876.552c-.248.44-.598.778-1.05,1.014-.452.236-.966.354-1.542.354-.647,0-1.226-.141-1.734-.42Z" fill="#000" stroke-width="0"/>
    <path d="M252.333,106.562c-.504-.28-.898-.666-1.182-1.158s-.426-1.05-.426-1.674.142-1.183.426-1.674c.284-.492.678-.877,1.182-1.152.504-.276,1.072-.414,1.704-.414s1.198.138,1.698.414c.5.275.892.66,1.176,1.152.284.491.426,1.05.426,1.674s-.142,1.182-.426,1.674c-.284.492-.676.878-1.176,1.158-.5.279-1.066.42-1.698.42s-1.2-.141-1.704-.42ZM255.136,105.692c.324-.188.578-.452.762-.792.184-.34.276-.73.276-1.17s-.092-.83-.276-1.17c-.184-.34-.438-.603-.762-.786-.324-.185-.69-.276-1.099-.276s-.773.092-1.098.276c-.324.184-.58.446-.768.786s-.282.729-.282,1.17.094.83.282,1.17.444.604.768.792c.324.188.69.282,1.098.282s.774-.095,1.099-.282Z" fill="#000" stroke-width="0"/>
    <path d="M264.256,101.192c.476.468.713,1.154.713,2.058v3.66h-1.151v-3.528c0-.615-.148-1.08-.444-1.392-.296-.312-.72-.468-1.271-.468-.624,0-1.116.182-1.477.546-.359.364-.54.886-.54,1.565v3.276h-1.151v-6.36h1.104v.96c.232-.327.546-.579.942-.756.396-.176.846-.264,1.35-.264.808,0,1.45.234,1.927.702Z" fill="#000" stroke-width="0"/>
    <path d="M270.682,106.538c-.168.145-.377.254-.625.33s-.504.114-.768.114c-.64,0-1.136-.172-1.488-.517-.352-.344-.527-.836-.527-1.476v-3.492h-1.08v-.948h1.08v-1.392h1.152v1.392h1.823v.948h-1.823v3.444c0,.344.085.607.258.792.172.184.418.275.737.275.353,0,.652-.1.9-.3l.36.828Z" fill="#000" stroke-width="0"/>
    <path d="M276.411,101.137c.468.433.702,1.076.702,1.933v3.84h-1.092v-.84c-.192.296-.467.521-.822.678-.356.156-.778.234-1.266.234-.713,0-1.282-.172-1.711-.517-.428-.344-.642-.796-.642-1.355s.204-1.01.612-1.351c.408-.34,1.056-.51,1.943-.51h1.824v-.228c0-.496-.144-.876-.432-1.141-.288-.264-.712-.396-1.272-.396-.376,0-.743.062-1.104.186s-.664.29-.912.498l-.479-.863c.327-.265.72-.467,1.176-.606s.939-.21,1.451-.21c.881,0,1.555.216,2.022.647ZM275.266,105.799c.319-.195.552-.474.695-.834v-.888h-1.775c-.977,0-1.465.328-1.465.984,0,.319.125.571.373.756.247.184.592.275,1.031.275s.82-.098,1.141-.294Z" fill="#000" stroke-width="0"/>
    <path d="M280.322,106.562c-.508-.28-.905-.666-1.193-1.158s-.432-1.05-.432-1.674.144-1.183.432-1.674c.288-.492.686-.877,1.193-1.152.509-.276,1.087-.414,1.734-.414.576,0,1.09.116,1.542.348.452.232.802.568,1.05,1.008l-.875.564c-.201-.304-.449-.532-.744-.684-.297-.152-.625-.229-.984-.229-.416,0-.79.092-1.122.276-.332.184-.592.446-.78.786-.188.34-.281.729-.281,1.17,0,.448.094.842.281,1.182.188.34.448.603.78.786s.706.276,1.122.276c.359,0,.688-.076.984-.229.295-.151.543-.38.744-.684l.875.552c-.248.44-.598.778-1.05,1.014-.452.236-.966.354-1.542.354-.647,0-1.226-.141-1.734-.42Z" fill="#000" stroke-width="0"/>
    <path d="M289.797,106.538c-.168.145-.376.254-.624.33s-.504.114-.769.114c-.64,0-1.136-.172-1.487-.517-.353-.344-.528-.836-.528-1.476v-3.492h-1.08v-.948h1.08v-1.392h1.152v1.392h1.824v.948h-1.824v3.444c0,.344.086.607.258.792.172.184.418.275.738.275.352,0,.652-.1.9-.3l.359.828Z" fill="#000" stroke-width="0"/>
    <path d="M299.229,99.091c.848.444,1.51,1.066,1.986,1.866.476.8.714,1.712.714,2.736s-.188,1.828-.563,2.412c-.377.584-.9.876-1.572.876-.385,0-.702-.098-.954-.294s-.414-.479-.486-.847c-.239.368-.554.65-.942.847-.388.196-.834.294-1.338.294-.56,0-1.063-.132-1.512-.396-.448-.264-.798-.63-1.05-1.098s-.378-.998-.378-1.59c0-.584.126-1.11.378-1.578s.602-.832,1.05-1.092.952-.391,1.512-.391c.465,0,.885.086,1.261.258.376.173.688.427.936.763v-.973h1.044v4.32c0,.296.064.515.192.654s.292.21.491.21c.353,0,.627-.206.822-.618.196-.412.295-.994.295-1.746,0-.888-.201-1.67-.601-2.346-.4-.676-.962-1.202-1.687-1.578-.724-.376-1.554-.564-2.489-.564-.944,0-1.778.196-2.502.589-.725.392-1.286.939-1.687,1.644s-.6,1.508-.6,2.412c0,.912.197,1.72.594,2.424s.952,1.254,1.668,1.65c.716.396,1.542.594,2.479.594.392,0,.791-.044,1.199-.132.408-.089.78-.221,1.116-.396l.265.769c-.353.184-.761.323-1.225.42-.464.096-.916.144-1.355.144-1.097,0-2.07-.233-2.922-.702-.853-.468-1.515-1.118-1.986-1.949-.473-.832-.708-1.772-.708-2.82s.237-1.984.714-2.809c.476-.823,1.144-1.468,2.004-1.932.859-.464,1.842-.696,2.946-.696,1.08,0,2.044.223,2.892.666ZM297.291,105.782c.308-.176.552-.426.731-.75.181-.324.271-.702.271-1.134s-.09-.811-.271-1.135c-.18-.323-.424-.571-.731-.743-.309-.172-.658-.259-1.051-.259-.607,0-1.1.194-1.476.582-.376.389-.563.906-.563,1.555s.189,1.168.569,1.56c.38.393.87.588,1.47.588.393,0,.742-.088,1.051-.264Z" fill="#000" stroke-width="0"/>
    <path d="M304.635,106.562c-.508-.28-.906-.666-1.194-1.158s-.432-1.05-.432-1.674.144-1.183.432-1.674c.288-.492.687-.877,1.194-1.152.508-.276,1.086-.414,1.734-.414.575,0,1.09.116,1.541.348.452.232.803.568,1.051,1.008l-.876.564c-.2-.304-.448-.532-.744-.684-.296-.152-.624-.229-.984-.229-.416,0-.79.092-1.122.276-.332.184-.592.446-.779.786-.188.34-.282.729-.282,1.17,0,.448.094.842.282,1.182.188.34.447.603.779.786s.706.276,1.122.276c.36,0,.688-.076.984-.229.296-.151.544-.38.744-.684l.876.552c-.248.44-.599.778-1.051,1.014-.451.236-.966.354-1.541.354-.648,0-1.227-.141-1.734-.42Z" fill="#000" stroke-width="0"/>
    <path d="M314.786,101.137c.468.433.702,1.076.702,1.933v3.84h-1.092v-.84c-.192.296-.466.521-.822.678-.355.156-.777.234-1.266.234-.712,0-1.282-.172-1.71-.517-.429-.344-.642-.796-.642-1.355s.203-1.01.611-1.351c.408-.34,1.057-.51,1.944-.51h1.823v-.228c0-.496-.144-.876-.432-1.141-.288-.264-.712-.396-1.271-.396-.377,0-.744.062-1.104.186s-.664.29-.912.498l-.479-.863c.328-.265.72-.467,1.176-.606s.939-.21,1.452-.21c.88,0,1.554.216,2.021.647ZM313.641,105.799c.319-.195.552-.474.695-.834v-.888h-1.775c-.977,0-1.464.328-1.464.984,0,.319.124.571.372.756.248.184.592.275,1.031.275s.82-.098,1.141-.294Z" fill="#000" stroke-width="0"/>
    <path d="M317.625,98.005h1.151v8.904h-1.151v-8.904Z" fill="#000" stroke-width="0"/>
    <path d="M320.99,99.11c-.148-.145-.222-.32-.222-.528s.073-.386.222-.534c.148-.147.334-.222.559-.222s.409.07.558.21c.147.14.222.314.222.522,0,.216-.074.397-.222.546-.148.147-.334.222-.558.222s-.41-.072-.559-.216ZM320.973,100.549h1.151v6.36h-1.151v-6.36Z" fill="#000" stroke-width="0"/>
    <path d="M329.643,101.192c.476.468.714,1.154.714,2.058v3.66h-1.152v-3.528c0-.615-.147-1.08-.444-1.392-.296-.312-.72-.468-1.271-.468-.624,0-1.116.182-1.477.546-.359.364-.539.886-.539,1.565v3.276h-1.152v-6.36h1.104v.96c.232-.327.547-.579.942-.756.396-.176.846-.264,1.351-.264.808,0,1.449.234,1.926.702Z" fill="#000" stroke-width="0"/>
    <path d="M332.816,106.772c-.48-.141-.856-.318-1.128-.534l.479-.912c.28.2.62.36,1.021.48.399.119.804.18,1.212.18,1.008,0,1.512-.288,1.512-.864,0-.192-.068-.344-.203-.456-.137-.111-.307-.193-.511-.246-.204-.052-.494-.109-.87-.174-.512-.08-.93-.172-1.254-.276-.324-.104-.602-.279-.834-.527s-.348-.596-.348-1.044c0-.576.24-1.038.72-1.387.479-.348,1.124-.521,1.933-.521.424,0,.848.052,1.271.156.424.104.771.244,1.044.42l-.492.912c-.521-.336-1.132-.504-1.836-.504-.487,0-.86.08-1.116.239-.256.16-.384.372-.384.637,0,.208.072.371.216.491.145.12.322.208.534.265.212.056.511.12.894.191.513.089.927.183,1.242.282.316.101.586.271.811.51.224.24.336.576.336,1.009,0,.575-.246,1.033-.738,1.373-.492.341-1.162.511-2.01.511-.52,0-1.02-.07-1.5-.21Z" fill="#000" stroke-width="0"/>
    <path d="M338.522,99.11c-.148-.145-.223-.32-.223-.528s.074-.386.223-.534c.147-.147.333-.222.558-.222s.41.07.559.21c.147.14.222.314.222.522,0,.216-.074.397-.222.546-.148.147-.335.222-.559.222s-.41-.072-.558-.216ZM338.504,100.549h1.152v6.36h-1.152v-6.36Z" fill="#000" stroke-width="0"/>
    <path d="M346.189,101.137c.469.433.703,1.076.703,1.933v3.84h-1.093v-.84c-.192.296-.466.521-.821.678-.356.156-.778.234-1.267.234-.712,0-1.282-.172-1.71-.517-.428-.344-.642-.796-.642-1.355s.204-1.01.611-1.351c.408-.34,1.057-.51,1.944-.51h1.824v-.228c0-.496-.145-.876-.432-1.141-.289-.264-.713-.396-1.272-.396-.376,0-.744.062-1.104.186-.359.124-.664.29-.912.498l-.479-.863c.328-.265.72-.467,1.176-.606s.94-.21,1.452-.21c.88,0,1.554.216,2.021.647ZM345.044,105.799c.319-.195.552-.474.696-.834v-.888h-1.776c-.976,0-1.464.328-1.464.984,0,.319.124.571.372.756.248.184.592.275,1.032.275s.819-.098,1.14-.294Z" fill="#000" stroke-width="0"/>
    <path d="M348.729,106.747c-.16-.156-.24-.354-.24-.594,0-.232.08-.426.24-.582.159-.156.352-.234.575-.234s.412.076.564.229c.151.151.228.348.228.588s-.078.438-.233.594c-.156.156-.343.234-.559.234-.224,0-.416-.078-.575-.234Z" fill="#000" stroke-width="0"/>
    <path d="M353.048,99.997v.552h1.849v.948h-1.824v5.412h-1.152v-5.412h-1.08v-.948h1.08v-.563c0-.632.184-1.132.552-1.5s.884-.552,1.548-.552c.256,0,.496.031.721.096.224.064.416.156.576.276l-.349.876c-.264-.2-.56-.301-.888-.301-.688,0-1.032.372-1.032,1.116Z" fill="#000" stroke-width="0"/>
    <path d="M358.939,100.778c.393-.192.868-.288,1.428-.288v1.116c-.063-.008-.151-.013-.264-.013-.624,0-1.114.187-1.47.559-.356.372-.534.902-.534,1.59v3.168h-1.152v-6.36h1.104v1.068c.2-.368.496-.648.888-.84Z" fill="#000" stroke-width="0"/>
    <path d="M245.697,124.52c-.528-.34-.944-.836-1.248-1.488s-.456-1.426-.456-2.322.152-1.67.456-2.322c.304-.651.72-1.147,1.248-1.487.528-.34,1.128-.51,1.8-.51s1.274.17,1.806.51.95.836,1.254,1.487c.304.652.456,1.427.456,2.322s-.152,1.67-.456,2.322c-.305.652-.723,1.148-1.254,1.488s-1.134.51-1.806.51-1.271-.17-1.8-.51ZM248.919,122.929c.348-.495.522-1.235.522-2.22s-.174-1.724-.522-2.22-.822-.744-1.422-.744c-.592,0-1.062.248-1.41.744s-.522,1.236-.522,2.22.174,1.725.522,2.22c.348.497.818.744,1.41.744.601,0,1.074-.247,1.422-.744Z" fill="#000" stroke-width="0"/>
    <path d="M258.346,116.509v1.044l-3.264,7.356h-1.668l3.156-7.08h-3.3v1.428h-1.452v-2.748h6.528Z" fill="#000" stroke-width="0"/>
    <path d="M267.921,120.043c.44.212.784.515,1.032.906s.372.844.372,1.356c0,.544-.137,1.021-.408,1.434-.272.412-.64.73-1.104.954-.464.224-.983.336-1.56.336-1.152,0-2.046-.36-2.683-1.08-.636-.72-.953-1.752-.953-3.096,0-.944.172-1.75.516-2.418s.826-1.177,1.446-1.524,1.338-.521,2.153-.521c.433,0,.838.046,1.219.138.38.092.709.226.99.401l-.576,1.177c-.416-.272-.948-.408-1.597-.408-.808,0-1.439.248-1.896.744s-.684,1.212-.684,2.147v.013c.247-.288.563-.506.947-.654s.816-.222,1.296-.222c.552,0,1.048.105,1.488.317ZM267.357,123.415c.304-.26.455-.605.455-1.038,0-.439-.151-.788-.455-1.044-.305-.256-.713-.384-1.225-.384-.504,0-.914.136-1.23.408-.315.271-.474.616-.474,1.032,0,.407.154.745.462,1.014.309.268.734.402,1.278.402.487,0,.884-.131,1.188-.391Z" fill="#000" stroke-width="0"/>
    <path d="M276.417,116.509v1.044l-3.264,7.356h-1.668l3.155-7.08h-3.299v1.428h-1.453v-2.748h6.528Z" fill="#000" stroke-width="0"/>
    <path d="M282.393,124.52c-.527-.34-.944-.836-1.248-1.488s-.456-1.426-.456-2.322.152-1.67.456-2.322c.304-.651.721-1.147,1.248-1.487.528-.34,1.128-.51,1.8-.51s1.274.17,1.806.51c.532.34.95.836,1.255,1.487.304.652.456,1.427.456,2.322s-.152,1.67-.456,2.322c-.305.652-.723,1.148-1.255,1.488-.531.34-1.133.51-1.806.51s-1.271-.17-1.8-.51ZM285.615,122.929c.348-.495.521-1.235.521-2.22s-.174-1.724-.521-2.22c-.349-.496-.822-.744-1.423-.744-.592,0-1.062.248-1.409.744-.349.496-.522,1.236-.522,2.22s.174,1.725.522,2.22c.348.497.817.744,1.409.744.601,0,1.074-.247,1.423-.744Z" fill="#000" stroke-width="0"/>
    <path d="M293.996,120.77c.408.432.612.972.612,1.62,0,.487-.124.932-.372,1.331-.248.4-.622.719-1.121.954-.5.236-1.11.354-1.83.354-.601,0-1.179-.086-1.734-.258-.557-.172-1.03-.41-1.422-.714l.672-1.213c.304.257.674.459,1.109.606.437.148.887.222,1.351.222.552,0,.985-.113,1.302-.342.316-.228.475-.538.475-.93s-.15-.698-.45-.918-.759-.33-1.374-.33h-.769v-1.068l1.908-2.268h-3.815v-1.309h5.724v1.044l-2.04,2.425c.775.096,1.368.359,1.775.792Z" fill="#000" stroke-width="0"/>
    <path d="M304.454,117.469c.636.721.954,1.752.954,3.097,0,.943-.172,1.75-.516,2.418s-.826,1.176-1.446,1.523c-.62.349-1.338.522-2.154.522-.432,0-.838-.046-1.218-.138-.38-.093-.71-.227-.99-.402l.576-1.176c.416.271.948.407,1.596.407.809,0,1.44-.247,1.896-.743s.684-1.212.684-2.148v-.012c-.248.288-.563.506-.947.653-.385.148-.816.223-1.297.223-.552,0-1.048-.106-1.487-.318-.44-.212-.784-.514-1.032-.906-.248-.392-.372-.844-.372-1.355,0-.544.136-1.022.408-1.435.271-.411.64-.729,1.104-.953.463-.225.983-.336,1.56-.336,1.151,0,2.046.359,2.682,1.079ZM303.122,120.062c.316-.272.475-.616.475-1.032,0-.408-.154-.746-.462-1.014-.309-.269-.734-.402-1.278-.402-.488,0-.884.13-1.188.39-.304.261-.455.606-.455,1.038,0,.44.151.788.455,1.044.305.256.713.384,1.225.384.504,0,.914-.136,1.229-.407Z" fill="#000" stroke-width="0"/>
    <path d="M312.488,123.589v1.32h-6.191v-1.044l3.336-3.168c.375-.36.63-.674.762-.942.132-.268.198-.534.198-.798,0-.392-.132-.691-.396-.899-.264-.208-.651-.312-1.164-.312-.856,0-1.512.292-1.968.876l-1.092-.84c.328-.44.77-.782,1.326-1.026.556-.243,1.178-.365,1.865-.365.912,0,1.641.216,2.185.647s.815,1.021.815,1.764c0,.456-.096.885-.287,1.284-.192.4-.561.856-1.104,1.368l-2.244,2.136h3.96Z" fill="#000" stroke-width="0"/>
    <path d="M324.188,123.001h-1.488v1.908h-1.512v-1.908h-4.608v-1.08l4.141-5.412h1.668l-3.9,5.173h2.748v-1.692h1.464v1.692h1.488v1.319Z" fill="#000" stroke-width="0"/>
    <path d="M332.336,123.001h-1.488v1.908h-1.512v-1.908h-4.608v-1.08l4.141-5.412h1.668l-3.9,5.173h2.748v-1.692h1.464v1.692h1.488v1.319Z" fill="#000" stroke-width="0"/>
  </g>
  <rect x="233.478" width="2" height="150" fill="#272824" stroke-width="0"/>
  <rect x="-.106" width="522" height="150" fill="none" stroke-width="0"/>
</svg>