<?xml version="1.0" encoding="UTF-8"?>
<svg id="Calque_1" data-name="Calque 1" xmlns="http://www.w3.org/2000/svg" xmlns:xlink="http://www.w3.org/1999/xlink" viewBox="0 0 521.79 150">
  <defs>
    <style>
      .cls-1 {
        fill: url(#linear-gradient-12);
      }

      .cls-1, .cls-2, .cls-3, .cls-4, .cls-5, .cls-6, .cls-7, .cls-8, .cls-9, .cls-10, .cls-11, .cls-12, .cls-13, .cls-14, .cls-15, .cls-16, .cls-17, .cls-18, .cls-19 {
        stroke-width: 0px;
      }

      .cls-2 {
        fill: url(#linear-gradient);
      }

      .cls-3 {
        fill: url(#linear-gradient-6);
      }

      .cls-4 {
        fill: #272824;
      }

      .cls-5 {
        fill: url(#linear-gradient-15);
      }

      .cls-6 {
        fill: url(#linear-gradient-11);
      }

      .cls-7 {
        fill: url(#linear-gradient-5);
      }

      .cls-8 {
        fill: url(#linear-gradient-13);
      }

      .cls-9 {
        fill: url(#linear-gradient-16);
      }

      .cls-10 {
        fill: url(#linear-gradient-14);
      }

      .cls-11 {
        fill: url(#linear-gradient-2);
      }

      .cls-12 {
        fill: url(#linear-gradient-7);
      }

      .cls-13 {
        fill: url(#linear-gradient-3);
      }

      .cls-14 {
        fill: url(#linear-gradient-9);
      }

      .cls-15 {
        fill: #1d1d1b;
      }

      .cls-16 {
        fill: url(#linear-gradient-8);
      }

      .cls-17 {
        fill: url(#linear-gradient-10);
      }

      .cls-18 {
        fill: #131328;
      }

      .cls-19 {
        fill: url(#linear-gradient-4);
      }
    </style>
    <linearGradient id="linear-gradient" x1="10.32" y1="81.43" x2="43.77" y2="53.6" gradientUnits="userSpaceOnUse">
      <stop offset="0" stop-color="#eaca85"/>
      <stop offset="1" stop-color="#815b38"/>
    </linearGradient>
    <linearGradient id="linear-gradient-2" x1="21.68" y1="95.09" x2="55.13" y2="67.25" xlink:href="#linear-gradient"/>
    <linearGradient id="linear-gradient-3" x1="13.27" y1="84.97" x2="46.72" y2="57.14" xlink:href="#linear-gradient"/>
    <linearGradient id="linear-gradient-4" x1="21.41" y1="94.75" x2="54.86" y2="66.92" xlink:href="#linear-gradient"/>
    <linearGradient id="linear-gradient-5" x1="30.23" y1="105.36" x2="63.68" y2="77.53" xlink:href="#linear-gradient"/>
    <linearGradient id="linear-gradient-6" x1="15.3" y1="87.42" x2="48.75" y2="59.58" xlink:href="#linear-gradient"/>
    <linearGradient id="linear-gradient-7" x1="38.8" y1="115.66" x2="72.25" y2="87.82" xlink:href="#linear-gradient"/>
    <linearGradient id="linear-gradient-8" x1="38.09" y1="114.8" x2="71.54" y2="86.97" xlink:href="#linear-gradient"/>
    <linearGradient id="linear-gradient-9" x1="26.16" y1="100.46" x2="59.61" y2="72.63" xlink:href="#linear-gradient"/>
    <linearGradient id="linear-gradient-10" x1="26.19" y1="100.5" x2="59.64" y2="72.67" xlink:href="#linear-gradient"/>
    <linearGradient id="linear-gradient-11" x1="13.19" y1="84.88" x2="46.64" y2="57.05" xlink:href="#linear-gradient"/>
    <linearGradient id="linear-gradient-12" x1="13.37" y1="85.09" x2="46.82" y2="57.26" xlink:href="#linear-gradient"/>
    <linearGradient id="linear-gradient-13" x1="7" y1="77.44" x2="40.45" y2="49.6" xlink:href="#linear-gradient"/>
    <linearGradient id="linear-gradient-14" x1="7.16" y1="77.63" x2="40.61" y2="49.8" xlink:href="#linear-gradient"/>
    <linearGradient id="linear-gradient-15" x1="10.15" y1="81.22" x2="43.6" y2="53.39" xlink:href="#linear-gradient"/>
    <linearGradient id="linear-gradient-16" x1="11.12" y1="82.38" x2="44.57" y2="54.55" xlink:href="#linear-gradient"/>
  </defs>
  <g>
    <g>
      <g>
        <path class="cls-18" d="M81.31,91.49c-1.07,1.59-3.37,3.1-6.87,4.53-3.51,1.43-6.9,2.15-10.17,2.15-2.82,0-5.6-.49-8.37-1.46-3.28-1.18-6.06-2.94-8.37-5.3-1.95-2-3.51-4.4-4.68-7.22-1.33-3.17-2-6.5-2-9.98,0-2.51.55-5.17,1.65-7.98,1.1-2.81,2.73-5.3,4.87-7.45,2.4-2.4,5.12-4.21,8.14-5.41,3.02-1.2,5.88-1.8,8.6-1.8,1.64,0,3.38.24,5.22.73,1.84.49,3.58,1.22,5.22,2.19.72.41,1.15.82,1.3,1.23.15.41.15.74,0,1-.31.36-.69.36-1.16,0-.2-.2-.6-.51-1.19-.92-.59-.41-1.35-.84-2.27-1.31-.92-.46-1.93-.83-3-1.11-1.08-.28-2.44-.42-4.08-.42-2.05,0-4,.4-5.85,1.19-1.85.79-3.64,2.03-5.39,3.72-4.11,3.94-6.16,9.49-6.16,16.66,0,7.78,2.13,13.79,6.39,18.04,1.13,1.13,2.87,2.14,5.23,3.03,2.36.9,4.51,1.34,6.46,1.34,2.87,0,5.63-.6,8.27-1.8,2.64-1.2,4.71-2.67,6.19-4.41.67-.77,1.33-.92,2-.46.41.31.41.72,0,1.23Z"/>
        <path class="cls-18" d="M92.86,86.92h-3.34s-2.35-4.88-2.35-4.88c-.66.29-1.19.5-1.6.65-1.36.47-2.59.7-3.68.7-.99,0-2.68-.39-5.06-1.16-1.25-.4-2.22-.61-2.92-.61-.55,0-1.05.09-1.51.28-.46.19-.82.5-1.07.95l-1.65,3.68c-.15.26-.37.39-.66.39-.26,0-.33-.2-.22-.61l11.37-26.56,12.69,27.17ZM86.78,81.07l-.12-.38-7.6-16.26-6.95,16.8c.92-.29,1.79-.56,2.62-.8.83-.24,1.57-.36,2.23-.36.96,0,2,.18,3.14.55,2.61.85,4.28,1.27,5.02,1.27.37,0,.73-.05,1.1-.16.37-.11.55-.33.55-.66Z"/>
        <path class="cls-18" d="M120.88,86.61h-3.15v-26.54h3.15v26.54Z"/>
        <path class="cls-18" d="M143.46,60.38v25.88c-.07.33-.15.5-.22.5l-.77-.67-16.17-24.17v24.23c-.15.22-.31.33-.5.33-.22,0-.39-.13-.5-.39v-26.16h3.21s13.95,21.77,13.95,21.77v-21.33c0-.3.15-.45.44-.45.29-.07.48.07.55.44Z"/>
        <path class="cls-18" d="M164.28,79.58c0,2.02-.78,3.74-2.35,5.16-1.56,1.42-3.36,2.12-5.38,2.12-1.51,0-2.81-.27-3.89-.8-1.09-.53-2.27-1.37-3.56-2.51-.33-.29-.62-.62-.86-.97-.24-.35-.36-.65-.36-.91,0-.44.17-.66.5-.66.15,0,.39.3.72.9.33.6.75,1.14,1.27,1.61.74.69,1.51,1.24,2.32,1.64,1.1.55,2.28.82,3.53.82,1.66,0,3.01-.49,4.06-1.46,1.05-.97,1.57-2.21,1.57-3.72,0-.73-.17-1.49-.52-2.26-.35-.77-.91-1.58-1.68-2.42-1.55-1.21-2.88-2.28-4-3.19-1.12-.92-1.96-1.67-2.51-2.26-.74-.73-1.32-1.62-1.74-2.64-.42-1.03-.63-1.91-.63-2.64,0-.59.14-1.27.41-2.06.28-.79.67-1.46,1.19-2.01,1.12-1.19,2.75-1.49,3.97-1.49.74,0,1.51.17,2.32.5.81.33,1.21.64,1.21.94s-.15.44-.44.44c-.15,0-.5-.17-1.05-.5-.55-.33-1.25-.5-2.1-.5-1.18,0-2.06.33-2.65.99-.59.66-.88,1.47-.88,2.43,0,.63.13,1.2.39,1.71.26.52.79,1.21,1.6,2.1l3.09,2.81c1.32.99,2.08,1.57,2.26,1.74.18.17.53.51,1.05,1.02,1.03,1.03,1.81,2,2.35,2.9.53.9.8,1.96.8,3.17Z"/>
        <path class="cls-18" d="M171.86,86.61h-3.15v-26.54h3.15v26.54Z"/>
        <path class="cls-18" d="M200.41,86.92h-3.34s-2.35-4.88-2.35-4.88c-.66.29-1.19.5-1.6.65-1.36.47-2.59.7-3.68.7-.99,0-2.68-.39-5.06-1.16-1.25-.4-2.22-.61-2.92-.61-.55,0-1.05.09-1.51.28-.46.19-.82.5-1.07.95l-1.65,3.68c-.15.26-.37.39-.66.39-.26,0-.33-.2-.22-.61l11.37-26.56,12.69,27.17ZM194.32,81.07l-.12-.38-7.6-16.26-6.95,16.8c.92-.29,1.79-.56,2.62-.8.83-.24,1.57-.36,2.23-.36.96,0,2,.18,3.14.55,2.61.85,4.28,1.27,5.02,1.27.37,0,.73-.05,1.1-.16.37-.11.55-.33.55-.66Z"/>
        <path class="cls-18" d="M113.29,86.25s0-.01,0-.02c0-.01,0-.02,0-.03,0-.04,0-.08,0-.13,0-.29-.15-.44-.45-.44h-12.34v-25.55h-3.2v26.54h15.54c.23-.05.36-.14.42-.27.01-.02.02-.03.02-.05,0-.02.01-.03.01-.05Z"/>
      </g>
      <g>
        <path class="cls-18" d="M87,91.19h.59v3.79h1.99v.55h-2.58v-4.34Z"/>
        <path class="cls-18" d="M93.39,95.64c-.33,0-.64-.06-.91-.17-.28-.12-.52-.28-.71-.48-.2-.2-.35-.44-.47-.72-.11-.28-.17-.58-.17-.9s.06-.62.17-.9c.11-.28.27-.52.47-.72.2-.2.44-.36.71-.48.28-.12.58-.17.91-.17s.64.06.91.17c.28.12.52.28.71.48.2.2.35.45.47.72.11.28.17.58.17.9s-.06.62-.17.9c-.11.28-.27.52-.47.72-.2.2-.44.37-.71.48-.28.12-.58.17-.91.17ZM93.39,95.08c.25,0,.47-.05.67-.14.2-.09.37-.22.51-.37.14-.16.25-.34.33-.55.08-.21.12-.43.12-.67s-.04-.46-.12-.67c-.08-.21-.19-.39-.33-.55-.14-.16-.31-.28-.51-.37-.2-.09-.42-.14-.67-.14s-.47.05-.67.14c-.2.09-.37.22-.51.37-.14.16-.25.34-.33.55-.08.21-.12.43-.12.67s.04.46.12.67c.08.21.19.39.33.55.14.16.31.28.51.37.2.09.42.14.67.14Z"/>
        <path class="cls-18" d="M97.13,91.19h.68l1.27,3.53h.01l1.32-3.53h.64l-1.71,4.34h-.55l-1.67-4.34Z"/>
        <path class="cls-18" d="M102.81,91.19h2.8v.55h-2.21v1.29h2.06v.55h-2.06v1.39h2.32v.55h-2.91v-4.34Z"/>
        <path class="cls-18" d="M110.71,91.19h1.53c.28,0,.51.04.69.11.18.08.32.17.43.29.1.12.18.25.22.39.04.15.06.29.06.42s-.02.27-.07.4c-.05.13-.12.25-.21.35-.09.1-.2.19-.34.26-.13.07-.28.12-.44.13l1.23,1.98h-.74l-1.1-1.91h-.66v1.91h-.59v-4.34ZM111.3,93.1h.77c.11,0,.23,0,.34-.03.11-.02.21-.05.3-.1.09-.05.16-.12.21-.21.05-.09.08-.21.08-.36s-.03-.27-.08-.36c-.05-.09-.12-.16-.21-.21-.09-.05-.19-.08-.3-.1-.11-.02-.23-.03-.34-.03h-.77v1.4Z"/>
        <path class="cls-18" d="M117.67,95.64c-.33,0-.64-.06-.91-.17-.28-.12-.52-.28-.71-.48-.2-.2-.35-.44-.47-.72-.11-.28-.17-.58-.17-.9s.06-.62.17-.9c.11-.28.27-.52.47-.72.2-.2.44-.36.71-.48.28-.12.58-.17.91-.17s.63.06.91.17c.28.12.52.28.71.48.2.2.35.45.47.72.11.28.17.58.17.9s-.06.62-.17.9c-.11.28-.27.52-.47.72-.2.2-.44.37-.71.48-.28.12-.58.17-.91.17ZM117.67,95.08c.25,0,.47-.05.67-.14.2-.09.37-.22.51-.37.14-.16.25-.34.33-.55.08-.21.12-.43.12-.67s-.04-.46-.12-.67c-.08-.21-.19-.39-.33-.55-.14-.16-.31-.28-.51-.37-.2-.09-.42-.14-.67-.14s-.47.05-.67.14c-.2.09-.37.22-.51.37-.14.16-.25.34-.33.55-.08.21-.12.43-.12.67s.04.46.12.67c.08.21.19.39.33.55.14.16.31.28.51.37.2.09.42.14.67.14Z"/>
        <path class="cls-18" d="M124,95.64c-.33,0-.64-.06-.91-.17-.28-.12-.52-.28-.71-.48-.2-.2-.35-.44-.47-.72-.11-.28-.17-.58-.17-.9s.06-.62.17-.9c.11-.28.27-.52.47-.72.2-.2.44-.36.71-.48.28-.12.58-.17.91-.17s.64.06.91.17c.28.12.52.28.71.48.2.2.35.45.47.72.11.28.17.58.17.9s-.06.62-.17.9c-.11.28-.27.52-.47.72-.2.2-.44.37-.71.48-.28.12-.58.17-.91.17ZM124,95.08c.25,0,.47-.05.67-.14.2-.09.37-.22.52-.37.14-.16.25-.34.33-.55.08-.21.12-.43.12-.67s-.04-.46-.12-.67c-.08-.21-.19-.39-.33-.55-.14-.16-.31-.28-.52-.37-.2-.09-.42-.14-.67-.14s-.47.05-.67.14c-.2.09-.37.22-.51.37s-.25.34-.33.55c-.08.21-.12.43-.12.67s.04.46.12.67c.08.21.19.39.33.55.14.16.31.28.51.37.2.09.42.14.67.14Z"/>
        <path class="cls-18" d="M128.29,91.19h.88l1.38,3.28h.02l1.37-3.28h.88v4.34h-.59v-3.57h-.01l-1.46,3.57h-.39l-1.46-3.57h-.01v3.57h-.59v-4.34Z"/>
        <path class="cls-18" d="M141.84,95.53h-.79l-.53-.58c-.18.22-.38.39-.59.51-.21.12-.45.18-.74.18-.24,0-.46-.04-.64-.11-.18-.07-.33-.17-.44-.28-.12-.12-.2-.25-.26-.4-.05-.15-.08-.3-.08-.46,0-.15.03-.29.08-.41.05-.12.12-.24.21-.34.09-.1.19-.19.32-.28.12-.08.25-.15.38-.21-.14-.15-.26-.3-.36-.45-.1-.16-.15-.34-.15-.55,0-.16.03-.31.09-.43.06-.13.15-.23.25-.32s.23-.15.37-.2c.14-.04.29-.07.44-.07s.3.02.43.06c.14.04.26.1.36.18.1.08.18.18.24.31.06.12.09.27.09.43,0,.13-.03.26-.08.37-.05.11-.12.21-.21.31-.09.09-.18.17-.29.24-.11.07-.21.14-.32.19l.86.89.55-.89h.67l-.84,1.3.99,1.01ZM139.12,93.48c-.09.05-.17.1-.26.16-.09.06-.17.12-.24.19-.07.07-.13.15-.17.24-.04.09-.06.19-.06.3s.02.21.07.3c.04.09.11.17.18.24.08.07.16.12.26.16.1.04.2.06.3.06s.21-.02.3-.05c.09-.03.18-.07.26-.13.08-.05.15-.11.22-.17.07-.07.13-.13.19-.2l-1.05-1.09ZM139.94,92.09c0-.14-.05-.26-.15-.34-.1-.08-.22-.13-.38-.13s-.29.04-.4.13c-.11.09-.17.21-.17.38,0,.07.01.14.04.21.03.07.06.13.1.19.04.06.09.12.14.17.05.05.1.1.15.15.07-.04.15-.09.23-.14.08-.05.15-.1.22-.17.07-.06.12-.13.16-.21.04-.08.06-.16.06-.26Z"/>
        <path class="cls-18" d="M146.74,94.62c.11.16.24.28.41.35.17.08.34.11.51.11.1,0,.2-.01.3-.05.1-.03.19-.08.28-.14.08-.06.15-.14.2-.23.05-.09.08-.19.08-.31,0-.17-.05-.29-.16-.38-.11-.09-.24-.16-.4-.22-.16-.06-.33-.12-.51-.17-.19-.06-.36-.13-.51-.23-.16-.1-.29-.23-.4-.4-.11-.17-.16-.39-.16-.67,0-.13.03-.26.08-.4.06-.14.14-.27.26-.39s.27-.22.46-.3c.19-.08.41-.12.67-.12.24,0,.46.03.68.1.22.07.41.2.57.4l-.48.44c-.07-.11-.18-.21-.31-.28-.13-.07-.29-.1-.46-.1s-.3.02-.41.06c-.11.04-.2.1-.26.17-.07.07-.11.14-.14.22-.03.08-.04.15-.04.21,0,.18.05.32.16.42.11.1.24.18.4.24.16.06.33.12.51.17.19.05.36.12.51.2.16.09.29.21.4.36s.16.35.16.62c0,.21-.04.4-.12.56-.08.17-.19.31-.32.42-.14.11-.29.2-.48.26-.18.06-.38.09-.59.09-.28,0-.54-.05-.79-.15-.25-.1-.45-.25-.59-.45l.48-.42Z"/>
        <path class="cls-18" d="M151.25,91.19h1.53c.28,0,.51.04.69.11.18.08.32.17.43.29.1.12.18.25.22.39.04.15.06.29.06.42s-.02.27-.06.42c-.04.15-.11.28-.22.39-.1.12-.25.21-.43.29-.18.08-.41.11-.69.11h-.94v1.91h-.59v-4.34ZM151.84,93.1h.77c.11,0,.23,0,.34-.03.11-.02.21-.05.3-.1.09-.05.16-.12.21-.21.05-.09.08-.21.08-.36s-.03-.27-.08-.36c-.05-.09-.12-.16-.21-.21-.09-.05-.19-.08-.3-.1-.11-.02-.23-.03-.34-.03h-.77v1.4Z"/>
        <path class="cls-18" d="M157.02,91.19h.53l1.86,4.34h-.69l-.43-1.07h-2.07l-.43,1.07h-.69l1.91-4.34ZM158.07,93.94l-.81-1.99h-.01l-.82,1.99h1.64Z"/>
        <path class="cls-18" d="M164.01,93.36c0-.15.03-.29.09-.42.06-.13.13-.24.23-.34.1-.1.21-.18.34-.23.13-.06.27-.09.42-.09s.29.03.42.09c.13.06.24.13.34.23.1.1.18.21.23.34.06.13.09.27.09.42s-.03.29-.09.42-.13.24-.23.34c-.1.1-.21.18-.34.23-.13.06-.27.09-.42.09s-.29-.03-.42-.09c-.13-.06-.24-.13-.34-.23-.1-.1-.18-.21-.23-.34s-.09-.27-.09-.42Z"/>
        <path class="cls-18" d="M171.34,91.19h.77l2.39,3.57h.01v-3.57h.59v4.34h-.75l-2.41-3.57h-.01v3.57h-.59v-4.34Z"/>
        <path class="cls-18" d="M178.81,91.19h.53l1.86,4.34h-.69l-.43-1.07h-2.07l-.43,1.07h-.69l1.91-4.34ZM179.86,93.94l-.81-1.99h-.01l-.82,1.99h1.64Z"/>
        <path class="cls-18" d="M182.99,91.19h.77l2.39,3.57h.01v-3.57h.59v4.34h-.75l-2.41-3.57h-.01v3.57h-.59v-4.34Z"/>
        <path class="cls-18" d="M190,91.74h-1.4v-.55h3.38v.55h-1.4v3.79h-.59v-3.79Z"/>
        <path class="cls-18" d="M193.83,91.19h2.8v.55h-2.21v1.29h2.06v.55h-2.06v1.39h2.32v.55h-2.91v-4.34Z"/>
        <path class="cls-18" d="M198.93,94.62c.11.16.24.28.41.35.17.08.34.11.51.11.1,0,.2-.01.3-.05.1-.03.19-.08.28-.14.08-.06.15-.14.2-.23.05-.09.08-.19.08-.31,0-.17-.05-.29-.16-.38-.11-.09-.24-.16-.4-.22-.16-.06-.33-.12-.51-.17-.19-.06-.36-.13-.51-.23-.16-.1-.29-.23-.4-.4-.11-.17-.16-.39-.16-.67,0-.13.03-.26.08-.4.06-.14.14-.27.26-.39s.27-.22.46-.3c.19-.08.41-.12.67-.12.24,0,.46.03.68.1.22.07.41.2.57.4l-.48.44c-.07-.11-.18-.21-.31-.28-.13-.07-.29-.1-.46-.1s-.3.02-.41.06c-.11.04-.2.1-.26.17-.07.07-.11.14-.14.22-.03.08-.04.15-.04.21,0,.18.05.32.16.42.11.1.24.18.4.24.16.06.33.12.51.17.19.05.36.12.51.2.16.09.29.21.4.36s.16.35.16.62c0,.21-.04.4-.12.56-.08.17-.19.31-.32.42-.14.11-.29.2-.48.26-.18.06-.38.09-.59.09-.28,0-.54-.05-.79-.15-.25-.1-.45-.25-.59-.45l.48-.42Z"/>
      </g>
    </g>
    <g>
      <path class="cls-2" d="M43.68,59.07c-.31-2.16-.33-4.38-.08-6.66,1.28,1.02,2.43,2.14,3.47,3.32.51-.44,1.03-.87,1.57-1.27-1.57-2.1-3.51-4.03-5.77-5.7-.21-.15-.52-.14-.8-.03-.28.1-.5.34-.54.59-.62,4.16-.31,8.2.77,11.86.43-.68.9-1.33,1.41-1.96,0-.05-.01-.09-.02-.14Z"/>
      <path class="cls-11" d="M37,80.53c-.21.17-.41.34-.61.52-.2.18-.39.36-.59.54-.17.16-.2.38-.13.56.07.18.26.31.49.31,1.09-.03,2.17-.13,3.23-.3-.09-.31-.18-.62-.26-.93-.49.05-.99.09-1.49.11.42-.38.84-.74,1.27-1.09-.07-.34-.13-.68-.19-1.02-.16.11-.32.21-.47.32-.42.31-.84.63-1.25.97Z"/>
      <path class="cls-13" d="M35.13,70.3c-1.73-1.3-3.34-2.86-4.77-4.65,2.29-.25,4.5-.22,6.66.08.27.04.53.08.8.12.27.05.53.1.8.15.4.08.79.18,1.18.28.1-.28.2-.57.31-.85.09-.23.19-.45.28-.68-3.99-1.41-8.49-1.88-13.14-1.18-.25.04-.48.26-.59.54-.11.28-.12.59.03.8,1.84,2.49,4,4.59,6.34,6.24,1.66,1.17,3.43,2.12,5.25,2.85,0-.54.04-1.08.09-1.63-1.12-.6-2.21-1.28-3.27-2.07Z"/>
      <path class="cls-19" d="M38.63,84c-.26.05-.53.11-.8.15-.26.04-.53.08-.8.12-2.16.31-4.38.33-6.66.08,1.43-1.79,3.04-3.35,4.77-4.65,1.08-.81,2.2-1.51,3.35-2.12-.06-.53-.11-1.07-.14-1.61-1.83.73-3.61,1.68-5.29,2.87-2.35,1.65-4.5,3.75-6.34,6.24-.15.21-.14.52-.03.8.1.28.34.5.59.54,4.66.7,9.18.22,13.18-1.2-.21-.5-.4-1.01-.58-1.52-.41.11-.83.21-1.25.3Z"/>
      <path class="cls-7" d="M43.6,97.59c-.25-2.28-.22-4.49.08-6.64-.49-.66-.96-1.36-1.39-2.08-1.07,3.65-1.38,7.68-.76,11.82.04.25.26.48.54.59.28.11.59.12.8-.03,2.19-1.62,4.07-3.47,5.61-5.49-.55-.41-1.08-.84-1.59-1.29-.99,1.11-2.09,2.17-3.3,3.13Z"/>
      <path class="cls-3" d="M35.68,67.85c-.07.18-.04.4.13.56.19.19.39.37.59.54.2.18.41.35.61.52.41.34.82.66,1.25.97.13.09.25.17.38.26.06-.34.12-.68.2-1.02-.4-.33-.79-.66-1.18-1.02.47.02.94.05,1.4.1.08-.31.17-.62.26-.94-1.03-.16-2.08-.26-3.14-.28-.23,0-.42.12-.49.31Z"/>
      <path class="cls-12" d="M57.4,101.8c-.98,2.81-2.57,5.53-4.44,8.13h0s0,0,0,0c-1.87-2.6-3.46-5.32-4.44-8.13,1.14-1.32,2.16-2.69,3.05-4.11-.45-.24-.9-.5-1.33-.76-.24.34-.48.69-.74,1.03-.32.41-.65.82-.99,1.22-.34.4-.7.81-1.06,1.2-.43.46-.84.73-.8,1.34.04.8.52,1.74.85,2.52.35.89.76,1.78,1.21,2.64.24.46.49.92.74,1.38.26.46.53.9.81,1.35.28.45.57.9.86,1.35.3.44.6.88.9,1.32.2.28.58.38.95.36h0c.37.03.75-.07.95-.36.31-.44.61-.88.9-1.32.29-.45.58-.9.86-1.35.28-.45.55-.89.81-1.35.26-.46.51-.92.74-1.38.45-.86.85-1.76,1.21-2.64.32-.78.8-1.72.85-2.52.03-.61-.38-.88-.81-1.34-.07-.07-.13-.14-.19-.21-.93-.21-1.86-.47-2.78-.77.59.82,1.23,1.62,1.9,2.41Z"/>
      <path class="cls-16" d="M51.01,103.37c.35.71.75,1.38,1.17,2.06.17.27.47.37.78.35h0c.3.02.61-.08.78-.35.42-.68.81-1.36,1.17-2.06.19-.36.57-.85.51-1.24-.06-.44-.54-.88-.79-1.24-.37-.52-.72-1.06-1.05-1.6-.13-.21-.38-.31-.62-.31-.25,0-.49.09-.62.31-.33.54-.68,1.08-1.05,1.6-.25.36-.73.8-.79,1.24-.06.39.32.88.51,1.24ZM52.96,101.05c.25.39.5.79.76,1.19-.24.45-.49.9-.76,1.35h0c-.27-.45-.52-.9-.76-1.35.26-.4.51-.79.76-1.19Z"/>
      <path class="cls-14" d="M39.95,87.36c-1.79.69-3.68,1.15-5.68,1.42-1.03.13-2.1.23-3.16.27-.63.03-1.11-.07-1.52.38-.54.59-.85,1.59-1.19,2.38-.37.87-.72,1.79-1.02,2.72-.31.98-.6,2-.83,3.03-.12.51-.23,1.03-.34,1.56-.11.52-.2,1.04-.29,1.57-.06.34.14.68.42.92h0s0,0,0,0c.25.28.58.48.92.42.53-.09,1.05-.19,1.57-.29.53-.11,1.05-.22,1.56-.34,1.02-.23,2.05-.52,3.03-.83.93-.29,1.85-.65,2.72-1.02.78-.33,1.78-.65,2.38-1.19.45-.41.35-.89.38-1.52.04-1.06.13-2.13.27-3.16.27-1.99.72-3.89,1.42-5.68.08-.22.03-.42-.11-.55-.13-.13-.33-.19-.54-.11ZM37.15,97.09c-2.68,1.3-5.73,2.1-8.9,2.61h0s0,0,0,0c.51-3.17,1.31-6.22,2.61-8.9,2.76-.21,5.41-.69,7.85-1.56-.87,2.43-1.35,5.09-1.56,7.85Z"/>
      <path class="cls-17" d="M31.19,96.76h0c.2.23.49.38.8.31.39-.09.77-.19,1.15-.29.38-.11.76-.22,1.14-.34.39-.12,1-.2,1.24-.51.27-.35.24-1,.32-1.43.11-.63.24-1.25.38-1.87.06-.24-.04-.49-.22-.66-.17-.18-.42-.28-.66-.22-.62.15-1.24.28-1.87.38-.43.08-1.08.05-1.43.32-.32.24-.39.85-.51,1.24-.12.37-.23.75-.34,1.14-.1.38-.2.76-.29,1.15-.08.31.07.6.3.8h0ZM33.16,93.72c.47-.1.93-.2,1.38-.3-.1.45-.21.91-.3,1.38-.49.15-.98.29-1.49.42.12-.51.26-1,.41-1.49Z"/>
      <path class="cls-6" d="M27.58,80.52c.39-.36.79-.72,1.2-1.06.41-.34.81-.67,1.22-.99,1.61-1.22,3.26-2.23,5.02-3.01.21-.1.31-.28.31-.46,0-.18-.1-.37-.31-.46-1.76-.78-3.41-1.79-5.02-3.01-.41-.32-.82-.65-1.22-.99-.4-.34-.81-.7-1.2-1.06-.46-.43-.73-.84-1.34-.81-.8.04-1.74.52-2.52.84-.89.35-1.78.76-2.64,1.21-.46.24-.92.49-1.38.75-.46.26-.9.53-1.35.81-.45.28-.9.57-1.35.86-.44.29-.88.6-1.32.9-.28.2-.38.57-.36.95h0c-.03.38.07.76.36.95.44.31.88.61,1.32.9.45.29.9.58,1.35.86.45.28.89.55,1.35.81.46.26.92.51,1.38.74.86.45,1.76.85,2.64,1.21.78.32,1.71.8,2.52.84.61.03.88-.38,1.34-.81ZM18.02,75h0,0c2.6-1.87,5.33-3.46,8.13-4.45,2.1,1.81,4.32,3.34,6.66,4.45-2.33,1.11-4.56,2.64-6.66,4.44-2.81-.98-5.53-2.57-8.13-4.44Z"/>
      <path class="cls-1" d="M28.66,74.38c-.54-.33-1.08-.68-1.6-1.05-.36-.25-.8-.73-1.24-.79-.39-.06-.88.32-1.24.51-.71.36-1.38.75-2.06,1.17-.27.17-.37.47-.35.78h0c-.02.31.08.61.35.78.68.42,1.36.81,2.06,1.17.36.19.84.57,1.24.51.44-.06.88-.54,1.24-.79.52-.37,1.06-.72,1.6-1.05.21-.13.31-.38.31-.62,0-.25-.1-.49-.31-.62ZM25.72,75.76c-.45-.24-.9-.49-1.35-.76h0c.45-.27.9-.52,1.35-.76.4.26.79.51,1.19.76-.39.25-.79.5-1.19.76Z"/>
      <path class="cls-8" d="M26.56,52.45c.23,1.02.52,2.05.83,3.03.29.93.65,1.85,1.02,2.72.33.78.65,1.78,1.19,2.38.41.46.89.35,1.52.38,1.06.04,2.13.13,3.16.27,1.99.27,3.89.72,5.68,1.42.22.08.42.03.54-.11.13-.13.19-.33.11-.54-.69-1.79-1.15-3.68-1.42-5.68-.13-1.03-.23-2.1-.27-3.16-.03-.63.07-1.11-.38-1.52-.6-.54-1.59-.85-2.38-1.19-.87-.37-1.79-.72-2.72-1.02-.98-.31-2-.6-3.03-.83-.51-.12-1.03-.23-1.56-.34-.52-.11-1.04-.2-1.57-.29-.34-.06-.68.14-.92.42h0s0,0,0,0c-.28.25-.48.59-.42.92.09.53.19,1.05.29,1.57.11.53.22,1.05.34,1.56ZM28.25,50.3c3.17.51,6.22,1.31,8.9,2.61.2,2.76.69,5.41,1.56,7.85-2.43-.87-5.09-1.36-7.85-1.56-1.3-2.68-2.1-5.73-2.61-8.9h0,0Z"/>
      <path class="cls-10" d="M31.18,55.19c.11.38.22.76.34,1.14.12.39.2,1,.51,1.24.35.27,1,.24,1.43.32.63.11,1.25.24,1.87.39.24.06.49-.05.66-.22.18-.17.28-.42.22-.66-.15-.62-.28-1.24-.38-1.87-.08-.43-.05-1.08-.32-1.43-.24-.32-.85-.39-1.24-.51-.37-.12-.75-.23-1.14-.34-.38-.1-.76-.2-1.15-.29-.31-.08-.6.07-.8.3h0s0,0,0,0c-.23.2-.38.49-.3.8.09.39.19.77.29,1.15ZM34.23,55.2c.1.47.2.92.3,1.38-.45-.1-.91-.21-1.38-.3-.15-.49-.29-.98-.41-1.49.51.12,1,.26,1.49.41Z"/>
      <path class="cls-5" d="M48.51,48.2c.98-2.81,2.57-5.53,4.44-8.13h0s0,0,0,0c1.87,2.6,3.46,5.32,4.44,8.13-.74.86-1.43,1.75-2.07,2.65.96-.35,1.91-.66,2.85-.9.1-.11.2-.22.3-.33.43-.46.84-.73.81-1.34-.04-.8-.52-1.74-.85-2.52-.35-.89-.76-1.78-1.21-2.64-.24-.46-.49-.92-.74-1.38-.26-.46-.53-.9-.81-1.35-.28-.45-.57-.9-.86-1.35-.29-.44-.6-.88-.9-1.32-.2-.28-.57-.38-.95-.36h0c-.37-.03-.75.07-.95.36-.31.44-.61.88-.9,1.32-.29.45-.58.9-.86,1.35-.28.45-.55.89-.81,1.35-.26.46-.51.92-.74,1.38-.45.86-.86,1.76-1.21,2.64-.32.78-.8,1.72-.85,2.52-.03.61.38.88.8,1.34.36.39.72.79,1.06,1.2.34.41.67.81.99,1.22.31.41.61.82.89,1.24.43-.27.86-.53,1.31-.77-.91-1.49-1.98-2.92-3.17-4.31Z"/>
      <path class="cls-9" d="M54.9,46.63c-.36-.71-.75-1.38-1.17-2.06-.17-.27-.47-.37-.78-.35h0c-.3-.02-.61.08-.78.35-.42.68-.82,1.36-1.17,2.06-.19.36-.57.85-.51,1.24.06.44.54.88.79,1.24.37.52.72,1.06,1.05,1.6.13.21.38.31.62.31.25,0,.49-.09.62-.31.33-.54.68-1.08,1.05-1.6.25-.36.73-.8.79-1.24.06-.39-.32-.88-.51-1.24ZM52.96,48.95c-.25-.39-.5-.79-.76-1.19.24-.45.49-.9.76-1.35h0c.27.45.52.9.76,1.35-.26.4-.51.79-.76,1.19Z"/>
    </g>
  </g>
  <g>
    <g>
      <path class="cls-15" d="M246.64,33.85c-.8-.43-1.42-1.03-1.88-1.8-.45-.77-.68-1.63-.68-2.59s.23-1.82.69-2.59c.46-.76,1.08-1.37,1.88-1.8.8-.43,1.69-.65,2.68-.65.8,0,1.54.14,2.2.42.66.28,1.22.69,1.68,1.22l-1.18,1.11c-.71-.76-1.58-1.15-2.62-1.15-.67,0-1.27.15-1.81.44s-.95.7-1.25,1.23c-.3.52-.45,1.12-.45,1.78s.15,1.26.45,1.78c.3.52.71.93,1.25,1.22.53.29,1.13.44,1.81.44,1.04,0,1.91-.39,2.62-1.16l1.18,1.12c-.46.53-1.02.94-1.69,1.22-.67.28-1.4.42-2.2.42-.99,0-1.88-.22-2.68-.65Z"/>
      <path class="cls-15" d="M261.1,32.09h-4.9l-.97,2.27h-1.88l4.41-9.8h1.79l4.42,9.8h-1.9l-.98-2.27ZM260.5,30.66l-1.85-4.28-1.83,4.28h3.68Z"/>
      <path class="cls-15" d="M265.23,24.56h1.82v8.26h5.12v1.54h-6.94v-9.8Z"/>
      <path class="cls-15" d="M273.62,24.56h1.82v9.8h-1.82v-9.8Z"/>
      <path class="cls-15" d="M286.79,24.56v9.8h-1.5l-5.4-6.64v6.64h-1.81v-9.8h1.5l5.4,6.64v-6.64h1.81Z"/>
      <path class="cls-15" d="M290.27,34.18c-.71-.21-1.26-.5-1.67-.85l.63-1.41c.4.32.89.58,1.48.78.58.2,1.17.3,1.76.3.73,0,1.27-.12,1.63-.35.36-.23.54-.54.54-.92,0-.28-.1-.51-.3-.69-.2-.18-.45-.32-.76-.43-.31-.1-.73-.22-1.26-.35-.75-.18-1.35-.35-1.81-.53-.46-.18-.86-.45-1.19-.83-.33-.38-.5-.89-.5-1.53,0-.54.15-1.03.44-1.48.29-.44.74-.79,1.33-1.06s1.32-.39,2.18-.39c.6,0,1.19.08,1.76.22.58.15,1.08.36,1.5.64l-.57,1.41c-.43-.25-.88-.44-1.34-.57-.47-.13-.92-.2-1.36-.2-.72,0-1.25.12-1.6.36-.35.24-.53.57-.53.97,0,.28.1.51.3.69.2.18.46.32.76.42.31.1.73.22,1.26.35.73.17,1.33.34,1.79.52.47.18.87.46,1.2.83.33.37.5.88.5,1.51,0,.54-.15,1.03-.44,1.47s-.74.79-1.34,1.05c-.6.26-1.33.39-2.18.39-.76,0-1.49-.11-2.19-.32Z"/>
      <path class="cls-15" d="M298.23,24.56h1.82v9.8h-1.82v-9.8Z"/>
      <path class="cls-15" d="M309.05,32.09h-4.9l-.97,2.27h-1.88l4.41-9.8h1.79l4.42,9.8h-1.9l-.98-2.27ZM308.45,30.66l-1.85-4.28-1.83,4.28h3.68Z"/>
      <path class="cls-15" d="M316.5,29.74h3.85v1.46h-3.85v-1.46Z"/>
      <path class="cls-15" d="M333.54,25.96l-3.68,8.4h-1.19l-3.7-8.4h1.3l3.02,6.9,3.05-6.9h1.2Z"/>
      <path class="cls-15" d="M334.98,34.01c-.5-.28-.9-.67-1.18-1.16-.28-.49-.43-1.05-.43-1.67s.14-1.18.43-1.67c.28-.49.68-.88,1.18-1.15.5-.28,1.07-.41,1.7-.41s1.2.14,1.7.41c.5.28.89.66,1.18,1.15.28.49.43,1.05.43,1.67s-.14,1.18-.43,1.67-.68.88-1.18,1.16c-.5.28-1.07.42-1.7.42s-1.2-.14-1.7-.42ZM337.78,33.14c.32-.19.58-.45.76-.79.18-.34.28-.73.28-1.17s-.09-.83-.28-1.17c-.18-.34-.44-.6-.76-.79-.32-.18-.69-.28-1.1-.28s-.77.09-1.1.28c-.32.18-.58.45-.77.79-.19.34-.28.73-.28,1.17s.09.83.28,1.17c.19.34.44.6.77.79.32.19.69.28,1.1.28s.77-.09,1.1-.28Z"/>
      <path class="cls-15" d="M345.16,33.99c-.17.14-.38.25-.62.33s-.5.11-.77.11c-.64,0-1.14-.17-1.49-.52-.35-.34-.53-.84-.53-1.48v-3.49h-1.08v-.95h1.08v-1.39h1.15v1.39h1.82v.95h-1.82v3.44c0,.34.09.61.26.79.17.18.42.28.74.28.35,0,.65-.1.9-.3l.36.83Z"/>
      <path class="cls-15" d="M348.54,28.23c.39-.19.87-.29,1.43-.29v1.12c-.06,0-.15-.01-.26-.01-.62,0-1.11.19-1.47.56-.36.37-.53.9-.53,1.59v3.17h-1.15v-6.36h1.1v1.07c.2-.37.5-.65.89-.84Z"/>
      <path class="cls-15" d="M357.05,31.56h-5.16c.07.56.32,1.01.74,1.35.42.34.94.51,1.57.51.76,0,1.37-.26,1.84-.77l.64.74c-.29.34-.65.59-1.07.77-.43.18-.91.26-1.43.26-.67,0-1.27-.14-1.79-.41-.52-.28-.92-.66-1.21-1.16s-.43-1.06-.43-1.68.14-1.17.41-1.67c.28-.5.66-.88,1.14-1.16.48-.28,1.03-.41,1.64-.41s1.15.14,1.63.41c.48.28.85.66,1.12,1.16.27.5.4,1.06.4,1.7,0,.09,0,.2-.02.35ZM352.54,29.42c-.37.34-.59.78-.65,1.32h4.08c-.06-.54-.28-.97-.65-1.31-.37-.34-.83-.51-1.39-.51s-1.01.17-1.39.5Z"/>
      <path class="cls-15" d="M367.62,31.56h-5.16c.07.56.32,1.01.74,1.35.42.34.94.51,1.57.51.76,0,1.37-.26,1.84-.77l.64.74c-.29.34-.65.59-1.07.77-.43.18-.91.26-1.43.26-.67,0-1.27-.14-1.79-.41-.52-.28-.92-.66-1.21-1.16-.28-.5-.43-1.06-.43-1.68s.14-1.17.41-1.67.66-.88,1.14-1.16c.48-.28,1.03-.41,1.64-.41s1.15.14,1.63.41c.48.28.85.66,1.12,1.16s.4,1.06.4,1.7c0,.09,0,.2-.02.35ZM363.12,29.42c-.37.34-.59.78-.65,1.32h4.08c-.06-.54-.28-.97-.65-1.31-.37-.34-.83-.51-1.39-.51s-1.01.17-1.39.5Z"/>
      <path class="cls-15" d="M369.57,34.22c-.48-.14-.86-.32-1.13-.53l.48-.91c.28.2.62.36,1.02.48.4.12.8.18,1.21.18,1.01,0,1.51-.29,1.51-.86,0-.19-.07-.34-.2-.46-.14-.11-.31-.19-.51-.25-.2-.05-.49-.11-.87-.17-.51-.08-.93-.17-1.25-.28-.32-.1-.6-.28-.83-.53-.23-.25-.35-.6-.35-1.04,0-.58.24-1.04.72-1.39.48-.35,1.12-.52,1.93-.52.42,0,.85.05,1.27.16.42.1.77.24,1.04.42l-.49.91c-.52-.34-1.13-.5-1.84-.5-.49,0-.86.08-1.12.24-.26.16-.38.37-.38.64,0,.21.07.37.22.49.14.12.32.21.53.26.21.06.51.12.89.19.51.09.93.18,1.24.28.32.1.59.27.81.51.22.24.34.58.34,1.01,0,.58-.25,1.03-.74,1.37-.49.34-1.16.51-2.01.51-.52,0-1.02-.07-1.5-.21Z"/>
      <path class="cls-15" d="M380.28,28.35c.49.27.87.65,1.15,1.14s.41,1.05.41,1.69-.14,1.21-.41,1.7c-.28.49-.66.88-1.15,1.15-.49.27-1.04.41-1.66.41-.46,0-.87-.09-1.25-.26-.38-.18-.7-.43-.97-.77v3.29h-1.15v-8.69h1.1v1.01c.26-.35.58-.62.97-.8.39-.18.82-.27,1.3-.27.62,0,1.17.14,1.66.41ZM379.63,33.14c.32-.19.58-.45.77-.79s.28-.73.28-1.17-.09-.83-.28-1.17-.44-.6-.77-.79c-.32-.18-.69-.28-1.1-.28s-.76.09-1.09.28c-.32.19-.58.45-.77.79-.19.34-.28.72-.28,1.16s.09.83.28,1.17c.18.34.44.6.77.79.33.19.69.28,1.09.28s.77-.09,1.1-.28Z"/>
      <path class="cls-15" d="M387.72,28.59c.47.43.7,1.08.7,1.93v3.84h-1.09v-.84c-.19.3-.47.52-.82.68-.36.16-.78.23-1.27.23-.71,0-1.28-.17-1.71-.52-.43-.34-.64-.8-.64-1.36s.2-1.01.61-1.35c.41-.34,1.06-.51,1.94-.51h1.82v-.23c0-.5-.14-.88-.43-1.14-.29-.26-.71-.4-1.27-.4-.38,0-.74.06-1.1.19-.36.12-.66.29-.91.5l-.48-.86c.33-.26.72-.47,1.18-.61s.94-.21,1.45-.21c.88,0,1.55.22,2.02.65ZM386.57,33.25c.32-.2.55-.47.7-.83v-.89h-1.78c-.98,0-1.46.33-1.46.98,0,.32.12.57.37.76.25.18.59.28,1.03.28s.82-.1,1.14-.29Z"/>
      <path class="cls-15" d="M391.63,34.01c-.51-.28-.91-.67-1.19-1.16s-.43-1.05-.43-1.67.14-1.18.43-1.67c.29-.49.69-.88,1.19-1.15.51-.28,1.09-.41,1.73-.41.58,0,1.09.12,1.54.35.45.23.8.57,1.05,1.01l-.88.56c-.2-.3-.45-.53-.74-.68-.3-.15-.62-.23-.98-.23-.42,0-.79.09-1.12.28-.33.18-.59.45-.78.79s-.28.73-.28,1.17.09.84.28,1.18.45.6.78.79.71.28,1.12.28c.36,0,.69-.08.98-.23.3-.15.54-.38.74-.68l.88.55c-.25.44-.6.78-1.05,1.01-.45.24-.97.35-1.54.35-.65,0-1.23-.14-1.73-.42Z"/>
      <path class="cls-15" d="M403.07,31.56h-5.16c.07.56.32,1.01.74,1.35.42.34.94.51,1.57.51.76,0,1.37-.26,1.84-.77l.64.74c-.29.34-.65.59-1.07.77-.43.18-.91.26-1.43.26-.67,0-1.27-.14-1.79-.41-.52-.28-.92-.66-1.21-1.16-.28-.5-.43-1.06-.43-1.68s.14-1.17.41-1.67c.28-.5.66-.88,1.14-1.16.48-.28,1.03-.41,1.64-.41s1.15.14,1.63.41c.48.28.85.66,1.12,1.16s.4,1.06.4,1.7c0,.09,0,.2-.02.35ZM398.56,29.42c-.37.34-.59.78-.65,1.32h4.08c-.06-.54-.28-.97-.65-1.31-.37-.34-.83-.51-1.39-.51s-1.01.17-1.39.5Z"/>
      <path class="cls-15" d="M412.95,28.35c.49.27.87.65,1.15,1.14.28.49.41,1.05.41,1.69s-.14,1.21-.41,1.7c-.28.49-.66.88-1.15,1.15-.49.27-1.04.41-1.66.41-.47,0-.9-.09-1.3-.28-.39-.18-.72-.45-.97-.8v1.01h-1.1v-8.9h1.15v3.5c.26-.34.58-.59.96-.76.38-.17.8-.26,1.26-.26.62,0,1.17.14,1.66.41ZM412.29,33.14c.32-.19.58-.45.77-.79.19-.34.28-.73.28-1.17s-.09-.83-.28-1.17c-.19-.34-.44-.6-.77-.79-.32-.18-.69-.28-1.1-.28s-.76.09-1.09.28c-.33.18-.58.45-.77.79-.18.34-.28.73-.28,1.17s.09.83.28,1.17c.18.34.44.6.77.79.33.19.69.28,1.09.28s.77-.09,1.1-.28Z"/>
      <path class="cls-15" d="M416.12,26.56c-.15-.14-.22-.32-.22-.53s.07-.39.22-.53.33-.22.56-.22.41.07.56.21.22.31.22.52-.07.4-.22.55c-.15.15-.33.22-.56.22s-.41-.07-.56-.22ZM416.1,28h1.15v6.36h-1.15v-6.36Z"/>
      <path class="cls-15" d="M425.17,31.56h-5.16c.07.56.32,1.01.74,1.35.42.34.94.51,1.57.51.76,0,1.37-.26,1.84-.77l.64.74c-.29.34-.65.59-1.07.77-.43.18-.91.26-1.43.26-.67,0-1.27-.14-1.79-.41-.52-.28-.92-.66-1.21-1.16s-.43-1.06-.43-1.68.14-1.17.41-1.67c.28-.5.66-.88,1.14-1.16.48-.28,1.03-.41,1.64-.41s1.15.14,1.63.41c.48.28.85.66,1.12,1.16.27.5.4,1.06.4,1.7,0,.09,0,.2-.02.35ZM420.67,29.42c-.37.34-.59.78-.65,1.32h4.08c-.06-.54-.28-.97-.65-1.31-.37-.34-.83-.51-1.39-.51s-1.01.17-1.39.5Z"/>
      <path class="cls-15" d="M432.12,28.64c.48.47.71,1.15.71,2.06v3.66h-1.15v-3.53c0-.62-.15-1.08-.44-1.39-.3-.31-.72-.47-1.27-.47-.62,0-1.12.18-1.48.55-.36.36-.54.89-.54,1.57v3.28h-1.15v-6.36h1.1v.96c.23-.33.55-.58.94-.76.4-.18.85-.26,1.35-.26.81,0,1.45.23,1.93.7Z"/>
      <path class="cls-15" d="M434.56,30.57h3.23v1h-3.23v-1Z"/>
      <path class="cls-15" d="M445.4,31.56h-5.16c.07.56.32,1.01.74,1.35.42.34.94.51,1.57.51.76,0,1.37-.26,1.84-.77l.64.74c-.29.34-.65.59-1.07.77-.43.18-.91.26-1.43.26-.67,0-1.27-.14-1.79-.41-.52-.28-.92-.66-1.21-1.16s-.43-1.06-.43-1.68.14-1.17.41-1.67c.28-.5.66-.88,1.14-1.16.48-.28,1.03-.41,1.64-.41s1.15.14,1.63.41c.48.28.85.66,1.12,1.16.27.5.4,1.06.4,1.7,0,.09,0,.2-.02.35ZM443.38,27.08l-1.1-.92-1.1.92h-1.04l1.6-1.56h1.1l1.6,1.56h-1.04ZM440.9,29.42c-.37.34-.59.78-.65,1.32h4.08c-.06-.54-.28-.97-.65-1.31-.37-.34-.83-.51-1.39-.51s-1.01.17-1.39.5Z"/>
      <path class="cls-15" d="M450.6,33.99c-.17.14-.38.25-.62.33s-.5.11-.77.11c-.64,0-1.14-.17-1.49-.52-.35-.34-.53-.84-.53-1.48v-3.49h-1.08v-.95h1.08v-1.39h1.15v1.39h1.82v.95h-1.82v3.44c0,.34.09.61.26.79.17.18.42.28.74.28.35,0,.65-.1.9-.3l.36.83Z"/>
      <path class="cls-15" d="M453.98,28.23c.39-.19.87-.29,1.43-.29v1.12c-.06,0-.15-.01-.26-.01-.62,0-1.11.19-1.47.56-.36.37-.53.9-.53,1.59v3.17h-1.15v-6.36h1.1v1.07c.2-.37.5-.65.89-.84Z"/>
      <path class="cls-15" d="M462.49,31.56h-5.16c.07.56.32,1.01.74,1.35.42.34.94.51,1.57.51.76,0,1.37-.26,1.84-.77l.64.74c-.29.34-.65.59-1.07.77-.43.18-.91.26-1.43.26-.67,0-1.27-.14-1.79-.41-.52-.28-.92-.66-1.21-1.16-.28-.5-.43-1.06-.43-1.68s.14-1.17.41-1.67.66-.88,1.14-1.16c.48-.28,1.03-.41,1.64-.41s1.15.14,1.63.41c.48.28.85.66,1.12,1.16s.4,1.06.4,1.7c0,.09,0,.2-.02.35ZM457.99,29.42c-.37.34-.59.78-.65,1.32h4.08c-.06-.54-.28-.97-.65-1.31-.37-.34-.83-.51-1.39-.51s-1.01.17-1.39.5Z"/>
      <path class="cls-15" d="M245.34,52.16c-.59-.2-1.05-.45-1.39-.76l.44-.94c.32.29.73.52,1.23.7.5.18,1.01.27,1.54.27.7,0,1.22-.12,1.56-.35.34-.24.52-.55.52-.94,0-.29-.09-.52-.28-.7s-.42-.32-.7-.41c-.28-.1-.67-.2-1.17-.32-.63-.15-1.14-.3-1.53-.46-.39-.15-.72-.39-1-.7-.28-.32-.41-.74-.41-1.28,0-.45.12-.85.35-1.21.24-.36.59-.65,1.07-.86s1.08-.32,1.79-.32c.5,0,.98.06,1.46.19s.89.31,1.24.55l-.4.96c-.35-.22-.73-.39-1.13-.51-.4-.12-.79-.17-1.18-.17-.68,0-1.19.12-1.53.37s-.51.57-.51.96c0,.29.1.52.29.7.19.18.43.32.71.42.28.1.67.21,1.16.32.63.15,1.14.3,1.52.46.38.15.71.38.99.7.28.31.41.73.41,1.26,0,.44-.12.84-.36,1.21s-.6.65-1.09.86c-.49.21-1.09.32-1.8.32-.63,0-1.24-.1-1.83-.29Z"/>
      <path class="cls-15" d="M257.94,46v6.36h-1.09v-.96c-.23.33-.54.58-.92.76-.38.18-.79.27-1.24.27-.85,0-1.52-.23-2-.7s-.73-1.16-.73-2.07v-3.66h1.15v3.53c0,.62.15,1.08.44,1.4.3.32.72.47,1.27.47.61,0,1.09-.18,1.44-.55.35-.37.53-.89.53-1.56v-3.29h1.15Z"/>
      <path class="cls-15" d="M260.15,44.56c-.15-.14-.22-.32-.22-.53s.07-.39.22-.53c.15-.15.33-.22.56-.22s.41.07.56.21c.15.14.22.31.22.52s-.07.4-.22.55c-.15.15-.33.22-.56.22s-.41-.07-.56-.22ZM260.13,46h1.15v6.36h-1.15v-6.36Z"/>
      <path class="cls-15" d="M267.06,51.99c-.17.14-.38.25-.62.33s-.5.11-.77.11c-.64,0-1.14-.17-1.49-.52-.35-.34-.53-.84-.53-1.48v-3.49h-1.08v-.95h1.08v-1.39h1.15v1.39h1.82v.95h-1.82v3.44c0,.34.09.61.26.79.17.18.42.28.74.28.35,0,.65-.1.9-.3l.36.83Z"/>
      <path class="cls-15" d="M273.96,49.56h-5.16c.07.56.32,1.01.74,1.35.42.34.94.51,1.57.51.76,0,1.37-.26,1.84-.77l.64.74c-.29.34-.65.59-1.07.77-.43.18-.91.26-1.43.26-.67,0-1.27-.14-1.79-.41-.52-.28-.92-.66-1.21-1.16s-.43-1.06-.43-1.68.14-1.17.41-1.67c.28-.5.66-.88,1.14-1.16.48-.28,1.03-.41,1.64-.41s1.15.14,1.63.41c.48.28.85.66,1.12,1.16.27.5.4,1.06.4,1.7,0,.09,0,.2-.02.35ZM269.45,47.42c-.37.34-.59.78-.65,1.32h4.08c-.06-.54-.28-.97-.65-1.31-.37-.34-.83-.51-1.39-.51s-1.01.17-1.39.5Z"/>
      <path class="cls-15" d="M280.8,46.23c.39-.19.87-.29,1.43-.29v1.12c-.06,0-.15-.01-.26-.01-.62,0-1.11.19-1.47.56s-.53.9-.53,1.59v3.17h-1.15v-6.36h1.1v1.07c.2-.37.5-.65.89-.84Z"/>
      <path class="cls-15" d="M284.6,52.01c-.5-.28-.9-.67-1.18-1.16-.28-.49-.43-1.05-.43-1.67s.14-1.18.43-1.67c.28-.49.68-.88,1.18-1.15.5-.28,1.07-.41,1.7-.41s1.2.14,1.7.41c.5.28.89.66,1.18,1.15.28.49.43,1.05.43,1.67s-.14,1.18-.43,1.67-.68.88-1.18,1.16c-.5.28-1.07.42-1.7.42s-1.2-.14-1.7-.42ZM287.4,51.14c.32-.19.58-.45.76-.79.18-.34.28-.73.28-1.17s-.09-.83-.28-1.17c-.18-.34-.44-.6-.76-.79-.32-.18-.69-.28-1.1-.28s-.77.09-1.1.28c-.32.18-.58.45-.77.79-.19.34-.28.73-.28,1.17s.09.83.28,1.17c.19.34.44.6.77.79.32.19.69.28,1.1.28s.77-.09,1.1-.28Z"/>
      <path class="cls-15" d="M301.06,46.64c.47.46.7,1.15.7,2.06v3.66h-1.15v-3.53c0-.62-.14-1.08-.43-1.39-.28-.31-.69-.47-1.22-.47-.58,0-1.05.18-1.39.55-.34.36-.52.89-.52,1.57v3.28h-1.15v-3.53c0-.62-.14-1.08-.43-1.39-.28-.31-.69-.47-1.22-.47-.58,0-1.05.18-1.39.55s-.52.89-.52,1.57v3.28h-1.15v-6.36h1.1v.95c.23-.33.54-.58.91-.75s.8-.26,1.28-.26.94.1,1.32.3c.38.2.68.49.89.88.24-.37.57-.66,1-.86.43-.21.91-.31,1.45-.31.8,0,1.43.23,1.9.7Z"/>
      <path class="cls-15" d="M308.22,46.59c.47.43.7,1.08.7,1.93v3.84h-1.09v-.84c-.19.3-.47.52-.82.68-.36.16-.78.23-1.27.23-.71,0-1.28-.17-1.71-.52-.43-.34-.64-.8-.64-1.36s.2-1.01.61-1.35c.41-.34,1.06-.51,1.94-.51h1.82v-.23c0-.5-.14-.88-.43-1.14-.29-.26-.71-.4-1.27-.4-.38,0-.74.06-1.1.19-.36.12-.66.29-.91.5l-.48-.86c.33-.26.72-.47,1.18-.61s.94-.21,1.45-.21c.88,0,1.55.22,2.02.65ZM307.08,51.25c.32-.2.55-.47.7-.83v-.89h-1.78c-.98,0-1.46.33-1.46.98,0,.32.12.57.37.76.25.18.59.28,1.03.28s.82-.1,1.14-.29Z"/>
      <path class="cls-15" d="M316.38,46.64c.48.47.71,1.15.71,2.06v3.66h-1.15v-3.53c0-.62-.15-1.08-.44-1.39-.3-.31-.72-.47-1.27-.47-.62,0-1.12.18-1.48.55-.36.36-.54.89-.54,1.57v3.28h-1.15v-6.36h1.1v.96c.23-.33.55-.58.94-.76.4-.18.85-.26,1.35-.26.81,0,1.45.23,1.93.7Z"/>
      <path class="cls-15" d="M322.81,51.99c-.17.14-.38.25-.62.33s-.5.11-.77.11c-.64,0-1.14-.17-1.49-.52-.35-.34-.53-.84-.53-1.48v-3.49h-1.08v-.95h1.08v-1.39h1.15v1.39h1.82v.95h-1.82v3.44c0,.34.09.61.26.79.17.18.42.28.74.28.35,0,.65-.1.9-.3l.36.83Z"/>
      <path class="cls-15" d="M324.22,44.56c-.15-.14-.22-.32-.22-.53s.07-.39.22-.53c.15-.15.33-.22.56-.22s.41.07.56.21c.15.14.22.31.22.52s-.07.4-.22.55c-.15.15-.33.22-.56.22s-.41-.07-.56-.22ZM324.2,46h1.15v6.36h-1.15v-6.36Z"/>
      <path class="cls-15" d="M333.55,46v8.69h-1.15v-3.29c-.26.34-.59.59-.97.77-.38.18-.8.26-1.25.26-.62,0-1.17-.14-1.66-.41-.49-.27-.87-.65-1.15-1.15-.28-.49-.41-1.06-.41-1.7s.14-1.2.41-1.69c.28-.49.66-.87,1.15-1.14.49-.27,1.04-.41,1.66-.41.47,0,.9.09,1.3.27.39.18.72.45.97.8v-1.01h1.1ZM331.36,51.14c.33-.19.58-.45.77-.79.18-.34.28-.73.28-1.17s-.09-.83-.28-1.16c-.19-.34-.44-.6-.77-.79-.32-.19-.69-.28-1.09-.28s-.77.09-1.1.28c-.32.18-.58.45-.77.79s-.28.73-.28,1.17.09.83.28,1.17.44.6.77.79c.32.19.69.28,1.1.28s.76-.09,1.09-.28Z"/>
      <path class="cls-15" d="M341.66,46v6.36h-1.09v-.96c-.23.33-.54.58-.92.76-.38.18-.79.27-1.24.27-.85,0-1.52-.23-2-.7-.49-.47-.73-1.16-.73-2.07v-3.66h1.15v3.53c0,.62.15,1.08.44,1.4.3.32.72.47,1.27.47.61,0,1.09-.18,1.44-.55s.53-.89.53-1.56v-3.29h1.15Z"/>
      <path class="cls-15" d="M349.58,49.56h-5.16c.07.56.32,1.01.74,1.35.42.34.94.51,1.57.51.76,0,1.37-.26,1.84-.77l.64.74c-.29.34-.65.59-1.07.77-.43.18-.91.26-1.43.26-.67,0-1.27-.14-1.79-.41-.52-.28-.92-.66-1.21-1.16s-.43-1.06-.43-1.68.14-1.17.41-1.67c.28-.5.66-.88,1.14-1.16.48-.28,1.03-.41,1.64-.41s1.15.14,1.63.41c.48.28.85.66,1.12,1.16.27.5.4,1.06.4,1.7,0,.09,0,.2-.02.35ZM345.07,47.42c-.37.34-.59.78-.65,1.32h4.08c-.06-.54-.28-.97-.65-1.31-.37-.34-.83-.51-1.39-.51s-1.01.17-1.39.5Z"/>
      <path class="cls-15" d="M358.77,46.59c.47.43.7,1.08.7,1.93v3.84h-1.09v-.84c-.19.3-.47.52-.82.68-.36.16-.78.23-1.27.23-.71,0-1.28-.17-1.71-.52-.43-.34-.64-.8-.64-1.36s.2-1.01.61-1.35c.41-.34,1.06-.51,1.94-.51h1.82v-.23c0-.5-.14-.88-.43-1.14-.29-.26-.71-.4-1.27-.4-.38,0-.74.06-1.1.19-.36.12-.66.29-.91.5l-.48-.86c.33-.26.72-.47,1.18-.61s.94-.21,1.45-.21c.88,0,1.55.22,2.02.65ZM354.63,43.52h1.46l1.63,1.56h-1.08l-2.02-1.56ZM357.62,51.25c.32-.2.55-.47.7-.83v-.89h-1.78c-.98,0-1.46.33-1.46.98,0,.32.12.57.37.76.25.18.59.28,1.03.28s.82-.1,1.14-.29Z"/>
      <path class="cls-15" d="M372.22,43.96v8.4h-.98l-5.04-6.26v6.26h-1.2v-8.4h.98l5.04,6.26v-6.26h1.2Z"/>
      <path class="cls-15" d="M378.91,46.59c.47.43.7,1.08.7,1.93v3.84h-1.09v-.84c-.19.3-.47.52-.82.68-.36.16-.78.23-1.27.23-.71,0-1.28-.17-1.71-.52-.43-.34-.64-.8-.64-1.36s.2-1.01.61-1.35c.41-.34,1.06-.51,1.94-.51h1.82v-.23c0-.5-.14-.88-.43-1.14-.29-.26-.71-.4-1.27-.4-.38,0-.74.06-1.1.19-.36.12-.66.29-.91.5l-.48-.86c.33-.26.72-.47,1.18-.61s.94-.21,1.45-.21c.88,0,1.55.22,2.02.65ZM377.77,51.25c.32-.2.55-.47.7-.83v-.89h-1.78c-.98,0-1.46.33-1.46.98,0,.32.12.57.37.76.25.18.59.28,1.03.28s.82-.1,1.14-.29Z"/>
      <path class="cls-15" d="M387.07,46.64c.48.47.71,1.15.71,2.06v3.66h-1.15v-3.53c0-.62-.15-1.08-.44-1.39-.3-.31-.72-.47-1.27-.47-.62,0-1.12.18-1.48.55-.36.36-.54.89-.54,1.57v3.28h-1.15v-6.36h1.1v.96c.23-.33.55-.58.94-.76.4-.18.85-.26,1.35-.26.81,0,1.45.23,1.93.7Z"/>
      <path class="cls-15" d="M393.5,51.99c-.17.14-.38.25-.62.33s-.5.11-.77.11c-.64,0-1.14-.17-1.49-.52-.35-.34-.53-.84-.53-1.48v-3.49h-1.08v-.95h1.08v-1.39h1.15v1.39h1.82v.95h-1.82v3.44c0,.34.09.61.26.79.17.18.42.28.74.28.35,0,.65-.1.9-.3l.36.83Z"/>
      <path class="cls-15" d="M400.4,49.56h-5.16c.07.56.32,1.01.74,1.35.42.34.94.51,1.57.51.76,0,1.37-.26,1.84-.77l.64.74c-.29.34-.65.59-1.07.77-.43.18-.91.26-1.43.26-.67,0-1.27-.14-1.79-.41-.52-.28-.92-.66-1.21-1.16-.28-.5-.43-1.06-.43-1.68s.14-1.17.41-1.67c.28-.5.66-.88,1.14-1.16.48-.28,1.03-.41,1.64-.41s1.15.14,1.63.41c.48.28.85.66,1.12,1.16s.4,1.06.4,1.7c0,.09,0,.2-.02.35ZM395.89,47.42c-.37.34-.59.78-.65,1.32h4.08c-.06-.54-.28-.97-.65-1.31-.37-.34-.83-.51-1.39-.51s-1.01.17-1.39.5Z"/>
      <path class="cls-15" d="M402.34,52.22c-.48-.14-.86-.32-1.13-.53l.48-.91c.28.2.62.36,1.02.48.4.12.8.18,1.21.18,1.01,0,1.51-.29,1.51-.86,0-.19-.07-.34-.2-.46-.14-.11-.31-.19-.51-.25-.2-.05-.49-.11-.87-.17-.51-.08-.93-.17-1.25-.28-.32-.1-.6-.28-.83-.53-.23-.25-.35-.6-.35-1.04,0-.58.24-1.04.72-1.39.48-.35,1.12-.52,1.93-.52.42,0,.85.05,1.27.16.42.1.77.24,1.04.42l-.49.91c-.52-.34-1.13-.5-1.84-.5-.49,0-.86.08-1.12.24-.26.16-.38.37-.38.64,0,.21.07.37.22.49.14.12.32.21.53.26.21.06.51.12.89.19.51.09.93.18,1.24.28.32.1.59.27.81.51.22.24.34.58.34,1.01,0,.58-.25,1.03-.74,1.37-.49.34-1.16.51-2.01.51-.52,0-1.02-.07-1.5-.21Z"/>
      <path class="cls-15" d="M254.18,82l-2.38,6.36h-1.1l-1.84-4.82-1.86,4.82h-1.1l-2.36-6.36h1.09l1.85,5.06,1.92-5.06h.97l1.88,5.09,1.9-5.09h1.03Z"/>
      <path class="cls-15" d="M264.87,82l-2.38,6.36h-1.1l-1.84-4.82-1.86,4.82h-1.1l-2.36-6.36h1.09l1.85,5.06,1.92-5.06h.97l1.88,5.09,1.9-5.09h1.03Z"/>
      <path class="cls-15" d="M275.56,82l-2.38,6.36h-1.1l-1.84-4.82-1.86,4.82h-1.1l-2.36-6.36h1.09l1.85,5.06,1.92-5.06h.97l1.88,5.09,1.9-5.09h1.03Z"/>
      <path class="cls-15" d="M276.03,88.2c-.16-.16-.24-.35-.24-.59s.08-.43.24-.58c.16-.16.35-.23.58-.23s.41.08.56.23c.15.15.23.35.23.59s-.08.44-.23.59c-.16.16-.34.23-.56.23s-.42-.08-.58-.23Z"/>
      <path class="cls-15" d="M279.95,88.01c-.51-.28-.91-.67-1.19-1.16s-.43-1.05-.43-1.67.14-1.18.43-1.67c.29-.49.69-.88,1.19-1.15.51-.28,1.09-.41,1.73-.41.58,0,1.09.12,1.54.35.45.23.8.57,1.05,1.01l-.88.56c-.2-.3-.45-.53-.74-.68-.3-.15-.62-.23-.98-.23-.42,0-.79.09-1.12.28-.33.18-.59.45-.78.79s-.28.73-.28,1.17.09.84.28,1.18.45.6.78.79c.33.18.71.28,1.12.28.36,0,.69-.08.98-.23.3-.15.54-.38.74-.68l.88.55c-.25.44-.6.78-1.05,1.01-.45.24-.97.35-1.54.35-.65,0-1.23-.14-1.73-.42Z"/>
      <path class="cls-15" d="M290.1,82.59c.47.43.7,1.08.7,1.93v3.84h-1.09v-.84c-.19.3-.47.52-.82.68-.36.16-.78.23-1.27.23-.71,0-1.28-.17-1.71-.52-.43-.34-.64-.8-.64-1.36s.2-1.01.61-1.35c.41-.34,1.06-.51,1.94-.51h1.82v-.23c0-.5-.14-.88-.43-1.14-.29-.26-.71-.4-1.27-.4-.38,0-.74.06-1.1.19-.36.12-.66.29-.91.5l-.48-.86c.33-.26.72-.47,1.18-.61s.94-.21,1.45-.21c.88,0,1.55.22,2.02.65ZM288.96,87.25c.32-.2.55-.47.7-.83v-.89h-1.78c-.98,0-1.46.33-1.46.98,0,.32.12.57.37.76.25.18.59.28,1.03.28s.82-.1,1.14-.29Z"/>
      <path class="cls-15" d="M292.94,79.46h1.15v8.9h-1.15v-8.9Z"/>
      <path class="cls-15" d="M296.31,80.56c-.15-.14-.22-.32-.22-.53s.07-.39.22-.53.33-.22.56-.22.41.07.56.21.22.31.22.52-.07.4-.22.55c-.15.15-.33.22-.56.22s-.41-.07-.56-.22ZM296.29,82h1.15v6.36h-1.15v-6.36Z"/>
      <path class="cls-15" d="M304.96,82.64c.48.47.71,1.15.71,2.06v3.66h-1.15v-3.53c0-.62-.15-1.08-.44-1.39-.3-.31-.72-.47-1.27-.47-.62,0-1.12.18-1.48.55-.36.36-.54.89-.54,1.57v3.28h-1.15v-6.36h1.1v.96c.23-.33.55-.58.94-.76.4-.18.85-.26,1.35-.26.81,0,1.45.23,1.93.7Z"/>
      <path class="cls-15" d="M308.13,88.22c-.48-.14-.86-.32-1.13-.53l.48-.91c.28.2.62.36,1.02.48.4.12.8.18,1.21.18,1.01,0,1.51-.29,1.51-.86,0-.19-.07-.34-.2-.46-.14-.11-.31-.19-.51-.25-.2-.05-.49-.11-.87-.17-.51-.08-.93-.17-1.25-.28-.32-.1-.6-.28-.83-.53-.23-.25-.35-.6-.35-1.04,0-.58.24-1.04.72-1.39.48-.35,1.12-.52,1.93-.52.42,0,.85.05,1.27.16.42.1.77.24,1.04.42l-.49.91c-.52-.34-1.13-.5-1.84-.5-.49,0-.86.08-1.12.24-.26.16-.38.37-.38.64,0,.21.07.37.22.49.14.12.32.21.53.26.21.06.51.12.89.19.51.09.93.18,1.24.28.32.1.59.27.81.51.22.24.34.58.34,1.01,0,.58-.25,1.03-.74,1.37-.49.34-1.16.51-2.01.51-.52,0-1.02-.07-1.5-.21Z"/>
      <path class="cls-15" d="M313.84,80.56c-.15-.14-.22-.32-.22-.53s.07-.39.22-.53c.15-.15.33-.22.56-.22s.41.07.56.21c.15.14.22.31.22.52s-.07.4-.22.55c-.15.15-.33.22-.56.22s-.41-.07-.56-.22ZM313.82,82h1.15v6.36h-1.15v-6.36Z"/>
      <path class="cls-15" d="M321.51,82.59c.47.43.7,1.08.7,1.93v3.84h-1.09v-.84c-.19.3-.47.52-.82.68-.36.16-.78.23-1.27.23-.71,0-1.28-.17-1.71-.52-.43-.34-.64-.8-.64-1.36s.2-1.01.61-1.35c.41-.34,1.06-.51,1.94-.51h1.82v-.23c0-.5-.14-.88-.43-1.14-.29-.26-.71-.4-1.27-.4-.38,0-.74.06-1.1.19-.36.12-.66.29-.91.5l-.48-.86c.33-.26.72-.47,1.18-.61s.94-.21,1.45-.21c.88,0,1.55.22,2.02.65ZM320.36,87.25c.32-.2.55-.47.7-.83v-.89h-1.78c-.98,0-1.46.33-1.46.98,0,.32.12.57.37.76.25.18.59.28,1.03.28s.82-.1,1.14-.29Z"/>
      <path class="cls-15" d="M324.04,88.2c-.16-.16-.24-.35-.24-.59s.08-.43.24-.58.35-.23.58-.23.41.08.56.23c.15.15.23.35.23.59s-.08.44-.23.59c-.16.16-.34.23-.56.23s-.42-.08-.58-.23Z"/>
      <path class="cls-15" d="M328.36,81.45v.55h1.85v.95h-1.82v5.41h-1.15v-5.41h-1.08v-.95h1.08v-.56c0-.63.18-1.13.55-1.5.37-.37.88-.55,1.55-.55.26,0,.5.03.72.1.22.06.42.16.58.28l-.35.88c-.26-.2-.56-.3-.89-.3-.69,0-1.03.37-1.03,1.12Z"/>
      <path class="cls-15" d="M334.26,82.23c.39-.19.87-.29,1.43-.29v1.12c-.06,0-.15-.01-.26-.01-.62,0-1.11.19-1.47.56s-.53.9-.53,1.59v3.17h-1.15v-6.36h1.1v1.07c.2-.37.5-.65.89-.84Z"/>
      <path class="cls-15" d="M245.6,106.01c-.51-.28-.91-.67-1.19-1.16s-.43-1.05-.43-1.67.14-1.18.43-1.67c.29-.49.69-.88,1.19-1.15.51-.28,1.09-.41,1.73-.41.58,0,1.09.12,1.54.35.45.23.8.57,1.05,1.01l-.88.56c-.2-.3-.45-.53-.74-.68-.3-.15-.62-.23-.98-.23-.42,0-.79.09-1.12.28-.33.18-.59.45-.78.79-.19.34-.28.73-.28,1.17s.09.84.28,1.18c.19.34.45.6.78.79.33.18.71.28,1.12.28.36,0,.69-.08.98-.23.3-.15.54-.38.74-.68l.88.55c-.25.44-.6.78-1.05,1.01-.45.24-.97.35-1.54.35-.65,0-1.23-.14-1.73-.42Z"/>
      <path class="cls-15" d="M252.33,106.01c-.5-.28-.9-.67-1.18-1.16s-.43-1.05-.43-1.67.14-1.18.43-1.67c.28-.49.68-.88,1.18-1.15.5-.28,1.07-.41,1.7-.41s1.2.14,1.7.41c.5.28.89.66,1.18,1.15.28.49.43,1.05.43,1.67s-.14,1.18-.43,1.67c-.28.49-.68.88-1.18,1.16-.5.28-1.07.42-1.7.42s-1.2-.14-1.7-.42ZM255.14,105.14c.32-.19.58-.45.76-.79s.28-.73.28-1.17-.09-.83-.28-1.17-.44-.6-.76-.79c-.32-.18-.69-.28-1.1-.28s-.77.09-1.1.28c-.32.18-.58.45-.77.79s-.28.73-.28,1.17.09.83.28,1.17.44.6.77.79c.32.19.69.28,1.1.28s.77-.09,1.1-.28Z"/>
      <path class="cls-15" d="M264.26,100.64c.48.47.71,1.15.71,2.06v3.66h-1.15v-3.53c0-.62-.15-1.08-.44-1.39-.3-.31-.72-.47-1.27-.47-.62,0-1.12.18-1.48.55-.36.36-.54.89-.54,1.57v3.28h-1.15v-6.36h1.1v.96c.23-.33.55-.58.94-.76.4-.18.85-.26,1.35-.26.81,0,1.45.23,1.93.7Z"/>
      <path class="cls-15" d="M270.68,105.99c-.17.14-.38.25-.62.33s-.5.11-.77.11c-.64,0-1.14-.17-1.49-.52-.35-.34-.53-.84-.53-1.48v-3.49h-1.08v-.95h1.08v-1.39h1.15v1.39h1.82v.95h-1.82v3.44c0,.34.09.61.26.79.17.18.42.28.74.28.35,0,.65-.1.9-.3l.36.83Z"/>
      <path class="cls-15" d="M276.41,100.59c.47.43.7,1.08.7,1.93v3.84h-1.09v-.84c-.19.3-.47.52-.82.68s-.78.23-1.27.23c-.71,0-1.28-.17-1.71-.52-.43-.34-.64-.8-.64-1.36s.2-1.01.61-1.35c.41-.34,1.06-.51,1.94-.51h1.82v-.23c0-.5-.14-.88-.43-1.14-.29-.26-.71-.4-1.27-.4-.38,0-.74.06-1.1.19s-.66.29-.91.5l-.48-.86c.33-.26.72-.47,1.18-.61s.94-.21,1.45-.21c.88,0,1.55.22,2.02.65ZM275.27,105.25c.32-.2.55-.47.7-.83v-.89h-1.78c-.98,0-1.46.33-1.46.98,0,.32.12.57.37.76.25.18.59.28,1.03.28s.82-.1,1.14-.29Z"/>
      <path class="cls-15" d="M280.32,106.01c-.51-.28-.91-.67-1.19-1.16s-.43-1.05-.43-1.67.14-1.18.43-1.67c.29-.49.69-.88,1.19-1.15.51-.28,1.09-.41,1.73-.41.58,0,1.09.12,1.54.35.45.23.8.57,1.05,1.01l-.88.56c-.2-.3-.45-.53-.74-.68-.3-.15-.62-.23-.98-.23-.42,0-.79.09-1.12.28-.33.18-.59.45-.78.79-.19.34-.28.73-.28,1.17s.09.84.28,1.18c.19.34.45.6.78.79.33.18.71.28,1.12.28.36,0,.69-.08.98-.23.3-.15.54-.38.74-.68l.88.55c-.25.44-.6.78-1.05,1.01-.45.24-.97.35-1.54.35-.65,0-1.23-.14-1.73-.42Z"/>
      <path class="cls-15" d="M289.8,105.99c-.17.14-.38.25-.62.33s-.5.11-.77.11c-.64,0-1.14-.17-1.49-.52-.35-.34-.53-.84-.53-1.48v-3.49h-1.08v-.95h1.08v-1.39h1.15v1.39h1.82v.95h-1.82v3.44c0,.34.09.61.26.79.17.18.42.28.74.28.35,0,.65-.1.9-.3l.36.83Z"/>
      <path class="cls-15" d="M299.23,98.54c.85.44,1.51,1.07,1.99,1.87.48.8.71,1.71.71,2.74s-.19,1.83-.56,2.41-.9.88-1.57.88c-.38,0-.7-.1-.95-.29s-.41-.48-.49-.85c-.24.37-.55.65-.94.85-.39.2-.83.29-1.34.29-.56,0-1.06-.13-1.51-.4-.45-.26-.8-.63-1.05-1.1s-.38-1-.38-1.59.13-1.11.38-1.58.6-.83,1.05-1.09c.45-.26.95-.39,1.51-.39.46,0,.88.09,1.26.26.38.17.69.43.94.76v-.97h1.04v4.32c0,.3.06.51.19.65s.29.21.49.21c.35,0,.63-.21.82-.62.2-.41.29-.99.29-1.75,0-.89-.2-1.67-.6-2.35s-.96-1.2-1.69-1.58c-.72-.38-1.55-.56-2.49-.56s-1.78.2-2.5.59c-.72.39-1.29.94-1.69,1.64-.4.7-.6,1.51-.6,2.41s.2,1.72.59,2.42.95,1.25,1.67,1.65c.72.4,1.54.59,2.48.59.39,0,.79-.04,1.2-.13.41-.09.78-.22,1.12-.4l.26.77c-.35.18-.76.32-1.22.42-.46.1-.92.14-1.36.14-1.1,0-2.07-.23-2.92-.7-.85-.47-1.51-1.12-1.99-1.95-.47-.83-.71-1.77-.71-2.82s.24-1.98.71-2.81c.48-.82,1.14-1.47,2-1.93s1.84-.7,2.95-.7,2.04.22,2.89.67ZM297.29,105.23c.31-.18.55-.43.73-.75.18-.32.27-.7.27-1.13s-.09-.81-.27-1.13c-.18-.32-.42-.57-.73-.74-.31-.17-.66-.26-1.05-.26-.61,0-1.1.19-1.48.58-.38.39-.56.91-.56,1.55s.19,1.17.57,1.56c.38.39.87.59,1.47.59.39,0,.74-.09,1.05-.26Z"/>
      <path class="cls-15" d="M304.63,106.01c-.51-.28-.91-.67-1.19-1.16s-.43-1.05-.43-1.67.14-1.18.43-1.67c.29-.49.69-.88,1.19-1.15.51-.28,1.09-.41,1.73-.41.58,0,1.09.12,1.54.35.45.23.8.57,1.05,1.01l-.88.56c-.2-.3-.45-.53-.74-.68-.3-.15-.62-.23-.98-.23-.42,0-.79.09-1.12.28-.33.18-.59.45-.78.79s-.28.73-.28,1.17.09.84.28,1.18.45.6.78.79c.33.18.71.28,1.12.28.36,0,.69-.08.98-.23.3-.15.54-.38.74-.68l.88.55c-.25.44-.6.78-1.05,1.01-.45.24-.97.35-1.54.35-.65,0-1.23-.14-1.73-.42Z"/>
      <path class="cls-15" d="M314.79,100.59c.47.43.7,1.08.7,1.93v3.84h-1.09v-.84c-.19.3-.47.52-.82.68-.36.16-.78.23-1.27.23-.71,0-1.28-.17-1.71-.52-.43-.34-.64-.8-.64-1.36s.2-1.01.61-1.35c.41-.34,1.06-.51,1.94-.51h1.82v-.23c0-.5-.14-.88-.43-1.14-.29-.26-.71-.4-1.27-.4-.38,0-.74.06-1.1.19-.36.12-.66.29-.91.5l-.48-.86c.33-.26.72-.47,1.18-.61s.94-.21,1.45-.21c.88,0,1.55.22,2.02.65ZM313.64,105.25c.32-.2.55-.47.7-.83v-.89h-1.78c-.98,0-1.46.33-1.46.98,0,.32.12.57.37.76.25.18.59.28,1.03.28s.82-.1,1.14-.29Z"/>
      <path class="cls-15" d="M317.62,97.46h1.15v8.9h-1.15v-8.9Z"/>
      <path class="cls-15" d="M320.99,98.56c-.15-.14-.22-.32-.22-.53s.07-.39.22-.53.33-.22.56-.22.41.07.56.21.22.31.22.52-.07.4-.22.55c-.15.15-.33.22-.56.22s-.41-.07-.56-.22ZM320.97,100h1.15v6.36h-1.15v-6.36Z"/>
      <path class="cls-15" d="M329.64,100.64c.48.47.71,1.15.71,2.06v3.66h-1.15v-3.53c0-.62-.15-1.08-.44-1.39-.3-.31-.72-.47-1.27-.47-.62,0-1.12.18-1.48.55-.36.36-.54.89-.54,1.57v3.28h-1.15v-6.36h1.1v.96c.23-.33.55-.58.94-.76.4-.18.85-.26,1.35-.26.81,0,1.45.23,1.93.7Z"/>
      <path class="cls-15" d="M332.82,106.22c-.48-.14-.86-.32-1.13-.53l.48-.91c.28.2.62.36,1.02.48.4.12.8.18,1.21.18,1.01,0,1.51-.29,1.51-.86,0-.19-.07-.34-.2-.46-.14-.11-.31-.19-.51-.25-.2-.05-.49-.11-.87-.17-.51-.08-.93-.17-1.25-.28-.32-.1-.6-.28-.83-.53-.23-.25-.35-.6-.35-1.04,0-.58.24-1.04.72-1.39.48-.35,1.12-.52,1.93-.52.42,0,.85.05,1.27.16.42.1.77.24,1.04.42l-.49.91c-.52-.34-1.13-.5-1.84-.5-.49,0-.86.08-1.12.24-.26.16-.38.37-.38.64,0,.21.07.37.22.49.14.12.32.21.53.26.21.06.51.12.89.19.51.09.93.18,1.24.28.32.1.59.27.81.51.22.24.34.58.34,1.01,0,.58-.25,1.03-.74,1.37-.49.34-1.16.51-2.01.51-.52,0-1.02-.07-1.5-.21Z"/>
      <path class="cls-15" d="M338.52,98.56c-.15-.14-.22-.32-.22-.53s.07-.39.22-.53c.15-.15.33-.22.56-.22s.41.07.56.21c.15.14.22.31.22.52s-.07.4-.22.55c-.15.15-.33.22-.56.22s-.41-.07-.56-.22ZM338.5,100h1.15v6.36h-1.15v-6.36Z"/>
      <path class="cls-15" d="M346.19,100.59c.47.43.7,1.08.7,1.93v3.84h-1.09v-.84c-.19.3-.47.52-.82.68-.36.16-.78.23-1.27.23-.71,0-1.28-.17-1.71-.52-.43-.34-.64-.8-.64-1.36s.2-1.01.61-1.35c.41-.34,1.06-.51,1.94-.51h1.82v-.23c0-.5-.14-.88-.43-1.14-.29-.26-.71-.4-1.27-.4-.38,0-.74.06-1.1.19-.36.12-.66.29-.91.5l-.48-.86c.33-.26.72-.47,1.18-.61s.94-.21,1.45-.21c.88,0,1.55.22,2.02.65ZM345.04,105.25c.32-.2.55-.47.7-.83v-.89h-1.78c-.98,0-1.46.33-1.46.98,0,.32.12.57.37.76.25.18.59.28,1.03.28s.82-.1,1.14-.29Z"/>
      <path class="cls-15" d="M348.73,106.2c-.16-.16-.24-.35-.24-.59s.08-.43.24-.58.35-.23.58-.23.41.08.56.23c.15.15.23.35.23.59s-.08.44-.23.59c-.16.16-.34.23-.56.23s-.42-.08-.58-.23Z"/>
      <path class="cls-15" d="M353.05,99.45v.55h1.85v.95h-1.82v5.41h-1.15v-5.41h-1.08v-.95h1.08v-.56c0-.63.18-1.13.55-1.5.37-.37.88-.55,1.55-.55.26,0,.5.03.72.1.22.06.42.16.58.28l-.35.88c-.26-.2-.56-.3-.89-.3-.69,0-1.03.37-1.03,1.12Z"/>
      <path class="cls-15" d="M358.94,100.23c.39-.19.87-.29,1.43-.29v1.12c-.06,0-.15-.01-.26-.01-.62,0-1.11.19-1.47.56s-.53.9-.53,1.59v3.17h-1.15v-6.36h1.1v1.07c.2-.37.5-.65.89-.84Z"/>
      <path class="cls-15" d="M245.7,123.97c-.53-.34-.94-.84-1.25-1.49s-.46-1.43-.46-2.32.15-1.67.46-2.32c.3-.65.72-1.15,1.25-1.49s1.13-.51,1.8-.51,1.27.17,1.81.51.95.84,1.25,1.49c.3.65.46,1.43.46,2.32s-.15,1.67-.46,2.32c-.3.65-.72,1.15-1.25,1.49s-1.13.51-1.81.51-1.27-.17-1.8-.51ZM248.92,122.38c.35-.5.52-1.24.52-2.22s-.17-1.72-.52-2.22c-.35-.5-.82-.74-1.42-.74s-1.06.25-1.41.74c-.35.5-.52,1.24-.52,2.22s.17,1.72.52,2.22c.35.5.82.74,1.41.74s1.07-.25,1.42-.74Z"/>
      <path class="cls-15" d="M258.35,115.96v1.04l-3.26,7.36h-1.67l3.16-7.08h-3.3v1.43h-1.45v-2.75h6.53Z"/>
      <path class="cls-15" d="M267.92,119.49c.44.21.78.51,1.03.91s.37.84.37,1.36c0,.54-.14,1.02-.41,1.43-.27.41-.64.73-1.1.95s-.98.34-1.56.34c-1.15,0-2.05-.36-2.68-1.08s-.95-1.75-.95-3.1c0-.94.17-1.75.52-2.42s.83-1.18,1.45-1.52,1.34-.52,2.15-.52c.43,0,.84.05,1.22.14s.71.23.99.4l-.58,1.18c-.42-.27-.95-.41-1.6-.41-.81,0-1.44.25-1.9.74s-.68,1.21-.68,2.15h0c.25-.28.56-.49.95-.64.38-.15.82-.22,1.3-.22.55,0,1.05.11,1.49.32ZM267.36,122.87c.3-.26.46-.61.46-1.04s-.15-.79-.46-1.04c-.3-.26-.71-.38-1.22-.38s-.91.14-1.23.41c-.32.27-.47.62-.47,1.03s.15.75.46,1.01c.31.27.73.4,1.28.4.49,0,.88-.13,1.19-.39Z"/>
      <path class="cls-15" d="M276.42,115.96v1.04l-3.26,7.36h-1.67l3.16-7.08h-3.3v1.43h-1.45v-2.75h6.53Z"/>
      <path class="cls-15" d="M282.39,123.97c-.53-.34-.94-.84-1.25-1.49s-.46-1.43-.46-2.32.15-1.67.46-2.32c.3-.65.72-1.15,1.25-1.49s1.13-.51,1.8-.51,1.27.17,1.81.51.95.84,1.25,1.49c.3.65.46,1.43.46,2.32s-.15,1.67-.46,2.32c-.3.65-.72,1.15-1.25,1.49s-1.13.51-1.81.51-1.27-.17-1.8-.51ZM285.61,122.38c.35-.5.52-1.24.52-2.22s-.17-1.72-.52-2.22c-.35-.5-.82-.74-1.42-.74s-1.06.25-1.41.74c-.35.5-.52,1.24-.52,2.22s.17,1.72.52,2.22c.35.5.82.74,1.41.74s1.07-.25,1.42-.74Z"/>
      <path class="cls-15" d="M294,120.22c.41.43.61.97.61,1.62,0,.49-.12.93-.37,1.33-.25.4-.62.72-1.12.95-.5.24-1.11.35-1.83.35-.6,0-1.18-.09-1.73-.26s-1.03-.41-1.42-.71l.67-1.21c.3.26.67.46,1.11.61.44.15.89.22,1.35.22.55,0,.99-.11,1.3-.34.32-.23.47-.54.47-.93s-.15-.7-.45-.92c-.3-.22-.76-.33-1.37-.33h-.77v-1.07l1.91-2.27h-3.82v-1.31h5.72v1.04l-2.04,2.42c.78.1,1.37.36,1.78.79Z"/>
      <path class="cls-15" d="M304.45,116.92c.64.72.95,1.75.95,3.1,0,.94-.17,1.75-.52,2.42-.34.67-.83,1.18-1.45,1.52-.62.35-1.34.52-2.15.52-.43,0-.84-.05-1.22-.14-.38-.09-.71-.23-.99-.4l.58-1.18c.42.27.95.41,1.6.41.81,0,1.44-.25,1.9-.74s.68-1.21.68-2.15h0c-.25.28-.56.49-.95.64-.38.15-.82.22-1.3.22-.55,0-1.05-.11-1.49-.32-.44-.21-.78-.51-1.03-.91-.25-.39-.37-.84-.37-1.36,0-.54.14-1.02.41-1.43.27-.41.64-.73,1.1-.95.46-.22.98-.34,1.56-.34,1.15,0,2.05.36,2.68,1.08ZM303.12,119.51c.32-.27.47-.62.47-1.03s-.15-.75-.46-1.01c-.31-.27-.73-.4-1.28-.4-.49,0-.88.13-1.19.39-.3.26-.46.61-.46,1.04s.15.79.46,1.04c.3.26.71.38,1.22.38s.91-.14,1.23-.41Z"/>
      <path class="cls-15" d="M312.49,123.04v1.32h-6.19v-1.04l3.34-3.17c.38-.36.63-.67.76-.94.13-.27.2-.53.2-.8,0-.39-.13-.69-.4-.9-.26-.21-.65-.31-1.16-.31-.86,0-1.51.29-1.97.88l-1.09-.84c.33-.44.77-.78,1.33-1.03.56-.24,1.18-.37,1.87-.37.91,0,1.64.22,2.18.65s.82,1.02.82,1.76c0,.46-.1.88-.29,1.28-.19.4-.56.86-1.1,1.37l-2.24,2.14h3.96Z"/>
      <path class="cls-15" d="M324.19,122.45h-1.49v1.91h-1.51v-1.91h-4.61v-1.08l4.14-5.41h1.67l-3.9,5.17h2.75v-1.69h1.46v1.69h1.49v1.32Z"/>
      <path class="cls-15" d="M332.34,122.45h-1.49v1.91h-1.51v-1.91h-4.61v-1.08l4.14-5.41h1.67l-3.9,5.17h2.75v-1.69h1.46v1.69h1.49v1.32Z"/>
    </g>
    <rect class="cls-4" x="233.48" width="2" height="150"/>
  </g>
</svg>