<?xml version="1.0" encoding="UTF-8"?>
<svg id="Calque_1" data-name="Calque 1" xmlns="http://www.w3.org/2000/svg" version="1.1" viewBox="0 0 522 150">
  <g>
    <path d="M245.957,15.56h1.82v8.26h5.124v1.54h-6.944v-9.8Z" fill="#000" stroke-width="0"/>
    <path d="M260.769,23.092h-4.9l-.966,2.268h-1.876l4.41-9.8h1.792l4.423,9.8h-1.903l-.98-2.268ZM260.167,21.663l-1.848-4.284-1.834,4.284h3.682Z" fill="#000" stroke-width="0"/>
    <path d="M275.014,15.98c.63.28,1.113.682,1.449,1.204s.504,1.144.504,1.861c0,.71-.168,1.328-.504,1.855s-.819.931-1.449,1.211-1.369.42-2.219.42h-2.212v2.828h-1.82v-9.8h4.032c.85,0,1.589.14,2.219.42ZM274.517,20.488c.411-.336.616-.816.616-1.442s-.205-1.105-.616-1.441-1.013-.504-1.806-.504h-2.128v3.892h2.128c.793,0,1.395-.168,1.806-.504Z" fill="#000" stroke-width="0"/>
    <path d="M285.199,25.36l-2.002-2.87c-.084.01-.211.014-.379.014h-2.212v2.856h-1.819v-9.8h4.031c.85,0,1.59.14,2.219.42.631.28,1.113.682,1.449,1.204s.504,1.144.504,1.861c0,.738-.18,1.372-.539,1.904s-.875.929-1.547,1.19l2.254,3.22h-1.959ZM284.541,17.604c-.411-.336-1.014-.504-1.807-.504h-2.128v3.906h2.128c.793,0,1.396-.171,1.807-.512.41-.341.615-.823.615-1.449s-.205-1.105-.615-1.441Z" fill="#000" stroke-width="0"/>
    <path d="M295.377,23.092h-4.9l-.966,2.268h-1.876l4.41-9.8h1.792l4.424,9.8h-1.904l-.979-2.268ZM294.774,21.663l-1.848-4.284-1.834,4.284h3.682Z" fill="#000" stroke-width="0"/>
    <path d="M299.506,15.56h1.82v8.26h5.124v1.54h-6.944v-9.8Z" fill="#000" stroke-width="0"/>
    <path d="M307.893,15.56h1.82v9.8h-1.82v-9.8Z" fill="#000" stroke-width="0"/>
    <path d="M321.066,15.56v9.8h-1.498l-5.404-6.636v6.636h-1.806v-9.8h1.498l5.403,6.636v-6.636h1.807Z" fill="#000" stroke-width="0"/>
    <path d="M324.916,15.196c.215.215.322.49.322.826,0,.168-.021.331-.063.49-.042.158-.124.396-.245.714l-.728,1.987h-1.134l.56-2.155c-.205-.075-.366-.203-.483-.385-.116-.183-.175-.399-.175-.651,0-.336.107-.611.322-.826s.485-.322.812-.322.598.107.812.322Z" fill="#000" stroke-width="0"/>
    <path d="M335.822,15.56v9.8h-1.498l-5.404-6.636v6.636h-1.806v-9.8h1.498l5.403,6.636v-6.636h1.807Z" fill="#000" stroke-width="0"/>
    <path d="M340.33,24.849c-.803-.435-1.433-1.036-1.891-1.807-.457-.77-.686-1.631-.686-2.583s.229-1.812.686-2.583c.458-.77,1.088-1.372,1.891-1.806s1.703-.651,2.702-.651,1.899.218,2.702.651,1.432,1.034,1.89,1.799c.457.766.687,1.629.687,2.59s-.229,1.825-.687,2.591c-.458.765-1.087,1.364-1.89,1.799-.803.434-1.704.65-2.702.65s-1.899-.217-2.702-.65ZM344.796,23.462c.522-.294.934-.704,1.231-1.231.299-.527.448-1.118.448-1.771s-.149-1.243-.448-1.771c-.298-.527-.709-.938-1.231-1.232s-1.11-.44-1.764-.44-1.241.146-1.765.44c-.522.294-.934.705-1.231,1.232-.299.527-.448,1.118-.448,1.771s.149,1.244.448,1.771c.298.527.709.938,1.231,1.231.523.295,1.111.441,1.765.441s1.241-.146,1.764-.441Z" fill="#000" stroke-width="0"/>
    <path d="M350.242,15.56h1.819v9.8h-1.819v-9.8Z" fill="#000" stroke-width="0"/>
    <path d="M360.882,25.36l-2.66-3.724-2.632,3.724h-2.072l3.641-4.998-3.444-4.802h2.058l2.506,3.485,2.479-3.485h1.974l-3.43,4.731,3.682,5.068h-2.1Z" fill="#000" stroke-width="0"/>
    <path d="M367.728,20.74h3.851v1.456h-3.851v-1.456Z" fill="#000" stroke-width="0"/>
    <path d="M384.768,16.959l-3.685,8.4h-1.188l-3.696-8.4h1.296l3.024,6.9,3.048-6.9h1.2Z" fill="#000" stroke-width="0"/>
    <path d="M386.207,25.012c-.504-.28-.898-.666-1.182-1.158-.284-.492-.426-1.05-.426-1.674s.142-1.183.426-1.674c.283-.492.678-.877,1.182-1.152.504-.276,1.072-.414,1.704-.414s1.198.138,1.698.414c.5.275.892.66,1.176,1.152.284.491.426,1.05.426,1.674s-.142,1.182-.426,1.674-.676.878-1.176,1.158c-.5.279-1.066.42-1.698.42s-1.2-.141-1.704-.42ZM389.01,24.142c.323-.188.577-.452.762-.792.184-.34.275-.73.275-1.17s-.092-.83-.275-1.17c-.185-.34-.438-.603-.762-.786-.324-.185-.69-.276-1.099-.276s-.774.092-1.098.276c-.324.184-.58.446-.769.786-.188.34-.281.729-.281,1.17s.094.83.281,1.17c.188.34.444.604.769.792.323.188.689.282,1.098.282s.774-.095,1.099-.282Z" fill="#000" stroke-width="0"/>
    <path d="M396.383,24.988c-.168.145-.376.254-.624.33s-.504.114-.768.114c-.64,0-1.136-.172-1.488-.517-.353-.344-.528-.836-.528-1.476v-3.492h-1.08v-.948h1.08v-1.392h1.152v1.392h1.824v.948h-1.824v3.444c0,.344.086.607.258.792.172.184.418.275.738.275.352,0,.652-.1.9-.3l.359.828Z" fill="#000" stroke-width="0"/>
    <path d="M399.767,19.228c.392-.192.868-.288,1.429-.288v1.116c-.064-.008-.152-.013-.265-.013-.624,0-1.114.187-1.47.559-.356.372-.534.902-.534,1.59v3.168h-1.151v-6.36h1.104v1.068c.2-.368.496-.648.888-.84Z" fill="#000" stroke-width="0"/>
    <path d="M408.274,22.564h-5.159c.071.56.317,1.01.737,1.35.42.341.942.511,1.566.511.76,0,1.372-.257,1.836-.769l.636.744c-.288.336-.646.592-1.074.768-.428.177-.906.265-1.434.265-.672,0-1.268-.139-1.788-.414-.521-.276-.922-.662-1.206-1.158s-.426-1.056-.426-1.68c0-.616.138-1.172.414-1.668.275-.496.656-.883,1.14-1.158.484-.276,1.03-.414,1.638-.414s1.15.138,1.627.414c.476.275.848.662,1.115,1.158.269.496.402,1.063.402,1.704,0,.088-.008.203-.024.348ZM403.769,20.415c-.372.336-.59.776-.653,1.32h4.08c-.064-.536-.282-.974-.654-1.314-.372-.34-.834-.51-1.387-.51s-1.014.168-1.386.504Z" fill="#000" stroke-width="0"/>
    <path d="M417.461,19.587c.468.433.702,1.076.702,1.933v3.84h-1.093v-.84c-.191.296-.466.521-.821.678-.356.156-.778.234-1.267.234-.712,0-1.281-.172-1.71-.517-.428-.344-.642-.796-.642-1.355s.204-1.01.611-1.351c.408-.34,1.057-.51,1.944-.51h1.824v-.228c0-.496-.144-.876-.432-1.141-.288-.264-.712-.396-1.272-.396-.376,0-.744.062-1.104.186-.36.124-.664.29-.912.498l-.48-.863c.328-.265.721-.467,1.176-.606.457-.14.94-.21,1.452-.21.88,0,1.554.216,2.022.647ZM416.314,24.249c.32-.195.553-.474.696-.834v-.888h-1.776c-.976,0-1.464.328-1.464.984,0,.319.124.571.372.756.248.184.592.275,1.032.275s.819-.098,1.14-.294Z" fill="#000" stroke-width="0"/>
    <path d="M422.291,19.228c.392-.192.867-.288,1.428-.288v1.116c-.064-.008-.152-.013-.264-.013-.625,0-1.115.187-1.471.559s-.534.902-.534,1.59v3.168h-1.151v-6.36h1.104v1.068c.2-.368.496-.648.889-.84Z" fill="#000" stroke-width="0"/>
    <path d="M428.975,24.988c-.168.145-.376.254-.624.33s-.504.114-.769.114c-.64,0-1.136-.172-1.487-.517-.353-.344-.528-.836-.528-1.476v-3.492h-1.08v-.948h1.08v-1.392h1.152v1.392h1.824v.948h-1.824v3.444c0,.344.086.607.258.792.172.184.418.275.738.275.352,0,.652-.1.9-.3l.359.828Z" fill="#000" stroke-width="0"/>
    <path d="M430.385,17.56c-.148-.145-.223-.32-.223-.528s.074-.386.223-.534c.147-.147.334-.222.558-.222s.41.07.558.21c.148.14.223.314.223.522,0,.216-.074.397-.223.546-.147.147-.334.222-.558.222s-.41-.072-.558-.216ZM430.366,18.999h1.152v6.36h-1.152v-6.36Z" fill="#000" stroke-width="0"/>
    <path d="M434.038,25.222c-.479-.141-.856-.318-1.128-.534l.48-.912c.279.2.619.36,1.02.48.4.119.805.18,1.212.18,1.009,0,1.513-.288,1.513-.864,0-.192-.068-.344-.204-.456-.137-.111-.307-.193-.511-.246-.203-.052-.494-.109-.869-.174-.513-.08-.931-.172-1.254-.276-.324-.104-.603-.279-.834-.527-.232-.248-.349-.596-.349-1.044,0-.576.24-1.038.72-1.387.48-.348,1.124-.521,1.933-.521.424,0,.848.052,1.271.156.424.104.772.244,1.044.42l-.492.912c-.52-.336-1.132-.504-1.836-.504-.487,0-.859.08-1.115.239-.257.16-.385.372-.385.637,0,.208.072.371.217.491.144.12.321.208.533.265.213.056.511.12.895.191.512.089.926.183,1.242.282.315.101.586.271.81.51.224.24.336.576.336,1.009,0,.575-.246,1.033-.737,1.373-.492.341-1.162.511-2.011.511-.52,0-1.02-.07-1.5-.21Z" fill="#000" stroke-width="0"/>
    <path d="M444.064,19.587c.468.433.702,1.076.702,1.933v3.84h-1.093v-.84c-.191.296-.466.521-.821.678-.356.156-.778.234-1.267.234-.712,0-1.281-.172-1.71-.517-.428-.344-.642-.796-.642-1.355s.204-1.01.611-1.351c.408-.34,1.057-.51,1.944-.51h1.824v-.228c0-.496-.144-.876-.432-1.141-.288-.264-.712-.396-1.272-.396-.376,0-.744.062-1.104.186-.36.124-.664.29-.912.498l-.48-.863c.328-.265.721-.467,1.176-.606.457-.14.94-.21,1.452-.21.88,0,1.554.216,2.022.647ZM442.918,24.249c.32-.195.553-.474.696-.834v-.888h-1.776c-.976,0-1.464.328-1.464.984,0,.319.124.571.372.756.248.184.592.275,1.032.275s.819-.098,1.14-.294Z" fill="#000" stroke-width="0"/>
    <path d="M452.225,19.642c.476.468.713,1.154.713,2.058v3.66h-1.151v-3.528c0-.615-.148-1.08-.444-1.392-.296-.312-.72-.468-1.271-.468-.624,0-1.116.182-1.477.546-.359.364-.54.886-.54,1.565v3.276h-1.151v-6.36h1.104v.96c.232-.327.546-.579.942-.756.396-.176.846-.264,1.35-.264.808,0,1.45.234,1.927.702Z" fill="#000" stroke-width="0"/>
    <path d="M463.33,19.348c.488.271.87.651,1.146,1.14.275.488.413,1.052.413,1.692s-.138,1.206-.413,1.697c-.276.492-.658.875-1.146,1.146-.488.272-1.04.408-1.656.408-.472,0-.904-.092-1.296-.276-.392-.184-.716-.452-.972-.804v1.008h-1.104v-8.904h1.152v3.504c.256-.336.576-.59.96-.762s.804-.258,1.26-.258c.616,0,1.168.136,1.656.408ZM462.676,24.142c.324-.188.58-.452.768-.792.188-.34.283-.73.283-1.17s-.095-.83-.283-1.17c-.188-.34-.443-.603-.768-.786-.324-.185-.689-.276-1.098-.276-.4,0-.764.092-1.092.276-.328.184-.584.446-.769.786-.184.34-.276.729-.276,1.17s.093.83.276,1.17c.185.34.44.604.769.792.328.188.691.282,1.092.282.408,0,.773-.095,1.098-.282Z" fill="#000" stroke-width="0"/>
    <path d="M467.506,25.012c-.504-.28-.898-.666-1.182-1.158-.284-.492-.426-1.05-.426-1.674s.142-1.183.426-1.674c.283-.492.678-.877,1.182-1.152.504-.276,1.072-.414,1.704-.414s1.198.138,1.698.414c.5.275.892.66,1.176,1.152.284.491.426,1.05.426,1.674s-.142,1.182-.426,1.674-.676.878-1.176,1.158c-.5.279-1.066.42-1.698.42s-1.2-.141-1.704-.42ZM470.309,24.142c.323-.188.577-.452.762-.792.184-.34.275-.73.275-1.17s-.092-.83-.275-1.17c-.185-.34-.438-.603-.762-.786-.324-.185-.69-.276-1.099-.276s-.774.092-1.098.276c-.324.184-.58.446-.769.786-.188.34-.281.729-.281,1.17s.094.83.281,1.17c.188.34.444.604.769.792.323.188.689.282,1.098.282s.774-.095,1.099-.282Z" fill="#000" stroke-width="0"/>
    <path d="M480.034,18.999v6.36h-1.093v-.96c-.231.328-.537.582-.918.762-.38.181-.794.271-1.241.271-.849,0-1.517-.234-2.005-.702-.487-.468-.731-1.158-.731-2.07v-3.66h1.152v3.528c0,.616.147,1.082.443,1.398.296.315.72.474,1.272.474.607,0,1.088-.184,1.439-.552.353-.368.528-.889.528-1.561v-3.288h1.152Z" fill="#000" stroke-width="0"/>
    <path d="M482.229,16.455h1.152v8.904h-1.152v-8.904Z" fill="#000" stroke-width="0"/>
    <path d="M489.916,19.587c.468.433.701,1.076.701,1.933v3.84h-1.092v-.84c-.191.296-.466.521-.822.678-.355.156-.777.234-1.266.234-.712,0-1.282-.172-1.71-.517-.428-.344-.642-.796-.642-1.355s.203-1.01.611-1.351c.408-.34,1.057-.51,1.944-.51h1.824v-.228c0-.496-.145-.876-.433-1.141-.287-.264-.712-.396-1.271-.396-.376,0-.744.062-1.104.186-.36.124-.665.29-.912.498l-.48-.863c.328-.265.72-.467,1.176-.606s.94-.21,1.452-.21c.88,0,1.554.216,2.022.647ZM488.77,24.249c.32-.195.552-.474.696-.834v-.888h-1.776c-.977,0-1.464.328-1.464.984,0,.319.124.571.372.756.248.184.592.275,1.032.275s.819-.098,1.14-.294Z" fill="#000" stroke-width="0"/>
    <path d="M498.076,19.642c.476.468.713,1.154.713,2.058v3.66h-1.151v-3.528c0-.615-.148-1.08-.444-1.392-.296-.312-.72-.468-1.271-.468-.624,0-1.116.182-1.477.546-.359.364-.54.886-.54,1.565v3.276h-1.151v-6.36h1.104v.96c.232-.327.546-.579.942-.756.396-.176.846-.264,1.35-.264.808,0,1.45.234,1.927.702Z" fill="#000" stroke-width="0"/>
    <path d="M507.045,18.999v5.496c0,1.112-.275,1.935-.828,2.466-.552.532-1.375.799-2.472.799-.6,0-1.172-.082-1.716-.246s-.984-.398-1.32-.702l.553-.888c.296.256.662.457,1.098.605s.886.222,1.35.222c.744,0,1.295-.176,1.65-.527.355-.353.534-.889.534-1.608v-.504c-.272.328-.606.574-1.002.738-.396.164-.826.246-1.29.246-.608,0-1.158-.13-1.65-.391-.492-.26-.878-.624-1.158-1.092-.279-.468-.42-1.002-.42-1.602s.141-1.135.42-1.603c.28-.468.666-.83,1.158-1.086s1.042-.384,1.65-.384c.479,0,.926.088,1.338.264.412.177.75.437,1.014.78v-.984h1.092ZM504.855,23.823c.332-.176.592-.422.78-.738.188-.315.282-.674.282-1.073,0-.616-.205-1.114-.612-1.494-.408-.38-.933-.57-1.572-.57-.647,0-1.176.19-1.584.57s-.612.878-.612,1.494c0,.399.094.758.282,1.073.188.316.448.562.78.738s.71.264,1.134.264c.416,0,.79-.088,1.122-.264Z" fill="#000" stroke-width="0"/>
    <path d="M514.965,22.564h-5.16c.072.56.318,1.01.738,1.35.42.341.942.511,1.566.511.76,0,1.372-.257,1.836-.769l.636.744c-.288.336-.646.592-1.074.768-.428.177-.905.265-1.434.265-.672,0-1.269-.139-1.788-.414-.52-.276-.922-.662-1.206-1.158s-.426-1.056-.426-1.68c0-.616.138-1.172.414-1.668s.655-.883,1.14-1.158c.484-.276,1.03-.414,1.639-.414s1.149.138,1.625.414c.477.275.849.662,1.116,1.158.269.496.402,1.063.402,1.704,0,.088-.008.203-.024.348ZM510.459,20.415c-.372.336-.59.776-.654,1.32h4.08c-.063-.536-.281-.974-.653-1.314-.372-.34-.834-.51-1.386-.51s-1.015.168-1.387.504Z" fill="#000" stroke-width="0"/>
    <path d="M518.577,19.228c.392-.192.868-.288,1.428-.288v1.116c-.063-.008-.151-.013-.264-.013-.624,0-1.114.187-1.47.559-.356.372-.534.902-.534,1.59v3.168h-1.152v-6.36h1.104v1.068c.199-.368.496-.648.888-.84Z" fill="#000" stroke-width="0"/>
    <path d="M247.101,36.003v2.929h4.212v1.031h-4.212v3.396h-1.2v-8.4h5.928v1.044h-4.728Z" fill="#000" stroke-width="0"/>
    <path d="M257.463,37.587c.468.433.702,1.076.702,1.933v3.84h-1.092v-.84c-.192.296-.466.521-.822.678-.356.156-.778.234-1.266.234-.712,0-1.282-.172-1.71-.517-.428-.344-.642-.796-.642-1.355s.204-1.01.612-1.351c.408-.34,1.056-.51,1.944-.51h1.824v-.228c0-.496-.144-.876-.432-1.141-.288-.264-.712-.396-1.272-.396-.376,0-.744.062-1.104.186-.36.124-.664.29-.912.498l-.479-.863c.328-.265.72-.467,1.176-.606s.94-.21,1.452-.21c.88,0,1.554.216,2.021.647ZM256.317,42.249c.319-.195.552-.474.696-.834v-.888h-1.776c-.977,0-1.464.328-1.464.984,0,.319.124.571.372.756.248.184.592.275,1.032.275s.82-.098,1.14-.294Z" fill="#000" stroke-width="0"/>
    <path d="M265.329,37.348c.487.271.87.651,1.146,1.14.276.488.414,1.052.414,1.692s-.138,1.206-.414,1.697c-.275.492-.658.875-1.146,1.146-.488.272-1.04.408-1.656.408-.472,0-.904-.092-1.296-.276-.392-.184-.716-.452-.972-.804v1.008h-1.104v-8.904h1.152v3.504c.256-.336.576-.59.96-.762s.804-.258,1.26-.258c.616,0,1.168.136,1.656.408ZM264.675,42.142c.324-.188.58-.452.769-.792.188-.34.281-.73.281-1.17s-.094-.83-.281-1.17c-.188-.34-.444-.603-.769-.786-.323-.185-.69-.276-1.098-.276-.4,0-.765.092-1.093.276-.328.184-.583.446-.768.786-.184.34-.276.729-.276,1.17s.092.83.276,1.17c.184.34.439.604.768.792.328.188.692.282,1.093.282.407,0,.774-.095,1.098-.282Z" fill="#000" stroke-width="0"/>
    <path d="M270.477,37.228c.393-.192.868-.288,1.428-.288v1.116c-.063-.008-.151-.013-.264-.013-.624,0-1.114.187-1.47.559-.356.372-.534.902-.534,1.59v3.168h-1.152v-6.36h1.104v1.068c.2-.368.496-.648.888-.84Z" fill="#000" stroke-width="0"/>
    <path d="M273.339,35.56c-.147-.145-.222-.32-.222-.528s.074-.386.222-.534c.148-.147.334-.222.558-.222s.41.07.559.21.222.314.222.522c0,.216-.073.397-.222.546-.148.147-.334.222-.559.222s-.409-.072-.558-.216ZM273.321,36.999h1.151v6.36h-1.151v-6.36Z" fill="#000" stroke-width="0"/>
    <path d="M277.707,43.012c-.509-.28-.906-.666-1.194-1.158s-.433-1.05-.433-1.674.145-1.183.433-1.674c.288-.492.686-.877,1.194-1.152.508-.276,1.086-.414,1.733-.414.576,0,1.09.116,1.542.348.452.232.803.568,1.051,1.008l-.877.564c-.199-.304-.447-.532-.744-.684-.295-.152-.623-.229-.983-.229-.416,0-.79.092-1.122.276-.332.184-.592.446-.78.786-.188.34-.282.729-.282,1.17,0,.448.095.842.282,1.182.188.34.448.603.78.786s.706.276,1.122.276c.36,0,.688-.076.983-.229.297-.151.545-.38.744-.684l.877.552c-.248.44-.599.778-1.051,1.014-.452.236-.966.354-1.542.354-.647,0-1.226-.141-1.733-.42Z" fill="#000" stroke-width="0"/>
    <path d="M287.858,37.587c.468.433.702,1.076.702,1.933v3.84h-1.092v-.84c-.192.296-.466.521-.822.678-.355.156-.777.234-1.266.234-.712,0-1.282-.172-1.71-.517-.429-.344-.642-.796-.642-1.355s.203-1.01.611-1.351c.408-.34,1.057-.51,1.944-.51h1.823v-.228c0-.496-.144-.876-.432-1.141-.288-.264-.712-.396-1.271-.396-.377,0-.744.062-1.104.186s-.664.29-.912.498l-.479-.863c.328-.265.72-.467,1.176-.606s.939-.21,1.452-.21c.88,0,1.554.216,2.021.647ZM286.713,42.249c.319-.195.552-.474.695-.834v-.888h-1.775c-.977,0-1.464.328-1.464.984,0,.319.124.571.372.756.248.184.592.275,1.031.275s.82-.098,1.141-.294Z" fill="#000" stroke-width="0"/>
    <path d="M294.272,42.988c-.168.145-.376.254-.624.33s-.504.114-.768.114c-.641,0-1.137-.172-1.488-.517-.352-.344-.527-.836-.527-1.476v-3.492h-1.08v-.948h1.08v-1.392h1.151v1.392h1.824v.948h-1.824v3.444c0,.344.086.607.258.792.173.184.418.275.738.275.353,0,.652-.1.9-.3l.359.828Z" fill="#000" stroke-width="0"/>
    <path d="M295.683,35.56c-.148-.145-.222-.32-.222-.528s.073-.386.222-.534c.147-.147.334-.222.558-.222s.41.07.559.21c.147.14.222.314.222.522,0,.216-.074.397-.222.546-.148.147-.334.222-.559.222s-.41-.072-.558-.216ZM295.664,36.999h1.152v6.36h-1.152v-6.36Z" fill="#000" stroke-width="0"/>
    <path d="M300.032,43.012c-.504-.28-.897-.666-1.182-1.158s-.427-1.05-.427-1.674.143-1.183.427-1.674c.284-.492.678-.877,1.182-1.152.504-.276,1.072-.414,1.704-.414s1.198.138,1.698.414c.5.275.892.66,1.176,1.152.284.491.426,1.05.426,1.674s-.142,1.182-.426,1.674-.676.878-1.176,1.158c-.5.279-1.066.42-1.698.42s-1.2-.141-1.704-.42ZM302.834,42.142c.324-.188.578-.452.763-.792.184-.34.275-.73.275-1.17s-.092-.83-.275-1.17c-.185-.34-.438-.603-.763-.786-.323-.185-.689-.276-1.098-.276s-.773.092-1.098.276c-.324.184-.58.446-.769.786-.188.34-.282.729-.282,1.17s.095.83.282,1.17c.188.34.444.604.769.792.324.188.689.282,1.098.282s.774-.095,1.098-.282Z" fill="#000" stroke-width="0"/>
    <path d="M311.954,37.642c.476.468.714,1.154.714,2.058v3.66h-1.151v-3.528c0-.615-.148-1.08-.444-1.392-.296-.312-.72-.468-1.271-.468-.625,0-1.116.182-1.477.546-.359.364-.54.886-.54,1.565v3.276h-1.151v-6.36h1.104v.96c.232-.327.546-.579.941-.756.396-.176.847-.264,1.351-.264.808,0,1.45.234,1.926.702Z" fill="#000" stroke-width="0"/>
    <path d="M327.891,37.636c.468.464.702,1.151.702,2.063v3.66h-1.152v-3.528c0-.615-.142-1.08-.426-1.392-.284-.312-.69-.468-1.218-.468-.584,0-1.049.182-1.393.546s-.516.886-.516,1.565v3.276h-1.152v-3.528c0-.615-.143-1.08-.426-1.392-.284-.312-.69-.468-1.218-.468-.585,0-1.049.182-1.393.546s-.516.886-.516,1.565v3.276h-1.152v-6.36h1.104v.948c.231-.328.535-.578.912-.75.375-.172.804-.258,1.283-.258.496,0,.937.1,1.32.3s.68.492.889.876c.239-.368.573-.655,1.002-.864.428-.208.909-.312,1.445-.312.8,0,1.434.232,1.902.696Z" fill="#000" stroke-width="0"/>
    <path d="M335.055,37.587c.468.433.701,1.076.701,1.933v3.84h-1.092v-.84c-.191.296-.466.521-.822.678-.355.156-.777.234-1.266.234-.712,0-1.282-.172-1.71-.517-.428-.344-.642-.796-.642-1.355s.203-1.01.611-1.351c.408-.34,1.057-.51,1.944-.51h1.824v-.228c0-.496-.145-.876-.433-1.141-.287-.264-.712-.396-1.271-.396-.376,0-.744.062-1.104.186-.36.124-.665.29-.912.498l-.48-.863c.328-.265.72-.467,1.176-.606s.94-.21,1.452-.21c.88,0,1.554.216,2.022.647ZM333.908,42.249c.32-.195.552-.474.696-.834v-.888h-1.776c-.977,0-1.464.328-1.464.984,0,.319.124.571.372.756.248.184.592.275,1.032.275s.819-.098,1.14-.294Z" fill="#000" stroke-width="0"/>
    <path d="M337.91,35.56c-.148-.145-.223-.32-.223-.528s.074-.386.223-.534c.148-.147.334-.222.558-.222s.41.07.559.21c.147.14.222.314.222.522,0,.216-.074.397-.222.546-.148.147-.335.222-.559.222s-.409-.072-.558-.216ZM337.893,36.999h1.151v6.36h-1.151v-6.36Z" fill="#000" stroke-width="0"/>
    <path d="M341.564,43.222c-.48-.141-.856-.318-1.129-.534l.48-.912c.279.2.62.36,1.02.48.4.119.805.18,1.213.18,1.008,0,1.512-.288,1.512-.864,0-.192-.068-.344-.204-.456-.136-.111-.306-.193-.51-.246-.204-.052-.494-.109-.87-.174-.512-.08-.93-.172-1.254-.276-.324-.104-.603-.279-.834-.527-.232-.248-.349-.596-.349-1.044,0-.576.24-1.038.72-1.387.48-.348,1.125-.521,1.933-.521.424,0,.848.052,1.272.156.424.104.771.244,1.043.42l-.491.912c-.521-.336-1.132-.504-1.836-.504-.488,0-.86.08-1.116.239-.256.16-.384.372-.384.637,0,.208.071.371.216.491.144.12.322.208.534.265.212.056.51.12.894.191.512.089.926.183,1.242.282.316.101.586.271.81.51.224.24.337.576.337,1.009,0,.575-.246,1.033-.738,1.373-.492.341-1.162.511-2.01.511-.521,0-1.021-.07-1.5-.21Z" fill="#000" stroke-width="0"/>
    <path d="M348.271,43.012c-.504-.28-.897-.666-1.182-1.158s-.426-1.05-.426-1.674.142-1.183.426-1.674c.284-.492.678-.877,1.182-1.152.504-.276,1.072-.414,1.704-.414s1.198.138,1.698.414c.5.275.893.66,1.176,1.152.284.491.426,1.05.426,1.674s-.142,1.182-.426,1.674c-.283.492-.676.878-1.176,1.158-.5.279-1.066.42-1.698.42s-1.2-.141-1.704-.42ZM351.074,42.142c.324-.188.578-.452.762-.792s.275-.73.275-1.17-.092-.83-.275-1.17-.438-.603-.762-.786c-.324-.185-.69-.276-1.099-.276s-.773.092-1.098.276c-.324.184-.58.446-.769.786-.188.34-.281.729-.281,1.17s.094.83.281,1.17c.188.34.444.604.769.792.324.188.69.282,1.098.282s.774-.095,1.099-.282Z" fill="#000" stroke-width="0"/>
    <path d="M360.193,37.642c.477.468.715,1.154.715,2.058v3.66h-1.152v-3.528c0-.615-.148-1.08-.444-1.392-.296-.312-.72-.468-1.271-.468-.624,0-1.116.182-1.477.546-.359.364-.54.886-.54,1.565v3.276h-1.151v-6.36h1.104v.96c.232-.327.546-.579.942-.756.396-.176.846-.264,1.35-.264.809,0,1.45.234,1.926.702Z" fill="#000" stroke-width="0"/>
    <path d="M244.137,81.663c-.24-.063-.44-.16-.6-.288l.372-.888c.24.2.552.3.936.3.304,0,.538-.094.702-.281.164-.188.246-.467.246-.835v-6.672h1.152v6.648c0,.656-.176,1.172-.528,1.548s-.852.564-1.5.564c-.28,0-.54-.032-.78-.097ZM245.811,71.56c-.148-.145-.222-.32-.222-.528s.074-.386.222-.534c.148-.147.334-.222.558-.222s.41.07.558.21c.148.14.223.314.223.522,0,.216-.074.397-.223.546-.147.147-.334.222-.558.222s-.41-.072-.558-.216Z" fill="#000" stroke-width="0"/>
    <path d="M255.069,72.999v6.36h-1.092v-.96c-.232.328-.538.582-.918.762-.38.181-.794.271-1.242.271-.849,0-1.517-.234-2.004-.702s-.732-1.158-.732-2.07v-3.66h1.152v3.528c0,.616.147,1.082.443,1.398.296.315.72.474,1.272.474.607,0,1.088-.184,1.44-.552s.528-.889.528-1.561v-3.288h1.152Z" fill="#000" stroke-width="0"/>
    <path d="M257.265,70.455h1.152v8.904h-1.152v-8.904Z" fill="#000" stroke-width="0"/>
    <path d="M260.631,71.56c-.148-.145-.222-.32-.222-.528s.074-.386.222-.534c.148-.147.334-.222.558-.222s.41.07.559.21c.147.14.222.314.222.522,0,.216-.074.397-.222.546-.148.147-.334.222-.559.222s-.41-.072-.558-.216ZM260.613,72.999h1.152v6.36h-1.152v-6.36Z" fill="#000" stroke-width="0"/>
    <path d="M269.685,76.564h-5.16c.072.56.318,1.01.738,1.35.42.341.942.511,1.565.511.761,0,1.373-.257,1.836-.769l.637.744c-.288.336-.646.592-1.074.768-.428.177-.906.265-1.434.265-.672,0-1.269-.139-1.788-.414-.521-.276-.923-.662-1.206-1.158-.284-.496-.426-1.056-.426-1.68,0-.616.138-1.172.414-1.668.275-.496.655-.883,1.14-1.158.483-.276,1.03-.414,1.638-.414s1.15.138,1.626.414c.476.275.849.662,1.116,1.158s.402,1.063.402,1.704c0,.088-.008.203-.024.348ZM265.179,74.415c-.372.336-.59.776-.654,1.32h4.08c-.063-.536-.282-.974-.653-1.314-.373-.34-.834-.51-1.387-.51s-1.014.168-1.386.504Z" fill="#000" stroke-width="0"/>
    <path d="M276.627,73.642c.476.468.714,1.154.714,2.058v3.66h-1.152v-3.528c0-.615-.147-1.08-.444-1.392-.296-.312-.72-.468-1.271-.468-.624,0-1.116.182-1.477.546-.359.364-.539.886-.539,1.565v3.276h-1.152v-6.36h1.104v.96c.232-.327.547-.579.942-.756.396-.176.846-.264,1.351-.264.808,0,1.449.234,1.926.702Z" fill="#000" stroke-width="0"/>
    <path d="M279.177,79.198c-.16-.156-.24-.354-.24-.594,0-.232.08-.426.24-.582s.353-.234.576-.234.412.076.563.229c.152.151.229.348.229.588s-.078.438-.234.594-.342.234-.558.234c-.224,0-.416-.078-.576-.234Z" fill="#000" stroke-width="0"/>
    <path d="M283.095,79.012c-.509-.28-.906-.666-1.194-1.158s-.432-1.05-.432-1.674.144-1.183.432-1.674c.288-.492.686-.877,1.194-1.152.508-.276,1.086-.414,1.733-.414.576,0,1.09.116,1.543.348.451.232.802.568,1.05,1.008l-.876.564c-.2-.304-.448-.532-.744-.684-.296-.152-.624-.229-.984-.229-.416,0-.79.092-1.122.276-.332.184-.592.446-.78.786-.188.34-.281.729-.281,1.17,0,.448.094.842.281,1.182.188.34.448.603.78.786s.706.276,1.122.276c.36,0,.688-.076.984-.229.296-.151.544-.38.744-.684l.876.552c-.248.44-.599.778-1.05,1.014-.453.236-.967.354-1.543.354-.647,0-1.226-.141-1.733-.42Z" fill="#000" stroke-width="0"/>
    <path d="M294.146,73.642c.477.468.715,1.154.715,2.058v3.66h-1.152v-3.528c0-.615-.148-1.08-.444-1.392-.296-.312-.72-.468-1.271-.468-.624,0-1.116.182-1.477.546-.359.364-.54.886-.54,1.565v3.276h-1.151v-8.904h1.151v3.444c.24-.304.555-.54.942-.708s.822-.252,1.302-.252c.809,0,1.45.234,1.926.702Z" fill="#000" stroke-width="0"/>
    <path d="M301.335,73.587c.468.433.702,1.076.702,1.933v3.84h-1.092v-.84c-.192.296-.467.521-.822.678-.356.156-.778.234-1.267.234-.712,0-1.282-.172-1.71-.517-.428-.344-.642-.796-.642-1.355s.204-1.01.612-1.351c.408-.34,1.056-.51,1.943-.51h1.824v-.228c0-.496-.145-.876-.432-1.141-.288-.264-.713-.396-1.272-.396-.376,0-.744.062-1.104.186-.36.124-.665.29-.912.498l-.48-.863c.328-.265.72-.467,1.177-.606.455-.14.939-.21,1.451-.21.88,0,1.555.216,2.022.647ZM300.188,78.249c.32-.195.552-.474.696-.834v-.888h-1.775c-.977,0-1.465.328-1.465.984,0,.319.124.571.372.756.248.184.592.275,1.032.275s.82-.098,1.14-.294Z" fill="#000" stroke-width="0"/>
    <path d="M304.173,70.455h1.151v8.904h-1.151v-8.904Z" fill="#000" stroke-width="0"/>
    <path d="M317.379,73.636c.468.464.702,1.151.702,2.063v3.66h-1.152v-3.528c0-.615-.142-1.08-.426-1.392-.284-.312-.69-.468-1.218-.468-.584,0-1.049.182-1.393.546s-.516.886-.516,1.565v3.276h-1.152v-3.528c0-.615-.143-1.08-.426-1.392-.284-.312-.69-.468-1.218-.468-.585,0-1.049.182-1.393.546s-.516.886-.516,1.565v3.276h-1.152v-6.36h1.104v.948c.231-.328.535-.578.912-.75.375-.172.804-.258,1.283-.258.496,0,.937.1,1.32.3s.68.492.889.876c.239-.368.573-.655,1.002-.864.428-.208.909-.312,1.445-.312.8,0,1.434.232,1.902.696Z" fill="#000" stroke-width="0"/>
    <path d="M324.543,73.587c.468.433.701,1.076.701,1.933v3.84h-1.092v-.84c-.191.296-.466.521-.822.678-.355.156-.777.234-1.266.234-.712,0-1.282-.172-1.71-.517-.428-.344-.642-.796-.642-1.355s.203-1.01.611-1.351c.408-.34,1.057-.51,1.944-.51h1.824v-.228c0-.496-.145-.876-.433-1.141-.287-.264-.712-.396-1.271-.396-.376,0-.744.062-1.104.186-.36.124-.665.29-.912.498l-.48-.863c.328-.265.72-.467,1.176-.606s.94-.21,1.452-.21c.88,0,1.554.216,2.022.647ZM323.396,78.249c.32-.195.552-.474.696-.834v-.888h-1.776c-.977,0-1.464.328-1.464.984,0,.319.124.571.372.756.248.184.592.275,1.032.275s.819-.098,1.14-.294Z" fill="#000" stroke-width="0"/>
    <path d="M332.702,73.642c.476.468.714,1.154.714,2.058v3.66h-1.151v-3.528c0-.615-.148-1.08-.444-1.392-.296-.312-.72-.468-1.271-.468-.625,0-1.116.182-1.477.546-.359.364-.54.886-.54,1.565v3.276h-1.151v-6.36h1.104v.96c.232-.327.546-.579.941-.756.396-.176.847-.264,1.351-.264.808,0,1.45.234,1.926.702Z" fill="#000" stroke-width="0"/>
    <path d="M341.588,70.455v8.904h-1.104v-1.008c-.256.352-.58.62-.972.804-.393.185-.824.276-1.296.276-.617,0-1.169-.136-1.656-.408-.488-.271-.87-.654-1.146-1.146-.275-.491-.414-1.058-.414-1.697s.139-1.204.414-1.692c.276-.488.658-.868,1.146-1.14.487-.272,1.039-.408,1.656-.408.455,0,.875.086,1.26.258.384.172.703.426.96.762v-3.504h1.151ZM339.404,78.142c.328-.188.584-.452.768-.792.185-.34.276-.73.276-1.17s-.092-.83-.276-1.17c-.184-.34-.439-.603-.768-.786-.328-.185-.692-.276-1.092-.276-.408,0-.774.092-1.098.276-.324.184-.58.446-.769.786s-.282.729-.282,1.17.094.83.282,1.17.444.604.769.792c.323.188.689.282,1.098.282.399,0,.764-.095,1.092-.282Z" fill="#000" stroke-width="0"/>
    <path d="M345.764,73.228c.393-.192.868-.288,1.429-.288v1.116c-.064-.008-.152-.013-.265-.013-.623,0-1.113.187-1.47.559s-.534.902-.534,1.59v3.168h-1.151v-6.36h1.104v1.068c.2-.368.496-.648.888-.84Z" fill="#000" stroke-width="0"/>
    <path d="M348.626,71.56c-.147-.145-.222-.32-.222-.528s.074-.386.222-.534c.148-.147.334-.222.558-.222s.41.07.559.21.222.314.222.522c0,.216-.073.397-.222.546-.148.147-.334.222-.559.222s-.409-.072-.558-.216ZM348.608,72.999h1.151v6.36h-1.151v-6.36Z" fill="#000" stroke-width="0"/>
    <path d="M357.68,76.564h-5.16c.072.56.318,1.01.738,1.35.42.341.942.511,1.566.511.76,0,1.372-.257,1.836-.769l.636.744c-.288.336-.646.592-1.074.768-.428.177-.905.265-1.434.265-.672,0-1.269-.139-1.788-.414-.52-.276-.922-.662-1.206-1.158s-.426-1.056-.426-1.68c0-.616.138-1.172.414-1.668s.655-.883,1.14-1.158c.484-.276,1.03-.414,1.639-.414s1.149.138,1.625.414c.477.275.849.662,1.116,1.158.269.496.402,1.063.402,1.704,0,.088-.008.203-.024.348ZM353.174,74.415c-.372.336-.59.776-.654,1.32h4.08c-.063-.536-.281-.974-.653-1.314-.372-.34-.834-.51-1.386-.51s-1.015.168-1.387.504Z" fill="#000" stroke-width="0"/>
    <path d="M361.292,73.228c.392-.192.868-.288,1.428-.288v1.116c-.063-.008-.151-.013-.264-.013-.624,0-1.114.187-1.47.559-.356.372-.534.902-.534,1.59v3.168h-1.152v-6.36h1.104v1.068c.199-.368.496-.648.888-.84Z" fill="#000" stroke-width="0"/>
    <path d="M371.973,71.541c.848.444,1.51,1.066,1.985,1.866s.714,1.712.714,2.736-.188,1.828-.563,2.412-.9.876-1.572.876c-.384,0-.702-.098-.954-.294s-.414-.479-.486-.847c-.239.368-.554.65-.941.847-.389.196-.834.294-1.338.294-.561,0-1.064-.132-1.512-.396-.449-.264-.799-.63-1.051-1.098s-.378-.998-.378-1.59c0-.584.126-1.11.378-1.578s.602-.832,1.051-1.092c.447-.26.951-.391,1.512-.391.464,0,.884.086,1.26.258.376.173.688.427.936.763v-.973h1.045v4.32c0,.296.063.515.191.654s.292.21.492.21c.352,0,.626-.206.822-.618.195-.412.294-.994.294-1.746,0-.888-.2-1.67-.601-2.346s-.962-1.202-1.686-1.578c-.725-.376-1.555-.564-2.49-.564-.944,0-1.778.196-2.502.589-.725.392-1.286.939-1.686,1.644-.4.704-.601,1.508-.601,2.412,0,.912.198,1.72.594,2.424.396.704.952,1.254,1.669,1.65.715.396,1.541.594,2.478.594.392,0,.792-.044,1.2-.132.408-.089.779-.221,1.115-.396l.265.769c-.353.184-.761.323-1.224.42-.465.096-.917.144-1.356.144-1.097,0-2.07-.233-2.922-.702-.853-.468-1.515-1.118-1.986-1.949-.472-.832-.708-1.772-.708-2.82s.238-1.984.714-2.809c.476-.823,1.144-1.468,2.004-1.932s1.843-.696,2.946-.696c1.08,0,2.044.223,2.893.666ZM370.034,78.232c.308-.176.552-.426.731-.75.181-.324.271-.702.271-1.134s-.09-.811-.271-1.135c-.18-.323-.424-.571-.731-.743s-.658-.259-1.05-.259c-.608,0-1.101.194-1.477.582-.376.389-.563.906-.563,1.555s.189,1.168.569,1.56c.381.393.87.588,1.471.588.392,0,.742-.088,1.05-.264Z" fill="#000" stroke-width="0"/>
    <path d="M377.36,79.012c-.505-.28-.898-.666-1.183-1.158-.283-.492-.426-1.05-.426-1.674s.143-1.183.426-1.674c.284-.492.678-.877,1.183-1.152.504-.276,1.071-.414,1.704-.414s1.197.138,1.697.414c.5.275.893.66,1.176,1.152.284.491.427,1.05.427,1.674s-.143,1.182-.427,1.674c-.283.492-.676.878-1.176,1.158-.5.279-1.066.42-1.697.42s-1.2-.141-1.704-.42ZM380.162,78.142c.324-.188.578-.452.762-.792s.276-.73.276-1.17-.093-.83-.276-1.17-.438-.603-.762-.786c-.324-.185-.689-.276-1.098-.276s-.774.092-1.099.276c-.323.184-.58.446-.768.786-.188.34-.282.729-.282,1.17s.094.83.282,1.17c.188.34.444.604.768.792.324.188.69.282,1.099.282s.773-.095,1.098-.282Z" fill="#000" stroke-width="0"/>
    <path d="M385.952,73.228c.392-.192.868-.288,1.428-.288v1.116c-.064-.008-.152-.013-.264-.013-.624,0-1.114.187-1.47.559-.356.372-.535.902-.535,1.59v3.168h-1.151v-6.36h1.104v1.068c.199-.368.495-.648.888-.84Z" fill="#000" stroke-width="0"/>
    <path d="M393.122,73.587c.468.433.702,1.076.702,1.933v3.84h-1.092v-.84c-.192.296-.467.521-.822.678-.356.156-.778.234-1.267.234-.712,0-1.282-.172-1.71-.517-.428-.344-.642-.796-.642-1.355s.204-1.01.612-1.351c.408-.34,1.056-.51,1.943-.51h1.824v-.228c0-.496-.145-.876-.432-1.141-.288-.264-.713-.396-1.272-.396-.376,0-.744.062-1.104.186-.36.124-.665.29-.912.498l-.48-.863c.328-.265.72-.467,1.177-.606.455-.14.939-.21,1.451-.21.88,0,1.555.216,2.022.647ZM391.976,78.249c.32-.195.552-.474.696-.834v-.888h-1.775c-.977,0-1.465.328-1.465.984,0,.319.124.571.372.756.248.184.592.275,1.032.275s.82-.098,1.14-.294Z" fill="#000" stroke-width="0"/>
    <path d="M401.281,73.642c.477.468.715,1.154.715,2.058v3.66h-1.152v-3.528c0-.615-.148-1.08-.444-1.392-.296-.312-.72-.468-1.271-.468-.624,0-1.116.182-1.477.546-.359.364-.54.886-.54,1.565v3.276h-1.151v-6.36h1.104v.96c.232-.327.546-.579.942-.756.396-.176.846-.264,1.35-.264.809,0,1.45.234,1.926.702Z" fill="#000" stroke-width="0"/>
    <path d="M410.252,72.999v5.496c0,1.112-.276,1.935-.828,2.466-.553.532-1.376.799-2.473.799-.6,0-1.172-.082-1.716-.246s-.983-.398-1.319-.702l.552-.888c.296.256.662.457,1.098.605.437.148.886.222,1.351.222.744,0,1.294-.176,1.649-.527.356-.353.534-.889.534-1.608v-.504c-.271.328-.605.574-1.002.738s-.826.246-1.29.246c-.608,0-1.158-.13-1.649-.391-.492-.26-.879-.624-1.158-1.092-.28-.468-.42-1.002-.42-1.602s.14-1.135.42-1.603c.279-.468.666-.83,1.158-1.086.491-.256,1.041-.384,1.649-.384.479,0,.926.088,1.338.264.412.177.75.437,1.015.78v-.984h1.092ZM408.062,77.823c.332-.176.592-.422.78-.738.188-.315.282-.674.282-1.073,0-.616-.204-1.114-.612-1.494s-.932-.57-1.572-.57c-.647,0-1.176.19-1.584.57s-.611.878-.611,1.494c0,.399.094.758.281,1.073.188.316.448.562.78.738s.71.264,1.134.264c.416,0,.79-.088,1.122-.264Z" fill="#000" stroke-width="0"/>
    <path d="M418.172,76.564h-5.16c.072.56.318,1.01.738,1.35.42.341.941.511,1.565.511.76,0,1.372-.257,1.836-.769l.636.744c-.287.336-.646.592-1.074.768-.428.177-.905.265-1.434.265-.672,0-1.268-.139-1.788-.414-.52-.276-.922-.662-1.206-1.158-.283-.496-.426-1.056-.426-1.68,0-.616.139-1.172.414-1.668.276-.496.656-.883,1.141-1.158.483-.276,1.029-.414,1.638-.414s1.149.138,1.626.414c.476.275.848.662,1.115,1.158.269.496.402,1.063.402,1.704,0,.088-.008.203-.023.348ZM413.666,74.415c-.373.336-.591.776-.654,1.32h4.08c-.064-.536-.282-.974-.654-1.314-.372-.34-.834-.51-1.386-.51s-1.015.168-1.386.504Z" fill="#000" stroke-width="0"/>
    <path d="M419.491,79.198c-.16-.156-.239-.354-.239-.594,0-.232.079-.426.239-.582s.353-.234.576-.234.412.076.563.229c.152.151.229.348.229.588s-.078.438-.234.594c-.155.156-.342.234-.558.234-.224,0-.416-.078-.576-.234Z" fill="#000" stroke-width="0"/>
    <path d="M423.812,72.448v.552h1.848v.948h-1.823v5.412h-1.152v-5.412h-1.08v-.948h1.08v-.563c0-.632.184-1.132.552-1.5s.884-.552,1.548-.552c.256,0,.496.031.721.096.224.064.415.156.575.276l-.348.876c-.265-.2-.56-.301-.888-.301-.688,0-1.032.372-1.032,1.116Z" fill="#000" stroke-width="0"/>
    <path d="M429.703,73.228c.392-.192.868-.288,1.428-.288v1.116c-.064-.008-.152-.013-.264-.013-.624,0-1.114.187-1.47.559-.356.372-.534.902-.534,1.59v3.168h-1.152v-6.36h1.104v1.068c.2-.368.495-.648.888-.84Z" fill="#000" stroke-width="0"/>
    <path d="M247.821,88.959v8.4h-1.188v-7.356h-1.896v-1.044h3.084Z" fill="#000" stroke-width="0"/>
    <path d="M259.185,97.36l-1.812-2.58c-.224.017-.4.024-.528.024h-2.076v2.556h-1.2v-8.4h3.275c1.088,0,1.944.261,2.568.78.624.521.936,1.236.936,2.148,0,.647-.16,1.199-.48,1.655-.32.456-.776.788-1.368.996l1.992,2.82h-1.308ZM258.549,93.291c.4-.327.601-.796.601-1.403s-.2-1.074-.601-1.398c-.4-.324-.979-.486-1.74-.486h-2.04v3.78h2.04c.76,0,1.34-.164,1.74-.492Z" fill="#000" stroke-width="0"/>
    <path d="M268.053,90.999v6.36h-1.092v-.96c-.232.328-.538.582-.918.762-.38.181-.794.271-1.242.271-.848,0-1.516-.234-2.004-.702s-.732-1.158-.732-2.07v-3.66h1.152v3.528c0,.616.148,1.082.444,1.398.296.315.72.474,1.271.474.608,0,1.088-.184,1.44-.552.352-.368.527-.889.527-1.561v-3.288h1.152Z" fill="#000" stroke-width="0"/>
    <path d="M275.973,94.564h-5.16c.072.56.318,1.01.738,1.35.42.341.941.511,1.566.511.76,0,1.371-.257,1.836-.769l.636.744c-.288.336-.646.592-1.074.768-.428.177-.906.265-1.434.265-.673,0-1.269-.139-1.788-.414-.521-.276-.922-.662-1.206-1.158s-.427-1.056-.427-1.68c0-.616.139-1.172.414-1.668.276-.496.656-.883,1.141-1.158.484-.276,1.029-.414,1.638-.414s1.15.138,1.626.414c.477.275.848.662,1.116,1.158s.402,1.063.402,1.704c0,.088-.009.203-.024.348ZM271.467,92.415c-.372.336-.59.776-.654,1.32h4.08c-.064-.536-.281-.974-.654-1.314-.371-.34-.834-.51-1.386-.51s-1.014.168-1.386.504Z" fill="#000" stroke-width="0"/>
    <path d="M288.777,97.36l-.013-6.12-3.036,5.101h-.552l-3.036-5.064v6.084h-1.152v-8.4h.984l3.504,5.904,3.456-5.904h.984l.012,8.4h-1.151Z" fill="#000" stroke-width="0"/>
    <path d="M296.618,91.587c.468.433.702,1.076.702,1.933v3.84h-1.092v-.84c-.192.296-.466.521-.822.678-.355.156-.777.234-1.266.234-.712,0-1.282-.172-1.71-.517-.429-.344-.642-.796-.642-1.355s.203-1.01.611-1.351c.408-.34,1.057-.51,1.944-.51h1.823v-.228c0-.496-.144-.876-.432-1.141-.288-.264-.712-.396-1.271-.396-.377,0-.744.062-1.104.186s-.664.29-.912.498l-.479-.863c.328-.265.72-.467,1.176-.606s.939-.21,1.452-.21c.88,0,1.554.216,2.021.647ZM295.473,96.249c.319-.195.552-.474.695-.834v-.888h-1.775c-.977,0-1.464.328-1.464.984,0,.319.124.571.372.756.248.184.592.275,1.031.275s.82-.098,1.141-.294Z" fill="#000" stroke-width="0"/>
    <path d="M305.385,90.999v6.36h-1.092v-.96c-.232.328-.539.582-.918.762-.381.181-.795.271-1.242.271-.849,0-1.517-.234-2.004-.702-.488-.468-.732-1.158-.732-2.07v-3.66h1.152v3.528c0,.616.147,1.082.443,1.398.296.315.721.474,1.272.474.607,0,1.088-.184,1.44-.552.352-.368.527-.889.527-1.561v-3.288h1.152Z" fill="#000" stroke-width="0"/>
    <path d="M309.572,91.228c.392-.192.868-.288,1.428-.288v1.116c-.064-.008-.152-.013-.264-.013-.624,0-1.114.187-1.47.559-.356.372-.534.902-.534,1.59v3.168h-1.152v-6.36h1.104v1.068c.2-.368.495-.648.888-.84Z" fill="#000" stroke-width="0"/>
    <path d="M312.435,89.56c-.148-.145-.223-.32-.223-.528s.074-.386.223-.534c.147-.147.333-.222.558-.222s.41.07.559.21c.147.14.222.314.222.522,0,.216-.074.397-.222.546-.148.147-.335.222-.559.222s-.41-.072-.558-.216ZM312.416,90.999h1.152v6.36h-1.152v-6.36Z" fill="#000" stroke-width="0"/>
    <path d="M316.802,97.012c-.508-.28-.905-.666-1.193-1.158s-.433-1.05-.433-1.674.145-1.183.433-1.674c.288-.492.686-.877,1.193-1.152.509-.276,1.087-.414,1.734-.414.576,0,1.09.116,1.542.348.452.232.802.568,1.05,1.008l-.876.564c-.2-.304-.448-.532-.744-.684-.296-.152-.624-.229-.983-.229-.416,0-.79.092-1.122.276-.332.184-.592.446-.78.786s-.282.729-.282,1.17c0,.448.094.842.282,1.182s.448.603.78.786.706.276,1.122.276c.359,0,.688-.076.983-.229.296-.151.544-.38.744-.684l.876.552c-.248.44-.598.778-1.05,1.014-.452.236-.966.354-1.542.354-.647,0-1.226-.141-1.734-.42Z" fill="#000" stroke-width="0"/>
    <path d="M328.244,94.564h-5.16c.072.56.318,1.01.738,1.35.42.341.941.511,1.566.511.76,0,1.371-.257,1.836-.769l.636.744c-.288.336-.646.592-1.074.768-.428.177-.906.265-1.434.265-.673,0-1.269-.139-1.788-.414-.521-.276-.922-.662-1.206-1.158s-.427-1.056-.427-1.68c0-.616.139-1.172.414-1.668.276-.496.656-.883,1.141-1.158.484-.276,1.029-.414,1.638-.414s1.15.138,1.626.414c.477.275.848.662,1.116,1.158s.402,1.063.402,1.704c0,.088-.009.203-.024.348ZM323.738,92.415c-.372.336-.59.776-.654,1.32h4.08c-.064-.536-.281-.974-.654-1.314-.371-.34-.834-.51-1.386-.51s-1.014.168-1.386.504Z" fill="#000" stroke-width="0"/>
    <path d="M334.124,96.495c-.624-.64-.936-1.56-.936-2.76v-4.776h1.2v4.729c0,1.8.787,2.7,2.363,2.7.769,0,1.356-.223,1.765-.666.407-.444.611-1.122.611-2.034v-4.729h1.164v4.776c0,1.208-.312,2.13-.936,2.766-.624.637-1.496.954-2.616.954s-1.992-.319-2.616-.96Z" fill="#000" stroke-width="0"/>
    <path d="M346.16,96.988c-.168.145-.376.254-.624.33s-.504.114-.769.114c-.64,0-1.136-.172-1.487-.517-.353-.344-.528-.836-.528-1.476v-3.492h-1.08v-.948h1.08v-1.392h1.152v1.392h1.824v.948h-1.824v3.444c0,.344.086.607.258.792.172.184.418.275.738.275.352,0,.651-.1.899-.3l.36.828Z" fill="#000" stroke-width="0"/>
    <path d="M349.544,91.228c.392-.192.868-.288,1.428-.288v1.116c-.063-.008-.151-.013-.264-.013-.624,0-1.114.187-1.47.559-.356.372-.534.902-.534,1.59v3.168h-1.152v-6.36h1.104v1.068c.199-.368.496-.648.888-.84Z" fill="#000" stroke-width="0"/>
    <path d="M352.406,89.56c-.148-.145-.223-.32-.223-.528s.074-.386.223-.534c.147-.147.334-.222.558-.222s.41.07.558.21c.148.14.223.314.223.522,0,.216-.074.397-.223.546-.147.147-.334.222-.558.222s-.41-.072-.558-.216ZM352.388,90.999h1.152v6.36h-1.152v-6.36Z" fill="#000" stroke-width="0"/>
    <path d="M355.736,88.455h1.151v8.904h-1.151v-8.904Z" fill="#000" stroke-width="0"/>
    <path d="M359.084,88.455h1.151v8.904h-1.151v-8.904Z" fill="#000" stroke-width="0"/>
    <path d="M363.451,97.012c-.504-.28-.897-.666-1.182-1.158s-.426-1.05-.426-1.674.142-1.183.426-1.674c.284-.492.678-.877,1.182-1.152.504-.276,1.072-.414,1.704-.414s1.198.138,1.698.414c.5.275.893.66,1.176,1.152.284.491.426,1.05.426,1.674s-.142,1.182-.426,1.674c-.283.492-.676.878-1.176,1.158-.5.279-1.066.42-1.698.42s-1.2-.141-1.704-.42ZM366.254,96.142c.324-.188.578-.452.762-.792s.275-.73.275-1.17-.092-.83-.275-1.17-.438-.603-.762-.786c-.324-.185-.69-.276-1.099-.276s-.773.092-1.098.276c-.324.184-.58.446-.769.786-.188.34-.281.729-.281,1.17s.094.83.281,1.17c.188.34.444.604.769.792.324.188.69.282,1.098.282s.774-.095,1.099-.282Z" fill="#000" stroke-width="0"/>
    <path d="M252.525,113.295h-1.596v2.064h-1.164v-2.064h-4.668v-.84l4.296-5.496h1.296l-4.116,5.305h3.228v-1.824h1.128v1.824h1.596v1.031Z" fill="#000" stroke-width="0"/>
    <path d="M260.553,113.295h-1.596v2.064h-1.164v-2.064h-4.668v-.84l4.296-5.496h1.296l-4.116,5.305h3.229v-1.824h1.128v1.824h1.596v1.031Z" fill="#000" stroke-width="0"/>
    <path d="M267.633,111.747c.256.345.384.756.384,1.236,0,.504-.136.942-.407,1.314-.272.371-.66.657-1.164.857s-1.097.3-1.776.3c-.672,0-1.258-.1-1.758-.3s-.887-.486-1.158-.857c-.272-.372-.408-.811-.408-1.314,0-.48.126-.892.378-1.236.252-.344.618-.607,1.098-.792-.383-.184-.676-.428-.875-.731s-.3-.664-.3-1.08c0-.464.126-.868.379-1.212.252-.344.605-.608,1.062-.792.456-.185.983-.276,1.584-.276.608,0,1.142.092,1.603.276.459.184.815.448,1.067.792s.378.748.378,1.212c0,.408-.102.766-.306,1.074-.204.308-.498.554-.882.737.479.185.848.448,1.104.792ZM266.241,114.07c.384-.276.575-.649.575-1.122,0-.464-.191-.83-.575-1.098-.384-.269-.908-.402-1.572-.402s-1.185.134-1.56.402c-.377.268-.564.634-.564,1.098,0,.473.188.846.564,1.122.375.276.896.414,1.56.414s1.188-.138,1.572-.414ZM263.325,108.201c-.328.244-.492.574-.492.99s.162.744.485.984c.324.239.774.359,1.351.359.584,0,1.042-.12,1.374-.359.332-.24.498-.568.498-.984s-.17-.746-.51-.99c-.341-.244-.795-.366-1.362-.366s-1.017.122-1.344.366Z" fill="#000" stroke-width="0"/>
    <path d="M274.227,110.572c.437.208.778.506,1.026.895.248.388.372.834.372,1.338,0,.527-.13.992-.391,1.392-.26.4-.615.71-1.067.93-.452.221-.958.33-1.519.33-1.127,0-1.998-.363-2.609-1.092-.612-.728-.918-1.76-.918-3.096,0-.937.166-1.734.498-2.395s.796-1.159,1.392-1.5c.596-.34,1.29-.51,2.082-.51.408,0,.792.042,1.152.126s.672.206.936.366l-.456.936c-.4-.264-.936-.396-1.607-.396-.872,0-1.557.27-2.053.81s-.744,1.326-.744,2.358c0,.128.005.228.013.3.24-.36.569-.634.99-.822.42-.188.894-.281,1.422-.281.552,0,1.046.104,1.481.312ZM273.945,114.039c.344-.296.516-.691.516-1.188s-.174-.89-.521-1.183c-.349-.292-.814-.438-1.398-.438-.376,0-.71.072-1.002.216-.292.145-.521.34-.684.588-.164.248-.246.524-.246.828,0,.296.078.566.233.811.156.244.384.439.685.588.3.147.657.222,1.073.222.552,0,1-.148,1.345-.444Z" fill="#000" stroke-width="0"/>
    <path d="M278.187,114.946c-.516-.34-.922-.834-1.218-1.482-.296-.647-.444-1.415-.444-2.304s.148-1.656.444-2.304c.296-.648.702-1.142,1.218-1.482.517-.34,1.106-.51,1.771-.51.655,0,1.242.17,1.758.51.516.341.922.834,1.218,1.482.296.647.444,1.416.444,2.304s-.148,1.656-.444,2.304c-.296.648-.702,1.143-1.218,1.482s-1.103.51-1.758.51c-.664,0-1.254-.17-1.771-.51ZM281.57,113.56c.404-.552.606-1.353.606-2.4s-.202-1.848-.606-2.399c-.403-.553-.941-.828-1.613-.828-.681,0-1.223.275-1.626.828-.404.552-.606,1.352-.606,2.399s.202,1.849.606,2.4c.403.552.945.828,1.626.828.672,0,1.21-.276,1.613-.828Z" fill="#000" stroke-width="0"/>
    <path d="M294.285,107.74c.623.521.936,1.236.936,2.148s-.312,1.628-.936,2.147c-.625.521-1.48.78-2.568.78h-2.076v2.544h-1.2v-8.4h3.276c1.088,0,1.943.261,2.568.78ZM293.421,111.285c.399-.324.6-.79.6-1.397s-.2-1.074-.6-1.398c-.4-.324-.98-.486-1.74-.486h-2.04v3.769h2.04c.76,0,1.34-.162,1.74-.486Z" fill="#000" stroke-width="0"/>
    <path d="M297.812,115.012c-.504-.28-.898-.666-1.182-1.158-.284-.492-.427-1.05-.427-1.674s.143-1.183.427-1.674c.283-.492.678-.877,1.182-1.152.504-.276,1.072-.414,1.704-.414s1.198.138,1.698.414c.5.275.892.66,1.176,1.152.283.491.426,1.05.426,1.674s-.143,1.182-.426,1.674c-.284.492-.676.878-1.176,1.158-.5.279-1.066.42-1.698.42s-1.2-.141-1.704-.42ZM300.614,114.142c.324-.188.578-.452.763-.792.184-.34.275-.73.275-1.17s-.092-.83-.275-1.17c-.185-.34-.438-.603-.763-.786-.323-.185-.689-.276-1.098-.276s-.774.092-1.099.276c-.323.184-.58.446-.768.786s-.282.729-.282,1.17.095.83.282,1.17.444.604.768.792c.324.188.69.282,1.099.282s.774-.095,1.098-.282Z" fill="#000" stroke-width="0"/>
    <path d="M309.734,109.642c.476.468.714,1.154.714,2.058v3.66h-1.151v-3.528c0-.615-.148-1.08-.444-1.392-.296-.312-.72-.468-1.272-.468-.624,0-1.115.182-1.476.546s-.54.886-.54,1.565v3.276h-1.152v-6.36h1.104v.96c.231-.327.546-.579.941-.756.396-.176.847-.264,1.351-.264.808,0,1.449.234,1.926.702Z" fill="#000" stroke-width="0"/>
    <path d="M316.16,114.988c-.168.145-.376.254-.624.33s-.504.114-.768.114c-.64,0-1.136-.172-1.488-.517-.353-.344-.528-.836-.528-1.476v-3.492h-1.08v-.948h1.08v-1.392h1.152v1.392h1.824v.948h-1.824v3.444c0,.344.086.607.258.792.172.184.418.275.738.275.352,0,.652-.1.9-.3l.359.828Z" fill="#000" stroke-width="0"/>
    <path d="M321.566,115.161c-.588-.195-1.051-.45-1.387-.762l.444-.937c.32.288.73.522,1.23.702.499.181,1.014.271,1.542.271.695,0,1.216-.118,1.56-.354.344-.235.517-.55.517-.941,0-.288-.095-.522-.282-.702-.188-.18-.42-.318-.696-.414-.275-.096-.666-.204-1.17-.324-.632-.151-1.143-.304-1.53-.456-.388-.151-.72-.386-.995-.702-.276-.315-.414-.741-.414-1.277,0-.448.117-.853.354-1.212.236-.36.594-.648,1.074-.864.479-.216,1.076-.324,1.788-.324.495,0,.983.064,1.464.192.479.128.892.312,1.236.552l-.396.96c-.353-.224-.729-.394-1.128-.51-.4-.116-.792-.174-1.176-.174-.681,0-1.19.124-1.53.372s-.51.567-.51.96c0,.287.096.521.287.701.192.181.431.32.715.42.283.101.67.206,1.158.318.631.152,1.14.305,1.523.456.384.152.714.384.99.696.275.312.414.731.414,1.26,0,.44-.12.842-.36,1.206-.239.364-.604.652-1.092.864-.488.212-1.088.317-1.8.317-.633,0-1.242-.098-1.83-.294Z" fill="#000" stroke-width="0"/>
    <path d="M332.57,109.587c.468.433.702,1.076.702,1.933v3.84h-1.093v-.84c-.191.296-.466.521-.821.678-.356.156-.778.234-1.267.234-.712,0-1.281-.172-1.71-.517-.428-.344-.642-.796-.642-1.355s.204-1.01.611-1.351c.408-.34,1.057-.51,1.944-.51h1.824v-.228c0-.496-.144-.876-.432-1.141-.288-.264-.712-.396-1.272-.396-.376,0-.744.062-1.104.186-.36.124-.664.29-.912.498l-.48-.863c.328-.265.721-.467,1.176-.606.457-.14.94-.21,1.452-.21.88,0,1.554.216,2.022.647ZM331.424,114.249c.32-.195.553-.474.696-.834v-.888h-1.776c-.976,0-1.464.328-1.464.984,0,.319.124.571.372.756.248.184.592.275,1.032.275s.819-.098,1.14-.294Z" fill="#000" stroke-width="0"/>
    <path d="M335.426,107.56c-.148-.145-.222-.32-.222-.528s.073-.386.222-.534c.148-.147.334-.222.559-.222s.409.07.558.21c.147.14.222.314.222.522,0,.216-.074.397-.222.546-.148.147-.334.222-.558.222s-.41-.072-.559-.216ZM335.408,108.999h1.151v6.36h-1.151v-6.36Z" fill="#000" stroke-width="0"/>
    <path d="M344.078,109.642c.476.468.714,1.154.714,2.058v3.66h-1.152v-3.528c0-.615-.147-1.08-.444-1.392-.296-.312-.72-.468-1.271-.468-.624,0-1.116.182-1.477.546-.359.364-.539.886-.539,1.565v3.276h-1.152v-6.36h1.104v.96c.232-.327.547-.579.942-.756.396-.176.846-.264,1.351-.264.808,0,1.449.234,1.926.702Z" fill="#000" stroke-width="0"/>
    <path d="M350.504,114.988c-.168.145-.376.254-.624.33s-.504.114-.769.114c-.64,0-1.136-.172-1.487-.517-.353-.344-.528-.836-.528-1.476v-3.492h-1.08v-.948h1.08v-1.392h1.152v1.392h1.824v.948h-1.824v3.444c0,.344.086.607.258.792.172.184.418.275.738.275.352,0,.652-.1.9-.3l.359.828Z" fill="#000" stroke-width="0"/>
    <path d="M363.08,115.36l-.013-6.12-3.036,5.101h-.552l-3.036-5.064v6.084h-1.151v-8.4h.983l3.504,5.904,3.457-5.904h.983l.012,8.4h-1.151Z" fill="#000" stroke-width="0"/>
    <path d="M370.922,109.587c.468.433.701,1.076.701,1.933v3.84h-1.092v-.84c-.191.296-.466.521-.822.678-.355.156-.777.234-1.266.234-.712,0-1.282-.172-1.71-.517-.428-.344-.642-.796-.642-1.355s.203-1.01.611-1.351c.408-.34,1.057-.51,1.944-.51h1.824v-.228c0-.496-.145-.876-.433-1.141-.287-.264-.712-.396-1.271-.396-.376,0-.744.062-1.104.186-.36.124-.665.29-.912.498l-.48-.863c.328-.265.72-.467,1.176-.606s.94-.21,1.452-.21c.88,0,1.554.216,2.022.647ZM369.775,114.249c.32-.195.552-.474.696-.834v-.888h-1.776c-.977,0-1.464.328-1.464.984,0,.319.124.571.372.756.248.184.592.275,1.032.275s.819-.098,1.14-.294Z" fill="#000" stroke-width="0"/>
    <path d="M375.752,109.228c.392-.192.867-.288,1.428-.288v1.116c-.064-.008-.152-.013-.264-.013-.625,0-1.115.187-1.471.559s-.534.902-.534,1.59v3.168h-1.151v-6.36h1.104v1.068c.2-.368.496-.648.889-.84Z" fill="#000" stroke-width="0"/>
    <path d="M382.436,114.988c-.168.145-.377.254-.625.33s-.504.114-.768.114c-.64,0-1.136-.172-1.488-.517-.352-.344-.527-.836-.527-1.476v-3.492h-1.08v-.948h1.08v-1.392h1.152v1.392h1.823v.948h-1.823v3.444c0,.344.085.607.258.792.172.184.418.275.737.275.353,0,.652-.1.9-.3l.36.828Z" fill="#000" stroke-width="0"/>
    <path d="M383.846,107.56c-.148-.145-.223-.32-.223-.528s.074-.386.223-.534c.147-.147.333-.222.558-.222s.409.07.558.21.223.314.223.522c0,.216-.074.397-.223.546-.148.147-.334.222-.558.222s-.41-.072-.558-.216ZM383.827,108.999h1.151v6.36h-1.151v-6.36Z" fill="#000" stroke-width="0"/>
    <path d="M392.497,109.642c.476.468.714,1.154.714,2.058v3.66h-1.152v-3.528c0-.615-.147-1.08-.443-1.392-.297-.312-.721-.468-1.272-.468-.624,0-1.116.182-1.476.546-.36.364-.54.886-.54,1.565v3.276h-1.152v-6.36h1.104v.96c.231-.327.546-.579.941-.756.396-.176.846-.264,1.351-.264.808,0,1.45.234,1.926.702Z" fill="#000" stroke-width="0"/>
    <path d="M246.873,132.97c-.528-.34-.944-.836-1.248-1.488s-.456-1.426-.456-2.322.152-1.67.456-2.322c.304-.651.72-1.147,1.248-1.487.528-.34,1.128-.51,1.8-.51s1.274.17,1.806.51.95.836,1.254,1.487c.304.652.456,1.427.456,2.322s-.152,1.67-.456,2.322c-.305.652-.723,1.148-1.254,1.488s-1.134.51-1.806.51-1.271-.17-1.8-.51ZM250.095,131.379c.348-.495.522-1.235.522-2.22s-.174-1.724-.522-2.22-.822-.744-1.422-.744c-.592,0-1.062.248-1.41.744s-.522,1.236-.522,2.22.174,1.725.522,2.22c.348.497.818.744,1.41.744.601,0,1.074-.247,1.422-.744Z" fill="#000" stroke-width="0"/>
    <path d="M259.27,132.039v1.32h-6.192v-1.044l3.336-3.168c.376-.36.63-.674.762-.942.132-.268.198-.534.198-.798,0-.392-.132-.691-.396-.899-.265-.208-.652-.312-1.164-.312-.856,0-1.512.292-1.968.876l-1.092-.84c.328-.44.771-.782,1.326-1.026.556-.243,1.178-.365,1.866-.365.912,0,1.64.216,2.184.647s.816,1.021.816,1.764c0,.456-.096.885-.288,1.284-.192.4-.56.856-1.104,1.368l-2.244,2.136h3.96Z" fill="#000" stroke-width="0"/>
    <path d="M270.969,131.451h-1.488v1.908h-1.512v-1.908h-4.608v-1.08l4.141-5.412h1.668l-3.9,5.173h2.748v-1.692h1.464v1.692h1.488v1.319Z" fill="#000" stroke-width="0"/>
    <path d="M273.332,132.97c-.527-.34-.943-.836-1.248-1.488-.304-.652-.455-1.426-.455-2.322s.151-1.67.455-2.322c.305-.651.721-1.147,1.248-1.487.528-.34,1.129-.51,1.801-.51s1.273.17,1.806.51.95.836,1.254,1.487c.304.652.456,1.427.456,2.322s-.152,1.67-.456,2.322-.722,1.148-1.254,1.488-1.134.51-1.806.51-1.272-.17-1.801-.51ZM276.555,131.379c.348-.495.521-1.235.521-2.22s-.174-1.724-.521-2.22-.822-.744-1.422-.744c-.592,0-1.062.248-1.41.744s-.521,1.236-.521,2.22.174,1.725.521,2.22c.348.497.818.744,1.41.744.6,0,1.074-.247,1.422-.744Z" fill="#000" stroke-width="0"/>
    <path d="M289.101,132.039v1.32h-6.192v-1.044l3.336-3.168c.376-.36.63-.674.762-.942.133-.268.198-.534.198-.798,0-.392-.132-.691-.396-.899-.265-.208-.652-.312-1.164-.312-.856,0-1.512.292-1.969.876l-1.092-.84c.328-.44.771-.782,1.326-1.026.557-.243,1.178-.365,1.866-.365.912,0,1.64.216,2.184.647s.816,1.021.816,1.764c0,.456-.097.885-.288,1.284-.191.4-.561.856-1.104,1.368l-2.244,2.136h3.96Z" fill="#000" stroke-width="0"/>
    <path d="M295.269,128.493c.439.212.784.515,1.032.906.247.392.371.844.371,1.356,0,.544-.136,1.021-.408,1.434-.271.412-.64.73-1.104.954s-.984.336-1.56.336c-1.152,0-2.046-.36-2.683-1.08-.636-.72-.953-1.752-.953-3.096,0-.944.172-1.75.516-2.418s.826-1.177,1.445-1.524c.62-.348,1.338-.521,2.154-.521.432,0,.838.046,1.219.138.379.092.709.226.989.401l-.576,1.177c-.416-.272-.948-.408-1.596-.408-.808,0-1.44.248-1.896.744-.457.496-.685,1.212-.685,2.147v.013c.248-.288.564-.506.948-.654s.816-.222,1.296-.222c.552,0,1.048.105,1.488.317ZM294.704,131.865c.304-.26.456-.605.456-1.038,0-.439-.152-.788-.456-1.044s-.712-.384-1.224-.384c-.504,0-.914.136-1.23.408-.316.271-.474.616-.474,1.032,0,.407.153.745.462,1.014.308.268.734.402,1.278.402.487,0,.884-.131,1.188-.391Z" fill="#000" stroke-width="0"/>
    <path d="M307.262,129.753c.236.341.354.738.354,1.194,0,.512-.143.96-.427,1.344-.283.385-.686.679-1.205.883-.521.203-1.125.306-1.812.306s-1.29-.103-1.806-.306c-.517-.204-.914-.498-1.194-.883-.28-.384-.42-.832-.42-1.344,0-.456.116-.854.348-1.194.232-.34.564-.609.996-.81-.336-.184-.594-.426-.773-.726-.18-.301-.271-.646-.271-1.038,0-.473.13-.884.39-1.236.261-.352.627-.624,1.099-.816.472-.191,1.016-.287,1.632-.287.624,0,1.172.096,1.645.287.472.192.84.465,1.104.816.264.353.396.764.396,1.236,0,.392-.093.735-.276,1.031-.185.297-.448.54-.792.732.439.2.777.47,1.014.81ZM305.54,131.896c.336-.24.504-.572.504-.996,0-.416-.168-.744-.504-.984-.336-.239-.792-.359-1.368-.359s-1.028.12-1.355.359c-.328.24-.492.568-.492.984,0,.424.164.756.492.996.327.24.779.36,1.355.36s1.032-.12,1.368-.36ZM303.014,126.375c-.283.209-.426.5-.426.876,0,.36.143.646.426.858.284.212.67.318,1.158.318.496,0,.889-.106,1.176-.318.288-.212.433-.498.433-.858,0-.376-.146-.667-.438-.876-.292-.208-.682-.312-1.17-.312s-.874.104-1.158.312Z" fill="#000" stroke-width="0"/>
    <path d="M310.328,132.97c-.528-.34-.944-.836-1.248-1.488-.305-.652-.456-1.426-.456-2.322s.151-1.67.456-2.322c.304-.651.72-1.147,1.248-1.487.527-.34,1.128-.51,1.8-.51s1.274.17,1.806.51c.532.34.95.836,1.254,1.487.305.652.457,1.427.457,2.322s-.152,1.67-.457,2.322c-.304.652-.722,1.148-1.254,1.488-.531.34-1.134.51-1.806.51s-1.272-.17-1.8-.51ZM313.55,131.379c.349-.495.522-1.235.522-2.22s-.174-1.724-.522-2.22c-.348-.496-.821-.744-1.422-.744-.592,0-1.062.248-1.41.744-.348.496-.521,1.236-.521,2.22s.174,1.725.521,2.22c.349.497.818.744,1.41.744.601,0,1.074-.247,1.422-.744Z" fill="#000" stroke-width="0"/>
    <path d="M322.916,124.959v8.4h-1.561v-7.092h-1.775v-1.309h3.336Z" fill="#000" stroke-width="0"/>
    <path d="M330.92,124.959v1.044l-3.264,7.356h-1.669l3.156-7.08h-3.3v1.428h-1.452v-2.748h6.528Z" fill="#000" stroke-width="0"/>
  </g>
  <rect x="233.478" width="2" height="150" fill="#272824" stroke-width="0"/>
  <g>
    <path d="M16.476,66.838h4.258v14.931h9.227v3.47h-13.485v-18.4Z" fill="#000" stroke-width="0"/>
    <path d="M45.732,79.324h-10.698c.192.876.648,1.568,1.367,2.076.718.509,1.612.763,2.681.763.736,0,1.389-.109,1.958-.329.569-.219,1.1-.564,1.59-1.038l2.182,2.366c-1.332,1.524-3.277,2.286-5.835,2.286-1.595,0-3.006-.311-4.232-.933s-2.173-1.485-2.839-2.59c-.666-1.104-.999-2.356-.999-3.759,0-1.384.329-2.633.985-3.745.657-1.113,1.56-1.98,2.708-2.603s2.432-.934,3.851-.934c1.384,0,2.637.299,3.759.894,1.122.597,2.002,1.451,2.642,2.563.639,1.113.959,2.405.959,3.877,0,.053-.026.421-.079,1.104ZM36.138,74.776c-.631.525-1.017,1.244-1.157,2.155h6.966c-.141-.894-.526-1.607-1.157-2.143-.631-.534-1.402-.802-2.313-.802-.929,0-1.708.264-2.339.789Z" fill="#000" stroke-width="0"/>
    <path d="M68.483,67.652c1.2.544,2.125,1.314,2.773,2.313.648.999.973,2.182.973,3.549,0,1.35-.325,2.528-.973,3.535-.648,1.008-1.573,1.779-2.773,2.313-1.2.535-2.615.802-4.245.802h-3.707v5.073h-4.258v-18.4h7.965c1.63,0,3.045.271,4.245.814ZM66.919,75.867c.666-.552.999-1.336.999-2.353,0-1.034-.333-1.827-.999-2.379s-1.639-.828-2.918-.828h-3.47v6.388h3.47c1.279,0,2.252-.276,2.918-.828Z" fill="#000" stroke-width="0"/>
    <path d="M80.864,71.412c.832-.351,1.792-.526,2.878-.526v3.785c-.456-.034-.763-.053-.92-.053-1.174,0-2.094.329-2.76.986-.666.657-.999,1.643-.999,2.957v6.677h-4.101v-14.142h3.917v1.866c.491-.684,1.152-1.2,1.985-1.551Z" fill="#000" stroke-width="0"/>
    <path d="M96.859,72.45c1.174,1.043,1.761,2.615,1.761,4.718v8.07h-3.838v-1.761c-.771,1.313-2.208,1.971-4.311,1.971-1.087,0-2.029-.184-2.826-.552s-1.406-.876-1.827-1.524-.631-1.384-.631-2.208c0-1.314.495-2.349,1.485-3.102.99-.754,2.519-1.131,4.587-1.131h3.259c0-.894-.272-1.581-.815-2.063-.543-.481-1.358-.723-2.444-.723-.754,0-1.495.118-2.221.354-.728.237-1.345.557-1.854.96l-1.472-2.865c.771-.543,1.695-.964,2.773-1.262s2.186-.447,3.325-.447c2.19,0,3.873.521,5.047,1.564ZM93.363,82.202c.543-.324.929-.802,1.157-1.433v-1.445h-2.812c-1.683,0-2.523.552-2.523,1.655,0,.526.206.942.618,1.249.412.307.977.46,1.695.46.701,0,1.323-.162,1.866-.486Z" fill="#000" stroke-width="0"/>
    <path d="M102.326,65.734h4.101v19.504h-4.101v-19.504Z" fill="#000" stroke-width="0"/>
    <path d="M110.449,68.468c-.473-.438-.71-.981-.71-1.63s.237-1.191.71-1.63c.473-.438,1.086-.657,1.84-.657s1.367.211,1.84.631c.473.421.709.946.709,1.577,0,.684-.236,1.249-.709,1.695-.473.447-1.087.671-1.84.671s-1.367-.219-1.84-.657ZM110.238,71.096h4.101v14.142h-4.101v-14.142Z" fill="#000" stroke-width="0"/>
    <path d="M130.991,72.463c1.078,1.052,1.617,2.611,1.617,4.68v8.096h-4.101v-7.465c0-1.122-.246-1.959-.736-2.511s-1.2-.828-2.129-.828c-1.034,0-1.858.32-2.471.96s-.92,1.59-.92,2.852v6.992h-4.101v-14.142h3.917v1.655c.543-.595,1.218-1.056,2.024-1.38.806-.324,1.691-.486,2.655-.486,1.752,0,3.167.526,4.245,1.577Z" fill="#000" stroke-width="0"/>
    <path d="M139.6,66.219c.473.465.709,1.074.709,1.827,0,.351-.044.701-.131,1.052-.088.351-.272.876-.552,1.577l-1.525,3.785h-2.602l1.13-4.153c-.438-.192-.78-.481-1.025-.867-.246-.386-.368-.85-.368-1.394,0-.753.241-1.362.723-1.827.481-.464,1.091-.696,1.827-.696s1.341.232,1.814.696Z" fill="#000" stroke-width="0"/>
    <path d="M155.937,72.463c1.078,1.052,1.617,2.611,1.617,4.68v8.096h-4.101v-7.465c0-1.122-.246-1.959-.736-2.511s-1.2-.828-2.129-.828c-1.034,0-1.858.32-2.471.96s-.92,1.59-.92,2.852v6.992h-4.101v-14.142h3.917v1.655c.543-.595,1.218-1.056,2.024-1.38.806-.324,1.691-.486,2.655-.486,1.752,0,3.167.526,4.245,1.577Z" fill="#000" stroke-width="0"/>
    <path d="M164.138,84.515c-1.183-.622-2.107-1.485-2.773-2.59-.666-1.104-.999-2.356-.999-3.759s.333-2.654.999-3.759c.666-1.104,1.59-1.967,2.773-2.589,1.183-.622,2.519-.934,4.009-.934s2.821.312,3.995.934,2.094,1.485,2.76,2.589c.666,1.104.999,2.357.999,3.759s-.333,2.655-.999,3.759c-.666,1.104-1.586,1.968-2.76,2.59s-2.506.933-3.995.933-2.826-.311-4.009-.933ZM170.735,81.019c.674-.71,1.012-1.66,1.012-2.853s-.338-2.142-1.012-2.852c-.675-.71-1.538-1.064-2.589-1.064s-1.919.354-2.603,1.064-1.025,1.66-1.025,2.852.342,2.143,1.025,2.853,1.551,1.064,2.603,1.064,1.914-.354,2.589-1.064Z" fill="#000" stroke-width="0"/>
    <path d="M178.845,68.468c-.473-.438-.71-.981-.71-1.63s.237-1.191.71-1.63c.473-.438,1.086-.657,1.84-.657s1.367.211,1.84.631c.473.421.709.946.709,1.577,0,.684-.236,1.249-.709,1.695-.473.447-1.087.671-1.84.671s-1.367-.219-1.84-.657ZM178.634,71.096h4.101v14.142h-4.101v-14.142Z" fill="#000" stroke-width="0"/>
    <path d="M195.536,85.238l-3.102-4.337-3.207,4.337h-4.469l5.441-7.124-5.257-7.018h4.6l2.997,4.127,3.076-4.127h4.363l-5.257,6.913,5.468,7.229h-4.653Z" fill="#000" stroke-width="0"/>
  </g>
  <rect y="0" width="522" height="150" fill="none" stroke-width="0"/>
</svg>