<?xml version="1.0" encoding="UTF-8"?>
<svg id="Calque_1" data-name="Calque 1" xmlns="http://www.w3.org/2000/svg" viewBox="0 0 522 150">
  <defs>
    <style>
      .cls-1 {
        fill: #272824;
      }

      .cls-1, .cls-2 {
        stroke-width: 0px;
      }

      .cls-2 {
        fill: #1d1d1b;
      }
    </style>
  </defs>
  <g>
    <g>
      <path class="cls-2" d="M253.01,21.15c.32.42.48.93.48,1.55,0,.85-.33,1.5-.98,1.97s-1.61.69-2.86.69h-4.87v-9.8h4.59c1.16,0,2.05.23,2.67.68.62.45.94,1.08.94,1.87,0,.49-.11.92-.34,1.29s-.53.66-.92.87c.54.18.97.47,1.29.89ZM246.6,16.99v2.7h2.58c.63,0,1.12-.11,1.46-.34s.51-.56.51-1-.17-.79-.51-1.02c-.34-.23-.83-.34-1.46-.34h-2.58ZM251.66,22.52c0-.94-.7-1.41-2.11-1.41h-2.94v2.83h2.94c1.41,0,2.11-.47,2.11-1.41Z"/>
      <path class="cls-2" d="M256.58,24.97c-.61-.33-1.08-.78-1.42-1.37-.34-.58-.51-1.24-.51-1.98s.17-1.39.51-1.97c.34-.58.81-1.03,1.42-1.36.61-.33,1.29-.49,2.04-.49s1.45.16,2.06.49c.61.33,1.08.78,1.42,1.36s.51,1.24.51,1.97-.17,1.4-.51,1.98-.81,1.04-1.42,1.37c-.61.33-1.29.49-2.06.49s-1.44-.16-2.04-.49ZM260.22,23.32c.42-.43.63-.99.63-1.69s-.21-1.26-.63-1.69c-.42-.43-.95-.64-1.6-.64s-1.17.21-1.59.64c-.42.43-.62.99-.62,1.69s.21,1.26.62,1.69.94.64,1.59.64,1.18-.21,1.6-.64Z"/>
      <path class="cls-2" d="M271.53,17.88v7.48h-1.67v-.95c-.28.34-.63.59-1.05.78-.42.18-.87.27-1.36.27-1,0-1.78-.28-2.36-.83-.57-.55-.86-1.38-.86-2.47v-4.27h1.75v4.03c0,.67.15,1.17.46,1.5.3.33.74.5,1.29.5.63,0,1.12-.19,1.49-.58.37-.39.55-.94.55-1.67v-3.78h1.75Z"/>
      <path class="cls-2" d="M273.83,14.97h1.75v10.39h-1.75v-10.39Z"/>
      <path class="cls-2" d="M283.26,18.59c.58.53.88,1.32.88,2.39v4.38h-1.65v-.91c-.21.33-.52.58-.92.75-.4.17-.88.26-1.44.26s-1.05-.1-1.47-.29c-.42-.19-.74-.46-.97-.8-.23-.34-.34-.73-.34-1.15,0-.67.25-1.21.75-1.62s1.29-.61,2.36-.61h1.93v-.11c0-.52-.16-.92-.47-1.2-.31-.28-.78-.42-1.39-.42-.42,0-.83.06-1.24.2s-.75.31-1.03.55l-.69-1.27c.39-.3.86-.53,1.41-.69.55-.16,1.13-.24,1.75-.24,1.1,0,1.94.26,2.53.79ZM281.66,23.88c.34-.2.58-.49.72-.86v-.87h-1.81c-1.01,0-1.51.33-1.51.99,0,.32.13.57.38.76s.6.28,1.05.28.83-.1,1.17-.3Z"/>
      <path class="cls-2" d="M292.88,18.63c.57.55.85,1.37.85,2.45v4.28h-1.75v-4.06c0-.65-.15-1.15-.46-1.48-.31-.33-.75-.5-1.32-.5-.64,0-1.15.19-1.53.58-.37.39-.56.95-.56,1.67v3.78h-1.75v-7.48h1.67v.97c.29-.35.65-.61,1.09-.78.44-.18.93-.27,1.48-.27.94,0,1.7.28,2.27.83Z"/>
      <path class="cls-2" d="M303.45,17.88v6.34c0,2.63-1.34,3.95-4.03,3.95-.72,0-1.4-.09-2.04-.27s-1.18-.45-1.6-.79l.78-1.32c.33.27.74.49,1.24.65.5.16,1.01.25,1.52.25.82,0,1.42-.19,1.81-.56.38-.37.57-.94.57-1.71v-.39c-.3.33-.66.57-1.09.74-.43.17-.9.25-1.41.25-.71,0-1.35-.15-1.93-.46-.57-.3-1.03-.73-1.36-1.28-.33-.55-.5-1.18-.5-1.89s.17-1.34.5-1.88c.33-.55.78-.97,1.36-1.27.57-.3,1.22-.45,1.93-.45.54,0,1.03.09,1.48.27.44.18.81.45,1.11.81v-.99h1.67ZM301.1,22.94c.42-.4.64-.91.64-1.55s-.21-1.13-.64-1.53c-.42-.39-.97-.59-1.63-.59s-1.22.2-1.64.59c-.42.39-.64.9-.64,1.53s.21,1.15.64,1.55c.42.4.97.59,1.64.59s1.21-.2,1.63-.59Z"/>
      <path class="cls-2" d="M312.75,22.18h-5.87c.1.55.37.99.8,1.31.43.32.97.48,1.62.48.82,0,1.5-.27,2.03-.81l.94,1.08c-.34.4-.76.71-1.27.91-.51.21-1.09.31-1.74.31-.82,0-1.54-.16-2.17-.49-.62-.33-1.11-.78-1.45-1.37s-.51-1.24-.51-1.98.17-1.38.5-1.97c.33-.58.79-1.04,1.38-1.37.59-.33,1.25-.49,1.99-.49s1.38.16,1.95.48c.57.32,1.02.78,1.34,1.36.32.58.48,1.26.48,2.02,0,.12,0,.29-.03.52ZM307.58,19.7c-.39.33-.62.77-.71,1.32h4.24c-.07-.54-.3-.98-.69-1.32s-.86-.5-1.43-.5-1.03.17-1.42.5Z"/>
      <path class="cls-2" d="M318.78,17.8v1.67c-.15-.03-.29-.04-.41-.04-.68,0-1.21.2-1.6.59-.38.4-.57.97-.57,1.71v3.63h-1.75v-7.48h1.67v1.09c.5-.78,1.39-1.18,2.66-1.18Z"/>
      <path class="cls-2" d="M320.35,16.35c-.21-.2-.32-.45-.32-.75s.11-.55.32-.75c.21-.2.48-.3.8-.3s.58.1.8.29c.21.19.32.43.32.72,0,.31-.1.57-.31.78s-.48.32-.81.32-.58-.1-.8-.3ZM320.27,17.88h1.75v7.48h-1.75v-7.48Z"/>
      <path class="cls-2" d="M331.31,22.18h-5.87c.1.55.37.99.81,1.31.43.32.97.48,1.62.48.82,0,1.5-.27,2.03-.81l.94,1.08c-.34.4-.76.71-1.27.91-.51.21-1.09.31-1.74.31-.82,0-1.54-.16-2.17-.49-.63-.33-1.11-.78-1.45-1.37-.34-.58-.51-1.24-.51-1.98s.17-1.38.5-1.97c.33-.58.79-1.04,1.38-1.37.59-.33,1.25-.49,1.99-.49s1.38.16,1.95.48,1.02.78,1.34,1.36.48,1.26.48,2.02c0,.12,0,.29-.03.52ZM326.14,19.7c-.39.33-.62.77-.71,1.32h4.24c-.07-.54-.3-.98-.69-1.32-.38-.34-.86-.5-1.43-.5s-1.03.17-1.42.5Z"/>
      <path class="cls-2" d="M336.51,20.74h3.85v1.46h-3.85v-1.46Z"/>
      <path class="cls-2" d="M353.55,16.96l-3.68,8.4h-1.19l-3.7-8.4h1.3l3.02,6.9,3.05-6.9h1.2Z"/>
      <path class="cls-2" d="M354.99,25.01c-.5-.28-.9-.67-1.18-1.16-.28-.49-.43-1.05-.43-1.67s.14-1.18.43-1.67c.28-.49.68-.88,1.18-1.15.5-.28,1.07-.41,1.7-.41s1.2.14,1.7.41c.5.28.89.66,1.18,1.15.28.49.43,1.05.43,1.67s-.14,1.18-.43,1.67-.68.88-1.18,1.16c-.5.28-1.07.42-1.7.42s-1.2-.14-1.7-.42ZM357.79,24.14c.32-.19.58-.45.76-.79.18-.34.28-.73.28-1.17s-.09-.83-.28-1.17c-.18-.34-.44-.6-.76-.79-.32-.18-.69-.28-1.1-.28s-.77.09-1.1.28c-.32.18-.58.45-.77.79-.19.34-.28.73-.28,1.17s.09.83.28,1.17c.19.34.44.6.77.79.32.19.69.28,1.1.28s.77-.09,1.1-.28Z"/>
      <path class="cls-2" d="M365.16,24.99c-.17.14-.38.25-.62.33s-.5.11-.77.11c-.64,0-1.14-.17-1.49-.52-.35-.34-.53-.84-.53-1.48v-3.49h-1.08v-.95h1.08v-1.39h1.15v1.39h1.82v.95h-1.82v3.44c0,.34.09.61.26.79.17.18.42.28.74.28.35,0,.65-.1.9-.3l.36.83Z"/>
      <path class="cls-2" d="M368.55,19.23c.39-.19.87-.29,1.43-.29v1.12c-.06,0-.15-.01-.26-.01-.62,0-1.11.19-1.47.56-.36.37-.53.9-.53,1.59v3.17h-1.15v-6.36h1.1v1.07c.2-.37.5-.65.89-.84Z"/>
      <path class="cls-2" d="M377.06,22.56h-5.16c.07.56.32,1.01.74,1.35.42.34.94.51,1.57.51.76,0,1.37-.26,1.84-.77l.64.74c-.29.34-.65.59-1.07.77-.43.18-.91.26-1.43.26-.67,0-1.27-.14-1.79-.41-.52-.28-.92-.66-1.21-1.16-.28-.5-.43-1.06-.43-1.68s.14-1.17.41-1.67.66-.88,1.14-1.16c.48-.28,1.03-.41,1.64-.41s1.15.14,1.63.41c.48.28.85.66,1.12,1.16s.4,1.06.4,1.7c0,.09,0,.2-.02.35ZM372.55,20.42c-.37.34-.59.78-.65,1.32h4.08c-.06-.54-.28-.97-.65-1.31-.37-.34-.83-.51-1.39-.51s-1.01.17-1.39.5Z"/>
      <path class="cls-2" d="M386.24,19.59c.47.43.7,1.08.7,1.93v3.84h-1.09v-.84c-.19.3-.47.52-.82.68s-.78.23-1.27.23c-.71,0-1.28-.17-1.71-.52-.43-.34-.64-.8-.64-1.36s.2-1.01.61-1.35c.41-.34,1.06-.51,1.94-.51h1.82v-.23c0-.5-.14-.88-.43-1.14-.29-.26-.71-.4-1.27-.4-.38,0-.74.06-1.1.19s-.66.29-.91.5l-.48-.86c.33-.26.72-.47,1.18-.61s.94-.21,1.45-.21c.88,0,1.55.22,2.02.65ZM385.1,24.25c.32-.2.55-.47.7-.83v-.89h-1.78c-.98,0-1.46.33-1.46.98,0,.32.12.57.37.76.25.18.59.28,1.03.28s.82-.1,1.14-.29Z"/>
      <path class="cls-2" d="M391.07,19.23c.39-.19.87-.29,1.43-.29v1.12c-.06,0-.15-.01-.26-.01-.62,0-1.11.19-1.47.56-.36.37-.53.9-.53,1.59v3.17h-1.15v-6.36h1.1v1.07c.2-.37.5-.65.89-.84Z"/>
      <path class="cls-2" d="M397.75,24.99c-.17.14-.38.25-.62.33s-.5.11-.77.11c-.64,0-1.14-.17-1.49-.52-.35-.34-.53-.84-.53-1.48v-3.49h-1.08v-.95h1.08v-1.39h1.15v1.39h1.82v.95h-1.82v3.44c0,.34.09.61.26.79.17.18.42.28.74.28.35,0,.65-.1.9-.3l.36.83Z"/>
      <path class="cls-2" d="M399.16,17.56c-.15-.14-.22-.32-.22-.53s.07-.39.22-.53c.15-.15.33-.22.56-.22s.41.07.56.21c.15.14.22.31.22.52s-.07.4-.22.55c-.15.15-.33.22-.56.22s-.41-.07-.56-.22ZM399.15,19h1.15v6.36h-1.15v-6.36Z"/>
      <path class="cls-2" d="M402.82,25.22c-.48-.14-.86-.32-1.13-.53l.48-.91c.28.2.62.36,1.02.48.4.12.8.18,1.21.18,1.01,0,1.51-.29,1.51-.86,0-.19-.07-.34-.2-.46-.14-.11-.31-.19-.51-.25-.2-.05-.49-.11-.87-.17-.51-.08-.93-.17-1.25-.28-.32-.1-.6-.28-.83-.53-.23-.25-.35-.6-.35-1.04,0-.58.24-1.04.72-1.39.48-.35,1.12-.52,1.93-.52.42,0,.85.05,1.27.16.42.1.77.24,1.04.42l-.49.91c-.52-.34-1.13-.5-1.84-.5-.49,0-.86.08-1.12.24-.26.16-.38.37-.38.64,0,.21.07.37.22.49.14.12.32.21.53.26.21.06.51.12.89.19.51.09.93.18,1.24.28.32.1.59.27.81.51.22.24.34.58.34,1.01,0,.58-.25,1.03-.74,1.37-.49.34-1.16.51-2.01.51-.52,0-1.02-.07-1.5-.21Z"/>
      <path class="cls-2" d="M412.84,19.59c.47.43.7,1.08.7,1.93v3.84h-1.09v-.84c-.19.3-.47.52-.82.68-.36.16-.78.23-1.27.23-.71,0-1.28-.17-1.71-.52-.43-.34-.64-.8-.64-1.36s.2-1.01.61-1.35c.41-.34,1.06-.51,1.94-.51h1.82v-.23c0-.5-.14-.88-.43-1.14-.29-.26-.71-.4-1.27-.4-.38,0-.74.06-1.1.19-.36.12-.66.29-.91.5l-.48-.86c.33-.26.72-.47,1.18-.61s.94-.21,1.45-.21c.88,0,1.55.22,2.02.65ZM411.7,24.25c.32-.2.55-.47.7-.83v-.89h-1.78c-.98,0-1.46.33-1.46.98,0,.32.12.57.37.76.25.18.59.28,1.03.28s.82-.1,1.14-.29Z"/>
      <path class="cls-2" d="M421,19.64c.48.47.71,1.15.71,2.06v3.66h-1.15v-3.53c0-.62-.15-1.08-.44-1.39-.3-.31-.72-.47-1.27-.47-.62,0-1.12.18-1.48.55-.36.36-.54.89-.54,1.57v3.28h-1.15v-6.36h1.1v.96c.23-.33.55-.58.94-.76.4-.18.85-.26,1.35-.26.81,0,1.45.23,1.93.7Z"/>
      <path class="cls-2" d="M432.11,19.35c.49.27.87.65,1.15,1.14.28.49.41,1.05.41,1.69s-.14,1.21-.41,1.7c-.28.49-.66.88-1.15,1.15-.49.27-1.04.41-1.66.41-.47,0-.9-.09-1.3-.28-.39-.18-.72-.45-.97-.8v1.01h-1.1v-8.9h1.15v3.5c.26-.34.58-.59.96-.76.38-.17.8-.26,1.26-.26.62,0,1.17.14,1.66.41ZM431.46,24.14c.32-.19.58-.45.77-.79.19-.34.28-.73.28-1.17s-.09-.83-.28-1.17c-.19-.34-.44-.6-.77-.79-.32-.18-.69-.28-1.1-.28s-.76.09-1.09.28c-.33.18-.58.45-.77.79-.18.34-.28.73-.28,1.17s.09.83.28,1.17c.18.34.44.6.77.79.33.19.69.28,1.09.28s.77-.09,1.1-.28Z"/>
      <path class="cls-2" d="M436.29,25.01c-.5-.28-.9-.67-1.18-1.16-.28-.49-.43-1.05-.43-1.67s.14-1.18.43-1.67c.28-.49.68-.88,1.18-1.15.5-.28,1.07-.41,1.7-.41s1.2.14,1.7.41c.5.28.89.66,1.18,1.15.28.49.43,1.05.43,1.67s-.14,1.18-.43,1.67-.68.88-1.18,1.16c-.5.28-1.07.42-1.7.42s-1.2-.14-1.7-.42ZM439.09,24.14c.32-.19.58-.45.76-.79.18-.34.28-.73.28-1.17s-.09-.83-.28-1.17c-.18-.34-.44-.6-.76-.79-.32-.18-.69-.28-1.1-.28s-.77.09-1.1.28c-.32.18-.58.45-.77.79-.19.34-.28.73-.28,1.17s.09.83.28,1.17c.19.34.44.6.77.79.32.19.69.28,1.1.28s.77-.09,1.1-.28Z"/>
      <path class="cls-2" d="M448.81,19v6.36h-1.09v-.96c-.23.33-.54.58-.92.76-.38.18-.79.27-1.24.27-.85,0-1.52-.23-2-.7-.49-.47-.73-1.16-.73-2.07v-3.66h1.15v3.53c0,.62.15,1.08.44,1.4.3.32.72.47,1.27.47.61,0,1.09-.18,1.44-.55s.53-.89.53-1.56v-3.29h1.15Z"/>
      <path class="cls-2" d="M451.01,16.46h1.15v8.9h-1.15v-8.9Z"/>
      <path class="cls-2" d="M458.7,19.59c.47.43.7,1.08.7,1.93v3.84h-1.09v-.84c-.19.3-.47.52-.82.68-.36.16-.78.23-1.27.23-.71,0-1.28-.17-1.71-.52-.43-.34-.64-.8-.64-1.36s.2-1.01.61-1.35c.41-.34,1.06-.51,1.94-.51h1.82v-.23c0-.5-.14-.88-.43-1.14-.29-.26-.71-.4-1.27-.4-.38,0-.74.06-1.1.19-.36.12-.66.29-.91.5l-.48-.86c.33-.26.72-.47,1.18-.61s.94-.21,1.45-.21c.88,0,1.55.22,2.02.65ZM457.55,24.25c.32-.2.55-.47.7-.83v-.89h-1.78c-.98,0-1.46.33-1.46.98,0,.32.12.57.37.76.25.18.59.28,1.03.28s.82-.1,1.14-.29Z"/>
      <path class="cls-2" d="M466.86,19.64c.48.47.71,1.15.71,2.06v3.66h-1.15v-3.53c0-.62-.15-1.08-.44-1.39-.3-.31-.72-.47-1.27-.47-.62,0-1.12.18-1.48.55-.36.36-.54.89-.54,1.57v3.28h-1.15v-6.36h1.1v.96c.23-.33.55-.58.94-.76.4-.18.85-.26,1.35-.26.81,0,1.45.23,1.93.7Z"/>
      <path class="cls-2" d="M475.83,19v5.5c0,1.11-.28,1.93-.83,2.47-.55.53-1.38.8-2.47.8-.6,0-1.17-.08-1.72-.25s-.98-.4-1.32-.7l.55-.89c.3.26.66.46,1.1.61.44.15.89.22,1.35.22.74,0,1.29-.18,1.65-.53.36-.35.53-.89.53-1.61v-.5c-.27.33-.61.57-1,.74s-.83.25-1.29.25c-.61,0-1.16-.13-1.65-.39-.49-.26-.88-.62-1.16-1.09s-.42-1-.42-1.6.14-1.13.42-1.6.67-.83,1.16-1.09,1.04-.38,1.65-.38c.48,0,.93.09,1.34.26.41.18.75.44,1.01.78v-.98h1.09ZM473.64,23.82c.33-.18.59-.42.78-.74.19-.32.28-.67.28-1.07,0-.62-.2-1.11-.61-1.49s-.93-.57-1.57-.57-1.18.19-1.58.57c-.41.38-.61.88-.61,1.49,0,.4.09.76.28,1.07.19.32.45.56.78.74.33.18.71.26,1.13.26s.79-.09,1.12-.26Z"/>
      <path class="cls-2" d="M483.75,22.56h-5.16c.07.56.32,1.01.74,1.35.42.34.94.51,1.57.51.76,0,1.37-.26,1.84-.77l.64.74c-.29.34-.65.59-1.07.77-.43.18-.91.26-1.43.26-.67,0-1.27-.14-1.79-.41-.52-.28-.92-.66-1.21-1.16-.28-.5-.43-1.06-.43-1.68s.14-1.17.41-1.67.66-.88,1.14-1.16c.48-.28,1.03-.41,1.64-.41s1.15.14,1.63.41c.48.28.85.66,1.12,1.16s.4,1.06.4,1.7c0,.09,0,.2-.02.35ZM479.24,20.42c-.37.34-.59.78-.65,1.32h4.08c-.06-.54-.28-.97-.65-1.31-.37-.34-.83-.51-1.39-.51s-1.01.17-1.39.5Z"/>
      <path class="cls-2" d="M487.36,19.23c.39-.19.87-.29,1.43-.29v1.12c-.06,0-.15-.01-.26-.01-.62,0-1.11.19-1.47.56s-.53.9-.53,1.59v3.17h-1.15v-6.36h1.1v1.07c.2-.37.5-.65.89-.84Z"/>
      <path class="cls-2" d="M245.93,36v2.93h4.21v1.03h-4.21v3.4h-1.2v-8.4h5.93v1.04h-4.73Z"/>
      <path class="cls-2" d="M256.29,37.59c.47.43.7,1.08.7,1.93v3.84h-1.09v-.84c-.19.3-.47.52-.82.68-.36.16-.78.23-1.27.23-.71,0-1.28-.17-1.71-.52-.43-.34-.64-.8-.64-1.36s.2-1.01.61-1.35c.41-.34,1.06-.51,1.94-.51h1.82v-.23c0-.5-.14-.88-.43-1.14-.29-.26-.71-.4-1.27-.4-.38,0-.74.06-1.1.19-.36.12-.66.29-.91.5l-.48-.86c.33-.26.72-.47,1.18-.61s.94-.21,1.45-.21c.88,0,1.55.22,2.02.65ZM255.14,42.25c.32-.2.55-.47.7-.83v-.89h-1.78c-.98,0-1.46.33-1.46.98,0,.32.12.57.37.76.25.18.59.28,1.03.28s.82-.1,1.14-.29Z"/>
      <path class="cls-2" d="M264.15,37.35c.49.27.87.65,1.15,1.14.28.49.41,1.05.41,1.69s-.14,1.21-.41,1.7c-.28.49-.66.88-1.15,1.15-.49.27-1.04.41-1.66.41-.47,0-.9-.09-1.3-.28-.39-.18-.72-.45-.97-.8v1.01h-1.1v-8.9h1.15v3.5c.26-.34.58-.59.96-.76.38-.17.8-.26,1.26-.26.62,0,1.17.14,1.66.41ZM263.5,42.14c.32-.19.58-.45.77-.79s.28-.73.28-1.17-.09-.83-.28-1.17-.44-.6-.77-.79c-.32-.18-.69-.28-1.1-.28s-.76.09-1.09.28c-.33.18-.58.45-.77.79-.18.34-.28.73-.28,1.17s.09.83.28,1.17c.18.34.44.6.77.79.33.19.69.28,1.09.28s.77-.09,1.1-.28Z"/>
      <path class="cls-2" d="M269.3,37.23c.39-.19.87-.29,1.43-.29v1.12c-.06,0-.15-.01-.26-.01-.62,0-1.11.19-1.47.56s-.53.9-.53,1.59v3.17h-1.15v-6.36h1.1v1.07c.2-.37.5-.65.89-.84Z"/>
      <path class="cls-2" d="M272.16,35.56c-.15-.14-.22-.32-.22-.53s.07-.39.22-.53.33-.22.56-.22.41.07.56.21.22.31.22.52-.07.4-.22.55c-.15.15-.33.22-.56.22s-.41-.07-.56-.22ZM272.14,37h1.15v6.36h-1.15v-6.36Z"/>
      <path class="cls-2" d="M276.53,43.01c-.51-.28-.91-.67-1.19-1.16s-.43-1.05-.43-1.67.14-1.18.43-1.67c.29-.49.69-.88,1.19-1.15.51-.28,1.09-.41,1.73-.41.58,0,1.09.12,1.54.35.45.23.8.57,1.05,1.01l-.88.56c-.2-.3-.45-.53-.74-.68-.3-.15-.62-.23-.98-.23-.42,0-.79.09-1.12.28-.33.18-.59.45-.78.79-.19.34-.28.73-.28,1.17s.09.84.28,1.18c.19.34.45.6.78.79.33.18.71.28,1.12.28.36,0,.69-.08.98-.23.3-.15.54-.38.74-.68l.88.55c-.25.44-.6.78-1.05,1.01-.45.24-.97.35-1.54.35-.65,0-1.23-.14-1.73-.42Z"/>
      <path class="cls-2" d="M286.68,37.59c.47.43.7,1.08.7,1.93v3.84h-1.09v-.84c-.19.3-.47.52-.82.68-.36.16-.78.23-1.27.23-.71,0-1.28-.17-1.71-.52-.43-.34-.64-.8-.64-1.36s.2-1.01.61-1.35c.41-.34,1.06-.51,1.94-.51h1.82v-.23c0-.5-.14-.88-.43-1.14-.29-.26-.71-.4-1.27-.4-.38,0-.74.06-1.1.19-.36.12-.66.29-.91.5l-.48-.86c.33-.26.72-.47,1.18-.61s.94-.21,1.45-.21c.88,0,1.55.22,2.02.65ZM285.54,42.25c.32-.2.55-.47.7-.83v-.89h-1.78c-.98,0-1.46.33-1.46.98,0,.32.12.57.37.76.25.18.59.28,1.03.28s.82-.1,1.14-.29Z"/>
      <path class="cls-2" d="M293.1,42.99c-.17.14-.38.25-.62.33s-.5.11-.77.11c-.64,0-1.14-.17-1.49-.52-.35-.34-.53-.84-.53-1.48v-3.49h-1.08v-.95h1.08v-1.39h1.15v1.39h1.82v.95h-1.82v3.44c0,.34.09.61.26.79.17.18.42.28.74.28.35,0,.65-.1.9-.3l.36.83Z"/>
      <path class="cls-2" d="M294.51,35.56c-.15-.14-.22-.32-.22-.53s.07-.39.22-.53c.15-.15.33-.22.56-.22s.41.07.56.21c.15.14.22.31.22.52s-.07.4-.22.55c-.15.15-.33.22-.56.22s-.41-.07-.56-.22ZM294.49,37h1.15v6.36h-1.15v-6.36Z"/>
      <path class="cls-2" d="M298.86,43.01c-.5-.28-.9-.67-1.18-1.16-.28-.49-.43-1.05-.43-1.67s.14-1.18.43-1.67c.28-.49.68-.88,1.18-1.15.5-.28,1.07-.41,1.7-.41s1.2.14,1.7.41c.5.28.89.66,1.18,1.15.28.49.43,1.05.43,1.67s-.14,1.18-.43,1.67-.68.88-1.18,1.16c-.5.28-1.07.42-1.7.42s-1.2-.14-1.7-.42ZM301.66,42.14c.32-.19.58-.45.76-.79.18-.34.28-.73.28-1.17s-.09-.83-.28-1.17c-.18-.34-.44-.6-.76-.79-.32-.18-.69-.28-1.1-.28s-.77.09-1.1.28c-.32.18-.58.45-.77.79-.19.34-.28.73-.28,1.17s.09.83.28,1.17c.19.34.44.6.77.79.32.19.69.28,1.1.28s.77-.09,1.1-.28Z"/>
      <path class="cls-2" d="M310.78,37.64c.48.47.71,1.15.71,2.06v3.66h-1.15v-3.53c0-.62-.15-1.08-.44-1.39-.3-.31-.72-.47-1.27-.47-.62,0-1.12.18-1.48.55s-.54.89-.54,1.57v3.28h-1.15v-6.36h1.1v.96c.23-.33.55-.58.94-.76.4-.18.85-.26,1.35-.26.81,0,1.45.23,1.93.7Z"/>
      <path class="cls-2" d="M326.71,37.64c.47.46.7,1.15.7,2.06v3.66h-1.15v-3.53c0-.62-.14-1.08-.43-1.39-.28-.31-.69-.47-1.22-.47-.58,0-1.05.18-1.39.55-.34.36-.52.89-.52,1.57v3.28h-1.15v-3.53c0-.62-.14-1.08-.43-1.39-.28-.31-.69-.47-1.22-.47-.58,0-1.05.18-1.39.55-.34.36-.52.89-.52,1.57v3.28h-1.15v-6.36h1.1v.95c.23-.33.54-.58.91-.75s.8-.26,1.28-.26.94.1,1.32.3.68.49.89.88c.24-.37.57-.66,1-.86.43-.21.91-.31,1.45-.31.8,0,1.43.23,1.9.7Z"/>
      <path class="cls-2" d="M333.88,37.59c.47.43.7,1.08.7,1.93v3.84h-1.09v-.84c-.19.3-.47.52-.82.68-.36.16-.78.23-1.27.23-.71,0-1.28-.17-1.71-.52-.43-.34-.64-.8-.64-1.36s.2-1.01.61-1.35c.41-.34,1.06-.51,1.94-.51h1.82v-.23c0-.5-.14-.88-.43-1.14-.29-.26-.71-.4-1.27-.4-.38,0-.74.06-1.1.19-.36.12-.66.29-.91.5l-.48-.86c.33-.26.72-.47,1.18-.61s.94-.21,1.45-.21c.88,0,1.55.22,2.02.65ZM332.73,42.25c.32-.2.55-.47.7-.83v-.89h-1.78c-.98,0-1.46.33-1.46.98,0,.32.12.57.37.76.25.18.59.28,1.03.28s.82-.1,1.14-.29Z"/>
      <path class="cls-2" d="M336.73,35.56c-.15-.14-.22-.32-.22-.53s.07-.39.22-.53c.15-.15.33-.22.56-.22s.41.07.56.21c.15.14.22.31.22.52s-.07.4-.22.55c-.15.15-.33.22-.56.22s-.41-.07-.56-.22ZM336.72,37h1.15v6.36h-1.15v-6.36Z"/>
      <path class="cls-2" d="M340.39,43.22c-.48-.14-.86-.32-1.13-.53l.48-.91c.28.2.62.36,1.02.48.4.12.8.18,1.21.18,1.01,0,1.51-.29,1.51-.86,0-.19-.07-.34-.2-.46-.14-.11-.31-.19-.51-.25-.2-.05-.49-.11-.87-.17-.51-.08-.93-.17-1.25-.28-.32-.1-.6-.28-.83-.53-.23-.25-.35-.6-.35-1.04,0-.58.24-1.04.72-1.39.48-.35,1.12-.52,1.93-.52.42,0,.85.05,1.27.16.42.1.77.24,1.04.42l-.49.91c-.52-.34-1.13-.5-1.84-.5-.49,0-.86.08-1.12.24-.26.16-.38.37-.38.64,0,.21.07.37.22.49.14.12.32.21.53.26.21.06.51.12.89.19.51.09.93.18,1.24.28.32.1.59.27.81.51.22.24.34.58.34,1.01,0,.58-.25,1.03-.74,1.37-.49.34-1.16.51-2.01.51-.52,0-1.02-.07-1.5-.21Z"/>
      <path class="cls-2" d="M347.1,43.01c-.5-.28-.9-.67-1.18-1.16s-.43-1.05-.43-1.67.14-1.18.43-1.67c.28-.49.68-.88,1.18-1.15.5-.28,1.07-.41,1.7-.41s1.2.14,1.7.41c.5.28.89.66,1.18,1.15.28.49.43,1.05.43,1.67s-.14,1.18-.43,1.67c-.28.49-.68.88-1.18,1.16-.5.28-1.07.42-1.7.42s-1.2-.14-1.7-.42ZM349.9,42.14c.32-.19.58-.45.76-.79s.28-.73.28-1.17-.09-.83-.28-1.17-.44-.6-.76-.79c-.32-.18-.69-.28-1.1-.28s-.77.09-1.1.28c-.32.18-.58.45-.77.79s-.28.73-.28,1.17.09.83.28,1.17.44.6.77.79c.32.19.69.28,1.1.28s.77-.09,1.1-.28Z"/>
      <path class="cls-2" d="M359.02,37.64c.48.47.71,1.15.71,2.06v3.66h-1.15v-3.53c0-.62-.15-1.08-.44-1.39-.3-.31-.72-.47-1.27-.47-.62,0-1.12.18-1.48.55-.36.36-.54.89-.54,1.57v3.28h-1.15v-6.36h1.1v.96c.23-.33.55-.58.94-.76.4-.18.85-.26,1.35-.26.81,0,1.45.23,1.93.7Z"/>
      <path class="cls-2" d="M242.96,81.66c-.24-.06-.44-.16-.6-.29l.37-.89c.24.2.55.3.94.3.3,0,.54-.09.7-.28.16-.19.25-.47.25-.83v-6.67h1.15v6.65c0,.66-.18,1.17-.53,1.55s-.85.56-1.5.56c-.28,0-.54-.03-.78-.1ZM244.64,71.56c-.15-.14-.22-.32-.22-.53s.07-.39.22-.53c.15-.15.33-.22.56-.22s.41.07.56.21c.15.14.22.31.22.52s-.07.4-.22.55c-.15.15-.33.22-.56.22s-.41-.07-.56-.22Z"/>
      <path class="cls-2" d="M253.89,73v6.36h-1.09v-.96c-.23.33-.54.58-.92.76-.38.18-.79.27-1.24.27-.85,0-1.52-.23-2-.7s-.73-1.16-.73-2.07v-3.66h1.15v3.53c0,.62.15,1.08.44,1.4.3.32.72.47,1.27.47.61,0,1.09-.18,1.44-.55.35-.37.53-.89.53-1.56v-3.29h1.15Z"/>
      <path class="cls-2" d="M256.09,70.46h1.15v8.9h-1.15v-8.9Z"/>
      <path class="cls-2" d="M259.46,71.56c-.15-.14-.22-.32-.22-.53s.07-.39.22-.53c.15-.15.33-.22.56-.22s.41.07.56.21c.15.14.22.31.22.52s-.07.4-.22.55c-.15.15-.33.22-.56.22s-.41-.07-.56-.22ZM259.44,73h1.15v6.36h-1.15v-6.36Z"/>
      <path class="cls-2" d="M268.51,76.56h-5.16c.07.56.32,1.01.74,1.35.42.34.94.51,1.57.51.76,0,1.37-.26,1.84-.77l.64.74c-.29.34-.65.59-1.07.77-.43.18-.91.26-1.43.26-.67,0-1.27-.14-1.79-.41-.52-.28-.92-.66-1.21-1.16-.28-.5-.43-1.06-.43-1.68s.14-1.17.41-1.67c.28-.5.66-.88,1.14-1.16.48-.28,1.03-.41,1.64-.41s1.15.14,1.63.41c.48.28.85.66,1.12,1.16s.4,1.06.4,1.7c0,.09,0,.2-.02.35ZM264,74.42c-.37.34-.59.78-.65,1.32h4.08c-.06-.54-.28-.97-.65-1.31-.37-.34-.83-.51-1.39-.51s-1.01.17-1.39.5Z"/>
      <path class="cls-2" d="M275.45,73.64c.48.47.71,1.15.71,2.06v3.66h-1.15v-3.53c0-.62-.15-1.08-.44-1.39-.3-.31-.72-.47-1.27-.47-.62,0-1.12.18-1.48.55-.36.36-.54.89-.54,1.57v3.28h-1.15v-6.36h1.1v.96c.23-.33.55-.58.94-.76.4-.18.85-.26,1.35-.26.81,0,1.45.23,1.93.7Z"/>
      <path class="cls-2" d="M278,79.2c-.16-.16-.24-.35-.24-.59s.08-.43.24-.58c.16-.16.35-.23.58-.23s.41.08.56.23c.15.15.23.35.23.59s-.08.44-.23.59c-.16.16-.34.23-.56.23s-.42-.08-.58-.23Z"/>
      <path class="cls-2" d="M281.92,79.01c-.51-.28-.91-.67-1.19-1.16s-.43-1.05-.43-1.67.14-1.18.43-1.67c.29-.49.69-.88,1.19-1.15.51-.28,1.09-.41,1.73-.41.58,0,1.09.12,1.54.35.45.23.8.57,1.05,1.01l-.88.56c-.2-.3-.45-.53-.74-.68-.3-.15-.62-.23-.98-.23-.42,0-.79.09-1.12.28-.33.18-.59.45-.78.79s-.28.73-.28,1.17.09.84.28,1.18.45.6.78.79c.33.18.71.28,1.12.28.36,0,.69-.08.98-.23.3-.15.54-.38.74-.68l.88.55c-.25.44-.6.78-1.05,1.01-.45.24-.97.35-1.54.35-.65,0-1.23-.14-1.73-.42Z"/>
      <path class="cls-2" d="M292.97,73.64c.48.47.71,1.15.71,2.06v3.66h-1.15v-3.53c0-.62-.15-1.08-.44-1.39-.3-.31-.72-.47-1.27-.47-.62,0-1.12.18-1.48.55-.36.36-.54.89-.54,1.57v3.28h-1.15v-8.9h1.15v3.44c.24-.3.55-.54.94-.71s.82-.25,1.3-.25c.81,0,1.45.23,1.93.7Z"/>
      <path class="cls-2" d="M300.16,73.59c.47.43.7,1.08.7,1.93v3.84h-1.09v-.84c-.19.3-.47.52-.82.68-.36.16-.78.23-1.27.23-.71,0-1.28-.17-1.71-.52-.43-.34-.64-.8-.64-1.36s.2-1.01.61-1.35c.41-.34,1.06-.51,1.94-.51h1.82v-.23c0-.5-.14-.88-.43-1.14-.29-.26-.71-.4-1.27-.4-.38,0-.74.06-1.1.19-.36.12-.66.29-.91.5l-.48-.86c.33-.26.72-.47,1.18-.61s.94-.21,1.45-.21c.88,0,1.55.22,2.02.65ZM299.01,78.25c.32-.2.55-.47.7-.83v-.89h-1.78c-.98,0-1.46.33-1.46.98,0,.32.12.57.37.76.25.18.59.28,1.03.28s.82-.1,1.14-.29Z"/>
      <path class="cls-2" d="M303,70.46h1.15v8.9h-1.15v-8.9Z"/>
      <path class="cls-2" d="M316.2,73.64c.47.46.7,1.15.7,2.06v3.66h-1.15v-3.53c0-.62-.14-1.08-.43-1.39-.28-.31-.69-.47-1.22-.47-.58,0-1.05.18-1.39.55-.34.36-.52.89-.52,1.57v3.28h-1.15v-3.53c0-.62-.14-1.08-.43-1.39-.28-.31-.69-.47-1.22-.47-.58,0-1.05.18-1.39.55-.34.36-.52.89-.52,1.57v3.28h-1.15v-6.36h1.1v.95c.23-.33.54-.58.91-.75s.8-.26,1.28-.26.94.1,1.32.3.68.49.89.88c.24-.37.57-.66,1-.86.43-.21.91-.31,1.45-.31.8,0,1.43.23,1.9.7Z"/>
      <path class="cls-2" d="M323.37,73.59c.47.43.7,1.08.7,1.93v3.84h-1.09v-.84c-.19.3-.47.52-.82.68-.36.16-.78.23-1.27.23-.71,0-1.28-.17-1.71-.52-.43-.34-.64-.8-.64-1.36s.2-1.01.61-1.35c.41-.34,1.06-.51,1.94-.51h1.82v-.23c0-.5-.14-.88-.43-1.14-.29-.26-.71-.4-1.27-.4-.38,0-.74.06-1.1.19-.36.12-.66.29-.91.5l-.48-.86c.33-.26.72-.47,1.18-.61s.94-.21,1.45-.21c.88,0,1.55.22,2.02.65ZM322.22,78.25c.32-.2.55-.47.7-.83v-.89h-1.78c-.98,0-1.46.33-1.46.98,0,.32.12.57.37.76.25.18.59.28,1.03.28s.82-.1,1.14-.29Z"/>
      <path class="cls-2" d="M331.53,73.64c.48.47.71,1.15.71,2.06v3.66h-1.15v-3.53c0-.62-.15-1.08-.44-1.39-.3-.31-.72-.47-1.27-.47-.62,0-1.12.18-1.48.55s-.54.89-.54,1.57v3.28h-1.15v-6.36h1.1v.96c.23-.33.55-.58.94-.76.4-.18.85-.26,1.35-.26.81,0,1.45.23,1.93.7Z"/>
      <path class="cls-2" d="M340.41,70.46v8.9h-1.1v-1.01c-.26.35-.58.62-.97.8-.39.18-.82.28-1.3.28-.62,0-1.17-.14-1.66-.41-.49-.27-.87-.65-1.15-1.15-.28-.49-.41-1.06-.41-1.7s.14-1.2.41-1.69c.28-.49.66-.87,1.15-1.14.49-.27,1.04-.41,1.66-.41.46,0,.88.09,1.26.26.38.17.7.43.96.76v-3.5h1.15ZM338.23,78.14c.33-.19.58-.45.77-.79.18-.34.28-.73.28-1.17s-.09-.83-.28-1.17c-.18-.34-.44-.6-.77-.79-.33-.18-.69-.28-1.09-.28s-.77.09-1.1.28c-.32.18-.58.45-.77.79s-.28.73-.28,1.17.09.83.28,1.17.44.6.77.79c.32.19.69.28,1.1.28s.76-.09,1.09-.28Z"/>
      <path class="cls-2" d="M344.59,73.23c.39-.19.87-.29,1.43-.29v1.12c-.06,0-.15-.01-.26-.01-.62,0-1.11.19-1.47.56-.36.37-.53.9-.53,1.59v3.17h-1.15v-6.36h1.1v1.07c.2-.37.5-.65.89-.84Z"/>
      <path class="cls-2" d="M347.45,71.56c-.15-.14-.22-.32-.22-.53s.07-.39.22-.53.33-.22.56-.22.41.07.56.21.22.31.22.52-.07.4-.22.55c-.15.15-.33.22-.56.22s-.41-.07-.56-.22ZM347.43,73h1.15v6.36h-1.15v-6.36Z"/>
      <path class="cls-2" d="M356.5,76.56h-5.16c.07.56.32,1.01.74,1.35.42.34.94.51,1.57.51.76,0,1.37-.26,1.84-.77l.64.74c-.29.34-.65.59-1.07.77-.43.18-.91.26-1.43.26-.67,0-1.27-.14-1.79-.41-.52-.28-.92-.66-1.21-1.16s-.43-1.06-.43-1.68.14-1.17.41-1.67c.28-.5.66-.88,1.14-1.16.48-.28,1.03-.41,1.64-.41s1.15.14,1.63.41c.48.28.85.66,1.12,1.16.27.5.4,1.06.4,1.7,0,.09,0,.2-.02.35ZM352,74.42c-.37.34-.59.78-.65,1.32h4.08c-.06-.54-.28-.97-.65-1.31-.37-.34-.83-.51-1.39-.51s-1.01.17-1.39.5Z"/>
      <path class="cls-2" d="M360.12,73.23c.39-.19.87-.29,1.43-.29v1.12c-.06,0-.15-.01-.26-.01-.62,0-1.11.19-1.47.56s-.53.9-.53,1.59v3.17h-1.15v-6.36h1.1v1.07c.2-.37.5-.65.89-.84Z"/>
      <path class="cls-2" d="M370.8,71.54c.85.44,1.51,1.07,1.99,1.87s.71,1.71.71,2.74-.19,1.83-.56,2.41-.9.88-1.57.88c-.38,0-.7-.1-.95-.29s-.41-.48-.49-.85c-.24.37-.55.65-.94.85-.39.2-.83.29-1.34.29-.56,0-1.06-.13-1.51-.4-.45-.26-.8-.63-1.05-1.1s-.38-1-.38-1.59.13-1.11.38-1.58.6-.83,1.05-1.09c.45-.26.95-.39,1.51-.39.46,0,.88.09,1.26.26.38.17.69.43.94.76v-.97h1.04v4.32c0,.3.06.51.19.65s.29.21.49.21c.35,0,.63-.21.82-.62s.29-.99.29-1.75c0-.89-.2-1.67-.6-2.35-.4-.68-.96-1.2-1.69-1.58-.72-.38-1.55-.56-2.49-.56s-1.78.2-2.5.59c-.72.39-1.29.94-1.69,1.64-.4.7-.6,1.51-.6,2.41s.2,1.72.59,2.42c.4.7.95,1.25,1.67,1.65.72.4,1.54.59,2.48.59.39,0,.79-.04,1.2-.13.41-.09.78-.22,1.12-.4l.26.77c-.35.18-.76.32-1.22.42-.46.1-.92.14-1.36.14-1.1,0-2.07-.23-2.92-.7-.85-.47-1.51-1.12-1.99-1.95-.47-.83-.71-1.77-.71-2.82s.24-1.98.71-2.81c.48-.82,1.14-1.47,2-1.93.86-.46,1.84-.7,2.95-.7s2.04.22,2.89.67ZM368.86,78.23c.31-.18.55-.43.73-.75s.27-.7.27-1.13-.09-.81-.27-1.13c-.18-.32-.42-.57-.73-.74s-.66-.26-1.05-.26c-.61,0-1.1.19-1.48.58-.38.39-.56.91-.56,1.55s.19,1.17.57,1.56c.38.39.87.59,1.47.59.39,0,.74-.09,1.05-.26Z"/>
      <path class="cls-2" d="M376.18,79.01c-.5-.28-.9-.67-1.18-1.16-.28-.49-.43-1.05-.43-1.67s.14-1.18.43-1.67c.28-.49.68-.88,1.18-1.15.5-.28,1.07-.41,1.7-.41s1.2.14,1.7.41c.5.28.89.66,1.18,1.15.28.49.43,1.05.43,1.67s-.14,1.18-.43,1.67-.68.88-1.18,1.16c-.5.28-1.07.42-1.7.42s-1.2-.14-1.7-.42ZM378.99,78.14c.32-.19.58-.45.76-.79.18-.34.28-.73.28-1.17s-.09-.83-.28-1.17c-.18-.34-.44-.6-.76-.79-.32-.18-.69-.28-1.1-.28s-.77.09-1.1.28c-.32.18-.58.45-.77.79-.19.34-.28.73-.28,1.17s.09.83.28,1.17c.19.34.44.6.77.79.32.19.69.28,1.1.28s.77-.09,1.1-.28Z"/>
      <path class="cls-2" d="M384.78,73.23c.39-.19.87-.29,1.43-.29v1.12c-.06,0-.15-.01-.26-.01-.62,0-1.11.19-1.47.56-.36.37-.53.9-.53,1.59v3.17h-1.15v-6.36h1.1v1.07c.2-.37.5-.65.89-.84Z"/>
      <path class="cls-2" d="M391.95,73.59c.47.43.7,1.08.7,1.93v3.84h-1.09v-.84c-.19.3-.47.52-.82.68-.36.16-.78.23-1.27.23-.71,0-1.28-.17-1.71-.52-.43-.34-.64-.8-.64-1.36s.2-1.01.61-1.35c.41-.34,1.06-.51,1.94-.51h1.82v-.23c0-.5-.14-.88-.43-1.14-.29-.26-.71-.4-1.27-.4-.38,0-.74.06-1.1.19-.36.12-.66.29-.91.5l-.48-.86c.33-.26.72-.47,1.18-.61s.94-.21,1.45-.21c.88,0,1.55.22,2.02.65ZM390.8,78.25c.32-.2.55-.47.7-.83v-.89h-1.78c-.98,0-1.46.33-1.46.98,0,.32.12.57.37.76.25.18.59.28,1.03.28s.82-.1,1.14-.29Z"/>
      <path class="cls-2" d="M400.11,73.64c.48.47.71,1.15.71,2.06v3.66h-1.15v-3.53c0-.62-.15-1.08-.44-1.39-.3-.31-.72-.47-1.27-.47-.62,0-1.12.18-1.48.55-.36.36-.54.89-.54,1.57v3.28h-1.15v-6.36h1.1v.96c.23-.33.55-.58.94-.76.4-.18.85-.26,1.35-.26.81,0,1.45.23,1.93.7Z"/>
      <path class="cls-2" d="M409.08,73v5.5c0,1.11-.28,1.93-.83,2.47-.55.53-1.38.8-2.47.8-.6,0-1.17-.08-1.72-.25s-.98-.4-1.32-.7l.55-.89c.3.26.66.46,1.1.61.44.15.89.22,1.35.22.74,0,1.29-.18,1.65-.53.36-.35.53-.89.53-1.61v-.5c-.27.33-.61.57-1,.74s-.83.25-1.29.25c-.61,0-1.16-.13-1.65-.39-.49-.26-.88-.62-1.16-1.09s-.42-1-.42-1.6.14-1.13.42-1.6.67-.83,1.16-1.09,1.04-.38,1.65-.38c.48,0,.93.09,1.34.26.41.18.75.44,1.01.78v-.98h1.09ZM406.89,77.82c.33-.18.59-.42.78-.74.19-.32.28-.67.28-1.07,0-.62-.2-1.11-.61-1.49s-.93-.57-1.57-.57-1.18.19-1.58.57c-.41.38-.61.88-.61,1.49,0,.4.09.76.28,1.07.19.32.45.56.78.74.33.18.71.26,1.13.26s.79-.09,1.12-.26Z"/>
      <path class="cls-2" d="M417,76.56h-5.16c.07.56.32,1.01.74,1.35.42.34.94.51,1.57.51.76,0,1.37-.26,1.84-.77l.64.74c-.29.34-.65.59-1.07.77-.43.18-.91.26-1.43.26-.67,0-1.27-.14-1.79-.41-.52-.28-.92-.66-1.21-1.16-.28-.5-.43-1.06-.43-1.68s.14-1.17.41-1.67.66-.88,1.14-1.16c.48-.28,1.03-.41,1.64-.41s1.15.14,1.63.41c.48.28.85.66,1.12,1.16s.4,1.06.4,1.7c0,.09,0,.2-.02.35ZM412.49,74.42c-.37.34-.59.78-.65,1.32h4.08c-.06-.54-.28-.97-.65-1.31-.37-.34-.83-.51-1.39-.51s-1.01.17-1.39.5Z"/>
      <path class="cls-2" d="M418.32,79.2c-.16-.16-.24-.35-.24-.59s.08-.43.24-.58c.16-.16.35-.23.58-.23s.41.08.56.23c.15.15.23.35.23.59s-.08.44-.23.59-.34.23-.56.23-.42-.08-.58-.23Z"/>
      <path class="cls-2" d="M422.64,72.45v.55h1.85v.95h-1.82v5.41h-1.15v-5.41h-1.08v-.95h1.08v-.56c0-.63.18-1.13.55-1.5.37-.37.88-.55,1.55-.55.26,0,.5.03.72.1.22.06.42.16.58.28l-.35.88c-.26-.2-.56-.3-.89-.3-.69,0-1.03.37-1.03,1.12Z"/>
      <path class="cls-2" d="M428.53,73.23c.39-.19.87-.29,1.43-.29v1.12c-.06,0-.15-.01-.26-.01-.62,0-1.11.19-1.47.56s-.53.9-.53,1.59v3.17h-1.15v-6.36h1.1v1.07c.2-.37.5-.65.89-.84Z"/>
      <path class="cls-2" d="M246.64,88.96v8.4h-1.19v-7.36h-1.9v-1.04h3.08Z"/>
      <path class="cls-2" d="M258.01,97.36l-1.81-2.58c-.22.02-.4.02-.53.02h-2.08v2.56h-1.2v-8.4h3.28c1.09,0,1.94.26,2.57.78.62.52.94,1.24.94,2.15,0,.65-.16,1.2-.48,1.66s-.78.79-1.37,1l1.99,2.82h-1.31ZM257.37,93.29c.4-.33.6-.8.6-1.4s-.2-1.07-.6-1.4c-.4-.32-.98-.49-1.74-.49h-2.04v3.78h2.04c.76,0,1.34-.16,1.74-.49Z"/>
      <path class="cls-2" d="M266.88,91v6.36h-1.09v-.96c-.23.33-.54.58-.92.76-.38.18-.79.27-1.24.27-.85,0-1.52-.23-2-.7s-.73-1.16-.73-2.07v-3.66h1.15v3.53c0,.62.15,1.08.44,1.4.3.32.72.47,1.27.47.61,0,1.09-.18,1.44-.55s.53-.89.53-1.56v-3.29h1.15Z"/>
      <path class="cls-2" d="M274.8,94.56h-5.16c.07.56.32,1.01.74,1.35.42.34.94.51,1.57.51.76,0,1.37-.26,1.84-.77l.64.74c-.29.34-.65.59-1.07.77-.43.18-.91.26-1.43.26-.67,0-1.27-.14-1.79-.41-.52-.28-.92-.66-1.21-1.16-.28-.5-.43-1.06-.43-1.68s.14-1.17.41-1.67c.28-.5.66-.88,1.14-1.16.48-.28,1.03-.41,1.64-.41s1.15.14,1.63.41c.48.28.85.66,1.12,1.16s.4,1.06.4,1.7c0,.09,0,.2-.02.35ZM270.29,92.42c-.37.34-.59.78-.65,1.32h4.08c-.06-.54-.28-.97-.65-1.31-.37-.34-.83-.51-1.39-.51s-1.01.17-1.39.5Z"/>
      <path class="cls-2" d="M287.6,97.36v-6.12s-3.05,5.1-3.05,5.1h-.55l-3.04-5.06v6.08h-1.15v-8.4h.98l3.5,5.9,3.46-5.9h.98v8.4s-1.14,0-1.14,0Z"/>
      <path class="cls-2" d="M295.44,91.59c.47.43.7,1.08.7,1.93v3.84h-1.09v-.84c-.19.3-.47.52-.82.68-.36.16-.78.23-1.27.23-.71,0-1.28-.17-1.71-.52-.43-.34-.64-.8-.64-1.36s.2-1.01.61-1.35c.41-.34,1.06-.51,1.94-.51h1.82v-.23c0-.5-.14-.88-.43-1.14-.29-.26-.71-.4-1.27-.4-.38,0-.74.06-1.1.19-.36.12-.66.29-.91.5l-.48-.86c.33-.26.72-.47,1.18-.61s.94-.21,1.45-.21c.88,0,1.55.22,2.02.65ZM294.3,96.25c.32-.2.55-.47.7-.83v-.89h-1.78c-.98,0-1.46.33-1.46.98,0,.32.12.57.37.76.25.18.59.28,1.03.28s.82-.1,1.14-.29Z"/>
      <path class="cls-2" d="M304.21,91v6.36h-1.09v-.96c-.23.33-.54.58-.92.76-.38.18-.79.27-1.24.27-.85,0-1.52-.23-2-.7s-.73-1.16-.73-2.07v-3.66h1.15v3.53c0,.62.15,1.08.44,1.4.3.32.72.47,1.27.47.61,0,1.09-.18,1.44-.55.35-.37.53-.89.53-1.56v-3.29h1.15Z"/>
      <path class="cls-2" d="M308.4,91.23c.39-.19.87-.29,1.43-.29v1.12c-.06,0-.15-.01-.26-.01-.62,0-1.11.19-1.47.56s-.53.9-.53,1.59v3.17h-1.15v-6.36h1.1v1.07c.2-.37.5-.65.89-.84Z"/>
      <path class="cls-2" d="M311.26,89.56c-.15-.14-.22-.32-.22-.53s.07-.39.22-.53c.15-.15.33-.22.56-.22s.41.07.56.21c.15.14.22.31.22.52s-.07.4-.22.55c-.15.15-.33.22-.56.22s-.41-.07-.56-.22ZM311.24,91h1.15v6.36h-1.15v-6.36Z"/>
      <path class="cls-2" d="M315.63,97.01c-.51-.28-.91-.67-1.19-1.16s-.43-1.05-.43-1.67.14-1.18.43-1.67c.29-.49.69-.88,1.19-1.15.51-.28,1.09-.41,1.73-.41.58,0,1.09.12,1.54.35.45.23.8.57,1.05,1.01l-.88.56c-.2-.3-.45-.53-.74-.68-.3-.15-.62-.23-.98-.23-.42,0-.79.09-1.12.28-.33.18-.59.45-.78.79s-.28.73-.28,1.17.09.84.28,1.18.45.6.78.79.71.28,1.12.28c.36,0,.69-.08.98-.23.3-.15.54-.38.74-.68l.88.55c-.25.44-.6.78-1.05,1.01-.45.24-.97.35-1.54.35-.65,0-1.23-.14-1.73-.42Z"/>
      <path class="cls-2" d="M327.07,94.56h-5.16c.07.56.32,1.01.74,1.35.42.34.94.51,1.57.51.76,0,1.37-.26,1.84-.77l.64.74c-.29.34-.65.59-1.07.77-.43.18-.91.26-1.43.26-.67,0-1.27-.14-1.79-.41-.52-.28-.92-.66-1.21-1.16-.28-.5-.43-1.06-.43-1.68s.14-1.17.41-1.67c.28-.5.66-.88,1.14-1.16.48-.28,1.03-.41,1.64-.41s1.15.14,1.63.41c.48.28.85.66,1.12,1.16s.4,1.06.4,1.7c0,.09,0,.2-.02.35ZM322.56,92.42c-.37.34-.59.78-.65,1.32h4.08c-.06-.54-.28-.97-.65-1.31-.37-.34-.83-.51-1.39-.51s-1.01.17-1.39.5Z"/>
      <path class="cls-2" d="M332.95,96.5c-.62-.64-.94-1.56-.94-2.76v-4.78h1.2v4.73c0,1.8.79,2.7,2.36,2.7.77,0,1.36-.22,1.76-.67.41-.44.61-1.12.61-2.03v-4.73h1.16v4.78c0,1.21-.31,2.13-.94,2.77-.62.64-1.5.95-2.62.95s-1.99-.32-2.62-.96Z"/>
      <path class="cls-2" d="M344.98,96.99c-.17.14-.38.25-.62.33s-.5.11-.77.11c-.64,0-1.14-.17-1.49-.52-.35-.34-.53-.84-.53-1.48v-3.49h-1.08v-.95h1.08v-1.39h1.15v1.39h1.82v.95h-1.82v3.44c0,.34.09.61.26.79.17.18.42.28.74.28.35,0,.65-.1.9-.3l.36.83Z"/>
      <path class="cls-2" d="M348.37,91.23c.39-.19.87-.29,1.43-.29v1.12c-.06,0-.15-.01-.26-.01-.62,0-1.11.19-1.47.56s-.53.9-.53,1.59v3.17h-1.15v-6.36h1.1v1.07c.2-.37.5-.65.89-.84Z"/>
      <path class="cls-2" d="M351.23,89.56c-.15-.14-.22-.32-.22-.53s.07-.39.22-.53c.15-.15.33-.22.56-.22s.41.07.56.21c.15.14.22.31.22.52s-.07.4-.22.55c-.15.15-.33.22-.56.22s-.41-.07-.56-.22ZM351.21,91h1.15v6.36h-1.15v-6.36Z"/>
      <path class="cls-2" d="M354.56,88.46h1.15v8.9h-1.15v-8.9Z"/>
      <path class="cls-2" d="M357.91,88.46h1.15v8.9h-1.15v-8.9Z"/>
      <path class="cls-2" d="M362.28,97.01c-.5-.28-.9-.67-1.18-1.16s-.43-1.05-.43-1.67.14-1.18.43-1.67c.28-.49.68-.88,1.18-1.15.5-.28,1.07-.41,1.7-.41s1.2.14,1.7.41c.5.28.89.66,1.18,1.15.28.49.43,1.05.43,1.67s-.14,1.18-.43,1.67c-.28.49-.68.88-1.18,1.16-.5.28-1.07.42-1.7.42s-1.2-.14-1.7-.42ZM365.08,96.14c.32-.19.58-.45.76-.79s.28-.73.28-1.17-.09-.83-.28-1.17-.44-.6-.76-.79c-.32-.18-.69-.28-1.1-.28s-.77.09-1.1.28c-.32.18-.58.45-.77.79s-.28.73-.28,1.17.09.83.28,1.17.44.6.77.79c.32.19.69.28,1.1.28s.77-.09,1.1-.28Z"/>
      <path class="cls-2" d="M251.35,113.3h-1.6v2.06h-1.16v-2.06h-4.67v-.84l4.3-5.5h1.3l-4.12,5.3h3.23v-1.82h1.13v1.82h1.6v1.03Z"/>
      <path class="cls-2" d="M259.38,113.3h-1.6v2.06h-1.16v-2.06h-4.67v-.84l4.3-5.5h1.3l-4.12,5.3h3.23v-1.82h1.13v1.82h1.6v1.03Z"/>
      <path class="cls-2" d="M266.46,111.75c.26.34.38.76.38,1.24s-.14.94-.41,1.31c-.27.37-.66.66-1.16.86s-1.1.3-1.78.3-1.26-.1-1.76-.3-.89-.49-1.16-.86c-.27-.37-.41-.81-.41-1.31s.13-.89.38-1.24c.25-.34.62-.61,1.1-.79-.38-.18-.68-.43-.88-.73s-.3-.66-.3-1.08c0-.46.13-.87.38-1.21s.61-.61,1.06-.79c.46-.18.98-.28,1.58-.28s1.14.09,1.6.28c.46.18.82.45,1.07.79s.38.75.38,1.21c0,.41-.1.77-.31,1.07-.2.31-.5.55-.88.74.48.18.85.45,1.1.79ZM265.06,114.07c.38-.28.58-.65.58-1.12s-.19-.83-.58-1.1c-.38-.27-.91-.4-1.57-.4s-1.18.13-1.56.4c-.38.27-.56.63-.56,1.1s.19.85.56,1.12.9.41,1.56.41,1.19-.14,1.57-.41ZM262.15,108.2c-.33.24-.49.57-.49.99s.16.74.49.98c.32.24.77.36,1.35.36s1.04-.12,1.37-.36c.33-.24.5-.57.5-.98s-.17-.75-.51-.99-.79-.37-1.36-.37-1.02.12-1.34.37Z"/>
      <path class="cls-2" d="M273.05,110.57c.44.21.78.51,1.03.89.25.39.37.83.37,1.34s-.13.99-.39,1.39c-.26.4-.62.71-1.07.93-.45.22-.96.33-1.52.33-1.13,0-2-.36-2.61-1.09-.61-.73-.92-1.76-.92-3.1,0-.94.17-1.73.5-2.39s.8-1.16,1.39-1.5c.6-.34,1.29-.51,2.08-.51.41,0,.79.04,1.15.13.36.08.67.21.94.37l-.46.94c-.4-.26-.94-.4-1.61-.4-.87,0-1.56.27-2.05.81s-.74,1.33-.74,2.36c0,.13,0,.23.01.3.24-.36.57-.63.99-.82.42-.19.89-.28,1.42-.28s1.05.1,1.48.31ZM272.77,114.04c.34-.3.52-.69.52-1.19s-.17-.89-.52-1.18c-.35-.29-.81-.44-1.4-.44-.38,0-.71.07-1,.22-.29.14-.52.34-.68.59s-.25.52-.25.83.08.57.23.81c.16.24.38.44.68.59.3.15.66.22,1.07.22.55,0,1-.15,1.34-.44Z"/>
      <path class="cls-2" d="M277.01,114.95c-.52-.34-.92-.83-1.22-1.48-.3-.65-.44-1.42-.44-2.3s.15-1.66.44-2.3c.3-.65.7-1.14,1.22-1.48.52-.34,1.11-.51,1.77-.51s1.24.17,1.76.51c.52.34.92.83,1.22,1.48.3.65.44,1.42.44,2.3s-.15,1.66-.44,2.3c-.3.65-.7,1.14-1.22,1.48s-1.1.51-1.76.51-1.25-.17-1.77-.51ZM280.39,113.56c.4-.55.61-1.35.61-2.4s-.2-1.85-.61-2.4c-.4-.55-.94-.83-1.61-.83s-1.22.28-1.63.83c-.4.55-.61,1.35-.61,2.4s.2,1.85.61,2.4c.4.55.95.83,1.63.83s1.21-.28,1.61-.83Z"/>
      <path class="cls-2" d="M293.11,107.74c.62.52.94,1.24.94,2.15s-.31,1.63-.94,2.15c-.62.52-1.48.78-2.57.78h-2.08v2.54h-1.2v-8.4h3.28c1.09,0,1.94.26,2.57.78ZM292.24,111.29c.4-.32.6-.79.6-1.4s-.2-1.07-.6-1.4c-.4-.32-.98-.49-1.74-.49h-2.04v3.77h2.04c.76,0,1.34-.16,1.74-.49Z"/>
      <path class="cls-2" d="M296.64,115.01c-.5-.28-.9-.67-1.18-1.16s-.43-1.05-.43-1.67.14-1.18.43-1.67c.28-.49.68-.88,1.18-1.15.5-.28,1.07-.41,1.7-.41s1.2.14,1.7.41c.5.28.89.66,1.18,1.15.28.49.43,1.05.43,1.67s-.14,1.18-.43,1.67c-.28.49-.68.88-1.18,1.16-.5.28-1.07.42-1.7.42s-1.2-.14-1.7-.42ZM299.44,114.14c.32-.19.58-.45.76-.79.18-.34.28-.73.28-1.17s-.09-.83-.28-1.17c-.18-.34-.44-.6-.76-.79-.32-.18-.69-.28-1.1-.28s-.77.09-1.1.28c-.32.18-.58.45-.77.79s-.28.73-.28,1.17.09.83.28,1.17.44.6.77.79c.32.19.69.28,1.1.28s.77-.09,1.1-.28Z"/>
      <path class="cls-2" d="M308.56,109.64c.48.47.71,1.15.71,2.06v3.66h-1.15v-3.53c0-.62-.15-1.08-.44-1.39-.3-.31-.72-.47-1.27-.47-.62,0-1.12.18-1.48.55-.36.36-.54.89-.54,1.57v3.28h-1.15v-6.36h1.1v.96c.23-.33.55-.58.94-.76.4-.18.85-.26,1.35-.26.81,0,1.45.23,1.93.7Z"/>
      <path class="cls-2" d="M314.98,114.99c-.17.14-.38.25-.62.33s-.5.11-.77.11c-.64,0-1.14-.17-1.49-.52-.35-.34-.53-.84-.53-1.48v-3.49h-1.08v-.95h1.08v-1.39h1.15v1.39h1.82v.95h-1.82v3.44c0,.34.09.61.26.79.17.18.42.28.74.28.35,0,.65-.1.9-.3l.36.83Z"/>
      <path class="cls-2" d="M320.39,115.16c-.59-.2-1.05-.45-1.39-.76l.44-.94c.32.29.73.52,1.23.7.5.18,1.01.27,1.54.27.7,0,1.22-.12,1.56-.35.34-.24.52-.55.52-.94,0-.29-.09-.52-.28-.7-.19-.18-.42-.32-.7-.41s-.67-.2-1.17-.32c-.63-.15-1.14-.3-1.53-.46-.39-.15-.72-.39-1-.7-.28-.32-.41-.74-.41-1.28,0-.45.12-.85.35-1.21.24-.36.59-.65,1.07-.86.48-.22,1.08-.32,1.79-.32.5,0,.98.06,1.46.19.48.13.89.31,1.24.55l-.4.96c-.35-.22-.73-.39-1.13-.51-.4-.12-.79-.17-1.18-.17-.68,0-1.19.12-1.53.37-.34.25-.51.57-.51.96,0,.29.1.52.29.7.19.18.43.32.71.42.28.1.67.21,1.16.32.63.15,1.14.3,1.52.46.38.15.71.38.99.7.28.31.41.73.41,1.26,0,.44-.12.84-.36,1.21-.24.36-.6.65-1.09.86s-1.09.32-1.8.32c-.63,0-1.24-.1-1.83-.29Z"/>
      <path class="cls-2" d="M331.39,109.59c.47.43.7,1.08.7,1.93v3.84h-1.09v-.84c-.19.3-.47.52-.82.68-.36.16-.78.23-1.27.23-.71,0-1.28-.17-1.71-.52-.43-.34-.64-.8-.64-1.36s.2-1.01.61-1.35c.41-.34,1.06-.51,1.94-.51h1.82v-.23c0-.5-.14-.88-.43-1.14-.29-.26-.71-.4-1.27-.4-.38,0-.74.06-1.1.19-.36.12-.66.29-.91.5l-.48-.86c.33-.26.72-.47,1.18-.61s.94-.21,1.45-.21c.88,0,1.55.22,2.02.65ZM330.25,114.25c.32-.2.55-.47.7-.83v-.89h-1.78c-.98,0-1.46.33-1.46.98,0,.32.12.57.37.76.25.18.59.28,1.03.28s.82-.1,1.14-.29Z"/>
      <path class="cls-2" d="M334.25,107.56c-.15-.14-.22-.32-.22-.53s.07-.39.22-.53.33-.22.56-.22.41.07.56.21.22.31.22.52-.07.4-.22.55c-.15.15-.33.22-.56.22s-.41-.07-.56-.22ZM334.23,109h1.15v6.36h-1.15v-6.36Z"/>
      <path class="cls-2" d="M342.9,109.64c.48.47.71,1.15.71,2.06v3.66h-1.15v-3.53c0-.62-.15-1.08-.44-1.39-.3-.31-.72-.47-1.27-.47-.62,0-1.12.18-1.48.55-.36.36-.54.89-.54,1.57v3.28h-1.15v-6.36h1.1v.96c.23-.33.55-.58.94-.76.4-.18.85-.26,1.35-.26.81,0,1.45.23,1.93.7Z"/>
      <path class="cls-2" d="M349.33,114.99c-.17.14-.38.25-.62.33s-.5.11-.77.11c-.64,0-1.14-.17-1.49-.52-.35-.34-.53-.84-.53-1.48v-3.49h-1.08v-.95h1.08v-1.39h1.15v1.39h1.82v.95h-1.82v3.44c0,.34.09.61.26.79.17.18.42.28.74.28.35,0,.65-.1.9-.3l.36.83Z"/>
      <path class="cls-2" d="M361.9,115.36v-6.12s-3.05,5.1-3.05,5.1h-.55l-3.04-5.06v6.08h-1.15v-8.4h.98l3.5,5.9,3.46-5.9h.98v8.4s-1.14,0-1.14,0Z"/>
      <path class="cls-2" d="M369.75,109.59c.47.43.7,1.08.7,1.93v3.84h-1.09v-.84c-.19.3-.47.52-.82.68-.36.16-.78.23-1.27.23-.71,0-1.28-.17-1.71-.52-.43-.34-.64-.8-.64-1.36s.2-1.01.61-1.35c.41-.34,1.06-.51,1.94-.51h1.82v-.23c0-.5-.14-.88-.43-1.14-.29-.26-.71-.4-1.27-.4-.38,0-.74.06-1.1.19-.36.12-.66.29-.91.5l-.48-.86c.33-.26.72-.47,1.18-.61s.94-.21,1.45-.21c.88,0,1.55.22,2.02.65ZM368.6,114.25c.32-.2.55-.47.7-.83v-.89h-1.78c-.98,0-1.46.33-1.46.98,0,.32.12.57.37.76.25.18.59.28,1.03.28s.82-.1,1.14-.29Z"/>
      <path class="cls-2" d="M374.58,109.23c.39-.19.87-.29,1.43-.29v1.12c-.06,0-.15-.01-.26-.01-.62,0-1.11.19-1.47.56-.36.37-.53.9-.53,1.59v3.17h-1.15v-6.36h1.1v1.07c.2-.37.5-.65.89-.84Z"/>
      <path class="cls-2" d="M381.26,114.99c-.17.14-.38.25-.62.33s-.5.11-.77.11c-.64,0-1.14-.17-1.49-.52-.35-.34-.53-.84-.53-1.48v-3.49h-1.08v-.95h1.08v-1.39h1.15v1.39h1.82v.95h-1.82v3.44c0,.34.09.61.26.79.17.18.42.28.74.28.35,0,.65-.1.9-.3l.36.83Z"/>
      <path class="cls-2" d="M382.67,107.56c-.15-.14-.22-.32-.22-.53s.07-.39.22-.53c.15-.15.33-.22.56-.22s.41.07.56.21c.15.14.22.31.22.52s-.07.4-.22.55c-.15.15-.33.22-.56.22s-.41-.07-.56-.22ZM382.65,109h1.15v6.36h-1.15v-6.36Z"/>
      <path class="cls-2" d="M391.32,109.64c.48.47.71,1.15.71,2.06v3.66h-1.15v-3.53c0-.62-.15-1.08-.44-1.39-.3-.31-.72-.47-1.27-.47-.62,0-1.12.18-1.48.55-.36.36-.54.89-.54,1.57v3.28h-1.15v-6.36h1.1v.96c.23-.33.55-.58.94-.76.4-.18.85-.26,1.35-.26.81,0,1.45.23,1.93.7Z"/>
      <path class="cls-2" d="M245.7,132.97c-.53-.34-.94-.84-1.25-1.49s-.46-1.43-.46-2.32.15-1.67.46-2.32c.3-.65.72-1.15,1.25-1.49s1.13-.51,1.8-.51,1.27.17,1.81.51.95.84,1.25,1.49c.3.65.46,1.43.46,2.32s-.15,1.67-.46,2.32c-.3.65-.72,1.15-1.25,1.49s-1.13.51-1.81.51-1.27-.17-1.8-.51ZM248.92,131.38c.35-.5.52-1.24.52-2.22s-.17-1.72-.52-2.22c-.35-.5-.82-.74-1.42-.74s-1.06.25-1.41.74c-.35.5-.52,1.24-.52,2.22s.17,1.72.52,2.22c.35.5.82.74,1.41.74s1.07-.25,1.42-.74Z"/>
      <path class="cls-2" d="M258.09,132.04v1.32h-6.19v-1.04l3.34-3.17c.38-.36.63-.67.76-.94.13-.27.2-.53.2-.8,0-.39-.13-.69-.4-.9-.26-.21-.65-.31-1.16-.31-.86,0-1.51.29-1.97.88l-1.09-.84c.33-.44.77-.78,1.33-1.03.56-.24,1.18-.37,1.87-.37.91,0,1.64.22,2.18.65s.82,1.02.82,1.76c0,.46-.1.88-.29,1.28-.19.4-.56.86-1.1,1.37l-2.24,2.14h3.96Z"/>
      <path class="cls-2" d="M269.79,131.45h-1.49v1.91h-1.51v-1.91h-4.61v-1.08l4.14-5.41h1.67l-3.9,5.17h2.75v-1.69h1.46v1.69h1.49v1.32Z"/>
      <path class="cls-2" d="M272.16,132.97c-.53-.34-.94-.84-1.25-1.49s-.46-1.43-.46-2.32.15-1.67.46-2.32c.3-.65.72-1.15,1.25-1.49.53-.34,1.13-.51,1.8-.51s1.27.17,1.81.51.95.84,1.25,1.49c.3.65.46,1.43.46,2.32s-.15,1.67-.46,2.32c-.3.65-.72,1.15-1.25,1.49s-1.13.51-1.81.51-1.27-.17-1.8-.51ZM275.38,131.38c.35-.5.52-1.24.52-2.22s-.17-1.72-.52-2.22-.82-.74-1.42-.74-1.06.25-1.41.74-.52,1.24-.52,2.22.17,1.72.52,2.22c.35.5.82.74,1.41.74s1.07-.25,1.42-.74Z"/>
      <path class="cls-2" d="M287.92,132.04v1.32h-6.19v-1.04l3.34-3.17c.38-.36.63-.67.76-.94.13-.27.2-.53.2-.8,0-.39-.13-.69-.4-.9-.26-.21-.65-.31-1.16-.31-.86,0-1.51.29-1.97.88l-1.09-.84c.33-.44.77-.78,1.33-1.03.56-.24,1.18-.37,1.87-.37.91,0,1.64.22,2.18.65s.82,1.02.82,1.76c0,.46-.1.88-.29,1.28-.19.4-.56.86-1.1,1.37l-2.24,2.14h3.96Z"/>
      <path class="cls-2" d="M294.09,128.49c.44.21.78.51,1.03.91s.37.84.37,1.36c0,.54-.14,1.02-.41,1.43s-.64.73-1.1.95c-.46.22-.98.34-1.56.34-1.15,0-2.05-.36-2.68-1.08-.64-.72-.95-1.75-.95-3.1,0-.94.17-1.75.52-2.42.34-.67.83-1.18,1.45-1.52s1.34-.52,2.15-.52c.43,0,.84.05,1.22.14s.71.23.99.4l-.58,1.18c-.42-.27-.95-.41-1.6-.41-.81,0-1.44.25-1.9.74s-.68,1.21-.68,2.15h0c.25-.28.56-.49.95-.64.38-.15.82-.22,1.3-.22.55,0,1.05.11,1.49.32ZM293.53,131.87c.3-.26.46-.61.46-1.04s-.15-.79-.46-1.04c-.3-.26-.71-.38-1.22-.38s-.91.14-1.23.41c-.32.27-.47.62-.47,1.03s.15.75.46,1.01c.31.27.73.4,1.28.4.49,0,.88-.13,1.19-.39Z"/>
      <path class="cls-2" d="M306.09,129.75c.24.34.35.74.35,1.19,0,.51-.14.96-.43,1.34-.28.38-.69.68-1.21.88-.52.2-1.12.31-1.81.31s-1.29-.1-1.81-.31c-.52-.2-.91-.5-1.19-.88-.28-.38-.42-.83-.42-1.34,0-.46.12-.85.35-1.19.23-.34.56-.61,1-.81-.34-.18-.59-.43-.77-.73-.18-.3-.27-.65-.27-1.04,0-.47.13-.88.39-1.24.26-.35.63-.62,1.1-.82.47-.19,1.02-.29,1.63-.29s1.17.1,1.64.29c.47.19.84.46,1.1.82.26.35.4.76.4,1.24,0,.39-.09.74-.28,1.03-.18.3-.45.54-.79.73.44.2.78.47,1.01.81ZM304.36,131.9c.34-.24.5-.57.5-1s-.17-.74-.5-.98c-.34-.24-.79-.36-1.37-.36s-1.03.12-1.36.36c-.33.24-.49.57-.49.98s.16.76.49,1,.78.36,1.36.36,1.03-.12,1.37-.36ZM301.84,126.38c-.28.21-.43.5-.43.88s.14.65.43.86c.28.21.67.32,1.16.32s.89-.11,1.18-.32.43-.5.43-.86-.15-.67-.44-.88c-.29-.21-.68-.31-1.17-.31s-.87.1-1.16.31Z"/>
      <path class="cls-2" d="M309.15,132.97c-.53-.34-.94-.84-1.25-1.49-.3-.65-.46-1.43-.46-2.32s.15-1.67.46-2.32c.3-.65.72-1.15,1.25-1.49.53-.34,1.13-.51,1.8-.51s1.27.17,1.81.51c.53.34.95.84,1.25,1.49.3.65.46,1.43.46,2.32s-.15,1.67-.46,2.32c-.3.65-.72,1.15-1.25,1.49-.53.34-1.13.51-1.81.51s-1.27-.17-1.8-.51ZM312.37,131.38c.35-.5.52-1.24.52-2.22s-.17-1.72-.52-2.22c-.35-.5-.82-.74-1.42-.74s-1.06.25-1.41.74c-.35.5-.52,1.24-.52,2.22s.17,1.72.52,2.22c.35.5.82.74,1.41.74s1.07-.25,1.42-.74Z"/>
      <path class="cls-2" d="M321.74,124.96v8.4h-1.56v-7.09h-1.78v-1.31h3.34Z"/>
      <path class="cls-2" d="M329.74,124.96v1.04l-3.26,7.36h-1.67l3.16-7.08h-3.3v1.43h-1.45v-2.75h6.53Z"/>
    </g>
    <rect class="cls-1" x="233.48" width="2" height="150"/>
  </g>
  <g>
    <path class="cls-2" d="M16.48,64.28h4.26v14.93h9.23v3.47h-13.48v-18.4Z"/>
    <path class="cls-2" d="M45.73,76.76h-10.7c.19.88.65,1.57,1.37,2.08.72.51,1.61.76,2.68.76.74,0,1.39-.11,1.96-.33.57-.22,1.1-.56,1.59-1.04l2.18,2.37c-1.33,1.52-3.28,2.29-5.84,2.29-1.59,0-3.01-.31-4.23-.93s-2.17-1.49-2.84-2.59c-.67-1.1-1-2.36-1-3.76s.33-2.63.99-3.75c.66-1.11,1.56-1.98,2.71-2.6s2.43-.93,3.85-.93,2.64.3,3.76.89c1.12.6,2,1.45,2.64,2.56.64,1.11.96,2.41.96,3.88,0,.05-.03.42-.08,1.1ZM36.14,72.21c-.63.53-1.02,1.24-1.16,2.16h6.97c-.14-.89-.53-1.61-1.16-2.14-.63-.53-1.4-.8-2.31-.8s-1.71.26-2.34.79Z"/>
    <path class="cls-2" d="M68.48,65.09c1.2.54,2.12,1.31,2.77,2.31.65,1,.97,2.18.97,3.55s-.32,2.53-.97,3.54c-.65,1.01-1.57,1.78-2.77,2.31-1.2.54-2.62.8-4.25.8h-3.71v5.07h-4.26v-18.4h7.96c1.63,0,3.04.27,4.25.81ZM66.92,73.3c.67-.55,1-1.34,1-2.35s-.33-1.83-1-2.38-1.64-.83-2.92-.83h-3.47v6.39h3.47c1.28,0,2.25-.28,2.92-.83Z"/>
    <path class="cls-2" d="M80.86,68.85c.83-.35,1.79-.53,2.88-.53v3.79c-.46-.03-.76-.05-.92-.05-1.17,0-2.09.33-2.76.99-.67.66-1,1.64-1,2.96v6.68h-4.1v-14.14h3.92v1.87c.49-.68,1.15-1.2,1.98-1.55Z"/>
    <path class="cls-2" d="M96.86,69.89c1.17,1.04,1.76,2.62,1.76,4.72v8.07h-3.84v-1.76c-.77,1.31-2.21,1.97-4.31,1.97-1.09,0-2.03-.18-2.83-.55s-1.41-.88-1.83-1.52-.63-1.38-.63-2.21c0-1.31.49-2.35,1.48-3.1.99-.75,2.52-1.13,4.59-1.13h3.26c0-.89-.27-1.58-.81-2.06-.54-.48-1.36-.72-2.44-.72-.75,0-1.49.12-2.22.35-.73.24-1.35.56-1.85.96l-1.47-2.87c.77-.54,1.7-.96,2.77-1.26s2.19-.45,3.33-.45c2.19,0,3.87.52,5.05,1.56ZM93.36,79.64c.54-.32.93-.8,1.16-1.43v-1.45h-2.81c-1.68,0-2.52.55-2.52,1.66,0,.53.21.94.62,1.25.41.31.98.46,1.7.46s1.32-.16,1.87-.49Z"/>
    <path class="cls-2" d="M102.33,63.17h4.1v19.5h-4.1v-19.5Z"/>
    <path class="cls-2" d="M110.45,65.9c-.47-.44-.71-.98-.71-1.63s.24-1.19.71-1.63c.47-.44,1.09-.66,1.84-.66s1.37.21,1.84.63c.47.42.71.95.71,1.58,0,.68-.24,1.25-.71,1.7-.47.45-1.09.67-1.84.67s-1.37-.22-1.84-.66ZM110.24,68.53h4.1v14.14h-4.1v-14.14Z"/>
    <path class="cls-2" d="M130.99,69.9c1.08,1.05,1.62,2.61,1.62,4.68v8.1h-4.1v-7.46c0-1.12-.25-1.96-.74-2.51s-1.2-.83-2.13-.83c-1.03,0-1.86.32-2.47.96s-.92,1.59-.92,2.85v6.99h-4.1v-14.14h3.92v1.66c.54-.59,1.22-1.06,2.02-1.38.81-.32,1.69-.49,2.65-.49,1.75,0,3.17.53,4.25,1.58Z"/>
    <path class="cls-2" d="M139.6,63.66c.47.46.71,1.07.71,1.83,0,.35-.04.7-.13,1.05-.09.35-.27.88-.55,1.58l-1.52,3.79h-2.6l1.13-4.15c-.44-.19-.78-.48-1.02-.87-.25-.39-.37-.85-.37-1.39,0-.75.24-1.36.72-1.83.48-.46,1.09-.7,1.83-.7s1.34.23,1.81.7Z"/>
    <path class="cls-2" d="M155.94,69.9c1.08,1.05,1.62,2.61,1.62,4.68v8.1h-4.1v-7.46c0-1.12-.25-1.96-.74-2.51s-1.2-.83-2.13-.83c-1.03,0-1.86.32-2.47.96s-.92,1.59-.92,2.85v6.99h-4.1v-14.14h3.92v1.66c.54-.59,1.22-1.06,2.02-1.38.81-.32,1.69-.49,2.65-.49,1.75,0,3.17.53,4.25,1.58Z"/>
    <path class="cls-2" d="M164.14,81.95c-1.18-.62-2.11-1.49-2.77-2.59-.67-1.1-1-2.36-1-3.76s.33-2.65,1-3.76c.67-1.1,1.59-1.97,2.77-2.59,1.18-.62,2.52-.93,4.01-.93s2.82.31,4,.93,2.09,1.49,2.76,2.59c.67,1.1,1,2.36,1,3.76s-.33,2.66-1,3.76c-.67,1.1-1.59,1.97-2.76,2.59s-2.51.93-4,.93-2.83-.31-4.01-.93ZM170.74,78.46c.67-.71,1.01-1.66,1.01-2.85s-.34-2.14-1.01-2.85c-.67-.71-1.54-1.06-2.59-1.06s-1.92.35-2.6,1.06-1.03,1.66-1.03,2.85.34,2.14,1.03,2.85,1.55,1.06,2.6,1.06,1.91-.35,2.59-1.06Z"/>
    <path class="cls-2" d="M178.84,65.9c-.47-.44-.71-.98-.71-1.63s.24-1.19.71-1.63c.47-.44,1.09-.66,1.84-.66s1.37.21,1.84.63c.47.42.71.95.71,1.58,0,.68-.24,1.25-.71,1.7-.47.45-1.09.67-1.84.67s-1.37-.22-1.84-.66ZM178.63,68.53h4.1v14.14h-4.1v-14.14Z"/>
    <path class="cls-2" d="M195.54,82.68l-3.1-4.34-3.21,4.34h-4.47l5.44-7.12-5.26-7.02h4.6l3,4.13,3.08-4.13h4.36l-5.26,6.91,5.47,7.23h-4.65Z"/>
  </g>
</svg>