<?xml version="1.0" encoding="UTF-8"?>
<svg xmlns="http://www.w3.org/2000/svg" version="1.1" xmlns:xlink="http://www.w3.org/1999/xlink" viewBox="0 0 522 150">
  <defs>
    <radialGradient id="radial-gradient" cx="108.203" cy="63.029" fx="128.173" fy="63.029" r="20.598" gradientTransform="translate(0 10.782) scale(1 .829)" gradientUnits="userSpaceOnUse">
      <stop offset=".002" stop-color="#fff" stop-opacity=".1"/>
      <stop offset=".328" stop-color="#fff" stop-opacity="0"/>
      <stop offset=".624" stop-color="#24353f"/>
      <stop offset=".85" stop-color="#24353f" stop-opacity=".2"/>
    </radialGradient>
    <radialGradient id="radial-gradient-2" cx="104.879" cy="65.883" fx="85.949" fy="65.883" r="19.012" gradientUnits="userSpaceOnUse">
      <stop offset=".184" stop-color="#24353f" stop-opacity="0"/>
      <stop offset=".231" stop-color="rgba(66, 81, 89, .14)" stop-opacity=".14"/>
      <stop offset=".313" stop-color="rgba(115, 126, 133, .365)" stop-opacity=".365"/>
      <stop offset=".395" stop-color="rgba(158, 165, 170, .559)" stop-opacity=".559"/>
      <stop offset=".475" stop-color="rgba(193, 197, 200, .718)" stop-opacity=".718"/>
      <stop offset=".554" stop-color="rgba(220, 222, 224, .841)" stop-opacity=".841"/>
      <stop offset=".63" stop-color="rgba(239, 240, 241, .929)" stop-opacity=".929"/>
      <stop offset=".702" stop-color="rgba(251, 251, 251, .982)" stop-opacity=".982"/>
      <stop offset=".766" stop-color="#fff"/>
    </radialGradient>
    <radialGradient id="radial-gradient-3" cx="94.639" cy="53.246" fx="94.639" fy="53.246" r="37.453" gradientTransform="translate(55.915 -40.602) rotate(46.357) scale(1 .69)" gradientUnits="userSpaceOnUse">
      <stop offset="0" stop-color="#24353f"/>
      <stop offset=".08" stop-color="#24353f"/>
      <stop offset=".262" stop-color="#24353f" stop-opacity=".3"/>
      <stop offset=".785" stop-color="#fff" stop-opacity=".996"/>
      <stop offset="1" stop-color="#fff"/>
    </radialGradient>
    <radialGradient id="radial-gradient-4" cx="97.508" cy="38.839" fx="97.508" fy="38.839" r="45.589" gradientTransform="translate(77.75 -62.913) rotate(59.184) scale(1 .905)" gradientUnits="userSpaceOnUse">
      <stop offset=".568" stop-color="#24353f"/>
      <stop offset=".915" stop-color="#ededed"/>
      <stop offset="1" stop-color="#fff"/>
    </radialGradient>
    <radialGradient id="radial-gradient-5" cx="119.01" cy="38.609" fx="103.392" fy="1.124" r="40.609" gradientTransform="translate(39.518 130.135) rotate(-60) scale(1 .598)" gradientUnits="userSpaceOnUse">
      <stop offset=".079" stop-color="#fff" stop-opacity="0"/>
      <stop offset=".719" stop-color="#24353f" stop-opacity=".693"/>
      <stop offset=".924" stop-color="#fff"/>
    </radialGradient>
    <radialGradient id="radial-gradient-6" cx="-53.395" cy="75.224" fx="-53.395" fy="75.224" r="21.865" gradientTransform="translate(88.843 .402) rotate(-138.458) scale(1 -.7)" gradientUnits="userSpaceOnUse">
      <stop offset=".487" stop-color="#9d9d9c" stop-opacity="0"/>
      <stop offset=".755" stop-color="#24353f"/>
      <stop offset=".952" stop-color="#fff"/>
    </radialGradient>
    <radialGradient id="radial-gradient-7" cx="105.957" cy="55.708" fx="105.957" fy="55.708" r="13.188" gradientTransform="translate(0 -80.625) scale(1 2.447)" gradientUnits="userSpaceOnUse">
      <stop offset=".053" stop-color="#24353f" stop-opacity="0"/>
      <stop offset=".388" stop-color="#24353f" stop-opacity="0"/>
      <stop offset=".574" stop-color="#fff"/>
      <stop offset="1" stop-color="#fff"/>
    </radialGradient>
  </defs>
  <g isolation="isolate">
    <g id="Calque_1" data-name="Calque 1">
      <g>
        <path d="M251.279,31.831h-4.9l-.966,2.268h-1.876l4.41-9.8h1.792l4.424,9.8h-1.904l-.979-2.268ZM250.677,30.402l-1.848-4.284-1.834,4.284h3.682Z" fill="#000" stroke-width="0"/>
        <path d="M255.409,24.299h1.82v8.26h5.124v1.54h-6.944v-9.8Z" fill="#000" stroke-width="0"/>
        <path d="M264.873,25.839h-3.248v-1.54h8.316v1.54h-3.248v8.26h-1.82v-8.26Z" fill="#000" stroke-width="0"/>
        <path d="M278.663,32.572v1.526h-7.351v-9.8h7.154v1.525h-5.334v2.549h4.732v1.498h-4.732v2.701h5.53Z" fill="#000" stroke-width="0"/>
        <path d="M287.105,34.099l-2.002-2.87c-.084.01-.211.014-.379.014h-2.212v2.856h-1.819v-9.8h4.031c.85,0,1.59.14,2.219.42.631.28,1.113.682,1.449,1.204s.504,1.144.504,1.861c0,.738-.18,1.372-.539,1.904s-.875.929-1.547,1.19l2.254,3.22h-1.959ZM286.447,26.343c-.411-.336-1.014-.504-1.807-.504h-2.128v3.906h2.128c.793,0,1.396-.171,1.807-.512.41-.341.615-.823.615-1.449s-.205-1.105-.615-1.441Z" fill="#000" stroke-width="0"/>
        <path d="M302.141,32.572v1.526h-7.351v-9.8h7.154v1.525h-5.334v2.549h4.731v1.498h-4.731v2.701h5.53Z" fill="#000" stroke-width="0"/>
        <path d="M310.82,29.087h1.723v3.905c-.504.401-1.093.71-1.765.925-.672.214-1.362.321-2.071.321-.999,0-1.9-.217-2.703-.65-.803-.435-1.432-1.034-1.89-1.799-.457-.766-.686-1.629-.686-2.591s.229-1.824.686-2.59c.458-.765,1.09-1.365,1.897-1.799.807-.434,1.715-.651,2.723-.651.821,0,1.568.136,2.24.406s1.236.668,1.693,1.19l-1.147,1.12c-.747-.747-1.647-1.12-2.702-1.12-.69,0-1.305.145-1.841.434-.537.29-.957.695-1.26,1.218-.304.523-.455,1.12-.455,1.792,0,.653.151,1.242.455,1.765.303.522.723.934,1.26,1.231.536.299,1.146.448,1.827.448.765,0,1.438-.168,2.016-.504v-3.052Z" fill="#000" stroke-width="0"/>
        <path d="M316.812,33.588c-.803-.435-1.433-1.036-1.891-1.807-.457-.77-.686-1.631-.686-2.583s.229-1.812.686-2.583c.458-.77,1.088-1.372,1.891-1.806s1.703-.651,2.702-.651,1.899.218,2.702.651,1.432,1.034,1.89,1.799c.457.766.687,1.629.687,2.59s-.229,1.825-.687,2.591c-.458.765-1.087,1.364-1.89,1.799-.803.434-1.704.65-2.702.65s-1.899-.217-2.702-.65ZM321.278,32.201c.522-.294.934-.704,1.231-1.231.299-.527.448-1.118.448-1.771s-.149-1.243-.448-1.771c-.298-.527-.709-.938-1.231-1.232s-1.11-.44-1.764-.44-1.241.146-1.765.44c-.522.294-.934.705-1.231,1.232-.299.527-.448,1.118-.448,1.771s.149,1.244.448,1.771c.298.527.709.938,1.231,1.231.523.295,1.111.441,1.765.441s1.241-.146,1.764-.441Z" fill="#000" stroke-width="0"/>
        <path d="M327.571,33.917c-.705-.215-1.263-.5-1.673-.854l.63-1.414c.401.317.894.576,1.477.777.583.2,1.169.301,1.757.301.729,0,1.271-.116,1.632-.35.358-.233.538-.542.538-.925,0-.279-.1-.511-.301-.692-.2-.183-.455-.324-.763-.427s-.728-.22-1.26-.351c-.747-.177-1.351-.354-1.813-.532-.462-.177-.858-.454-1.189-.833-.332-.378-.497-.889-.497-1.532,0-.542.146-1.034.44-1.478.295-.443.737-.795,1.33-1.057s1.318-.393,2.178-.393c.597,0,1.185.075,1.764.225.578.149,1.078.364,1.498.644l-.574,1.414c-.43-.252-.877-.443-1.344-.574-.467-.13-.92-.195-1.358-.195-.719,0-1.253.121-1.603.363-.351.243-.525.565-.525.967,0,.279.101.509.301.686.201.178.455.317.764.42.308.103.728.22,1.26.351.729.168,1.325.343,1.792.524.467.183.865.46,1.197.833.331.374.497.878.497,1.512,0,.542-.147,1.032-.441,1.471s-.74.788-1.337,1.05c-.598.261-1.325.392-2.185.392-.756,0-1.486-.107-2.19-.321Z" fill="#000" stroke-width="0"/>
        <path d="M338.848,29.478h3.851v1.456h-3.851v-1.456Z" fill="#000" stroke-width="0"/>
        <path d="M355.396,30.48c.28.356.42.807.42,1.351,0,.728-.273,1.288-.821,1.68-.549.392-1.347.588-2.395.588h-4.008v-8.4h3.768c.961,0,1.702.192,2.227.576.523.384.786.916.786,1.597,0,.439-.103.819-.307,1.14s-.478.563-.821.731c.487.137.871.383,1.151.738ZM349.792,26.671v2.688h2.46c.615,0,1.09-.113,1.422-.342.332-.228.498-.562.498-1.002s-.166-.774-.498-1.002c-.332-.229-.807-.342-1.422-.342h-2.46ZM354.088,32.791c.344-.225.516-.576.516-1.057,0-.936-.684-1.403-2.052-1.403h-2.76v2.796h2.76c.68,0,1.192-.112,1.536-.336Z" fill="#000" stroke-width="0"/>
        <path d="M361.846,28.326c.468.433.702,1.076.702,1.933v3.84h-1.092v-.84c-.192.296-.466.521-.822.678s-.778.234-1.267.234c-.711,0-1.281-.172-1.709-.517-.429-.344-.643-.796-.643-1.355s.204-1.01.612-1.351c.408-.34,1.056-.51,1.944-.51h1.823v-.228c0-.496-.144-.876-.432-1.141-.288-.264-.712-.396-1.272-.396-.376,0-.744.062-1.104.186-.36.124-.664.29-.912.498l-.48-.863c.328-.265.721-.467,1.177-.606s.939-.21,1.452-.21c.879,0,1.554.216,2.021.647ZM360.699,32.988c.32-.195.553-.474.696-.834v-.888h-1.775c-.977,0-1.464.328-1.464.984,0,.319.123.571.371.756.248.184.592.275,1.032.275s.82-.098,1.14-.294Z" fill="#000" stroke-width="0"/>
        <path d="M366.676,27.967c.392-.192.867-.288,1.428-.288v1.116c-.064-.008-.152-.013-.264-.013-.624,0-1.114.187-1.471.559-.355.372-.533.902-.533,1.59v3.168h-1.152v-6.36h1.104v1.068c.2-.368.496-.648.889-.84Z" fill="#000" stroke-width="0"/>
        <path d="M377.17,28.326c.468.433.701,1.076.701,1.933v3.84h-1.092v-.84c-.191.296-.466.521-.822.678-.355.156-.777.234-1.266.234-.712,0-1.282-.172-1.71-.517-.428-.344-.642-.796-.642-1.355s.203-1.01.611-1.351c.408-.34,1.057-.51,1.944-.51h1.824v-.228c0-.496-.145-.876-.433-1.141-.287-.264-.712-.396-1.271-.396-.376,0-.744.062-1.104.186-.36.124-.665.29-.912.498l-.48-.863c.328-.265.72-.467,1.176-.606s.94-.21,1.452-.21c.88,0,1.554.216,2.022.647ZM373.035,25.255h1.465l1.632,1.56h-1.08l-2.017-1.56ZM376.023,32.988c.32-.195.552-.474.696-.834v-.888h-1.776c-.977,0-1.464.328-1.464.984,0,.319.124.571.372.756.248.184.592.275,1.032.275s.819-.098,1.14-.294Z" fill="#000" stroke-width="0"/>
        <path d="M388.264,28.087c.487.271.869.651,1.146,1.14s.414,1.052.414,1.692-.138,1.206-.414,1.697c-.276.492-.658.875-1.146,1.146-.488.272-1.041.408-1.656.408-.473,0-.904-.092-1.296-.276-.393-.184-.716-.452-.972-.804v1.008h-1.104v-8.904h1.151v3.504c.257-.336.576-.59.961-.762.384-.172.804-.258,1.26-.258.615,0,1.168.136,1.656.408ZM387.609,32.881c.324-.188.58-.452.768-.792.188-.34.282-.73.282-1.17s-.094-.83-.282-1.17c-.188-.34-.443-.603-.768-.786-.324-.185-.69-.276-1.098-.276-.4,0-.765.092-1.093.276-.328.184-.584.446-.768.786-.185.34-.276.729-.276,1.17s.092.83.276,1.17c.184.34.439.604.768.792.328.188.692.282,1.093.282.407,0,.773-.095,1.098-.282Z" fill="#000" stroke-width="0"/>
        <path d="M391.438,26.299c-.148-.145-.223-.32-.223-.528s.074-.386.223-.534c.147-.147.334-.222.558-.222s.41.07.558.21c.148.14.223.314.223.522,0,.216-.074.397-.223.546-.147.147-.334.222-.558.222s-.41-.072-.558-.216ZM391.419,27.738h1.152v6.36h-1.152v-6.36Z" fill="#000" stroke-width="0"/>
        <path d="M400.491,31.303h-5.16c.072.56.318,1.01.738,1.35.42.341.941.511,1.565.511.76,0,1.372-.257,1.836-.769l.637.744c-.288.336-.646.592-1.074.768-.428.177-.906.265-1.434.265-.673,0-1.269-.139-1.789-.414-.52-.276-.922-.662-1.205-1.158-.284-.496-.427-1.056-.427-1.68,0-.616.139-1.172.414-1.668.276-.496.656-.883,1.141-1.158.483-.276,1.029-.414,1.638-.414s1.15.138,1.626.414c.476.275.848.662,1.116,1.158.268.496.402,1.063.402,1.704,0,.088-.009.203-.024.348ZM395.163,25.255h1.464l1.632,1.56h-1.08l-2.016-1.56ZM395.985,29.154c-.372.336-.591.776-.654,1.32h4.08c-.064-.536-.282-.974-.654-1.314-.372-.34-.834-.51-1.386-.51s-1.014.168-1.386.504Z" fill="#000" stroke-width="0"/>
        <path d="M404.104,27.967c.392-.192.867-.288,1.428-.288v1.116c-.064-.008-.152-.013-.264-.013-.625,0-1.115.187-1.471.559s-.534.902-.534,1.59v3.168h-1.151v-6.36h1.104v1.068c.2-.368.496-.648.889-.84Z" fill="#000" stroke-width="0"/>
        <path d="M412.611,31.303h-5.16c.072.56.318,1.01.738,1.35.42.341.941.511,1.565.511.76,0,1.372-.257,1.836-.769l.636.744c-.287.336-.646.592-1.074.768-.428.177-.905.265-1.434.265-.672,0-1.268-.139-1.788-.414-.52-.276-.922-.662-1.206-1.158-.283-.496-.426-1.056-.426-1.68,0-.616.139-1.172.414-1.668.276-.496.656-.883,1.141-1.158.483-.276,1.029-.414,1.638-.414s1.149.138,1.626.414c.476.275.848.662,1.115,1.158.269.496.402,1.063.402,1.704,0,.088-.008.203-.023.348ZM408.105,29.154c-.373.336-.591.776-.654,1.32h4.08c-.064-.536-.282-.974-.654-1.314-.372-.34-.834-.51-1.386-.51s-1.015.168-1.386.504Z" fill="#000" stroke-width="0"/>
        <path d="M414.555,33.961c-.479-.141-.855-.318-1.128-.534l.48-.912c.279.2.62.36,1.02.48.4.119.804.18,1.212.18,1.008,0,1.512-.288,1.512-.864,0-.192-.067-.344-.203-.456-.137-.111-.307-.193-.51-.246-.205-.052-.494-.109-.871-.174-.512-.08-.93-.172-1.254-.276-.323-.104-.602-.279-.834-.527-.231-.248-.348-.596-.348-1.044,0-.576.24-1.038.72-1.387.48-.348,1.124-.521,1.933-.521.424,0,.848.052,1.271.156.424.104.772.244,1.044.42l-.491.912c-.521-.336-1.133-.504-1.836-.504-.488,0-.86.08-1.116.239-.257.16-.384.372-.384.637,0,.208.071.371.215.491.145.12.322.208.535.265.211.056.51.12.894.191.512.089.926.183,1.242.282.315.101.586.271.81.51.224.24.336.576.336,1.009,0,.575-.246,1.033-.738,1.373-.491.341-1.162.511-2.01.511-.52,0-1.02-.07-1.5-.21Z" fill="#000" stroke-width="0"/>
        <path d="M429.195,31.303h-5.16c.072.56.318,1.01.738,1.35.42.341.941.511,1.565.511.76,0,1.372-.257,1.836-.769l.636.744c-.287.336-.646.592-1.074.768-.428.177-.905.265-1.434.265-.672,0-1.268-.139-1.788-.414-.52-.276-.922-.662-1.206-1.158-.283-.496-.426-1.056-.426-1.68,0-.616.139-1.172.414-1.668.276-.496.656-.883,1.141-1.158.483-.276,1.029-.414,1.638-.414s1.149.138,1.626.414c.476.275.848.662,1.115,1.158.269.496.402,1.063.402,1.704,0,.088-.008.203-.023.348ZM424.689,29.154c-.373.336-.591.776-.654,1.32h4.08c-.064-.536-.282-.974-.654-1.314-.372-.34-.834-.51-1.386-.51s-1.015.168-1.386.504Z" fill="#000" stroke-width="0"/>
        <path d="M434.391,33.727c-.168.145-.376.254-.624.33s-.504.114-.768.114c-.64,0-1.136-.172-1.488-.517-.353-.344-.528-.836-.528-1.476v-3.492h-1.08v-.948h1.08v-1.392h1.152v1.392h1.824v.948h-1.824v3.444c0,.344.086.607.258.792.172.184.418.275.738.275.352,0,.652-.1.9-.3l.359.828Z" fill="#000" stroke-width="0"/>
        <path d="M444.639,27.738l-2.784,6.36h-1.176l-2.784-6.36h1.2l2.185,5.101,2.231-5.101h1.128Z" fill="#000" stroke-width="0"/>
        <path d="M445.736,26.299c-.148-.145-.222-.32-.222-.528s.073-.386.222-.534c.148-.147.334-.222.559-.222s.409.07.558.21c.147.14.222.314.222.522,0,.216-.074.397-.222.546-.148.147-.334.222-.558.222s-.41-.072-.559-.216ZM445.719,27.738h1.151v6.36h-1.151v-6.36Z" fill="#000" stroke-width="0"/>
        <path d="M454.389,28.381c.476.468.714,1.154.714,2.058v3.66h-1.152v-3.528c0-.615-.147-1.08-.444-1.392-.296-.312-.72-.468-1.271-.468-.624,0-1.116.182-1.477.546-.359.364-.539.886-.539,1.565v3.276h-1.152v-6.36h1.104v.96c.232-.327.547-.579.942-.756.396-.176.846-.264,1.351-.264.808,0,1.449.234,1.926.702Z" fill="#000" stroke-width="0"/>
        <path d="M457.562,33.961c-.48-.141-.856-.318-1.128-.534l.479-.912c.28.2.62.36,1.021.48.399.119.804.18,1.212.18,1.008,0,1.512-.288,1.512-.864,0-.192-.068-.344-.203-.456-.137-.111-.307-.193-.511-.246-.204-.052-.494-.109-.87-.174-.512-.08-.93-.172-1.254-.276-.324-.104-.602-.279-.834-.527s-.348-.596-.348-1.044c0-.576.24-1.038.72-1.387.479-.348,1.124-.521,1.933-.521.424,0,.848.052,1.271.156.424.104.771.244,1.044.42l-.492.912c-.521-.336-1.132-.504-1.836-.504-.487,0-.86.08-1.116.239-.256.16-.384.372-.384.637,0,.208.072.371.216.491.145.12.322.208.534.265.212.056.511.12.894.191.513.089.927.183,1.242.282.316.101.586.271.811.51.224.24.336.576.336,1.009,0,.575-.246,1.033-.738,1.373-.492.341-1.162.511-2.01.511-.52,0-1.02-.07-1.5-.21Z" fill="#000" stroke-width="0"/>
        <path d="M250.219,49.999h-4.464l-.924,2.1h-1.236l3.804-8.4h1.188l3.816,8.4h-1.26l-.924-2.1ZM249.799,49.039l-1.812-4.116-1.812,4.116h3.624Z" fill="#000" stroke-width="0"/>
        <path d="M254.779,45.186v.552h1.848v.948h-1.824v5.412h-1.152v-5.412h-1.08v-.948h1.08v-.563c0-.632.184-1.132.552-1.5.368-.368.884-.552,1.548-.552.256,0,.496.031.72.096.224.064.416.156.576.276l-.348.876c-.265-.2-.561-.301-.889-.301-.688,0-1.032.372-1.032,1.116Z" fill="#000" stroke-width="0"/>
        <path d="M259.015,45.186v.552h1.849v.948h-1.824v5.412h-1.152v-5.412h-1.08v-.948h1.08v-.563c0-.632.184-1.132.552-1.5.368-.368.884-.552,1.548-.552.256,0,.496.031.72.096.224.064.416.156.576.276l-.348.876c-.264-.2-.56-.301-.888-.301-.688,0-1.032.372-1.032,1.116ZM262.933,44.299c-.147-.145-.222-.32-.222-.528s.074-.386.222-.534c.148-.147.334-.222.559-.222s.409.07.558.21.223.314.223.522c0,.216-.074.397-.223.546-.148.147-.334.222-.558.222s-.41-.072-.559-.216ZM262.915,45.738h1.151v6.36h-1.151v-6.36Z" fill="#000" stroke-width="0"/>
        <path d="M266.263,43.194h1.151v8.904h-1.151v-8.904Z" fill="#000" stroke-width="0"/>
        <path d="M269.629,44.299c-.148-.145-.223-.32-.223-.528s.074-.386.223-.534c.147-.147.334-.222.558-.222s.41.07.558.21c.148.14.223.314.223.522,0,.216-.074.397-.223.546-.147.147-.334.222-.558.222s-.41-.072-.558-.216ZM269.61,45.738h1.152v6.36h-1.152v-6.36Z" fill="#000" stroke-width="0"/>
        <path d="M278.683,49.303h-5.16c.072.56.318,1.01.738,1.35.42.341.941.511,1.565.511.76,0,1.372-.257,1.836-.769l.637.744c-.288.336-.646.592-1.074.768-.428.177-.906.265-1.434.265-.673,0-1.269-.139-1.789-.414-.52-.276-.922-.662-1.205-1.158-.284-.496-.427-1.056-.427-1.68,0-.616.139-1.172.414-1.668.276-.496.656-.883,1.141-1.158.483-.276,1.029-.414,1.638-.414s1.15.138,1.626.414c.476.275.848.662,1.116,1.158.268.496.402,1.063.402,1.704,0,.088-.009.203-.024.348ZM274.177,47.154c-.372.336-.591.776-.654,1.32h4.08c-.064-.536-.282-.974-.654-1.314-.372-.34-.834-.51-1.386-.51s-1.014.168-1.386.504ZM276.282,43.255h1.464l-2.016,1.56h-1.08l1.632-1.56Z" fill="#000" stroke-width="0"/>
        <path d="M287.868,46.326c.468.433.702,1.076.702,1.933v3.84h-1.092v-.84c-.192.296-.466.521-.822.678-.355.156-.777.234-1.266.234-.712,0-1.282-.172-1.71-.517-.429-.344-.642-.796-.642-1.355s.203-1.01.611-1.351c.408-.34,1.057-.51,1.944-.51h1.823v-.228c0-.496-.144-.876-.432-1.141-.288-.264-.712-.396-1.271-.396-.377,0-.744.062-1.104.186s-.664.29-.912.498l-.479-.863c.328-.265.72-.467,1.176-.606s.939-.21,1.452-.21c.88,0,1.554.216,2.021.647ZM283.734,43.255h1.464l1.632,1.56h-1.08l-2.016-1.56ZM286.723,50.988c.319-.195.552-.474.695-.834v-.888h-1.775c-.977,0-1.464.328-1.464.984,0,.319.124.571.372.756.248.184.592.275,1.031.275s.82-.098,1.141-.294Z" fill="#000" stroke-width="0"/>
        <path d="M293.935,43.194h1.151v8.904h-1.151v-8.904Z" fill="#000" stroke-width="0"/>
        <path d="M301.62,46.326c.468.433.702,1.076.702,1.933v3.84h-1.092v-.84c-.192.296-.467.521-.822.678-.356.156-.778.234-1.266.234-.713,0-1.282-.172-1.711-.517-.428-.344-.642-.796-.642-1.355s.204-1.01.612-1.351c.408-.34,1.056-.51,1.943-.51h1.824v-.228c0-.496-.144-.876-.432-1.141-.288-.264-.712-.396-1.272-.396-.376,0-.743.062-1.104.186s-.664.29-.912.498l-.479-.863c.327-.265.72-.467,1.176-.606s.939-.21,1.451-.21c.881,0,1.555.216,2.022.647ZM300.475,50.988c.319-.195.552-.474.695-.834v-.888h-1.775c-.977,0-1.465.328-1.465.984,0,.319.125.571.373.756.247.184.592.275,1.031.275s.82-.098,1.141-.294Z" fill="#000" stroke-width="0"/>
        <path d="M309.336,51.637c-.676-.372-1.206-.884-1.59-1.536s-.576-1.386-.576-2.202.192-1.55.576-2.202c.384-.651.916-1.164,1.596-1.536.681-.371,1.44-.558,2.28-.558.656,0,1.256.11,1.8.33s1.008.546,1.393.978l-.78.757c-.632-.664-1.42-.996-2.364-.996-.624,0-1.188.14-1.691.42s-.898.666-1.183,1.158c-.284.491-.426,1.042-.426,1.649s.142,1.158.426,1.65.679.878,1.183,1.158c.504.279,1.067.42,1.691.42.937,0,1.725-.336,2.364-1.009l.78.757c-.385.432-.851.76-1.398.983-.548.225-1.15.336-1.806.336-.84,0-1.599-.186-2.274-.558Z" fill="#000" stroke-width="0"/>
        <path d="M320.616,46.326c.468.433.702,1.076.702,1.933v3.84h-1.092v-.84c-.192.296-.467.521-.822.678-.356.156-.778.234-1.267.234-.712,0-1.282-.172-1.71-.517-.428-.344-.642-.796-.642-1.355s.204-1.01.612-1.351c.408-.34,1.056-.51,1.943-.51h1.824v-.228c0-.496-.145-.876-.432-1.141-.288-.264-.713-.396-1.272-.396-.376,0-.744.062-1.104.186-.36.124-.665.29-.912.498l-.48-.863c.328-.265.72-.467,1.177-.606.455-.14.939-.21,1.451-.21.88,0,1.555.216,2.022.647ZM319.47,50.988c.32-.195.552-.474.696-.834v-.888h-1.775c-.977,0-1.465.328-1.465.984,0,.319.124.571.372.756.248.184.592.275,1.032.275s.82-.098,1.14-.294Z" fill="#000" stroke-width="0"/>
        <path d="M328.962,45.738l-2.784,6.36h-1.176l-2.783-6.36h1.199l2.185,5.101,2.231-5.101h1.128Z" fill="#000" stroke-width="0"/>
        <path d="M335.586,49.303h-5.16c.072.56.318,1.01.738,1.35.42.341.941.511,1.566.511.76,0,1.371-.257,1.836-.769l.636.744c-.288.336-.646.592-1.074.768-.428.177-.906.265-1.434.265-.673,0-1.269-.139-1.788-.414-.521-.276-.922-.662-1.206-1.158s-.427-1.056-.427-1.68c0-.616.139-1.172.414-1.668.276-.496.656-.883,1.141-1.158.484-.276,1.029-.414,1.638-.414s1.15.138,1.626.414c.477.275.848.662,1.116,1.158s.402,1.063.402,1.704c0,.088-.009.203-.024.348ZM331.08,47.154c-.372.336-.59.776-.654,1.32h4.08c-.064-.536-.281-.974-.654-1.314-.371-.34-.834-.51-1.386-.51s-1.014.168-1.386.504Z" fill="#000" stroke-width="0"/>
        <path d="M346.434,43.194v8.904h-1.104v-1.008c-.256.352-.58.62-.972.804-.393.185-.824.276-1.296.276-.617,0-1.169-.136-1.656-.408-.488-.271-.87-.654-1.146-1.146-.275-.491-.414-1.058-.414-1.697s.139-1.204.414-1.692c.276-.488.658-.868,1.146-1.14.487-.272,1.039-.408,1.656-.408.455,0,.875.086,1.26.258.384.172.703.426.96.762v-3.504h1.151ZM344.25,50.881c.328-.188.584-.452.768-.792.185-.34.276-.73.276-1.17s-.092-.83-.276-1.17c-.184-.34-.439-.603-.768-.786-.328-.185-.692-.276-1.092-.276-.408,0-.774.092-1.098.276-.324.184-.58.446-.769.786s-.282.729-.282,1.17.094.83.282,1.17.444.604.769.792c.323.188.689.282,1.098.282.399,0,.764-.095,1.092-.282Z" fill="#000" stroke-width="0"/>
        <path d="M354.342,49.303h-5.16c.072.56.318,1.01.738,1.35.42.341.941.511,1.566.511.76,0,1.371-.257,1.836-.769l.636.744c-.288.336-.646.592-1.074.768-.428.177-.906.265-1.434.265-.673,0-1.269-.139-1.788-.414-.521-.276-.922-.662-1.206-1.158s-.427-1.056-.427-1.68c0-.616.139-1.172.414-1.668.276-.496.656-.883,1.141-1.158.484-.276,1.029-.414,1.638-.414s1.15.138,1.626.414c.477.275.848.662,1.116,1.158s.402,1.063.402,1.704c0,.088-.009.203-.024.348ZM349.836,47.154c-.372.336-.59.776-.654,1.32h4.08c-.064-.536-.281-.974-.654-1.314-.371-.34-.834-.51-1.386-.51s-1.014.168-1.386.504Z" fill="#000" stroke-width="0"/>
        <path d="M359.357,43.698h1.2v7.356h4.548v1.044h-5.748v-8.4Z" fill="#000" stroke-width="0"/>
        <path d="M370.691,46.326c.469.433.702,1.076.702,1.933v3.84h-1.092v-.84c-.192.296-.466.521-.822.678s-.778.234-1.266.234c-.712,0-1.282-.172-1.71-.517-.428-.344-.643-.796-.643-1.355s.204-1.01.612-1.351c.408-.34,1.056-.51,1.944-.51h1.824v-.228c0-.496-.145-.876-.433-1.141-.288-.264-.712-.396-1.272-.396-.375,0-.743.062-1.104.186-.359.124-.664.29-.912.498l-.479-.863c.327-.265.72-.467,1.176-.606s.94-.21,1.452-.21c.88,0,1.554.216,2.021.647ZM369.546,50.988c.319-.195.552-.474.696-.834v-.888h-1.776c-.977,0-1.464.328-1.464.984,0,.319.124.571.372.756.247.184.592.275,1.032.275s.819-.098,1.14-.294Z" fill="#000" stroke-width="0"/>
        <path d="M382.77,44.478c.624.521.936,1.236.936,2.148s-.312,1.628-.936,2.147c-.624.521-1.48.78-2.568.78h-2.076v2.544h-1.199v-8.4h3.275c1.088,0,1.944.261,2.568.78ZM381.905,48.024c.4-.324.601-.79.601-1.397s-.2-1.074-.601-1.398c-.399-.324-.979-.486-1.739-.486h-2.041v3.769h2.041c.76,0,1.34-.162,1.739-.486Z" fill="#000" stroke-width="0"/>
        <path d="M386.298,51.751c-.505-.28-.898-.666-1.183-1.158-.283-.492-.426-1.05-.426-1.674s.143-1.183.426-1.674c.284-.492.678-.877,1.183-1.152.504-.276,1.071-.414,1.704-.414s1.197.138,1.697.414c.5.275.893.66,1.176,1.152.284.491.427,1.05.427,1.674s-.143,1.182-.427,1.674c-.283.492-.676.878-1.176,1.158-.5.279-1.066.42-1.697.42s-1.2-.141-1.704-.42ZM389.1,50.881c.324-.188.578-.452.762-.792s.276-.73.276-1.17-.093-.83-.276-1.17-.438-.603-.762-.786c-.324-.185-.689-.276-1.098-.276s-.774.092-1.099.276c-.323.184-.58.446-.768.786-.188.34-.282.729-.282,1.17s.094.83.282,1.17c.188.34.444.604.768.792.324.188.69.282,1.099.282s.773-.095,1.098-.282Z" fill="#000" stroke-width="0"/>
        <path d="M394.89,45.967c.392-.192.868-.288,1.428-.288v1.116c-.064-.008-.152-.013-.264-.013-.624,0-1.114.187-1.47.559-.356.372-.535.902-.535,1.59v3.168h-1.151v-6.36h1.104v1.068c.199-.368.495-.648.888-.84Z" fill="#000" stroke-width="0"/>
        <path d="M401.573,51.727c-.168.145-.376.254-.624.33s-.504.114-.768.114c-.641,0-1.137-.172-1.488-.517-.353-.344-.528-.836-.528-1.476v-3.492h-1.08v-.948h1.08v-1.392h1.152v1.392h1.824v.948h-1.824v3.444c0,.344.086.607.258.792.172.184.418.275.738.275.352,0,.651-.1.899-.3l.36.828Z" fill="#000" stroke-width="0"/>
        <path d="M408.473,49.303h-5.159c.071.56.317,1.01.737,1.35.42.341.942.511,1.566.511.76,0,1.372-.257,1.836-.769l.636.744c-.288.336-.646.592-1.073.768-.429.177-.906.265-1.435.265-.672,0-1.268-.139-1.788-.414-.52-.276-.922-.662-1.206-1.158s-.426-1.056-.426-1.68c0-.616.138-1.172.414-1.668s.656-.883,1.14-1.158c.484-.276,1.03-.414,1.639-.414s1.149.138,1.626.414c.476.275.848.662,1.116,1.158.268.496.401,1.063.401,1.704,0,.088-.008.203-.024.348ZM403.967,47.154c-.371.336-.59.776-.653,1.32h4.08c-.064-.536-.282-.974-.654-1.314-.372-.34-.834-.51-1.386-.51s-1.015.168-1.387.504Z" fill="#000" stroke-width="0"/>
        <path d="M414.107,51.9c-.588-.195-1.051-.45-1.387-.762l.444-.937c.319.288.729.522,1.229.702.5.181,1.015.271,1.543.271.695,0,1.215-.118,1.56-.354.344-.235.516-.55.516-.941,0-.288-.094-.522-.282-.702-.188-.18-.42-.318-.695-.414-.276-.096-.666-.204-1.17-.324-.633-.151-1.143-.304-1.53-.456-.388-.151-.72-.386-.996-.702-.276-.315-.414-.741-.414-1.277,0-.448.118-.853.354-1.212.235-.36.594-.648,1.074-.864.479-.216,1.075-.324,1.787-.324.496,0,.984.064,1.465.192.479.128.892.312,1.235.552l-.396.96c-.353-.224-.729-.394-1.129-.51-.399-.116-.791-.174-1.176-.174-.68,0-1.189.124-1.529.372s-.51.567-.51.96c0,.287.096.521.287.701.192.181.43.32.715.42.283.101.67.206,1.157.318.632.152,1.141.305,1.524.456.384.152.714.384.99.696.275.312.414.731.414,1.26,0,.44-.12.842-.36,1.206s-.604.652-1.092.864c-.488.212-1.089.317-1.8.317-.633,0-1.242-.098-1.83-.294Z" fill="#000" stroke-width="0"/>
        <path d="M426.701,45.738v6.36h-1.092v-.96c-.232.328-.539.582-.918.762-.381.181-.795.271-1.242.271-.849,0-1.517-.234-2.004-.702-.488-.468-.732-1.158-.732-2.07v-3.66h1.152v3.528c0,.616.147,1.082.443,1.398.296.315.721.474,1.272.474.607,0,1.088-.184,1.44-.552.352-.368.527-.889.527-1.561v-3.288h1.152Z" fill="#000" stroke-width="0"/>
        <path d="M434.896,43.194v8.904h-1.104v-1.008c-.256.352-.58.62-.973.804-.392.185-.824.276-1.296.276-.616,0-1.168-.136-1.655-.408-.488-.271-.87-.654-1.146-1.146-.275-.491-.414-1.058-.414-1.697s.139-1.204.414-1.692c.276-.488.658-.868,1.146-1.14.487-.272,1.039-.408,1.655-.408.456,0,.876.086,1.261.258.384.172.703.426.959.762v-3.504h1.152ZM432.713,50.881c.328-.188.584-.452.768-.792s.276-.73.276-1.17-.093-.83-.276-1.17-.439-.603-.768-.786c-.328-.185-.692-.276-1.092-.276-.408,0-.774.092-1.099.276-.323.184-.58.446-.768.786-.188.34-.282.729-.282,1.17s.094.83.282,1.17c.188.34.444.604.768.792.324.188.69.282,1.099.282.399,0,.764-.095,1.092-.282Z" fill="#000" stroke-width="0"/>
        <path d="M250.483,88.099l-1.812-2.58c-.224.017-.4.024-.528.024h-2.076v2.556h-1.2v-8.4h3.275c1.088,0,1.944.261,2.568.78.624.521.936,1.236.936,2.148,0,.647-.16,1.199-.48,1.655-.32.456-.776.788-1.368.996l1.992,2.82h-1.308ZM249.847,84.03c.4-.327.601-.796.601-1.403s-.2-1.074-.601-1.398c-.4-.324-.979-.486-1.74-.486h-2.04v3.78h2.04c.76,0,1.34-.164,1.74-.492Z" fill="#000" stroke-width="0"/>
        <path d="M259.351,81.738v6.36h-1.092v-.96c-.232.328-.538.582-.918.762-.38.181-.794.271-1.242.271-.848,0-1.516-.234-2.004-.702s-.732-1.158-.732-2.07v-3.66h1.152v3.528c0,.616.148,1.082.444,1.398.296.315.72.474,1.271.474.608,0,1.088-.184,1.44-.552.352-.368.528-.889.528-1.561v-3.288h1.152Z" fill="#000" stroke-width="0"/>
        <path d="M267.271,85.303h-5.16c.072.56.318,1.01.738,1.35.42.341.942.511,1.565.511.761,0,1.373-.257,1.836-.769l.637.744c-.288.336-.646.592-1.074.768-.428.177-.906.265-1.434.265-.672,0-1.269-.139-1.788-.414-.521-.276-.922-.662-1.206-1.158-.284-.496-.426-1.056-.426-1.68,0-.616.138-1.172.414-1.668s.656-.883,1.14-1.158c.483-.276,1.03-.414,1.638-.414s1.15.138,1.626.414c.476.275.849.662,1.116,1.158s.402,1.063.402,1.704c0,.088-.008.203-.024.348ZM262.765,83.154c-.372.336-.59.776-.654,1.32h4.08c-.063-.536-.282-.974-.653-1.314-.373-.34-.834-.51-1.387-.51s-1.014.168-1.386.504Z" fill="#000" stroke-width="0"/>
        <path d="M278.119,79.194v8.904h-1.104v-1.008c-.256.352-.58.62-.972.804-.393.185-.824.276-1.297.276-.615,0-1.168-.136-1.655-.408-.488-.271-.87-.654-1.146-1.146-.275-.491-.414-1.058-.414-1.697s.139-1.204.414-1.692c.276-.488.658-.868,1.146-1.14.487-.272,1.04-.408,1.655-.408.457,0,.877.086,1.261.258s.704.426.96.762v-3.504h1.152ZM275.935,86.881c.328-.188.584-.452.769-.792.184-.34.275-.73.275-1.17s-.092-.83-.275-1.17c-.185-.34-.44-.603-.769-.786-.328-.185-.692-.276-1.092-.276-.408,0-.774.092-1.099.276-.323.184-.58.446-.768.786s-.282.729-.282,1.17.095.83.282,1.17.444.604.768.792c.324.188.69.282,1.099.282.399,0,.764-.095,1.092-.282Z" fill="#000" stroke-width="0"/>
        <path d="M286.23,81.738v6.36h-1.092v-.96c-.232.328-.538.582-.918.762-.381.181-.795.271-1.242.271-.848,0-1.516-.234-2.004-.702s-.732-1.158-.732-2.07v-3.66h1.152v3.528c0,.616.148,1.082.443,1.398.297.315.721.474,1.272.474.608,0,1.088-.184,1.44-.552.352-.368.527-.889.527-1.561v-3.288h1.152Z" fill="#000" stroke-width="0"/>
        <path d="M297.666,80.478c.624.521.937,1.236.937,2.148s-.312,1.628-.937,2.147c-.624.521-1.48.78-2.568.78h-2.075v2.544h-1.2v-8.4h3.275c1.088,0,1.944.261,2.568.78ZM296.803,84.024c.399-.324.6-.79.6-1.397s-.2-1.074-.6-1.398c-.4-.324-.98-.486-1.74-.486h-2.04v3.769h2.04c.76,0,1.34-.162,1.74-.486Z" fill="#000" stroke-width="0"/>
        <path d="M302.082,81.967c.392-.192.868-.288,1.428-.288v1.116c-.064-.008-.152-.013-.264-.013-.624,0-1.114.187-1.47.559-.356.372-.534.902-.534,1.59v3.168h-1.152v-6.36h1.104v1.068c.2-.368.495-.648.888-.84Z" fill="#000" stroke-width="0"/>
        <path d="M305.887,87.751c-.505-.28-.898-.666-1.183-1.158s-.426-1.05-.426-1.674.142-1.183.426-1.674c.284-.492.678-.877,1.183-1.152.504-.276,1.071-.414,1.703-.414s1.198.138,1.698.414c.5.275.892.66,1.176,1.152.284.491.427,1.05.427,1.674s-.143,1.182-.427,1.674-.676.878-1.176,1.158c-.5.279-1.066.42-1.698.42s-1.199-.141-1.703-.42ZM308.688,86.881c.323-.188.577-.452.762-.792.184-.34.276-.73.276-1.17s-.093-.83-.276-1.17c-.185-.34-.438-.603-.762-.786-.324-.185-.69-.276-1.099-.276s-.773.092-1.098.276c-.324.184-.58.446-.768.786-.188.34-.282.729-.282,1.17s.094.83.282,1.17c.188.34.443.604.768.792.324.188.689.282,1.098.282s.774-.095,1.099-.282Z" fill="#000" stroke-width="0"/>
        <path d="M318.57,81.738v5.496c0,1.112-.276,1.935-.828,2.466-.553.532-1.376.799-2.473.799-.6,0-1.172-.082-1.716-.246s-.983-.398-1.319-.702l.552-.888c.296.256.662.457,1.098.605.437.148.886.222,1.351.222.744,0,1.294-.176,1.649-.527.356-.353.534-.889.534-1.608v-.504c-.271.328-.605.574-1.002.738s-.826.246-1.29.246c-.608,0-1.158-.13-1.649-.391-.492-.26-.879-.624-1.158-1.092-.28-.468-.42-1.002-.42-1.602s.14-1.135.42-1.603c.279-.468.666-.83,1.158-1.086.491-.256,1.041-.384,1.649-.384.479,0,.926.088,1.338.264.412.177.75.437,1.015.78v-.984h1.092ZM316.38,86.562c.332-.176.592-.422.78-.738.188-.315.282-.674.282-1.073,0-.616-.204-1.114-.612-1.494s-.932-.57-1.572-.57c-.647,0-1.176.19-1.584.57s-.611.878-.611,1.494c0,.399.094.758.281,1.073.188.316.448.562.78.738s.71.264,1.134.264c.416,0,.79-.088,1.122-.264Z" fill="#000" stroke-width="0"/>
        <path d="M322.758,81.967c.392-.192.868-.288,1.428-.288v1.116c-.064-.008-.152-.013-.264-.013-.624,0-1.114.187-1.47.559-.356.372-.534.902-.534,1.59v3.168h-1.152v-6.36h1.104v1.068c.2-.368.495-.648.888-.84Z" fill="#000" stroke-width="0"/>
        <path d="M331.266,85.303h-5.16c.072.56.318,1.01.738,1.35.42.341.941.511,1.566.511.76,0,1.371-.257,1.836-.769l.636.744c-.288.336-.646.592-1.074.768-.428.177-.906.265-1.434.265-.673,0-1.269-.139-1.788-.414-.521-.276-.922-.662-1.206-1.158s-.427-1.056-.427-1.68c0-.616.139-1.172.414-1.668.276-.496.656-.883,1.141-1.158.484-.276,1.029-.414,1.638-.414s1.15.138,1.626.414c.477.275.848.662,1.116,1.158s.402,1.063.402,1.704c0,.088-.009.203-.024.348ZM325.938,79.255h1.464l1.632,1.56h-1.08l-2.016-1.56ZM326.76,83.154c-.372.336-.59.776-.654,1.32h4.08c-.064-.536-.281-.974-.654-1.314-.371-.34-.834-.51-1.386-.51s-1.014.168-1.386.504Z" fill="#000" stroke-width="0"/>
        <path d="M333.21,87.961c-.479-.141-.856-.318-1.128-.534l.48-.912c.279.2.619.36,1.02.48.4.119.804.18,1.212.18,1.008,0,1.512-.288,1.512-.864,0-.192-.067-.344-.204-.456-.136-.111-.306-.193-.51-.246-.204-.052-.494-.109-.87-.174-.512-.08-.93-.172-1.254-.276-.323-.104-.602-.279-.834-.527-.231-.248-.348-.596-.348-1.044,0-.576.239-1.038.72-1.387.48-.348,1.124-.521,1.932-.521.424,0,.849.052,1.272.156.424.104.772.244,1.044.42l-.492.912c-.52-.336-1.132-.504-1.836-.504-.488,0-.859.08-1.115.239-.257.16-.385.372-.385.637,0,.208.072.371.216.491.145.12.322.208.534.265.212.056.51.12.895.191.512.089.926.183,1.242.282.315.101.586.271.81.51.224.24.336.576.336,1.009,0,.575-.246,1.033-.738,1.373-.491.341-1.162.511-2.01.511-.521,0-1.021-.07-1.5-.21Z" fill="#000" stroke-width="0"/>
        <path d="M339.744,86.761c.147.156.222.35.222.582,0,.12-.015.236-.042.348-.028.112-.082.284-.162.517l-.564,1.668h-.756l.444-1.788c-.152-.057-.274-.15-.366-.282s-.138-.286-.138-.462c0-.24.075-.437.228-.588.152-.152.344-.229.576-.229.224,0,.41.078.559.234Z" fill="#000" stroke-width="0"/>
        <path d="M351.642,86.034h-1.596v2.064h-1.164v-2.064h-4.668v-.84l4.296-5.496h1.296l-4.116,5.305h3.229v-1.824h1.128v1.824h1.596v1.031Z" fill="#000" stroke-width="0"/>
        <path d="M359.67,86.034h-1.597v2.064h-1.164v-2.064h-4.668v-.84l4.296-5.496h1.297l-4.117,5.305h3.229v-1.824h1.128v1.824h1.597v1.031Z" fill="#000" stroke-width="0"/>
        <path d="M366.749,84.486c.257.345.384.756.384,1.236,0,.504-.136.942-.407,1.314-.272.371-.66.657-1.164.857s-1.097.3-1.776.3c-.672,0-1.258-.1-1.758-.3s-.887-.486-1.158-.857c-.271-.372-.408-.811-.408-1.314,0-.48.127-.892.379-1.236.252-.344.617-.607,1.098-.792-.384-.184-.676-.428-.876-.731s-.3-.664-.3-1.08c0-.464.126-.868.378-1.212s.605-.608,1.062-.792c.456-.185.984-.276,1.584-.276.608,0,1.143.092,1.603.276.46.184.815.448,1.067.792s.378.748.378,1.212c0,.408-.102.766-.306,1.074-.204.308-.498.554-.882.737.479.185.848.448,1.104.792ZM365.357,86.809c.384-.276.576-.649.576-1.122,0-.464-.192-.83-.576-1.098-.384-.269-.908-.402-1.572-.402s-1.184.134-1.56.402c-.376.268-.564.634-.564,1.098,0,.473.188.846.564,1.122s.896.414,1.56.414,1.188-.138,1.572-.414ZM362.441,80.94c-.328.244-.492.574-.492.99s.162.744.486.984c.324.239.773.359,1.35.359.584,0,1.042-.12,1.374-.359.332-.24.498-.568.498-.984s-.17-.746-.51-.99c-.341-.244-.794-.366-1.362-.366s-1.016.122-1.344.366Z" fill="#000" stroke-width="0"/>
        <path d="M375.545,86.034h-1.596v2.064h-1.164v-2.064h-4.668v-.84l4.296-5.496h1.296l-4.116,5.305h3.229v-1.824h1.128v1.824h1.596v1.031Z" fill="#000" stroke-width="0"/>
        <path d="M377.928,87.685c-.517-.34-.923-.834-1.219-1.482-.296-.647-.443-1.415-.443-2.304s.147-1.656.443-2.304c.296-.648.702-1.142,1.219-1.482.516-.34,1.105-.51,1.77-.51.656,0,1.242.17,1.758.51.516.341.922.834,1.218,1.482.296.647.444,1.416.444,2.304s-.148,1.656-.444,2.304c-.296.648-.702,1.143-1.218,1.482s-1.102.51-1.758.51c-.664,0-1.254-.17-1.77-.51ZM381.312,86.299c.403-.552.605-1.353.605-2.4s-.202-1.848-.605-2.399c-.404-.553-.942-.828-1.614-.828-.68,0-1.223.275-1.626.828-.404.552-.606,1.352-.606,2.399s.202,1.849.606,2.4c.403.552.946.828,1.626.828.672,0,1.21-.276,1.614-.828Z" fill="#000" stroke-width="0"/>
        <path d="M388.181,79.698h1.2v7.356h4.548v1.044h-5.748v-8.4Z" fill="#000" stroke-width="0"/>
        <path d="M400.781,85.303h-5.16c.072.56.318,1.01.738,1.35.42.341.941.511,1.565.511.761,0,1.372-.257,1.836-.769l.636.744c-.287.336-.646.592-1.073.768-.429.177-.906.265-1.435.265-.672,0-1.268-.139-1.787-.414-.521-.276-.923-.662-1.207-1.158-.283-.496-.426-1.056-.426-1.68,0-.616.139-1.172.414-1.668.276-.496.656-.883,1.141-1.158.483-.276,1.029-.414,1.638-.414s1.149.138,1.626.414c.476.275.848.662,1.116,1.158.268.496.401,1.063.401,1.704,0,.088-.008.203-.023.348ZM396.275,83.154c-.372.336-.59.776-.654,1.32h4.08c-.064-.536-.282-.974-.654-1.314-.372-.34-.834-.51-1.386-.51s-1.015.168-1.386.504Z" fill="#000" stroke-width="0"/>
        <path d="M402.725,87.961c-.479-.141-.855-.318-1.127-.534l.479-.912c.28.2.62.36,1.021.48.399.119.804.18,1.211.18,1.009,0,1.513-.288,1.513-.864,0-.192-.068-.344-.204-.456-.137-.111-.307-.193-.51-.246-.204-.052-.494-.109-.87-.174-.513-.08-.931-.172-1.254-.276-.324-.104-.603-.279-.834-.527-.232-.248-.349-.596-.349-1.044,0-.576.24-1.038.721-1.387.479-.348,1.123-.521,1.932-.521.424,0,.848.052,1.271.156.424.104.772.244,1.045.42l-.492.912c-.521-.336-1.133-.504-1.836-.504-.488,0-.86.08-1.116.239-.257.16-.384.372-.384.637,0,.208.072.371.216.491s.321.208.534.265c.212.056.51.12.894.191.512.089.926.183,1.242.282.315.101.586.271.81.51.225.24.336.576.336,1.009,0,.575-.246,1.033-.737,1.373-.492.341-1.162.511-2.011.511-.52,0-1.02-.07-1.5-.21Z" fill="#000" stroke-width="0"/>
        <path d="M412.427,87.9c-.588-.195-1.05-.45-1.386-.762l.443-.937c.32.288.73.522,1.23.702.5.181,1.014.271,1.542.271.696,0,1.216-.118,1.56-.354.344-.235.517-.55.517-.941,0-.288-.095-.522-.282-.702s-.42-.318-.696-.414c-.275-.096-.666-.204-1.17-.324-.632-.151-1.142-.304-1.53-.456-.388-.151-.72-.386-.995-.702-.276-.315-.414-.741-.414-1.277,0-.448.118-.853.354-1.212.236-.36.595-.648,1.074-.864s1.076-.324,1.788-.324c.496,0,.984.064,1.464.192s.892.312,1.236.552l-.396.96c-.353-.224-.728-.394-1.128-.51s-.792-.174-1.176-.174c-.68,0-1.19.124-1.53.372s-.51.567-.51.96c0,.287.096.521.288.701.191.181.43.32.714.42.284.101.67.206,1.158.318.632.152,1.14.305,1.523.456.384.152.714.384.99.696.276.312.414.731.414,1.26,0,.44-.12.842-.36,1.206-.239.364-.604.652-1.092.864s-1.088.317-1.8.317c-.632,0-1.242-.098-1.83-.294Z" fill="#000" stroke-width="0"/>
        <path d="M420.113,87.751c-.505-.28-.898-.666-1.183-1.158s-.426-1.05-.426-1.674.142-1.183.426-1.674c.284-.492.678-.877,1.183-1.152.504-.276,1.071-.414,1.703-.414s1.198.138,1.698.414c.5.275.892.66,1.176,1.152.284.491.427,1.05.427,1.674s-.143,1.182-.427,1.674-.676.878-1.176,1.158c-.5.279-1.066.42-1.698.42s-1.199-.141-1.703-.42ZM422.915,86.881c.323-.188.577-.452.762-.792.184-.34.276-.73.276-1.17s-.093-.83-.276-1.17c-.185-.34-.438-.603-.762-.786-.324-.185-.69-.276-1.099-.276s-.773.092-1.098.276c-.324.184-.58.446-.768.786-.188.34-.282.729-.282,1.17s.094.83.282,1.17c.188.34.443.604.768.792.324.188.689.282,1.098.282s.774-.095,1.099-.282Z" fill="#000" stroke-width="0"/>
        <path d="M428.705,81.967c.392-.192.867-.288,1.428-.288v1.116c-.064-.008-.152-.013-.264-.013-.625,0-1.115.187-1.471.559s-.534.902-.534,1.59v3.168h-1.151v-6.36h1.104v1.068c.2-.368.496-.648.889-.84Z" fill="#000" stroke-width="0"/>
        <path d="M431.566,80.299c-.147-.145-.222-.32-.222-.528s.074-.386.222-.534c.148-.147.334-.222.559-.222s.41.07.558.21c.148.14.222.314.222.522,0,.216-.073.397-.222.546-.147.147-.334.222-.558.222s-.41-.072-.559-.216ZM431.549,81.738h1.152v6.36h-1.152v-6.36Z" fill="#000" stroke-width="0"/>
        <path d="M440.219,82.381c.476.468.714,1.154.714,2.058v3.66h-1.151v-3.528c0-.615-.148-1.08-.444-1.392-.296-.312-.72-.468-1.272-.468-.624,0-1.115.182-1.476.546s-.54.886-.54,1.565v3.276h-1.152v-6.36h1.104v.96c.231-.327.546-.579.941-.756.396-.176.847-.264,1.351-.264.808,0,1.449.234,1.926.702Z" fill="#000" stroke-width="0"/>
        <path d="M443.087,80.299c-.148-.145-.223-.32-.223-.528s.074-.386.223-.534c.147-.147.333-.222.558-.222s.41.07.559.21c.147.14.222.314.222.522,0,.216-.074.397-.222.546-.148.147-.335.222-.559.222s-.41-.072-.558-.216ZM443.068,81.738h1.152v6.36h-1.152v-6.36Z" fill="#000" stroke-width="0"/>
        <path d="M452.141,85.303h-5.16c.072.56.318,1.01.738,1.35.42.341.941.511,1.565.511.761,0,1.372-.257,1.836-.769l.636.744c-.287.336-.646.592-1.073.768-.429.177-.906.265-1.435.265-.672,0-1.268-.139-1.787-.414-.521-.276-.923-.662-1.207-1.158-.283-.496-.426-1.056-.426-1.68,0-.616.139-1.172.414-1.668.276-.496.656-.883,1.141-1.158.483-.276,1.029-.414,1.638-.414s1.149.138,1.626.414c.476.275.848.662,1.116,1.158.268.496.401,1.063.401,1.704,0,.088-.008.203-.023.348ZM446.812,79.255h1.464l1.632,1.56h-1.08l-2.016-1.56ZM447.635,83.154c-.372.336-.59.776-.654,1.32h4.08c-.064-.536-.282-.974-.654-1.314-.372-.34-.834-.51-1.386-.51s-1.015.168-1.386.504Z" fill="#000" stroke-width="0"/>
        <path d="M455.752,81.967c.393-.192.868-.288,1.429-.288v1.116c-.064-.008-.152-.013-.265-.013-.623,0-1.113.187-1.47.559s-.534.902-.534,1.59v3.168h-1.151v-6.36h1.104v1.068c.2-.368.496-.648.888-.84Z" fill="#000" stroke-width="0"/>
        <path d="M464.26,85.303h-5.159c.071.56.317,1.01.737,1.35.42.341.942.511,1.566.511.76,0,1.372-.257,1.836-.769l.636.744c-.288.336-.646.592-1.073.768-.429.177-.906.265-1.435.265-.672,0-1.268-.139-1.788-.414-.52-.276-.922-.662-1.206-1.158s-.426-1.056-.426-1.68c0-.616.138-1.172.414-1.668s.656-.883,1.14-1.158c.484-.276,1.03-.414,1.639-.414s1.149.138,1.626.414c.476.275.848.662,1.116,1.158.268.496.401,1.063.401,1.704,0,.088-.008.203-.024.348ZM459.754,83.154c-.371.336-.59.776-.653,1.32h4.08c-.064-.536-.282-.974-.654-1.314-.372-.34-.834-.51-1.386-.51s-1.015.168-1.387.504Z" fill="#000" stroke-width="0"/>
        <path d="M466.205,87.961c-.48-.141-.856-.318-1.129-.534l.48-.912c.279.2.62.36,1.02.48.4.119.805.18,1.213.18,1.008,0,1.512-.288,1.512-.864,0-.192-.068-.344-.204-.456-.136-.111-.306-.193-.51-.246-.204-.052-.494-.109-.87-.174-.512-.08-.93-.172-1.254-.276-.324-.104-.603-.279-.834-.527-.232-.248-.349-.596-.349-1.044,0-.576.24-1.038.72-1.387.48-.348,1.125-.521,1.933-.521.424,0,.848.052,1.272.156.424.104.771.244,1.043.42l-.491.912c-.521-.336-1.132-.504-1.836-.504-.488,0-.86.08-1.116.239-.256.16-.384.372-.384.637,0,.208.071.371.216.491.144.12.322.208.534.265.212.056.51.12.894.191.512.089.926.183,1.242.282.316.101.586.271.81.51.224.24.337.576.337,1.009,0,.575-.246,1.033-.738,1.373-.492.341-1.162.511-2.01.511-.521,0-1.021-.07-1.5-.21Z" fill="#000" stroke-width="0"/>
        <path d="M245.839,105.709c-.528-.34-.944-.836-1.248-1.488s-.456-1.426-.456-2.322.152-1.67.456-2.322c.304-.651.72-1.147,1.248-1.487.528-.34,1.128-.51,1.8-.51s1.274.17,1.806.51.95.836,1.254,1.487c.304.652.456,1.427.456,2.322s-.152,1.67-.456,2.322c-.305.652-.723,1.148-1.254,1.488s-1.134.51-1.806.51-1.271-.17-1.8-.51ZM249.061,104.118c.348-.495.522-1.235.522-2.22s-.174-1.724-.522-2.22-.822-.744-1.422-.744c-.592,0-1.062.248-1.41.744s-.522,1.236-.522,2.22.174,1.725.522,2.22c.348.497.818.744,1.41.744.601,0,1.074-.247,1.422-.744Z" fill="#000" stroke-width="0"/>
        <path d="M258.235,104.778v1.32h-6.192v-1.044l3.336-3.168c.376-.36.63-.674.762-.942.132-.268.198-.534.198-.798,0-.392-.132-.691-.396-.899-.265-.208-.652-.312-1.164-.312-.856,0-1.512.292-1.968.876l-1.092-.84c.328-.44.771-.782,1.326-1.026.556-.243,1.178-.365,1.866-.365.912,0,1.64.216,2.184.647s.816,1.021.816,1.764c0,.456-.096.885-.288,1.284-.192.4-.56.856-1.104,1.368l-2.244,2.136h3.96Z" fill="#000" stroke-width="0"/>
        <path d="M269.935,104.19h-1.488v1.908h-1.512v-1.908h-4.608v-1.08l4.141-5.412h1.668l-3.9,5.173h2.748v-1.692h1.464v1.692h1.488v1.319Z" fill="#000" stroke-width="0"/>
        <path d="M272.299,105.709c-.528-.34-.944-.836-1.248-1.488-.305-.652-.456-1.426-.456-2.322s.151-1.67.456-2.322c.304-.651.72-1.147,1.248-1.487.527-.34,1.128-.51,1.8-.51s1.273.17,1.806.51.95.836,1.254,1.487c.305.652.456,1.427.456,2.322s-.151,1.67-.456,2.322c-.304.652-.722,1.148-1.254,1.488s-1.134.51-1.806.51-1.272-.17-1.8-.51ZM275.521,104.118c.348-.495.522-1.235.522-2.22s-.175-1.724-.522-2.22c-.349-.496-.822-.744-1.422-.744-.593,0-1.062.248-1.41.744-.349.496-.522,1.236-.522,2.22s.174,1.725.522,2.22c.348.497.817.744,1.41.744.6,0,1.073-.247,1.422-.744Z" fill="#000" stroke-width="0"/>
        <path d="M289.471,104.19h-1.488v1.908h-1.512v-1.908h-4.608v-1.08l4.14-5.412h1.668l-3.9,5.173h2.748v-1.692h1.465v1.692h1.488v1.319Z" fill="#000" stroke-width="0"/>
        <path d="M295.926,97.698v1.044l-3.264,7.356h-1.668l3.156-7.08h-3.301v1.428h-1.451v-2.748h6.527Z" fill="#000" stroke-width="0"/>
        <path d="M305.453,101.641c.568.46.853,1.086.853,1.878,0,.504-.124.96-.372,1.368s-.62.731-1.116.972-1.108.36-1.836.36c-.6,0-1.18-.086-1.739-.258-.561-.172-1.032-.41-1.416-.714l.659-1.213c.312.257.687.459,1.122.606.437.148.887.222,1.351.222.552,0,.985-.113,1.302-.342.316-.228.474-.542.474-.941,0-.433-.17-.759-.51-.979s-.922-.33-1.746-.33h-2.028l.433-4.572h4.932v1.309h-3.612l-.18,1.943h.805c1.184,0,2.06.23,2.627.69Z" fill="#000" stroke-width="0"/>
        <path d="M312.498,101.959c.408.432.611.972.611,1.62,0,.487-.124.932-.371,1.331-.249.4-.623.719-1.123.954-.5.236-1.109.354-1.83.354-.6,0-1.178-.086-1.733-.258s-1.03-.41-1.422-.714l.672-1.213c.304.257.674.459,1.11.606.436.148.886.222,1.35.222.552,0,.986-.113,1.302-.342.316-.228.474-.538.474-.93s-.149-.698-.449-.918c-.301-.22-.758-.33-1.374-.33h-.769v-1.068l1.908-2.268h-3.816v-1.309h5.725v1.044l-2.04,2.425c.776.096,1.368.359,1.776.792Z" fill="#000" stroke-width="0"/>
        <path d="M323.777,97.698v1.044l-3.264,7.356h-1.668l3.155-7.08h-3.3v1.428h-1.452v-2.748h6.528Z" fill="#000" stroke-width="0"/>
        <path d="M326.201,105.709c-.527-.34-.944-.836-1.248-1.488s-.456-1.426-.456-2.322.152-1.67.456-2.322c.304-.651.721-1.147,1.248-1.487.528-.34,1.128-.51,1.8-.51s1.274.17,1.806.51c.532.34.95.836,1.255,1.487.304.652.456,1.427.456,2.322s-.152,1.67-.456,2.322c-.305.652-.723,1.148-1.255,1.488-.531.34-1.133.51-1.806.51s-1.271-.17-1.8-.51ZM329.424,104.118c.348-.495.521-1.235.521-2.22s-.174-1.724-.521-2.22c-.349-.496-.822-.744-1.423-.744-.592,0-1.062.248-1.409.744-.349.496-.522,1.236-.522,2.22s.174,1.725.522,2.22c.348.497.817.744,1.409.744.601,0,1.074-.247,1.423-.744Z" fill="#000" stroke-width="0"/>
        <path d="M254.323,117.738l-2.376,6.36h-1.104l-1.836-4.824-1.86,4.824h-1.104l-2.364-6.36h1.092l1.848,5.064,1.92-5.064h.972l1.884,5.088,1.896-5.088h1.032Z" fill="#000" stroke-width="0"/>
        <path d="M265.015,117.738l-2.376,6.36h-1.104l-1.836-4.824-1.86,4.824h-1.104l-2.364-6.36h1.092l1.848,5.064,1.92-5.064h.973l1.884,5.088,1.896-5.088h1.032Z" fill="#000" stroke-width="0"/>
        <path d="M275.707,117.738l-2.376,6.36h-1.104l-1.836-4.824-1.859,4.824h-1.104l-2.364-6.36h1.092l1.849,5.064,1.92-5.064h.972l1.885,5.088,1.896-5.088h1.032Z" fill="#000" stroke-width="0"/>
        <path d="M276.175,123.936c-.16-.156-.24-.354-.24-.594,0-.232.08-.426.24-.582s.353-.234.576-.234.412.076.563.229c.152.151.229.348.229.588s-.078.438-.234.594-.342.234-.558.234c-.224,0-.416-.078-.576-.234Z" fill="#000" stroke-width="0"/>
        <path d="M283.656,118.326c.469.433.702,1.076.702,1.933v3.84h-1.092v-.84c-.192.296-.466.521-.822.678s-.778.234-1.266.234c-.712,0-1.282-.172-1.71-.517-.428-.344-.643-.796-.643-1.355s.204-1.01.612-1.351c.408-.34,1.056-.51,1.944-.51h1.824v-.228c0-.496-.145-.876-.433-1.141-.288-.264-.712-.396-1.272-.396-.375,0-.743.062-1.104.186-.359.124-.664.29-.912.498l-.479-.863c.327-.265.72-.467,1.176-.606s.94-.21,1.452-.21c.88,0,1.554.216,2.021.647ZM282.511,122.988c.319-.195.552-.474.696-.834v-.888h-1.776c-.977,0-1.464.328-1.464.984,0,.319.124.571.372.756.247.184.592.275,1.032.275s.819-.098,1.14-.294Z" fill="#000" stroke-width="0"/>
        <path d="M286.494,115.194h1.152v8.904h-1.152v-8.904Z" fill="#000" stroke-width="0"/>
        <path d="M293.574,123.727c-.168.145-.376.254-.624.33s-.504.114-.769.114c-.64,0-1.136-.172-1.487-.517-.353-.344-.528-.836-.528-1.476v-3.492h-1.08v-.948h1.08v-1.392h1.152v1.392h1.824v.948h-1.824v3.444c0,.344.086.607.258.792.172.184.418.275.738.275.352,0,.652-.1.9-.3l.359.828Z" fill="#000" stroke-width="0"/>
        <path d="M300.475,121.303h-5.16c.072.56.318,1.01.738,1.35.42.341.941.511,1.565.511.76,0,1.372-.257,1.836-.769l.636.744c-.287.336-.646.592-1.074.768-.428.177-.905.265-1.434.265-.672,0-1.268-.139-1.788-.414-.52-.276-.922-.662-1.206-1.158-.283-.496-.426-1.056-.426-1.68,0-.616.139-1.172.414-1.668.276-.496.656-.883,1.141-1.158.483-.276,1.029-.414,1.638-.414s1.149.138,1.626.414c.476.275.848.662,1.115,1.158.269.496.402,1.063.402,1.704,0,.088-.008.203-.023.348ZM295.969,119.154c-.373.336-.591.776-.654,1.32h4.08c-.064-.536-.282-.974-.654-1.314-.372-.34-.834-.51-1.386-.51s-1.015.168-1.386.504Z" fill="#000" stroke-width="0"/>
        <path d="M304.086,117.967c.392-.192.868-.288,1.428-.288v1.116c-.064-.008-.152-.013-.264-.013-.624,0-1.114.187-1.47.559-.356.372-.534.902-.534,1.59v3.168h-1.152v-6.36h1.104v1.068c.2-.368.495-.648.888-.84Z" fill="#000" stroke-width="0"/>
        <path d="M312.594,121.303h-5.16c.072.56.318,1.01.738,1.35.42.341.942.511,1.566.511.76,0,1.372-.257,1.836-.769l.636.744c-.288.336-.646.592-1.074.768-.428.177-.905.265-1.434.265-.672,0-1.269-.139-1.788-.414-.52-.276-.922-.662-1.206-1.158s-.426-1.056-.426-1.68c0-.616.138-1.172.414-1.668s.655-.883,1.14-1.158c.484-.276,1.03-.414,1.639-.414s1.149.138,1.625.414c.477.275.849.662,1.116,1.158.269.496.402,1.063.402,1.704,0,.088-.008.203-.024.348ZM308.088,119.154c-.372.336-.59.776-.654,1.32h4.08c-.063-.536-.281-.974-.653-1.314-.372-.34-.834-.51-1.386-.51s-1.015.168-1.387.504Z" fill="#000" stroke-width="0"/>
        <path d="M320.298,117.738v5.496c0,1.112-.276,1.935-.828,2.466-.552.532-1.376.799-2.472.799-.6,0-1.172-.082-1.716-.246s-.984-.398-1.32-.702l.552-.888c.297.256.662.457,1.099.605.436.148.886.222,1.35.222.744,0,1.294-.176,1.65-.527.355-.353.534-.889.534-1.608v-.504c-.272.328-.606.574-1.002.738-.396.164-.826.246-1.291.246-.607,0-1.157-.13-1.649-.391-.492-.26-.878-.624-1.158-1.092s-.42-1.002-.42-1.602.14-1.135.42-1.603.666-.83,1.158-1.086,1.042-.384,1.649-.384c.48,0,.927.088,1.339.264.411.177.75.437,1.014.78v-.984h1.092ZM318.108,122.562c.331-.176.592-.422.78-.738.188-.315.281-.674.281-1.073,0-.616-.204-1.114-.611-1.494-.408-.38-.933-.57-1.572-.57-.648,0-1.176.19-1.584.57s-.612.878-.612,1.494c0,.399.094.758.282,1.073.188.316.447.562.779.738s.711.264,1.135.264c.416,0,.79-.088,1.122-.264Z" fill="#000" stroke-width="0"/>
        <path d="M323.514,123.751c-.504-.28-.898-.666-1.182-1.158-.284-.492-.426-1.05-.426-1.674s.142-1.183.426-1.674c.283-.492.678-.877,1.182-1.152.504-.276,1.072-.414,1.704-.414s1.198.138,1.698.414c.5.275.892.66,1.176,1.152.284.491.426,1.05.426,1.674s-.142,1.182-.426,1.674-.676.878-1.176,1.158c-.5.279-1.066.42-1.698.42s-1.2-.141-1.704-.42ZM326.316,122.881c.323-.188.577-.452.762-.792.184-.34.275-.73.275-1.17s-.092-.83-.275-1.17c-.185-.34-.438-.603-.762-.786-.324-.185-.69-.276-1.099-.276s-.774.092-1.098.276c-.324.184-.58.446-.769.786-.188.34-.281.729-.281,1.17s.094.83.281,1.17c.188.34.444.604.769.792.323.188.689.282,1.098.282s.774-.095,1.099-.282Z" fill="#000" stroke-width="0"/>
        <path d="M330.438,123.961c-.479-.141-.855-.318-1.128-.534l.48-.912c.279.2.62.36,1.02.48.4.119.804.18,1.212.18,1.008,0,1.512-.288,1.512-.864,0-.192-.067-.344-.203-.456-.137-.111-.307-.193-.51-.246-.205-.052-.494-.109-.871-.174-.512-.08-.93-.172-1.254-.276-.323-.104-.602-.279-.834-.527-.231-.248-.348-.596-.348-1.044,0-.576.24-1.038.72-1.387.48-.348,1.124-.521,1.933-.521.424,0,.848.052,1.271.156.424.104.772.244,1.044.42l-.491.912c-.521-.336-1.133-.504-1.836-.504-.488,0-.86.08-1.116.239-.257.16-.384.372-.384.637,0,.208.071.371.215.491.145.12.322.208.535.265.211.056.51.12.894.191.512.089.926.183,1.242.282.315.101.586.271.81.51.224.24.336.576.336,1.009,0,.575-.246,1.033-.738,1.373-.491.341-1.162.511-2.01.511-.52,0-1.02-.07-1.5-.21Z" fill="#000" stroke-width="0"/>
        <path d="M335.826,123.936c-.16-.156-.24-.354-.24-.594,0-.232.08-.426.24-.582.159-.156.352-.234.575-.234s.412.076.564.229c.151.151.228.348.228.588s-.078.438-.233.594c-.156.156-.343.234-.559.234-.224,0-.416-.078-.575-.234Z" fill="#000" stroke-width="0"/>
        <path d="M340.146,117.186v.552h1.849v.948h-1.824v5.412h-1.152v-5.412h-1.08v-.948h1.08v-.563c0-.632.184-1.132.552-1.5s.884-.552,1.548-.552c.256,0,.496.031.721.096.224.064.416.156.576.276l-.349.876c-.264-.2-.56-.301-.888-.301-.688,0-1.032.372-1.032,1.116Z" fill="#000" stroke-width="0"/>
        <path d="M346.037,117.967c.393-.192.868-.288,1.428-.288v1.116c-.063-.008-.151-.013-.264-.013-.624,0-1.114.187-1.47.559-.356.372-.534.902-.534,1.59v3.168h-1.152v-6.36h1.104v1.068c.2-.368.496-.648.888-.84Z" fill="#000" stroke-width="0"/>
      </g>
      <rect x="233.478" y="0" width="2" height="150" fill="#272824" stroke-width="0"/>
      <g>
        <rect x="13.332" y="4.112" width="190" height="141.776" fill="#000" stroke-width="0"/>
        <g>
          <g id="Sous-titre">
            <path d="M56.301,124.99h.464l1.418,4.183,1.412-4.183h.464l-1.634,4.706h-.49l-1.634-4.706Z" fill="#fff" stroke-width="0"/>
            <path d="M60.655,129.696v-3.291h.311v3.291h-.311Z" fill="#fff" stroke-width="0"/>
            <path d="M62.128,126.825h-.009v2.87h-.311v-3.291h.352l1.902,2.875h.009v-2.875h.311v3.291h-.361l-1.892-2.87Z" fill="#fff" stroke-width="0"/>
            <path d="M65.246,128.713c.05.59.443.804.946.804.59,0,.837-.32.837-.681,0-1.019-2.007-.343-2.007-1.636,0-.457.38-.882,1.116-.882.74,0,1.111.448,1.106.982h-.297c0-.503-.388-.717-.809-.717-.631,0-.86.388-.805.726.142.851,2.006.237,2.006,1.513,0,.604-.443.961-1.201.961-.686,0-1.193-.357-1.193-1.07h.302Z" fill="#fff" stroke-width="0"/>
            <path d="M71.918,128.985c-.64,0-1.17-.529-1.17-1.17,0-.654.53-1.183,1.17-1.183.654,0,1.184.529,1.184,1.183,0,.641-.53,1.17-1.184,1.17Z" fill="#fff" stroke-width="0"/>
            <path d="M76.968,128.29c.071.844.634,1.151,1.353,1.151.843,0,1.196-.457,1.196-.974,0-1.457-2.869-.491-2.869-2.339,0-.654.543-1.262,1.595-1.262,1.059,0,1.588.64,1.582,1.405h-.425c0-.719-.556-1.027-1.157-1.027-.902,0-1.228.556-1.15,1.04.202,1.216,2.869.34,2.869,2.163,0,.862-.633,1.373-1.719,1.373-.981,0-1.705-.51-1.705-1.53h.431Z" fill="#fff" stroke-width="0"/>
            <path d="M80.603,129.696v-3.291h1.202c.855,0,1.074.425,1.074.919,0,.735-.654.918-1.262.918h-.703v1.454h-.311ZM81.627,127.977c.581,0,.942-.12.942-.677,0-.411-.266-.63-.85-.63h-.804v1.307h.713Z" fill="#fff" stroke-width="0"/>
            <path d="M83.521,129.696v-3.291h.31v3.291h-.31Z" fill="#fff" stroke-width="0"/>
            <path d="M84.988,128.201v1.494h-.31v-3.291h1.289c.722,0,1.119.256,1.119.864,0,.416-.155.635-.534.804.389.133.411.544.42.892.014.498.055.635.138.699v.032h-.343c-.128-.224-.096-.842-.146-1.093-.073-.357-.343-.402-.653-.402h-.979ZM85.957,127.935c.462,0,.818-.192.818-.654,0-.494-.384-.612-.8-.612h-.988v1.266h.97Z" fill="#fff" stroke-width="0"/>
            <path d="M87.841,129.696v-3.291h.311v3.291h-.311Z" fill="#fff" stroke-width="0"/>
            <path d="M88.706,126.404h2.395v.265h-1.042v3.026h-.31v-3.026h-1.042v-.265Z" fill="#fff" stroke-width="0"/>
            <path d="M91.55,126.404h.311v1.961c0,.814.292,1.152.964,1.152.709,0,.964-.375.964-1.152v-1.961h.311v2.052c0,.855-.425,1.326-1.275,1.326-.859,0-1.275-.486-1.275-1.326v-2.052Z" fill="#fff" stroke-width="0"/>
            <path d="M94.847,129.696v-3.291h2.19v.265h-1.879v1.188h1.696v.266h-1.696v1.307h1.925v.265h-2.235Z" fill="#fff" stroke-width="0"/>
            <path d="M97.645,126.404h.31v1.961c0,.814.293,1.152.965,1.152.709,0,.965-.375.965-1.152v-1.961h.311v2.052c0,.855-.425,1.326-1.275,1.326-.859,0-1.275-.486-1.275-1.326v-2.052Z" fill="#fff" stroke-width="0"/>
            <path d="M101.961,128.242l-.956,1.454h-.352l1.134-1.691-1.088-1.6h.362l.9,1.385.905-1.385h.361l-1.079,1.6,1.128,1.691h-.356l-.96-1.454Z" fill="#fff" stroke-width="0"/>
            <path d="M107.742,128.985c-.641,0-1.17-.529-1.17-1.17,0-.654.529-1.183,1.17-1.183.654,0,1.183.529,1.183,1.183,0,.641-.529,1.17-1.183,1.17Z" fill="#fff" stroke-width="0"/>
            <path d="M112.609,129.696v-4.706h1.699c1.104,0,1.542.476,1.542,1.183,0,.653-.373.948-.752,1.013v.013c.647.098.967.548.967,1.17,0,.98-.64,1.327-1.536,1.327h-1.921ZM113.053,127.068h1.124c.929,0,1.229-.326,1.229-.895,0-.588-.353-.804-1.327-.804h-1.026v1.699ZM113.053,129.317h1.13c.981,0,1.438-.132,1.438-.948,0-.779-.549-.922-1.385-.922h-1.183v1.87Z" fill="#fff" stroke-width="0"/>
            <path d="M116.916,129.696v-3.291h.311v3.291h-.311Z" fill="#fff" stroke-width="0"/>
            <path d="M118.077,129.696v-3.291h2.19v.265h-1.878v1.188h1.696v.266h-1.696v1.307h1.924v.265h-2.236Z" fill="#fff" stroke-width="0"/>
            <path d="M121.178,128.201v1.494h-.31v-3.291h1.288c.722,0,1.12.256,1.12.864,0,.416-.156.635-.535.804.388.133.411.544.42.892.014.498.055.635.137.699v.032h-.342c-.129-.224-.096-.842-.146-1.093-.073-.357-.343-.402-.654-.402h-.978ZM122.147,127.935c.462,0,.819-.192.819-.654,0-.494-.384-.612-.8-.612h-.987v1.266h.969Z" fill="#fff" stroke-width="0"/>
            <path d="M123.922,129.696v-3.291h2.19v.265h-1.879v1.188h1.696v.266h-1.696v1.307h1.925v.265h-2.236Z" fill="#fff" stroke-width="0"/>
            <path d="M126.843,128.713c.05.59.443.804.946.804.589,0,.836-.32.836-.681,0-1.019-2.007-.343-2.007-1.636,0-.457.379-.882,1.115-.882.74,0,1.111.448,1.106.982h-.297c0-.503-.388-.717-.809-.717-.631,0-.859.388-.804.726.141.851,2.006.237,2.006,1.513,0,.604-.443.961-1.202.961-.685,0-1.193-.357-1.193-1.07h.302Z" fill="#fff" stroke-width="0"/>
            <path d="M133.515,128.985c-.64,0-1.17-.529-1.17-1.17,0-.654.53-1.183,1.17-1.183.654,0,1.184.529,1.184,1.183,0,.641-.53,1.17-1.184,1.17Z" fill="#fff" stroke-width="0"/>
            <path d="M138.382,129.696v-4.706h3.13v.379h-2.686v1.699h2.425v.379h-2.425v1.87h2.751v.379h-3.196Z" fill="#fff" stroke-width="0"/>
            <path d="M142.201,129.696v-3.291h1.202c.854,0,1.074.425,1.074.919,0,.735-.654.918-1.262.918h-.704v1.454h-.31ZM143.225,127.977c.58,0,.942-.12.942-.677,0-.411-.265-.63-.85-.63h-.805v1.307h.714Z" fill="#fff" stroke-width="0"/>
            <path d="M145.118,129.696v-3.291h.31v3.291h-.31Z" fill="#fff" stroke-width="0"/>
            <path d="M148.615,127.36c-.128-.563-.475-.777-1.038-.777-.795,0-1.138.68-1.138,1.458,0,.735.27,1.476,1.166,1.476.567,0,.919-.384,1.042-.904h.325c-.147.635-.544,1.17-1.426,1.17-1.015,0-1.417-.8-1.417-1.733,0-1.257.658-1.732,1.531-1.732.677,0,1.171.36,1.275,1.042h-.32Z" fill="#fff" stroke-width="0"/>
            <path d="M149.581,129.696v-3.291h2.189v.265h-1.878v1.188h1.695v.266h-1.695v1.307h1.925v.265h-2.235Z" fill="#fff" stroke-width="0"/>
            <path d="M152.68,128.201v1.494h-.311v-3.291h1.29c.721,0,1.119.256,1.119.864,0,.416-.155.635-.535.804.389.133.411.544.421.892.014.498.055.635.136.699v.032h-.342c-.128-.224-.096-.842-.146-1.093-.074-.357-.342-.402-.653-.402h-.979ZM153.65,127.935c.462,0,.818-.192.818-.654,0-.494-.384-.612-.8-.612h-.988v1.266h.969Z" fill="#fff" stroke-width="0"/>
            <path d="M155.534,129.696v-3.291h.311v3.291h-.311Z" fill="#fff" stroke-width="0"/>
            <path d="M156.696,129.696v-3.291h2.189v.265h-1.879v1.188h1.697v.266h-1.697v1.307h1.925v.265h-2.235Z" fill="#fff" stroke-width="0"/>
          </g>
          <g id="NOM_groupe" data-name="NOM groupe">
            <path d="M172.096,103.94c-.548-.523-1.219-.967-1.996-1.32-.762-.347-1.565-.611-2.386-.784-.819-.173-1.52-.261-2.083-.261h-.369c-.128,0-.257.012-.386.036-.667.048-1.46.175-2.356.377-.919.206-1.81.503-2.649.882-.858.389-1.599.886-2.201,1.476-.652.639-.983,1.395-.983,2.247,0,.725.237,1.375.703,1.933.43.512.952.969,1.553,1.358.584.379,1.222.712,1.897.992.626.259,1.186.506,1.667.733.598.266,1.261.555,1.969.858.684.293,1.335.599,1.934.909.577.3,1.066.598,1.452.887.373.279.428.446.434.491-.059.411-.232.755-.53,1.053-.334.334-.757.622-1.257.855-.52.245-1.097.444-1.714.593-.631.152-1.248.268-1.834.344-.622.08-1.151.134-1.619.165-.499.034-.841.05-1.045.05-.864,0-1.621-.049-2.25-.147-.627-.098-1.169-.222-1.609-.37-.432-.143-.779-.306-1.034-.484-.263-.182-.475-.362-.631-.537l-.126-.141h-.222c-.26,0-.524.191-.524.556,0,.101.031.198.117.365l.053.08c.07.19.24.391.553.651.305.254.74.5,1.329.752.573.245,1.301.457,2.164.63.862.172,1.923.26,3.153.26.413,0,.92-.023,1.509-.068.593-.046,1.227-.127,1.885-.24.67-.116,1.338-.278,1.986-.483.675-.215,1.286-.489,1.819-.814.561-.341,1.022-.765,1.369-1.26.363-.519.546-1.13.546-1.819,0-.646-.26-1.246-.771-1.784-.462-.486-1.022-.928-1.666-1.313-.629-.377-1.295-.719-1.979-1.015-.657-.284-1.209-.549-1.644-.789l-.03-.015c-.591-.262-1.209-.563-1.837-.893-.63-.331-1.206-.664-1.714-.989-.502-.321-.907-.635-1.205-.933-.23-.23-.363-.445-.363-.59,0-.13.033-.33.316-.562.278-.229.632-.433,1.051-.607.439-.182.934-.345,1.472-.485.542-.141,1.065-.251,1.552-.327.483-.076.914-.137,1.28-.183.471-.06.591-.064.617-.064,1.276,0,2.278.162,2.979.482.71.324,1.267.684,1.655,1.071.394.395.68.752.851,1.062.1.183.403.74.924.74.446,0,.782-.232.947-.654.119-.306.18-.634.18-.975,0-.743-.303-1.41-.902-1.984Z" fill="#fff" stroke-width="0"/>
            <path d="M124.324,104.408c-.501-.586-1.134-1.047-1.88-1.37-.725-.317-1.536-.536-2.412-.653-.854-.114-1.68-.172-2.454-.172-.32,0-.62.006-.892.017-.25.011-.492.027-.72.045-.276-.065-.517-.096-.736-.096h-.077c-.03,0-.066-.002-.111-.002-.626,0-.725.111-.757.146-.009.01-.02.022-.102.186-.325.064-.706.148-1.133.251-.571.137-1.172.317-1.787.533-.625.221-1.252.474-1.863.752-.641.292-1.218.622-1.716.981-.514.371-.94.786-1.268,1.235-.354.485-.534,1.015-.534,1.574,0,.385.08.724.236,1.008.14.258.3.477.473.649.18.181.368.317.557.404.208.097.361.141.498.141.334,0,.724-.207.724-.791,0-.124-.006-.253-.018-.394-.01-.102-.015-.226-.015-.379v-.269c0-.016.004-.062.036-.142l.027-.066.002-.009c.033-.044.111-.134.285-.294.259-.239.633-.511,1.111-.809.487-.303,1.06-.611,1.702-.917.424-.2.883-.38,1.367-.535-.68,1.55-2.702,6.207-3.731,9.079-.008.024-.037.091-.079.193l-.014.035c-.121.29-.231.56-.333.817-.339-.033-.631-.072-.889-.118l-.915-.164c-.101-.029-.166-.047-.185-.054-.081-.039-.174-.057-.282-.057h-.174l-.059.058c-.114.038-.26.133-.336.367l-.037.115.029.117c.03.12.122.339.405.47l.111.097.921.274c.248.069.557.135.92.194-.774,2.19-.619,2.688-.395,2.876.096.081.206.122.326.122.526,0,1.256-.94,2.17-2.793.327.013.628.019.918.019,1.574,0,3.126-.185,4.614-.549,1.498-.365,2.887-.935,4.129-1.693,1.249-.763,2.332-1.754,3.221-2.943.895-1.197,1.514-2.652,1.84-4.328.024-.147.043-.287.054-.416.012-.136.019-.279.019-.424,0-.927-.266-1.708-.789-2.321ZM122.691,107.097c0,.878-.266,1.752-.792,2.596-.55.884-1.184,1.722-1.885,2.491-.552.613-1.21,1.138-1.957,1.558-.768.433-1.594.794-2.457,1.074-.868.282-1.77.491-2.68.621-.647.092-1.297.153-1.934.18.418-.958.713-1.73.769-1.879.096-.254,1.057-2.464,2.075-4.804l.044-.102c.773-1.776,1.311-3.014,1.686-3.882l.12-.017c.365-.043.791-.081,1.303-.115.501-.033.947-.05,1.364-.05.633,0,1.207.037,1.753.114.515.072.977.201,1.375.384.368.17.67.408.895.708.211.283.319.66.319,1.123Z" fill="#fff" stroke-width="0"/>
            <path d="M190.957,114.024h-.003c-.123.016-.29.18-.6.493-.357.361-.846.855-1.369,1.122-1.097.56-1.827.668-2.07.317-.143-.207-.099-.534-.009-.771.098-.261,1.082-2.522,2.123-4.915,2.549-5.858,2.545-5.872,2.534-5.914-.033-.127-.117-.23-.25-.305-.12-.068-.263-.127-.426-.173-.16-.045-.312-.074-.452-.086-.029-.003-.075-.004-.132-.004-.134,0-.578.008-.667.107-.06.067-1.548,3.378-2.894,6.561-.246-.161-.526-.242-.834-.242-.565,0-1.251.2-2.04.594-.779.389-1.534.888-2.243,1.484-.704.592-1.317,1.239-1.822,1.923-.509.69-.767,1.34-.767,1.932,0,.012.002.024.003.036-.22.098-.445.187-.687.267-.155.052-.303.087-.44.105.007-.17.048-.392.123-.662.086-.312.191-.65.313-1.005.13-.377.265-.753.401-1.117.144-.388.275-.758.389-1.101l.005-.021c.095-.158.152-.371.177-.672.041-.515-.196-.745-.407-.849l-.05-.019c-.323-.088-.627-.054-.888.098-.198.117-.376.24-.529.367-.175.15-.386.39-.647.734-.259.34-.539.699-.834,1.067-.318.397-.652.787-.994,1.16-.35.382-.704.715-1.055.99-.338.267-.672.453-.993.554-.235.073-.446.067-.649-.017v-.133s.001-.065.085-.234c.073-.146.192-.352.355-.612.152-.244.39-.603.746-1.127.442-.628.77-1.088,1.003-1.405.292-.397.428-.689.428-.916,0-.178-.063-.434-.361-.647-.188-.134-.405-.23-.647-.284-.237-.053-.487-.059-.733-.02-.286.045-.511.165-.67.356-.115.137-.296.385-.554.76-.248.36-.502.776-.754,1.234-.25.453-.48.924-.684,1.402-.214.499-.336.973-.359,1.408-.026.389.037.731.185,1.015.144.274.33.499.553.67.221.17.474.29.752.357.265.062.49.092.69.092.537,0,1.065-.136,1.569-.406.479-.258.932-.569,1.345-.926.405-.348.793-.73,1.153-1.136.041-.046.081-.091.12-.135-.005.016-.01.032-.015.049-.12.393-.18.835-.18,1.313,0,.037.002.121.018.264.014.146.056.297.126.447.073.162.182.308.324.435.168.152.405.23.705.23.355,0,.718-.082,1.081-.244.346-.156.658-.336.928-.536.026-.019.051-.038.076-.058.115.107.241.203.379.285.25.148.515.257.788.324.268.069.499.103.686.103.294,0,.593-.04.888-.119.294-.08.569-.178.815-.289.243-.111.46-.225.645-.34.107-.067.453-.276.736-.446.053.291.187.663.519.942.306.257.708.387,1.196.387h0c1.092,0,2.317-.647,3.035-1.201,1.109-.856,1.926-2.524,1.826-2.82-.016-.047-.053-.075-.113-.075ZM183.733,115.441c0,.199.119.35.355.449-.307.177-.662.351-1.056.518-.438.186-.915.28-1.419.28-.319,0-1.148-.091-1.148-.51,0-.163.367-.772.854-1.249.464-.453.982-.886,1.537-1.286.56-.403,1.1-.745,1.604-1.019.426-.232.746-.391.953-.475-.061.202-.139.403-.231.597-.115.24-.224.441-.334.618-.312.58-.576,1.024-.785,1.32-.222.315-.329.563-.329.756Z" fill="#fff" stroke-width="0"/>
            <path d="M137.027,111.663c-.23-.699-.944-1.012-1.552-1.012-.49,0-.951.184-1.409.56-.098.08-.195.167-.294.262.036-.171.026-.318-.032-.498-.053-.164-.179-.28-.385-.356-.198-.071-.423-.125-.67-.161-.248-.036-.479-.047-.691-.036-.228.014-.366.046-.434.102l-.057.047.028.023c-.059.202-.444,1.309-.819,2.384-.134.019-.325.061-.582.127-.269.069-.582.111-.932.124.036-.123.068-.243.096-.359.048-.203.072-.415.072-.63,0-.671-.233-1.24-.692-1.69-.458-.445-.998-.672-1.603-.672-.701,0-1.249.224-1.63.667-.34.394-.537.874-.587,1.427-.441.041-.871.155-1.279.337-.464.21-.877.487-1.225.824-.35.337-.628.739-.828,1.198-.199.457-.3.95-.3,1.465,0,.774.256,1.353.761,1.722.488.358,1.027.54,1.6.54.763,0,1.459-.172,2.069-.51.591-.329,1.106-.706,1.531-1.119.423-.411.759-.812.999-1.19.194-.305.332-.523.412-.653.746-.128,1.314-.288,1.728-.485-.445,1.28-.849,2.454-.877,2.607l-.021.11c-.048.249-.06.316.004.557.121.453.544.614.9.614.215,0,.461-.061.525-.2,1.193-3.017,1.898-3.777,2.58-4.511l.086-.093c.602-.652,1.304-.949,1.702-.949.095,0,.176.016.241.046.362.171.199.925.198.932-.007.029-.165.716.087,1.008.133.154.282.23.454.23h0c.1,0,.196-.025.285-.052.219-.066.432-.376.584-.849.133-.416.248-1.006-.041-1.885ZM126.315,114.198c-.144.183-.312.373-.498.567-.25.261-.525.509-.818.737-.296.23-.591.421-.878.57-.275.142-.535.214-.773.214-.188,0-.316-.06-.404-.19-.101-.147-.152-.36-.152-.636,0-.665.238-1.255.706-1.755.432-.461.926-.759,1.471-.886.146.426.36.748.635.958.224.17.463.312.711.421ZM126.583,111.832c.023-.028.037-.028.048-.028.135,0,.447.263.599.391.682.577.622.688.613.699-.037.044-.113.05-.154.05-.197,0-.465-.122-.697-.318-.184-.155-.323-.335-.394-.506-.053-.129-.058-.237-.015-.288Z" fill="#fff" stroke-width="0"/>
            <path d="M29.082,109.298c.54-.715,1.116-1.357,1.711-1.908.591-.548,1.14-.978,1.633-1.278.827-.522,1.587-.935,2.258-1.227.672-.293,1.276-.519,1.796-.669.509-.149.959-.246,1.337-.288.388-.043.723-.065.994-.065.131,0,.27.01.411.03.175.025.353.037.528.037.256,0,.485-.059.681-.174.274-.158.413-.456.413-.886,0-.425-.07-.745-.215-.977-.421-.679-1.605-.687-1.617-.687-1.086,0-2.193.164-3.29.487-1.083.319-2.155.765-3.186,1.326-1.028.56-2.003,1.245-2.896,2.034-.896.793-1.684,1.663-2.345,2.587-.667.929-1.204,1.927-1.596,2.966-.396,1.05-.597,2.139-.597,3.236,0,1.005.197,1.885.586,2.614.38.716.868,1.319,1.449,1.792.573.464,1.204.816,1.875,1.044.667.226,1.3.341,1.881.341.7,0,1.291-.054,1.756-.162.472-.108.837-.229,1.117-.369l.099-.049c.31-.15.695-.336.792-.708.039-.149.007-.305-.088-.428-.175-.226-.484-.243-.574-.243-.058,0-.114.006-.167.017-.131.027-.289.079-.575.173l-.275.09c-.405.132-.983.198-1.716.198-.423,0-.882-.078-1.365-.232-.47-.149-.908-.389-1.303-.713-.39-.32-.721-.739-.983-1.244-.258-.495-.389-1.118-.389-1.851,0-.833.175-1.67.52-2.486.355-.838.806-1.62,1.341-2.326Z" fill="#fff" stroke-width="0"/>
            <path d="M81.089,113.255c-.061-.225-.273-.372-.528-.351-.084.009-.293.056-.41.305-.186.395-.523.855-1,1.368-1.039,1.087-2.04,1.728-2.97,1.903-.249.034-.444.042-.563.042-.062,0-.119-.002-.167-.006-.4-.033-.555-.205-.674-.473-.122-.273-.105-.507-.091-.611.035-.457.977-1.145,1.43-1.476.472-.344.722-.541.923-.698.08-.063.155-.121.234-.182.3-.229.604-.477.904-.737.332-.289.545-.525.651-.723.127-.243.145-.469.056-.672-.12-.275-.42-.602-1.168-.602-.148,0-.314.013-.493.04-.253.037-.524.117-.813.24l-.451.223-.023.014c-.014.008-.343.188-.795.523-.036.024-.195.151-.543.433-.649.56-1.154,1.156-1.5,1.773-.451.804-.663,1.474-.662,2.09-1.05.523-1.753.621-1.99.279-.143-.207-.099-.534-.01-.772.098-.26,1.076-2.508,2.112-4.888,2.561-5.885,2.557-5.901,2.546-5.942-.034-.127-.118-.23-.25-.305-.12-.068-.263-.127-.426-.173-.159-.045-.311-.074-.452-.086-.029-.003-.076-.004-.132-.004-.134,0-.578.008-.667.107-.053.058-1.484,3.225-2.894,6.561-.246-.161-.526-.242-.834-.242-.565,0-1.251.2-2.04.594-.779.389-1.534.888-2.243,1.484-.705.593-1.318,1.24-1.822,1.923-.509.69-.767,1.34-.767,1.932,0,.325.089.608.264.841.171.229.386.42.638.57.25.148.516.257.788.324.268.069.499.103.686.103.294,0,.592-.04.888-.119.295-.081.569-.178.814-.289.243-.111.46-.225.645-.34.107-.067.453-.276.736-.446.053.29.187.662.519.941.306.257.708.387,1.196.387h0c1.085,0,2.303-.639,3.022-1.191.082.144.184.28.313.389.469.399,1.148.602,2.016.602,1.292,0,2.107-.421,2.732-.833,1.259-.799,2.403-2.029,3.226-3.477l.027-.067c.031-.107.035-.199.01-.288ZM74.891,113.81c.144-.452.359-.887.661-1.343.431-.651.94-1.024,1.512-1.109.033-.005.065-.008.095-.008.087,0,.106.011.107.012.001.002.099.185-.526.822-.378.387-1,.934-1.848,1.625ZM67.265,115.441c0,.199.119.35.355.449-.307.177-.662.351-1.056.518-.438.186-.915.28-1.419.28-.319,0-1.148-.091-1.148-.51,0-.162.367-.772.854-1.249.465-.453.982-.886,1.537-1.286.56-.403,1.1-.745,1.604-1.019.427-.232.746-.391.953-.475-.062.202-.139.403-.231.597-.113.236-.225.442-.335.618-.311.578-.575,1.022-.785,1.32-.221.314-.329.562-.329.756Z" fill="#fff" stroke-width="0"/>
            <path d="M59.621,113.255c-.061-.225-.273-.372-.528-.351-.084.009-.293.056-.41.305-.186.395-.523.855-1,1.368-1.039,1.087-2.04,1.728-2.97,1.903-.249.034-.444.042-.563.042-.062,0-.119-.002-.167-.006-.4-.033-.555-.205-.674-.473-.122-.273-.105-.507-.091-.611.035-.457.977-1.145,1.43-1.476.472-.344.722-.541.923-.698.08-.063.155-.121.234-.182.3-.229.604-.477.904-.737.332-.289.545-.525.651-.723.127-.243.145-.469.056-.672-.12-.275-.42-.602-1.168-.602-.148,0-.314.013-.493.04-.253.037-.524.117-.813.24l-.451.223-.023.014c-.014.008-.343.188-.795.523-.036.024-.195.151-.543.433-.649.56-1.154,1.156-1.5,1.773-.5.892-.709,1.619-.656,2.289.003.04.09.979.634,1.441.469.399,1.148.602,2.016.602,1.292,0,2.107-.421,2.732-.833,1.259-.799,2.403-2.029,3.226-3.477l.027-.067c.031-.107.035-.199.01-.288ZM53.423,113.81c.144-.452.359-.887.661-1.343.431-.651.94-1.024,1.512-1.109.033-.005.065-.008.095-.008.087,0,.106.011.107.012.001.002.099.185-.526.822-.378.387-1,.934-1.848,1.625Z" fill="#fff" stroke-width="0"/>
            <path d="M157.027,108.942c-.057-.215-.353-.247-.462-.258-.063-.002-1.045-.085-2.182-.181-2.128-.181-5.044-.428-5.715-.463-.397-.021-1.38-.091-2.518-.173-1.742-.125-3.695-.264-4.398-.289.403-1.061.468-1.336.441-1.441-.039-.146-.14-.262-.3-.344-.133-.07-.285-.129-.454-.178-.165-.046-.674-.105-.714-.105-.154,0-.291.033-.408.1-.115.067-.223.186-.329.363-.096.163-.245.61-.261.659-.002.005-.18.521-.351.909-.038,0-.084-.001-.136-.002-.158-.003-.368-.006-.585-.006-.451,0-.75.014-.914.044-.279.05-.455.138-.538.268-.053.083-.066.181-.039.285.049.188.127.368.231.537.101.162.202.303.305.421.128.138.228.246.418.358.038.022.152.09.55.09h.029l-.702,1.904-.856,2.531c-.003.009-.274.906-.421,1.526-.429,1.814.791,2.297,1.04,2.376.202.064.421.096.652.096,1.14,0,2.507-.817,3.57-1.641.083.317.244.73.551.991.47.399,1.148.602,2.016.602,1.292,0,2.107-.421,2.732-.833,1.26-.799,2.403-2.029,3.226-3.477l.027-.067c.031-.107.034-.199.01-.288-.061-.225-.272-.372-.528-.351-.084.009-.293.056-.41.305-.186.395-.523.855-1,1.368-1.039,1.087-2.04,1.728-2.97,1.903-.249.034-.444.042-.563.042-.062,0-.12-.002-.167-.006-.4-.033-.554-.205-.674-.473-.122-.273-.105-.507-.091-.611.035-.457.977-1.145,1.43-1.476.472-.344.722-.541.923-.698.08-.063.155-.121.234-.182.3-.229.604-.477.904-.737.332-.289.545-.525.651-.723.127-.243.145-.469.056-.672-.12-.275-.42-.602-1.168-.602-.148,0-.314.013-.493.04-.253.037-.524.117-.813.24l-.451.223-.023.014c-.014.008-.343.188-.796.523-.037.024-.195.151-.543.433-.65.56-1.154,1.156-1.5,1.773-.188.335-.334.647-.442.941-.633.784-1.846,1.538-2.538,1.592-.375.027-.627-.06-.762-.259-.142-.208-.124-.508-.043-.712.076-.193.461-1.174.89-2.27.548-1.399,1.163-2.968,1.313-3.349.433-.004,1.199-.035,2.076-.071,1.45-.06,3.255-.134,4.686-.134h.264c.413.004.939.005,1.53.005,2.706,0,7.079-.03,7.328-.069.062,0,.116-.025.15-.07.059-.077.041-.179.023-.249ZM145.005,112.468c.431-.651.94-1.024,1.512-1.109.033-.005.065-.008.095-.008.087,0,.106.011.107.012.001.002.099.185-.526.822-.379.387-1,.934-1.848,1.625.144-.452.359-.887.661-1.343Z" fill="#fff" stroke-width="0"/>
            <path d="M53.153,109.144c-.011-.133-.039-.251-.084-.352-.045-.1-.112-.151-.202-.151-.112,0-.179.112-.201.335,0,.224-.129.582-.386,1.074-.257.492-.638,1.04-1.141,1.643-.503.604-1.129,1.242-1.879,1.913-.75.672-1.617,1.298-2.6,1.879.336-1.095.542-1.913.621-2.449.078-.537.117-.974.117-1.309,0-.156-.022-.285-.067-.385-.045-.1-.156-.151-.335-.151-.358,0-.66.062-.906.184-.246.123-.37.207-.37.252,0,0-.062.381-.117.804-.056.425-.149.981-.352,1.645-.055.181-.121.377-.201.622-.017.054-.038.107-.057.16-1.274.952-2.288,1.44-3.009,1.44-.264,0-.445-.05-.51-.14-.099-.137-.007-.463.048-.631l.811-.708.276-.25c.161-.146.283-.262.352-.337l.016-.018c.073-.08.268-.293.358-.406.097-.121.297-.412.389-.566.103-.172.164-.326.204-.516.04-.189.06-.33.04-.491-.054-.429-.302-.605-.546-.671-.427-1.101-1.276-1.682-2.465-1.682-1.454,0-2.893.676-4.278,2.009-1.386,1.332-2.088,2.669-2.088,3.973,0,1.722,1.159,1.979,1.85,1.979.754,0,1.689-.275,2.782-.819.122.476.528,1.005,1.735,1.005.796,0,1.714-.267,2.731-.794.272-.144.541-.333.794-.543-.002.036-.004.071-.004.103,0,.313.106.564.319.755.213.189.441.285.688.285h.336c.537,0,1.09-.18,1.661-.537.57-.357,1.124-.816,1.661-1.376.537-.559,1.045-1.163,1.526-1.812.48-.649.9-1.269,1.258-1.863.357-.591.648-1.101.872-1.527.223-.424.341-1.012.352-1.157.011-.145.011-.285,0-.42ZM40.804,113.294c-.715.891-1.217,1.732-1.493,2.503-.748.481-1.425.724-2.013.724-.276,0-.545-.053-.545-.69,0-.976.481-2.035,1.429-3.146.929-1.088,1.886-1.639,2.846-1.639.551,0,.958.245,1.268.767-.438.277-.929.765-1.492,1.48Z" fill="#fff" stroke-width="0"/>
            <path d="M100.755,114.644c-.032-.128-.141-.214-.273-.214-.1,0-.202.047-.34.157-1.446,1.135-2.578,1.71-3.366,1.71-.264,0-.445-.05-.51-.14-.099-.137-.007-.463.048-.631l.811-.708.276-.25c.161-.146.283-.262.352-.337l.016-.018c.073-.08.268-.293.358-.406.097-.121.297-.412.389-.566.103-.172.164-.326.204-.516.04-.189.06-.33.04-.491-.053-.429-.302-.605-.546-.671-.427-1.101-1.276-1.682-2.465-1.682-1.454,0-2.893.676-4.278,2.009-.713.686-1.244,1.373-1.593,2.056-.001.001-.003.002-.004.004-.096.144-.94,1.202-1.842,1.662-1.075.549-1.799.664-2.032.327-.137-.198-.093-.514-.006-.744.099-.262,1.122-2.613,2.111-4.886,2.565-5.895,2.562-5.908,2.547-5.962-.036-.136-.125-.244-.264-.323-.121-.069-.267-.129-.433-.176-.161-.046-.315-.075-.458-.087-.15-.013-.709-.015-.823.113-.077.085-3.675,8.095-5.13,12.158-.078.22-.147,1.17.511,1.723.311.262.72.394,1.215.394,1.099,0,2.332-.65,3.054-1.207.344-.265.722-.591,1.065-.924.07,1.578,1.174,1.823,1.843,1.823.754,0,1.689-.275,2.782-.819.122.476.528,1.005,1.735,1.005.796,0,1.714-.267,2.731-.794,1.213-.64,2.381-2.163,2.275-2.59ZM95.594,113.294c-.715.891-1.217,1.732-1.493,2.503-.748.481-1.425.724-2.013.724-.276,0-.545-.053-.545-.69,0-.976.481-2.035,1.429-3.146.929-1.088,1.886-1.639,2.846-1.639.551,0,.958.245,1.268.767-.438.277-.929.765-1.492,1.48Z" fill="#fff" stroke-width="0"/>
          </g>
          <g id="GOUTTE" mix-blend-mode="luminosity">
            <g id="CONTENU">
              <path d="M91.341,59.403c-.034.286-.081.554-.107.875-.218,2.709-.24,5.863.746,8.802,1.375,4.413,3.872,7.308,7.716,9.069,1.744.747,4.151,1.363,6.875,1.239,3.391-.157,6.532-1.375,8.516-3.268.762-.727,1.468-1.6,2.029-2.45,1.209-1.835,2.015-3.742,2.517-5.626,1.007-3.74.734-7.21.61-8.598-4.327-5.978-10.813,4.603-14.662,4.603-5.701,0-9.58-5.442-14.24-4.648Z" fill="url(#radial-gradient)" stroke-width="0"/>
              <path d="M91.38,59.104c.248-.694,1.822-2.728,5.079-1.697,2.649.835,3.934,4.623,12.708,5.53,2.392.334,7.961.74,11.171.448-.092,2.623-.9,7.278-3.555,10.747-1.025,1.537-2.434,2.958-4.562,3.909-2.694,1.283-5.42,1.333-5.42,1.333-5.667.272-10.203-2.074-12.888-6.117-2.697-3.985-3.32-9.397-2.532-14.153Z" fill="url(#radial-gradient-2)" stroke-width="0"/>
              <path d="M94.198,59.591s4.837,1.569,7.931,4.961c2.713,2.772,2.388,5.077,7.667,5.405,5.279.33,10.643-7.501,10.566-6.473-.024.336-.066,2.346-.8,4.873-.264.909-.607,1.923-1.089,2.919-.555,1.165-1.206,2.252-1.999,3.319-.502.676-1.033,1.305-1.689,1.848-1.084.915-2.517,1.666-4.156,2.215-.805.269-1.864.497-2.934.622-1.042.122-2.161.121-2.927.068-.652-.045-.569-.03-1.501-.167-10.682-1.604-9.068-19.59-9.068-19.59Z" fill="url(#radial-gradient-3)" stroke-width="0"/>
            </g>
            <path d="M120.517,46.364c-8.215-15.402-11.809-26.184-11.809-26.184-.06.156-.128.324-.193.484.534,3.453,1.89,10.076,5.156,17.657,4.791,11.124,11.124,26.098,2.225,36.965-4.62,5.562-17.028,6.074-22.162-2.311-5.134-8.386-1.456-18.74,0-22.676-.897,1.695-1.591,3.01-1.968,3.766-2.054,4.107-9.241,19.509,0,29.777,9.241,10.269,21.049,8.728,25.67,6.162,20.024-10.184,11.295-28.238,3.081-43.641Z" fill="url(#radial-gradient-4)" stroke-width="0"/>
            <path d="M106.476,92.394c13.093,0,23.707-7.172,23.707-23.454,0-8.793-7.841-22.431-7.841-22.431,0,0-11.152-20.398-13.634-26.328,0,0,1.245,5.184,3.157,9.196,9.121,19.143,15.698,28.369,15.698,41.055,0,17.6-21.087,21.962-21.087,21.962Z" fill="url(#radial-gradient-5)" stroke-width="0"/>
            <path d="M85.161,68.006c-.006.169-.015.337-.015.502,0,12.224,9.91,22.135,22.135,22.135s22.136-9.911,22.136-22.135c0-.166-.008-.337-.016-.508.075.738.113,1.487.113,2.244,0,12.28-9.954,22.233-22.233,22.233s-22.232-9.954-22.232-22.233c0-.756.038-1.502.112-2.238Z" fill="url(#radial-gradient-6)" stroke-width="0"/>
            <g id="verre_INAO" data-name="verre INAO">
              <path d="M112.732,86.86c-1.076-.366-3.431-.694-4.545-1.21-1.633-.76-1.381-5.673-1.381-5.673,0,0,.035-2.981.109-3.928.071-.948.285-1.999.553-2.571.27-.572,1.248-.9,1.248-.9,0,0,5.073-1.512,4.664-6.618-.106-1.297-.288-2.946-.496-4.681-.621-5.089-1.505-10.928-1.505-10.928l-5.102-.023v-.003h-.299s-.296,0-.296,0v.003l-5.104.023s-.882,5.839-1.503,10.928c-.21,1.735-.392,3.384-.496,4.681-.411,5.106,4.663,6.618,4.663,6.618,0,0,.978.329,1.249.9.268.572.481,1.624.552,2.571.073.947.108,3.928.108,3.928,0,0,.252,4.913-1.379,5.673-1.115.516-3.469.845-4.546,1.21-1.074.367.264.547,6.374.51h.76c6.111.037,7.448-.143,6.373-.51Z" fill="url(#radial-gradient-7)" stroke-width="0"/>
            </g>
          </g>
        </g>
      </g>
      <rect y="0" width="522" height="150" fill="none" stroke-width="0"/>
    </g>
  </g>
</svg>