<?xml version="1.0" encoding="UTF-8"?>
<svg xmlns="http://www.w3.org/2000/svg" xmlns:xlink="http://www.w3.org/1999/xlink" viewBox="0 0 522 150">
  <defs>
    <style>
      .cls-1 {
        isolation: isolate;
      }

      .cls-2 {
        fill: #272824;
      }

      .cls-2, .cls-3, .cls-4, .cls-5, .cls-6, .cls-7, .cls-8, .cls-9, .cls-10, .cls-11 {
        stroke-width: 0px;
      }

      .cls-3 {
        fill: url(#radial-gradient-2);
      }

      .cls-4 {
        fill: url(#radial-gradient-7);
      }

      .cls-5 {
        fill: url(#radial-gradient-5);
      }

      .cls-6 {
        fill: url(#radial-gradient);
      }

      .cls-12 {
        mix-blend-mode: luminosity;
      }

      .cls-7 {
        fill: #1d1d1b;
      }

      .cls-8 {
        fill: #fff;
      }

      .cls-9 {
        fill: url(#radial-gradient-6);
      }

      .cls-10 {
        fill: url(#radial-gradient-3);
      }

      .cls-11 {
        fill: url(#radial-gradient-4);
      }
    </style>
    <radialGradient id="radial-gradient" cx="117.59" cy="63.03" fx="137.56" fy="63.03" r="20.6" gradientTransform="translate(0 10.78) scale(1 .83)" gradientUnits="userSpaceOnUse">
      <stop offset="0" stop-color="#fff" stop-opacity=".1"/>
      <stop offset=".33" stop-color="#fff" stop-opacity="0"/>
      <stop offset=".62" stop-color="#24353f"/>
      <stop offset=".85" stop-color="#24353f" stop-opacity=".2"/>
    </radialGradient>
    <radialGradient id="radial-gradient-2" cx="114.27" cy="65.88" fx="95.34" fy="65.88" r="19.01" gradientUnits="userSpaceOnUse">
      <stop offset=".18" stop-color="#24353f" stop-opacity="0"/>
      <stop offset=".23" stop-color="rgba(66, 81, 89, .14)" stop-opacity=".14"/>
      <stop offset=".31" stop-color="rgba(115, 126, 133, .36)" stop-opacity=".36"/>
      <stop offset=".39" stop-color="rgba(158, 165, 170, .56)" stop-opacity=".56"/>
      <stop offset=".48" stop-color="rgba(193, 197, 200, .72)" stop-opacity=".72"/>
      <stop offset=".55" stop-color="rgba(220, 222, 224, .84)" stop-opacity=".84"/>
      <stop offset=".63" stop-color="rgba(239, 240, 241, .93)" stop-opacity=".93"/>
      <stop offset=".7" stop-color="rgba(251, 251, 251, .98)" stop-opacity=".98"/>
      <stop offset=".77" stop-color="#fff"/>
    </radialGradient>
    <radialGradient id="radial-gradient-3" cx="104.03" cy="53.25" fx="104.03" fy="53.25" r="37.45" gradientTransform="translate(58.82 -47.39) rotate(46.36) scale(1 .69)" gradientUnits="userSpaceOnUse">
      <stop offset="0" stop-color="#24353f"/>
      <stop offset=".08" stop-color="#24353f"/>
      <stop offset=".26" stop-color="#24353f" stop-opacity=".3"/>
      <stop offset=".79" stop-color="#fff" stop-opacity="1"/>
      <stop offset="1" stop-color="#fff"/>
    </radialGradient>
    <radialGradient id="radial-gradient-4" cx="106.89" cy="38.84" fx="106.89" fy="38.84" r="45.59" gradientTransform="translate(82.33 -70.97) rotate(59.18) scale(1 .91)" gradientUnits="userSpaceOnUse">
      <stop offset=".57" stop-color="#24353f"/>
      <stop offset=".91" stop-color="#ededed"/>
      <stop offset="1" stop-color="#fff"/>
    </radialGradient>
    <radialGradient id="radial-gradient-5" cx="128.4" cy="38.61" fx="112.78" fy="1.12" r="40.61" gradientTransform="translate(44.21 138.26) rotate(-60) scale(1 .6)" gradientUnits="userSpaceOnUse">
      <stop offset=".08" stop-color="#fff" stop-opacity="0"/>
      <stop offset=".72" stop-color="#24353f" stop-opacity=".69"/>
      <stop offset=".92" stop-color="#fff"/>
    </radialGradient>
    <radialGradient id="radial-gradient-6" cx="3184.53" cy="75.22" fx="3184.53" fy="75.22" r="21.87" gradientTransform="translate(2521.71 2147.7) rotate(-138.46) scale(1 -.7)" gradientUnits="userSpaceOnUse">
      <stop offset=".49" stop-color="#9d9d9c" stop-opacity="0"/>
      <stop offset=".76" stop-color="#24353f"/>
      <stop offset=".95" stop-color="#fff"/>
    </radialGradient>
    <radialGradient id="radial-gradient-7" cx="115.34" cy="55.71" fx="115.34" fy="55.71" r="13.19" gradientTransform="translate(0 -80.63) scale(1 2.45)" gradientUnits="userSpaceOnUse">
      <stop offset=".05" stop-color="#24353f" stop-opacity="0"/>
      <stop offset=".39" stop-color="#24353f" stop-opacity="0"/>
      <stop offset=".57" stop-color="#fff"/>
      <stop offset="1" stop-color="#fff"/>
    </radialGradient>
  </defs>
  <g class="cls-1">
    <g id="Calque_1" data-name="Calque 1">
      <g>
        <g>
          <path class="cls-7" d="M264.71,32.1h-4.9l-.97,2.27h-1.88l4.41-9.8h1.79l4.42,9.8h-1.9l-.98-2.27ZM264.11,30.68l-1.85-4.28-1.83,4.28h3.68Z"/>
          <path class="cls-7" d="M268.68,23.98h1.75v10.39h-1.75v-10.39Z"/>
          <path class="cls-7" d="M277.58,33.97c-.21.17-.46.29-.75.38s-.6.13-.93.13c-.82,0-1.46-.21-1.9-.64-.45-.43-.67-1.05-.67-1.88v-3.6h-1.23v-1.4h1.23v-1.71h1.75v1.71h2v1.4h-2v3.56c0,.36.09.64.27.83s.43.29.77.29c.39,0,.72-.1.98-.31l.49,1.25Z"/>
          <path class="cls-7" d="M285.77,31.19h-5.87c.1.55.37.99.8,1.31.43.32.97.48,1.62.48.82,0,1.5-.27,2.03-.81l.94,1.08c-.34.4-.76.71-1.27.91-.51.21-1.09.31-1.74.31-.82,0-1.54-.16-2.17-.49-.62-.33-1.11-.78-1.45-1.37s-.51-1.24-.51-1.98.17-1.38.5-1.97c.33-.58.79-1.04,1.38-1.37.59-.33,1.25-.49,1.99-.49s1.38.16,1.95.48c.57.32,1.02.78,1.34,1.36.32.58.48,1.26.48,2.02,0,.12,0,.29-.03.52ZM280.6,28.71c-.39.33-.62.77-.71,1.32h4.24c-.07-.54-.3-.98-.69-1.32s-.86-.5-1.43-.5-1.03.17-1.42.5Z"/>
          <path class="cls-7" d="M291.8,26.81v1.67c-.15-.03-.29-.04-.41-.04-.68,0-1.21.2-1.6.59-.38.4-.57.97-.57,1.71v3.63h-1.75v-7.48h1.67v1.09c.5-.78,1.39-1.18,2.66-1.18Z"/>
          <path class="cls-7" d="M304.74,32.85v1.53h-7.35v-9.8h7.15v1.53h-5.33v2.55h4.73v1.5h-4.73v2.7h5.53Z"/>
          <path class="cls-7" d="M313.95,26.9v6.34c0,2.63-1.34,3.95-4.03,3.95-.72,0-1.4-.09-2.04-.27s-1.18-.45-1.6-.79l.78-1.32c.33.27.74.49,1.24.65.5.16,1.01.25,1.52.25.82,0,1.42-.19,1.81-.56.38-.37.57-.94.57-1.71v-.39c-.3.33-.66.57-1.09.74-.43.17-.9.25-1.41.25-.71,0-1.35-.15-1.93-.46-.57-.3-1.03-.73-1.36-1.28-.33-.55-.5-1.18-.5-1.89s.17-1.34.5-1.88c.33-.55.78-.97,1.36-1.27.57-.3,1.22-.45,1.93-.45.54,0,1.03.09,1.48.27.44.18.81.45,1.11.81v-.99h1.67ZM311.59,31.96c.42-.4.64-.91.64-1.55s-.21-1.13-.64-1.53c-.42-.39-.97-.59-1.63-.59s-1.22.2-1.64.59c-.42.39-.64.9-.64,1.53s.21,1.15.64,1.55c.42.4.97.59,1.64.59s1.21-.2,1.63-.59Z"/>
          <path class="cls-7" d="M317.56,33.98c-.61-.33-1.08-.78-1.42-1.37s-.51-1.24-.51-1.98.17-1.39.51-1.97.81-1.03,1.42-1.36c.61-.33,1.29-.49,2.04-.49s1.45.16,2.06.49c.61.33,1.08.78,1.42,1.36s.51,1.24.51,1.97-.17,1.4-.51,1.98-.81,1.04-1.42,1.37c-.61.33-1.29.49-2.06.49s-1.44-.16-2.04-.49ZM321.2,32.33c.42-.43.63-.99.63-1.69s-.21-1.26-.63-1.69c-.42-.43-.95-.64-1.6-.64s-1.17.21-1.59.64c-.42.43-.62.99-.62,1.69s.21,1.26.62,1.69c.42.43.95.64,1.59.64s1.18-.21,1.6-.64Z"/>
          <path class="cls-7" d="M325.81,34.23c-.58-.16-1.04-.36-1.39-.6l.67-1.33c.34.22.74.4,1.21.54.47.14.94.2,1.39.2,1.05,0,1.57-.28,1.57-.83,0-.26-.13-.44-.4-.55s-.69-.2-1.28-.29c-.62-.09-1.12-.2-1.51-.32-.39-.12-.72-.33-1.01-.64-.28-.3-.43-.73-.43-1.27,0-.71.3-1.28.89-1.7.59-.42,1.39-.64,2.4-.64.51,0,1.03.06,1.54.17.51.12.93.27,1.26.47l-.67,1.33c-.63-.37-1.35-.56-2.14-.56-.51,0-.9.08-1.17.23-.27.15-.4.36-.4.61,0,.28.14.48.43.59.28.12.73.23,1.32.33.6.09,1.09.2,1.47.32.38.12.71.33.99.62.28.29.41.7.41,1.23,0,.7-.3,1.26-.91,1.68s-1.43.63-2.48.63c-.61,0-1.2-.08-1.78-.24Z"/>
          <path class="cls-7" d="M335.97,29.75h3.85v1.46h-3.85v-1.46Z"/>
          <path class="cls-7" d="M353.86,30.15c.33.42.49.94.49,1.57,0,.85-.32,1.5-.96,1.96-.64.46-1.57.69-2.79.69h-4.68v-9.8h4.4c1.12,0,1.99.22,2.6.67s.92,1.07.92,1.86c0,.51-.12.96-.36,1.33-.24.37-.56.66-.96.85.57.16,1.02.45,1.34.86ZM347.33,25.71v3.14h2.87c.72,0,1.27-.13,1.66-.4.39-.27.58-.66.58-1.17s-.19-.9-.58-1.17c-.39-.27-.94-.4-1.66-.4h-2.87ZM352.34,32.85c.4-.26.6-.67.6-1.23,0-1.09-.8-1.64-2.39-1.64h-3.22v3.26h3.22c.79,0,1.39-.13,1.79-.39Z"/>
          <path class="cls-7" d="M361.39,27.64c.55.5.82,1.26.82,2.25v4.48h-1.27v-.98c-.22.35-.54.61-.96.79-.42.18-.91.27-1.48.27-.83,0-1.5-.2-2-.6-.5-.4-.75-.93-.75-1.58s.24-1.18.71-1.58,1.23-.59,2.27-.59h2.13v-.27c0-.58-.17-1.02-.5-1.33-.34-.31-.83-.46-1.48-.46-.44,0-.87.07-1.29.22-.42.15-.77.34-1.06.58l-.56-1.01c.38-.31.84-.54,1.37-.71.53-.16,1.1-.25,1.69-.25,1.03,0,1.81.25,2.36.76ZM360.05,33.08c.37-.23.64-.55.81-.97v-1.04h-2.07c-1.14,0-1.71.38-1.71,1.15,0,.37.14.67.43.88.29.21.69.32,1.2.32s.96-.11,1.33-.34Z"/>
          <path class="cls-7" d="M367.02,27.22c.46-.22,1.01-.34,1.67-.34v1.3c-.07,0-.18-.01-.31-.01-.73,0-1.3.22-1.71.65-.42.43-.62,1.05-.62,1.85v3.7h-1.34v-7.42h1.29v1.25c.23-.43.58-.76,1.04-.98Z"/>
          <path class="cls-7" d="M379.27,27.64c.55.5.82,1.26.82,2.25v4.48h-1.27v-.98c-.22.35-.54.61-.96.79-.42.18-.91.27-1.48.27-.83,0-1.5-.2-2-.6s-.75-.93-.75-1.58.24-1.18.71-1.58c.48-.4,1.23-.59,2.27-.59h2.13v-.27c0-.58-.17-1.02-.5-1.33-.34-.31-.83-.46-1.48-.46-.44,0-.87.07-1.29.22-.42.15-.77.34-1.06.58l-.56-1.01c.38-.31.84-.54,1.37-.71s1.1-.25,1.69-.25c1.03,0,1.81.25,2.36.76ZM374.44,24.05h1.71l1.9,1.82h-1.26l-2.35-1.82ZM377.93,33.08c.37-.23.64-.55.81-.97v-1.04h-2.07c-1.14,0-1.71.38-1.71,1.15,0,.37.14.67.43.88.29.21.69.32,1.2.32s.96-.11,1.33-.34Z"/>
          <path class="cls-7" d="M392.21,27.36c.57.32,1.02.76,1.34,1.33.32.57.48,1.23.48,1.97s-.16,1.41-.48,1.98c-.32.57-.77,1.02-1.34,1.34s-1.21.48-1.93.48c-.55,0-1.05-.11-1.51-.32-.46-.21-.84-.53-1.13-.94v1.18h-1.29v-10.39h1.34v4.09c.3-.39.67-.69,1.12-.89.45-.2.94-.3,1.47-.3.72,0,1.36.16,1.93.48ZM391.45,32.95c.38-.22.68-.53.9-.92.22-.4.33-.85.33-1.37s-.11-.97-.33-1.37c-.22-.4-.52-.7-.9-.92s-.8-.32-1.28-.32-.89.11-1.27.32-.68.52-.9.92c-.21.4-.32.85-.32,1.37s.11.97.32,1.37c.21.4.51.7.9.92s.81.33,1.27.33.9-.11,1.28-.33Z"/>
          <path class="cls-7" d="M395.91,25.27c-.17-.17-.26-.37-.26-.62s.09-.45.26-.62.39-.26.65-.26.48.08.65.25c.17.16.26.37.26.61s-.09.46-.26.64c-.17.17-.39.26-.65.26s-.48-.08-.65-.25ZM395.89,26.95h1.34v7.42h-1.34v-7.42Z"/>
          <path class="cls-7" d="M406.47,31.11h-6.02c.08.65.37,1.18.86,1.58.49.4,1.1.59,1.83.59.89,0,1.6-.3,2.14-.9l.74.87c-.34.39-.75.69-1.25.9s-1.06.31-1.67.31c-.78,0-1.48-.16-2.09-.48-.61-.32-1.08-.77-1.41-1.35-.33-.58-.5-1.23-.5-1.96s.16-1.37.48-1.95c.32-.58.76-1.03,1.33-1.35s1.2-.48,1.91-.48,1.34.16,1.9.48c.56.32.99.77,1.3,1.35.31.58.47,1.24.47,1.99,0,.1,0,.24-.03.41ZM400.26,24.05h1.71l1.9,1.82h-1.26l-2.35-1.82ZM401.22,28.6c-.43.39-.69.91-.76,1.54h4.76c-.07-.63-.33-1.14-.76-1.53-.43-.4-.97-.6-1.62-.6s-1.18.2-1.62.59Z"/>
          <path class="cls-7" d="M410.69,27.22c.46-.22,1.01-.34,1.67-.34v1.3c-.07,0-.18-.01-.31-.01-.73,0-1.3.22-1.72.65-.42.43-.62,1.05-.62,1.85v3.7h-1.34v-7.42h1.29v1.25c.23-.43.58-.76,1.04-.98Z"/>
          <path class="cls-7" d="M420.61,31.11h-6.02c.08.65.37,1.18.86,1.58.49.4,1.1.59,1.83.59.89,0,1.6-.3,2.14-.9l.74.87c-.34.39-.75.69-1.25.9-.5.21-1.06.31-1.67.31-.78,0-1.48-.16-2.09-.48-.61-.32-1.08-.77-1.41-1.35-.33-.58-.5-1.23-.5-1.96s.16-1.37.48-1.95c.32-.58.77-1.03,1.33-1.35.56-.32,1.2-.48,1.91-.48s1.34.16,1.9.48c.56.32.99.77,1.3,1.35.31.58.47,1.24.47,1.99,0,.1,0,.24-.03.41ZM415.36,28.6c-.43.39-.69.91-.76,1.54h4.76c-.08-.63-.33-1.14-.76-1.53s-.97-.6-1.62-.6-1.18.2-1.62.59Z"/>
          <path class="cls-7" d="M422.88,34.21c-.56-.16-1-.37-1.32-.62l.56-1.06c.33.23.72.42,1.19.56s.94.21,1.41.21c1.18,0,1.76-.34,1.76-1.01,0-.22-.08-.4-.24-.53s-.36-.23-.6-.29c-.24-.06-.58-.13-1.01-.2-.6-.09-1.08-.2-1.46-.32s-.7-.33-.97-.62c-.27-.29-.41-.7-.41-1.22,0-.67.28-1.21.84-1.62s1.31-.61,2.25-.61c.49,0,.99.06,1.48.18.49.12.9.28,1.22.49l-.57,1.06c-.61-.39-1.32-.59-2.14-.59-.57,0-1,.09-1.3.28-.3.19-.45.43-.45.74,0,.24.08.43.25.57s.38.24.62.31c.25.07.59.14,1.04.22.6.1,1.08.21,1.45.33.37.12.68.31.94.59.26.28.39.67.39,1.18,0,.67-.29,1.21-.86,1.6s-1.36.59-2.34.59c-.61,0-1.19-.08-1.75-.25Z"/>
          <path class="cls-7" d="M439.96,31.11h-6.02c.08.65.37,1.18.86,1.58.49.4,1.1.59,1.83.59.89,0,1.6-.3,2.14-.9l.74.87c-.34.39-.75.69-1.25.9s-1.06.31-1.67.31c-.78,0-1.48-.16-2.09-.48-.61-.32-1.08-.77-1.41-1.35-.33-.58-.5-1.23-.5-1.96s.16-1.37.48-1.95c.32-.58.77-1.03,1.33-1.35s1.2-.48,1.91-.48,1.34.16,1.9.48.99.77,1.3,1.35c.31.58.47,1.24.47,1.99,0,.1,0,.24-.03.41ZM434.71,28.6c-.43.39-.69.91-.76,1.54h4.76c-.07-.63-.33-1.14-.76-1.53-.43-.4-.97-.6-1.62-.6s-1.18.2-1.62.59Z"/>
          <path class="cls-7" d="M446.02,33.94c-.2.17-.44.3-.73.38s-.59.13-.9.13c-.75,0-1.33-.2-1.74-.6s-.62-.98-.62-1.72v-4.07h-1.26v-1.11h1.26v-1.62h1.34v1.62h2.13v1.11h-2.13v4.02c0,.4.1.71.3.92.2.21.49.32.86.32.41,0,.76-.12,1.05-.35l.42.97Z"/>
          <path class="cls-7" d="M457.98,26.95l-3.25,7.42h-1.37l-3.25-7.42h1.4l2.55,5.95,2.6-5.95h1.32Z"/>
          <path class="cls-7" d="M459.26,25.27c-.17-.17-.26-.37-.26-.62s.09-.45.26-.62.39-.26.65-.26.48.08.65.25c.17.16.26.37.26.61s-.09.46-.26.64c-.17.17-.39.26-.65.26s-.48-.08-.65-.25ZM459.24,26.95h1.34v7.42h-1.34v-7.42Z"/>
          <path class="cls-7" d="M469.35,27.7c.56.55.83,1.35.83,2.4v4.27h-1.34v-4.12c0-.72-.17-1.26-.52-1.62-.35-.36-.84-.55-1.48-.55-.73,0-1.3.21-1.72.64-.42.42-.63,1.03-.63,1.83v3.82h-1.34v-7.42h1.29v1.12c.27-.38.64-.68,1.1-.88.46-.21.99-.31,1.58-.31.94,0,1.69.27,2.25.82Z"/>
          <path class="cls-7" d="M473.06,34.21c-.56-.16-1-.37-1.32-.62l.56-1.06c.33.23.72.42,1.19.56.47.14.94.21,1.41.21,1.18,0,1.76-.34,1.76-1.01,0-.22-.08-.4-.24-.53s-.36-.23-.59-.29c-.24-.06-.58-.13-1.02-.2-.6-.09-1.08-.2-1.46-.32-.38-.12-.7-.33-.97-.62s-.41-.7-.41-1.22c0-.67.28-1.21.84-1.62s1.31-.61,2.25-.61c.49,0,.99.06,1.48.18s.9.28,1.22.49l-.57,1.06c-.61-.39-1.32-.59-2.14-.59-.57,0-1,.09-1.3.28-.3.19-.45.43-.45.74,0,.24.08.43.25.57s.38.24.62.31c.25.07.6.14,1.04.22.6.1,1.08.21,1.45.33.37.12.68.31.95.59.26.28.39.67.39,1.18,0,.67-.29,1.21-.86,1.6s-1.36.59-2.35.59c-.61,0-1.19-.08-1.75-.25Z"/>
          <path class="cls-7" d="M263.38,45.64c.55.5.82,1.26.82,2.25v4.48h-1.27v-.98c-.22.35-.54.61-.96.79-.42.18-.91.27-1.48.27-.83,0-1.5-.2-2-.6s-.75-.93-.75-1.58.24-1.18.71-1.58c.48-.4,1.23-.59,2.27-.59h2.13v-.27c0-.58-.17-1.02-.5-1.33-.34-.31-.83-.46-1.48-.46-.44,0-.87.07-1.29.22-.42.15-.77.34-1.06.58l-.56-1.01c.38-.31.84-.54,1.37-.71s1.1-.25,1.69-.25c1.03,0,1.81.25,2.36.76ZM262.04,51.08c.37-.23.64-.55.81-.97v-1.04h-2.07c-1.14,0-1.71.38-1.71,1.15,0,.37.14.67.43.88.29.21.69.32,1.2.32s.96-.11,1.33-.34Z"/>
          <path class="cls-7" d="M268.2,44.31v.64h2.16v1.11h-2.13v6.31h-1.34v-6.31h-1.26v-1.11h1.26v-.66c0-.74.21-1.32.64-1.75.43-.43,1.03-.64,1.81-.64.3,0,.58.04.84.11.26.08.48.18.67.32l-.41,1.02c-.31-.23-.65-.35-1.04-.35-.8,0-1.2.43-1.2,1.3Z"/>
          <path class="cls-7" d="M273.14,44.31v.64h2.16v1.11h-2.13v6.31h-1.34v-6.31h-1.26v-1.11h1.26v-.66c0-.74.21-1.32.64-1.75.43-.43,1.03-.64,1.81-.64.3,0,.58.04.84.11.26.08.48.18.67.32l-.41,1.02c-.31-.23-.65-.35-1.04-.35-.8,0-1.2.43-1.2,1.3ZM277.71,43.27c-.17-.17-.26-.37-.26-.62s.09-.45.26-.62c.17-.17.39-.26.65-.26s.48.08.65.25c.17.16.26.37.26.61s-.09.46-.26.64c-.17.17-.39.26-.65.26s-.48-.08-.65-.25ZM277.69,44.95h1.34v7.42h-1.34v-7.42Z"/>
          <path class="cls-7" d="M281.6,41.98h1.34v10.39h-1.34v-10.39Z"/>
          <path class="cls-7" d="M285.52,43.27c-.17-.17-.26-.37-.26-.62s.09-.45.26-.62c.17-.17.39-.26.65-.26s.48.08.65.25c.17.16.26.37.26.61s-.09.46-.26.64c-.17.17-.39.26-.65.26s-.48-.08-.65-.25ZM285.5,44.95h1.34v7.42h-1.34v-7.42Z"/>
          <path class="cls-7" d="M296.09,49.11h-6.02c.08.65.37,1.18.86,1.58.49.4,1.1.59,1.83.59.89,0,1.6-.3,2.14-.9l.74.87c-.34.39-.75.69-1.25.9s-1.06.31-1.67.31c-.78,0-1.48-.16-2.09-.48-.61-.32-1.08-.77-1.41-1.35-.33-.58-.5-1.23-.5-1.96s.16-1.37.48-1.95c.32-.58.77-1.03,1.33-1.35s1.2-.48,1.91-.48,1.34.16,1.9.48.99.77,1.3,1.35c.31.58.47,1.24.47,1.99,0,.1,0,.24-.03.41ZM290.83,46.6c-.43.39-.69.91-.76,1.54h4.76c-.07-.63-.33-1.14-.76-1.53-.43-.4-.97-.6-1.62-.6s-1.18.2-1.62.59ZM293.29,42.05h1.71l-2.35,1.82h-1.26l1.9-1.82Z"/>
          <path class="cls-7" d="M306.8,45.64c.55.5.82,1.26.82,2.25v4.48h-1.27v-.98c-.22.35-.54.61-.96.79-.42.18-.91.27-1.48.27-.83,0-1.5-.2-2-.6-.5-.4-.75-.93-.75-1.58s.24-1.18.71-1.58,1.23-.59,2.27-.59h2.13v-.27c0-.58-.17-1.02-.5-1.33-.34-.31-.83-.46-1.48-.46-.44,0-.87.07-1.29.22-.42.15-.77.34-1.06.58l-.56-1.01c.38-.31.84-.54,1.37-.71.53-.16,1.1-.25,1.69-.25,1.03,0,1.81.25,2.36.76ZM301.98,42.05h1.71l1.9,1.82h-1.26l-2.35-1.82ZM305.47,51.08c.37-.23.64-.55.81-.97v-1.04h-2.07c-1.14,0-1.71.38-1.71,1.15,0,.37.14.67.43.88.29.21.69.32,1.2.32s.96-.11,1.33-.34Z"/>
          <path class="cls-7" d="M313.88,41.98h1.34v10.39h-1.34v-10.39Z"/>
          <path class="cls-7" d="M322.85,45.64c.55.5.82,1.26.82,2.25v4.48h-1.27v-.98c-.22.35-.54.61-.96.79-.42.18-.91.27-1.48.27-.83,0-1.5-.2-2-.6s-.75-.93-.75-1.58.24-1.18.71-1.58c.48-.4,1.23-.59,2.27-.59h2.13v-.27c0-.58-.17-1.02-.5-1.33-.34-.31-.83-.46-1.48-.46-.44,0-.87.07-1.29.22-.42.15-.77.34-1.06.58l-.56-1.01c.38-.31.84-.54,1.37-.71s1.1-.25,1.69-.25c1.03,0,1.81.25,2.36.76ZM321.51,51.08c.37-.23.64-.55.81-.97v-1.04h-2.07c-1.14,0-1.71.38-1.71,1.15,0,.37.14.67.43.88.29.21.69.32,1.2.32s.96-.11,1.33-.34Z"/>
          <path class="cls-7" d="M331.85,51.83c-.79-.43-1.41-1.03-1.85-1.79s-.67-1.62-.67-2.57.22-1.81.67-2.57,1.07-1.36,1.86-1.79c.79-.43,1.68-.65,2.66-.65.77,0,1.47.13,2.1.38.63.26,1.18.64,1.62,1.14l-.91.88c-.74-.77-1.66-1.16-2.76-1.16-.73,0-1.39.16-1.97.49-.59.33-1.05.78-1.38,1.35-.33.57-.5,1.22-.5,1.92s.17,1.35.5,1.93c.33.57.79,1.02,1.38,1.35.59.33,1.25.49,1.97.49,1.09,0,2.01-.39,2.76-1.18l.91.88c-.45.5-.99.89-1.63,1.15-.64.26-1.34.39-2.11.39-.98,0-1.86-.22-2.65-.65Z"/>
          <path class="cls-7" d="M345.01,45.64c.55.5.82,1.26.82,2.25v4.48h-1.27v-.98c-.22.35-.54.61-.96.79-.42.18-.91.27-1.48.27-.83,0-1.5-.2-2-.6-.5-.4-.75-.93-.75-1.58s.24-1.18.71-1.58c.48-.4,1.23-.59,2.27-.59h2.13v-.27c0-.58-.17-1.02-.5-1.33-.34-.31-.83-.46-1.48-.46-.44,0-.87.07-1.29.22-.42.15-.77.34-1.06.58l-.56-1.01c.38-.31.84-.54,1.37-.71.53-.16,1.1-.25,1.69-.25,1.03,0,1.81.25,2.36.76ZM343.67,51.08c.37-.23.64-.55.81-.97v-1.04h-2.07c-1.14,0-1.71.38-1.71,1.15,0,.37.14.67.43.88.29.21.69.32,1.2.32s.96-.11,1.33-.34Z"/>
          <path class="cls-7" d="M354.75,44.95l-3.25,7.42h-1.37l-3.25-7.42h1.4l2.55,5.95,2.6-5.95h1.32Z"/>
          <path class="cls-7" d="M362.47,49.11h-6.02c.08.65.37,1.18.86,1.58.49.4,1.1.59,1.83.59.89,0,1.6-.3,2.14-.9l.74.87c-.34.39-.75.69-1.25.9-.5.21-1.06.31-1.67.31-.78,0-1.48-.16-2.09-.48-.61-.32-1.08-.77-1.41-1.35-.33-.58-.5-1.23-.5-1.96s.16-1.37.48-1.95c.32-.58.77-1.03,1.33-1.35.56-.32,1.2-.48,1.91-.48s1.34.16,1.9.48c.56.32.99.77,1.3,1.35.31.58.47,1.24.47,1.99,0,.1,0,.24-.03.41ZM357.22,46.6c-.43.39-.69.91-.76,1.54h4.76c-.08-.63-.33-1.14-.76-1.53s-.97-.6-1.62-.6-1.18.2-1.62.59Z"/>
          <path class="cls-7" d="M375.13,41.98v10.39h-1.29v-1.18c-.3.41-.68.72-1.13.94-.46.21-.96.32-1.51.32-.72,0-1.36-.16-1.93-.48s-1.01-.76-1.34-1.34c-.32-.57-.48-1.23-.48-1.98s.16-1.4.48-1.97.77-1.01,1.34-1.33,1.21-.48,1.93-.48c.53,0,1.02.1,1.47.3.45.2.82.5,1.12.89v-4.09h1.34ZM372.58,50.95c.38-.22.68-.53.9-.92s.32-.85.32-1.37-.11-.97-.32-1.37c-.21-.4-.51-.7-.9-.92-.38-.21-.81-.32-1.27-.32s-.9.11-1.28.32c-.38.21-.68.52-.9.92-.22.4-.33.85-.33,1.37s.11.97.33,1.37c.22.4.52.7.9.92.38.22.81.33,1.28.33s.89-.11,1.27-.33Z"/>
          <path class="cls-7" d="M384.36,49.11h-6.02c.08.65.37,1.18.86,1.58.49.4,1.1.59,1.83.59.89,0,1.6-.3,2.14-.9l.74.87c-.34.39-.75.69-1.25.9-.5.21-1.06.31-1.67.31-.78,0-1.48-.16-2.09-.48-.61-.32-1.08-.77-1.41-1.35-.33-.58-.5-1.23-.5-1.96s.16-1.37.48-1.95c.32-.58.77-1.03,1.33-1.35.56-.32,1.2-.48,1.91-.48s1.34.16,1.9.48c.56.32.99.77,1.3,1.35.31.58.47,1.24.47,1.99,0,.1,0,.24-.03.41ZM379.1,46.6c-.43.39-.69.91-.76,1.54h4.76c-.08-.63-.33-1.14-.76-1.53s-.97-.6-1.62-.6-1.18.2-1.62.59Z"/>
          <path class="cls-7" d="M390.21,42.57h1.4v8.58h5.31v1.22h-6.71v-9.8Z"/>
          <path class="cls-7" d="M403.43,45.64c.55.5.82,1.26.82,2.25v4.48h-1.27v-.98c-.22.35-.54.61-.96.79-.42.18-.91.27-1.48.27-.83,0-1.5-.2-2-.6-.5-.4-.75-.93-.75-1.58s.24-1.18.71-1.58,1.23-.59,2.27-.59h2.13v-.27c0-.58-.17-1.02-.5-1.33-.34-.31-.83-.46-1.48-.46-.44,0-.87.07-1.29.22-.42.15-.77.34-1.06.58l-.56-1.01c.38-.31.84-.54,1.37-.71.53-.16,1.1-.25,1.69-.25,1.03,0,1.81.25,2.36.76ZM402.09,51.08c.37-.23.64-.55.81-.97v-1.04h-2.07c-1.14,0-1.71.38-1.71,1.15,0,.37.14.67.43.88.29.21.69.32,1.2.32s.96-.11,1.33-.34Z"/>
          <path class="cls-7" d="M417.52,43.48c.73.61,1.09,1.44,1.09,2.51s-.36,1.9-1.09,2.51c-.73.61-1.73.91-3,.91h-2.42v2.97h-1.4v-9.8h3.82c1.27,0,2.27.3,3,.91ZM416.51,47.62c.47-.38.7-.92.7-1.63s-.23-1.25-.7-1.63c-.47-.38-1.14-.57-2.03-.57h-2.38v4.4h2.38c.89,0,1.56-.19,2.03-.57Z"/>
          <path class="cls-7" d="M421.64,51.97c-.59-.33-1.05-.78-1.38-1.35-.33-.57-.5-1.23-.5-1.95s.17-1.38.5-1.95c.33-.57.79-1.02,1.38-1.34.59-.32,1.25-.48,1.99-.48s1.4.16,1.98.48c.58.32,1.04.77,1.37,1.34s.5,1.22.5,1.95-.17,1.38-.5,1.95-.79,1.02-1.37,1.35c-.58.33-1.24.49-1.98.49s-1.4-.16-1.99-.49ZM424.91,50.95c.38-.22.67-.53.89-.92s.32-.85.32-1.37-.11-.97-.32-1.37c-.21-.4-.51-.7-.89-.92s-.81-.32-1.28-.32-.9.11-1.28.32c-.38.21-.68.52-.9.92-.22.4-.33.85-.33,1.37s.11.97.33,1.37c.22.4.52.7.9.92.38.22.81.33,1.28.33s.9-.11,1.28-.33Z"/>
          <path class="cls-7" d="M431.66,45.22c.46-.22,1.01-.34,1.67-.34v1.3c-.08,0-.18-.01-.31-.01-.73,0-1.3.22-1.72.65-.42.43-.62,1.05-.62,1.85v3.7h-1.34v-7.42h1.29v1.25c.23-.43.58-.76,1.04-.98Z"/>
          <path class="cls-7" d="M439.46,51.94c-.2.17-.44.3-.73.38s-.59.13-.9.13c-.75,0-1.33-.2-1.74-.6s-.62-.98-.62-1.72v-4.07h-1.26v-1.11h1.26v-1.62h1.34v1.62h2.13v1.11h-2.13v4.02c0,.4.1.71.3.92.2.21.49.32.86.32.41,0,.76-.12,1.05-.35l.42.97Z"/>
          <path class="cls-7" d="M447.51,49.11h-6.02c.08.65.37,1.18.86,1.58.49.4,1.1.59,1.83.59.89,0,1.6-.3,2.14-.9l.74.87c-.34.39-.75.69-1.25.9s-1.06.31-1.67.31c-.78,0-1.48-.16-2.09-.48-.61-.32-1.08-.77-1.41-1.35-.33-.58-.5-1.23-.5-1.96s.16-1.37.48-1.95c.32-.58.76-1.03,1.33-1.35s1.2-.48,1.91-.48,1.34.16,1.9.48c.56.32.99.77,1.3,1.35.31.58.47,1.24.47,1.99,0,.1,0,.24-.03.41ZM442.25,46.6c-.43.39-.69.91-.76,1.54h4.76c-.07-.63-.33-1.14-.76-1.53-.43-.4-.97-.6-1.62-.6s-1.18.2-1.62.59Z"/>
          <path class="cls-7" d="M454.08,52.14c-.69-.23-1.23-.52-1.62-.89l.52-1.09c.37.34.85.61,1.44.82.58.21,1.18.31,1.8.31.81,0,1.42-.14,1.82-.41.4-.28.6-.64.6-1.1,0-.34-.11-.61-.33-.82s-.49-.37-.81-.48c-.32-.11-.78-.24-1.36-.38-.74-.18-1.33-.36-1.79-.53-.45-.18-.84-.45-1.16-.82-.32-.37-.48-.87-.48-1.49,0-.52.14-.99.41-1.41.27-.42.69-.76,1.25-1.01s1.26-.38,2.09-.38c.58,0,1.15.08,1.71.22.56.15,1.04.36,1.44.64l-.46,1.12c-.41-.26-.85-.46-1.32-.59-.47-.14-.92-.2-1.37-.2-.79,0-1.39.14-1.78.43-.4.29-.6.66-.6,1.12,0,.34.11.61.34.82s.5.37.83.49c.33.12.78.24,1.35.37.74.18,1.33.36,1.78.53.45.18.83.45,1.15.81.32.36.48.85.48,1.47,0,.51-.14.98-.42,1.41-.28.42-.71.76-1.27,1.01s-1.27.37-2.1.37c-.74,0-1.45-.11-2.14-.34Z"/>
          <path class="cls-7" d="M468.77,44.95v7.42h-1.27v-1.12c-.27.38-.63.68-1.07.89-.44.21-.93.32-1.45.32-.99,0-1.77-.27-2.34-.82s-.85-1.35-.85-2.42v-4.27h1.34v4.12c0,.72.17,1.26.52,1.63s.84.55,1.48.55c.71,0,1.27-.21,1.68-.64.41-.43.62-1.04.62-1.82v-3.84h1.34Z"/>
          <path class="cls-7" d="M478.34,41.98v10.39h-1.29v-1.18c-.3.41-.68.72-1.13.94-.46.21-.96.32-1.51.32-.72,0-1.36-.16-1.93-.48s-1.02-.76-1.34-1.34c-.32-.57-.48-1.23-.48-1.98s.16-1.4.48-1.97.77-1.01,1.34-1.33,1.21-.48,1.93-.48c.53,0,1.02.1,1.47.3.45.2.82.5,1.12.89v-4.09h1.34ZM475.79,50.95c.38-.22.68-.53.9-.92.21-.4.32-.85.32-1.37s-.11-.97-.32-1.37c-.21-.4-.51-.7-.9-.92s-.81-.32-1.27-.32-.9.11-1.28.32-.68.52-.9.92c-.22.4-.33.85-.33,1.37s.11.97.33,1.37c.22.4.52.7.9.92s.8.33,1.28.33.89-.11,1.27-.33Z"/>
          <path class="cls-7" d="M263.92,88.37l-1.81-2.58c-.22.02-.4.02-.53.02h-2.08v2.56h-1.2v-8.4h3.28c1.09,0,1.94.26,2.57.78.62.52.94,1.24.94,2.15,0,.65-.16,1.2-.48,1.66-.32.46-.78.79-1.37,1l1.99,2.82h-1.31ZM263.28,84.3c.4-.33.6-.8.6-1.4s-.2-1.07-.6-1.4-.98-.49-1.74-.49h-2.04v3.78h2.04c.76,0,1.34-.16,1.74-.49Z"/>
          <path class="cls-7" d="M272.79,82.01v6.36h-1.09v-.96c-.23.33-.54.58-.92.76-.38.18-.79.27-1.24.27-.85,0-1.52-.23-2-.7-.49-.47-.73-1.16-.73-2.07v-3.66h1.15v3.53c0,.62.15,1.08.44,1.4.3.32.72.47,1.27.47.61,0,1.09-.18,1.44-.55s.53-.89.53-1.56v-3.29h1.15Z"/>
          <path class="cls-7" d="M280.7,85.58h-5.16c.07.56.32,1.01.74,1.35.42.34.94.51,1.57.51.76,0,1.37-.26,1.84-.77l.64.74c-.29.34-.65.59-1.07.77-.43.18-.91.26-1.43.26-.67,0-1.27-.14-1.79-.41-.52-.28-.92-.66-1.21-1.16s-.43-1.06-.43-1.68.14-1.17.41-1.67c.28-.5.66-.88,1.14-1.16.48-.28,1.03-.41,1.64-.41s1.15.14,1.63.41c.48.28.85.66,1.12,1.16.27.5.4,1.06.4,1.7,0,.09,0,.2-.02.35ZM276.2,83.43c-.37.34-.59.78-.65,1.32h4.08c-.06-.54-.28-.97-.65-1.31-.37-.34-.83-.51-1.39-.51s-1.01.17-1.39.5Z"/>
          <path class="cls-7" d="M291.55,79.47v8.9h-1.1v-1.01c-.26.35-.58.62-.97.8-.39.18-.82.28-1.3.28-.62,0-1.17-.14-1.66-.41-.49-.27-.87-.65-1.15-1.15-.28-.49-.41-1.06-.41-1.7s.14-1.2.41-1.69.66-.87,1.15-1.14c.49-.27,1.04-.41,1.66-.41.46,0,.88.09,1.26.26s.7.43.96.76v-3.5h1.15ZM289.37,87.15c.33-.19.58-.45.77-.79.18-.34.28-.73.28-1.17s-.09-.83-.28-1.17c-.18-.34-.44-.6-.77-.79-.33-.18-.69-.28-1.09-.28s-.77.09-1.1.28c-.32.18-.58.45-.77.79-.19.34-.28.73-.28,1.17s.09.83.28,1.17c.19.34.44.6.77.79.32.19.69.28,1.1.28s.76-.09,1.09-.28Z"/>
          <path class="cls-7" d="M299.66,82.01v6.36h-1.09v-.96c-.23.33-.54.58-.92.76-.38.18-.79.27-1.24.27-.85,0-1.52-.23-2-.7s-.73-1.16-.73-2.07v-3.66h1.15v3.53c0,.62.15,1.08.44,1.4.3.32.72.47,1.27.47.61,0,1.09-.18,1.44-.55.35-.37.53-.89.53-1.56v-3.29h1.15Z"/>
          <path class="cls-7" d="M311.1,80.75c.62.52.94,1.24.94,2.15s-.31,1.63-.94,2.15c-.62.52-1.48.78-2.57.78h-2.08v2.54h-1.2v-8.4h3.28c1.09,0,1.94.26,2.57.78ZM310.24,84.3c.4-.32.6-.79.6-1.4s-.2-1.07-.6-1.4c-.4-.32-.98-.49-1.74-.49h-2.04v3.77h2.04c.76,0,1.34-.16,1.74-.49Z"/>
          <path class="cls-7" d="M315.52,82.24c.39-.19.87-.29,1.43-.29v1.12c-.06,0-.15-.01-.26-.01-.62,0-1.11.19-1.47.56-.36.37-.53.9-.53,1.59v3.17h-1.15v-6.36h1.1v1.07c.2-.37.5-.65.89-.84Z"/>
          <path class="cls-7" d="M319.32,88.02c-.5-.28-.9-.67-1.18-1.16-.28-.49-.43-1.05-.43-1.67s.14-1.18.43-1.67c.28-.49.68-.88,1.18-1.15.5-.28,1.07-.41,1.7-.41s1.2.14,1.7.41c.5.28.89.66,1.18,1.15.28.49.43,1.05.43,1.67s-.14,1.18-.43,1.67-.68.88-1.18,1.16c-.5.28-1.07.42-1.7.42s-1.2-.14-1.7-.42ZM322.12,87.15c.32-.19.58-.45.76-.79.18-.34.28-.73.28-1.17s-.09-.83-.28-1.17c-.18-.34-.44-.6-.76-.79-.32-.18-.69-.28-1.1-.28s-.77.09-1.1.28c-.32.18-.58.45-.77.79-.19.34-.28.73-.28,1.17s.09.83.28,1.17c.19.34.44.6.77.79.32.19.69.28,1.1.28s.77-.09,1.1-.28Z"/>
          <path class="cls-7" d="M332,82.01v5.5c0,1.11-.28,1.93-.83,2.47-.55.53-1.38.8-2.47.8-.6,0-1.17-.08-1.72-.25s-.98-.4-1.32-.7l.55-.89c.3.26.66.46,1.1.61s.89.22,1.35.22c.74,0,1.29-.18,1.65-.53.36-.35.53-.89.53-1.61v-.5c-.27.33-.61.57-1,.74-.4.16-.83.25-1.29.25-.61,0-1.16-.13-1.65-.39-.49-.26-.88-.62-1.16-1.09-.28-.47-.42-1-.42-1.6s.14-1.13.42-1.6c.28-.47.67-.83,1.16-1.09.49-.26,1.04-.38,1.65-.38.48,0,.93.09,1.34.26.41.18.75.44,1.01.78v-.98h1.09ZM329.81,86.84c.33-.18.59-.42.78-.74.19-.32.28-.67.28-1.07,0-.62-.2-1.11-.61-1.49-.41-.38-.93-.57-1.57-.57s-1.18.19-1.58.57-.61.88-.61,1.49c0,.4.09.76.28,1.07.19.32.45.56.78.74s.71.26,1.13.26.79-.09,1.12-.26Z"/>
          <path class="cls-7" d="M336.19,82.24c.39-.19.87-.29,1.43-.29v1.12c-.06,0-.15-.01-.26-.01-.62,0-1.11.19-1.47.56-.36.37-.53.9-.53,1.59v3.17h-1.15v-6.36h1.1v1.07c.2-.37.5-.65.89-.84Z"/>
          <path class="cls-7" d="M344.7,85.58h-5.16c.07.56.32,1.01.74,1.35.42.34.94.51,1.57.51.76,0,1.37-.26,1.84-.77l.64.74c-.29.34-.65.59-1.07.77-.43.18-.91.26-1.43.26-.67,0-1.27-.14-1.79-.41-.52-.28-.92-.66-1.21-1.16s-.43-1.06-.43-1.68.14-1.17.41-1.67c.28-.5.66-.88,1.14-1.16.48-.28,1.03-.41,1.64-.41s1.15.14,1.63.41c.48.28.85.66,1.12,1.16.27.5.4,1.06.4,1.7,0,.09,0,.2-.02.35ZM339.37,79.53h1.46l1.63,1.56h-1.08l-2.02-1.56ZM340.19,83.43c-.37.34-.59.78-.65,1.32h4.08c-.06-.54-.28-.97-.65-1.31-.37-.34-.83-.51-1.39-.51s-1.01.17-1.39.5Z"/>
          <path class="cls-7" d="M346.64,88.23c-.48-.14-.86-.32-1.13-.53l.48-.91c.28.2.62.36,1.02.48.4.12.8.18,1.21.18,1.01,0,1.51-.29,1.51-.86,0-.19-.07-.34-.2-.46-.14-.11-.31-.19-.51-.25-.2-.05-.49-.11-.87-.17-.51-.08-.93-.17-1.25-.28-.32-.1-.6-.28-.83-.53s-.35-.6-.35-1.04c0-.58.24-1.04.72-1.39.48-.35,1.12-.52,1.93-.52.42,0,.85.05,1.27.16.42.1.77.24,1.04.42l-.49.91c-.52-.34-1.13-.5-1.84-.5-.49,0-.86.08-1.12.24-.26.16-.38.37-.38.64,0,.21.07.37.22.49s.32.21.53.26c.21.06.51.12.89.19.51.09.93.18,1.24.28.32.1.59.27.81.51.22.24.34.58.34,1.01,0,.58-.25,1.03-.74,1.37-.49.34-1.16.51-2.01.51-.52,0-1.02-.07-1.5-.21Z"/>
          <path class="cls-7" d="M353.18,87.03c.15.16.22.35.22.58,0,.12-.01.24-.04.35-.03.11-.08.28-.16.52l-.56,1.67h-.76l.44-1.79c-.15-.06-.27-.15-.37-.28-.09-.13-.14-.29-.14-.46,0-.24.08-.44.23-.59.15-.15.34-.23.58-.23s.41.08.56.23Z"/>
          <path class="cls-7" d="M365.08,86.31h-1.6v2.06h-1.16v-2.06h-4.67v-.84l4.3-5.5h1.3l-4.12,5.3h3.23v-1.82h1.13v1.82h1.6v1.03Z"/>
          <path class="cls-7" d="M373.1,86.31h-1.6v2.06h-1.16v-2.06h-4.67v-.84l4.3-5.5h1.3l-4.12,5.3h3.23v-1.82h1.13v1.82h1.6v1.03Z"/>
          <path class="cls-7" d="M380.18,84.76c.26.34.38.76.38,1.24s-.14.94-.41,1.31c-.27.37-.66.66-1.16.86s-1.1.3-1.78.3-1.26-.1-1.76-.3-.89-.49-1.16-.86c-.27-.37-.41-.81-.41-1.31s.13-.89.38-1.24c.25-.34.62-.61,1.1-.79-.38-.18-.68-.43-.88-.73s-.3-.66-.3-1.08c0-.46.13-.87.38-1.21s.61-.61,1.06-.79c.46-.18.98-.28,1.58-.28s1.14.09,1.6.28c.46.18.82.45,1.07.79s.38.75.38,1.21c0,.41-.1.77-.31,1.07-.2.31-.5.55-.88.74.48.18.85.45,1.1.79ZM378.79,87.08c.38-.28.58-.65.58-1.12s-.19-.83-.58-1.1c-.38-.27-.91-.4-1.57-.4s-1.18.13-1.56.4c-.38.27-.56.63-.56,1.1s.19.85.56,1.12.9.41,1.56.41,1.19-.14,1.57-.41ZM375.88,81.21c-.33.24-.49.57-.49.99s.16.74.49.98c.32.24.77.36,1.35.36s1.04-.12,1.37-.36c.33-.24.5-.57.5-.98s-.17-.75-.51-.99-.79-.37-1.36-.37-1.02.12-1.34.37Z"/>
          <path class="cls-7" d="M388.98,86.31h-1.6v2.06h-1.16v-2.06h-4.67v-.84l4.3-5.5h1.3l-4.12,5.3h3.23v-1.82h1.13v1.82h1.6v1.03Z"/>
          <path class="cls-7" d="M391.36,87.96c-.52-.34-.92-.83-1.22-1.48-.3-.65-.44-1.42-.44-2.3s.15-1.66.44-2.3c.3-.65.7-1.14,1.22-1.48.52-.34,1.11-.51,1.77-.51s1.24.17,1.76.51c.52.34.92.83,1.22,1.48.3.65.44,1.42.44,2.3s-.15,1.66-.44,2.3c-.3.65-.7,1.14-1.22,1.48s-1.1.51-1.76.51-1.25-.17-1.77-.51ZM394.75,86.57c.4-.55.61-1.35.61-2.4s-.2-1.85-.61-2.4c-.4-.55-.94-.83-1.61-.83s-1.22.28-1.63.83c-.4.55-.61,1.35-.61,2.4s.2,1.85.61,2.4c.4.55.95.83,1.63.83s1.21-.28,1.61-.83Z"/>
          <path class="cls-7" d="M401.62,79.97h1.2v7.36h4.55v1.04h-5.75v-8.4Z"/>
          <path class="cls-7" d="M414.22,85.58h-5.16c.07.56.32,1.01.74,1.35.42.34.94.51,1.57.51.76,0,1.37-.26,1.84-.77l.64.74c-.29.34-.65.59-1.07.77-.43.18-.91.26-1.43.26-.67,0-1.27-.14-1.79-.41-.52-.28-.92-.66-1.21-1.16-.28-.5-.43-1.06-.43-1.68s.14-1.17.41-1.67.66-.88,1.14-1.16c.48-.28,1.03-.41,1.64-.41s1.15.14,1.63.41c.48.28.85.66,1.12,1.16s.4,1.06.4,1.7c0,.09,0,.2-.02.35ZM409.71,83.43c-.37.34-.59.78-.65,1.32h4.08c-.06-.54-.28-.97-.65-1.31-.37-.34-.83-.51-1.39-.51s-1.01.17-1.39.5Z"/>
          <path class="cls-7" d="M416.16,88.23c-.48-.14-.86-.32-1.13-.53l.48-.91c.28.2.62.36,1.02.48.4.12.8.18,1.21.18,1.01,0,1.51-.29,1.51-.86,0-.19-.07-.34-.2-.46-.14-.11-.31-.19-.51-.25-.2-.05-.49-.11-.87-.17-.51-.08-.93-.17-1.25-.28-.32-.1-.6-.28-.83-.53-.23-.25-.35-.6-.35-1.04,0-.58.24-1.04.72-1.39.48-.35,1.12-.52,1.93-.52.42,0,.85.05,1.27.16.42.1.77.24,1.04.42l-.49.91c-.52-.34-1.13-.5-1.84-.5-.49,0-.86.08-1.12.24-.26.16-.38.37-.38.64,0,.21.07.37.22.49.14.12.32.21.53.26.21.06.51.12.89.19.51.09.93.18,1.24.28.32.1.59.27.81.51.22.24.34.58.34,1.01,0,.58-.25,1.03-.74,1.37-.49.34-1.16.51-2.01.51-.52,0-1.02-.07-1.5-.21Z"/>
          <path class="cls-7" d="M425.86,88.17c-.59-.2-1.05-.45-1.39-.76l.44-.94c.32.29.73.52,1.23.7.5.18,1.01.27,1.54.27.7,0,1.22-.12,1.56-.35.34-.24.52-.55.52-.94,0-.29-.09-.52-.28-.7-.19-.18-.42-.32-.7-.41s-.67-.2-1.17-.32c-.63-.15-1.14-.3-1.53-.46-.39-.15-.72-.39-1-.7-.28-.32-.41-.74-.41-1.28,0-.45.12-.85.35-1.21.24-.36.59-.65,1.07-.86.48-.22,1.08-.32,1.79-.32.5,0,.98.06,1.46.19.48.13.89.31,1.24.55l-.4.96c-.35-.22-.73-.39-1.13-.51-.4-.12-.79-.17-1.18-.17-.68,0-1.19.12-1.53.37-.34.25-.51.57-.51.96,0,.29.1.52.29.7.19.18.43.32.71.42.28.1.67.21,1.16.32.63.15,1.14.3,1.52.46.38.15.71.38.99.7.28.31.41.73.41,1.26,0,.44-.12.84-.36,1.21-.24.36-.6.65-1.09.86s-1.09.32-1.8.32c-.63,0-1.24-.1-1.83-.29Z"/>
          <path class="cls-7" d="M433.55,88.02c-.5-.28-.9-.67-1.18-1.16-.28-.49-.43-1.05-.43-1.67s.14-1.18.43-1.67c.28-.49.68-.88,1.18-1.15.5-.28,1.07-.41,1.7-.41s1.2.14,1.7.41c.5.28.89.66,1.18,1.15.28.49.43,1.05.43,1.67s-.14,1.18-.43,1.67-.68.88-1.18,1.16c-.5.28-1.07.42-1.7.42s-1.2-.14-1.7-.42ZM436.35,87.15c.32-.19.58-.45.76-.79.18-.34.28-.73.28-1.17s-.09-.83-.28-1.17c-.18-.34-.44-.6-.76-.79-.32-.18-.69-.28-1.1-.28s-.77.09-1.1.28c-.32.18-.58.45-.77.79-.19.34-.28.73-.28,1.17s.09.83.28,1.17c.19.34.44.6.77.79.32.19.69.28,1.1.28s.77-.09,1.1-.28Z"/>
          <path class="cls-7" d="M442.14,82.24c.39-.19.87-.29,1.43-.29v1.12c-.06,0-.15-.01-.26-.01-.62,0-1.11.19-1.47.56s-.53.9-.53,1.59v3.17h-1.15v-6.36h1.1v1.07c.2-.37.5-.65.89-.84Z"/>
          <path class="cls-7" d="M445,80.57c-.15-.14-.22-.32-.22-.53s.07-.39.22-.53.33-.22.56-.22.41.07.56.21.22.31.22.52-.07.4-.22.55c-.15.15-.33.22-.56.22s-.41-.07-.56-.22ZM444.98,82.01h1.15v6.36h-1.15v-6.36Z"/>
          <path class="cls-7" d="M453.65,82.65c.48.47.71,1.15.71,2.06v3.66h-1.15v-3.53c0-.62-.15-1.08-.44-1.39-.3-.31-.72-.47-1.27-.47-.62,0-1.12.18-1.48.55-.36.36-.54.89-.54,1.57v3.28h-1.15v-6.36h1.1v.96c.23-.33.55-.58.94-.76.4-.18.85-.26,1.35-.26.81,0,1.45.23,1.93.7Z"/>
          <path class="cls-7" d="M456.52,80.57c-.15-.14-.22-.32-.22-.53s.07-.39.22-.53c.15-.15.33-.22.56-.22s.41.07.56.21c.15.14.22.31.22.52s-.07.4-.22.55c-.15.15-.33.22-.56.22s-.41-.07-.56-.22ZM456.5,82.01h1.15v6.36h-1.15v-6.36Z"/>
          <path class="cls-7" d="M465.57,85.58h-5.16c.07.56.32,1.01.74,1.35.42.34.94.51,1.57.51.76,0,1.37-.26,1.84-.77l.64.74c-.29.34-.65.59-1.07.77-.43.18-.91.26-1.43.26-.67,0-1.27-.14-1.79-.41-.52-.28-.92-.66-1.21-1.16-.28-.5-.43-1.06-.43-1.68s.14-1.17.41-1.67.66-.88,1.14-1.16c.48-.28,1.03-.41,1.64-.41s1.15.14,1.63.41c.48.28.85.66,1.12,1.16s.4,1.06.4,1.7c0,.09,0,.2-.02.35ZM460.25,79.53h1.46l1.63,1.56h-1.08l-2.02-1.56ZM461.07,83.43c-.37.34-.59.78-.65,1.32h4.08c-.06-.54-.28-.97-.65-1.31-.37-.34-.83-.51-1.39-.51s-1.01.17-1.39.5Z"/>
          <path class="cls-7" d="M469.19,82.24c.39-.19.87-.29,1.43-.29v1.12c-.06,0-.15-.01-.26-.01-.62,0-1.11.19-1.47.56s-.53.9-.53,1.59v3.17h-1.15v-6.36h1.1v1.07c.2-.37.5-.65.89-.84Z"/>
          <path class="cls-7" d="M477.69,85.58h-5.16c.07.56.32,1.01.74,1.35.42.34.94.51,1.57.51.76,0,1.37-.26,1.84-.77l.64.74c-.29.34-.65.59-1.07.77-.43.18-.91.26-1.43.26-.67,0-1.27-.14-1.79-.41-.52-.28-.92-.66-1.21-1.16s-.43-1.06-.43-1.68.14-1.17.41-1.67c.28-.5.66-.88,1.14-1.16.48-.28,1.03-.41,1.64-.41s1.15.14,1.63.41c.48.28.85.66,1.12,1.16.27.5.4,1.06.4,1.7,0,.09,0,.2-.02.35ZM473.19,83.43c-.37.34-.59.78-.65,1.32h4.08c-.06-.54-.28-.97-.65-1.31-.37-.34-.83-.51-1.39-.51s-1.01.17-1.39.5Z"/>
          <path class="cls-7" d="M479.64,88.23c-.48-.14-.86-.32-1.13-.53l.48-.91c.28.2.62.36,1.02.48.4.12.8.18,1.21.18,1.01,0,1.51-.29,1.51-.86,0-.19-.07-.34-.2-.46-.14-.11-.31-.19-.51-.25-.2-.05-.49-.11-.87-.17-.51-.08-.93-.17-1.25-.28-.32-.1-.6-.28-.83-.53-.23-.25-.35-.6-.35-1.04,0-.58.24-1.04.72-1.39.48-.35,1.12-.52,1.93-.52.42,0,.85.05,1.27.16.42.1.77.24,1.04.42l-.49.91c-.52-.34-1.13-.5-1.84-.5-.49,0-.86.08-1.12.24-.26.16-.38.37-.38.64,0,.21.07.37.22.49.14.12.32.21.53.26.21.06.51.12.89.19.51.09.93.18,1.24.28.32.1.59.27.81.51.22.24.34.58.34,1.01,0,.58-.25,1.03-.74,1.37-.49.34-1.16.51-2.01.51-.52,0-1.02-.07-1.5-.21Z"/>
          <path class="cls-7" d="M259.27,105.98c-.53-.34-.94-.84-1.25-1.49-.3-.65-.46-1.43-.46-2.32s.15-1.67.46-2.32c.3-.65.72-1.15,1.25-1.49.53-.34,1.13-.51,1.8-.51s1.27.17,1.81.51c.53.34.95.84,1.25,1.49.3.65.46,1.43.46,2.32s-.15,1.67-.46,2.32c-.3.65-.72,1.15-1.25,1.49-.53.34-1.13.51-1.81.51s-1.27-.17-1.8-.51ZM262.5,104.39c.35-.5.52-1.24.52-2.22s-.17-1.72-.52-2.22c-.35-.5-.82-.74-1.42-.74s-1.06.25-1.41.74c-.35.5-.52,1.24-.52,2.22s.17,1.72.52,2.22c.35.5.82.74,1.41.74s1.07-.25,1.42-.74Z"/>
          <path class="cls-7" d="M271.67,105.05v1.32h-6.19v-1.04l3.34-3.17c.38-.36.63-.67.76-.94.13-.27.2-.53.2-.8,0-.39-.13-.69-.4-.9-.26-.21-.65-.31-1.16-.31-.86,0-1.51.29-1.97.88l-1.09-.84c.33-.44.77-.78,1.33-1.03.56-.24,1.18-.37,1.87-.37.91,0,1.64.22,2.18.65s.82,1.02.82,1.76c0,.46-.1.88-.29,1.28-.19.4-.56.86-1.1,1.37l-2.24,2.14h3.96Z"/>
          <path class="cls-7" d="M283.37,104.46h-1.49v1.91h-1.51v-1.91h-4.61v-1.08l4.14-5.41h1.67l-3.9,5.17h2.75v-1.69h1.46v1.69h1.49v1.32Z"/>
          <path class="cls-7" d="M285.73,105.98c-.53-.34-.94-.84-1.25-1.49-.3-.65-.46-1.43-.46-2.32s.15-1.67.46-2.32c.3-.65.72-1.15,1.25-1.49.53-.34,1.13-.51,1.8-.51s1.27.17,1.81.51c.53.34.95.84,1.25,1.49.3.65.46,1.43.46,2.32s-.15,1.67-.46,2.32-.72,1.15-1.25,1.49c-.53.34-1.13.51-1.81.51s-1.27-.17-1.8-.51ZM288.95,104.39c.35-.5.52-1.24.52-2.22s-.17-1.72-.52-2.22c-.35-.5-.82-.74-1.42-.74s-1.06.25-1.41.74c-.35.5-.52,1.24-.52,2.22s.17,1.72.52,2.22c.35.5.82.74,1.41.74s1.07-.25,1.42-.74Z"/>
          <path class="cls-7" d="M302.9,104.46h-1.49v1.91h-1.51v-1.91h-4.61v-1.08l4.14-5.41h1.67l-3.9,5.17h2.75v-1.69h1.46v1.69h1.49v1.32Z"/>
          <path class="cls-7" d="M309.36,97.97v1.04l-3.26,7.36h-1.67l3.16-7.08h-3.3v1.43h-1.45v-2.75h6.53Z"/>
          <path class="cls-7" d="M318.89,101.91c.57.46.85,1.09.85,1.88,0,.5-.12.96-.37,1.37s-.62.73-1.12.97-1.11.36-1.84.36c-.6,0-1.18-.09-1.74-.26-.56-.17-1.03-.41-1.42-.71l.66-1.21c.31.26.69.46,1.12.61.44.15.89.22,1.35.22.55,0,.99-.11,1.3-.34.32-.23.47-.54.47-.94,0-.43-.17-.76-.51-.98-.34-.22-.92-.33-1.75-.33h-2.03l.43-4.57h4.93v1.31h-3.61l-.18,1.94h.8c1.18,0,2.06.23,2.63.69Z"/>
          <path class="cls-7" d="M325.93,102.23c.41.43.61.97.61,1.62,0,.49-.12.93-.37,1.33-.25.4-.62.72-1.12.95-.5.24-1.11.35-1.83.35-.6,0-1.18-.09-1.73-.26-.56-.17-1.03-.41-1.42-.71l.67-1.21c.3.26.67.46,1.11.61.44.15.89.22,1.35.22.55,0,.99-.11,1.3-.34.32-.23.47-.54.47-.93s-.15-.7-.45-.92-.76-.33-1.37-.33h-.77v-1.07l1.91-2.27h-3.82v-1.31h5.72v1.04l-2.04,2.42c.78.1,1.37.36,1.78.79Z"/>
          <path class="cls-7" d="M337.21,97.97v1.04l-3.26,7.36h-1.67l3.16-7.08h-3.3v1.43h-1.45v-2.75h6.53Z"/>
          <path class="cls-7" d="M339.64,105.98c-.53-.34-.94-.84-1.25-1.49-.3-.65-.46-1.43-.46-2.32s.15-1.67.46-2.32c.3-.65.72-1.15,1.25-1.49.53-.34,1.13-.51,1.8-.51s1.27.17,1.81.51c.53.34.95.84,1.25,1.49.3.65.46,1.43.46,2.32s-.15,1.67-.46,2.32c-.3.65-.72,1.15-1.25,1.49-.53.34-1.13.51-1.81.51s-1.27-.17-1.8-.51ZM342.86,104.39c.35-.5.52-1.24.52-2.22s-.17-1.72-.52-2.22c-.35-.5-.82-.74-1.42-.74s-1.06.25-1.41.74c-.35.5-.52,1.24-.52,2.22s.17,1.72.52,2.22c.35.5.82.74,1.41.74s1.07-.25,1.42-.74Z"/>
          <path class="cls-7" d="M267.76,118.01l-2.38,6.36h-1.1l-1.84-4.82-1.86,4.82h-1.1l-2.36-6.36h1.09l1.85,5.06,1.92-5.06h.97l1.88,5.09,1.9-5.09h1.03Z"/>
          <path class="cls-7" d="M278.45,118.01l-2.38,6.36h-1.1l-1.84-4.82-1.86,4.82h-1.1l-2.36-6.36h1.09l1.85,5.06,1.92-5.06h.97l1.88,5.09,1.9-5.09h1.03Z"/>
          <path class="cls-7" d="M289.14,118.01l-2.38,6.36h-1.1l-1.84-4.82-1.86,4.82h-1.1l-2.36-6.36h1.09l1.85,5.06,1.92-5.06h.97l1.88,5.09,1.9-5.09h1.03Z"/>
          <path class="cls-7" d="M289.61,124.21c-.16-.16-.24-.35-.24-.59s.08-.43.24-.58.35-.23.58-.23.41.08.56.23c.15.15.23.35.23.59s-.08.44-.23.59-.34.23-.56.23-.42-.08-.58-.23Z"/>
          <path class="cls-7" d="M297.09,118.6c.47.43.7,1.08.7,1.93v3.84h-1.09v-.84c-.19.3-.47.52-.82.68s-.78.23-1.27.23c-.71,0-1.28-.17-1.71-.52-.43-.34-.64-.8-.64-1.36s.2-1.01.61-1.35c.41-.34,1.06-.51,1.94-.51h1.82v-.23c0-.5-.14-.88-.43-1.14-.29-.26-.71-.4-1.27-.4-.38,0-.74.06-1.1.19s-.66.29-.91.5l-.48-.86c.33-.26.72-.47,1.18-.61s.94-.21,1.45-.21c.88,0,1.55.22,2.02.65ZM295.94,123.26c.32-.2.55-.47.7-.83v-.89h-1.78c-.98,0-1.46.33-1.46.98,0,.32.12.57.37.76.25.18.59.28,1.03.28s.82-.1,1.14-.29Z"/>
          <path class="cls-7" d="M299.93,115.47h1.15v8.9h-1.15v-8.9Z"/>
          <path class="cls-7" d="M307.01,124c-.17.14-.38.25-.62.33s-.5.11-.77.11c-.64,0-1.14-.17-1.49-.52-.35-.34-.53-.84-.53-1.48v-3.49h-1.08v-.95h1.08v-1.39h1.15v1.39h1.82v.95h-1.82v3.44c0,.34.09.61.26.79.17.18.42.28.74.28.35,0,.65-.1.9-.3l.36.83Z"/>
          <path class="cls-7" d="M313.91,121.58h-5.16c.07.56.32,1.01.74,1.35.42.34.94.51,1.57.51.76,0,1.37-.26,1.84-.77l.64.74c-.29.34-.65.59-1.07.77-.43.18-.91.26-1.43.26-.67,0-1.27-.14-1.79-.41-.52-.28-.92-.66-1.21-1.16s-.43-1.06-.43-1.68.14-1.17.41-1.67c.28-.5.66-.88,1.14-1.16.48-.28,1.03-.41,1.64-.41s1.15.14,1.63.41c.48.28.85.66,1.12,1.16.27.5.4,1.06.4,1.7,0,.09,0,.2-.02.35ZM309.4,119.43c-.37.34-.59.78-.65,1.32h4.08c-.06-.54-.28-.97-.65-1.31-.37-.34-.83-.51-1.39-.51s-1.01.17-1.39.5Z"/>
          <path class="cls-7" d="M317.52,118.24c.39-.19.87-.29,1.43-.29v1.12c-.06,0-.15-.01-.26-.01-.62,0-1.11.19-1.47.56-.36.37-.53.9-.53,1.59v3.17h-1.15v-6.36h1.1v1.07c.2-.37.5-.65.89-.84Z"/>
          <path class="cls-7" d="M326.03,121.58h-5.16c.07.56.32,1.01.74,1.35.42.34.94.51,1.57.51.76,0,1.37-.26,1.84-.77l.64.74c-.29.34-.65.59-1.07.77-.43.18-.91.26-1.43.26-.67,0-1.27-.14-1.79-.41-.52-.28-.92-.66-1.21-1.16-.28-.5-.43-1.06-.43-1.68s.14-1.17.41-1.67c.28-.5.66-.88,1.14-1.16.48-.28,1.03-.41,1.64-.41s1.15.14,1.63.41c.48.28.85.66,1.12,1.16s.4,1.06.4,1.7c0,.09,0,.2-.02.35ZM321.52,119.43c-.37.34-.59.78-.65,1.32h4.08c-.06-.54-.28-.97-.65-1.31-.37-.34-.83-.51-1.39-.51s-1.01.17-1.39.5Z"/>
          <path class="cls-7" d="M333.73,118.01v5.5c0,1.11-.28,1.93-.83,2.47-.55.53-1.38.8-2.47.8-.6,0-1.17-.08-1.72-.25s-.98-.4-1.32-.7l.55-.89c.3.26.66.46,1.1.61s.89.22,1.35.22c.74,0,1.29-.18,1.65-.53.36-.35.53-.89.53-1.61v-.5c-.27.33-.61.57-1,.74-.4.16-.83.25-1.29.25-.61,0-1.16-.13-1.65-.39-.49-.26-.88-.62-1.16-1.09-.28-.47-.42-1-.42-1.6s.14-1.13.42-1.6c.28-.47.67-.83,1.16-1.09.49-.26,1.04-.38,1.65-.38.48,0,.93.09,1.34.26.41.18.75.44,1.01.78v-.98h1.09ZM331.54,122.84c.33-.18.59-.42.78-.74.19-.32.28-.67.28-1.07,0-.62-.2-1.11-.61-1.49-.41-.38-.93-.57-1.57-.57s-1.18.19-1.58.57-.61.88-.61,1.49c0,.4.09.76.28,1.07.19.32.45.56.78.74.33.18.71.26,1.13.26s.79-.09,1.12-.26Z"/>
          <path class="cls-7" d="M336.95,124.02c-.5-.28-.9-.67-1.18-1.16s-.43-1.05-.43-1.67.14-1.18.43-1.67c.28-.49.68-.88,1.18-1.15.5-.28,1.07-.41,1.7-.41s1.2.14,1.7.41c.5.28.89.66,1.18,1.15.28.49.43,1.05.43,1.67s-.14,1.18-.43,1.67c-.28.49-.68.88-1.18,1.16-.5.28-1.07.42-1.7.42s-1.2-.14-1.7-.42ZM339.75,123.15c.32-.19.58-.45.76-.79.18-.34.28-.73.28-1.17s-.09-.83-.28-1.17c-.18-.34-.44-.6-.76-.79-.32-.18-.69-.28-1.1-.28s-.77.09-1.1.28c-.32.18-.58.45-.77.79s-.28.73-.28,1.17.09.83.28,1.17.44.6.77.79c.32.19.69.28,1.1.28s.77-.09,1.1-.28Z"/>
          <path class="cls-7" d="M343.87,124.23c-.48-.14-.86-.32-1.13-.53l.48-.91c.28.2.62.36,1.02.48.4.12.8.18,1.21.18,1.01,0,1.51-.29,1.51-.86,0-.19-.07-.34-.2-.46-.14-.11-.31-.19-.51-.25-.2-.05-.49-.11-.87-.17-.51-.08-.93-.17-1.25-.28-.32-.1-.6-.28-.83-.53-.23-.25-.35-.6-.35-1.04,0-.58.24-1.04.72-1.39.48-.35,1.12-.52,1.93-.52.42,0,.85.05,1.27.16.42.1.77.24,1.04.42l-.49.91c-.52-.34-1.13-.5-1.84-.5-.49,0-.86.08-1.12.24-.26.16-.38.37-.38.64,0,.21.07.37.22.49.14.12.32.21.53.26.21.06.51.12.89.19.51.09.93.18,1.24.28.32.1.59.27.81.51.22.24.34.58.34,1.01,0,.58-.25,1.03-.74,1.37-.49.34-1.16.51-2.01.51-.52,0-1.02-.07-1.5-.21Z"/>
          <path class="cls-7" d="M349.26,124.21c-.16-.16-.24-.35-.24-.59s.08-.43.24-.58c.16-.16.35-.23.58-.23s.41.08.56.23c.15.15.23.35.23.59s-.08.44-.23.59-.34.23-.56.23-.42-.08-.58-.23Z"/>
          <path class="cls-7" d="M353.58,117.46v.55h1.85v.95h-1.82v5.41h-1.15v-5.41h-1.08v-.95h1.08v-.56c0-.63.18-1.13.55-1.5.37-.37.88-.55,1.55-.55.26,0,.5.03.72.1.22.06.42.16.58.28l-.35.88c-.26-.2-.56-.3-.89-.3-.69,0-1.03.37-1.03,1.12Z"/>
          <path class="cls-7" d="M359.47,118.24c.39-.19.87-.29,1.43-.29v1.12c-.06,0-.15-.01-.26-.01-.62,0-1.11.19-1.47.56s-.53.9-.53,1.59v3.17h-1.15v-6.36h1.1v1.07c.2-.37.5-.65.89-.84Z"/>
        </g>
        <rect class="cls-2" x="247.12" y="0" width="2" height="150"/>
      </g>
      <g>
        <rect class="cls-7" x="22.72" y="4.11" width="190" height="141.78"/>
        <g>
          <g id="Sous-titre">
            <path class="cls-8" d="M65.69,124.99h.46l1.42,4.18,1.41-4.18h.46l-1.63,4.71h-.49l-1.63-4.71Z"/>
            <path class="cls-8" d="M70.04,129.7v-3.29h.31v3.29h-.31Z"/>
            <path class="cls-8" d="M71.51,126.83h0v2.87h-.31v-3.29h.35l1.9,2.88h0v-2.88h.31v3.29h-.36l-1.89-2.87Z"/>
            <path class="cls-8" d="M74.63,128.71c.05.59.44.8.95.8.59,0,.84-.32.84-.68,0-1.02-2.01-.34-2.01-1.64,0-.46.38-.88,1.12-.88s1.11.45,1.11.98h-.3c0-.5-.39-.72-.81-.72-.63,0-.86.39-.8.73.14.85,2.01.24,2.01,1.51,0,.6-.44.96-1.2.96-.69,0-1.19-.36-1.19-1.07h.3Z"/>
            <path class="cls-8" d="M81.3,128.99c-.64,0-1.17-.53-1.17-1.17s.53-1.18,1.17-1.18,1.18.53,1.18,1.18-.53,1.17-1.18,1.17Z"/>
            <path class="cls-8" d="M86.36,128.29c.07.84.63,1.15,1.35,1.15.84,0,1.2-.46,1.2-.97,0-1.46-2.87-.49-2.87-2.34,0-.65.54-1.26,1.59-1.26s1.59.64,1.58,1.41h-.43c0-.72-.56-1.03-1.16-1.03-.9,0-1.23.56-1.15,1.04.2,1.22,2.87.34,2.87,2.16,0,.86-.63,1.37-1.72,1.37-.98,0-1.71-.51-1.71-1.53h.43Z"/>
            <path class="cls-8" d="M89.99,129.7v-3.29h1.2c.85,0,1.07.43,1.07.92,0,.74-.65.92-1.26.92h-.7v1.45h-.31ZM91.01,127.98c.58,0,.94-.12.94-.68,0-.41-.27-.63-.85-.63h-.8v1.31h.71Z"/>
            <path class="cls-8" d="M92.91,129.7v-3.29h.31v3.29h-.31Z"/>
            <path class="cls-8" d="M94.37,128.2v1.49h-.31v-3.29h1.29c.72,0,1.12.26,1.12.86,0,.42-.15.64-.53.8.39.13.41.54.42.89.01.5.06.63.14.7v.03h-.34c-.13-.22-.1-.84-.15-1.09-.07-.36-.34-.4-.65-.4h-.98ZM95.34,127.94c.46,0,.82-.19.82-.65,0-.49-.38-.61-.8-.61h-.99v1.27h.97Z"/>
            <path class="cls-8" d="M97.23,129.7v-3.29h.31v3.29h-.31Z"/>
            <path class="cls-8" d="M98.09,126.4h2.4v.27h-1.04v3.03h-.31v-3.03h-1.04v-.27Z"/>
            <path class="cls-8" d="M100.94,126.4h.31v1.96c0,.81.29,1.15.96,1.15.71,0,.96-.37.96-1.15v-1.96h.31v2.05c0,.85-.43,1.33-1.28,1.33s-1.28-.49-1.28-1.33v-2.05Z"/>
            <path class="cls-8" d="M104.23,129.7v-3.29h2.19v.27h-1.88v1.19h1.7v.27h-1.7v1.31h1.92v.27h-2.24Z"/>
            <path class="cls-8" d="M107.03,126.4h.31v1.96c0,.81.29,1.15.96,1.15.71,0,.96-.37.96-1.15v-1.96h.31v2.05c0,.85-.43,1.33-1.28,1.33s-1.28-.49-1.28-1.33v-2.05Z"/>
            <path class="cls-8" d="M111.35,128.24l-.96,1.45h-.35l1.13-1.69-1.09-1.6h.36l.9,1.38.9-1.38h.36l-1.08,1.6,1.13,1.69h-.36l-.96-1.45Z"/>
            <path class="cls-8" d="M117.13,128.99c-.64,0-1.17-.53-1.17-1.17s.53-1.18,1.17-1.18,1.18.53,1.18,1.18-.53,1.17-1.18,1.17Z"/>
            <path class="cls-8" d="M122,129.7v-4.71h1.7c1.1,0,1.54.48,1.54,1.18,0,.65-.37.95-.75,1.01h0c.65.11.97.56.97,1.18,0,.98-.64,1.33-1.54,1.33h-1.92ZM122.44,127.07h1.12c.93,0,1.23-.33,1.23-.9s-.35-.8-1.33-.8h-1.03v1.7ZM122.44,129.32h1.13c.98,0,1.44-.13,1.44-.95s-.55-.92-1.39-.92h-1.18v1.87Z"/>
            <path class="cls-8" d="M126.3,129.7v-3.29h.31v3.29h-.31Z"/>
            <path class="cls-8" d="M127.46,129.7v-3.29h2.19v.27h-1.88v1.19h1.7v.27h-1.7v1.31h1.92v.27h-2.24Z"/>
            <path class="cls-8" d="M130.56,128.2v1.49h-.31v-3.29h1.29c.72,0,1.12.26,1.12.86,0,.42-.16.64-.54.8.39.13.41.54.42.89.01.5.05.63.14.7v.03h-.34c-.13-.22-.1-.84-.15-1.09-.07-.36-.34-.4-.65-.4h-.98ZM131.53,127.94c.46,0,.82-.19.82-.65,0-.49-.38-.61-.8-.61h-.99v1.27h.97Z"/>
            <path class="cls-8" d="M133.31,129.7v-3.29h2.19v.27h-1.88v1.19h1.7v.27h-1.7v1.31h1.92v.27h-2.24Z"/>
            <path class="cls-8" d="M136.23,128.71c.05.59.44.8.95.8.59,0,.84-.32.84-.68,0-1.02-2.01-.34-2.01-1.64,0-.46.38-.88,1.12-.88s1.11.45,1.11.98h-.3c0-.5-.39-.72-.81-.72-.63,0-.86.39-.8.73.14.85,2.01.24,2.01,1.51,0,.6-.44.96-1.2.96-.68,0-1.19-.36-1.19-1.07h.3Z"/>
            <path class="cls-8" d="M142.9,128.99c-.64,0-1.17-.53-1.17-1.17s.53-1.18,1.17-1.18,1.18.53,1.18,1.18-.53,1.17-1.18,1.17Z"/>
            <path class="cls-8" d="M147.77,129.7v-4.71h3.13v.38h-2.69v1.7h2.43v.38h-2.43v1.87h2.75v.38h-3.2Z"/>
            <path class="cls-8" d="M151.59,129.7v-3.29h1.2c.85,0,1.07.43,1.07.92,0,.74-.65.92-1.26.92h-.7v1.45h-.31ZM152.61,127.98c.58,0,.94-.12.94-.68,0-.41-.27-.63-.85-.63h-.81v1.31h.71Z"/>
            <path class="cls-8" d="M154.5,129.7v-3.29h.31v3.29h-.31Z"/>
            <path class="cls-8" d="M158,127.36c-.13-.56-.47-.78-1.04-.78-.8,0-1.14.68-1.14,1.46,0,.74.27,1.48,1.17,1.48.57,0,.92-.38,1.04-.9h.33c-.15.63-.54,1.17-1.43,1.17-1.01,0-1.42-.8-1.42-1.73,0-1.26.66-1.73,1.53-1.73.68,0,1.17.36,1.28,1.04h-.32Z"/>
            <path class="cls-8" d="M158.97,129.7v-3.29h2.19v.27h-1.88v1.19h1.7v.27h-1.7v1.31h1.92v.27h-2.24Z"/>
            <path class="cls-8" d="M162.07,128.2v1.49h-.31v-3.29h1.29c.72,0,1.12.26,1.12.86,0,.42-.16.64-.53.8.39.13.41.54.42.89.01.5.06.63.14.7v.03h-.34c-.13-.22-.1-.84-.15-1.09-.07-.36-.34-.4-.65-.4h-.98ZM163.04,127.94c.46,0,.82-.19.82-.65,0-.49-.38-.61-.8-.61h-.99v1.27h.97Z"/>
            <path class="cls-8" d="M164.92,129.7v-3.29h.31v3.29h-.31Z"/>
            <path class="cls-8" d="M166.08,129.7v-3.29h2.19v.27h-1.88v1.19h1.7v.27h-1.7v1.31h1.92v.27h-2.23Z"/>
          </g>
          <g id="NOM_groupe" data-name="NOM groupe">
            <path class="cls-8" d="M181.48,103.94c-.55-.52-1.22-.97-2-1.32-.76-.35-1.56-.61-2.39-.78-.82-.17-1.52-.26-2.08-.26h-.37c-.13,0-.26.01-.39.04-.67.05-1.46.17-2.36.38-.92.21-1.81.5-2.65.88-.86.39-1.6.89-2.2,1.48-.65.64-.98,1.4-.98,2.25,0,.72.24,1.37.7,1.93.43.51.95.97,1.55,1.36.58.38,1.22.71,1.9.99.63.26,1.19.51,1.67.73.6.27,1.26.56,1.97.86.68.29,1.33.6,1.93.91.58.3,1.07.6,1.45.89.37.28.43.45.43.49-.06.41-.23.76-.53,1.05-.33.33-.76.62-1.26.86-.52.24-1.1.44-1.71.59-.63.15-1.25.27-1.83.34-.62.08-1.15.13-1.62.17-.5.03-.84.05-1.04.05-.86,0-1.62-.05-2.25-.15-.63-.1-1.17-.22-1.61-.37-.43-.14-.78-.31-1.03-.48-.26-.18-.47-.36-.63-.54l-.13-.14h-.22c-.26,0-.52.19-.52.56,0,.1.03.2.12.36l.05.08c.07.19.24.39.55.65.31.25.74.5,1.33.75.57.25,1.3.46,2.16.63.86.17,1.92.26,3.15.26.41,0,.92-.02,1.51-.07.59-.05,1.23-.13,1.88-.24.67-.12,1.34-.28,1.99-.48.67-.21,1.29-.49,1.82-.81.56-.34,1.02-.76,1.37-1.26.36-.52.55-1.13.55-1.82,0-.65-.26-1.25-.77-1.78-.46-.49-1.02-.93-1.67-1.31-.63-.38-1.29-.72-1.98-1.02-.66-.28-1.21-.55-1.64-.79h-.03c-.59-.28-1.21-.58-1.84-.91-.63-.33-1.21-.66-1.71-.99-.5-.32-.91-.64-1.2-.93-.23-.23-.36-.45-.36-.59,0-.13.03-.33.32-.56.28-.23.63-.43,1.05-.61.44-.18.93-.35,1.47-.48.54-.14,1.06-.25,1.55-.33.48-.08.91-.14,1.28-.18.47-.06.59-.06.62-.06,1.28,0,2.28.16,2.98.48.71.32,1.27.68,1.65,1.07.39.39.68.75.85,1.06.1.18.4.74.92.74.45,0,.78-.23.95-.65.12-.31.18-.63.18-.98,0-.74-.3-1.41-.9-1.98Z"/>
            <path class="cls-8" d="M133.71,104.41c-.5-.59-1.13-1.05-1.88-1.37-.72-.32-1.54-.54-2.41-.65-.85-.11-1.68-.17-2.45-.17-.32,0-.62,0-.89.02-.25.01-.49.03-.72.05-.28-.06-.52-.1-.74-.1h-.08s-.07,0-.11,0c-.63,0-.72.11-.76.15,0,0-.02.02-.1.19-.33.06-.71.15-1.13.25-.57.14-1.17.32-1.79.53-.63.22-1.25.47-1.86.75-.64.29-1.22.62-1.72.98-.51.37-.94.79-1.27,1.23-.35.49-.53,1.01-.53,1.57,0,.38.08.72.24,1.01.14.26.3.48.47.65.18.18.37.32.56.4.21.1.36.14.5.14.33,0,.72-.21.72-.79,0-.12,0-.25-.02-.39-.01-.1-.01-.23-.01-.38v-.27s0-.06.04-.14l.03-.07h0c.03-.05.11-.14.29-.3.26-.24.63-.51,1.11-.81.49-.3,1.06-.61,1.7-.92.42-.2.88-.38,1.37-.53-.68,1.55-2.7,6.21-3.73,9.08,0,.02-.04.09-.08.19v.03c-.14.29-.25.56-.35.82-.34-.03-.63-.07-.89-.12l-.92-.16c-.1-.03-.17-.05-.19-.05-.08-.04-.17-.06-.28-.06h-.17l-.06.06c-.11.04-.26.13-.34.37l-.04.12.03.12c.03.12.12.34.41.47l.11.1.92.27c.25.07.56.13.92.19-.77,2.19-.62,2.69-.39,2.88.1.08.21.12.33.12.53,0,1.26-.94,2.17-2.79.33.01.63.02.92.02,1.57,0,3.13-.18,4.61-.55,1.5-.36,2.89-.93,4.13-1.69,1.25-.76,2.33-1.75,3.22-2.94.89-1.2,1.51-2.65,1.84-4.33.02-.15.04-.29.05-.42.01-.14.02-.28.02-.42,0-.93-.27-1.71-.79-2.32ZM132.08,107.1c0,.88-.27,1.75-.79,2.6-.55.88-1.18,1.72-1.88,2.49-.55.61-1.21,1.14-1.96,1.56-.77.43-1.59.79-2.46,1.07-.87.28-1.77.49-2.68.62-.65.09-1.3.15-1.93.18.42-.96.71-1.73.77-1.88.1-.25,1.06-2.46,2.08-4.8l.04-.1c.77-1.78,1.31-3.01,1.69-3.88l.12-.02c.36-.04.79-.08,1.3-.12.5-.03.95-.05,1.36-.05.63,0,1.21.04,1.75.11.51.07.98.2,1.38.38.37.17.67.41.89.71.21.28.32.66.32,1.12Z"/>
            <path class="cls-8" d="M200.34,114.02h0c-.12.02-.29.18-.6.49-.36.36-.85.86-1.37,1.12-1.1.56-1.83.67-2.07.32-.14-.21-.1-.53,0-.77.1-.26,1.08-2.52,2.12-4.92,2.55-5.86,2.54-5.87,2.53-5.91-.03-.13-.12-.23-.25-.3-.12-.07-.26-.13-.43-.17-.16-.05-.31-.07-.45-.09-.03,0-.08,0-.13,0-.13,0-.58,0-.67.11-.06.07-1.55,3.38-2.89,6.56-.25-.16-.53-.24-.83-.24-.56,0-1.25.2-2.04.59-.78.39-1.53.89-2.24,1.48-.7.59-1.32,1.24-1.82,1.92-.51.69-.77,1.34-.77,1.93,0,.01,0,.02,0,.04-.22.1-.44.19-.69.27-.16.05-.3.09-.44.11,0-.17.05-.39.12-.66.09-.31.19-.65.31-1,.13-.38.27-.75.4-1.12.14-.39.27-.76.39-1.1v-.02c.1-.16.16-.37.18-.67.04-.51-.2-.74-.41-.85l-.05-.02c-.32-.09-.63-.05-.89.1-.2.12-.38.24-.53.37-.17.15-.39.39-.65.73-.26.34-.54.7-.83,1.07-.32.4-.65.79-.99,1.16-.35.38-.7.71-1.05.99-.34.27-.67.45-.99.55-.23.07-.45.07-.65-.02v-.13s0-.07.09-.23c.07-.15.19-.35.36-.61.15-.24.39-.6.75-1.13.44-.63.77-1.09,1-1.4.29-.4.43-.69.43-.92,0-.18-.06-.43-.36-.65-.19-.13-.41-.23-.65-.28-.24-.05-.49-.06-.73-.02-.29.05-.51.16-.67.36-.11.14-.3.39-.55.76-.25.36-.5.78-.75,1.23-.25.45-.48.92-.68,1.4-.21.5-.34.97-.36,1.41-.03.39.04.73.18,1.01.14.27.33.5.55.67.22.17.47.29.75.36.26.06.49.09.69.09.54,0,1.06-.14,1.57-.41.48-.26.93-.57,1.35-.93.41-.35.79-.73,1.15-1.14.04-.05.08-.09.12-.14,0,.02,0,.03-.01.05-.12.39-.18.83-.18,1.31,0,.04,0,.12.02.26.01.15.06.3.13.45.07.16.18.31.32.43.17.15.41.23.71.23.35,0,.72-.08,1.08-.24.35-.16.66-.34.93-.54.03-.02.05-.04.08-.06.11.11.24.2.38.28.25.15.52.26.79.32.27.07.5.1.69.1.29,0,.59-.04.89-.12.29-.08.57-.18.81-.29.24-.11.46-.22.64-.34.11-.07.45-.28.74-.45.05.29.19.66.52.94.31.26.71.39,1.2.39h0c1.09,0,2.32-.65,3.03-1.2,1.11-.86,1.93-2.52,1.83-2.82-.02-.05-.05-.08-.11-.08ZM193.12,115.44c0,.2.12.35.35.45-.31.18-.66.35-1.06.52-.44.19-.92.28-1.42.28-.32,0-1.15-.09-1.15-.51,0-.16.37-.77.85-1.25.46-.45.98-.89,1.54-1.29.56-.4,1.1-.75,1.6-1.02.43-.23.75-.39.95-.47-.06.2-.14.4-.23.6-.11.24-.22.44-.33.62-.31.58-.58,1.02-.78,1.32-.22.32-.33.56-.33.76Z"/>
            <path class="cls-8" d="M146.41,111.66c-.23-.7-.94-1.01-1.55-1.01-.49,0-.95.18-1.41.56-.1.08-.19.17-.29.26.04-.17.03-.32-.03-.5-.05-.16-.18-.28-.38-.36-.2-.07-.42-.13-.67-.16-.25-.04-.48-.05-.69-.04-.23.01-.37.05-.43.1l-.06.05.03.02c-.06.2-.44,1.31-.82,2.38-.13.02-.33.06-.58.13-.27.07-.58.11-.93.12.04-.12.07-.24.1-.36.05-.2.07-.42.07-.63,0-.67-.23-1.24-.69-1.69-.46-.45-1-.67-1.6-.67-.7,0-1.25.22-1.63.67-.34.39-.54.87-.59,1.43-.44.04-.87.15-1.28.34-.46.21-.88.49-1.23.82-.35.34-.63.74-.83,1.2-.2.46-.3.95-.3,1.47,0,.77.26,1.35.76,1.72.49.36,1.03.54,1.6.54.76,0,1.46-.17,2.07-.51.59-.33,1.11-.71,1.53-1.12.42-.41.76-.81,1-1.19.19-.31.33-.52.41-.65.75-.13,1.31-.29,1.73-.49-.44,1.28-.85,2.45-.88,2.61l-.02.11c-.05.25-.06.32,0,.56.12.45.54.61.9.61.22,0,.46-.06.52-.2,1.19-3.02,1.9-3.78,2.58-4.51l.09-.09c.6-.65,1.3-.95,1.7-.95.09,0,.18.02.24.05.36.17.2.92.2.93,0,.03-.16.72.09,1.01.13.15.28.23.45.23h0c.1,0,.2-.03.28-.05.22-.07.43-.38.58-.85.13-.42.25-1.01-.04-1.89ZM135.7,114.2c-.14.18-.31.37-.5.57-.25.26-.52.51-.82.74-.3.23-.59.42-.88.57-.28.14-.54.21-.77.21-.19,0-.32-.06-.4-.19-.1-.15-.15-.36-.15-.64,0-.67.24-1.26.71-1.75.43-.46.93-.76,1.47-.89.15.43.36.75.64.96.22.17.46.31.71.42ZM135.97,111.83s.04-.03.05-.03c.14,0,.45.26.6.39.68.58.62.69.61.7-.04.04-.11.05-.15.05-.2,0-.46-.12-.7-.32-.18-.15-.32-.33-.39-.51-.05-.13-.06-.24-.01-.29Z"/>
            <path class="cls-8" d="M38.47,109.3c.54-.71,1.12-1.36,1.71-1.91.59-.55,1.14-.98,1.63-1.28.83-.52,1.59-.94,2.26-1.23.67-.29,1.28-.52,1.8-.67.51-.15.96-.25,1.34-.29.39-.04.72-.06.99-.06.13,0,.27.01.41.03.18.02.35.04.53.04.26,0,.49-.06.68-.17.27-.16.41-.46.41-.89s-.07-.74-.21-.98c-.42-.68-1.61-.69-1.62-.69-1.09,0-2.19.16-3.29.49-1.08.32-2.15.77-3.19,1.33-1.03.56-2,1.24-2.9,2.03-.9.79-1.68,1.66-2.34,2.59-.67.93-1.2,1.93-1.6,2.97-.4,1.05-.6,2.14-.6,3.24,0,1.01.2,1.88.59,2.61.38.72.87,1.32,1.45,1.79.57.46,1.2.82,1.87,1.04.67.23,1.3.34,1.88.34.7,0,1.29-.05,1.76-.16.47-.11.84-.23,1.12-.37l.1-.05c.31-.15.7-.34.79-.71.04-.15,0-.31-.09-.43-.17-.23-.48-.24-.57-.24-.06,0-.11,0-.17.02-.13.03-.29.08-.57.17l-.28.09c-.41.13-.98.2-1.72.2-.42,0-.88-.08-1.36-.23-.47-.15-.91-.39-1.3-.71-.39-.32-.72-.74-.98-1.24-.26-.5-.39-1.12-.39-1.85,0-.83.18-1.67.52-2.49.35-.84.81-1.62,1.34-2.33Z"/>
            <path class="cls-8" d="M90.48,113.25c-.06-.22-.27-.37-.53-.35-.08,0-.29.06-.41.31-.19.39-.52.86-1,1.37-1.04,1.09-2.04,1.73-2.97,1.9-.25.03-.44.04-.56.04-.06,0-.12,0-.17,0-.4-.03-.55-.21-.67-.47-.12-.27-.11-.51-.09-.61.03-.46.98-1.15,1.43-1.48.47-.34.72-.54.92-.7.08-.06.15-.12.23-.18.3-.23.6-.48.9-.74.33-.29.54-.52.65-.72.13-.24.15-.47.06-.67-.12-.27-.42-.6-1.17-.6-.15,0-.31.01-.49.04-.25.04-.52.12-.81.24l-.45.22h-.02s-.34.2-.8.54c-.04.02-.2.15-.54.43-.65.56-1.15,1.16-1.5,1.77-.45.8-.66,1.47-.66,2.09-1.05.52-1.75.62-1.99.28-.14-.21-.1-.53,0-.77.1-.26,1.08-2.51,2.11-4.89,2.56-5.89,2.56-5.9,2.55-5.94-.03-.13-.12-.23-.25-.3-.12-.07-.26-.13-.43-.17-.16-.05-.31-.07-.45-.09-.03,0-.08,0-.13,0-.13,0-.58,0-.67.11-.05.06-1.48,3.23-2.89,6.56-.25-.16-.53-.24-.83-.24-.56,0-1.25.2-2.04.59-.78.39-1.53.89-2.24,1.48-.7.59-1.32,1.24-1.82,1.92-.51.69-.77,1.34-.77,1.93,0,.33.09.61.26.84.17.23.39.42.64.57.25.15.52.26.79.32.27.07.5.1.69.1.29,0,.59-.04.89-.12.29-.08.57-.18.81-.29.24-.11.46-.22.64-.34.11-.07.45-.28.74-.45.05.29.19.66.52.94.31.26.71.39,1.2.39h0c1.09,0,2.3-.64,3.02-1.19.08.14.18.28.31.39.47.4,1.15.6,2.02.6,1.29,0,2.11-.42,2.73-.83,1.26-.8,2.4-2.03,3.23-3.48l.03-.07c.03-.11.03-.2.01-.29ZM84.28,113.81c.14-.45.36-.89.66-1.34.43-.65.94-1.02,1.51-1.11.03,0,.06,0,.09,0,.09,0,.11.01.11.01,0,0,.1.18-.53.82-.38.39-1,.93-1.85,1.62ZM76.65,115.44c0,.2.12.35.35.45-.31.18-.66.35-1.06.52-.44.19-.92.28-1.42.28-.32,0-1.15-.09-1.15-.51,0-.16.37-.77.85-1.25.47-.45.98-.89,1.54-1.29.56-.4,1.1-.75,1.6-1.02.43-.23.75-.39.95-.47-.06.2-.14.4-.23.6-.11.24-.22.44-.33.62-.31.58-.57,1.02-.78,1.32-.22.31-.33.56-.33.76Z"/>
            <path class="cls-8" d="M69.01,113.25c-.06-.22-.27-.37-.53-.35-.08,0-.29.06-.41.31-.19.39-.52.86-1,1.37-1.04,1.09-2.04,1.73-2.97,1.9-.25.03-.44.04-.56.04-.06,0-.12,0-.17,0-.4-.03-.55-.21-.67-.47-.12-.27-.11-.51-.09-.61.03-.46.98-1.15,1.43-1.48.47-.34.72-.54.92-.7.08-.06.15-.12.23-.18.3-.23.6-.48.9-.74.33-.29.54-.52.65-.72.13-.24.15-.47.06-.67-.12-.27-.42-.6-1.17-.6-.15,0-.31.01-.49.04-.25.04-.52.12-.81.24l-.45.22h-.02s-.34.2-.8.54c-.04.02-.2.15-.54.43-.65.56-1.15,1.16-1.5,1.77-.5.89-.71,1.62-.66,2.29,0,.04.09.98.63,1.44.47.4,1.15.6,2.02.6,1.29,0,2.11-.42,2.73-.83,1.26-.8,2.4-2.03,3.23-3.48l.03-.07c.03-.11.03-.2.01-.29ZM62.81,113.81c.14-.45.36-.89.66-1.34.43-.65.94-1.02,1.51-1.11.03,0,.06,0,.09,0,.09,0,.11.01.11.01,0,0,.1.18-.53.82-.38.39-1,.93-1.85,1.62Z"/>
            <path class="cls-8" d="M166.41,108.94c-.06-.21-.35-.25-.46-.26-.06,0-1.04-.08-2.18-.18-2.13-.18-5.04-.43-5.71-.46-.4-.02-1.38-.09-2.52-.17-1.74-.12-3.7-.26-4.4-.29.4-1.06.47-1.34.44-1.44-.04-.15-.14-.26-.3-.34-.13-.07-.29-.13-.45-.18-.16-.05-.67-.1-.71-.1-.15,0-.29.03-.41.1-.12.07-.22.19-.33.36-.1.16-.25.61-.26.66,0,0-.18.52-.35.91-.04,0-.08,0-.14,0-.16,0-.37,0-.58,0-.45,0-.75.01-.91.04-.28.05-.45.14-.54.27-.05.08-.07.18-.04.28.05.19.13.37.23.54.1.16.2.3.3.42.13.14.23.25.42.36.04.02.15.09.55.09h.03l-.7,1.9-.86,2.53s-.27.91-.42,1.53c-.43,1.81.79,2.3,1.04,2.38.2.06.42.1.65.1,1.14,0,2.51-.82,3.57-1.64.08.32.24.73.55.99.47.4,1.15.6,2.02.6,1.29,0,2.11-.42,2.73-.83,1.26-.8,2.4-2.03,3.23-3.48l.03-.07c.03-.11.03-.2.01-.29-.06-.22-.27-.37-.53-.35-.08,0-.29.06-.41.31-.19.39-.52.86-1,1.37-1.04,1.09-2.04,1.73-2.97,1.9-.25.03-.44.04-.56.04-.06,0-.12,0-.17,0-.4-.03-.55-.21-.67-.47-.12-.27-.11-.51-.09-.61.03-.46.98-1.15,1.43-1.48.47-.34.72-.54.92-.7.08-.06.15-.12.23-.18.3-.23.6-.48.9-.74.33-.29.54-.52.65-.72.13-.24.15-.47.06-.67-.12-.27-.42-.6-1.17-.6-.15,0-.31.01-.49.04-.25.04-.52.12-.81.24l-.45.22h-.02s-.34.2-.8.54c-.04.02-.2.15-.54.43-.65.56-1.15,1.16-1.5,1.77-.19.33-.33.65-.44.94-.63.78-1.85,1.54-2.54,1.59-.38.03-.63-.06-.76-.26-.14-.21-.12-.51-.04-.71.08-.19.46-1.17.89-2.27.55-1.4,1.16-2.97,1.31-3.35.43,0,1.2-.04,2.08-.07,1.45-.06,3.25-.13,4.69-.13h.26c.41,0,.94,0,1.53,0,2.71,0,7.08-.03,7.33-.07.06,0,.12-.02.15-.07.06-.08.04-.18.02-.25ZM154.39,112.47c.43-.65.94-1.02,1.51-1.11.03,0,.06,0,.09,0,.09,0,.11.01.11.01,0,0,.1.18-.53.82-.38.39-1,.93-1.85,1.62.14-.45.36-.89.66-1.34Z"/>
            <path class="cls-8" d="M62.54,109.14c-.01-.13-.04-.25-.08-.35-.04-.1-.11-.15-.2-.15-.11,0-.18.11-.2.34,0,.22-.13.58-.39,1.07-.26.49-.64,1.04-1.14,1.64-.5.6-1.13,1.24-1.88,1.91-.75.67-1.62,1.3-2.6,1.88.34-1.1.54-1.91.62-2.45.08-.54.12-.97.12-1.31,0-.16-.02-.28-.07-.39-.05-.1-.16-.15-.33-.15-.36,0-.66.06-.91.18-.25.12-.37.21-.37.25,0,0-.06.38-.12.8-.06.43-.15.98-.35,1.64-.06.18-.12.38-.2.62-.02.05-.04.11-.06.16-1.27.95-2.29,1.44-3.01,1.44-.26,0-.44-.05-.51-.14-.1-.14,0-.46.05-.63l.81-.71.28-.25c.16-.15.28-.26.35-.34l.02-.02c.07-.08.27-.29.36-.41.1-.12.3-.41.39-.57.1-.17.16-.33.2-.52.04-.19.06-.33.04-.49-.05-.43-.3-.6-.55-.67-.43-1.1-1.28-1.68-2.47-1.68-1.45,0-2.89.68-4.28,2.01-1.39,1.33-2.09,2.67-2.09,3.97,0,1.72,1.16,1.98,1.85,1.98.75,0,1.69-.28,2.78-.82.12.48.53,1,1.73,1,.8,0,1.71-.27,2.73-.79.27-.14.54-.33.79-.54,0,.04,0,.07,0,.1,0,.31.11.56.32.75.21.19.44.28.69.28h.34c.54,0,1.09-.18,1.66-.54.57-.36,1.12-.82,1.66-1.38.54-.56,1.05-1.16,1.53-1.81.48-.65.9-1.27,1.26-1.86.36-.59.65-1.1.87-1.53.22-.42.34-1.01.35-1.16.01-.15.01-.29,0-.42ZM50.19,113.29c-.71.89-1.22,1.73-1.49,2.5-.75.48-1.43.72-2.01.72-.28,0-.55-.05-.55-.69,0-.98.48-2.03,1.43-3.15.93-1.09,1.89-1.64,2.85-1.64.55,0,.96.25,1.27.77-.44.28-.93.76-1.49,1.48Z"/>
            <path class="cls-8" d="M110.14,114.64c-.03-.13-.14-.21-.27-.21-.1,0-.2.05-.34.16-1.45,1.13-2.58,1.71-3.37,1.71-.26,0-.44-.05-.51-.14-.1-.14,0-.46.05-.63l.81-.71.28-.25c.16-.15.28-.26.35-.34l.02-.02c.07-.08.27-.29.36-.41.1-.12.3-.41.39-.57.1-.17.16-.33.2-.52.04-.19.06-.33.04-.49-.05-.43-.3-.6-.55-.67-.43-1.1-1.28-1.68-2.47-1.68-1.45,0-2.89.68-4.28,2.01-.71.69-1.24,1.37-1.59,2.06,0,0,0,0,0,0-.1.14-.94,1.2-1.84,1.66-1.08.55-1.8.66-2.03.33-.14-.2-.09-.51,0-.74.1-.26,1.12-2.61,2.11-4.89,2.56-5.89,2.56-5.91,2.55-5.96-.04-.14-.12-.24-.26-.32-.12-.07-.27-.13-.43-.18-.16-.05-.32-.07-.46-.09-.15-.01-.71-.01-.82.11-.08.08-3.68,8.1-5.13,12.16-.08.22-.15,1.17.51,1.72.31.26.72.39,1.22.39,1.1,0,2.33-.65,3.05-1.21.34-.27.72-.59,1.07-.92.07,1.58,1.17,1.82,1.84,1.82.75,0,1.69-.28,2.78-.82.12.48.53,1,1.73,1,.8,0,1.71-.27,2.73-.79,1.21-.64,2.38-2.16,2.27-2.59ZM104.98,113.29c-.71.89-1.22,1.73-1.49,2.5-.75.48-1.43.72-2.01.72-.28,0-.55-.05-.55-.69,0-.98.48-2.03,1.43-3.15.93-1.09,1.89-1.64,2.85-1.64.55,0,.96.25,1.27.77-.44.28-.93.76-1.49,1.48Z"/>
          </g>
          <g id="GOUTTE" class="cls-12">
            <g id="CONTENU">
              <path class="cls-6" d="M100.73,59.4c-.03.29-.08.55-.11.88-.22,2.71-.24,5.86.75,8.8,1.37,4.41,3.87,7.31,7.72,9.07,1.74.75,4.15,1.36,6.87,1.24,3.39-.16,6.53-1.38,8.52-3.27.76-.73,1.47-1.6,2.03-2.45,1.21-1.84,2.01-3.74,2.52-5.63,1.01-3.74.73-7.21.61-8.6-4.33-5.98-10.81,4.6-14.66,4.6-5.7,0-9.58-5.44-14.24-4.65Z"/>
              <path class="cls-3" d="M100.77,59.1c.25-.69,1.82-2.73,5.08-1.7,2.65.84,3.93,4.62,12.71,5.53,2.39.33,7.96.74,11.17.45-.09,2.62-.9,7.28-3.56,10.75-1.03,1.54-2.43,2.96-4.56,3.91-2.69,1.28-5.42,1.33-5.42,1.33-5.67.27-10.2-2.07-12.89-6.12-2.7-3.98-3.32-9.4-2.53-14.15Z"/>
              <path class="cls-10" d="M103.58,59.59s4.84,1.57,7.93,4.96c2.71,2.77,2.39,5.08,7.67,5.4,5.28.33,10.64-7.5,10.57-6.47-.02.34-.07,2.35-.8,4.87-.26.91-.61,1.92-1.09,2.92-.55,1.17-1.21,2.25-2,3.32-.5.68-1.03,1.3-1.69,1.85-1.08.92-2.52,1.67-4.16,2.22-.8.27-1.86.5-2.93.62-1.04.12-2.16.12-2.93.07-.65-.05-.57-.03-1.5-.17-10.68-1.6-9.07-19.59-9.07-19.59Z"/>
            </g>
            <path class="cls-11" d="M129.9,46.36c-8.21-15.4-11.81-26.18-11.81-26.18-.06.16-.13.32-.19.48.53,3.45,1.89,10.08,5.16,17.66,4.79,11.12,11.12,26.1,2.22,36.96-4.62,5.56-17.03,6.07-22.16-2.31-5.13-8.39-1.46-18.74,0-22.68-.9,1.69-1.59,3.01-1.97,3.77-2.05,4.11-9.24,19.51,0,29.78,9.24,10.27,21.05,8.73,25.67,6.16,20.02-10.18,11.3-28.24,3.08-43.64Z"/>
            <path class="cls-5" d="M115.86,92.39c13.09,0,23.71-7.17,23.71-23.45,0-8.79-7.84-22.43-7.84-22.43,0,0-11.15-20.4-13.63-26.33,0,0,1.25,5.18,3.16,9.2,9.12,19.14,15.7,28.37,15.7,41.06,0,17.6-21.09,21.96-21.09,21.96Z"/>
            <path class="cls-9" d="M94.55,68.01c0,.17-.01.34-.01.5,0,12.22,9.91,22.14,22.13,22.14s22.14-9.91,22.14-22.14c0-.17,0-.34-.02-.51.07.74.11,1.49.11,2.24,0,12.28-9.95,22.23-22.23,22.23s-22.23-9.95-22.23-22.23c0-.76.04-1.5.11-2.24Z"/>
            <g id="verre_INAO" data-name="verre INAO">
              <path class="cls-4" d="M122.12,86.86c-1.08-.37-3.43-.69-4.54-1.21-1.63-.76-1.38-5.67-1.38-5.67,0,0,.03-2.98.11-3.93.07-.95.28-2,.55-2.57.27-.57,1.25-.9,1.25-.9,0,0,5.07-1.51,4.66-6.62-.11-1.3-.29-2.95-.5-4.68-.62-5.09-1.5-10.93-1.5-10.93l-5.1-.02h0s-.3,0-.3,0h-.3s0,0,0,0l-5.1.02s-.88,5.84-1.5,10.93c-.21,1.73-.39,3.38-.5,4.68-.41,5.11,4.66,6.62,4.66,6.62,0,0,.98.33,1.25.9.27.57.48,1.62.55,2.57.07.95.11,3.93.11,3.93,0,0,.25,4.91-1.38,5.67-1.12.52-3.47.84-4.55,1.21-1.07.37.26.55,6.37.51h.76c6.11.04,7.45-.14,6.37-.51Z"/>
            </g>
          </g>
        </g>
      </g>
    </g>
  </g>
</svg>