<?xml version="1.0" encoding="UTF-8"?>
<svg id="Calque_1" data-name="Calque 1" xmlns="http://www.w3.org/2000/svg" viewBox="0 0 522 150">
  <defs>
    <style>
      .cls-1 {
        fill: #272824;
      }

      .cls-1, .cls-2 {
        stroke-width: 0px;
      }

      .cls-2 {
        fill: #1d1d1b;
      }
    </style>
  </defs>
  <g>
    <g>
      <path class="cls-2" d="M246.64,24.85c-.8-.43-1.42-1.03-1.88-1.8-.45-.77-.68-1.63-.68-2.59s.23-1.82.69-2.59c.46-.76,1.08-1.37,1.88-1.8.8-.43,1.69-.65,2.68-.65.8,0,1.54.14,2.2.42.66.28,1.22.69,1.68,1.22l-1.18,1.11c-.71-.76-1.58-1.15-2.62-1.15-.67,0-1.27.15-1.81.44s-.95.7-1.25,1.23c-.3.52-.45,1.12-.45,1.78s.15,1.26.45,1.78c.3.52.71.93,1.25,1.22.53.29,1.13.44,1.81.44,1.04,0,1.91-.39,2.62-1.16l1.18,1.12c-.46.53-1.02.94-1.69,1.22-.67.28-1.4.42-2.2.42-.99,0-1.88-.22-2.68-.65Z"/>
      <path class="cls-2" d="M256.62,24.85c-.8-.43-1.43-1.04-1.89-1.81-.46-.77-.69-1.63-.69-2.58s.23-1.81.69-2.58c.46-.77,1.09-1.37,1.89-1.81s1.7-.65,2.7-.65,1.9.22,2.7.65,1.43,1.03,1.89,1.8c.46.77.69,1.63.69,2.59s-.23,1.83-.69,2.59c-.46.76-1.09,1.36-1.89,1.8-.8.43-1.7.65-2.7.65s-1.9-.22-2.7-.65ZM261.09,23.46c.52-.29.93-.7,1.23-1.23.3-.53.45-1.12.45-1.77s-.15-1.24-.45-1.77c-.3-.53-.71-.94-1.23-1.23-.52-.29-1.11-.44-1.76-.44s-1.24.15-1.76.44-.93.71-1.23,1.23c-.3.53-.45,1.12-.45,1.77s.15,1.24.45,1.77c.3.53.71.94,1.23,1.23.52.29,1.11.44,1.76.44s1.24-.15,1.76-.44Z"/>
      <path class="cls-2" d="M266.54,15.56h1.82v9.8h-1.82v-9.8Z"/>
      <path class="cls-2" d="M272.82,17.09v2.98h4.73v1.54h-4.73v3.75h-1.82v-9.8h7.15v1.53h-5.33Z"/>
      <path class="cls-2" d="M281.74,17.09v2.98h4.73v1.54h-4.73v3.75h-1.82v-9.8h7.15v1.53h-5.33Z"/>
      <path class="cls-2" d="M289.89,24.36c-.76-.76-1.13-1.85-1.13-3.27v-5.53h1.82v5.46c0,1.92.83,2.88,2.49,2.88s2.48-.96,2.48-2.88v-5.46h1.79v5.53c0,1.42-.38,2.51-1.13,3.27-.75.76-1.8,1.14-3.16,1.14s-2.41-.38-3.16-1.14Z"/>
      <path class="cls-2" d="M306.3,25.36l-2-2.87c-.08,0-.21.01-.38.01h-2.21v2.86h-1.82v-9.8h4.03c.85,0,1.59.14,2.22.42.63.28,1.11.68,1.45,1.2s.5,1.14.5,1.86-.18,1.37-.54,1.9-.88.93-1.55,1.19l2.25,3.22h-1.96ZM305.64,17.6c-.41-.34-1.01-.5-1.81-.5h-2.13v3.91h2.13c.79,0,1.4-.17,1.81-.51s.62-.82.62-1.45-.21-1.11-.62-1.44Z"/>
      <path class="cls-2" d="M317.47,23.83v1.53h-7.35v-9.8h7.15v1.53h-5.33v2.55h4.73v1.5h-4.73v2.7h5.53Z"/>
      <path class="cls-2" d="M324.21,25.18c-.71-.21-1.26-.5-1.67-.85l.63-1.41c.4.32.89.58,1.48.78.58.2,1.17.3,1.76.3.73,0,1.27-.12,1.63-.35.36-.23.54-.54.54-.92,0-.28-.1-.51-.3-.69-.2-.18-.46-.32-.76-.43-.31-.1-.73-.22-1.26-.35-.75-.18-1.35-.35-1.81-.53-.46-.18-.86-.45-1.19-.83-.33-.38-.5-.89-.5-1.53,0-.54.15-1.03.44-1.48s.74-.79,1.33-1.06,1.32-.39,2.18-.39c.6,0,1.19.08,1.76.22.58.15,1.08.36,1.5.64l-.57,1.41c-.43-.25-.88-.44-1.34-.57-.47-.13-.92-.2-1.36-.2-.72,0-1.25.12-1.6.36-.35.24-.52.57-.52.97,0,.28.1.51.3.69.2.18.46.32.76.42s.73.22,1.26.35c.73.17,1.33.34,1.79.52.47.18.87.46,1.2.83.33.37.5.88.5,1.51,0,.54-.15,1.03-.44,1.47s-.74.79-1.34,1.05c-.6.26-1.33.39-2.18.39-.76,0-1.49-.11-2.19-.32Z"/>
      <path class="cls-2" d="M338.52,23.09h-4.9l-.97,2.27h-1.88l4.41-9.8h1.79l4.42,9.8h-1.9l-.98-2.27ZM337.92,21.66l-1.85-4.28-1.83,4.28h3.68Z"/>
      <path class="cls-2" d="M342.65,15.56h1.82v9.8h-1.82v-9.8Z"/>
      <path class="cls-2" d="M355.83,15.56v9.8h-1.5l-5.4-6.64v6.64h-1.81v-9.8h1.5l5.4,6.64v-6.64h1.81Z"/>
      <path class="cls-2" d="M360.45,17.1h-3.25v-1.54h8.32v1.54h-3.25v8.26h-1.82v-8.26Z"/>
      <path class="cls-2" d="M379.75,25.36v-6.5s-3.23,5.38-3.23,5.38h-.81l-3.22-5.29v6.41h-1.74v-9.8h1.5l3.89,6.5,3.82-6.5h1.5v9.8s-1.71,0-1.71,0Z"/>
      <path class="cls-2" d="M390.48,23.09h-4.9l-.97,2.27h-1.88l4.41-9.8h1.79l4.42,9.8h-1.9l-.98-2.27ZM389.88,21.66l-1.85-4.28-1.83,4.28h3.68Z"/>
      <path class="cls-2" d="M401.02,25.36l-2-2.87c-.08,0-.21.01-.38.01h-2.21v2.86h-1.82v-9.8h4.03c.85,0,1.59.14,2.22.42s1.11.68,1.45,1.2.5,1.14.5,1.86-.18,1.37-.54,1.9-.88.93-1.55,1.19l2.25,3.22h-1.96ZM400.36,17.6c-.41-.34-1.01-.5-1.81-.5h-2.13v3.91h2.13c.79,0,1.4-.17,1.81-.51.41-.34.62-.82.62-1.45s-.21-1.11-.62-1.44Z"/>
      <path class="cls-2" d="M406.69,17.1h-3.25v-1.54h8.32v1.54h-3.25v8.26h-1.82v-8.26Z"/>
      <path class="cls-2" d="M413.13,15.56h1.82v9.8h-1.82v-9.8Z"/>
      <path class="cls-2" d="M426.3,15.56v9.8h-1.5l-5.4-6.64v6.64h-1.81v-9.8h1.5l5.4,6.64v-6.64h1.81Z"/>
      <path class="cls-2" d="M432.25,20.74h3.85v1.46h-3.85v-1.46Z"/>
      <path class="cls-2" d="M449.29,16.96l-3.68,8.4h-1.19l-3.7-8.4h1.3l3.02,6.9,3.05-6.9h1.2Z"/>
      <path class="cls-2" d="M450.73,25.01c-.5-.28-.9-.67-1.18-1.16-.28-.49-.43-1.05-.43-1.67s.14-1.18.43-1.67c.28-.49.68-.88,1.18-1.15.5-.28,1.07-.41,1.7-.41s1.2.14,1.7.41c.5.28.89.66,1.18,1.15.28.49.43,1.05.43,1.67s-.14,1.18-.43,1.67-.68.88-1.18,1.16c-.5.28-1.07.42-1.7.42s-1.2-.14-1.7-.42ZM453.53,24.14c.32-.19.58-.45.76-.79.18-.34.28-.73.28-1.17s-.09-.83-.28-1.17c-.18-.34-.44-.6-.76-.79-.32-.18-.69-.28-1.1-.28s-.77.09-1.1.28c-.32.18-.58.45-.77.79-.19.34-.28.73-.28,1.17s.09.83.28,1.17c.19.34.44.6.77.79.32.19.69.28,1.1.28s.77-.09,1.1-.28Z"/>
      <path class="cls-2" d="M460.91,24.99c-.17.14-.38.25-.62.33s-.5.11-.77.11c-.64,0-1.14-.17-1.49-.52-.35-.34-.53-.84-.53-1.48v-3.49h-1.08v-.95h1.08v-1.39h1.15v1.39h1.82v.95h-1.82v3.44c0,.34.09.61.26.79.17.18.42.28.74.28.35,0,.65-.1.9-.3l.36.83Z"/>
      <path class="cls-2" d="M464.29,19.23c.39-.19.87-.29,1.43-.29v1.12c-.06,0-.15-.01-.26-.01-.62,0-1.11.19-1.47.56s-.53.9-.53,1.59v3.17h-1.15v-6.36h1.1v1.07c.2-.37.5-.65.89-.84Z"/>
      <path class="cls-2" d="M472.8,22.56h-5.16c.07.56.32,1.01.74,1.35.42.34.94.51,1.57.51.76,0,1.37-.26,1.84-.77l.64.74c-.29.34-.65.59-1.07.77-.43.18-.91.26-1.43.26-.67,0-1.27-.14-1.79-.41-.52-.28-.92-.66-1.21-1.16-.28-.5-.43-1.06-.43-1.68s.14-1.17.41-1.67c.28-.5.66-.88,1.14-1.16.48-.28,1.03-.41,1.64-.41s1.15.14,1.63.41c.48.28.85.66,1.12,1.16s.4,1.06.4,1.7c0,.09,0,.2-.02.35ZM468.29,20.42c-.37.34-.59.78-.65,1.32h4.08c-.06-.54-.28-.97-.65-1.31-.37-.34-.83-.51-1.39-.51s-1.01.17-1.39.5Z"/>
      <path class="cls-2" d="M250.28,40.56h-5.16c.07.56.32,1.01.74,1.35.42.34.94.51,1.57.51.76,0,1.37-.26,1.84-.77l.64.74c-.29.34-.65.59-1.07.77-.43.18-.91.26-1.43.26-.67,0-1.27-.14-1.79-.41-.52-.28-.92-.66-1.21-1.16-.28-.5-.43-1.06-.43-1.68s.14-1.17.41-1.67c.28-.5.66-.88,1.14-1.16.48-.28,1.03-.41,1.64-.41s1.15.14,1.63.41c.48.28.85.66,1.12,1.16s.4,1.06.4,1.7c0,.09,0,.2-.02.35ZM245.78,38.42c-.37.34-.59.78-.65,1.32h4.08c-.06-.54-.28-.97-.65-1.31-.37-.34-.83-.51-1.39-.51s-1.01.17-1.39.5Z"/>
      <path class="cls-2" d="M252.23,43.22c-.48-.14-.86-.32-1.13-.53l.48-.91c.28.2.62.36,1.02.48.4.12.8.18,1.21.18,1.01,0,1.51-.29,1.51-.86,0-.19-.07-.34-.2-.46-.14-.11-.31-.19-.51-.25-.2-.05-.49-.11-.87-.17-.51-.08-.93-.17-1.25-.28-.32-.1-.6-.28-.83-.53s-.35-.6-.35-1.04c0-.58.24-1.04.72-1.39.48-.35,1.12-.52,1.93-.52.42,0,.85.05,1.27.16.42.1.77.24,1.04.42l-.49.91c-.52-.34-1.13-.5-1.84-.5-.49,0-.86.08-1.12.24-.26.16-.38.37-.38.64,0,.21.07.37.22.49s.32.21.53.26c.21.06.51.12.89.19.51.09.93.18,1.24.28.32.1.59.27.81.51.22.24.34.58.34,1.01,0,.58-.25,1.03-.74,1.37-.49.34-1.16.51-2.01.51-.52,0-1.02-.07-1.5-.21Z"/>
      <path class="cls-2" d="M262.94,37.35c.49.27.87.65,1.15,1.14.28.49.41,1.05.41,1.69s-.14,1.21-.41,1.7c-.28.49-.66.88-1.15,1.15-.49.27-1.04.41-1.66.41-.46,0-.87-.09-1.25-.26-.38-.18-.7-.43-.97-.77v3.29h-1.15v-8.69h1.1v1.01c.26-.35.58-.62.97-.8.39-.18.82-.27,1.3-.27.62,0,1.17.14,1.66.41ZM262.29,42.14c.32-.19.58-.45.77-.79s.28-.73.28-1.17-.09-.83-.28-1.17-.44-.6-.77-.79c-.32-.18-.69-.28-1.1-.28s-.76.09-1.09.28c-.32.19-.58.45-.77.79-.19.34-.28.72-.28,1.16s.09.83.28,1.17c.18.34.44.6.77.79.33.19.69.28,1.09.28s.77-.09,1.1-.28Z"/>
      <path class="cls-2" d="M270.38,37.59c.47.43.7,1.08.7,1.93v3.84h-1.09v-.84c-.19.3-.47.52-.82.68-.36.16-.78.23-1.27.23-.71,0-1.28-.17-1.71-.52-.43-.34-.64-.8-.64-1.36s.2-1.01.61-1.35c.41-.34,1.06-.51,1.94-.51h1.82v-.23c0-.5-.14-.88-.43-1.14-.29-.26-.71-.4-1.27-.4-.38,0-.74.06-1.1.19-.36.12-.66.29-.91.5l-.48-.86c.33-.26.72-.47,1.18-.61s.94-.21,1.45-.21c.88,0,1.55.22,2.02.65ZM269.23,42.25c.32-.2.55-.47.7-.83v-.89h-1.78c-.98,0-1.46.33-1.46.98,0,.32.12.57.37.76.25.18.59.28,1.03.28s.82-.1,1.14-.29Z"/>
      <path class="cls-2" d="M274.29,43.01c-.51-.28-.91-.67-1.19-1.16s-.43-1.05-.43-1.67.14-1.18.43-1.67c.29-.49.69-.88,1.19-1.15.51-.28,1.09-.41,1.73-.41.58,0,1.09.12,1.54.35.45.23.8.57,1.05,1.01l-.88.56c-.2-.3-.45-.53-.74-.68-.3-.15-.62-.23-.98-.23-.42,0-.79.09-1.12.28-.33.18-.59.45-.78.79s-.28.73-.28,1.17.09.84.28,1.18.45.6.78.79c.33.18.71.28,1.12.28.36,0,.69-.08.98-.23.3-.15.54-.38.74-.68l.88.55c-.25.44-.6.78-1.05,1.01-.45.24-.97.35-1.54.35-.65,0-1.23-.14-1.73-.42Z"/>
      <path class="cls-2" d="M285.73,40.56h-5.16c.07.56.32,1.01.74,1.35.42.34.94.51,1.57.51.76,0,1.37-.26,1.84-.77l.64.74c-.29.34-.65.59-1.07.77-.43.18-.91.26-1.43.26-.67,0-1.27-.14-1.79-.41-.52-.28-.92-.66-1.21-1.16-.28-.5-.43-1.06-.43-1.68s.14-1.17.41-1.67.66-.88,1.14-1.16c.48-.28,1.03-.41,1.64-.41s1.15.14,1.63.41c.48.28.85.66,1.12,1.16s.4,1.06.4,1.7c0,.09,0,.2-.02.35ZM281.22,38.42c-.37.34-.59.78-.65,1.32h4.08c-.06-.54-.28-.97-.65-1.31-.37-.34-.83-.51-1.39-.51s-1.01.17-1.39.5Z"/>
      <path class="cls-2" d="M295.6,37.35c.49.27.87.65,1.15,1.14.28.49.41,1.05.41,1.69s-.14,1.21-.41,1.7c-.28.49-.66.88-1.15,1.15-.49.27-1.04.41-1.66.41-.47,0-.9-.09-1.3-.28-.39-.18-.72-.45-.97-.8v1.01h-1.1v-8.9h1.15v3.5c.26-.34.58-.59.96-.76s.8-.26,1.26-.26c.62,0,1.17.14,1.66.41ZM294.95,42.14c.32-.19.58-.45.77-.79.19-.34.28-.73.28-1.17s-.09-.83-.28-1.17c-.19-.34-.44-.6-.77-.79-.32-.18-.69-.28-1.1-.28s-.76.09-1.09.28c-.33.18-.58.45-.77.79s-.28.73-.28,1.17.09.83.28,1.17.44.6.77.79c.33.19.69.28,1.09.28s.77-.09,1.1-.28Z"/>
      <path class="cls-2" d="M304.48,40.56h-5.16c.07.56.32,1.01.74,1.35.42.34.94.51,1.57.51.76,0,1.37-.26,1.84-.77l.64.74c-.29.34-.65.59-1.07.77-.43.18-.91.26-1.43.26-.67,0-1.27-.14-1.79-.41-.52-.28-.92-.66-1.21-1.16-.28-.5-.43-1.06-.43-1.68s.14-1.17.41-1.67.66-.88,1.14-1.16c.48-.28,1.03-.41,1.64-.41s1.15.14,1.63.41c.48.28.85.66,1.12,1.16s.4,1.06.4,1.7c0,.09,0,.2-.02.35ZM299.98,38.42c-.37.34-.59.78-.65,1.32h4.08c-.06-.54-.28-.97-.65-1.31-.37-.34-.83-.51-1.39-.51s-1.01.17-1.39.5Z"/>
      <path class="cls-2" d="M310.26,37.59c.47.43.7,1.08.7,1.93v3.84h-1.09v-.84c-.19.3-.47.52-.82.68-.36.16-.78.23-1.27.23-.71,0-1.28-.17-1.71-.52-.43-.34-.64-.8-.64-1.36s.2-1.01.61-1.35c.41-.34,1.06-.51,1.94-.51h1.82v-.23c0-.5-.14-.88-.43-1.14-.29-.26-.71-.4-1.27-.4-.38,0-.74.06-1.1.19-.36.12-.66.29-.91.5l-.48-.86c.33-.26.72-.47,1.18-.61s.94-.21,1.45-.21c.88,0,1.55.22,2.02.65ZM309.12,42.25c.32-.2.55-.47.7-.83v-.89h-1.78c-.98,0-1.46.33-1.46.98,0,.32.12.57.37.76.25.18.59.28,1.03.28s.82-.1,1.14-.29Z"/>
      <path class="cls-2" d="M319.03,37v6.36h-1.09v-.96c-.23.33-.54.58-.92.76-.38.18-.79.27-1.24.27-.85,0-1.52-.23-2-.7-.49-.47-.73-1.16-.73-2.07v-3.66h1.15v3.53c0,.62.15,1.08.44,1.4.3.32.72.47,1.27.47.61,0,1.09-.18,1.44-.55.35-.37.53-.89.53-1.56v-3.29h1.15Z"/>
      <path class="cls-2" d="M324.8,42.99c-.17.14-.38.25-.62.33s-.5.11-.77.11c-.64,0-1.14-.17-1.49-.52-.35-.34-.53-.84-.53-1.48v-3.49h-1.08v-.95h1.08v-1.39h1.15v1.39h1.82v.95h-1.82v3.44c0,.34.09.61.26.79.17.18.42.28.74.28.35,0,.65-.1.9-.3l.36.83Z"/>
      <path class="cls-2" d="M331.7,40.56h-5.16c.07.56.32,1.01.74,1.35.42.34.94.51,1.57.51.76,0,1.37-.26,1.84-.77l.64.74c-.29.34-.65.59-1.07.77-.43.18-.91.26-1.43.26-.67,0-1.27-.14-1.79-.41-.52-.28-.92-.66-1.21-1.16-.28-.5-.43-1.06-.43-1.68s.14-1.17.41-1.67.66-.88,1.14-1.16c.48-.28,1.03-.41,1.64-.41s1.15.14,1.63.41c.48.28.85.66,1.12,1.16s.4,1.06.4,1.7c0,.09,0,.2-.02.35ZM327.19,38.42c-.37.34-.59.78-.65,1.32h4.08c-.06-.54-.28-.97-.65-1.31-.37-.34-.83-.51-1.39-.51s-1.01.17-1.39.5ZM329.3,34.52h1.46l-2.02,1.56h-1.08l1.63-1.56Z"/>
      <path class="cls-2" d="M250.09,79.36l-1.72-2.46c-.07,0-.18.01-.32.01h-1.9v2.45h-1.56v-8.4h3.46c.73,0,1.36.12,1.9.36.54.24.95.58,1.24,1.03s.43.98.43,1.6-.15,1.18-.46,1.63c-.31.46-.75.8-1.33,1.02l1.93,2.76h-1.68ZM249.53,72.71c-.35-.29-.87-.43-1.55-.43h-1.82v3.35h1.82c.68,0,1.2-.15,1.55-.44s.53-.71.53-1.24-.18-.95-.53-1.24Z"/>
      <path class="cls-2" d="M259.5,70.46v8.9h-1.44v-.83c-.25.3-.55.53-.92.68-.36.15-.77.23-1.21.23-.62,0-1.17-.14-1.66-.41-.49-.27-.88-.66-1.16-1.16-.28-.5-.42-1.07-.42-1.72s.14-1.22.42-1.72.67-.88,1.16-1.15c.49-.27,1.05-.41,1.66-.41.42,0,.81.07,1.16.22.35.14.65.36.9.65v-3.29h1.5ZM257.09,77.91c.29-.16.52-.4.68-.7.17-.3.25-.66.25-1.06s-.08-.75-.25-1.06-.4-.54-.68-.7-.61-.25-.97-.25-.68.08-.97.25-.52.4-.68.7-.25.66-.25,1.06.08.75.25,1.06c.17.3.4.54.68.7s.61.25.97.25.68-.08.97-.25Z"/>
      <path class="cls-2" d="M267.47,72.95l-2.75,6.41h-1.55l-2.75-6.41h1.56l1.99,4.75,2.05-4.75h1.44Z"/>
      <path class="cls-2" d="M272.17,79.24c-.5-.14-.89-.31-1.19-.52l.58-1.14c.29.19.63.35,1.04.46.4.12.8.17,1.19.17.9,0,1.34-.24,1.34-.71,0-.22-.11-.38-.34-.47-.23-.09-.59-.17-1.1-.25-.53-.08-.96-.17-1.29-.28-.33-.1-.62-.29-.86-.55s-.37-.62-.37-1.09c0-.61.25-1.09.76-1.46.51-.36,1.19-.55,2.06-.55.44,0,.88.05,1.32.15.44.1.8.23,1.08.4l-.58,1.14c-.54-.32-1.16-.48-1.84-.48-.44,0-.77.07-1,.2-.23.13-.34.31-.34.52,0,.24.12.41.37.51.24.1.62.19,1.13.28.51.08.93.17,1.26.28.33.1.61.28.85.53.24.25.35.6.35,1.06,0,.6-.26,1.08-.78,1.44-.52.36-1.23.54-2.12.54-.52,0-1.03-.07-1.52-.2Z"/>
      <path class="cls-2" d="M284.1,72.95v6.41h-1.43v-.82c-.24.29-.54.51-.9.67-.36.16-.75.23-1.16.23-.86,0-1.53-.24-2.02-.71s-.74-1.18-.74-2.12v-3.66h1.5v3.46c0,.58.13,1.01.39,1.29.26.28.63.43,1.11.43.54,0,.96-.17,1.28-.5.32-.33.47-.81.47-1.43v-3.24h1.5Z"/>
      <path class="cls-2" d="M289.77,72.88v1.43c-.13-.02-.24-.04-.35-.04-.58,0-1.04.17-1.37.51-.33.34-.49.83-.49,1.47v3.11h-1.5v-6.41h1.43v.94c.43-.67,1.19-1.01,2.28-1.01Z"/>
      <path class="cls-2" d="M299.92,71.32c.54.24.95.58,1.24,1.03s.43.98.43,1.6-.14,1.14-.43,1.59c-.29.45-.7.8-1.24,1.04s-1.17.36-1.9.36h-1.9v2.42h-1.56v-8.4h3.46c.73,0,1.36.12,1.9.36ZM299.49,75.18c.35-.29.53-.7.53-1.24s-.18-.95-.53-1.24c-.35-.29-.87-.43-1.55-.43h-1.82v3.34h1.82c.68,0,1.2-.14,1.55-.43Z"/>
      <path class="cls-2" d="M303.13,70.46h1.5v8.9h-1.5v-8.9Z"/>
      <path class="cls-2" d="M311.21,73.56c.5.45.75,1.13.75,2.05v3.76h-1.42v-.78c-.18.28-.45.49-.79.64-.34.15-.75.22-1.23.22s-.9-.08-1.26-.25c-.36-.16-.64-.39-.83-.68-.2-.29-.29-.62-.29-.99,0-.58.21-1.04.64-1.39.43-.35,1.1-.52,2.02-.52h1.66v-.1c0-.45-.13-.79-.4-1.03-.27-.24-.67-.36-1.19-.36-.36,0-.71.06-1.06.17-.35.11-.64.27-.88.47l-.59-1.09c.34-.26.74-.45,1.21-.59.47-.14.97-.2,1.5-.2.94,0,1.67.23,2.17.68ZM309.84,78.09c.29-.17.5-.42.62-.74v-.74h-1.55c-.86,0-1.3.28-1.3.85,0,.27.11.49.32.65.22.16.52.24.9.24s.71-.09,1-.26Z"/>
      <path class="cls-2" d="M319.46,73.59c.49.47.73,1.17.73,2.1v3.67h-1.5v-3.48c0-.56-.13-.98-.4-1.27-.26-.28-.64-.43-1.13-.43-.55,0-.99.17-1.31.5-.32.33-.48.81-.48,1.43v3.24h-1.5v-6.41h1.43v.83c.25-.3.56-.52.94-.67s.8-.23,1.27-.23c.81,0,1.46.24,1.94.71Z"/>
      <path class="cls-2" d="M322.17,71.64c-.18-.17-.28-.39-.28-.64s.09-.47.28-.64c.18-.17.41-.26.68-.26s.5.08.68.25c.18.16.28.37.28.62,0,.26-.09.49-.27.67-.18.18-.41.27-.69.27s-.5-.09-.68-.26ZM322.1,72.95h1.5v6.41h-1.5v-6.41Z"/>
      <path class="cls-2" d="M329.42,79.01c-.18.14-.39.25-.64.32-.25.07-.52.11-.8.11-.7,0-1.25-.18-1.63-.55s-.58-.9-.58-1.61v-3.08h-1.06v-1.2h1.06v-1.46h1.5v1.46h1.72v1.2h-1.72v3.05c0,.31.08.55.23.71.15.16.37.25.66.25.34,0,.62-.09.84-.26l.42,1.07Z"/>
      <path class="cls-2" d="M336.54,72.95l-3,6.92c-.28.7-.62,1.19-1.02,1.47-.4.28-.88.43-1.45.43-.32,0-.64-.05-.95-.16-.31-.1-.57-.25-.77-.43l.6-1.1c.14.14.31.24.51.32.2.08.39.12.59.12.26,0,.48-.07.65-.2.17-.14.33-.36.47-.68l.11-.25-2.8-6.43h1.56l2.02,4.74,2.03-4.74h1.44Z"/>
      <path class="cls-2" d="M249.15,92.57c.44.21.78.51,1.03.89.25.39.37.83.37,1.34s-.13.99-.39,1.39c-.26.4-.62.71-1.07.93-.45.22-.96.33-1.52.33-1.13,0-2-.36-2.61-1.09-.61-.73-.92-1.76-.92-3.1,0-.94.17-1.73.5-2.39.33-.66.8-1.16,1.39-1.5.6-.34,1.29-.51,2.08-.51.41,0,.79.04,1.15.13.36.08.67.21.94.37l-.46.94c-.4-.26-.94-.4-1.61-.4-.87,0-1.56.27-2.05.81-.5.54-.74,1.33-.74,2.36,0,.13,0,.23.01.3.24-.36.57-.63.99-.82.42-.19.89-.28,1.42-.28s1.05.1,1.48.31ZM248.87,96.04c.34-.3.52-.69.52-1.19s-.17-.89-.52-1.18c-.35-.29-.81-.44-1.4-.44-.38,0-.71.07-1,.22-.29.14-.52.34-.68.59-.16.25-.25.52-.25.83s.08.57.23.81c.16.24.38.44.68.59.3.15.66.22,1.07.22.55,0,1-.15,1.34-.44Z"/>
      <path class="cls-2" d="M261.2,89.74c.62.52.94,1.24.94,2.15s-.31,1.63-.94,2.15c-.62.52-1.48.78-2.57.78h-2.08v2.54h-1.2v-8.4h3.28c1.09,0,1.94.26,2.57.78ZM260.34,93.29c.4-.32.6-.79.6-1.4s-.2-1.07-.6-1.4c-.4-.32-.98-.49-1.74-.49h-2.04v3.77h2.04c.76,0,1.34-.16,1.74-.49Z"/>
      <path class="cls-2" d="M263.85,88.46h1.15v8.9h-1.15v-8.9Z"/>
      <path class="cls-2" d="M266.9,97.2c-.16-.16-.24-.35-.24-.59s.08-.43.24-.58.35-.23.58-.23.41.08.56.23c.15.15.23.35.23.59s-.08.44-.23.59c-.16.16-.34.23-.56.23s-.42-.08-.58-.23Z"/>
      <path class="cls-2" d="M273.94,97.16c-.59-.2-1.05-.45-1.39-.76l.44-.94c.32.29.73.52,1.23.7.5.18,1.01.27,1.54.27.7,0,1.22-.12,1.56-.35.34-.24.52-.55.52-.94,0-.29-.09-.52-.28-.7-.19-.18-.42-.32-.7-.41-.28-.1-.67-.2-1.17-.32-.63-.15-1.14-.3-1.53-.46-.39-.15-.72-.39-1-.7-.28-.32-.41-.74-.41-1.28,0-.45.12-.85.35-1.21.24-.36.59-.65,1.07-.86.48-.22,1.08-.32,1.79-.32.5,0,.98.06,1.46.19.48.13.89.31,1.24.55l-.4.96c-.35-.22-.73-.39-1.13-.51-.4-.12-.79-.17-1.18-.17-.68,0-1.19.12-1.53.37s-.51.57-.51.96c0,.29.1.52.29.7.19.18.43.32.71.42.28.1.67.21,1.16.32.63.15,1.14.3,1.52.46.38.15.71.38.99.7.28.31.41.73.41,1.26,0,.44-.12.84-.36,1.21-.24.36-.6.65-1.09.86-.49.21-1.09.32-1.8.32-.63,0-1.24-.1-1.83-.29Z"/>
      <path class="cls-2" d="M284.94,91.59c.47.43.7,1.08.7,1.93v3.84h-1.09v-.84c-.19.3-.47.52-.82.68-.36.16-.78.23-1.27.23-.71,0-1.28-.17-1.71-.52-.43-.34-.64-.8-.64-1.36s.2-1.01.61-1.35c.41-.34,1.06-.51,1.94-.51h1.82v-.23c0-.5-.14-.88-.43-1.14-.29-.26-.71-.4-1.27-.4-.38,0-.74.06-1.1.19-.36.12-.66.29-.91.5l-.48-.86c.33-.26.72-.47,1.18-.61s.94-.21,1.45-.21c.88,0,1.55.22,2.02.65ZM283.8,96.25c.32-.2.55-.47.7-.83v-.89h-1.78c-.98,0-1.46.33-1.46.98,0,.32.12.57.37.76.25.18.59.28,1.03.28s.82-.1,1.14-.29Z"/>
      <path class="cls-2" d="M287.8,89.56c-.15-.14-.22-.32-.22-.53s.07-.39.22-.53c.15-.15.33-.22.56-.22s.41.07.56.21c.15.14.22.31.22.52s-.07.4-.22.55c-.15.15-.33.22-.56.22s-.41-.07-.56-.22ZM287.78,91h1.15v6.36h-1.15v-6.36Z"/>
      <path class="cls-2" d="M296.45,91.64c.48.47.71,1.15.71,2.06v3.66h-1.15v-3.53c0-.62-.15-1.08-.44-1.39-.3-.31-.72-.47-1.27-.47-.62,0-1.12.18-1.48.55s-.54.89-.54,1.57v3.28h-1.15v-6.36h1.1v.96c.23-.33.55-.58.94-.76.4-.18.85-.26,1.35-.26.81,0,1.45.23,1.93.7Z"/>
      <path class="cls-2" d="M302.88,96.99c-.17.14-.38.25-.62.33s-.5.11-.77.11c-.64,0-1.14-.17-1.49-.52-.35-.34-.53-.84-.53-1.48v-3.49h-1.08v-.95h1.08v-1.39h1.15v1.39h1.82v.95h-1.82v3.44c0,.34.09.61.26.79.17.18.42.28.74.28.35,0,.65-.1.9-.3l.36.83Z"/>
      <path class="cls-2" d="M315.45,97.36v-6.12s-3.05,5.1-3.05,5.1h-.55l-3.04-5.06v6.08h-1.15v-8.4h.98l3.5,5.9,3.46-5.9h.98v8.4s-1.14,0-1.14,0Z"/>
      <path class="cls-2" d="M323.29,91.59c.47.43.7,1.08.7,1.93v3.84h-1.09v-.84c-.19.3-.47.52-.82.68s-.78.23-1.27.23c-.71,0-1.28-.17-1.71-.52-.43-.34-.64-.8-.64-1.36s.2-1.01.61-1.35c.41-.34,1.06-.51,1.94-.51h1.82v-.23c0-.5-.14-.88-.43-1.14-.29-.26-.71-.4-1.27-.4-.38,0-.74.06-1.1.19s-.66.29-.91.5l-.48-.86c.33-.26.72-.47,1.18-.61s.94-.21,1.45-.21c.88,0,1.55.22,2.02.65ZM322.15,96.25c.32-.2.55-.47.7-.83v-.89h-1.78c-.98,0-1.46.33-1.46.98,0,.32.12.57.37.76.25.18.59.28,1.03.28s.82-.1,1.14-.29Z"/>
      <path class="cls-2" d="M328.12,91.23c.39-.19.87-.29,1.43-.29v1.12c-.06,0-.15-.01-.26-.01-.62,0-1.11.19-1.47.56s-.53.9-.53,1.59v3.17h-1.15v-6.36h1.1v1.07c.2-.37.5-.65.89-.84Z"/>
      <path class="cls-2" d="M334.81,96.99c-.17.14-.38.25-.62.33s-.5.11-.77.11c-.64,0-1.14-.17-1.49-.52-.35-.34-.53-.84-.53-1.48v-3.49h-1.08v-.95h1.08v-1.39h1.15v1.39h1.82v.95h-1.82v3.44c0,.34.09.61.26.79.17.18.42.28.74.28.35,0,.65-.1.9-.3l.36.83Z"/>
      <path class="cls-2" d="M336.22,89.56c-.15-.14-.22-.32-.22-.53s.07-.39.22-.53c.15-.15.33-.22.56-.22s.41.07.56.21c.15.14.22.31.22.52s-.07.4-.22.55c-.15.15-.33.22-.56.22s-.41-.07-.56-.22ZM336.2,91h1.15v6.36h-1.15v-6.36Z"/>
      <path class="cls-2" d="M344.87,91.64c.48.47.71,1.15.71,2.06v3.66h-1.15v-3.53c0-.62-.15-1.08-.44-1.39-.3-.31-.72-.47-1.27-.47-.62,0-1.12.18-1.48.55-.36.36-.54.89-.54,1.57v3.28h-1.15v-6.36h1.1v.96c.23-.33.55-.58.94-.76.4-.18.85-.26,1.35-.26.81,0,1.45.23,1.93.7Z"/>
      <path class="cls-2" d="M348.57,96.02c.15.16.22.35.22.58,0,.12-.01.24-.04.35-.03.11-.08.28-.16.52l-.56,1.67h-.76l.44-1.79c-.15-.06-.27-.15-.37-.28s-.14-.29-.14-.46c0-.24.08-.44.23-.59.15-.15.34-.23.58-.23s.41.08.56.23Z"/>
      <path class="cls-2" d="M360.46,95.3h-1.6v2.06h-1.16v-2.06h-4.67v-.84l4.3-5.5h1.3l-4.12,5.3h3.23v-1.82h1.13v1.82h1.6v1.03Z"/>
      <path class="cls-2" d="M368.49,95.3h-1.6v2.06h-1.16v-2.06h-4.67v-.84l4.3-5.5h1.3l-4.12,5.3h3.23v-1.82h1.13v1.82h1.6v1.03Z"/>
      <path class="cls-2" d="M375.57,93.75c.26.34.38.76.38,1.24s-.14.94-.41,1.31c-.27.37-.66.66-1.16.86s-1.1.3-1.78.3-1.26-.1-1.76-.3-.89-.49-1.16-.86c-.27-.37-.41-.81-.41-1.31s.13-.89.38-1.24c.25-.34.62-.61,1.1-.79-.38-.18-.68-.43-.88-.73-.2-.3-.3-.66-.3-1.08,0-.46.13-.87.38-1.21s.61-.61,1.06-.79c.46-.18.98-.28,1.58-.28s1.14.09,1.6.28c.46.18.82.45,1.07.79s.38.75.38,1.21c0,.41-.1.77-.31,1.07-.2.31-.5.55-.88.74.48.18.85.45,1.1.79ZM374.18,96.07c.38-.28.58-.65.58-1.12s-.19-.83-.58-1.1c-.38-.27-.91-.4-1.57-.4s-1.18.13-1.56.4c-.38.27-.56.63-.56,1.1s.19.85.56,1.12c.38.28.9.41,1.56.41s1.19-.14,1.57-.41ZM371.26,90.2c-.33.24-.49.57-.49.99s.16.74.49.98c.32.24.77.36,1.35.36s1.04-.12,1.37-.36c.33-.24.5-.57.5-.98s-.17-.75-.51-.99c-.34-.24-.79-.37-1.36-.37s-1.02.12-1.34.37Z"/>
      <path class="cls-2" d="M382.16,92.57c.44.21.78.51,1.03.89.25.39.37.83.37,1.34s-.13.99-.39,1.39c-.26.4-.62.71-1.07.93-.45.22-.96.33-1.52.33-1.13,0-2-.36-2.61-1.09-.61-.73-.92-1.76-.92-3.1,0-.94.17-1.73.5-2.39.33-.66.8-1.16,1.39-1.5.6-.34,1.29-.51,2.08-.51.41,0,.79.04,1.15.13.36.08.67.21.94.37l-.46.94c-.4-.26-.94-.4-1.61-.4-.87,0-1.56.27-2.05.81-.5.54-.74,1.33-.74,2.36,0,.13,0,.23.01.3.24-.36.57-.63.99-.82.42-.19.89-.28,1.42-.28s1.05.1,1.48.31ZM381.88,96.04c.34-.3.52-.69.52-1.19s-.17-.89-.52-1.18c-.35-.29-.81-.44-1.4-.44-.38,0-.71.07-1,.22-.29.14-.52.34-.68.59-.16.25-.25.52-.25.83s.08.57.23.81c.16.24.38.44.68.59.3.15.66.22,1.07.22.55,0,1-.15,1.34-.44Z"/>
      <path class="cls-2" d="M386.12,96.95c-.52-.34-.92-.83-1.22-1.48-.3-.65-.44-1.42-.44-2.3s.15-1.66.44-2.3c.3-.65.7-1.14,1.22-1.48.52-.34,1.11-.51,1.77-.51s1.24.17,1.76.51c.52.34.92.83,1.22,1.48.3.65.44,1.42.44,2.3s-.15,1.66-.44,2.3c-.3.65-.7,1.14-1.22,1.48-.52.34-1.1.51-1.76.51s-1.25-.17-1.77-.51ZM389.51,95.56c.4-.55.61-1.35.61-2.4s-.2-1.85-.61-2.4c-.4-.55-.94-.83-1.61-.83s-1.22.28-1.63.83c-.4.55-.61,1.35-.61,2.4s.2,1.85.61,2.4c.4.55.95.83,1.63.83s1.21-.28,1.61-.83Z"/>
      <path class="cls-2" d="M250.57,107.74c.62.52.94,1.24.94,2.15s-.31,1.63-.94,2.15c-.62.52-1.48.78-2.57.78h-2.08v2.54h-1.2v-8.4h3.28c1.09,0,1.94.26,2.57.78ZM249.71,111.29c.4-.32.6-.79.6-1.4s-.2-1.07-.6-1.4c-.4-.32-.98-.49-1.74-.49h-2.04v3.77h2.04c.76,0,1.34-.16,1.74-.49Z"/>
      <path class="cls-2" d="M254.1,115.01c-.5-.28-.9-.67-1.18-1.16-.28-.49-.43-1.05-.43-1.67s.14-1.18.43-1.67c.28-.49.68-.88,1.18-1.15.5-.28,1.07-.41,1.7-.41s1.2.14,1.7.41c.5.28.89.66,1.18,1.15.28.49.43,1.05.43,1.67s-.14,1.18-.43,1.67-.68.88-1.18,1.16c-.5.28-1.07.42-1.7.42s-1.2-.14-1.7-.42ZM256.9,114.14c.32-.19.58-.45.76-.79.18-.34.28-.73.28-1.17s-.09-.83-.28-1.17c-.18-.34-.44-.6-.76-.79-.32-.18-.69-.28-1.1-.28s-.77.09-1.1.28c-.32.18-.58.45-.77.79-.19.34-.28.73-.28,1.17s.09.83.28,1.17c.19.34.44.6.77.79.32.19.69.28,1.1.28s.77-.09,1.1-.28Z"/>
      <path class="cls-2" d="M266.02,109.64c.48.47.71,1.15.71,2.06v3.66h-1.15v-3.53c0-.62-.15-1.08-.44-1.39-.3-.31-.72-.47-1.27-.47-.62,0-1.12.18-1.48.55-.36.36-.54.89-.54,1.57v3.28h-1.15v-6.36h1.1v.96c.23-.33.55-.58.94-.76.4-.18.85-.26,1.35-.26.81,0,1.45.23,1.93.7Z"/>
      <path class="cls-2" d="M272.44,114.99c-.17.14-.38.25-.62.33s-.5.11-.77.11c-.64,0-1.14-.17-1.49-.52-.35-.34-.53-.84-.53-1.48v-3.49h-1.08v-.95h1.08v-1.39h1.15v1.39h1.82v.95h-1.82v3.44c0,.34.09.61.26.79.17.18.42.28.74.28.35,0,.65-.1.9-.3l.36.83Z"/>
      <path class="cls-2" d="M277.85,115.16c-.59-.2-1.05-.45-1.39-.76l.44-.94c.32.29.73.52,1.23.7.5.18,1.01.27,1.54.27.7,0,1.22-.12,1.56-.35.34-.24.52-.55.52-.94,0-.29-.09-.52-.28-.7-.19-.18-.42-.32-.7-.41-.28-.1-.67-.2-1.17-.32-.63-.15-1.14-.3-1.53-.46-.39-.15-.72-.39-1-.7-.28-.32-.41-.74-.41-1.28,0-.45.12-.85.35-1.21.24-.36.59-.65,1.07-.86.48-.22,1.08-.32,1.79-.32.5,0,.98.06,1.46.19.48.13.89.31,1.24.55l-.4.96c-.35-.22-.73-.39-1.13-.51-.4-.12-.79-.17-1.18-.17-.68,0-1.19.12-1.53.37s-.51.57-.51.96c0,.29.1.52.29.7.19.18.43.32.71.42.28.1.67.21,1.16.32.63.15,1.14.3,1.52.46.38.15.71.38.99.7.28.31.41.73.41,1.26,0,.44-.12.84-.36,1.21-.24.36-.6.65-1.09.86-.49.21-1.09.32-1.8.32-.63,0-1.24-.1-1.83-.29Z"/>
      <path class="cls-2" d="M288.85,109.59c.47.43.7,1.08.7,1.93v3.84h-1.09v-.84c-.19.3-.47.52-.82.68-.36.16-.78.23-1.27.23-.71,0-1.28-.17-1.71-.52-.43-.34-.64-.8-.64-1.36s.2-1.01.61-1.35c.41-.34,1.06-.51,1.94-.51h1.82v-.23c0-.5-.14-.88-.43-1.14-.29-.26-.71-.4-1.27-.4-.38,0-.74.06-1.1.19-.36.12-.66.29-.91.5l-.48-.86c.33-.26.72-.47,1.18-.61s.94-.21,1.45-.21c.88,0,1.55.22,2.02.65ZM287.71,114.25c.32-.2.55-.47.7-.83v-.89h-1.78c-.98,0-1.46.33-1.46.98,0,.32.12.57.37.76.25.18.59.28,1.03.28s.82-.1,1.14-.29Z"/>
      <path class="cls-2" d="M291.71,107.56c-.15-.14-.22-.32-.22-.53s.07-.39.22-.53c.15-.15.33-.22.56-.22s.41.07.56.21c.15.14.22.31.22.52s-.07.4-.22.55c-.15.15-.33.22-.56.22s-.41-.07-.56-.22ZM291.69,109h1.15v6.36h-1.15v-6.36Z"/>
      <path class="cls-2" d="M300.36,109.64c.48.47.71,1.15.71,2.06v3.66h-1.15v-3.53c0-.62-.15-1.08-.44-1.39-.3-.31-.72-.47-1.27-.47-.62,0-1.12.18-1.48.55-.36.36-.54.89-.54,1.57v3.28h-1.15v-6.36h1.1v.96c.23-.33.55-.58.94-.76.4-.18.85-.26,1.35-.26.81,0,1.45.23,1.93.7Z"/>
      <path class="cls-2" d="M306.79,114.99c-.17.14-.38.25-.62.33s-.5.11-.77.11c-.64,0-1.14-.17-1.49-.52-.35-.34-.53-.84-.53-1.48v-3.49h-1.08v-.95h1.08v-1.39h1.15v1.39h1.82v.95h-1.82v3.44c0,.34.09.61.26.79.17.18.42.28.74.28.35,0,.65-.1.9-.3l.36.83Z"/>
      <path class="cls-2" d="M319.36,115.36v-6.12s-3.05,5.1-3.05,5.1h-.55l-3.04-5.06v6.08h-1.15v-8.4h.98l3.5,5.9,3.46-5.9h.98v8.4s-1.14,0-1.14,0Z"/>
      <path class="cls-2" d="M327.21,109.59c.47.43.7,1.08.7,1.93v3.84h-1.09v-.84c-.19.3-.47.52-.82.68-.36.16-.78.23-1.27.23-.71,0-1.28-.17-1.71-.52-.43-.34-.64-.8-.64-1.36s.2-1.01.61-1.35c.41-.34,1.06-.51,1.94-.51h1.82v-.23c0-.5-.14-.88-.43-1.14-.29-.26-.71-.4-1.27-.4-.38,0-.74.06-1.1.19-.36.12-.66.29-.91.5l-.48-.86c.33-.26.72-.47,1.18-.61s.94-.21,1.45-.21c.88,0,1.55.22,2.02.65ZM326.06,114.25c.32-.2.55-.47.7-.83v-.89h-1.78c-.98,0-1.46.33-1.46.98,0,.32.12.57.37.76.25.18.59.28,1.03.28s.82-.1,1.14-.29Z"/>
      <path class="cls-2" d="M332.04,109.23c.39-.19.87-.29,1.43-.29v1.12c-.06,0-.15-.01-.26-.01-.62,0-1.11.19-1.47.56s-.53.9-.53,1.59v3.17h-1.15v-6.36h1.1v1.07c.2-.37.5-.65.89-.84Z"/>
      <path class="cls-2" d="M338.72,114.99c-.17.14-.38.25-.62.33s-.5.11-.77.11c-.64,0-1.14-.17-1.49-.52-.35-.34-.53-.84-.53-1.48v-3.49h-1.08v-.95h1.08v-1.39h1.15v1.39h1.82v.95h-1.82v3.44c0,.34.09.61.26.79.17.18.42.28.74.28.35,0,.65-.1.9-.3l.36.83Z"/>
      <path class="cls-2" d="M340.13,107.56c-.15-.14-.22-.32-.22-.53s.07-.39.22-.53c.15-.15.33-.22.56-.22s.41.07.56.21c.15.14.22.31.22.52s-.07.4-.22.55c-.15.15-.33.22-.56.22s-.41-.07-.56-.22ZM340.11,109h1.15v6.36h-1.15v-6.36Z"/>
      <path class="cls-2" d="M348.78,109.64c.48.47.71,1.15.71,2.06v3.66h-1.15v-3.53c0-.62-.15-1.08-.44-1.39-.3-.31-.72-.47-1.27-.47-.62,0-1.12.18-1.48.55-.36.36-.54.89-.54,1.57v3.28h-1.15v-6.36h1.1v.96c.23-.33.55-.58.94-.76.4-.18.85-.26,1.35-.26.81,0,1.45.23,1.93.7Z"/>
      <path class="cls-2" d="M245.7,132.97c-.53-.34-.94-.84-1.25-1.49s-.46-1.43-.46-2.32.15-1.67.46-2.32c.3-.65.72-1.15,1.25-1.49s1.13-.51,1.8-.51,1.27.17,1.81.51.95.84,1.25,1.49c.3.65.46,1.43.46,2.32s-.15,1.67-.46,2.32c-.3.65-.72,1.15-1.25,1.49s-1.13.51-1.81.51-1.27-.17-1.8-.51ZM248.92,131.38c.35-.5.52-1.24.52-2.22s-.17-1.72-.52-2.22c-.35-.5-.82-.74-1.42-.74s-1.06.25-1.41.74c-.35.5-.52,1.24-.52,2.22s.17,1.72.52,2.22c.35.5.82.74,1.41.74s1.07-.25,1.42-.74Z"/>
      <path class="cls-2" d="M258.09,132.04v1.32h-6.19v-1.04l3.34-3.17c.38-.36.63-.67.76-.94.13-.27.2-.53.2-.8,0-.39-.13-.69-.4-.9-.26-.21-.65-.31-1.16-.31-.86,0-1.51.29-1.97.88l-1.09-.84c.33-.44.77-.78,1.33-1.03.56-.24,1.18-.37,1.87-.37.91,0,1.64.22,2.18.65s.82,1.02.82,1.76c0,.46-.1.88-.29,1.28-.19.4-.56.86-1.1,1.37l-2.24,2.14h3.96Z"/>
      <path class="cls-2" d="M269.79,131.45h-1.49v1.91h-1.51v-1.91h-4.61v-1.08l4.14-5.41h1.67l-3.9,5.17h2.75v-1.69h1.46v1.69h1.49v1.32Z"/>
      <path class="cls-2" d="M272.16,132.97c-.53-.34-.94-.84-1.25-1.49s-.46-1.43-.46-2.32.15-1.67.46-2.32c.3-.65.72-1.15,1.25-1.49.53-.34,1.13-.51,1.8-.51s1.27.17,1.81.51.95.84,1.25,1.49c.3.65.46,1.43.46,2.32s-.15,1.67-.46,2.32c-.3.65-.72,1.15-1.25,1.49s-1.13.51-1.81.51-1.27-.17-1.8-.51ZM275.38,131.38c.35-.5.52-1.24.52-2.22s-.17-1.72-.52-2.22-.82-.74-1.42-.74-1.06.25-1.41.74-.52,1.24-.52,2.22.17,1.72.52,2.22c.35.5.82.74,1.41.74s1.07-.25,1.42-.74Z"/>
      <path class="cls-2" d="M287.19,129.22c.41.43.61.97.61,1.62,0,.49-.12.93-.37,1.33-.25.4-.62.72-1.12.95-.5.24-1.11.35-1.83.35-.6,0-1.18-.09-1.73-.26-.56-.17-1.03-.41-1.42-.71l.67-1.21c.3.26.67.46,1.11.61.44.15.89.22,1.35.22.55,0,.99-.11,1.3-.34.32-.23.47-.54.47-.93s-.15-.7-.45-.92c-.3-.22-.76-.33-1.37-.33h-.77v-1.07l1.91-2.27h-3.82v-1.31h5.72v1.04l-2.04,2.42c.78.1,1.37.36,1.78.79Z"/>
      <path class="cls-2" d="M294.85,132.04v1.32h-6.19v-1.04l3.34-3.17c.38-.36.63-.67.76-.94.13-.27.2-.53.2-.8,0-.39-.13-.69-.4-.9-.26-.21-.65-.31-1.16-.31-.86,0-1.51.29-1.97.88l-1.09-.84c.33-.44.77-.78,1.33-1.03.56-.24,1.18-.37,1.87-.37.91,0,1.64.22,2.18.65s.82,1.02.82,1.76c0,.46-.1.88-.29,1.28-.19.4-.56.86-1.1,1.37l-2.24,2.14h3.96Z"/>
      <path class="cls-2" d="M305.4,124.96v1.04l-3.26,7.36h-1.67l3.16-7.08h-3.3v1.43h-1.45v-2.75h6.53Z"/>
      <path class="cls-2" d="M312.44,132.04v1.32h-6.19v-1.04l3.34-3.17c.38-.36.63-.67.76-.94.13-.27.2-.53.2-.8,0-.39-.13-.69-.4-.9-.26-.21-.65-.31-1.16-.31-.86,0-1.51.29-1.97.88l-1.09-.84c.33-.44.77-.78,1.33-1.03.56-.24,1.18-.37,1.87-.37.91,0,1.64.22,2.18.65s.82,1.02.82,1.76c0,.46-.1.88-.29,1.28-.19.4-.56.86-1.1,1.37l-2.24,2.14h3.96Z"/>
      <path class="cls-2" d="M322.99,124.96v1.04l-3.26,7.36h-1.67l3.16-7.08h-3.3v1.43h-1.45v-2.75h6.53Z"/>
      <path class="cls-2" d="M329.2,129.22c.41.43.61.97.61,1.62,0,.49-.12.93-.37,1.33-.25.4-.62.72-1.12.95-.5.24-1.11.35-1.83.35-.6,0-1.18-.09-1.73-.26-.56-.17-1.03-.41-1.42-.71l.67-1.21c.3.26.67.46,1.11.61.44.15.89.22,1.35.22.55,0,.99-.11,1.3-.34.32-.23.47-.54.47-.93s-.15-.7-.45-.92-.76-.33-1.37-.33h-.77v-1.07l1.91-2.27h-3.82v-1.31h5.72v1.04l-2.04,2.42c.78.1,1.37.36,1.78.79Z"/>
    </g>
    <rect class="cls-1" x="233.48" width="2" height="150"/>
  </g>
  <g>
    <path class="cls-2" d="M73.95,63.29c-.3.75-.78,1.5-1.44,2.23-.53.59-1.29,1.03-2.3,1.3l-1.3.38c-.57.11-.99.17-1.27.17-.71.09-1.61.14-2.71.14h-.93c-1.3,0-2.83-.27-4.59-.82-.98-.3-1.81-.62-2.47-.96-.75-.37-1.47-.81-2.16-1.34-1.51-1.19-2.58-2.63-3.22-4.32-.64-1.71-.96-3.61-.96-5.69s.3-4.18.89-6.1c.59-1.9,1.54-3.5,2.85-4.8,1.23-1.23,2.57-2.18,4.01-2.85,1.51-.71,5.91-1.06,13.2-1.06.14.5.25.86.34,1.06.09.27.17.49.24.65.05.16.11.32.21.48l1.13,2.02c.43.8.74,1.51.93,2.13l-1.17-.99-1.92-1.68c-1.23-.94-2.53-1.63-3.87-2.09-1.26-.43-2.66-.65-4.22-.65s-2.77.21-3.84.62c-1.33.5-2.26,1.29-2.81,2.37-.32.53-.56,1.06-.72,1.61-.05.11-.15.47-.31,1.06-.09.25-.17.5-.24.75l-.03.17c-.3,1.21-.45,2.69-.45,4.42,0,.78.09,1.69.27,2.74.18,1.03.43,2.11.75,3.26.78,2.58,1.87,4.65,3.29,6.2,1.69,1.83,3.7,2.74,6.03,2.74s4.16-.41,5.55-1.23c1.44-.85,2.7-2.3,3.77-4.35,0,.82-.18,1.63-.55,2.43Z"/>
    <path class="cls-2" d="M87.15,59.56c-1.53,1.67-3.26,2.5-5.18,2.5s-3.47-.73-4.59-2.19c-.96-1.35-1.44-2.99-1.44-4.94s.74-3.83,2.23-5.45c1.49-1.62,3.21-2.43,5.18-2.43s3.46.71,4.56,2.13c1.01,1.33,1.51,2.97,1.51,4.94s-.75,3.76-2.26,5.45ZM86.26,54.52c-.02-.27-.09-.72-.21-1.34,0-.05-.01-.1-.03-.17-.27-1.28-.67-2.27-1.2-2.98-.73-.94-1.61-1.41-2.64-1.41-.96,0-1.77.47-2.43,1.41-.53.8-.79,1.78-.79,2.95,0,.32.02.85.07,1.58v.1c.02.55.09,1.12.21,1.71.23,1.12.58,2.02,1.06,2.71.69.91,1.58,1.37,2.67,1.37s1.95-.48,2.57-1.44c.53-.87.79-1.84.79-2.91,0-.46-.02-.98-.07-1.58Z"/>
    <path class="cls-2" d="M98.84,61.27c-.64.53-1.3.79-1.99.79s-1.26-.26-1.65-.79c-.37-.5-.55-4.46-.55-11.86l-.1-.41c-.14-.14-.3-.21-.48-.21-.21,0-.53.14-.96.41l-.93.75c.05-.25.31-.64.79-1.17l1.13-1.03c.27-.21.56-.37.86-.48l.58-.21.14-.03h.55c.25,0,.57.19.96.58.37.39.56.77.58,1.13v.69l.07.38v9.6c.05.32.1.55.17.69.14.21.33.31.58.31.32-.05.67-.23,1.06-.55l.58-.48c-.57.89-1.04,1.52-1.41,1.89ZM97.47,43.65c-.66.53-1.27.79-1.82.79-.64,0-1.06-.31-1.27-.93-.21-.59-.31-1.14-.31-1.65,0-1.53.53-2.3,1.58-2.3,1.12,0,1.84.23,2.16.69.39.46.58,1.01.58,1.65s-.31,1.22-.93,1.75Z"/>
    <path class="cls-2" d="M113.17,40.74c-.85.34-1.76.51-2.74.51l-2.09-.07c-.91,0-1.37,1.99-1.37,5.96l2.26-.07c.55,0,.99-.07,1.34-.21.34-.11.56-.25.65-.41-.43,1.01-.97,1.7-1.61,2.09-.37.23-.75.4-1.17.51l-.62.1c-.16.02-.45.03-.86.03v14.26c0,1.23-.09,2.42-.27,3.57-.27,1.42-.72,2.55-1.34,3.39-.59.91-1.21,1.59-1.85,2.02-.8.57-2.93.86-6.38.86.41-1.23,1.19-1.95,2.33-2.16l2.91-.27c.94-.27,1.41-7.51,1.41-21.7h-2.37l.89-.96.93-1.03.58-.03v-1.68c0-1.6.39-3.03,1.17-4.29.91-1.46,4.32-2.19,10.22-2.19-.48.82-1.15,1.41-2.02,1.75Z"/>
    <path class="cls-2" d="M126.47,40.74c-.85.34-1.76.51-2.74.51l-2.09-.07c-.91,0-1.37,1.99-1.37,5.96l2.26-.07c.55,0,.99-.07,1.34-.21.34-.11.56-.25.65-.41-.43,1.01-.97,1.7-1.61,2.09-.37.23-.75.4-1.17.51l-.62.1c-.16.02-.45.03-.86.03v14.26c0,1.23-.09,2.42-.27,3.57-.27,1.42-.72,2.55-1.34,3.39-.59.91-1.21,1.59-1.85,2.02-.8.57-2.93.86-6.38.86.41-1.23,1.19-1.95,2.33-2.16l2.91-.27c.94-.27,1.41-7.51,1.41-21.7h-2.37l.89-.96.93-1.03.58-.03v-1.68c0-1.6.39-3.03,1.17-4.29.91-1.46,4.32-2.19,10.22-2.19-.48.82-1.15,1.41-2.02,1.75Z"/>
    <path class="cls-2" d="M140.56,59.69l-.86.93-.86.69c-.64.5-1.36.75-2.16.75-.73,0-1.2-.43-1.41-1.3l-.07-2.43-.82.86-.82.75-1.03.86-.93.62c-.78.43-1.54.65-2.3.65-.82,0-1.41-.46-1.75-1.37-.25-.69-.38-4.22-.38-10.59l-.14-.89c-.07-.25-.24-.38-.51-.38-.23,0-.5.07-.82.21l-.79.41c.46-.71.99-1.29,1.61-1.75.66-.46,1.31-.69,1.95-.69s1.15.3,1.47.89c.25.5.38,3.21.38,8.12l.07,2.02c.21.75.53,1.13.96,1.13.46,0,.83-.07,1.13-.21l.69-.45c.32-.25.57-.47.75-.65l.55-.69c.48-.66.72-3.2.72-7.61,0-.73.33-1.36.99-1.89.59-.46,1.3-.69,2.13-.69l-.03,4.42.03,5.21.03,2.64.14.14.24.14.41.03c.41,0,.9-.18,1.47-.55l.65-.48.62-.58-1.34,1.71Z"/>
    <path class="cls-2" d="M153.65,52.15l-2.37,2.43.07-.14.07-.21c.07-.14.14-.35.21-.65l.07-.96.14-.65c0-.48-.07-.86-.21-1.13-.23-.37-.53-.55-.89-.55-.43,0-1.09.5-1.95,1.51l-.86,1.03-.72,1.03.03,6.38c-.55.5-1.06.89-1.54,1.17-.53.32-1.07.54-1.65.65v-11.35c0-.16-.08-.31-.24-.45s-.34-.22-.55-.24c-.23.02-.5.14-.82.34l-.75.58.62-.93.41-.55,1.41-1.44c.73-.66,1.27-.99,1.61-.99.37,0,.65.11.86.34.21.21.37.51.48.93.07.41.1.77.1,1.06l.03,1.03v2.26l1.58-2.3c.82-1.1,1.49-1.86,1.99-2.3.82-.69,1.58-1.03,2.26-1.03s1.2.23,1.54.69c.39.41.58.97.58,1.68,0,.62-.5,1.53-1.51,2.74Z"/>
    <path class="cls-2" d="M166.37,60.93c-1.07.71-2.41,1.06-4.01,1.06s-2.98-.59-3.94-1.78c-.96-1.21-1.44-2.66-1.44-4.35,0-2.38.67-4.41,2.02-6.1,1.44-1.78,2.98-2.67,4.63-2.67s2.81.24,3.63.72c.55.3,1.23.88,2.06,1.75l-8.33,8.3c.37.69.93,1.18,1.68,1.47.55.23,1.25.34,2.09.34.43,0,.82-.05,1.17-.14.41-.11.83-.26,1.27-.45.94-.41,1.66-.82,2.16-1.23-.89,1.33-1.89,2.35-2.98,3.09ZM164.41,50.03c-.34-.41-.91-.67-1.71-.79-.85,0-1.51.61-1.99,1.82-.11.32-.24.78-.38,1.37-.09.39-.14.8-.14,1.23,0,.82.03,1.43.1,1.82.02.09.03.17.03.24.02.11.03.19.03.24,0,.09.02.21.07.34,0,.18.08.45.24.79l1.58-1.51.75-.79,1.03-1.17c.25-.32.47-.67.65-1.06.14-.32.21-.65.21-.99,0-.57-.16-1.09-.48-1.54Z"/>
    <path class="cls-2" d="M40.39,104.88c-.53,1.21-1.28,2.33-2.26,3.36-.98,1.05-2.34,1.79-4.08,2.23-1.26.37-2.97.55-5.14.55-2.06,0-3.85-.18-5.38-.55-.55-.11-1.05-.25-1.51-.41-.57-.21-1.03-.4-1.37-.58-.89-.43-1.7-.91-2.43-1.44-1.01-.73-1.77-1.79-2.3-3.19-.39-1.1-.58-2.31-.58-3.63s.11-2.31.34-3.02c.34-.94.89-1.63,1.65-2.09-.32.32-.55.73-.69,1.23-.02.23-.06.61-.1,1.13-.05.73-.07,1.36-.07,1.89,0,1.44.86,2.95,2.57,4.53,1.35,1.23,3.31,2.22,5.9,2.95,2.01.57,4.19.86,6.55.86,1.12,0,2.14-.09,3.05-.27.75-.16,1.5-.45,2.23-.86,1.58-.96,2.37-2.29,2.37-3.98s-.26-2.96-.79-3.87c-.53-.89-1.29-1.53-2.3-1.92-1.19-.53-2.81-1.03-4.87-1.51l-4.94-1.13c-1.07-.27-1.92-.53-2.54-.75-.73-.23-1.49-.53-2.26-.89-1.14-.5-1.98-1.28-2.5-2.33-.5-1.01-.75-2.19-.75-3.56,0-1.83.65-3.44,1.95-4.83,1.26-1.39,6.58-2.09,15.97-2.09,0,.64.24,1.44.72,2.4l1.3,2.37c.5.91.85,1.73,1.03,2.43-1.85-2.22-3.78-3.81-5.79-4.77-2.13-1.03-4.3-1.54-6.51-1.54s-3.89.32-5.01.96c-1.35.8-2.02,2.08-2.02,3.84s.89,2.95,2.67,3.7c1.37.53,3.07,1.01,5.11,1.44l5.07,1.06c1.97.5,3.68,1.13,5.14,1.89,1.17.59,2.01,1.44,2.54,2.54.53,1.17.79,2.46.79,3.87s-.25,2.8-.75,4.01Z"/>
    <path class="cls-2" d="M57.5,101.24c-.16.23-.39.49-.69.79-.48.48-.99.81-1.54.99l-.38.07-.38.07c-1.07-.21-1.77-.79-2.09-1.75-.14-.53-.21-1.49-.21-2.88-.39.5-.95,1.07-1.68,1.71-1.01.91-1.78,1.58-2.33,1.99-.32.21-.75.43-1.3.69-.39.16-.77.24-1.13.24-.78,0-1.43-.62-1.95-1.85-.41-1-.62-2.5-.62-4.49s.8-3.99,2.4-5.72c.85-.91,1.84-1.61,2.98-2.09,1.17-.46,2.46-.69,3.87-.69h2.95v12.68c0,.3.16.45.48.45.37-.05.82-.23,1.37-.55l.75-.41-.51.75ZM52.22,89.28c-1.6,0-2.96.61-4.08,1.82-1.1,1.23-1.65,2.48-1.65,3.74s.1,2.19.31,2.74c.34.8.87,1.2,1.58,1.2s1.43-.19,2.16-.58c.37-.23.93-.64,1.68-1.23v-7.68Z"/>
    <path class="cls-2" d="M66.51,102.41c-.64.53-1.3.79-1.99.79s-1.26-.26-1.65-.79c-.37-.5-.55-4.46-.55-11.86l-.1-.41c-.14-.14-.3-.21-.48-.21-.21,0-.53.14-.96.41l-.93.75c.05-.25.31-.64.79-1.17l1.13-1.03c.27-.21.56-.37.86-.48l.58-.21.14-.03h.55c.25,0,.57.19.96.58.37.39.56.77.58,1.13v.69l.07.38v9.6c.05.32.1.55.17.69.14.21.33.31.58.31.32-.05.67-.23,1.06-.55l.58-.48c-.57.89-1.04,1.52-1.41,1.89ZM65.14,84.79c-.66.53-1.27.79-1.82.79-.64,0-1.06-.31-1.27-.93-.21-.59-.31-1.14-.31-1.65,0-1.53.53-2.3,1.58-2.3,1.12,0,1.84.23,2.16.69.39.46.58,1.01.58,1.65s-.31,1.22-.93,1.75Z"/>
    <path class="cls-2" d="M82.01,102.3c-.25.21-.59.42-1.03.65l-.03.03c-.34.14-.69.21-1.03.21-.69,0-1.2-.21-1.54-.62-.34-.39-.51-2.9-.51-7.54v-1.85c0-.46-.07-.86-.21-1.2-.18-.32-.51-.48-.99-.48-.53,0-1.2.51-2.02,1.54l-.65.96-.93,1.41v4.49l-.07,1.51-.07.14c-.37.5-.82.88-1.37,1.13-.39.21-.95.38-1.68.51l.03-4.56v-5.01c0-1.44-.05-2.28-.14-2.54-.09-.07-.22-.11-.38-.14-.23.05-.54.16-.93.34l-.93.58c.69-.87,1.29-1.57,1.82-2.09,1.01-.96,1.71-1.44,2.13-1.44.48,0,.83.15,1.06.45.11.18.23.55.34,1.1l.14,1.82.03,2.19,1.54-2.19.96-1.27c1.26-1.39,2.39-2.09,3.39-2.09s1.65.45,1.92,1.34c.16.41.24,1.28.24,2.61l-.03,4.39v4.18l.14.55c.07.14.22.21.45.21s.55-.14.96-.41l.86-.72c-.39.75-.88,1.36-1.47,1.82Z"/>
    <path class="cls-2" d="M91.43,101.76c-1.03.96-1.97,1.44-2.81,1.44-.89,0-1.46-.47-1.71-1.41-.14-.48-.21-4.49-.21-12.03l-1.99.03.07-.41.17-.31c.09-.14.46-.42,1.1-.86l1.27-.93c.48-.43.97-1.11,1.47-2.02l.51-1.06.55-1.27v5.35l2.81.03c-.23.39-.53.71-.89.96l-.62.31c-.27.09-.49.15-.65.17h-.27l-.38.03v10.35c0,.18.03.37.1.55.14.14.34.21.62.21s.75-.24,1.44-.72c.25-.11.72-.49,1.41-1.13-.62,1.14-1.28,2.05-1.99,2.71Z"/>
    <path class="cls-2" d="M141.1,110.53c-1.62,0-3.09-.29-4.39-.86-1.33-.57-2.47-1.44-3.43-2.61-2.01-2.49-3.45-5.34-4.32-8.54-.41-1.46-.74-3.1-.99-4.9-.23-1.6-.34-3.34-.34-5.21l-.62,1.3-.21.51-.17.55-.75,2.43-.82,2.67-.75,2.98-.41,1.75-.27,1.03-.99-2.02-.62-1.47-1.51-4.01-1.23-3.7-.48-1.51-.51-1.47c0,3.02-.5,6.33-1.51,9.94-.98,3.52-2.31,6.66-3.98,9.43-.66,1.17-1.41,2.03-2.23,2.61-.98.78-2.14,1.17-3.46,1.17s-2.46-.75-3.39-2.26c-.73-1.12-1.2-2.56-1.41-4.32.69.82,1.49,1.44,2.4,1.85,1.01.48,2.02.72,3.05.72s1.98-.26,2.91-.79c.89-.48,1.67-1.26,2.33-2.33,1.05-1.67,1.96-3.67,2.74-6,.59-1.99,1.04-4.15,1.34-6.48l.27-2.74.03-1.75v-.99c0-.16-.06-.64-.17-1.44v-.1c-.14-.78-.45-1.41-.93-1.88-.59-.59-1.83-.89-3.7-.89s-3.68.66-5.35,1.99c-1.81,1.44-2.71,3.09-2.71,4.94s.13,3.17.38,4.22c.3.98.74,1.88,1.34,2.71l1.23,1.51c.27.32.43.58.48.79-.02.16-.18.33-.48.51-.07.07-.57.23-1.51.48-1.05-.57-1.84-1.62-2.37-3.15-.53-1.55-.79-2.98-.79-4.28,0-2.63.66-4.78,1.99-6.44,1.14-1.46,2.74-2.54,4.8-3.22,2.03-.69,3.92-1.03,5.66-1.03,1.58,0,2.74.16,3.5.48.66.3,1.22.8,1.68,1.51.57.91,1.05,1.9,1.44,2.95.23.62.54,1.66.93,3.12l.51,1.85.38,1.2.27.96.55,1.65.75-2.57c.59-1.92,1.2-3.53,1.82-4.83.96-1.9,2.01-3.36,3.15-4.39,1.42-1.28,2.75-1.92,4.01-1.92s2.21.17,2.85.51c.62.32,1.12.86,1.51,1.61-.32-.41-.82-.77-1.51-1.06-.64-.27-1.46-.41-2.47-.41s-1.94.71-2.88,2.13c-.75,1.26-1.13,2.45-1.13,3.56v.65c0,.07.01.22.03.45l.03.45c0,.32.01.56.03.72.02.11.05.25.07.41.02.16.05.3.07.41l.51,2.4c.25,1.07.62,2.3,1.1,3.67.46,1.28.95,2.43,1.47,3.46.62,1.21,1.23,2.33,1.85,3.36.34.59.7,1.12,1.06,1.58.34.53.72,1.04,1.13,1.54.85,1.03,1.83,2,2.95,2.91,1.05.82,2.17,1.49,3.36,1.99h-3.19Z"/>
    <path class="cls-2" d="M151.22,101.24c-.16.23-.39.49-.69.79-.48.48-.99.81-1.54.99l-.38.07-.38.07c-1.07-.21-1.77-.79-2.09-1.75-.14-.53-.21-1.49-.21-2.88-.39.5-.95,1.07-1.68,1.71-1.01.91-1.78,1.58-2.33,1.99-.32.21-.75.43-1.3.69-.39.16-.77.24-1.13.24-.78,0-1.43-.62-1.95-1.85-.41-1-.62-2.5-.62-4.49s.8-3.99,2.4-5.72c.85-.91,1.84-1.61,2.98-2.09,1.17-.46,2.46-.69,3.87-.69h2.95v12.68c0,.3.16.45.48.45.37-.05.82-.23,1.37-.55l.75-.41-.51.75ZM145.94,89.28c-1.6,0-2.96.61-4.08,1.82-1.1,1.23-1.65,2.48-1.65,3.74s.1,2.19.31,2.74c.34.8.87,1.2,1.58,1.2s1.43-.19,2.16-.58c.37-.23.93-.64,1.68-1.23v-7.68Z"/>
    <path class="cls-2" d="M163.35,93.29l-2.37,2.43.07-.14.07-.21c.07-.14.14-.35.21-.65l.07-.96.14-.65c0-.48-.07-.86-.21-1.13-.23-.37-.53-.55-.89-.55-.43,0-1.09.5-1.95,1.51l-.86,1.03-.72,1.03.03,6.38c-.55.5-1.06.89-1.54,1.17-.53.32-1.07.54-1.65.65v-11.35c0-.16-.08-.31-.24-.45-.16-.14-.34-.22-.55-.24-.23.02-.5.14-.82.34l-.75.58.62-.93.41-.55,1.41-1.44c.73-.66,1.27-.99,1.61-.99.37,0,.65.11.86.34.21.21.37.51.48.93.07.41.1.77.1,1.06l.03,1.03v2.26l1.58-2.3c.82-1.1,1.49-1.86,1.99-2.3.82-.69,1.58-1.03,2.26-1.03s1.2.23,1.54.69c.39.41.58.97.58,1.68,0,.62-.5,1.53-1.51,2.74Z"/>
    <path class="cls-2" d="M173.36,101.76c-1.03.96-1.97,1.44-2.81,1.44-.89,0-1.46-.47-1.71-1.41-.14-.48-.21-4.49-.21-12.03l-1.99.03.07-.41.17-.31c.09-.14.46-.42,1.1-.86l1.27-.93c.48-.43.97-1.11,1.47-2.02l.51-1.06.55-1.27v5.35l2.81.03c-.23.39-.53.71-.89.96l-.62.31c-.27.09-.49.15-.65.17h-.27l-.38.03v10.35c0,.18.03.37.1.55.14.14.34.21.62.21s.75-.24,1.44-.72c.25-.11.72-.49,1.41-1.13-.62,1.14-1.28,2.05-1.99,2.71Z"/>
    <path class="cls-2" d="M184.36,102.41c-.64.53-1.3.79-1.99.79s-1.26-.26-1.65-.79c-.37-.5-.55-4.46-.55-11.86l-.1-.41c-.14-.14-.3-.21-.48-.21-.21,0-.53.14-.96.41l-.93.75c.05-.25.31-.64.79-1.17l1.13-1.03c.27-.21.56-.37.86-.48l.58-.21.14-.03h.55c.25,0,.57.19.96.58.37.39.56.77.58,1.13v.69l.07.38v9.6c.05.32.1.55.17.69.14.21.33.31.58.31.32-.05.67-.23,1.06-.55l.58-.48c-.57.89-1.04,1.52-1.41,1.89ZM182.99,84.79c-.66.53-1.27.79-1.82.79-.64,0-1.06-.31-1.27-.93-.21-.59-.31-1.14-.31-1.65,0-1.53.53-2.3,1.58-2.3,1.12,0,1.84.23,2.16.69.39.46.58,1.01.58,1.65s-.31,1.22-.93,1.75Z"/>
    <path class="cls-2" d="M199.86,102.3c-.25.21-.59.42-1.03.65l-.03.03c-.34.14-.69.21-1.03.21-.69,0-1.2-.21-1.54-.62-.34-.39-.51-2.9-.51-7.54v-1.85c0-.46-.07-.86-.21-1.2-.18-.32-.51-.48-.99-.48-.53,0-1.2.51-2.02,1.54l-.65.96-.93,1.41v4.49l-.07,1.51-.07.14c-.37.5-.82.88-1.37,1.13-.39.21-.95.38-1.68.51l.03-4.56v-5.01c0-1.44-.05-2.28-.14-2.54-.09-.07-.22-.11-.38-.14-.23.05-.54.16-.93.34l-.93.58c.69-.87,1.29-1.57,1.82-2.09,1.01-.96,1.71-1.44,2.13-1.44.48,0,.83.15,1.06.45.11.18.23.55.34,1.1l.14,1.82.03,2.19,1.54-2.19.96-1.27c1.26-1.39,2.39-2.09,3.39-2.09s1.65.45,1.92,1.34c.16.41.24,1.28.24,2.61l-.03,4.39v4.18l.14.55c.07.14.22.21.45.21s.55-.14.96-.41l.86-.72c-.39.75-.88,1.36-1.47,1.82Z"/>
  </g>
</svg>