<?xml version="1.0" encoding="UTF-8"?>
<svg id="Calque_1" data-name="Calque 1" xmlns="http://www.w3.org/2000/svg" version="1.1" viewBox="0 0 522 150">
  <g>
    <path d="M246.204,25.399c-.798-.435-1.423-1.034-1.876-1.799-.453-.766-.679-1.629-.679-2.591s.229-1.824.686-2.59c.458-.765,1.085-1.365,1.883-1.799.798-.434,1.692-.651,2.681-.651.803,0,1.535.141,2.198.421.663.279,1.223.686,1.68,1.218l-1.176,1.105c-.71-.765-1.582-1.147-2.618-1.147-.672,0-1.274.146-1.806.44s-.948.703-1.246,1.226c-.299.522-.448,1.115-.448,1.777s.149,1.256.448,1.778c.298.522.714.931,1.246,1.225.532.295,1.134.441,1.806.441,1.036,0,1.908-.387,2.618-1.162l1.176,1.12c-.458.532-1.02.938-1.688,1.218-.667.28-1.402.42-2.205.42-.99,0-1.883-.217-2.681-.65Z" fill="#000" stroke-width="0"/>
    <path d="M256.193,25.399c-.803-.435-1.433-1.036-1.89-1.807-.457-.77-.686-1.631-.686-2.583s.229-1.812.686-2.583c.458-.77,1.087-1.372,1.89-1.806s1.704-.651,2.702-.651,1.899.218,2.702.651,1.433,1.034,1.891,1.799c.457.766.686,1.629.686,2.59s-.229,1.825-.686,2.591c-.458.765-1.088,1.364-1.891,1.799-.803.434-1.703.65-2.702.65s-1.899-.217-2.702-.65ZM260.659,24.012c.522-.294.933-.704,1.231-1.231.299-.527.448-1.118.448-1.771s-.149-1.243-.448-1.771c-.298-.527-.709-.938-1.231-1.232-.523-.294-1.111-.44-1.764-.44s-1.242.146-1.764.44-.934.705-1.232,1.232c-.299.527-.448,1.118-.448,1.771s.149,1.244.448,1.771c.298.527.709.938,1.232,1.231.522.295,1.11.441,1.764.441s1.241-.146,1.764-.441Z" fill="#000" stroke-width="0"/>
    <path d="M266.105,16.11h1.819v9.8h-1.819v-9.8Z" fill="#000" stroke-width="0"/>
    <path d="M272.391,17.635v2.982h4.732v1.54h-4.732v3.752h-1.82v-9.8h7.154v1.525h-5.334Z" fill="#000" stroke-width="0"/>
    <path d="M281.309,17.635v2.982h4.732v1.54h-4.732v3.752h-1.82v-9.8h7.154v1.525h-5.334Z" fill="#000" stroke-width="0"/>
    <path d="M289.457,24.908c-.756-.761-1.135-1.851-1.135-3.269v-5.53h1.82v5.46c0,1.923.83,2.884,2.492,2.884,1.652,0,2.478-.961,2.478-2.884v-5.46h1.792v5.53c0,1.418-.375,2.508-1.127,3.269-.751.761-1.804,1.141-3.156,1.141s-2.408-.38-3.164-1.141Z" fill="#000" stroke-width="0"/>
    <path d="M305.864,25.909l-2.002-2.87c-.084.01-.21.014-.378.014h-2.212v2.856h-1.82v-9.8h4.032c.85,0,1.589.14,2.219.42.631.28,1.113.682,1.449,1.204s.504,1.144.504,1.861c0,.738-.18,1.372-.539,1.904s-.875.929-1.547,1.19l2.254,3.22h-1.96ZM305.207,18.153c-.411-.336-1.014-.504-1.807-.504h-2.128v3.906h2.128c.793,0,1.396-.171,1.807-.512.41-.341.615-.823.615-1.449s-.205-1.105-.615-1.441Z" fill="#000" stroke-width="0"/>
    <path d="M317.036,24.383v1.526h-7.351v-9.8h7.154v1.525h-5.334v2.549h4.732v1.498h-4.732v2.701h5.53Z" fill="#000" stroke-width="0"/>
    <path d="M323.777,25.728c-.705-.215-1.263-.5-1.674-.854l.631-1.414c.4.317.894.576,1.477.777.583.2,1.169.301,1.757.301.729,0,1.271-.116,1.632-.35.358-.233.538-.542.538-.925,0-.279-.101-.511-.301-.692-.2-.183-.455-.324-.763-.427-.309-.103-.729-.22-1.26-.351-.747-.177-1.352-.354-1.813-.532-.462-.177-.858-.454-1.19-.833-.331-.378-.496-.889-.496-1.532,0-.542.146-1.034.44-1.478s.737-.795,1.33-1.057,1.318-.393,2.177-.393c.598,0,1.186.075,1.765.225.578.149,1.077.364,1.497.644l-.573,1.414c-.43-.252-.878-.443-1.345-.574-.467-.13-.919-.195-1.357-.195-.719,0-1.253.121-1.604.363-.35.243-.524.565-.524.967,0,.279.101.509.301.686.2.178.455.317.763.42.309.103.729.22,1.261.351.728.168,1.325.343,1.792.524.467.183.865.46,1.197.833.33.374.496.878.496,1.512,0,.542-.146,1.032-.44,1.471s-.74.788-1.337,1.05c-.598.261-1.326.392-2.185.392-.756,0-1.486-.107-2.19-.321Z" fill="#000" stroke-width="0"/>
    <path d="M338.092,23.642h-4.9l-.966,2.268h-1.876l4.41-9.8h1.792l4.424,9.8h-1.903l-.98-2.268ZM337.49,22.213l-1.849-4.284-1.834,4.284h3.683Z" fill="#000" stroke-width="0"/>
    <path d="M342.222,16.11h1.82v9.8h-1.82v-9.8Z" fill="#000" stroke-width="0"/>
    <path d="M355.396,16.11v9.8h-1.498l-5.403-6.636v6.636h-1.807v-9.8h1.498l5.404,6.636v-6.636h1.806Z" fill="#000" stroke-width="0"/>
    <path d="M360.016,17.65h-3.248v-1.54h8.316v1.54h-3.248v8.26h-1.82v-8.26Z" fill="#000" stroke-width="0"/>
    <path d="M379.321,25.909l-.014-6.496-3.22,5.376h-.812l-3.22-5.292v6.412h-1.736v-9.8h1.498l3.892,6.496,3.822-6.496h1.498l.014,9.8h-1.722Z" fill="#000" stroke-width="0"/>
    <path d="M390.045,23.642h-4.9l-.966,2.268h-1.876l4.41-9.8h1.792l4.424,9.8h-1.903l-.98-2.268ZM389.443,22.213l-1.849-4.284-1.834,4.284h3.683Z" fill="#000" stroke-width="0"/>
    <path d="M400.587,25.909l-2.002-2.87c-.084.01-.21.014-.378.014h-2.212v2.856h-1.82v-9.8h4.032c.85,0,1.589.14,2.219.42s1.113.682,1.449,1.204.504,1.144.504,1.861c0,.738-.18,1.372-.539,1.904s-.875.929-1.547,1.19l2.254,3.22h-1.96ZM399.929,18.153c-.411-.336-1.013-.504-1.806-.504h-2.128v3.906h2.128c.793,0,1.395-.171,1.806-.512s.616-.823.616-1.449-.205-1.105-.616-1.441Z" fill="#000" stroke-width="0"/>
    <path d="M406.257,17.65h-3.248v-1.54h8.316v1.54h-3.248v8.26h-1.82v-8.26Z" fill="#000" stroke-width="0"/>
    <path d="M412.697,16.11h1.819v9.8h-1.819v-9.8Z" fill="#000" stroke-width="0"/>
    <path d="M425.871,16.11v9.8h-1.498l-5.404-6.636v6.636h-1.807v-9.8h1.498l5.404,6.636v-6.636h1.807Z" fill="#000" stroke-width="0"/>
    <path d="M431.82,21.289h3.85v1.456h-3.85v-1.456Z" fill="#000" stroke-width="0"/>
    <path d="M251.589,35.509l-3.684,8.4h-1.188l-3.696-8.4h1.296l3.024,6.9,3.048-6.9h1.2Z" fill="#000" stroke-width="0"/>
    <path d="M253.029,43.562c-.504-.28-.898-.666-1.182-1.158s-.426-1.05-.426-1.674.143-1.183.426-1.674c.284-.492.678-.877,1.182-1.152.504-.276,1.072-.414,1.704-.414s1.198.138,1.698.414c.5.275.892.66,1.176,1.152.284.491.426,1.05.426,1.674s-.142,1.182-.426,1.674c-.284.492-.676.878-1.176,1.158-.5.279-1.066.42-1.698.42s-1.2-.141-1.704-.42ZM255.831,42.692c.324-.188.578-.452.762-.792s.276-.73.276-1.17-.092-.83-.276-1.17-.438-.603-.762-.786c-.324-.185-.689-.276-1.098-.276s-.774.092-1.098.276c-.324.184-.58.446-.768.786s-.282.729-.282,1.17.094.83.282,1.17.444.604.768.792c.324.188.69.282,1.098.282s.774-.095,1.098-.282Z" fill="#000" stroke-width="0"/>
    <path d="M263.205,43.537c-.168.145-.376.254-.624.33s-.504.114-.768.114c-.64,0-1.136-.172-1.488-.517-.353-.344-.528-.836-.528-1.476v-3.492h-1.08v-.948h1.08v-1.392h1.152v1.392h1.824v.948h-1.824v3.444c0,.344.086.607.258.792.172.184.418.275.738.275.352,0,.652-.1.9-.3l.359.828Z" fill="#000" stroke-width="0"/>
    <path d="M266.589,37.778c.392-.192.868-.288,1.428-.288v1.116c-.063-.008-.151-.013-.264-.013-.624,0-1.114.187-1.47.559-.356.372-.534.902-.534,1.59v3.168h-1.152v-6.36h1.104v1.068c.199-.368.496-.648.888-.84Z" fill="#000" stroke-width="0"/>
    <path d="M275.097,41.113h-5.16c.072.56.318,1.01.738,1.35.42.341.942.511,1.565.511.761,0,1.373-.257,1.836-.769l.637.744c-.288.336-.646.592-1.074.768-.428.177-.906.265-1.434.265-.672,0-1.269-.139-1.788-.414-.521-.276-.923-.662-1.206-1.158-.284-.496-.426-1.056-.426-1.68,0-.616.138-1.172.414-1.668.275-.496.655-.883,1.14-1.158.483-.276,1.03-.414,1.638-.414s1.15.138,1.626.414c.476.275.849.662,1.116,1.158s.402,1.063.402,1.704c0,.088-.008.203-.024.348ZM270.591,38.965c-.372.336-.59.776-.654,1.32h4.08c-.063-.536-.282-.974-.653-1.314-.373-.34-.834-.51-1.387-.51s-1.014.168-1.386.504Z" fill="#000" stroke-width="0"/>
    <path d="M288.896,41.113h-5.16c.072.56.318,1.01.738,1.35.42.341.942.511,1.566.511.76,0,1.372-.257,1.836-.769l.636.744c-.288.336-.646.592-1.074.768-.428.177-.905.265-1.434.265-.672,0-1.269-.139-1.788-.414-.52-.276-.922-.662-1.206-1.158s-.426-1.056-.426-1.68c0-.616.138-1.172.414-1.668s.655-.883,1.14-1.158c.484-.276,1.03-.414,1.639-.414s1.149.138,1.625.414c.477.275.849.662,1.116,1.158.269.496.402,1.063.402,1.704,0,.088-.008.203-.024.348ZM284.391,38.965c-.372.336-.59.776-.654,1.32h4.08c-.063-.536-.281-.974-.653-1.314-.372-.34-.834-.51-1.386-.51s-1.015.168-1.387.504Z" fill="#000" stroke-width="0"/>
    <path d="M290.841,43.772c-.479-.141-.856-.318-1.128-.534l.48-.912c.279.2.619.36,1.02.48.4.119.804.18,1.212.18,1.008,0,1.512-.288,1.512-.864,0-.192-.067-.344-.204-.456-.136-.111-.306-.193-.51-.246-.204-.052-.494-.109-.87-.174-.512-.08-.93-.172-1.254-.276-.323-.104-.602-.279-.834-.527-.231-.248-.348-.596-.348-1.044,0-.576.239-1.038.72-1.387.48-.348,1.124-.521,1.932-.521.424,0,.849.052,1.272.156.424.104.772.244,1.044.42l-.492.912c-.52-.336-1.132-.504-1.836-.504-.488,0-.859.08-1.115.239-.257.16-.385.372-.385.637,0,.208.072.371.216.491.145.12.322.208.534.265.212.056.51.12.895.191.512.089.926.183,1.242.282.315.101.586.271.81.51.224.24.336.576.336,1.009,0,.575-.246,1.033-.738,1.373-.491.341-1.162.511-2.01.511-.521,0-1.021-.07-1.5-.21Z" fill="#000" stroke-width="0"/>
    <path d="M301.557,37.898c.488.271.87.651,1.146,1.14.275.488.414,1.052.414,1.692s-.139,1.206-.414,1.697c-.276.492-.658.875-1.146,1.146-.488.272-1.04.408-1.656.408-.455,0-.874-.088-1.254-.265-.38-.176-.701-.432-.966-.768v3.288h-1.151v-8.688h1.104v1.009c.256-.353.58-.618.972-.799.392-.18.824-.27,1.296-.27.616,0,1.168.136,1.656.408ZM300.902,42.692c.324-.188.58-.452.769-.792.188-.34.282-.73.282-1.17s-.095-.83-.282-1.17c-.188-.34-.444-.603-.769-.786-.323-.185-.689-.276-1.098-.276-.4,0-.762.094-1.086.282-.324.188-.58.45-.768.786-.188.336-.282.724-.282,1.164s.092.83.276,1.17c.184.34.439.604.768.792.328.188.691.282,1.092.282.408,0,.774-.095,1.098-.282Z" fill="#000" stroke-width="0"/>
    <path d="M308.99,38.137c.469.433.703,1.076.703,1.933v3.84h-1.093v-.84c-.192.296-.466.521-.821.678-.356.156-.778.234-1.267.234-.712,0-1.282-.172-1.71-.517-.428-.344-.642-.796-.642-1.355s.204-1.01.611-1.351c.408-.34,1.057-.51,1.944-.51h1.824v-.228c0-.496-.145-.876-.432-1.141-.289-.264-.713-.396-1.272-.396-.376,0-.744.062-1.104.186-.359.124-.664.29-.912.498l-.479-.863c.328-.265.72-.467,1.176-.606s.94-.21,1.452-.21c.88,0,1.554.216,2.021.647ZM307.845,42.799c.319-.195.552-.474.696-.834v-.888h-1.776c-.976,0-1.464.328-1.464.984,0,.319.124.571.372.756.248.184.592.275,1.032.275s.819-.098,1.14-.294Z" fill="#000" stroke-width="0"/>
    <path d="M312.902,43.562c-.508-.28-.906-.666-1.193-1.158-.289-.492-.433-1.05-.433-1.674s.144-1.183.433-1.674c.287-.492.686-.877,1.193-1.152.508-.276,1.086-.414,1.734-.414.576,0,1.09.116,1.542.348.452.232.802.568,1.05,1.008l-.876.564c-.2-.304-.448-.532-.744-.684-.296-.152-.624-.229-.983-.229-.416,0-.791.092-1.123.276-.332.184-.592.446-.779.786-.188.34-.282.729-.282,1.17,0,.448.094.842.282,1.182.188.34.447.603.779.786s.707.276,1.123.276c.359,0,.688-.076.983-.229.296-.151.544-.38.744-.684l.876.552c-.248.44-.598.778-1.05,1.014-.452.236-.966.354-1.542.354-.648,0-1.227-.141-1.734-.42Z" fill="#000" stroke-width="0"/>
    <path d="M324.345,41.113h-5.16c.072.56.318,1.01.738,1.35.42.341.941.511,1.565.511.76,0,1.372-.257,1.836-.769l.637.744c-.288.336-.646.592-1.074.768-.428.177-.906.265-1.434.265-.673,0-1.269-.139-1.789-.414-.52-.276-.922-.662-1.205-1.158-.284-.496-.427-1.056-.427-1.68,0-.616.139-1.172.414-1.668.276-.496.656-.883,1.141-1.158.483-.276,1.029-.414,1.638-.414s1.15.138,1.626.414c.476.275.848.662,1.116,1.158.268.496.402,1.063.402,1.704,0,.088-.009.203-.024.348ZM319.839,38.965c-.372.336-.591.776-.654,1.32h4.08c-.064-.536-.282-.974-.654-1.314-.372-.34-.834-.51-1.386-.51s-1.014.168-1.386.504Z" fill="#000" stroke-width="0"/>
    <path d="M334.221,37.898c.488.271.87.651,1.146,1.14.275.488.413,1.052.413,1.692s-.138,1.206-.413,1.697c-.276.492-.658.875-1.146,1.146-.488.272-1.04.408-1.656.408-.472,0-.904-.092-1.296-.276-.392-.184-.716-.452-.972-.804v1.008h-1.104v-8.904h1.152v3.504c.256-.336.576-.59.96-.762s.804-.258,1.26-.258c.616,0,1.168.136,1.656.408ZM333.566,42.692c.324-.188.58-.452.768-.792.188-.34.283-.73.283-1.17s-.095-.83-.283-1.17c-.188-.34-.443-.603-.768-.786-.324-.185-.689-.276-1.098-.276-.4,0-.764.092-1.092.276-.328.184-.584.446-.769.786-.184.34-.276.729-.276,1.17s.093.83.276,1.17c.185.34.44.604.769.792.328.188.691.282,1.092.282.408,0,.773-.095,1.098-.282Z" fill="#000" stroke-width="0"/>
    <path d="M343.101,41.113h-5.16c.072.56.318,1.01.738,1.35.42.341.941.511,1.565.511.76,0,1.372-.257,1.836-.769l.637.744c-.288.336-.646.592-1.074.768-.428.177-.906.265-1.434.265-.673,0-1.269-.139-1.789-.414-.52-.276-.922-.662-1.205-1.158-.284-.496-.427-1.056-.427-1.68,0-.616.139-1.172.414-1.668.276-.496.656-.883,1.141-1.158.483-.276,1.029-.414,1.638-.414s1.15.138,1.626.414c.476.275.848.662,1.116,1.158.268.496.402,1.063.402,1.704,0,.088-.009.203-.024.348ZM338.595,38.965c-.372.336-.591.776-.654,1.32h4.08c-.064-.536-.282-.974-.654-1.314-.372-.34-.834-.51-1.386-.51s-1.014.168-1.386.504Z" fill="#000" stroke-width="0"/>
    <path d="M348.879,38.137c.468.433.701,1.076.701,1.933v3.84h-1.092v-.84c-.191.296-.466.521-.822.678-.355.156-.777.234-1.266.234-.712,0-1.282-.172-1.71-.517-.428-.344-.642-.796-.642-1.355s.203-1.01.611-1.351c.408-.34,1.057-.51,1.944-.51h1.824v-.228c0-.496-.145-.876-.433-1.141-.287-.264-.712-.396-1.271-.396-.376,0-.744.062-1.104.186-.36.124-.665.29-.912.498l-.48-.863c.328-.265.72-.467,1.176-.606s.94-.21,1.452-.21c.88,0,1.554.216,2.022.647ZM347.732,42.799c.32-.195.552-.474.696-.834v-.888h-1.776c-.977,0-1.464.328-1.464.984,0,.319.124.571.372.756.248.184.592.275,1.032.275s.819-.098,1.14-.294Z" fill="#000" stroke-width="0"/>
    <path d="M357.645,37.549v6.36h-1.092v-.96c-.232.328-.539.582-.918.762-.381.181-.795.271-1.242.271-.849,0-1.517-.234-2.004-.702-.488-.468-.732-1.158-.732-2.07v-3.66h1.152v3.528c0,.616.147,1.082.443,1.398.296.315.721.474,1.272.474.607,0,1.088-.184,1.44-.552.352-.368.527-.889.527-1.561v-3.288h1.152Z" fill="#000" stroke-width="0"/>
    <path d="M363.416,43.537c-.168.145-.376.254-.624.33s-.504.114-.769.114c-.64,0-1.136-.172-1.487-.517-.353-.344-.528-.836-.528-1.476v-3.492h-1.08v-.948h1.08v-1.392h1.152v1.392h1.824v.948h-1.824v3.444c0,.344.086.607.258.792.172.184.418.275.738.275.352,0,.652-.1.9-.3l.359.828Z" fill="#000" stroke-width="0"/>
    <path d="M370.316,41.113h-5.16c.072.56.318,1.01.738,1.35.42.341.941.511,1.565.511.76,0,1.372-.257,1.836-.769l.636.744c-.287.336-.646.592-1.074.768-.428.177-.905.265-1.434.265-.672,0-1.268-.139-1.788-.414-.52-.276-.922-.662-1.206-1.158-.283-.496-.426-1.056-.426-1.68,0-.616.139-1.172.414-1.668.276-.496.656-.883,1.141-1.158.483-.276,1.029-.414,1.638-.414s1.149.138,1.626.414c.476.275.848.662,1.115,1.158.269.496.402,1.063.402,1.704,0,.088-.008.203-.023.348ZM365.811,38.965c-.373.336-.591.776-.654,1.32h4.08c-.064-.536-.282-.974-.654-1.314-.372-.34-.834-.51-1.386-.51s-1.015.168-1.386.504ZM367.916,35.066h1.464l-2.016,1.56h-1.08l1.632-1.56Z" fill="#000" stroke-width="0"/>
    <path d="M249.657,79.909l-1.716-2.46c-.072.008-.18.012-.324.012h-1.896v2.448h-1.56v-8.4h3.456c.728,0,1.362.12,1.902.36.54.24.954.584,1.242,1.032s.432.979.432,1.596c0,.632-.154,1.176-.462,1.632-.309.456-.75.797-1.326,1.021l1.932,2.76h-1.68ZM249.093,73.261c-.352-.287-.868-.432-1.548-.432h-1.824v3.348h1.824c.68,0,1.196-.146,1.548-.438s.528-.706.528-1.242-.176-.948-.528-1.236Z" fill="#000" stroke-width="0"/>
    <path d="M259.065,71.005v8.904h-1.44v-.828c-.248.305-.554.532-.918.685-.364.151-.766.228-1.206.228-.616,0-1.17-.136-1.662-.408-.492-.271-.878-.658-1.158-1.158-.28-.499-.42-1.073-.42-1.722s.14-1.22.42-1.716.666-.88,1.158-1.152c.492-.271,1.046-.408,1.662-.408.424,0,.812.072,1.164.217.352.144.652.359.9.647v-3.288h1.5ZM256.653,78.463c.288-.164.516-.397.684-.702.168-.304.252-.655.252-1.056s-.084-.752-.252-1.056-.396-.538-.684-.702-.612-.246-.972-.246-.684.082-.972.246-.516.398-.684.702-.252.656-.252,1.056.084.752.252,1.056c.168.305.396.538.684.702s.612.246.972.246.684-.082.972-.246Z" fill="#000" stroke-width="0"/>
    <path d="M267.033,73.501l-2.748,6.408h-1.548l-2.748-6.408h1.56l1.992,4.752,2.052-4.752h1.44Z" fill="#000" stroke-width="0"/>
    <path d="M271.736,79.789c-.496-.136-.892-.308-1.188-.516l.576-1.141c.287.192.634.347,1.037.462.404.116.803.175,1.194.175.896,0,1.345-.236,1.345-.708,0-.225-.114-.38-.343-.469-.228-.088-.594-.172-1.098-.252-.528-.079-.958-.172-1.29-.275-.332-.104-.62-.286-.864-.546s-.366-.622-.366-1.086c0-.608.254-1.095.763-1.458.508-.364,1.193-.547,2.058-.547.439,0,.88.051,1.32.15.439.101.8.234,1.08.402l-.576,1.14c-.544-.319-1.156-.479-1.836-.479-.44,0-.774.065-1.002.197-.229.132-.342.307-.342.522,0,.24.121.41.365.51.244.101.622.194,1.135.282.512.08.932.172,1.26.275.328.104.609.28.846.528s.354.601.354,1.056c0,.601-.26,1.08-.779,1.44-.521.36-1.229.54-2.124.54-.521,0-1.028-.068-1.524-.204Z" fill="#000" stroke-width="0"/>
    <path d="M283.664,73.501v6.408h-1.428v-.816c-.24.288-.54.511-.899.666-.36.156-.749.234-1.164.234-.856,0-1.53-.238-2.022-.714s-.738-1.182-.738-2.118v-3.66h1.5v3.456c0,.576.131,1.006.391,1.29s.63.426,1.109.426c.536,0,.963-.166,1.278-.498.316-.331.474-.81.474-1.434v-3.24h1.5Z" fill="#000" stroke-width="0"/>
    <path d="M289.341,73.429v1.429c-.128-.024-.244-.036-.349-.036-.584,0-1.039.17-1.367.51s-.492.83-.492,1.47v3.108h-1.5v-6.408h1.428v.937c.432-.672,1.192-1.009,2.28-1.009Z" fill="#000" stroke-width="0"/>
    <path d="M299.486,71.869c.54.24.954.584,1.242,1.032s.432.979.432,1.596c0,.608-.144,1.139-.432,1.59-.288.452-.702.798-1.242,1.038s-1.174.36-1.902.36h-1.896v2.424h-1.56v-8.4h3.455c.729,0,1.362.12,1.902.36ZM299.061,75.734c.352-.288.527-.7.527-1.236s-.176-.948-.527-1.236c-.353-.287-.868-.432-1.548-.432h-1.824v3.336h1.824c.68,0,1.195-.144,1.548-.432Z" fill="#000" stroke-width="0"/>
    <path d="M302.696,71.005h1.5v8.904h-1.5v-8.904Z" fill="#000" stroke-width="0"/>
    <path d="M310.778,74.108c.5.452.75,1.134.75,2.046v3.756h-1.416v-.78c-.185.28-.446.494-.786.643-.34.147-.75.222-1.23.222s-.899-.082-1.26-.246c-.359-.164-.638-.392-.834-.684-.195-.292-.294-.622-.294-.99,0-.576.214-1.038.642-1.386.429-.349,1.103-.522,2.022-.522h1.656v-.096c0-.448-.134-.792-.402-1.032-.268-.24-.666-.36-1.194-.36-.359,0-.713.057-1.062.168-.348.112-.642.269-.882.469l-.588-1.093c.336-.256.74-.451,1.212-.588.472-.136.972-.204,1.5-.204.944,0,1.666.227,2.166.679ZM309.41,78.644c.292-.172.498-.418.618-.738v-.744h-1.548c-.864,0-1.297.284-1.297.852,0,.272.108.488.324.648.217.16.517.24.9.24.376,0,.71-.086,1.002-.258Z" fill="#000" stroke-width="0"/>
    <path d="M319.028,74.137c.487.473.731,1.173.731,2.101v3.672h-1.5v-3.48c0-.56-.131-.981-.396-1.266-.264-.284-.64-.426-1.128-.426-.552,0-.988.166-1.308.498-.32.332-.48.81-.48,1.434v3.24h-1.5v-6.408h1.429v.828c.247-.296.56-.52.936-.672s.8-.229,1.271-.229c.809,0,1.456.236,1.944.708Z" fill="#000" stroke-width="0"/>
    <path d="M321.74,72.188c-.185-.172-.276-.386-.276-.643s.092-.47.276-.642c.184-.172.412-.258.684-.258s.5.082.685.246c.184.164.275.37.275.617,0,.265-.09.486-.27.666-.181.181-.41.271-.69.271-.271,0-.5-.086-.684-.258ZM321.668,73.501h1.5v6.408h-1.5v-6.408Z" fill="#000" stroke-width="0"/>
    <path d="M328.988,79.562c-.176.144-.391.252-.643.323-.252.072-.518.108-.798.108-.704,0-1.248-.184-1.632-.552s-.576-.904-.576-1.608v-3.084h-1.056v-1.2h1.056v-1.464h1.5v1.464h1.717v1.2h-1.717v3.048c0,.312.076.551.229.714.151.164.372.246.66.246.336,0,.615-.088.84-.264l.42,1.068Z" fill="#000" stroke-width="0"/>
    <path d="M336.104,73.501l-3,6.924c-.279.696-.619,1.187-1.02,1.471-.4.283-.884.426-1.452.426-.319,0-.636-.052-.948-.156-.312-.104-.567-.248-.768-.432l.6-1.104c.145.136.314.244.511.324s.394.12.594.12c.264,0,.481-.068.654-.204.172-.136.329-.364.474-.684l.108-.252-2.796-6.433h1.56l2.017,4.74,2.027-4.74h1.439Z" fill="#000" stroke-width="0"/>
    <path d="M248.715,93.121c.437.208.778.506,1.026.895.248.388.372.834.372,1.338,0,.527-.13.992-.39,1.392-.26.4-.616.71-1.068.93-.452.221-.958.33-1.518.33-1.128,0-1.998-.363-2.61-1.092-.612-.728-.918-1.76-.918-3.096,0-.937.166-1.734.498-2.395.332-.66.796-1.159,1.392-1.5.596-.34,1.29-.51,2.082-.51.408,0,.792.042,1.152.126.36.084.672.206.936.366l-.456.936c-.4-.264-.936-.396-1.607-.396-.872,0-1.557.27-2.052.81-.496.54-.744,1.326-.744,2.358,0,.128.004.228.012.3.24-.36.57-.634.99-.822.42-.188.894-.281,1.422-.281.552,0,1.046.104,1.481.312ZM248.433,96.589c.344-.296.516-.691.516-1.188s-.174-.89-.522-1.183c-.348-.292-.814-.438-1.398-.438-.376,0-.71.072-1.002.216-.292.145-.521.34-.684.588-.164.248-.246.524-.246.828,0,.296.078.566.234.811.156.244.384.439.684.588.3.147.658.222,1.074.222.552,0,1-.148,1.344-.444Z" fill="#000" stroke-width="0"/>
    <path d="M260.769,90.289c.624.521.936,1.236.936,2.148s-.312,1.628-.936,2.147c-.624.521-1.48.78-2.568.78h-2.076v2.544h-1.2v-8.4h3.276c1.088,0,1.944.261,2.568.78ZM259.905,93.835c.399-.324.6-.79.6-1.397s-.2-1.074-.6-1.398c-.4-.324-.98-.486-1.74-.486h-2.04v3.769h2.04c.76,0,1.34-.162,1.74-.486Z" fill="#000" stroke-width="0"/>
    <path d="M263.421,89.005h1.151v8.904h-1.151v-8.904Z" fill="#000" stroke-width="0"/>
    <path d="M266.469,97.747c-.16-.156-.24-.354-.24-.594,0-.232.08-.426.24-.582s.352-.234.576-.234.412.076.563.229c.152.151.229.348.229.588s-.078.438-.234.594c-.155.156-.342.234-.558.234-.225,0-.416-.078-.576-.234Z" fill="#000" stroke-width="0"/>
    <path d="M273.507,97.711c-.588-.195-1.05-.45-1.386-.762l.443-.937c.32.288.73.522,1.23.702.5.181,1.014.271,1.542.271.696,0,1.216-.118,1.56-.354.344-.235.516-.55.516-.941,0-.288-.094-.522-.281-.702-.188-.18-.42-.318-.696-.414s-.666-.204-1.17-.324c-.632-.151-1.142-.304-1.53-.456-.388-.151-.72-.386-.996-.702-.275-.315-.414-.741-.414-1.277,0-.448.118-.853.354-1.212.235-.36.594-.648,1.074-.864.479-.216,1.075-.324,1.788-.324.496,0,.983.064,1.464.192.479.128.892.312,1.235.552l-.396.96c-.353-.224-.728-.394-1.128-.51s-.792-.174-1.176-.174c-.681,0-1.19.124-1.53.372s-.51.567-.51.96c0,.287.096.521.288.701.191.181.43.32.714.42.284.101.67.206,1.157.318.633.152,1.141.305,1.524.456.384.152.714.384.99.696.276.312.414.731.414,1.26,0,.44-.12.842-.36,1.206s-.604.652-1.092.864-1.088.317-1.8.317c-.632,0-1.242-.098-1.83-.294Z" fill="#000" stroke-width="0"/>
    <path d="M284.511,92.137c.468.433.702,1.076.702,1.933v3.84h-1.092v-.84c-.192.296-.467.521-.822.678-.356.156-.778.234-1.267.234-.712,0-1.282-.172-1.71-.517-.428-.344-.642-.796-.642-1.355s.204-1.01.612-1.351c.408-.34,1.056-.51,1.943-.51h1.824v-.228c0-.496-.145-.876-.432-1.141-.288-.264-.713-.396-1.272-.396-.376,0-.744.062-1.104.186-.36.124-.665.29-.912.498l-.48-.863c.328-.265.72-.467,1.177-.606.455-.14.939-.21,1.451-.21.88,0,1.555.216,2.022.647ZM283.364,96.799c.32-.195.552-.474.696-.834v-.888h-1.775c-.977,0-1.465.328-1.465.984,0,.319.124.571.372.756.248.184.592.275,1.032.275s.82-.098,1.14-.294Z" fill="#000" stroke-width="0"/>
    <path d="M287.366,90.11c-.147-.145-.222-.32-.222-.528s.074-.386.222-.534c.148-.147.334-.222.558-.222s.41.07.559.21.222.314.222.522c0,.216-.073.397-.222.546-.148.147-.334.222-.559.222s-.409-.072-.558-.216ZM287.349,91.549h1.151v6.36h-1.151v-6.36Z" fill="#000" stroke-width="0"/>
    <path d="M296.019,92.192c.476.468.714,1.154.714,2.058v3.66h-1.152v-3.528c0-.615-.148-1.08-.443-1.392-.297-.312-.721-.468-1.272-.468-.624,0-1.116.182-1.476.546-.36.364-.541.886-.541,1.565v3.276h-1.151v-6.36h1.104v.96c.231-.327.545-.579.941-.756.396-.176.846-.264,1.35-.264.809,0,1.45.234,1.927.702Z" fill="#000" stroke-width="0"/>
    <path d="M302.444,97.537c-.168.145-.376.254-.624.33s-.504.114-.768.114c-.641,0-1.137-.172-1.488-.517-.353-.344-.528-.836-.528-1.476v-3.492h-1.08v-.948h1.08v-1.392h1.152v1.392h1.824v.948h-1.824v3.444c0,.344.086.607.258.792.172.184.418.275.738.275.352,0,.651-.1.899-.3l.36.828Z" fill="#000" stroke-width="0"/>
    <path d="M315.021,97.909l-.013-6.12-3.035,5.101h-.553l-3.035-5.064v6.084h-1.152v-8.4h.983l3.505,5.904,3.455-5.904h.984l.012,8.4h-1.151Z" fill="#000" stroke-width="0"/>
    <path d="M322.861,92.137c.469.433.703,1.076.703,1.933v3.84h-1.093v-.84c-.192.296-.466.521-.821.678-.356.156-.778.234-1.267.234-.712,0-1.282-.172-1.71-.517-.428-.344-.642-.796-.642-1.355s.204-1.01.611-1.351c.408-.34,1.057-.51,1.944-.51h1.824v-.228c0-.496-.145-.876-.432-1.141-.289-.264-.713-.396-1.272-.396-.376,0-.744.062-1.104.186-.359.124-.664.29-.912.498l-.479-.863c.328-.265.72-.467,1.176-.606s.94-.21,1.452-.21c.88,0,1.554.216,2.021.647ZM321.716,96.799c.319-.195.552-.474.696-.834v-.888h-1.776c-.976,0-1.464.328-1.464.984,0,.319.124.571.372.756.248.184.592.275,1.032.275s.819-.098,1.14-.294Z" fill="#000" stroke-width="0"/>
    <path d="M327.691,91.778c.393-.192.868-.288,1.429-.288v1.116c-.064-.008-.152-.013-.265-.013-.623,0-1.113.187-1.47.559s-.534.902-.534,1.59v3.168h-1.151v-6.36h1.104v1.068c.2-.368.496-.648.888-.84Z" fill="#000" stroke-width="0"/>
    <path d="M334.375,97.537c-.168.145-.375.254-.623.33s-.504.114-.769.114c-.64,0-1.136-.172-1.487-.517-.353-.344-.528-.836-.528-1.476v-3.492h-1.08v-.948h1.08v-1.392h1.151v1.392h1.824v.948h-1.824v3.444c0,.344.086.607.258.792.173.184.418.275.738.275.353,0,.652-.1.9-.3l.359.828Z" fill="#000" stroke-width="0"/>
    <path d="M335.785,90.11c-.147-.145-.222-.32-.222-.528s.074-.386.222-.534c.148-.147.334-.222.559-.222s.41.07.558.21c.148.14.222.314.222.522,0,.216-.073.397-.222.546-.147.147-.334.222-.558.222s-.41-.072-.559-.216ZM335.768,91.549h1.152v6.36h-1.152v-6.36Z" fill="#000" stroke-width="0"/>
    <path d="M344.438,92.192c.476.468.714,1.154.714,2.058v3.66h-1.151v-3.528c0-.615-.148-1.08-.444-1.392-.296-.312-.72-.468-1.272-.468-.624,0-1.115.182-1.476.546s-.54.886-.54,1.565v3.276h-1.152v-6.36h1.104v.96c.231-.327.546-.579.941-.756.396-.176.847-.264,1.351-.264.808,0,1.449.234,1.926.702Z" fill="#000" stroke-width="0"/>
    <path d="M348.133,96.571c.148.156.223.35.223.582,0,.12-.014.236-.042.348-.028.112-.082.284-.162.517l-.563,1.668h-.757l.444-1.788c-.152-.057-.274-.15-.366-.282s-.138-.286-.138-.462c0-.24.076-.437.228-.588.152-.152.345-.229.576-.229.224,0,.41.078.558.234Z" fill="#000" stroke-width="0"/>
    <path d="M360.031,95.845h-1.596v2.064h-1.164v-2.064h-4.668v-.84l4.296-5.496h1.296l-4.116,5.305h3.228v-1.824h1.129v1.824h1.596v1.031Z" fill="#000" stroke-width="0"/>
    <path d="M368.059,95.845h-1.596v2.064h-1.164v-2.064h-4.668v-.84l4.296-5.496h1.296l-4.115,5.305h3.228v-1.824h1.128v1.824h1.596v1.031Z" fill="#000" stroke-width="0"/>
    <path d="M375.139,94.297c.256.345.385.756.385,1.236,0,.504-.137.942-.408,1.314-.272.371-.66.657-1.164.857s-1.096.3-1.776.3c-.672,0-1.258-.1-1.758-.3s-.886-.486-1.158-.857c-.272-.372-.407-.811-.407-1.314,0-.48.125-.892.377-1.236.252-.344.618-.607,1.099-.792-.384-.184-.677-.428-.876-.731-.2-.304-.301-.664-.301-1.08,0-.464.127-.868.379-1.212s.605-.608,1.062-.792c.456-.185.984-.276,1.584-.276.608,0,1.142.092,1.603.276.459.184.815.448,1.067.792s.378.748.378,1.212c0,.408-.102.766-.306,1.074-.204.308-.498.554-.882.737.479.185.848.448,1.104.792ZM373.747,96.619c.384-.276.576-.649.576-1.122,0-.464-.192-.83-.576-1.098-.384-.269-.908-.402-1.572-.402s-1.184.134-1.56.402c-.377.268-.564.634-.564,1.098,0,.473.188.846.564,1.122.376.276.896.414,1.56.414s1.188-.138,1.572-.414ZM370.831,90.751c-.328.244-.492.574-.492.99s.162.744.486.984c.323.239.773.359,1.35.359.584,0,1.042-.12,1.374-.359.332-.24.498-.568.498-.984s-.17-.746-.51-.99-.794-.366-1.362-.366-1.016.122-1.344.366Z" fill="#000" stroke-width="0"/>
    <path d="M381.732,93.121c.437.208.778.506,1.026.895.248.388.372.834.372,1.338,0,.527-.13.992-.391,1.392-.26.4-.615.71-1.067.93-.452.221-.958.33-1.519.33-1.127,0-1.998-.363-2.609-1.092-.612-.728-.918-1.76-.918-3.096,0-.937.166-1.734.498-2.395s.796-1.159,1.392-1.5c.596-.34,1.29-.51,2.082-.51.408,0,.792.042,1.152.126s.672.206.936.366l-.456.936c-.4-.264-.936-.396-1.607-.396-.872,0-1.557.27-2.053.81s-.744,1.326-.744,2.358c0,.128.005.228.013.3.24-.36.569-.634.99-.822.42-.188.894-.281,1.422-.281.552,0,1.046.104,1.481.312ZM381.451,96.589c.344-.296.516-.691.516-1.188s-.174-.89-.521-1.183c-.349-.292-.814-.438-1.398-.438-.376,0-.71.072-1.002.216-.292.145-.521.34-.684.588-.164.248-.246.524-.246.828,0,.296.078.566.233.811.156.244.384.439.685.588.3.147.657.222,1.073.222.552,0,1-.148,1.345-.444Z" fill="#000" stroke-width="0"/>
    <path d="M385.693,97.495c-.517-.34-.923-.834-1.219-1.482-.296-.647-.443-1.415-.443-2.304s.147-1.656.443-2.304c.296-.648.702-1.142,1.219-1.482.516-.34,1.105-.51,1.77-.51.656,0,1.242.17,1.758.51.516.341.922.834,1.218,1.482.296.647.444,1.416.444,2.304s-.148,1.656-.444,2.304c-.296.648-.702,1.143-1.218,1.482s-1.102.51-1.758.51c-.664,0-1.254-.17-1.77-.51ZM389.077,96.11c.403-.552.605-1.353.605-2.4s-.202-1.848-.605-2.399c-.404-.553-.942-.828-1.614-.828-.68,0-1.223.275-1.626.828-.404.552-.606,1.352-.606,2.399s.202,1.849.606,2.4c.403.552.946.828,1.626.828.672,0,1.21-.276,1.614-.828Z" fill="#000" stroke-width="0"/>
    <path d="M250.137,108.289c.624.521.936,1.236.936,2.148s-.312,1.628-.936,2.147c-.624.521-1.48.78-2.568.78h-2.076v2.544h-1.2v-8.4h3.276c1.088,0,1.944.261,2.568.78ZM249.273,111.835c.399-.324.6-.79.6-1.397s-.2-1.074-.6-1.398c-.4-.324-.98-.486-1.74-.486h-2.04v3.769h2.04c.76,0,1.34-.162,1.74-.486Z" fill="#000" stroke-width="0"/>
    <path d="M253.665,115.562c-.504-.28-.898-.666-1.182-1.158-.284-.492-.426-1.05-.426-1.674s.142-1.183.426-1.674c.284-.492.678-.877,1.182-1.152.504-.276,1.072-.414,1.704-.414s1.198.138,1.698.414c.5.275.892.66,1.176,1.152.284.491.426,1.05.426,1.674s-.142,1.182-.426,1.674-.676.878-1.176,1.158c-.5.279-1.066.42-1.698.42s-1.2-.141-1.704-.42ZM256.467,114.692c.324-.188.578-.452.762-.792.184-.34.275-.73.275-1.17s-.092-.83-.275-1.17c-.185-.34-.438-.603-.762-.786-.324-.185-.69-.276-1.098-.276s-.774.092-1.098.276c-.324.184-.58.446-.769.786-.188.34-.282.729-.282,1.17s.094.83.282,1.17c.188.34.444.604.769.792.324.188.689.282,1.098.282s.774-.095,1.098-.282Z" fill="#000" stroke-width="0"/>
    <path d="M265.587,110.192c.476.468.714,1.154.714,2.058v3.66h-1.151v-3.528c0-.615-.148-1.08-.444-1.392-.296-.312-.72-.468-1.271-.468-.625,0-1.116.182-1.477.546-.36.364-.54.886-.54,1.565v3.276h-1.152v-6.36h1.104v.96c.232-.327.546-.579.941-.756.396-.176.847-.264,1.351-.264.808,0,1.45.234,1.926.702Z" fill="#000" stroke-width="0"/>
    <path d="M272.013,115.537c-.168.145-.376.254-.624.33s-.504.114-.768.114c-.641,0-1.137-.172-1.488-.517-.352-.344-.527-.836-.527-1.476v-3.492h-1.08v-.948h1.08v-1.392h1.151v1.392h1.824v.948h-1.824v3.444c0,.344.086.607.258.792.173.184.418.275.738.275.353,0,.652-.1.9-.3l.359.828Z" fill="#000" stroke-width="0"/>
    <path d="M277.419,115.711c-.588-.195-1.05-.45-1.386-.762l.443-.937c.32.288.73.522,1.23.702.5.181,1.014.271,1.542.271.696,0,1.216-.118,1.56-.354.344-.235.516-.55.516-.941,0-.288-.094-.522-.281-.702-.188-.18-.42-.318-.696-.414s-.666-.204-1.17-.324c-.632-.151-1.142-.304-1.53-.456-.388-.151-.72-.386-.996-.702-.275-.315-.414-.741-.414-1.277,0-.448.118-.853.354-1.212.235-.36.594-.648,1.074-.864.479-.216,1.075-.324,1.788-.324.496,0,.983.064,1.464.192.479.128.892.312,1.235.552l-.396.96c-.353-.224-.728-.394-1.128-.51s-.792-.174-1.176-.174c-.681,0-1.19.124-1.53.372s-.51.567-.51.96c0,.287.096.521.288.701.191.181.43.32.714.42.284.101.67.206,1.157.318.633.152,1.141.305,1.524.456.384.152.714.384.99.696.276.312.414.731.414,1.26,0,.44-.12.842-.36,1.206s-.604.652-1.092.864-1.088.317-1.8.317c-.632,0-1.242-.098-1.83-.294Z" fill="#000" stroke-width="0"/>
    <path d="M288.423,110.137c.468.433.702,1.076.702,1.933v3.84h-1.092v-.84c-.192.296-.467.521-.822.678-.356.156-.778.234-1.267.234-.712,0-1.282-.172-1.71-.517-.428-.344-.642-.796-.642-1.355s.204-1.01.612-1.351c.408-.34,1.056-.51,1.943-.51h1.824v-.228c0-.496-.145-.876-.432-1.141-.288-.264-.713-.396-1.272-.396-.376,0-.744.062-1.104.186-.36.124-.665.29-.912.498l-.48-.863c.328-.265.72-.467,1.177-.606.455-.14.939-.21,1.451-.21.88,0,1.555.216,2.022.647ZM287.276,114.799c.32-.195.552-.474.696-.834v-.888h-1.775c-.977,0-1.465.328-1.465.984,0,.319.124.571.372.756.248.184.592.275,1.032.275s.82-.098,1.14-.294Z" fill="#000" stroke-width="0"/>
    <path d="M291.278,108.11c-.147-.145-.222-.32-.222-.528s.074-.386.222-.534c.148-.147.334-.222.558-.222s.41.07.559.21.222.314.222.522c0,.216-.073.397-.222.546-.148.147-.334.222-.559.222s-.409-.072-.558-.216ZM291.261,109.549h1.151v6.36h-1.151v-6.36Z" fill="#000" stroke-width="0"/>
    <path d="M299.931,110.192c.476.468.714,1.154.714,2.058v3.66h-1.152v-3.528c0-.615-.147-1.08-.443-1.392-.297-.312-.721-.468-1.272-.468-.624,0-1.116.182-1.476.546-.36.364-.54.886-.54,1.565v3.276h-1.152v-6.36h1.104v.96c.231-.327.546-.579.941-.756.396-.176.846-.264,1.351-.264.808,0,1.45.234,1.926.702Z" fill="#000" stroke-width="0"/>
    <path d="M306.356,115.537c-.168.145-.376.254-.624.33s-.504.114-.768.114c-.641,0-1.137-.172-1.488-.517-.353-.344-.528-.836-.528-1.476v-3.492h-1.08v-.948h1.08v-1.392h1.152v1.392h1.824v.948h-1.824v3.444c0,.344.086.607.258.792.172.184.418.275.738.275.352,0,.651-.1.899-.3l.36.828Z" fill="#000" stroke-width="0"/>
    <path d="M318.933,115.909l-.013-6.12-3.035,5.101h-.553l-3.035-5.064v6.084h-1.152v-8.4h.983l3.505,5.904,3.455-5.904h.984l.012,8.4h-1.151Z" fill="#000" stroke-width="0"/>
    <path d="M326.774,110.137c.468.433.702,1.076.702,1.933v3.84h-1.092v-.84c-.192.296-.467.521-.822.678-.356.156-.778.234-1.267.234-.712,0-1.282-.172-1.71-.517-.428-.344-.642-.796-.642-1.355s.204-1.01.612-1.351c.408-.34,1.056-.51,1.943-.51h1.824v-.228c0-.496-.145-.876-.432-1.141-.288-.264-.713-.396-1.272-.396-.376,0-.744.062-1.104.186-.36.124-.665.29-.912.498l-.48-.863c.328-.265.72-.467,1.177-.606.455-.14.939-.21,1.451-.21.88,0,1.555.216,2.022.647ZM325.628,114.799c.32-.195.552-.474.696-.834v-.888h-1.775c-.977,0-1.465.328-1.465.984,0,.319.124.571.372.756.248.184.592.275,1.032.275s.82-.098,1.14-.294Z" fill="#000" stroke-width="0"/>
    <path d="M331.604,109.778c.393-.192.868-.288,1.429-.288v1.116c-.064-.008-.152-.013-.265-.013-.623,0-1.113.187-1.47.559s-.534.902-.534,1.59v3.168h-1.151v-6.36h1.104v1.068c.2-.368.496-.648.888-.84Z" fill="#000" stroke-width="0"/>
    <path d="M338.288,115.537c-.168.145-.376.254-.624.33s-.504.114-.769.114c-.64,0-1.136-.172-1.487-.517-.353-.344-.528-.836-.528-1.476v-3.492h-1.08v-.948h1.08v-1.392h1.152v1.392h1.823v.948h-1.823v3.444c0,.344.085.607.258.792.172.184.418.275.737.275.353,0,.652-.1.9-.3l.36.828Z" fill="#000" stroke-width="0"/>
    <path d="M339.697,108.11c-.147-.145-.222-.32-.222-.528s.074-.386.222-.534c.148-.147.334-.222.559-.222s.41.07.558.21c.148.14.222.314.222.522,0,.216-.073.397-.222.546-.147.147-.334.222-.558.222s-.41-.072-.559-.216ZM339.68,109.549h1.152v6.36h-1.152v-6.36Z" fill="#000" stroke-width="0"/>
    <path d="M348.35,110.192c.476.468.714,1.154.714,2.058v3.66h-1.151v-3.528c0-.615-.148-1.08-.444-1.392-.296-.312-.72-.468-1.272-.468-.624,0-1.115.182-1.476.546s-.54.886-.54,1.565v3.276h-1.152v-6.36h1.104v.96c.231-.327.546-.579.941-.756.396-.176.847-.264,1.351-.264.808,0,1.449.234,1.926.702Z" fill="#000" stroke-width="0"/>
    <path d="M245.265,133.52c-.528-.34-.944-.836-1.248-1.488s-.456-1.426-.456-2.322.151-1.67.456-2.322c.304-.651.72-1.147,1.248-1.487s1.128-.51,1.8-.51,1.273.17,1.806.51.95.836,1.254,1.487c.304.652.456,1.427.456,2.322s-.152,1.67-.456,2.322c-.304.652-.722,1.148-1.254,1.488s-1.134.51-1.806.51-1.272-.17-1.8-.51ZM248.487,131.929c.348-.495.522-1.235.522-2.22s-.174-1.724-.522-2.22c-.348-.496-.822-.744-1.422-.744-.592,0-1.062.248-1.41.744-.348.496-.522,1.236-.522,2.22s.174,1.725.522,2.22c.348.497.818.744,1.41.744.6,0,1.074-.247,1.422-.744Z" fill="#000" stroke-width="0"/>
    <path d="M257.661,132.589v1.32h-6.192v-1.044l3.336-3.168c.375-.36.63-.674.762-.942.132-.268.198-.534.198-.798,0-.392-.132-.691-.396-.899-.264-.208-.652-.312-1.164-.312-.856,0-1.512.292-1.968.876l-1.092-.84c.328-.44.77-.782,1.326-1.026.556-.243,1.178-.365,1.866-.365.912,0,1.64.216,2.184.647s.816,1.021.816,1.764c0,.456-.096.885-.288,1.284-.192.4-.56.856-1.104,1.368l-2.244,2.136h3.96Z" fill="#000" stroke-width="0"/>
    <path d="M269.361,132.001h-1.488v1.908h-1.512v-1.908h-4.608v-1.08l4.14-5.412h1.668l-3.9,5.173h2.748v-1.692h1.465v1.692h1.488v1.319Z" fill="#000" stroke-width="0"/>
    <path d="M271.725,133.52c-.527-.34-.944-.836-1.248-1.488s-.456-1.426-.456-2.322.152-1.67.456-2.322c.304-.651.721-1.147,1.248-1.487.528-.34,1.128-.51,1.8-.51s1.274.17,1.806.51c.532.34.95.836,1.255,1.487.304.652.456,1.427.456,2.322s-.152,1.67-.456,2.322c-.305.652-.723,1.148-1.255,1.488-.531.34-1.133.51-1.806.51s-1.271-.17-1.8-.51ZM274.947,131.929c.348-.495.521-1.235.521-2.22s-.174-1.724-.521-2.22c-.349-.496-.822-.744-1.423-.744-.592,0-1.062.248-1.409.744-.349.496-.522,1.236-.522,2.22s.174,1.725.522,2.22c.348.497.817.744,1.409.744.601,0,1.074-.247,1.423-.744Z" fill="#000" stroke-width="0"/>
    <path d="M286.76,129.77c.408.432.612.972.612,1.62,0,.487-.124.932-.372,1.331-.248.4-.622.719-1.121.954-.5.236-1.11.354-1.83.354-.601,0-1.179-.086-1.734-.258-.557-.172-1.03-.41-1.422-.714l.672-1.213c.304.257.674.459,1.109.606.437.148.887.222,1.351.222.552,0,.985-.113,1.302-.342.316-.228.475-.538.475-.93s-.15-.698-.45-.918-.759-.33-1.374-.33h-.769v-1.068l1.908-2.268h-3.815v-1.309h5.724v1.044l-2.04,2.425c.775.096,1.368.359,1.775.792Z" fill="#000" stroke-width="0"/>
    <path d="M294.416,132.589v1.32h-6.191v-1.044l3.336-3.168c.375-.36.63-.674.762-.942.132-.268.198-.534.198-.798,0-.392-.132-.691-.396-.899-.264-.208-.651-.312-1.164-.312-.856,0-1.512.292-1.968.876l-1.092-.84c.328-.44.77-.782,1.326-1.026.556-.243,1.178-.365,1.865-.365.912,0,1.641.216,2.185.647s.815,1.021.815,1.764c0,.456-.096.885-.287,1.284-.192.4-.561.856-1.104,1.368l-2.244,2.136h3.96Z" fill="#000" stroke-width="0"/>
    <path d="M304.964,125.509v1.044l-3.264,7.356h-1.668l3.155-7.08h-3.299v1.428h-1.453v-2.748h6.528Z" fill="#000" stroke-width="0"/>
    <path d="M312.008,132.589v1.32h-6.192v-1.044l3.337-3.168c.375-.36.629-.674.762-.942.132-.268.197-.534.197-.798,0-.392-.132-.691-.396-.899-.265-.208-.652-.312-1.164-.312-.856,0-1.512.292-1.968.876l-1.092-.84c.327-.44.77-.782,1.326-1.026.556-.243,1.178-.365,1.865-.365.912,0,1.641.216,2.184.647.545.432.816,1.021.816,1.764,0,.456-.096.885-.288,1.284-.191.4-.56.856-1.104,1.368l-2.244,2.136h3.96Z" fill="#000" stroke-width="0"/>
    <path d="M322.556,125.509v1.044l-3.265,7.356h-1.668l3.156-7.08h-3.3v1.428h-1.452v-2.748h6.528Z" fill="#000" stroke-width="0"/>
    <path d="M328.771,129.77c.408.432.611.972.611,1.62,0,.487-.123.932-.371,1.331-.248.4-.623.719-1.122.954-.5.236-1.11.354-1.83.354-.601,0-1.179-.086-1.734-.258s-1.03-.41-1.422-.714l.672-1.213c.304.257.674.459,1.11.606.436.148.886.222,1.35.222.553,0,.986-.113,1.303-.342.315-.228.474-.538.474-.93s-.15-.698-.45-.918-.758-.33-1.374-.33h-.769v-1.068l1.908-2.268h-3.815v-1.309h5.724v1.044l-2.04,2.425c.776.096,1.368.359,1.776.792Z" fill="#000" stroke-width="0"/>
  </g>
  <rect x="233.478" width="2" height="150" fill="#272824" stroke-width="0"/>
  <g>
    <path d="M73.952,63.294c-.298.754-.777,1.497-1.44,2.228-.526.594-1.292,1.029-2.297,1.303l-1.303.377c-.571.115-.994.172-1.268.172-.709.091-1.611.137-2.708.137h-.925c-1.303,0-2.834-.274-4.594-.822-.983-.298-1.806-.617-2.468-.96-.754-.366-1.474-.812-2.16-1.337-1.508-1.189-2.583-2.628-3.222-4.319-.64-1.714-.96-3.611-.96-5.691,0-2.148.297-4.182.891-6.102.594-1.897,1.543-3.497,2.845-4.799,1.234-1.234,2.571-2.182,4.011-2.845,1.508-.708,5.907-1.063,13.198-1.063.137.503.251.857.343,1.063.091.274.171.492.24.651.045.16.114.32.206.48l1.131,2.023c.434.8.742,1.508.925,2.125l-1.165-.994-1.92-1.68c-1.234-.937-2.525-1.634-3.874-2.091-1.257-.434-2.663-.651-4.216-.651-1.486,0-2.766.206-3.839.617-1.326.503-2.263,1.292-2.811,2.365-.32.526-.56,1.063-.72,1.611-.046.114-.149.469-.308,1.063-.092.252-.171.503-.24.754l-.034.171c-.298,1.211-.446,2.686-.446,4.422,0,.777.091,1.692.274,2.742.183,1.029.434,2.114.754,3.257.777,2.583,1.874,4.651,3.291,6.205,1.691,1.828,3.702,2.743,6.033,2.743,2.308,0,4.159-.411,5.553-1.234,1.44-.845,2.696-2.297,3.771-4.353,0,.823-.183,1.634-.548,2.434Z" fill="#000" stroke-width="0"/>
    <path d="M87.149,59.557c-1.531,1.668-3.257,2.502-5.176,2.502-1.943,0-3.474-.731-4.594-2.194-.96-1.348-1.44-2.994-1.44-4.936,0-2.011.742-3.828,2.228-5.451,1.485-1.622,3.21-2.434,5.176-2.434,1.942,0,3.462.709,4.559,2.125,1.006,1.325,1.508,2.971,1.508,4.936,0,1.943-.754,3.76-2.262,5.451ZM86.258,54.518c-.023-.274-.092-.72-.206-1.337,0-.045-.012-.103-.034-.171-.274-1.28-.674-2.274-1.2-2.982-.732-.937-1.611-1.406-2.64-1.406-.96,0-1.771.469-2.434,1.406-.526.8-.788,1.782-.788,2.948,0,.32.022.846.069,1.577v.103c.022.548.091,1.12.206,1.714.228,1.12.583,2.023,1.063,2.708.686.914,1.577,1.371,2.674,1.371s1.954-.48,2.571-1.44c.526-.868.788-1.839.788-2.914,0-.457-.023-.982-.069-1.577Z" fill="#000" stroke-width="0"/>
    <path d="M98.839,61.271c-.64.526-1.303.788-1.988.788-.709,0-1.257-.262-1.645-.788-.366-.502-.549-4.456-.549-11.861l-.103-.411c-.137-.137-.297-.206-.48-.206-.206,0-.526.137-.96.412l-.925.754c.045-.251.309-.64.788-1.166l1.131-1.028c.274-.206.56-.365.857-.48l.583-.206.137-.034h.548c.251,0,.571.194.96.583.365.389.559.766.583,1.131v.686l.069.377v9.598c.046.32.103.549.172.686.137.206.331.308.583.308.32-.045.674-.228,1.063-.549l.583-.48c-.572.891-1.041,1.52-1.406,1.885ZM97.467,43.651c-.663.526-1.268.788-1.817.788-.64,0-1.063-.309-1.268-.926-.206-.594-.308-1.142-.308-1.645,0-1.531.525-2.297,1.577-2.297,1.119,0,1.839.229,2.159.686.388.458.583,1.006.583,1.645s-.308,1.223-.925,1.749Z" fill="#000" stroke-width="0"/>
    <path d="M113.167,40.737c-.845.343-1.76.514-2.742.514l-2.091-.069c-.914,0-1.371,1.988-1.371,5.965l2.262-.069c.549,0,.994-.069,1.337-.206.343-.114.559-.251.651-.412-.434,1.006-.971,1.703-1.611,2.091-.366.229-.754.4-1.166.514l-.617.103c-.16.023-.446.034-.857.034v14.26c0,1.234-.092,2.422-.274,3.565-.274,1.417-.72,2.548-1.337,3.393-.594.914-1.211,1.588-1.851,2.023-.8.571-2.925.857-6.376.857.411-1.234,1.188-1.953,2.331-2.16l2.914-.274c.937-.274,1.405-7.507,1.405-21.699h-2.365l.892-.96.925-1.028.583-.034v-1.68c0-1.599.388-3.028,1.166-4.285.914-1.462,4.319-2.194,10.215-2.194-.48.823-1.154,1.405-2.023,1.748Z" fill="#000" stroke-width="0"/>
    <path d="M126.467,40.737c-.845.343-1.76.514-2.742.514l-2.091-.069c-.915,0-1.371,1.988-1.371,5.965l2.262-.069c.549,0,.995-.069,1.337-.206.343-.114.56-.251.651-.412-.434,1.006-.972,1.703-1.611,2.091-.366.229-.754.4-1.166.514l-.617.103c-.16.023-.446.034-.857.034v14.26c0,1.234-.092,2.422-.274,3.565-.274,1.417-.72,2.548-1.337,3.393-.594.914-1.211,1.588-1.851,2.023-.8.571-2.925.857-6.376.857.411-1.234,1.188-1.953,2.331-2.16l2.914-.274c.937-.274,1.405-7.507,1.405-21.699h-2.365l.892-.96.925-1.028.583-.034v-1.68c0-1.599.388-3.028,1.166-4.285.913-1.462,4.319-2.194,10.215-2.194-.48.823-1.154,1.405-2.023,1.748Z" fill="#000" stroke-width="0"/>
    <path d="M140.556,59.694l-.857.925-.857.686c-.64.503-1.36.754-2.159.754-.732,0-1.2-.434-1.406-1.302l-.069-2.434-.822.857-.823.754-1.029.857-.925.617c-.777.435-1.542.651-2.297.651-.822,0-1.405-.457-1.748-1.371-.252-.686-.377-4.217-.377-10.593l-.137-.891c-.069-.251-.24-.377-.514-.377-.229,0-.503.069-.823.206l-.788.411c.457-.708.995-1.291,1.611-1.748.662-.457,1.314-.686,1.954-.686.662,0,1.153.297,1.474.891.251.503.377,3.211.377,8.125l.069,2.022c.206.754.525,1.131.96,1.131.457,0,.834-.069,1.131-.206l.685-.445c.32-.251.571-.468.755-.651l.548-.686c.48-.663.72-3.199.72-7.61,0-.731.331-1.359.994-1.885.594-.457,1.303-.686,2.126-.686l-.035,4.422.035,5.21.034,2.64.137.137.24.137.411.034c.411,0,.902-.183,1.474-.549l.651-.48.617-.583-1.337,1.714Z" fill="#000" stroke-width="0"/>
    <path d="M153.65,52.153l-2.365,2.434.069-.137.069-.206c.069-.137.137-.354.206-.651l.069-.96.137-.651c0-.48-.069-.857-.206-1.131-.229-.365-.526-.549-.891-.549-.434,0-1.086.503-1.954,1.508l-.857,1.028-.72,1.029.035,6.376c-.549.503-1.063.891-1.543,1.165-.526.321-1.075.537-1.645.651v-11.347c0-.16-.08-.309-.24-.446s-.343-.217-.548-.24c-.229.023-.503.137-.823.343l-.754.583.617-.925.412-.549,1.405-1.44c.731-.663,1.268-.994,1.611-.994.365,0,.651.115.857.343.206.206.365.514.48.926.069.411.102.766.102,1.063l.035,1.028v2.263l1.577-2.297c.823-1.097,1.485-1.862,1.988-2.297.823-.686,1.577-1.028,2.263-1.028s1.2.229,1.542.686c.389.411.583.972.583,1.68,0,.617-.503,1.531-1.508,2.743Z" fill="#000" stroke-width="0"/>
    <path d="M166.368,60.928c-1.074.709-2.411,1.063-4.011,1.063-1.668,0-2.982-.594-3.942-1.782-.959-1.211-1.44-2.662-1.44-4.354,0-2.377.674-4.41,2.023-6.102,1.44-1.782,2.983-2.674,4.628-2.674,1.599,0,2.81.24,3.633.72.548.297,1.234.88,2.057,1.748l-8.33,8.296c.366.686.926,1.177,1.68,1.474.548.229,1.245.343,2.091.343.434,0,.822-.045,1.166-.137.411-.114.834-.263,1.268-.446.937-.411,1.657-.823,2.16-1.234-.892,1.325-1.886,2.354-2.983,3.085ZM164.414,50.027c-.343-.412-.915-.674-1.714-.788-.846,0-1.508.606-1.989,1.817-.115.32-.24.777-.377,1.371-.092.389-.138.8-.138,1.234,0,.823.035,1.429.103,1.817.022.092.035.171.035.24.022.115.034.194.034.24,0,.092.022.206.069.343,0,.183.08.445.24.788l1.577-1.508.754-.788,1.029-1.166c.251-.32.468-.674.651-1.063.137-.32.206-.651.206-.994,0-.571-.16-1.085-.48-1.543Z" fill="#000" stroke-width="0"/>
    <path d="M40.391,104.875c-.526,1.211-1.28,2.331-2.263,3.359-.983,1.051-2.343,1.794-4.079,2.228-1.257.365-2.971.548-5.142.548-2.057,0-3.851-.183-5.382-.548-.549-.115-1.052-.252-1.508-.411-.572-.206-1.029-.4-1.371-.583-.891-.435-1.703-.915-2.434-1.44-1.006-.732-1.771-1.795-2.297-3.188-.389-1.097-.583-2.308-.583-3.633,0-1.303.114-2.308.343-3.017.343-.937.891-1.634,1.645-2.091-.32.32-.549.731-.686,1.234-.023.229-.057.606-.103,1.131-.046.731-.069,1.36-.069,1.886,0,1.44.857,2.948,2.571,4.525,1.348,1.234,3.313,2.216,5.896,2.948,2.011.571,4.194.857,6.548.857,1.12,0,2.137-.092,3.051-.275.754-.16,1.496-.445,2.228-.857,1.577-.959,2.365-2.285,2.365-3.976,0-1.668-.263-2.96-.788-3.874-.526-.892-1.292-1.531-2.297-1.92-1.189-.526-2.811-1.029-4.868-1.508l-4.936-1.132c-1.074-.274-1.92-.525-2.537-.754-.732-.228-1.486-.525-2.263-.892-1.143-.502-1.977-1.279-2.502-2.331-.503-1.006-.754-2.194-.754-3.565,0-1.829.651-3.439,1.954-4.834,1.257-1.394,6.582-2.091,15.975-2.091,0,.641.24,1.44.72,2.4l1.302,2.365c.502.914.845,1.725,1.029,2.434-1.851-2.217-3.783-3.805-5.794-4.765-2.125-1.028-4.297-1.542-6.513-1.542s-3.886.32-5.005.959c-1.349.801-2.022,2.08-2.022,3.84,0,1.714.891,2.948,2.674,3.702,1.371.526,3.074,1.006,5.108,1.44l5.073,1.063c1.965.503,3.679,1.132,5.142,1.886,1.165.594,2.011,1.44,2.537,2.537.526,1.165.788,2.457.788,3.874,0,1.463-.252,2.799-.754,4.011Z" fill="#000" stroke-width="0"/>
    <path d="M57.496,101.241c-.16.229-.389.492-.685.788-.48.48-.994.812-1.543.995l-.377.069-.377.069c-1.074-.206-1.771-.788-2.091-1.749-.137-.525-.206-1.485-.206-2.88-.389.503-.949,1.075-1.68,1.714-1.006.915-1.783,1.577-2.331,1.989-.321.206-.754.434-1.303.685-.389.159-.766.24-1.131.24-.777,0-1.428-.617-1.954-1.852-.412-1.005-.617-2.502-.617-4.49,0-2.079.8-3.988,2.4-5.725.845-.914,1.839-1.611,2.982-2.091,1.166-.457,2.456-.685,3.874-.685h2.948v12.684c0,.297.159.446.48.446.365-.046.823-.229,1.371-.549l.754-.411-.514.754ZM52.218,89.277c-1.6,0-2.96.606-4.08,1.817-1.097,1.234-1.645,2.48-1.645,3.737,0,1.28.103,2.194.309,2.743.343.8.868,1.2,1.577,1.2s1.428-.194,2.16-.583c.365-.228.925-.64,1.68-1.234v-7.679Z" fill="#000" stroke-width="0"/>
    <path d="M66.512,102.407c-.64.526-1.303.788-1.988.788-.709,0-1.257-.263-1.645-.788-.366-.502-.549-4.457-.549-11.86l-.103-.412c-.137-.137-.297-.206-.48-.206-.206,0-.526.137-.96.411l-.925.755c.045-.251.309-.64.788-1.166l1.131-1.029c.274-.206.56-.365.857-.48l.583-.206.137-.034h.548c.251,0,.571.194.96.582.365.389.559.766.583,1.132v.685l.069.377v9.598c.046.32.103.548.172.685.137.206.331.309.583.309.32-.045.674-.228,1.063-.548l.583-.48c-.572.892-1.041,1.521-1.406,1.886ZM65.141,84.787c-.663.526-1.268.788-1.817.788-.64,0-1.063-.309-1.268-.925-.206-.594-.308-1.143-.308-1.645,0-1.531.525-2.297,1.577-2.297,1.119,0,1.839.229,2.159.685.388.457.583,1.006.583,1.645s-.308,1.223-.925,1.749Z" fill="#000" stroke-width="0"/>
    <path d="M82.006,102.304c-.252.206-.594.423-1.028.651l-.034.035c-.343.137-.686.206-1.028.206-.686,0-1.2-.206-1.543-.617-.343-.389-.514-2.902-.514-7.542v-1.851c0-.457-.069-.857-.206-1.2-.183-.32-.514-.48-.994-.48-.526,0-1.2.514-2.023,1.543l-.651.959-.925,1.406v4.49l-.069,1.508-.069.137c-.366.503-.823.88-1.371,1.131-.389.206-.949.377-1.68.514l.034-4.559v-5.005c0-1.439-.046-2.285-.137-2.536-.092-.069-.217-.114-.377-.137-.229.046-.537.16-.925.343l-.925.583c.686-.869,1.291-1.565,1.817-2.091,1.006-.96,1.714-1.44,2.125-1.44.48,0,.834.149,1.063.446.114.183.228.548.343,1.097l.137,1.816.034,2.194,1.543-2.194.96-1.268c1.257-1.394,2.388-2.091,3.394-2.091s1.646.446,1.92,1.337c.159.412.24,1.28.24,2.606l-.034,4.388v4.182l.137.548c.069.137.217.206.446.206s.549-.137.96-.411l.857-.72c-.389.754-.88,1.36-1.474,1.817Z" fill="#000" stroke-width="0"/>
    <path d="M91.433,101.755c-1.028.96-1.966,1.44-2.811,1.44-.891,0-1.463-.468-1.714-1.405-.137-.48-.206-4.491-.206-12.032l-1.988.034.069-.411.172-.309c.091-.137.457-.423,1.097-.857l1.268-.925c.48-.434.971-1.108,1.474-2.023l.514-1.063.549-1.268v5.347l2.811.035c-.229.389-.526.708-.891.959l-.617.309c-.274.092-.492.149-.651.172h-.274l-.377.034v10.353c0,.183.034.366.103.548.137.137.343.206.617.206s.754-.24,1.44-.72c.251-.114.72-.491,1.405-1.131-.617,1.143-1.28,2.046-1.988,2.708Z" fill="#000" stroke-width="0"/>
    <path d="M141.104,110.531c-1.623,0-3.085-.286-4.388-.857-1.326-.572-2.468-1.44-3.428-2.606-2.011-2.491-3.451-5.336-4.319-8.536-.411-1.462-.743-3.096-.994-4.902-.229-1.599-.343-3.336-.343-5.21l-.617,1.303-.206.514-.171.548-.755,2.434-.822,2.674-.755,2.982-.411,1.749-.274,1.029-.994-2.023-.617-1.474-1.508-4.011-1.234-3.702-.48-1.508-.514-1.474c0,3.016-.503,6.331-1.508,9.941-.982,3.519-2.308,6.662-3.976,9.427-.664,1.166-1.406,2.034-2.228,2.606-.983.777-2.137,1.166-3.462,1.166s-2.457-.755-3.394-2.263c-.731-1.12-1.2-2.559-1.405-4.319.685.822,1.485,1.44,2.4,1.851,1.005.48,2.022.72,3.051.72,1.005,0,1.976-.263,2.914-.788.891-.48,1.668-1.257,2.331-2.331,1.051-1.668,1.965-3.668,2.743-5.999.594-1.988,1.039-4.148,1.337-6.479l.274-2.742.035-1.749v-.994c0-.159-.058-.64-.172-1.44v-.103c-.137-.776-.446-1.405-.925-1.885-.594-.594-1.829-.892-3.702-.892-1.897,0-3.68.663-5.348,1.988-1.806,1.44-2.708,3.085-2.708,4.936,0,1.76.126,3.166.377,4.217.297.982.742,1.885,1.337,2.708l1.234,1.508c.274.32.434.583.48.788-.023.16-.183.332-.48.514-.069.069-.571.229-1.508.48-1.051-.571-1.84-1.622-2.365-3.154-.526-1.554-.788-2.982-.788-4.285,0-2.628.663-4.776,1.988-6.445,1.142-1.462,2.742-2.537,4.799-3.222,2.034-.686,3.919-1.029,5.656-1.029,1.577,0,2.743.16,3.497.48.662.297,1.222.801,1.679,1.508.571.915,1.051,1.897,1.44,2.948.228.617.537,1.657.925,3.12l.514,1.851.377,1.2.274.96.548,1.645.755-2.571c.594-1.92,1.2-3.531,1.816-4.834.96-1.896,2.011-3.359,3.154-4.388,1.417-1.28,2.754-1.92,4.011-1.92s2.205.171,2.845.514c.617.32,1.12.857,1.508,1.611-.32-.411-.823-.765-1.508-1.063-.64-.274-1.463-.411-2.468-.411-.982,0-1.943.708-2.88,2.125-.754,1.257-1.131,2.446-1.131,3.565v.651c0,.069.012.218.035.446l.034.446c0,.32.012.56.035.72.022.115.045.252.069.411.022.16.045.297.069.411l.514,2.4c.251,1.075.617,2.297,1.096,3.668.457,1.28.949,2.434,1.474,3.462.617,1.211,1.234,2.331,1.851,3.359.343.594.697,1.12,1.063,1.577.343.525.72,1.039,1.131,1.542.845,1.029,1.829,2,2.948,2.914,1.051.822,2.171,1.485,3.359,1.988h-3.188Z" fill="#000" stroke-width="0"/>
    <path d="M151.216,101.241c-.16.229-.389.492-.685.788-.48.48-.994.812-1.542.995l-.377.069-.377.069c-1.074-.206-1.771-.788-2.091-1.749-.137-.525-.206-1.485-.206-2.88-.389.503-.949,1.075-1.679,1.714-1.006.915-1.783,1.577-2.331,1.989-.32.206-.754.434-1.303.685-.389.159-.766.24-1.131.24-.777,0-1.428-.617-1.954-1.852-.411-1.005-.617-2.502-.617-4.49,0-2.079.799-3.988,2.399-5.725.845-.914,1.839-1.611,2.983-2.091,1.166-.457,2.456-.685,3.874-.685h2.948v12.684c0,.297.159.446.48.446.365-.046.822-.229,1.371-.549l.754-.411-.514.754ZM145.938,89.277c-1.6,0-2.96.606-4.079,1.817-1.097,1.234-1.645,2.48-1.645,3.737,0,1.28.102,2.194.309,2.743.343.8.868,1.2,1.577,1.2s1.428-.194,2.16-.583c.365-.228.925-.64,1.679-1.234v-7.679Z" fill="#000" stroke-width="0"/>
    <path d="M163.352,93.288l-2.365,2.434.069-.137.069-.206c.069-.137.137-.354.206-.651l.069-.959.137-.651c0-.48-.069-.857-.206-1.132-.229-.365-.526-.548-.891-.548-.434,0-1.086.503-1.954,1.508l-.857,1.029-.72,1.028.035,6.376c-.549.503-1.063.892-1.543,1.166-.526.32-1.075.537-1.645.651v-11.347c0-.159-.08-.308-.24-.445-.16-.138-.343-.217-.548-.24-.229.023-.503.137-.823.343l-.754.583.617-.925.412-.548,1.405-1.44c.731-.663,1.268-.994,1.611-.994.365,0,.651.114.857.343.206.206.365.514.48.925.069.411.102.766.102,1.063l.035,1.029v2.262l1.577-2.297c.823-1.097,1.485-1.863,1.988-2.297.823-.685,1.577-1.028,2.263-1.028s1.2.229,1.542.685c.389.411.583.972.583,1.68,0,.617-.503,1.531-1.508,2.742Z" fill="#000" stroke-width="0"/>
    <path d="M173.361,101.755c-1.028.96-1.966,1.44-2.811,1.44-.891,0-1.462-.468-1.714-1.405-.137-.48-.206-4.491-.206-12.032l-1.988.034.069-.411.172-.309c.091-.137.457-.423,1.096-.857l1.269-.925c.48-.434.971-1.108,1.474-2.023l.514-1.063.548-1.268v5.347l2.811.035c-.229.389-.526.708-.892.959l-.617.309c-.274.092-.492.149-.651.172h-.274l-.377.034v10.353c0,.183.035.366.103.548.137.137.343.206.617.206s.755-.24,1.44-.72c.251-.114.72-.491,1.405-1.131-.617,1.143-1.28,2.046-1.988,2.708Z" fill="#000" stroke-width="0"/>
    <path d="M184.365,102.407c-.64.526-1.303.788-1.988.788-.709,0-1.257-.263-1.645-.788-.366-.502-.549-4.457-.549-11.86l-.102-.412c-.137-.137-.297-.206-.48-.206-.206,0-.527.137-.96.411l-.925.755c.045-.251.309-.64.788-1.166l1.131-1.029c.274-.206.56-.365.857-.48l.583-.206.137-.034h.548c.252,0,.571.194.96.582.365.389.56.766.583,1.132v.685l.069.377v9.598c.045.32.103.548.172.685.137.206.33.309.582.309.32-.045.674-.228,1.063-.548l.583-.48c-.572.892-1.041,1.521-1.406,1.886ZM182.993,84.787c-.663.526-1.268.788-1.816.788-.641,0-1.063-.309-1.269-.925-.206-.594-.308-1.143-.308-1.645,0-1.531.525-2.297,1.577-2.297,1.119,0,1.839.229,2.159.685.389.457.583,1.006.583,1.645s-.308,1.223-.925,1.749Z" fill="#000" stroke-width="0"/>
    <path d="M199.859,102.304c-.252.206-.594.423-1.029.651l-.034.035c-.343.137-.686.206-1.029.206-.685,0-1.2-.206-1.542-.617-.343-.389-.514-2.902-.514-7.542v-1.851c0-.457-.069-.857-.206-1.2-.183-.32-.514-.48-.994-.48-.527,0-1.2.514-2.023,1.543l-.651.959-.925,1.406v4.49l-.069,1.508-.069.137c-.366.503-.823.88-1.371,1.131-.389.206-.949.377-1.68.514l.035-4.559v-5.005c0-1.439-.046-2.285-.137-2.536-.092-.069-.218-.114-.377-.137-.229.046-.537.16-.925.343l-.925.583c.685-.869,1.291-1.565,1.816-2.091,1.006-.96,1.714-1.44,2.126-1.44.48,0,.834.149,1.063.446.114.183.228.548.343,1.097l.137,1.816.035,2.194,1.542-2.194.96-1.268c1.257-1.394,2.388-2.091,3.393-2.091s1.646.446,1.92,1.337c.159.412.24,1.28.24,2.606l-.034,4.388v4.182l.137.548c.069.137.217.206.446.206s.548-.137.959-.411l.857-.72c-.389.754-.88,1.36-1.474,1.817Z" fill="#000" stroke-width="0"/>
  </g>
  <rect y="0" width="522" height="150" fill="none" stroke-width="0"/>
</svg>