<?xml version="1.0" encoding="UTF-8"?>
<svg id="Calque_1" data-name="Calque 1" xmlns="http://www.w3.org/2000/svg" version="1.1" viewBox="0 0 522 150">
  <g>
    <path d="M244.685,24.572h1.82v8.26h5.124v1.54h-6.944v-9.8Z" fill="#000" stroke-width="0"/>
    <path d="M260.421,32.845v1.526h-7.35v-9.8h7.154v1.525h-5.334v2.549h4.732v1.498h-4.732v2.701h5.53Z" fill="#000" stroke-width="0"/>
    <path d="M274.352,32.146h-1.736v2.226h-1.764v-2.226h-5.377v-1.261l4.83-6.313h1.946l-4.55,6.034h3.206v-1.975h1.708v1.975h1.736v1.54Z" fill="#000" stroke-width="0"/>
    <path d="M282.177,32.832v1.54h-7.224v-1.218l3.892-3.696c.438-.42.735-.786.89-1.099.153-.312.23-.623.23-.932,0-.457-.154-.807-.462-1.05-.308-.242-.761-.364-1.358-.364-.998,0-1.764.341-2.296,1.022l-1.273-.98c.382-.513.897-.912,1.547-1.196.648-.285,1.374-.428,2.177-.428,1.064,0,1.913.252,2.548.757.635.504.952,1.189.952,2.058,0,.532-.111,1.031-.336,1.498s-.653.999-1.288,1.596l-2.618,2.492h4.62Z" fill="#000" stroke-width="0"/>
    <path d="M296.022,30.165c.317.415.476.931.476,1.547,0,.85-.326,1.505-.979,1.967s-1.605.693-2.856.693h-4.872v-9.8h4.593c1.156,0,2.048.227,2.674.679.625.453.938,1.076.938,1.869,0,.485-.111.915-.336,1.288-.224.373-.531.663-.924.868.541.177.971.474,1.288.889ZM289.61,26v2.702h2.576c.635,0,1.122-.114,1.463-.343s.511-.562.511-1.001c0-.448-.17-.786-.511-1.016-.341-.229-.828-.343-1.463-.343h-2.576ZM294.664,31.53c0-.942-.705-1.414-2.113-1.414h-2.94v2.828h2.94c1.408,0,2.113-.472,2.113-1.414Z" fill="#000" stroke-width="0"/>
    <path d="M304.801,32.104h-4.9l-.967,2.268h-1.875l4.41-9.8h1.791l4.424,9.8h-1.903l-.979-2.268ZM304.198,30.675l-1.849-4.284-1.834,4.284h3.683Z" fill="#000" stroke-width="0"/>
    <path d="M315.342,34.372l-2.002-2.87c-.084.01-.209.014-.378.014h-2.212v2.856h-1.82v-9.8h4.032c.85,0,1.589.14,2.22.42.63.28,1.112.682,1.449,1.204.336.522.504,1.144.504,1.861,0,.738-.181,1.372-.539,1.904-.359.532-.875.929-1.547,1.19l2.254,3.22h-1.961ZM314.685,26.616c-.411-.336-1.013-.504-1.807-.504h-2.128v3.906h2.128c.794,0,1.396-.171,1.807-.512.41-.341.616-.823.616-1.449s-.206-1.105-.616-1.441Z" fill="#000" stroke-width="0"/>
    <path d="M327.396,30.165c.316.415.476.931.476,1.547,0,.85-.327,1.505-.98,1.967s-1.605.693-2.855.693h-4.872v-9.8h4.592c1.157,0,2.049.227,2.674.679.625.453.938,1.076.938,1.869,0,.485-.112.915-.336,1.288-.225.373-.532.663-.925.868.542.177.971.474,1.289.889ZM320.984,26v2.702h2.575c.635,0,1.122-.114,1.464-.343.34-.229.511-.562.511-1.001,0-.448-.171-.786-.511-1.016-.342-.229-.829-.343-1.464-.343h-2.575ZM326.038,31.53c0-.942-.705-1.414-2.114-1.414h-2.939v2.828h2.939c1.409,0,2.114-.472,2.114-1.414Z" fill="#000" stroke-width="0"/>
    <path d="M337.168,32.845v1.526h-7.351v-9.8h7.154v1.525h-5.334v2.549h4.731v1.498h-4.731v2.701h5.53Z" fill="#000" stroke-width="0"/>
    <path d="M345.609,34.372l-2.002-2.87c-.084.01-.209.014-.378.014h-2.212v2.856h-1.82v-9.8h4.032c.85,0,1.589.14,2.22.42.63.28,1.112.682,1.449,1.204.336.522.504,1.144.504,1.861,0,.738-.181,1.372-.539,1.904-.359.532-.875.929-1.547,1.19l2.254,3.22h-1.961ZM344.952,26.616c-.411-.336-1.013-.504-1.807-.504h-2.128v3.906h2.128c.794,0,1.396-.171,1.807-.512.41-.341.616-.823.616-1.449s-.206-1.105-.616-1.441Z" fill="#000" stroke-width="0"/>
    <path d="M350.278,34.19c-.704-.215-1.263-.5-1.673-.854l.63-1.414c.401.317.894.576,1.478.777.583.2,1.169.301,1.757.301.728,0,1.271-.116,1.631-.35s.539-.542.539-.925c0-.279-.101-.511-.302-.692-.2-.183-.454-.324-.763-.427-.308-.103-.728-.22-1.26-.351-.747-.177-1.351-.354-1.813-.532-.461-.177-.858-.454-1.189-.833-.332-.378-.497-.889-.497-1.532,0-.542.147-1.034.441-1.478s.737-.795,1.329-1.057c.593-.262,1.318-.393,2.178-.393.597,0,1.186.075,1.764.225s1.078.364,1.498.644l-.574,1.414c-.43-.252-.877-.443-1.344-.574-.467-.13-.92-.195-1.357-.195-.719,0-1.254.121-1.604.363-.35.243-.525.565-.525.967,0,.279.101.509.301.686.201.178.455.317.764.42.308.103.729.22,1.26.351.729.168,1.325.343,1.792.524.467.183.866.46,1.197.833.331.374.497.878.497,1.512,0,.542-.147,1.032-.441,1.471s-.739.788-1.337,1.05c-.597.261-1.325.392-2.184.392-.757,0-1.486-.107-2.191-.321Z" fill="#000" stroke-width="0"/>
    <path d="M366.945,24.572v9.8h-1.819v-4.2h-5.068v4.2h-1.82v-9.8h1.82v4.046h5.068v-4.046h1.819Z" fill="#000" stroke-width="0"/>
    <path d="M371.453,33.861c-.803-.435-1.433-1.036-1.89-1.807-.458-.77-.687-1.631-.687-2.583s.229-1.812.687-2.583c.457-.77,1.087-1.372,1.89-1.806s1.703-.651,2.702-.651,1.899.218,2.702.651,1.433,1.034,1.891,1.799c.457.766.686,1.629.686,2.59s-.229,1.825-.686,2.591c-.458.765-1.088,1.364-1.891,1.799-.803.434-1.703.65-2.702.65s-1.899-.217-2.702-.65ZM375.92,32.474c.522-.294.933-.704,1.231-1.231s.448-1.118.448-1.771-.149-1.243-.448-1.771-.709-.938-1.231-1.232c-.523-.294-1.111-.44-1.765-.44s-1.241.146-1.764.44-.934.705-1.232,1.232-.448,1.118-.448,1.771.149,1.244.448,1.771.71.938,1.232,1.231c.522.295,1.11.441,1.764.441s1.241-.146,1.765-.441Z" fill="#000" stroke-width="0"/>
    <path d="M387.616,24.992c.63.28,1.113.682,1.449,1.204s.504,1.144.504,1.861c0,.71-.168,1.328-.504,1.855s-.819.931-1.449,1.211-1.37.42-2.219.42h-2.212v2.828h-1.82v-9.8h4.032c.849,0,1.589.14,2.219.42ZM387.119,29.5c.411-.336.616-.816.616-1.442s-.205-1.105-.616-1.441c-.41-.336-1.013-.504-1.806-.504h-2.128v3.892h2.128c.793,0,1.396-.168,1.806-.504Z" fill="#000" stroke-width="0"/>
    <path d="M394.848,29.751h3.85v1.456h-3.85v-1.456Z" fill="#000" stroke-width="0"/>
    <path d="M411.887,25.971l-3.684,8.4h-1.188l-3.696-8.4h1.296l3.023,6.9,3.049-6.9h1.199Z" fill="#000" stroke-width="0"/>
    <path d="M413.327,34.024c-.505-.28-.898-.666-1.183-1.158-.283-.492-.426-1.05-.426-1.674s.143-1.183.426-1.674c.284-.492.678-.877,1.183-1.152.504-.276,1.071-.414,1.704-.414s1.197.138,1.697.414c.5.275.893.66,1.176,1.152.284.491.427,1.05.427,1.674s-.143,1.182-.427,1.674c-.283.492-.676.878-1.176,1.158-.5.279-1.066.42-1.697.42s-1.2-.141-1.704-.42ZM416.129,33.154c.324-.188.578-.452.762-.792s.276-.73.276-1.17-.093-.83-.276-1.17-.438-.603-.762-.786c-.324-.185-.689-.276-1.098-.276s-.774.092-1.099.276c-.323.184-.58.446-.768.786-.188.34-.282.729-.282,1.17s.094.83.282,1.17c.188.34.444.604.768.792.324.188.69.282,1.099.282s.773-.095,1.098-.282Z" fill="#000" stroke-width="0"/>
    <path d="M423.503,34c-.168.145-.376.254-.624.33s-.504.114-.768.114c-.641,0-1.137-.172-1.488-.517-.353-.344-.528-.836-.528-1.476v-3.492h-1.08v-.948h1.08v-1.392h1.152v1.392h1.824v.948h-1.824v3.444c0,.344.086.607.258.792.172.184.418.275.738.275.352,0,.651-.1.899-.3l.36.828Z" fill="#000" stroke-width="0"/>
    <path d="M426.887,28.24c.392-.192.868-.288,1.428-.288v1.116c-.064-.008-.152-.013-.264-.013-.624,0-1.114.187-1.47.559-.356.372-.534.902-.534,1.59v3.168h-1.152v-6.36h1.104v1.068c.2-.368.495-.648.888-.84Z" fill="#000" stroke-width="0"/>
    <path d="M435.395,31.576h-5.16c.072.56.318,1.01.738,1.35.42.341.941.511,1.566.511.76,0,1.371-.257,1.836-.769l.636.744c-.288.336-.646.592-1.074.768-.428.177-.906.265-1.434.265-.673,0-1.269-.139-1.788-.414-.521-.276-.922-.662-1.206-1.158s-.427-1.056-.427-1.68c0-.616.139-1.172.414-1.668.276-.496.656-.883,1.141-1.158.484-.276,1.029-.414,1.638-.414s1.15.138,1.626.414c.477.275.848.662,1.116,1.158s.402,1.063.402,1.704c0,.088-.009.203-.024.348ZM430.889,29.427c-.372.336-.59.776-.654,1.32h4.08c-.064-.536-.281-.974-.654-1.314-.371-.34-.834-.51-1.386-.51s-1.014.168-1.386.504Z" fill="#000" stroke-width="0"/>
    <path d="M441.28,34.024c-.508-.28-.905-.666-1.193-1.158s-.433-1.05-.433-1.674.145-1.183.433-1.674c.288-.492.686-.877,1.193-1.152.509-.276,1.087-.414,1.734-.414.576,0,1.09.116,1.542.348.452.232.802.568,1.05,1.008l-.876.564c-.2-.304-.448-.532-.744-.684-.296-.152-.624-.229-.983-.229-.416,0-.79.092-1.122.276-.332.184-.592.446-.78.786s-.282.729-.282,1.17c0,.448.094.842.282,1.182s.448.603.78.786.706.276,1.122.276c.359,0,.688-.076.983-.229.296-.151.544-.38.744-.684l.876.552c-.248.44-.598.778-1.05,1.014-.452.236-.966.354-1.542.354-.647,0-1.226-.141-1.734-.42Z" fill="#000" stroke-width="0"/>
    <path d="M448.019,34.024c-.504-.28-.897-.666-1.182-1.158s-.427-1.05-.427-1.674.143-1.183.427-1.674c.284-.492.678-.877,1.182-1.152.504-.276,1.072-.414,1.704-.414s1.198.138,1.698.414c.5.275.892.66,1.176,1.152.284.491.426,1.05.426,1.674s-.142,1.182-.426,1.674-.676.878-1.176,1.158c-.5.279-1.066.42-1.698.42s-1.2-.141-1.704-.42ZM450.82,33.154c.324-.188.578-.452.763-.792.184-.34.275-.73.275-1.17s-.092-.83-.275-1.17c-.185-.34-.438-.603-.763-.786-.323-.185-.689-.276-1.098-.276s-.773.092-1.098.276c-.324.184-.58.446-.769.786-.188.34-.282.729-.282,1.17s.095.83.282,1.17c.188.34.444.604.769.792.324.188.689.282,1.098.282s.774-.095,1.098-.282Z" fill="#000" stroke-width="0"/>
    <path d="M454.637,26.572c-.148-.145-.223-.32-.223-.528s.074-.386.223-.534c.148-.147.334-.222.558-.222s.41.07.559.21c.147.14.222.314.222.522,0,.216-.074.397-.222.546-.148.147-.335.222-.559.222s-.409-.072-.558-.216ZM454.619,28.011h1.151v6.36h-1.151v-6.36Z" fill="#000" stroke-width="0"/>
    <path d="M459.263,27.459v.552h1.848v.948h-1.823v5.412h-1.152v-5.412h-1.08v-.948h1.08v-.563c0-.632.184-1.132.552-1.5s.884-.552,1.548-.552c.256,0,.496.031.721.096.224.064.415.156.575.276l-.348.876c-.265-.2-.56-.301-.888-.301-.688,0-1.032.372-1.032,1.116Z" fill="#000" stroke-width="0"/>
    <path d="M463.498,27.459v.552h1.849v.948h-1.824v5.412h-1.152v-5.412h-1.08v-.948h1.08v-.563c0-.632.185-1.132.552-1.5.368-.368.885-.552,1.549-.552.256,0,.496.031.72.096s.416.156.576.276l-.349.876c-.264-.2-.56-.301-.888-.301-.688,0-1.032.372-1.032,1.116Z" fill="#000" stroke-width="0"/>
    <path d="M472.066,31.576h-5.16c.072.56.318,1.01.738,1.35.42.341.941.511,1.566.511.76,0,1.371-.257,1.836-.769l.636.744c-.288.336-.646.592-1.074.768-.428.177-.906.265-1.434.265-.673,0-1.269-.139-1.788-.414-.521-.276-.922-.662-1.206-1.158s-.427-1.056-.427-1.68c0-.616.139-1.172.414-1.668.276-.496.656-.883,1.141-1.158.484-.276,1.029-.414,1.638-.414s1.15.138,1.626.414c.477.275.848.662,1.116,1.158s.402,1.063.402,1.704c0,.088-.009.203-.024.348ZM467.561,29.427c-.372.336-.59.776-.654,1.32h4.08c-.064-.536-.281-.974-.654-1.314-.371-.34-.834-.51-1.386-.51s-1.014.168-1.386.504Z" fill="#000" stroke-width="0"/>
    <path d="M479.614,28.011v6.36h-1.092v-.96c-.232.328-.538.582-.918.762-.38.181-.794.271-1.242.271-.848,0-1.516-.234-2.004-.702s-.731-1.158-.731-2.07v-3.66h1.151v3.528c0,.616.148,1.082.444,1.398.296.315.72.474,1.271.474.608,0,1.088-.184,1.44-.552.352-.368.528-.889.528-1.561v-3.288h1.151Z" fill="#000" stroke-width="0"/>
    <path d="M483.803,28.24c.392-.192.867-.288,1.428-.288v1.116c-.064-.008-.152-.013-.264-.013-.625,0-1.115.187-1.471.559s-.534.902-.534,1.59v3.168h-1.151v-6.36h1.104v1.068c.2-.368.496-.648.889-.84Z" fill="#000" stroke-width="0"/>
    <path d="M487.456,33.034c.147.156.222.35.222.582,0,.12-.014.236-.042.348-.028.112-.082.284-.161.517l-.564,1.668h-.756l.443-1.788c-.151-.057-.273-.15-.365-.282-.093-.132-.139-.286-.139-.462,0-.24.076-.437.229-.588.151-.152.344-.229.576-.229.224,0,.409.078.558.234Z" fill="#000" stroke-width="0"/>
    <path d="M251.433,48.753c.28.356.42.807.42,1.351,0,.728-.274,1.288-.822,1.68s-1.346.588-2.394.588h-4.008v-8.4h3.769c.96,0,1.702.192,2.226.576s.786.916.786,1.597c0,.439-.102.819-.306,1.14-.204.32-.478.563-.822.731.488.137.872.383,1.152.738ZM245.829,44.944v2.688h2.46c.616,0,1.09-.113,1.422-.342.332-.228.498-.562.498-1.002s-.166-.774-.498-1.002c-.332-.229-.806-.342-1.422-.342h-2.46ZM250.125,51.064c.344-.225.516-.576.516-1.057,0-.936-.684-1.403-2.052-1.403h-2.76v2.796h2.76c.68,0,1.192-.112,1.536-.336Z" fill="#000" stroke-width="0"/>
    <path d="M257.883,46.599c.468.433.702,1.076.702,1.933v3.84h-1.092v-.84c-.192.296-.466.521-.822.678-.356.156-.778.234-1.266.234-.712,0-1.282-.172-1.71-.517-.428-.344-.642-.796-.642-1.355s.204-1.01.612-1.351c.408-.34,1.056-.51,1.944-.51h1.824v-.228c0-.496-.144-.876-.432-1.141-.288-.264-.712-.396-1.272-.396-.376,0-.744.062-1.104.186-.36.124-.664.29-.912.498l-.479-.863c.328-.265.72-.467,1.176-.606s.94-.21,1.452-.21c.88,0,1.554.216,2.021.647ZM256.737,51.261c.319-.195.552-.474.696-.834v-.888h-1.776c-.977,0-1.464.328-1.464.984,0,.319.124.571.372.756.248.184.592.275,1.032.275s.82-.098,1.14-.294Z" fill="#000" stroke-width="0"/>
    <path d="M262.713,46.24c.392-.192.868-.288,1.428-.288v1.116c-.064-.008-.152-.013-.264-.013-.624,0-1.114.187-1.47.559-.356.372-.534.902-.534,1.59v3.168h-1.152v-6.36h1.104v1.068c.2-.368.495-.648.888-.84Z" fill="#000" stroke-width="0"/>
    <path d="M270.585,46.36c.487.271.87.651,1.146,1.14.276.488.414,1.052.414,1.692s-.138,1.206-.414,1.697c-.275.492-.658.875-1.146,1.146-.488.272-1.04.408-1.656.408-.472,0-.904-.092-1.296-.276-.393-.184-.716-.452-.972-.804v1.008h-1.104v-8.904h1.152v3.504c.256-.336.576-.59.96-.762s.804-.258,1.26-.258c.616,0,1.168.136,1.656.408ZM269.931,51.154c.324-.188.58-.452.769-.792.188-.34.281-.73.281-1.17s-.094-.83-.281-1.17c-.188-.34-.444-.603-.769-.786-.323-.185-.69-.276-1.098-.276-.4,0-.765.092-1.093.276-.328.184-.584.446-.768.786s-.275.729-.275,1.17.092.83.275,1.17.439.604.768.792c.328.188.692.282,1.093.282.407,0,.774-.095,1.098-.282Z" fill="#000" stroke-width="0"/>
    <path d="M273.759,44.572c-.147-.145-.222-.32-.222-.528s.074-.386.222-.534c.148-.147.334-.222.558-.222s.41.07.559.21.222.314.222.522c0,.216-.073.397-.222.546-.148.147-.334.222-.559.222s-.409-.072-.558-.216ZM273.741,46.011h1.151v6.36h-1.151v-6.36Z" fill="#000" stroke-width="0"/>
    <path d="M282.812,49.576h-5.16c.072.56.318,1.01.738,1.35.42.341.941.511,1.566.511.76,0,1.371-.257,1.836-.769l.636.744c-.288.336-.646.592-1.074.768-.428.177-.906.265-1.434.265-.673,0-1.269-.139-1.788-.414-.521-.276-.922-.662-1.206-1.158s-.427-1.056-.427-1.68c0-.616.139-1.172.414-1.668.276-.496.656-.883,1.141-1.158.484-.276,1.029-.414,1.638-.414s1.15.138,1.626.414c.477.275.848.662,1.116,1.158s.402,1.063.402,1.704c0,.088-.009.203-.024.348ZM278.307,47.427c-.372.336-.59.776-.654,1.32h4.08c-.064-.536-.281-.974-.654-1.314-.371-.34-.834-.51-1.386-.51s-1.014.168-1.386.504Z" fill="#000" stroke-width="0"/>
    <path d="M286.425,46.24c.392-.192.868-.288,1.428-.288v1.116c-.063-.008-.151-.013-.264-.013-.624,0-1.114.187-1.47.559-.356.372-.534.902-.534,1.59v3.168h-1.152v-6.36h1.104v1.068c.199-.368.496-.648.888-.84Z" fill="#000" stroke-width="0"/>
    <path d="M249.993,88.372l-1.716-2.46c-.072.008-.18.012-.324.012h-1.896v2.448h-1.56v-8.4h3.456c.728,0,1.362.12,1.902.36.54.24.954.584,1.242,1.032s.432.979.432,1.596c0,.632-.154,1.176-.462,1.632-.309.456-.75.797-1.326,1.021l1.932,2.76h-1.68ZM249.429,81.723c-.352-.287-.868-.432-1.548-.432h-1.824v3.348h1.824c.68,0,1.196-.146,1.548-.438s.528-.706.528-1.242-.176-.948-.528-1.236Z" fill="#000" stroke-width="0"/>
    <path d="M259.401,79.467v8.904h-1.44v-.828c-.248.305-.554.532-.918.685-.364.151-.766.228-1.206.228-.616,0-1.17-.136-1.662-.408-.492-.271-.878-.658-1.158-1.158-.28-.499-.42-1.073-.42-1.722s.14-1.22.42-1.716.666-.88,1.158-1.152c.492-.271,1.046-.408,1.662-.408.424,0,.812.072,1.164.217.352.144.652.359.9.647v-3.288h1.5ZM256.989,86.925c.288-.164.516-.397.684-.702.168-.304.252-.655.252-1.056s-.084-.752-.252-1.056-.396-.538-.684-.702-.612-.246-.972-.246-.684.082-.972.246-.516.398-.684.702-.252.656-.252,1.056.084.752.252,1.056c.168.305.396.538.684.702s.612.246.972.246.684-.082.972-.246Z" fill="#000" stroke-width="0"/>
    <path d="M267.369,81.963l-2.748,6.408h-1.548l-2.748-6.408h1.56l1.992,4.752,2.052-4.752h1.44Z" fill="#000" stroke-width="0"/>
    <path d="M272.072,88.251c-.496-.136-.892-.308-1.188-.516l.576-1.141c.287.192.634.347,1.037.462.404.116.803.175,1.194.175.896,0,1.345-.236,1.345-.708,0-.225-.114-.38-.343-.469-.228-.088-.594-.172-1.098-.252-.528-.079-.958-.172-1.29-.275-.332-.104-.62-.286-.864-.546s-.366-.622-.366-1.086c0-.608.254-1.095.763-1.458.508-.364,1.193-.547,2.058-.547.439,0,.88.051,1.32.15.439.101.8.234,1.08.402l-.576,1.14c-.544-.319-1.156-.479-1.836-.479-.44,0-.774.065-1.002.197-.229.132-.342.307-.342.522,0,.24.121.41.365.51.244.101.622.194,1.135.282.512.08.932.172,1.26.275.328.104.609.28.846.528s.354.601.354,1.056c0,.601-.26,1.08-.779,1.44-.521.36-1.229.54-2.124.54-.521,0-1.028-.068-1.524-.204Z" fill="#000" stroke-width="0"/>
    <path d="M284,81.963v6.408h-1.428v-.816c-.24.288-.54.511-.899.666-.36.156-.749.234-1.164.234-.856,0-1.53-.238-2.022-.714s-.738-1.182-.738-2.118v-3.66h1.5v3.456c0,.576.131,1.006.391,1.29s.63.426,1.109.426c.536,0,.963-.166,1.278-.498.316-.331.474-.81.474-1.434v-3.24h1.5Z" fill="#000" stroke-width="0"/>
    <path d="M289.677,81.891v1.429c-.128-.024-.244-.036-.349-.036-.584,0-1.039.17-1.367.51s-.492.83-.492,1.47v3.108h-1.5v-6.408h1.428v.937c.432-.672,1.192-1.009,2.28-1.009Z" fill="#000" stroke-width="0"/>
    <path d="M299.822,80.332c.54.24.954.584,1.242,1.032s.432.979.432,1.596c0,.608-.144,1.139-.432,1.59-.288.452-.702.798-1.242,1.038s-1.174.36-1.902.36h-1.896v2.424h-1.56v-8.4h3.455c.729,0,1.362.12,1.902.36ZM299.396,84.196c.352-.288.527-.7.527-1.236s-.176-.948-.527-1.236c-.353-.287-.868-.432-1.548-.432h-1.824v3.336h1.824c.68,0,1.195-.144,1.548-.432Z" fill="#000" stroke-width="0"/>
    <path d="M303.032,79.467h1.5v8.904h-1.5v-8.904Z" fill="#000" stroke-width="0"/>
    <path d="M311.114,82.57c.5.452.75,1.134.75,2.046v3.756h-1.416v-.78c-.185.28-.446.494-.786.643-.34.147-.75.222-1.23.222s-.899-.082-1.26-.246c-.359-.164-.638-.392-.834-.684-.195-.292-.294-.622-.294-.99,0-.576.214-1.038.642-1.386.429-.349,1.103-.522,2.022-.522h1.656v-.096c0-.448-.134-.792-.402-1.032-.268-.24-.666-.36-1.194-.36-.359,0-.713.057-1.062.168-.348.112-.642.269-.882.469l-.588-1.093c.336-.256.74-.451,1.212-.588.472-.136.972-.204,1.5-.204.944,0,1.666.227,2.166.679ZM309.746,87.106c.292-.172.498-.418.618-.738v-.744h-1.548c-.864,0-1.297.284-1.297.852,0,.272.108.488.324.648.217.16.517.24.9.24.376,0,.71-.086,1.002-.258Z" fill="#000" stroke-width="0"/>
    <path d="M319.364,82.599c.487.473.731,1.173.731,2.101v3.672h-1.5v-3.48c0-.56-.131-.981-.396-1.266-.264-.284-.64-.426-1.128-.426-.552,0-.988.166-1.308.498-.32.332-.48.81-.48,1.434v3.24h-1.5v-6.408h1.429v.828c.247-.296.56-.52.936-.672s.8-.229,1.271-.229c.809,0,1.456.236,1.944.708Z" fill="#000" stroke-width="0"/>
    <path d="M322.076,80.65c-.185-.172-.276-.386-.276-.643s.092-.47.276-.642c.184-.172.412-.258.684-.258s.5.082.685.246c.184.164.275.37.275.617,0,.265-.09.486-.27.666-.181.181-.41.271-.69.271-.271,0-.5-.086-.684-.258ZM322.004,81.963h1.5v6.408h-1.5v-6.408Z" fill="#000" stroke-width="0"/>
    <path d="M329.324,88.024c-.176.144-.391.252-.643.323-.252.072-.518.108-.798.108-.704,0-1.248-.184-1.632-.552s-.576-.904-.576-1.608v-3.084h-1.056v-1.2h1.056v-1.464h1.5v1.464h1.717v1.2h-1.717v3.048c0,.312.076.551.229.714.151.164.372.246.66.246.336,0,.615-.088.84-.264l.42,1.068Z" fill="#000" stroke-width="0"/>
    <path d="M336.439,81.963l-3,6.924c-.279.696-.619,1.187-1.02,1.471-.4.283-.884.426-1.452.426-.319,0-.636-.052-.948-.156-.312-.104-.567-.248-.768-.432l.6-1.104c.145.136.314.244.511.324s.394.12.594.12c.264,0,.481-.068.654-.204.172-.136.329-.364.474-.684l.108-.252-2.796-6.433h1.56l2.017,4.74,2.027-4.74h1.439Z" fill="#000" stroke-width="0"/>
    <path d="M249.849,105.328v1.044h-6.036v-.816l3.42-3.3c.416-.399.696-.746.84-1.038.144-.292.216-.586.216-.882,0-.439-.154-.782-.462-1.025-.308-.244-.75-.366-1.326-.366-.928,0-1.644.304-2.148.912l-.816-.708c.328-.4.758-.712,1.29-.937.532-.224,1.126-.336,1.782-.336.88,0,1.58.21,2.1.63s.78.99.78,1.71c0,.448-.096.872-.288,1.272-.192.4-.556.855-1.092,1.368l-2.568,2.472h4.308Z" fill="#000" stroke-width="0"/>
    <path d="M260.589,98.751c.624.521.936,1.236.936,2.148s-.312,1.628-.936,2.147c-.624.521-1.48.78-2.568.78h-2.076v2.544h-1.2v-8.4h3.275c1.088,0,1.944.261,2.568.78ZM259.725,102.297c.4-.324.601-.79.601-1.397s-.2-1.074-.601-1.398c-.4-.324-.979-.486-1.74-.486h-2.04v3.769h2.04c.76,0,1.34-.162,1.74-.486Z" fill="#000" stroke-width="0"/>
    <path d="M263.241,97.467h1.151v8.904h-1.151v-8.904Z" fill="#000" stroke-width="0"/>
    <path d="M266.289,106.209c-.16-.156-.24-.354-.24-.594,0-.232.08-.426.24-.582.159-.156.352-.234.575-.234s.412.076.564.229c.151.151.228.348.228.588s-.078.438-.233.594c-.156.156-.343.234-.559.234-.224,0-.416-.078-.575-.234Z" fill="#000" stroke-width="0"/>
    <path d="M273.326,106.173c-.588-.195-1.05-.45-1.386-.762l.444-.937c.319.288.729.522,1.229.702.5.181,1.015.271,1.542.271.696,0,1.216-.118,1.561-.354.344-.235.516-.55.516-.941,0-.288-.094-.522-.282-.702-.188-.18-.42-.318-.696-.414-.275-.096-.666-.204-1.17-.324-.632-.151-1.142-.304-1.529-.456-.389-.151-.721-.386-.996-.702-.276-.315-.414-.741-.414-1.277,0-.448.118-.853.354-1.212.236-.36.595-.648,1.074-.864.48-.216,1.076-.324,1.788-.324.496,0,.984.064,1.464.192.48.128.893.312,1.236.552l-.396.96c-.352-.224-.728-.394-1.128-.51-.399-.116-.792-.174-1.176-.174-.68,0-1.19.124-1.53.372s-.51.567-.51.96c0,.287.096.521.288.701.192.181.43.32.714.42.284.101.67.206,1.158.318.632.152,1.141.305,1.523.456.385.152.715.384.99.696.276.312.414.731.414,1.26,0,.44-.119.842-.359,1.206s-.604.652-1.092.864c-.488.212-1.089.317-1.801.317-.632,0-1.242-.098-1.83-.294Z" fill="#000" stroke-width="0"/>
    <path d="M284.33,100.599c.469.433.702,1.076.702,1.933v3.84h-1.092v-.84c-.192.296-.466.521-.822.678s-.778.234-1.266.234c-.712,0-1.282-.172-1.71-.517-.428-.344-.643-.796-.643-1.355s.204-1.01.612-1.351c.408-.34,1.056-.51,1.944-.51h1.824v-.228c0-.496-.145-.876-.433-1.141-.288-.264-.712-.396-1.272-.396-.375,0-.743.062-1.104.186-.359.124-.664.29-.912.498l-.479-.863c.327-.265.72-.467,1.176-.606s.94-.21,1.452-.21c.88,0,1.554.216,2.021.647ZM283.185,105.261c.319-.195.552-.474.696-.834v-.888h-1.776c-.977,0-1.464.328-1.464.984,0,.319.124.571.372.756.247.184.592.275,1.032.275s.819-.098,1.14-.294Z" fill="#000" stroke-width="0"/>
    <path d="M287.187,98.572c-.148-.145-.223-.32-.223-.528s.074-.386.223-.534c.147-.147.333-.222.558-.222s.41.07.559.21c.147.14.222.314.222.522,0,.216-.074.397-.222.546-.148.147-.335.222-.559.222s-.41-.072-.558-.216ZM287.168,100.011h1.152v6.36h-1.152v-6.36Z" fill="#000" stroke-width="0"/>
    <path d="M295.838,100.654c.477.468.715,1.154.715,2.058v3.66h-1.152v-3.528c0-.615-.148-1.08-.444-1.392-.296-.312-.72-.468-1.271-.468-.624,0-1.116.182-1.477.546-.359.364-.54.886-.54,1.565v3.276h-1.151v-6.36h1.104v.96c.232-.327.546-.579.942-.756.396-.176.846-.264,1.35-.264.809,0,1.45.234,1.926.702Z" fill="#000" stroke-width="0"/>
    <path d="M302.264,106c-.168.145-.375.254-.623.33s-.504.114-.769.114c-.64,0-1.136-.172-1.487-.517-.353-.344-.528-.836-.528-1.476v-3.492h-1.08v-.948h1.08v-1.392h1.151v1.392h1.824v.948h-1.824v3.444c0,.344.086.607.258.792.173.184.418.275.738.275.353,0,.652-.1.9-.3l.359.828Z" fill="#000" stroke-width="0"/>
    <path d="M314.84,106.372l-.012-6.12-3.036,5.101h-.552l-3.036-5.064v6.084h-1.152v-8.4h.984l3.504,5.904,3.456-5.904h.984l.012,8.4h-1.152Z" fill="#000" stroke-width="0"/>
    <path d="M322.682,100.599c.469.433.702,1.076.702,1.933v3.84h-1.092v-.84c-.192.296-.466.521-.822.678s-.778.234-1.266.234c-.712,0-1.282-.172-1.71-.517-.428-.344-.643-.796-.643-1.355s.204-1.01.612-1.351c.408-.34,1.056-.51,1.944-.51h1.824v-.228c0-.496-.145-.876-.433-1.141-.288-.264-.712-.396-1.272-.396-.375,0-.743.062-1.104.186-.359.124-.664.29-.912.498l-.479-.863c.327-.265.72-.467,1.176-.606s.94-.21,1.452-.21c.88,0,1.554.216,2.021.647ZM321.536,105.261c.319-.195.552-.474.696-.834v-.888h-1.776c-.977,0-1.464.328-1.464.984,0,.319.124.571.372.756.247.184.592.275,1.032.275s.819-.098,1.14-.294Z" fill="#000" stroke-width="0"/>
    <path d="M327.512,100.24c.392-.192.868-.288,1.428-.288v1.116c-.064-.008-.152-.013-.264-.013-.624,0-1.114.187-1.47.559-.356.372-.534.902-.534,1.59v3.168h-1.152v-6.36h1.104v1.068c.2-.368.495-.648.888-.84Z" fill="#000" stroke-width="0"/>
    <path d="M334.195,106c-.168.145-.376.254-.624.33s-.504.114-.768.114c-.64,0-1.136-.172-1.488-.517-.353-.344-.528-.836-.528-1.476v-3.492h-1.08v-.948h1.08v-1.392h1.152v1.392h1.824v.948h-1.824v3.444c0,.344.086.607.258.792.172.184.418.275.738.275.352,0,.652-.1.9-.3l.359.828Z" fill="#000" stroke-width="0"/>
    <path d="M335.605,98.572c-.148-.145-.223-.32-.223-.528s.074-.386.223-.534c.148-.147.334-.222.558-.222s.41.07.559.21c.147.14.222.314.222.522,0,.216-.074.397-.222.546-.148.147-.335.222-.559.222s-.409-.072-.558-.216ZM335.588,100.011h1.151v6.36h-1.151v-6.36Z" fill="#000" stroke-width="0"/>
    <path d="M344.258,100.654c.476.468.713,1.154.713,2.058v3.66h-1.151v-3.528c0-.615-.148-1.08-.444-1.392-.296-.312-.72-.468-1.271-.468-.624,0-1.116.182-1.477.546-.359.364-.54.886-.54,1.565v3.276h-1.151v-6.36h1.104v.96c.232-.327.546-.579.942-.756.396-.176.846-.264,1.35-.264.808,0,1.45.234,1.927.702Z" fill="#000" stroke-width="0"/>
    <path d="M347.953,105.034c.148.156.223.35.223.582,0,.12-.015.236-.043.348-.027.112-.082.284-.161.517l-.564,1.668h-.756l.444-1.788c-.152-.057-.274-.15-.366-.282-.093-.132-.138-.286-.138-.462,0-.24.075-.437.228-.588.151-.152.344-.229.576-.229.224,0,.409.078.558.234Z" fill="#000" stroke-width="0"/>
    <path d="M251.253,122.307h-1.596v2.064h-1.164v-2.064h-4.668v-.84l4.296-5.496h1.296l-4.116,5.305h3.229v-1.824h1.128v1.824h1.596v1.031Z" fill="#000" stroke-width="0"/>
    <path d="M259.281,122.307h-1.596v2.064h-1.164v-2.064h-4.668v-.84l4.296-5.496h1.296l-4.116,5.305h3.228v-1.824h1.128v1.824h1.596v1.031Z" fill="#000" stroke-width="0"/>
    <path d="M266.361,120.759c.256.345.384.756.384,1.236,0,.504-.136.942-.408,1.314-.272.371-.66.657-1.164.857s-1.096.3-1.776.3c-.672,0-1.258-.1-1.758-.3s-.886-.486-1.158-.857c-.272-.372-.408-.811-.408-1.314,0-.48.126-.892.378-1.236.252-.344.618-.607,1.098-.792-.384-.184-.676-.428-.876-.731s-.3-.664-.3-1.08c0-.464.126-.868.378-1.212s.606-.608,1.062-.792c.457-.185.984-.276,1.583-.276.608,0,1.143.092,1.603.276.46.184.815.448,1.067.792s.379.748.379,1.212c0,.408-.103.766-.307,1.074-.204.308-.498.554-.882.737.479.185.848.448,1.104.792ZM264.969,123.082c.385-.276.576-.649.576-1.122,0-.464-.191-.83-.576-1.098-.384-.269-.908-.402-1.572-.402s-1.184.134-1.56.402c-.376.268-.564.634-.564,1.098,0,.473.188.846.564,1.122s.896.414,1.56.414,1.188-.138,1.572-.414ZM262.053,117.213c-.328.244-.492.574-.492.99s.162.744.486.984c.324.239.773.359,1.35.359.584,0,1.043-.12,1.375-.359.331-.24.498-.568.498-.984s-.171-.746-.511-.99-.794-.366-1.362-.366-1.016.122-1.344.366Z" fill="#000" stroke-width="0"/>
    <path d="M272.955,119.584c.436.208.777.506,1.025.895.248.388.373.834.373,1.338,0,.527-.131.992-.391,1.392-.26.4-.616.71-1.068.93-.451.221-.958.33-1.518.33-1.128,0-1.998-.363-2.61-1.092-.611-.728-.918-1.76-.918-3.096,0-.937.166-1.734.498-2.395s.796-1.159,1.393-1.5c.596-.34,1.29-.51,2.082-.51.407,0,.792.042,1.151.126.36.084.672.206.937.366l-.456.936c-.4-.264-.937-.396-1.608-.396-.872,0-1.556.27-2.052.81s-.744,1.326-.744,2.358c0,.128.004.228.012.3.24-.36.57-.634.99-.822.42-.188.895-.281,1.422-.281.553,0,1.046.104,1.482.312ZM272.673,123.051c.344-.296.517-.691.517-1.188s-.175-.89-.522-1.183c-.349-.292-.814-.438-1.397-.438-.377,0-.711.072-1.003.216-.292.145-.52.34-.684.588s-.246.524-.246.828c0,.296.078.566.234.811.155.244.384.439.684.588.3.147.658.222,1.074.222.552,0,1-.148,1.344-.444Z" fill="#000" stroke-width="0"/>
    <path d="M276.915,123.958c-.517-.34-.923-.834-1.218-1.482-.297-.647-.444-1.415-.444-2.304s.147-1.656.444-2.304c.295-.648.701-1.142,1.218-1.482.516-.34,1.105-.51,1.77-.51.656,0,1.242.17,1.759.51.516.341.922.834,1.217,1.482.297.647.444,1.416.444,2.304s-.147,1.656-.444,2.304c-.295.648-.701,1.143-1.217,1.482-.517.34-1.103.51-1.759.51-.664,0-1.254-.17-1.77-.51ZM280.299,122.572c.404-.552.605-1.353.605-2.4s-.201-1.848-.605-2.399c-.404-.553-.942-.828-1.614-.828-.68,0-1.222.275-1.626.828-.404.552-.605,1.352-.605,2.399s.201,1.849.605,2.4.946.828,1.626.828c.672,0,1.21-.276,1.614-.828Z" fill="#000" stroke-width="0"/>
    <path d="M293.013,116.751c.624.521.937,1.236.937,2.148s-.312,1.628-.937,2.147c-.624.521-1.48.78-2.568.78h-2.075v2.544h-1.2v-8.4h3.275c1.088,0,1.944.261,2.568.78ZM292.148,120.297c.4-.324.601-.79.601-1.397s-.2-1.074-.601-1.398-.979-.486-1.74-.486h-2.039v3.769h2.039c.761,0,1.34-.162,1.74-.486Z" fill="#000" stroke-width="0"/>
    <path d="M296.541,124.024c-.505-.28-.898-.666-1.183-1.158s-.426-1.05-.426-1.674.142-1.183.426-1.674c.284-.492.678-.877,1.183-1.152.504-.276,1.071-.414,1.703-.414s1.198.138,1.698.414c.5.275.892.66,1.176,1.152.284.491.427,1.05.427,1.674s-.143,1.182-.427,1.674-.676.878-1.176,1.158c-.5.279-1.066.42-1.698.42s-1.199-.141-1.703-.42ZM299.343,123.154c.323-.188.577-.452.762-.792.184-.34.276-.73.276-1.17s-.093-.83-.276-1.17c-.185-.34-.438-.603-.762-.786-.324-.185-.69-.276-1.099-.276s-.773.092-1.098.276c-.324.184-.58.446-.768.786-.188.34-.282.729-.282,1.17s.094.83.282,1.17c.188.34.443.604.768.792.324.188.689.282,1.098.282s.774-.095,1.099-.282Z" fill="#000" stroke-width="0"/>
    <path d="M308.463,118.654c.476.468.713,1.154.713,2.058v3.66h-1.151v-3.528c0-.615-.148-1.08-.444-1.392-.296-.312-.72-.468-1.271-.468-.624,0-1.116.182-1.477.546-.359.364-.54.886-.54,1.565v3.276h-1.151v-6.36h1.104v.96c.232-.327.546-.579.942-.756.396-.176.846-.264,1.35-.264.808,0,1.45.234,1.927.702Z" fill="#000" stroke-width="0"/>
    <path d="M314.889,124c-.168.145-.376.254-.624.33s-.504.114-.769.114c-.64,0-1.136-.172-1.487-.517-.353-.344-.528-.836-.528-1.476v-3.492h-1.08v-.948h1.08v-1.392h1.152v1.392h1.824v.948h-1.824v3.444c0,.344.086.607.258.792.172.184.418.275.738.275.352,0,.651-.1.899-.3l.36.828Z" fill="#000" stroke-width="0"/>
    <path d="M320.294,124.173c-.588-.195-1.05-.45-1.386-.762l.444-.937c.319.288.729.522,1.229.702.5.181,1.014.271,1.542.271.696,0,1.216-.118,1.561-.354.344-.235.516-.55.516-.941,0-.288-.094-.522-.282-.702-.188-.18-.42-.318-.695-.414-.276-.096-.666-.204-1.17-.324-.633-.151-1.143-.304-1.53-.456-.389-.151-.72-.386-.996-.702-.276-.315-.414-.741-.414-1.277,0-.448.118-.853.354-1.212.235-.36.594-.648,1.073-.864.48-.216,1.076-.324,1.788-.324.496,0,.984.064,1.464.192.48.128.892.312,1.236.552l-.396.96c-.353-.224-.729-.394-1.129-.51-.399-.116-.792-.174-1.176-.174-.68,0-1.189.124-1.529.372-.341.248-.511.567-.511.96,0,.287.097.521.288.701.192.181.43.32.714.42.284.101.67.206,1.158.318.632.152,1.14.305,1.524.456.384.152.714.384.989.696.276.312.414.731.414,1.26,0,.44-.12.842-.359,1.206-.24.364-.604.652-1.093.864-.487.212-1.088.317-1.8.317-.632,0-1.241-.098-1.83-.294Z" fill="#000" stroke-width="0"/>
    <path d="M331.298,118.599c.468.433.702,1.076.702,1.933v3.84h-1.092v-.84c-.192.296-.466.521-.822.678-.355.156-.777.234-1.266.234-.712,0-1.282-.172-1.71-.517-.429-.344-.642-.796-.642-1.355s.203-1.01.611-1.351c.408-.34,1.057-.51,1.944-.51h1.823v-.228c0-.496-.144-.876-.432-1.141-.288-.264-.712-.396-1.271-.396-.377,0-.744.062-1.104.186s-.664.29-.912.498l-.479-.863c.328-.265.72-.467,1.176-.606s.939-.21,1.452-.21c.88,0,1.554.216,2.021.647ZM330.152,123.261c.319-.195.552-.474.695-.834v-.888h-1.775c-.977,0-1.464.328-1.464.984,0,.319.124.571.372.756.248.184.592.275,1.031.275s.82-.098,1.141-.294Z" fill="#000" stroke-width="0"/>
    <path d="M334.154,116.572c-.148-.145-.223-.32-.223-.528s.074-.386.223-.534c.147-.147.334-.222.558-.222s.41.07.558.21c.148.14.223.314.223.522,0,.216-.074.397-.223.546-.147.147-.334.222-.558.222s-.41-.072-.558-.216ZM334.136,118.011h1.152v6.36h-1.152v-6.36Z" fill="#000" stroke-width="0"/>
    <path d="M342.806,118.654c.476.468.714,1.154.714,2.058v3.66h-1.151v-3.528c0-.615-.148-1.08-.444-1.392-.296-.312-.72-.468-1.271-.468-.625,0-1.116.182-1.477.546-.359.364-.54.886-.54,1.565v3.276h-1.151v-6.36h1.104v.96c.232-.327.546-.579.941-.756.396-.176.847-.264,1.351-.264.808,0,1.45.234,1.926.702Z" fill="#000" stroke-width="0"/>
    <path d="M349.232,124c-.168.145-.377.254-.625.33s-.504.114-.768.114c-.64,0-1.136-.172-1.488-.517-.352-.344-.527-.836-.527-1.476v-3.492h-1.08v-.948h1.08v-1.392h1.152v1.392h1.823v.948h-1.823v3.444c0,.344.085.607.258.792.172.184.418.275.737.275.353,0,.652-.1.9-.3l.36.828Z" fill="#000" stroke-width="0"/>
    <path d="M361.808,124.372l-.012-6.12-3.036,5.101h-.552l-3.036-5.064v6.084h-1.152v-8.4h.984l3.504,5.904,3.456-5.904h.983l.013,8.4h-1.152Z" fill="#000" stroke-width="0"/>
    <path d="M369.649,118.599c.468.433.702,1.076.702,1.933v3.84h-1.092v-.84c-.192.296-.467.521-.822.678-.356.156-.778.234-1.266.234-.713,0-1.282-.172-1.711-.517-.428-.344-.642-.796-.642-1.355s.204-1.01.612-1.351c.408-.34,1.056-.51,1.943-.51h1.824v-.228c0-.496-.144-.876-.432-1.141-.288-.264-.712-.396-1.272-.396-.376,0-.743.062-1.104.186s-.664.29-.912.498l-.479-.863c.327-.265.72-.467,1.176-.606s.939-.21,1.451-.21c.881,0,1.555.216,2.022.647ZM368.504,123.261c.319-.195.552-.474.695-.834v-.888h-1.775c-.977,0-1.465.328-1.465.984,0,.319.125.571.373.756.247.184.592.275,1.031.275s.82-.098,1.141-.294Z" fill="#000" stroke-width="0"/>
    <path d="M374.479,118.24c.392-.192.868-.288,1.428-.288v1.116c-.063-.008-.151-.013-.264-.013-.624,0-1.114.187-1.47.559-.356.372-.534.902-.534,1.59v3.168h-1.152v-6.36h1.104v1.068c.199-.368.496-.648.888-.84Z" fill="#000" stroke-width="0"/>
    <path d="M381.163,124c-.168.145-.376.254-.624.33s-.504.114-.768.114c-.641,0-1.137-.172-1.488-.517-.353-.344-.528-.836-.528-1.476v-3.492h-1.08v-.948h1.08v-1.392h1.152v1.392h1.824v.948h-1.824v3.444c0,.344.086.607.258.792.172.184.418.275.738.275.352,0,.651-.1.899-.3l.36.828Z" fill="#000" stroke-width="0"/>
    <path d="M382.573,116.572c-.148-.145-.222-.32-.222-.528s.073-.386.222-.534c.147-.147.334-.222.558-.222s.41.07.559.21c.147.14.222.314.222.522,0,.216-.074.397-.222.546-.148.147-.334.222-.559.222s-.41-.072-.558-.216ZM382.555,118.011h1.152v6.36h-1.152v-6.36Z" fill="#000" stroke-width="0"/>
    <path d="M391.225,118.654c.477.468.715,1.154.715,2.058v3.66h-1.152v-3.528c0-.615-.148-1.08-.444-1.392-.296-.312-.72-.468-1.271-.468-.624,0-1.116.182-1.477.546-.359.364-.54.886-.54,1.565v3.276h-1.151v-6.36h1.104v.96c.232-.327.546-.579.942-.756.396-.176.846-.264,1.35-.264.809,0,1.45.234,1.926.702Z" fill="#000" stroke-width="0"/>
  </g>
  <rect x="233.478" y="0" width="2" height="150" fill="#272824" stroke-width="0"/>
  <g>
    <path d="M146.882,84.3c-2.521,0-5.042.01-7.562-.006-.759-.005-1.236.33-1.628.965-1.248,2.019-2.41,4.109-3.837,5.995-4.259,5.629-9.708,9.798-16.192,12.569-3.515,1.503-7.154,2.631-11.002,2.92-2.053.154-4.116.509-6.158.413-11.353-.531-21.087-4.759-28.91-13.097-4.755-5.068-7.962-11.032-9.68-17.752-.862-3.369-1.472-6.836-1.367-10.316.206-6.812,1.674-13.337,4.98-19.39,3.14-5.75,7.32-10.556,12.714-14.264,4.904-3.371,10.286-5.631,16.163-6.691,5.657-1.02,11.263-.834,16.836.555,7.565,1.886,14.057,5.629,19.553,11.162,3.693,3.717,6.402,8.074,8.517,12.816,1.353,3.034,2.099,6.25,2.644,9.533.511,3.083.55,6.172.404,9.257-.093,1.975-.532,3.939-.893,5.893-.214,1.158-.154,1.314,1.023,1.315,3.721.003,7.443-.001,11.164.009,1.649.005,2.462.831,2.472,2.486.008,1.297.01,2.593,0,3.89-.01,1.399-.4,1.766-1.824,1.765-2.473-.002-4.946,0-7.419,0v-.028ZM121.833,76.19v-.003c5.643,0,11.285.002,16.928-.002,1.049,0,1.076-.06,1.31-1.1.505-2.251.959-4.505.886-6.831-.078-2.49.048-5.003-.25-7.465-.827-6.831-3.402-13.005-7.539-18.5-6.006-7.979-13.937-12.984-23.696-15.041-4.366-.92-8.772-1.168-13.225-.478-7.576,1.174-14.401,4.019-20.218,9.042-8.073,6.971-12.705,15.782-13.824,26.424-.65,6.183.217,12.144,2.416,17.939,2.093,5.516,5.235,10.34,9.472,14.445,4.601,4.459,9.999,7.58,16.112,9.447,5.271,1.61,10.639,2.105,16.133,1.363,3.543-.479,6.993-1.275,10.269-2.671,5.729-2.442,10.79-5.887,14.782-10.711,1.737-2.098,3.197-4.427,4.751-6.673.438-.633.202-1.016-.573-1.085-.167-.015-.336-.009-.504-.007-3.624.038-7.248.079-10.872.115-4.367.044-8.734.094-13.102.124-3.721.026-7.442.034-11.163.033-.653,0-.963.295-1.052.919-.152,1.069-.378,2.13-.475,3.203-.074.816-.456,1.272-1.232,1.32-1.338.082-2.681.115-4.022.13-.929.011-1.186-.291-1.112-1.246.082-1.052.21-2.101.285-3.154.081-1.141.041-1.169-1.116-1.17-5.787,0-11.573,0-17.36,0-.744,0-1.489.022-2.233-.002-.849-.027-1.475-.443-1.653-1.143-.22-.861-.202-1.729.318-2.495,1.415-2.084,2.796-4.196,4.29-6.224,3.57-4.849,7.202-9.652,10.8-14.481,4.071-5.464,8.123-10.942,12.205-16.398,1.408-1.881,2.861-3.73,4.335-5.561.694-.862,1.637-1.394,2.722-1.652.762-.181,1.278.273,1.191,1.053-.045.405-.114.807-.173,1.211-.639,4.319-1.284,8.637-1.918,12.957-.818,5.578-1.636,11.156-2.433,16.737-.23,1.614-.469,3.234-.554,4.859-.08,1.534.778,2.414,2.303,2.595.738.088,1.483.165,2.225.167,5.522.014,11.045.007,16.567.007ZM84.296,76.199v-.004c2.065,0,4.13-.004,6.195.002.937.003,1.714-.323,2.386-.99,1.247-1.237,1.519-2.848,1.758-4.465.905-6.099,1.804-12.198,2.663-18.304.132-.935.108-1.906.035-2.851-.054-.698-.528-.972-1.186-.695-.506.213-1.019.557-1.364.978-1.019,1.242-1.951,2.555-2.926,3.834-4.858,6.374-9.722,12.743-14.571,19.124-.33.435-.61.927-.816,1.433-.415,1.022-.017,1.7,1.058,1.89.258.046.525.046.789.046,1.993.004,3.986.002,5.978.002Z" fill="#000" stroke-width="0"/>
    <path d="M69.089,113.277c3.031,1.405,1.772,5.256-.496,6.406-1.17.593-2.385.853-3.688.635-1.245-.209-2.037-1.024-2.07-2.293-.022-.832.131-1.668.202-2.503.077-.907.164-1.814.217-2.722.024-.407.086-.789-.467-1.047-.516-.241-.358-1.433.224-1.992.799-.767,1.828-1.022,2.882-1.172.377-.054.767-.046,1.149-.022,2.494.156,3.582,2.313,2.232,4.411-.063.098-.122.199-.184.301ZM64.829,116.576c-.023.685.227,1.174.924,1.311.891.174,1.77.096,2.568-.405.493-.309.778-.746.634-1.328-.142-.575-.631-.758-1.164-.778-.43-.016-.862.052-1.292.045-.622-.01-1.028-.432-1.127-1.095-.093-.619.274-.809.775-1.008.496-.197.992-.486,1.371-.856.401-.391.291-1.083-.09-1.339-.443-.298-1.788-.262-1.982.057-.035.057-.039.137-.047.207-.182,1.643-.362,3.287-.571,5.189Z" fill="#000" stroke-width="0"/>
    <path d="M138.703,113.916c.659-.408,1.221-.894,1.873-1.133,1.759-.645,3.279.319,3.462,2.183.162,1.654-.307,3.153-1.497,4.344-1.098,1.099-2.404,1.431-3.884.803-.103-.044-.214-.068-.469-.147,0,.838-.032,1.593.02,2.343.015.219.225.493.424.618.526.331.459.732.23,1.176-.342.661-1.231,1.037-1.974.85-.647-.163-1.054-.696-.971-1.562.128-1.334.402-2.653.552-3.985.136-1.209.242-2.427.246-3.642.001-.331-.346-.756-.651-.973-.479-.34-.533-.699-.315-1.169.271-.583,1.071-1.046,1.712-1,.817.06,1.121.626,1.243,1.292ZM142.202,116.034c-.123-.189-.28-.662-.608-.883-.518-.349-1.176-.222-1.583.211-.478.509-.815,1.152-1.183,1.756-.055.09.012.324.101.42.427.461,1.574.637,2.223.347.682-.305.969-.881,1.05-1.851Z" fill="#000" stroke-width="0"/>
    <path d="M90.195,113.684c.546-.305,1.088-.721,1.7-.927,1.738-.584,3.254.391,3.409,2.207.145,1.704-.348,3.236-1.607,4.449-1.193,1.148-2.523,1.272-4.319.443-.145.11-.284.293-.451.325-.33.062-.74.157-.993.015-.19-.106-.28-.568-.254-.857.172-1.909.455-3.809.565-5.72.078-1.36-.038-2.724-.69-3.997-.356-.695.016-1.325.817-1.634.712-.274,1.415,0,1.565.78.185.956.2,1.948.251,2.926.035.68.007,1.364.007,1.989ZM93.451,116.318c.006-.95-.621-1.459-1.506-1.271-.782.166-1.817,1.375-1.844,2.181-.004.12.068.29.162.357.667.471,1.408.62,2.166.289.673-.294.971-.885,1.022-1.555Z" fill="#000" stroke-width="0"/>
    <path d="M120.757,114.413c.277-.308.408-.504.585-.642.449-.348.876-.782,1.389-.981,1.881-.73,3.37.513,3.051,2.505-.091.566-.344,1.121-.347,1.682-.002.395.191.908.479,1.158.353.306.779.453.617,1.043-.168.611-.522,1.018-1.157,1.135-1.111.204-1.986-.446-2.022-1.662-.024-.798.237-1.601.312-2.407.034-.37-.071-.753-.113-1.13-.447.099-1.023.056-1.316.324-.887.812-1.398,1.874-1.485,3.096-.073,1.023-.466,1.618-1.242,1.794-.821.187-1.161-.14-1.088-.979.195-2.241.453-4.482.508-6.727.024-.97-.344-1.965-.623-2.922-.236-.81-.019-1.388.796-1.703.747-.289,1.455-.009,1.573.837.181,1.294.174,2.617.21,3.929.014.488-.073.978-.129,1.652Z" fill="#000" stroke-width="0"/>
    <path d="M77.116,119.112c-.186.172-.339.317-.496.457-.978.872-2.357,1.099-3.406.563-.976-.499-1.45-1.578-1.302-2.962.333-3.108,3.416-5.226,6.428-4.417,1.197.321,1.662.965,1.428,2.008-.046.204-.118.479-.269.569-.913.543-.549,1.381-.49,2.117.02.256.275.601.513.71.428.197.806.362.706.912-.103.565-.333,1.048-.947,1.241-.777.245-1.501-.02-1.918-.723-.082-.138-.148-.285-.246-.475ZM76.07,114.9c-.911-.007-1.645.314-2.057,1.17-.323.672-.163,1.488.33,1.838.474.337,1.299.281,1.774-.253.386-.433.718-.964.91-1.51.367-1.044.179-1.24-.957-1.245Z" fill="#000" stroke-width="0"/>
    <path d="M98.705,117.316c.269.649.744.986,1.3.913.688-.09,1.341-.414,2.023-.584.331-.082.692-.043,1.04-.059-.007.351.113.776-.04,1.042-.912,1.581-3.406,2.27-5.026,1.434-.89-.46-1.271-1.241-1.418-2.201-.365-2.384,1.278-4.778,3.609-5.199.258-.046.526-.066.787-.053,1.198.058,2.074.679,2.306,1.613.242.975-.28,2.105-1.243,2.698-1.023.63-2.132.633-3.337.396ZM98.891,115.528c.02.094.04.189.06.283.55-.04,1.108-.043,1.647-.144.163-.031.276-.332.412-.51-.175-.129-.337-.344-.526-.371-.685-.097-1.266.09-1.594.741Z" fill="#000" stroke-width="0"/>
    <path d="M134.723,116.048c-.016,2.904-2.212,4.808-4.923,4.268-1.152-.229-1.909-1.057-2.004-2.223-.029-.357-.037-.723.009-1.076.076-.593.278-1.139-.12-1.752-.17-.261-.033-.882.176-1.202,1.049-1.606,4.444-1.973,5.858-.681.718.655,1.011,1.434,1.004,2.666ZM131.301,114.935c-1.108-.02-1.621.511-1.634,1.692-.01.942.553,1.49,1.538,1.496,1.024.006,1.75-.679,1.776-1.672.025-.972-.554-1.494-1.68-1.515Z" fill="#000" stroke-width="0"/>
    <path d="M112.965,115.186c.529.098,1.061.184,1.586.298.942.204,1.944.345,2.181,1.542.201,1.017-.437,2.316-1.491,2.902-1.218.677-2.482.67-3.719.028-.55-.286-.852-.766-.825-1.408.033-.786.528-1.041,1.273-.808.671.21,1.387.292,2.09.375.233.027.485-.118.751-.356-.177-.068-.349-.16-.532-.198-.516-.107-1.042-.173-1.556-.29-1.553-.355-2.103-1.497-1.425-2.934.797-1.691,3.77-2.365,5.217-1.184.476.388.538.943.165,1.469-.45.634-1.126.87-1.652.527-.673-.438-1.345-.523-2.054-.218l-.008.258Z" fill="#000" stroke-width="0"/>
    <path d="M107.284,113.211c.73-.222,1.361-.515,2.014-.584.616-.065,1.106.285,1.185.992.069.62-.378,1.434-.906,1.574-.185.049-.455.029-.602-.077-.62-.444-.985-.086-1.163.423-.193.554-.262,1.16-.316,1.75-.047.522.041,1.056-.002,1.58-.074.91-.711,1.513-1.526,1.512-.679,0-.887-.261-.804-.939.14-1.136.282-2.273.371-3.414.045-.574-.122-1.066-.764-1.313-.418-.161-.484-.544-.305-.968.522-1.239,1.905-1.432,2.817-.536Z" fill="#000" stroke-width="0"/>
    <path d="M83.901,113.224c.768-.234,1.396-.533,2.046-.595.688-.066,1.139.415,1.186,1.001.05.622-.413,1.437-.933,1.564-.188.046-.459.024-.606-.084-.585-.427-.93-.086-1.128.384-.19.453-.286.963-.327,1.456-.054.643.018,1.296-.022,1.942-.053.852-.592,1.395-1.395,1.48-.768.081-1.018-.254-.912-1.018.162-1.155.265-2.321.344-3.485.034-.502-.164-.908-.705-1.129-.511-.208-.493-.663-.297-1.1.523-1.161,1.991-1.299,2.748-.416Z" fill="#000" stroke-width="0"/>
    <path d="M111.405,45.71c.112-.283.169-.607.344-.844,2.098-2.83,4.41-5.444,7.479-7.281,1.667-.998,3.474-1.212,5.343-.888,1.682.292,3.293,2.105,3.648,3.973.646,3.404.028,6.643-1.381,9.742-2.194,4.826-5.466,8.884-9.15,12.644-.734.749-1.379,1.596-1.986,2.453-.533.754-.283,1.386.63,1.526,1.037.159,2.1.225,3.15.213,1.655-.019,3.307-.185,4.962-.198,1.322-.011,2.228-.599,2.883-1.69.416-.692.848-1.374,1.441-2.007-.097.609-.188,1.219-.292,1.826-.321,1.867-.602,3.742-.997,5.593-.145.677-.5,1.339-.883,1.926-.4.612-1.054.838-1.814.835-4.897-.018-9.793-.013-14.69-.011-.608,0-1.158-.106-1.451-.718-.292-.609.041-1.093.41-1.498,1.665-1.826,3.35-3.632,5.042-5.433,2.984-3.177,5.7-6.565,7.765-10.412,1.558-2.903,2.465-5.996,1.809-9.348-.851-4.345-3.894-5.263-7.626-3.758-1.501.605-2.61,1.763-3.685,2.938-.206.225-.472.396-.71.591-.08-.057-.16-.115-.24-.172Z" fill="#000" stroke-width="0"/>
    <path d="M92.04,41.617c.181.813.545,1.06,1.245.883.392-.099.762-.284,1.151-.398.11-.032.316.012.366.091.051.081,0,.27-.066.375-.45.718-1.829,1.296-2.657,1.13-.868-.174-1.341-.851-1.212-1.732.281-1.909,1.679-3.24,3.332-3.091.381.035.95.263,1.052.542.134.368.017.954-.211,1.304-.694,1.066-1.781,1.158-3,.895ZM92.31,40.69c.463.359.933.364,1.384.072.146-.094.305-.367.265-.501-.044-.149-.315-.335-.476-.324-.494.032-.977.158-1.173.753Z" fill="#000" stroke-width="0"/>
    <path d="M87.731,43.756c-.288-.04-.601-.057-.901-.129-.823-.197-1.112-.663-.915-1.482.236-.978.557-1.939.723-2.928.116-.694.009-1.422.053-2.132.017-.277.098-.689.282-.785.302-.158.723-.165,1.07-.104.087.015.17.551.112.816-.293,1.334-.653,2.653-.951,3.986-.248,1.109.073,1.459,1.223,1.349.474-.045.936-.204,1.41-.271.161-.023.424.029.489.137.07.117.019.379-.074.511-.61.87-1.567.911-2.522,1.03Z" fill="#000" stroke-width="0"/>
  </g>
  <rect y="0" width="522" height="150" fill="none" stroke-width="0"/>
</svg>