<?xml version="1.0" encoding="UTF-8"?>
<svg id="Calque_1" data-name="Calque 1" xmlns="http://www.w3.org/2000/svg" viewBox="0 0 522 150">
  <defs>
    <style>
      .cls-1 {
        fill: #272824;
      }

      .cls-1, .cls-2 {
        stroke-width: 0px;
      }

      .cls-2 {
        fill: #1d1d1b;
      }
    </style>
  </defs>
  <g>
    <g>
      <path class="cls-2" d="M258.36,24.57h1.82v8.26h5.12v1.54h-6.94v-9.8Z"/>
      <path class="cls-2" d="M274.09,32.85v1.53h-7.35v-9.8h7.15v1.53h-5.33v2.55h4.73v1.5h-4.73v2.7h5.53Z"/>
      <path class="cls-2" d="M288.02,32.15h-1.74v2.23h-1.76v-2.23h-5.38v-1.26l4.83-6.31h1.95l-4.55,6.03h3.21v-1.97h1.71v1.97h1.74v1.54Z"/>
      <path class="cls-2" d="M295.85,32.83v1.54h-7.22v-1.22l3.89-3.7c.44-.42.73-.79.89-1.1.15-.31.23-.62.23-.93,0-.46-.15-.81-.46-1.05-.31-.24-.76-.36-1.36-.36-1,0-1.76.34-2.3,1.02l-1.27-.98c.38-.51.9-.91,1.55-1.2.65-.29,1.37-.43,2.18-.43,1.06,0,1.91.25,2.55.76.63.5.95,1.19.95,2.06,0,.53-.11,1.03-.34,1.5-.22.47-.65,1-1.29,1.6l-2.62,2.49h4.62Z"/>
      <path class="cls-2" d="M309.69,30.16c.32.42.48.93.48,1.55,0,.85-.33,1.5-.98,1.97s-1.61.69-2.86.69h-4.87v-9.8h4.59c1.16,0,2.05.23,2.67.68.63.45.94,1.08.94,1.87,0,.49-.11.92-.34,1.29-.22.37-.53.66-.92.87.54.18.97.47,1.29.89ZM303.28,26v2.7h2.58c.63,0,1.12-.11,1.46-.34.34-.23.51-.56.51-1s-.17-.79-.51-1.02c-.34-.23-.83-.34-1.46-.34h-2.58ZM308.34,31.53c0-.94-.71-1.41-2.11-1.41h-2.94v2.83h2.94c1.41,0,2.11-.47,2.11-1.41Z"/>
      <path class="cls-2" d="M318.47,32.1h-4.9l-.97,2.27h-1.88l4.41-9.8h1.79l4.42,9.8h-1.9l-.98-2.27ZM317.87,30.68l-1.85-4.28-1.83,4.28h3.68Z"/>
      <path class="cls-2" d="M329.01,34.37l-2-2.87c-.08,0-.21.01-.38.01h-2.21v2.86h-1.82v-9.8h4.03c.85,0,1.59.14,2.22.42.63.28,1.11.68,1.45,1.2s.5,1.14.5,1.86-.18,1.37-.54,1.9-.88.93-1.55,1.19l2.25,3.22h-1.96ZM328.36,26.62c-.41-.34-1.01-.5-1.81-.5h-2.13v3.91h2.13c.79,0,1.4-.17,1.81-.51s.62-.82.62-1.45-.21-1.11-.62-1.44Z"/>
      <path class="cls-2" d="M341.07,30.16c.32.42.48.93.48,1.55,0,.85-.33,1.5-.98,1.97s-1.61.69-2.86.69h-4.87v-9.8h4.59c1.16,0,2.05.23,2.67.68.62.45.94,1.08.94,1.87,0,.49-.11.92-.34,1.29s-.53.66-.92.87c.54.18.97.47,1.29.89ZM334.66,26v2.7h2.58c.63,0,1.12-.11,1.46-.34s.51-.56.51-1-.17-.79-.51-1.02c-.34-.23-.83-.34-1.46-.34h-2.58ZM339.71,31.53c0-.94-.7-1.41-2.11-1.41h-2.94v2.83h2.94c1.41,0,2.11-.47,2.11-1.41Z"/>
      <path class="cls-2" d="M350.84,32.85v1.53h-7.35v-9.8h7.15v1.53h-5.33v2.55h4.73v1.5h-4.73v2.7h5.53Z"/>
      <path class="cls-2" d="M359.28,34.37l-2-2.87c-.08,0-.21.01-.38.01h-2.21v2.86h-1.82v-9.8h4.03c.85,0,1.59.14,2.22.42.63.28,1.11.68,1.45,1.2s.5,1.14.5,1.86-.18,1.37-.54,1.9-.88.93-1.55,1.19l2.25,3.22h-1.96ZM358.62,26.62c-.41-.34-1.01-.5-1.81-.5h-2.13v3.91h2.13c.79,0,1.4-.17,1.81-.51s.62-.82.62-1.45-.21-1.11-.62-1.44Z"/>
      <path class="cls-2" d="M363.95,34.19c-.71-.21-1.26-.5-1.67-.85l.63-1.41c.4.32.89.58,1.48.78.58.2,1.17.3,1.76.3.73,0,1.27-.12,1.63-.35.36-.23.54-.54.54-.92,0-.28-.1-.51-.3-.69-.2-.18-.45-.32-.76-.43-.31-.1-.73-.22-1.26-.35-.75-.18-1.35-.35-1.81-.53-.46-.18-.86-.45-1.19-.83-.33-.38-.5-.89-.5-1.53,0-.54.15-1.03.44-1.48.29-.44.74-.79,1.33-1.06s1.32-.39,2.18-.39c.6,0,1.19.08,1.76.22.58.15,1.08.36,1.5.64l-.57,1.41c-.43-.25-.88-.44-1.34-.57-.47-.13-.92-.2-1.36-.2-.72,0-1.25.12-1.6.36-.35.24-.53.57-.53.97,0,.28.1.51.3.69.2.18.46.32.76.42.31.1.73.22,1.26.35.73.17,1.33.34,1.79.52.47.18.87.46,1.2.83.33.37.5.88.5,1.51,0,.54-.15,1.03-.44,1.47s-.74.79-1.34,1.05c-.6.26-1.33.39-2.18.39-.76,0-1.49-.11-2.19-.32Z"/>
      <path class="cls-2" d="M380.62,24.57v9.8h-1.82v-4.2h-5.07v4.2h-1.82v-9.8h1.82v4.05h5.07v-4.05h1.82Z"/>
      <path class="cls-2" d="M385.13,33.86c-.8-.43-1.43-1.04-1.89-1.81-.46-.77-.69-1.63-.69-2.58s.23-1.81.69-2.58c.46-.77,1.09-1.37,1.89-1.81s1.7-.65,2.7-.65,1.9.22,2.7.65,1.43,1.03,1.89,1.8c.46.77.69,1.63.69,2.59s-.23,1.83-.69,2.59c-.46.76-1.09,1.36-1.89,1.8-.8.43-1.7.65-2.7.65s-1.9-.22-2.7-.65ZM389.59,32.47c.52-.29.93-.7,1.23-1.23.3-.53.45-1.12.45-1.77s-.15-1.24-.45-1.77c-.3-.53-.71-.94-1.23-1.23-.52-.29-1.11-.44-1.76-.44s-1.24.15-1.76.44-.93.71-1.23,1.23-.45,1.12-.45,1.77.15,1.24.45,1.77.71.94,1.23,1.23c.52.29,1.11.44,1.76.44s1.24-.15,1.76-.44Z"/>
      <path class="cls-2" d="M401.29,24.99c.63.28,1.11.68,1.45,1.2.34.52.5,1.14.5,1.86s-.17,1.33-.5,1.86c-.34.53-.82.93-1.45,1.21s-1.37.42-2.22.42h-2.21v2.83h-1.82v-9.8h4.03c.85,0,1.59.14,2.22.42ZM400.79,29.5c.41-.34.62-.82.62-1.44s-.21-1.11-.62-1.44c-.41-.34-1.01-.5-1.81-.5h-2.13v3.89h2.13c.79,0,1.4-.17,1.81-.5Z"/>
      <path class="cls-2" d="M408.52,29.75h3.85v1.46h-3.85v-1.46Z"/>
      <path class="cls-2" d="M425.56,25.97l-3.68,8.4h-1.19l-3.7-8.4h1.3l3.02,6.9,3.05-6.9h1.2Z"/>
      <path class="cls-2" d="M427,34.02c-.5-.28-.9-.67-1.18-1.16s-.43-1.05-.43-1.67.14-1.18.43-1.67c.28-.49.68-.88,1.18-1.15.5-.28,1.07-.41,1.7-.41s1.2.14,1.7.41c.5.28.89.66,1.18,1.15.28.49.43,1.05.43,1.67s-.14,1.18-.43,1.67c-.28.49-.68.88-1.18,1.16-.5.28-1.07.42-1.7.42s-1.2-.14-1.7-.42ZM429.8,33.15c.32-.19.58-.45.76-.79.18-.34.28-.73.28-1.17s-.09-.83-.28-1.17c-.18-.34-.44-.6-.76-.79-.32-.18-.69-.28-1.1-.28s-.77.09-1.1.28c-.32.18-.58.45-.77.79s-.28.73-.28,1.17.09.83.28,1.17.44.6.77.79c.32.19.69.28,1.1.28s.77-.09,1.1-.28Z"/>
      <path class="cls-2" d="M437.18,34c-.17.14-.38.25-.62.33s-.5.11-.77.11c-.64,0-1.14-.17-1.49-.52-.35-.34-.53-.84-.53-1.48v-3.49h-1.08v-.95h1.08v-1.39h1.15v1.39h1.82v.95h-1.82v3.44c0,.34.09.61.26.79.17.18.42.28.74.28.35,0,.65-.1.9-.3l.36.83Z"/>
      <path class="cls-2" d="M440.56,28.24c.39-.19.87-.29,1.43-.29v1.12c-.06,0-.15-.01-.26-.01-.62,0-1.11.19-1.47.56s-.53.9-.53,1.59v3.17h-1.15v-6.36h1.1v1.07c.2-.37.5-.65.89-.84Z"/>
      <path class="cls-2" d="M449.07,31.58h-5.16c.07.56.32,1.01.74,1.35.42.34.94.51,1.57.51.76,0,1.37-.26,1.84-.77l.64.74c-.29.34-.65.59-1.07.77-.43.18-.91.26-1.43.26-.67,0-1.27-.14-1.79-.41-.52-.28-.92-.66-1.21-1.16s-.43-1.06-.43-1.68.14-1.17.41-1.67c.28-.5.66-.88,1.14-1.16.48-.28,1.03-.41,1.64-.41s1.15.14,1.63.41c.48.28.85.66,1.12,1.16.27.5.4,1.06.4,1.7,0,.09,0,.2-.02.35ZM444.56,29.43c-.37.34-.59.78-.65,1.32h4.08c-.06-.54-.28-.97-.65-1.31-.37-.34-.83-.51-1.39-.51s-1.01.17-1.39.5Z"/>
      <path class="cls-2" d="M454.95,34.02c-.51-.28-.91-.67-1.19-1.16s-.43-1.05-.43-1.67.14-1.18.43-1.67c.29-.49.69-.88,1.19-1.15.51-.28,1.09-.41,1.73-.41.58,0,1.09.12,1.54.35.45.23.8.57,1.05,1.01l-.88.56c-.2-.3-.45-.53-.74-.68-.3-.15-.62-.23-.98-.23-.42,0-.79.09-1.12.28-.33.18-.59.45-.78.79-.19.34-.28.73-.28,1.17s.09.84.28,1.18c.19.34.45.6.78.79.33.18.71.28,1.12.28.36,0,.69-.08.98-.23.3-.15.54-.38.74-.68l.88.55c-.25.44-.6.78-1.05,1.01-.45.24-.97.35-1.54.35-.65,0-1.23-.14-1.73-.42Z"/>
      <path class="cls-2" d="M461.69,34.02c-.5-.28-.9-.67-1.18-1.16s-.43-1.05-.43-1.67.14-1.18.43-1.67c.28-.49.68-.88,1.18-1.15.5-.28,1.07-.41,1.7-.41s1.2.14,1.7.41c.5.28.89.66,1.18,1.15.28.49.43,1.05.43,1.67s-.14,1.18-.43,1.67c-.28.49-.68.88-1.18,1.16-.5.28-1.07.42-1.7.42s-1.2-.14-1.7-.42ZM464.49,33.15c.32-.19.58-.45.76-.79s.28-.73.28-1.17-.09-.83-.28-1.17-.44-.6-.76-.79c-.32-.18-.69-.28-1.1-.28s-.77.09-1.1.28c-.32.18-.58.45-.77.79s-.28.73-.28,1.17.09.83.28,1.17.44.6.77.79c.32.19.69.28,1.1.28s.77-.09,1.1-.28Z"/>
      <path class="cls-2" d="M468.31,26.57c-.15-.14-.22-.32-.22-.53s.07-.39.22-.53.33-.22.56-.22.41.07.56.21.22.31.22.52-.07.4-.22.55c-.15.15-.33.22-.56.22s-.41-.07-.56-.22ZM468.29,28.01h1.15v6.36h-1.15v-6.36Z"/>
      <path class="cls-2" d="M472.93,27.46v.55h1.85v.95h-1.82v5.41h-1.15v-5.41h-1.08v-.95h1.08v-.56c0-.63.18-1.13.55-1.5.37-.37.88-.55,1.55-.55.26,0,.5.03.72.1.22.06.42.16.58.28l-.35.88c-.26-.2-.56-.3-.89-.3-.69,0-1.03.37-1.03,1.12Z"/>
      <path class="cls-2" d="M477.17,27.46v.55h1.85v.95h-1.82v5.41h-1.15v-5.41h-1.08v-.95h1.08v-.56c0-.63.18-1.13.55-1.5s.88-.55,1.55-.55c.26,0,.5.03.72.1.22.06.42.16.58.28l-.35.88c-.26-.2-.56-.3-.89-.3-.69,0-1.03.37-1.03,1.12Z"/>
      <path class="cls-2" d="M485.74,31.58h-5.16c.07.56.32,1.01.74,1.35.42.34.94.51,1.57.51.76,0,1.37-.26,1.84-.77l.64.74c-.29.34-.65.59-1.07.77-.43.18-.91.26-1.43.26-.67,0-1.27-.14-1.79-.41-.52-.28-.92-.66-1.21-1.16s-.43-1.06-.43-1.68.14-1.17.41-1.67c.28-.5.66-.88,1.14-1.16.48-.28,1.03-.41,1.64-.41s1.15.14,1.63.41c.48.28.85.66,1.12,1.16.27.5.4,1.06.4,1.7,0,.09,0,.2-.02.35ZM481.23,29.43c-.37.34-.59.78-.65,1.32h4.08c-.06-.54-.28-.97-.65-1.31-.37-.34-.83-.51-1.39-.51s-1.01.17-1.39.5Z"/>
      <path class="cls-2" d="M493.29,28.01v6.36h-1.09v-.96c-.23.33-.54.58-.92.76-.38.18-.79.27-1.24.27-.85,0-1.52-.23-2-.7-.49-.47-.73-1.16-.73-2.07v-3.66h1.15v3.53c0,.62.15,1.08.44,1.4.3.32.72.47,1.27.47.61,0,1.09-.18,1.44-.55.35-.37.53-.89.53-1.56v-3.29h1.15Z"/>
      <path class="cls-2" d="M497.47,28.24c.39-.19.87-.29,1.43-.29v1.12c-.06,0-.15-.01-.26-.01-.62,0-1.11.19-1.47.56-.36.37-.53.9-.53,1.59v3.17h-1.15v-6.36h1.1v1.07c.2-.37.5-.65.89-.84Z"/>
      <path class="cls-2" d="M501.13,33.03c.15.16.22.35.22.58,0,.12-.01.24-.04.35-.03.11-.08.28-.16.52l-.56,1.67h-.76l.44-1.79c-.15-.06-.27-.15-.37-.28-.09-.13-.14-.29-.14-.46,0-.24.08-.44.23-.59.15-.15.34-.23.58-.23s.41.08.56.23Z"/>
      <path class="cls-2" d="M265.1,48.75c.28.36.42.81.42,1.35,0,.73-.27,1.29-.82,1.68-.55.39-1.35.59-2.39.59h-4.01v-8.4h3.77c.96,0,1.7.19,2.23.58.52.38.79.92.79,1.6,0,.44-.1.82-.31,1.14-.2.32-.48.56-.82.73.49.14.87.38,1.15.74ZM259.5,44.94v2.69h2.46c.62,0,1.09-.11,1.42-.34.33-.23.5-.56.5-1s-.17-.77-.5-1c-.33-.23-.81-.34-1.42-.34h-2.46ZM263.8,51.06c.34-.22.52-.58.52-1.06,0-.94-.68-1.4-2.05-1.4h-2.76v2.8h2.76c.68,0,1.19-.11,1.54-.34Z"/>
      <path class="cls-2" d="M271.56,46.6c.47.43.7,1.08.7,1.93v3.84h-1.09v-.84c-.19.3-.47.52-.82.68-.36.16-.78.23-1.27.23-.71,0-1.28-.17-1.71-.52-.43-.34-.64-.8-.64-1.36s.2-1.01.61-1.35c.41-.34,1.06-.51,1.94-.51h1.82v-.23c0-.5-.14-.88-.43-1.14-.29-.26-.71-.4-1.27-.4-.38,0-.74.06-1.1.19-.36.12-.66.29-.91.5l-.48-.86c.33-.26.72-.47,1.18-.61s.94-.21,1.45-.21c.88,0,1.55.22,2.02.65ZM270.41,51.26c.32-.2.55-.47.7-.83v-.89h-1.78c-.98,0-1.46.33-1.46.98,0,.32.12.57.37.76.25.18.59.28,1.03.28s.82-.1,1.14-.29Z"/>
      <path class="cls-2" d="M276.39,46.24c.39-.19.87-.29,1.43-.29v1.12c-.06,0-.15-.01-.26-.01-.62,0-1.11.19-1.47.56s-.53.9-.53,1.59v3.17h-1.15v-6.36h1.1v1.07c.2-.37.5-.65.89-.84Z"/>
      <path class="cls-2" d="M284.26,46.36c.49.27.87.65,1.15,1.14.28.49.41,1.05.41,1.69s-.14,1.21-.41,1.7c-.28.49-.66.88-1.15,1.15-.49.27-1.04.41-1.66.41-.47,0-.9-.09-1.3-.28-.39-.18-.72-.45-.97-.8v1.01h-1.1v-8.9h1.15v3.5c.26-.34.58-.59.96-.76.38-.17.8-.26,1.26-.26.62,0,1.17.14,1.66.41ZM283.6,51.15c.32-.19.58-.45.77-.79.19-.34.28-.73.28-1.17s-.09-.83-.28-1.17c-.19-.34-.44-.6-.77-.79-.32-.18-.69-.28-1.1-.28s-.76.09-1.09.28c-.33.18-.58.45-.77.79-.18.34-.28.73-.28,1.17s.09.83.28,1.17c.18.34.44.6.77.79.33.19.69.28,1.09.28s.77-.09,1.1-.28Z"/>
      <path class="cls-2" d="M287.43,44.57c-.15-.14-.22-.32-.22-.53s.07-.39.22-.53c.15-.15.33-.22.56-.22s.41.07.56.21c.15.14.22.31.22.52s-.07.4-.22.55c-.15.15-.33.22-.56.22s-.41-.07-.56-.22ZM287.41,46.01h1.15v6.36h-1.15v-6.36Z"/>
      <path class="cls-2" d="M296.48,49.58h-5.16c.07.56.32,1.01.74,1.35.42.34.94.51,1.57.51.76,0,1.37-.26,1.84-.77l.64.74c-.29.34-.65.59-1.07.77-.43.18-.91.26-1.43.26-.67,0-1.27-.14-1.79-.41-.52-.28-.92-.66-1.21-1.16s-.43-1.06-.43-1.68.14-1.17.41-1.67c.28-.5.66-.88,1.14-1.16.48-.28,1.03-.41,1.64-.41s1.15.14,1.63.41c.48.28.85.66,1.12,1.16.27.5.4,1.06.4,1.7,0,.09,0,.2-.02.35ZM291.98,47.43c-.37.34-.59.78-.65,1.32h4.08c-.06-.54-.28-.97-.65-1.31-.37-.34-.83-.51-1.39-.51s-1.01.17-1.39.5Z"/>
      <path class="cls-2" d="M300.1,46.24c.39-.19.87-.29,1.43-.29v1.12c-.06,0-.15-.01-.26-.01-.62,0-1.11.19-1.47.56s-.53.9-.53,1.59v3.17h-1.15v-6.36h1.1v1.07c.2-.37.5-.65.89-.84Z"/>
      <path class="cls-2" d="M263.67,88.37l-1.72-2.46c-.07,0-.18.01-.32.01h-1.9v2.45h-1.56v-8.4h3.46c.73,0,1.36.12,1.9.36.54.24.95.58,1.24,1.03s.43.98.43,1.6-.15,1.18-.46,1.63-.75.8-1.33,1.02l1.93,2.76h-1.68ZM263.1,81.72c-.35-.29-.87-.43-1.55-.43h-1.82v3.35h1.82c.68,0,1.2-.15,1.55-.44s.53-.71.53-1.24-.18-.95-.53-1.24Z"/>
      <path class="cls-2" d="M273.07,79.47v8.9h-1.44v-.83c-.25.3-.55.53-.92.68-.36.15-.77.23-1.21.23-.62,0-1.17-.14-1.66-.41-.49-.27-.88-.66-1.16-1.16-.28-.5-.42-1.07-.42-1.72s.14-1.22.42-1.72c.28-.5.67-.88,1.16-1.15.49-.27,1.05-.41,1.66-.41.42,0,.81.07,1.16.22.35.14.65.36.9.65v-3.29h1.5ZM270.66,86.93c.29-.16.52-.4.68-.7.17-.3.25-.66.25-1.06s-.08-.75-.25-1.06-.4-.54-.68-.7c-.29-.16-.61-.25-.97-.25s-.68.08-.97.25-.52.4-.68.7-.25.66-.25,1.06.08.75.25,1.06c.17.3.4.54.68.7s.61.25.97.25.68-.08.97-.25Z"/>
      <path class="cls-2" d="M281.04,81.96l-2.75,6.41h-1.55l-2.75-6.41h1.56l1.99,4.75,2.05-4.75h1.44Z"/>
      <path class="cls-2" d="M285.74,88.25c-.5-.14-.89-.31-1.19-.52l.58-1.14c.29.19.63.35,1.04.46.4.12.8.17,1.19.17.9,0,1.34-.24,1.34-.71,0-.22-.11-.38-.34-.47-.23-.09-.59-.17-1.1-.25-.53-.08-.96-.17-1.29-.28-.33-.1-.62-.29-.86-.55s-.37-.62-.37-1.09c0-.61.25-1.09.76-1.46.51-.36,1.19-.55,2.06-.55.44,0,.88.05,1.32.15.44.1.8.23,1.08.4l-.58,1.14c-.54-.32-1.16-.48-1.84-.48-.44,0-.77.07-1,.2s-.34.31-.34.52c0,.24.12.41.37.51.24.1.62.19,1.13.28.51.08.93.17,1.26.28.33.1.61.28.85.53.24.25.35.6.35,1.06,0,.6-.26,1.08-.78,1.44s-1.23.54-2.12.54c-.52,0-1.03-.07-1.52-.2Z"/>
      <path class="cls-2" d="M297.67,81.96v6.41h-1.43v-.82c-.24.29-.54.51-.9.67-.36.16-.75.23-1.16.23-.86,0-1.53-.24-2.02-.71s-.74-1.18-.74-2.12v-3.66h1.5v3.46c0,.58.13,1.01.39,1.29s.63.43,1.11.43c.54,0,.96-.17,1.28-.5.32-.33.47-.81.47-1.43v-3.24h1.5Z"/>
      <path class="cls-2" d="M303.35,81.89v1.43c-.13-.02-.24-.04-.35-.04-.58,0-1.04.17-1.37.51-.33.34-.49.83-.49,1.47v3.11h-1.5v-6.41h1.43v.94c.43-.67,1.19-1.01,2.28-1.01Z"/>
      <path class="cls-2" d="M313.49,80.33c.54.24.95.58,1.24,1.03s.43.98.43,1.6-.14,1.14-.43,1.59c-.29.45-.7.8-1.24,1.04s-1.17.36-1.9.36h-1.9v2.42h-1.56v-8.4h3.46c.73,0,1.36.12,1.9.36ZM313.07,84.2c.35-.29.53-.7.53-1.24s-.18-.95-.53-1.24c-.35-.29-.87-.43-1.55-.43h-1.82v3.34h1.82c.68,0,1.2-.14,1.55-.43Z"/>
      <path class="cls-2" d="M316.7,79.47h1.5v8.9h-1.5v-8.9Z"/>
      <path class="cls-2" d="M324.79,82.57c.5.45.75,1.13.75,2.05v3.76h-1.42v-.78c-.18.28-.45.49-.79.64-.34.15-.75.22-1.23.22s-.9-.08-1.26-.25-.64-.39-.83-.68c-.2-.29-.29-.62-.29-.99,0-.58.21-1.04.64-1.39.43-.35,1.1-.52,2.02-.52h1.66v-.1c0-.45-.13-.79-.4-1.03-.27-.24-.67-.36-1.19-.36-.36,0-.71.06-1.06.17-.35.11-.64.27-.88.47l-.59-1.09c.34-.26.74-.45,1.21-.59.47-.14.97-.2,1.5-.2.94,0,1.67.23,2.17.68ZM323.42,87.11c.29-.17.5-.42.62-.74v-.74h-1.55c-.86,0-1.3.28-1.3.85,0,.27.11.49.32.65s.52.24.9.24.71-.09,1-.26Z"/>
      <path class="cls-2" d="M333.04,82.6c.49.47.73,1.17.73,2.1v3.67h-1.5v-3.48c0-.56-.13-.98-.4-1.27-.26-.28-.64-.43-1.13-.43-.55,0-.99.17-1.31.5s-.48.81-.48,1.43v3.24h-1.5v-6.41h1.43v.83c.25-.3.56-.52.94-.67s.8-.23,1.27-.23c.81,0,1.46.24,1.94.71Z"/>
      <path class="cls-2" d="M335.75,80.65c-.18-.17-.28-.39-.28-.64s.09-.47.28-.64.41-.26.68-.26.5.08.68.25.28.37.28.62c0,.26-.09.49-.27.67-.18.18-.41.27-.69.27s-.5-.09-.68-.26ZM335.68,81.96h1.5v6.41h-1.5v-6.41Z"/>
      <path class="cls-2" d="M343,88.02c-.18.14-.39.25-.64.32-.25.07-.52.11-.8.11-.7,0-1.25-.18-1.63-.55-.38-.37-.58-.9-.58-1.61v-3.08h-1.06v-1.2h1.06v-1.46h1.5v1.46h1.72v1.2h-1.72v3.05c0,.31.08.55.23.71.15.16.37.25.66.25.34,0,.62-.09.84-.26l.42,1.07Z"/>
      <path class="cls-2" d="M350.11,81.96l-3,6.92c-.28.7-.62,1.19-1.02,1.47-.4.28-.88.43-1.45.43-.32,0-.64-.05-.95-.16-.31-.1-.57-.25-.77-.43l.6-1.1c.14.14.31.24.51.32s.39.12.59.12c.26,0,.48-.07.65-.2.17-.14.33-.36.47-.68l.11-.25-2.8-6.43h1.56l2.02,4.74,2.03-4.74h1.44Z"/>
      <path class="cls-2" d="M263.52,105.33v1.04h-6.04v-.82l3.42-3.3c.42-.4.7-.75.84-1.04.14-.29.22-.59.22-.88,0-.44-.15-.78-.46-1.03-.31-.24-.75-.37-1.33-.37-.93,0-1.64.3-2.15.91l-.82-.71c.33-.4.76-.71,1.29-.94.53-.22,1.13-.34,1.78-.34.88,0,1.58.21,2.1.63.52.42.78.99.78,1.71,0,.45-.1.87-.29,1.27-.19.4-.56.86-1.09,1.37l-2.57,2.47h4.31Z"/>
      <path class="cls-2" d="M274.26,98.75c.62.52.94,1.24.94,2.15s-.31,1.63-.94,2.15c-.62.52-1.48.78-2.57.78h-2.08v2.54h-1.2v-8.4h3.28c1.09,0,1.94.26,2.57.78ZM273.4,102.3c.4-.32.6-.79.6-1.4s-.2-1.07-.6-1.4c-.4-.32-.98-.49-1.74-.49h-2.04v3.77h2.04c.76,0,1.34-.16,1.74-.49Z"/>
      <path class="cls-2" d="M276.91,97.47h1.15v8.9h-1.15v-8.9Z"/>
      <path class="cls-2" d="M279.96,106.21c-.16-.16-.24-.35-.24-.59s.08-.43.24-.58.35-.23.58-.23.41.08.56.23c.15.15.23.35.23.59s-.08.44-.23.59-.34.23-.56.23-.42-.08-.58-.23Z"/>
      <path class="cls-2" d="M287,106.17c-.59-.2-1.05-.45-1.39-.76l.44-.94c.32.29.73.52,1.23.7.5.18,1.01.27,1.54.27.7,0,1.22-.12,1.56-.35.34-.24.52-.55.52-.94,0-.29-.09-.52-.28-.7s-.42-.32-.7-.41c-.28-.1-.67-.2-1.17-.32-.63-.15-1.14-.3-1.53-.46-.39-.15-.72-.39-1-.7-.28-.32-.41-.74-.41-1.28,0-.45.12-.85.35-1.21.24-.36.59-.65,1.07-.86s1.08-.32,1.79-.32c.5,0,.98.06,1.46.19s.89.31,1.24.55l-.4.96c-.35-.22-.73-.39-1.13-.51-.4-.12-.79-.17-1.18-.17-.68,0-1.19.12-1.53.37s-.51.57-.51.96c0,.29.1.52.29.7.19.18.43.32.71.42.28.1.67.21,1.16.32.63.15,1.14.3,1.52.46.38.15.71.38.99.7.28.31.41.73.41,1.26,0,.44-.12.84-.36,1.21s-.6.65-1.09.86c-.49.21-1.09.32-1.8.32-.63,0-1.24-.1-1.83-.29Z"/>
      <path class="cls-2" d="M298,100.6c.47.43.7,1.08.7,1.93v3.84h-1.09v-.84c-.19.3-.47.52-.82.68-.36.16-.78.23-1.27.23-.71,0-1.28-.17-1.71-.52-.43-.34-.64-.8-.64-1.36s.2-1.01.61-1.35c.41-.34,1.06-.51,1.94-.51h1.82v-.23c0-.5-.14-.88-.43-1.14-.29-.26-.71-.4-1.27-.4-.38,0-.74.06-1.1.19-.36.12-.66.29-.91.5l-.48-.86c.33-.26.72-.47,1.18-.61s.94-.21,1.45-.21c.88,0,1.55.22,2.02.65ZM296.86,105.26c.32-.2.55-.47.7-.83v-.89h-1.78c-.98,0-1.46.33-1.46.98,0,.32.12.57.37.76.25.18.59.28,1.03.28s.82-.1,1.14-.29Z"/>
      <path class="cls-2" d="M300.86,98.57c-.15-.14-.22-.32-.22-.53s.07-.39.22-.53c.15-.15.33-.22.56-.22s.41.07.56.21c.15.14.22.31.22.52s-.07.4-.22.55c-.15.15-.33.22-.56.22s-.41-.07-.56-.22ZM300.84,100.01h1.15v6.36h-1.15v-6.36Z"/>
      <path class="cls-2" d="M309.51,100.65c.48.47.71,1.15.71,2.06v3.66h-1.15v-3.53c0-.62-.15-1.08-.44-1.39-.3-.31-.72-.47-1.27-.47-.62,0-1.12.18-1.48.55-.36.36-.54.89-.54,1.57v3.28h-1.15v-6.36h1.1v.96c.23-.33.55-.58.94-.76.4-.18.85-.26,1.35-.26.81,0,1.45.23,1.93.7Z"/>
      <path class="cls-2" d="M315.94,106c-.17.14-.38.25-.62.33s-.5.11-.77.11c-.64,0-1.14-.17-1.49-.52-.35-.34-.53-.84-.53-1.48v-3.49h-1.08v-.95h1.08v-1.39h1.15v1.39h1.82v.95h-1.82v3.44c0,.34.09.61.26.79.17.18.42.28.74.28.35,0,.65-.1.9-.3l.36.83Z"/>
      <path class="cls-2" d="M328.51,106.37v-6.12s-3.05,5.1-3.05,5.1h-.55l-3.04-5.06v6.08h-1.15v-8.4h.98l3.5,5.9,3.46-5.9h.98v8.4s-1.14,0-1.14,0Z"/>
      <path class="cls-2" d="M336.35,100.6c.47.43.7,1.08.7,1.93v3.84h-1.09v-.84c-.19.3-.47.52-.82.68-.36.16-.78.23-1.27.23-.71,0-1.28-.17-1.71-.52-.43-.34-.64-.8-.64-1.36s.2-1.01.61-1.35c.41-.34,1.06-.51,1.94-.51h1.82v-.23c0-.5-.14-.88-.43-1.14-.29-.26-.71-.4-1.27-.4-.38,0-.74.06-1.1.19-.36.12-.66.29-.91.5l-.48-.86c.33-.26.72-.47,1.18-.61s.94-.21,1.45-.21c.88,0,1.55.22,2.02.65ZM335.21,105.26c.32-.2.55-.47.7-.83v-.89h-1.78c-.98,0-1.46.33-1.46.98,0,.32.12.57.37.76.25.18.59.28,1.03.28s.82-.1,1.14-.29Z"/>
      <path class="cls-2" d="M341.18,100.24c.39-.19.87-.29,1.43-.29v1.12c-.06,0-.15-.01-.26-.01-.62,0-1.11.19-1.47.56s-.53.9-.53,1.59v3.17h-1.15v-6.36h1.1v1.07c.2-.37.5-.65.89-.84Z"/>
      <path class="cls-2" d="M347.87,106c-.17.14-.38.25-.62.33s-.5.11-.77.11c-.64,0-1.14-.17-1.49-.52-.35-.34-.53-.84-.53-1.48v-3.49h-1.08v-.95h1.08v-1.39h1.15v1.39h1.82v.95h-1.82v3.44c0,.34.09.61.26.79.17.18.42.28.74.28.35,0,.65-.1.9-.3l.36.83Z"/>
      <path class="cls-2" d="M349.28,98.57c-.15-.14-.22-.32-.22-.53s.07-.39.22-.53.33-.22.56-.22.41.07.56.21.22.31.22.52-.07.4-.22.55c-.15.15-.33.22-.56.22s-.41-.07-.56-.22ZM349.26,100.01h1.15v6.36h-1.15v-6.36Z"/>
      <path class="cls-2" d="M357.93,100.65c.48.47.71,1.15.71,2.06v3.66h-1.15v-3.53c0-.62-.15-1.08-.44-1.39-.3-.31-.72-.47-1.27-.47-.62,0-1.12.18-1.48.55-.36.36-.54.89-.54,1.57v3.28h-1.15v-6.36h1.1v.96c.23-.33.55-.58.94-.76.4-.18.85-.26,1.35-.26.81,0,1.45.23,1.93.7Z"/>
      <path class="cls-2" d="M361.63,105.03c.15.16.22.35.22.58,0,.12-.01.24-.04.35-.03.11-.08.28-.16.52l-.56,1.67h-.76l.44-1.79c-.15-.06-.27-.15-.37-.28-.09-.13-.14-.29-.14-.46,0-.24.08-.44.23-.59.15-.15.34-.23.58-.23s.41.08.56.23Z"/>
      <path class="cls-2" d="M264.93,122.31h-1.6v2.06h-1.16v-2.06h-4.67v-.84l4.3-5.5h1.3l-4.12,5.3h3.23v-1.82h1.13v1.82h1.6v1.03Z"/>
      <path class="cls-2" d="M272.95,122.31h-1.6v2.06h-1.16v-2.06h-4.67v-.84l4.3-5.5h1.3l-4.12,5.3h3.23v-1.82h1.13v1.82h1.6v1.03Z"/>
      <path class="cls-2" d="M280.03,120.76c.26.34.38.76.38,1.24s-.14.94-.41,1.31c-.27.37-.66.66-1.16.86s-1.1.3-1.78.3-1.26-.1-1.76-.3-.89-.49-1.16-.86c-.27-.37-.41-.81-.41-1.31s.13-.89.38-1.24c.25-.34.62-.61,1.1-.79-.38-.18-.68-.43-.88-.73-.2-.3-.3-.66-.3-1.08,0-.46.13-.87.38-1.21s.61-.61,1.06-.79c.46-.18.98-.28,1.58-.28s1.14.09,1.6.28c.46.18.82.45,1.07.79s.38.75.38,1.21c0,.41-.1.77-.31,1.07-.2.31-.5.55-.88.74.48.18.85.45,1.1.79ZM278.64,123.08c.38-.28.58-.65.58-1.12s-.19-.83-.58-1.1c-.38-.27-.91-.4-1.57-.4s-1.18.13-1.56.4c-.38.27-.56.63-.56,1.1s.19.85.56,1.12c.38.28.9.41,1.56.41s1.19-.14,1.57-.41ZM275.73,117.21c-.33.24-.49.57-.49.99s.16.74.49.98c.32.24.77.36,1.35.36s1.04-.12,1.37-.36c.33-.24.5-.57.5-.98s-.17-.75-.51-.99c-.34-.24-.79-.37-1.36-.37s-1.02.12-1.34.37Z"/>
      <path class="cls-2" d="M286.63,119.58c.44.21.78.51,1.03.89.25.39.37.83.37,1.34s-.13.99-.39,1.39c-.26.4-.62.71-1.07.93-.45.22-.96.33-1.52.33-1.13,0-2-.36-2.61-1.09-.61-.73-.92-1.76-.92-3.1,0-.94.17-1.73.5-2.39s.8-1.16,1.39-1.5c.6-.34,1.29-.51,2.08-.51.41,0,.79.04,1.15.13.36.08.67.21.94.37l-.46.94c-.4-.26-.94-.4-1.61-.4-.87,0-1.56.27-2.05.81-.5.54-.74,1.33-.74,2.36,0,.13,0,.23.01.3.24-.36.57-.63.99-.82.42-.19.89-.28,1.42-.28s1.05.1,1.48.31ZM286.35,123.05c.34-.3.52-.69.52-1.19s-.17-.89-.52-1.18c-.35-.29-.81-.44-1.4-.44-.38,0-.71.07-1,.22-.29.14-.52.34-.68.59-.16.25-.25.52-.25.83s.08.57.23.81.38.44.68.59c.3.15.66.22,1.07.22.55,0,1-.15,1.34-.44Z"/>
      <path class="cls-2" d="M290.59,123.96c-.52-.34-.92-.83-1.22-1.48-.3-.65-.44-1.42-.44-2.3s.15-1.66.44-2.3c.3-.65.7-1.14,1.22-1.48.52-.34,1.11-.51,1.77-.51s1.24.17,1.76.51c.52.34.92.83,1.22,1.48.3.65.44,1.42.44,2.3s-.15,1.66-.44,2.3c-.3.65-.7,1.14-1.22,1.48-.52.34-1.1.51-1.76.51s-1.25-.17-1.77-.51ZM293.97,122.57c.4-.55.61-1.35.61-2.4s-.2-1.85-.61-2.4c-.4-.55-.94-.83-1.61-.83s-1.22.28-1.63.83c-.4.55-.61,1.35-.61,2.4s.2,1.85.61,2.4c.4.55.95.83,1.63.83s1.21-.28,1.61-.83Z"/>
      <path class="cls-2" d="M306.68,116.75c.62.52.94,1.24.94,2.15s-.31,1.63-.94,2.15c-.62.52-1.48.78-2.57.78h-2.08v2.54h-1.2v-8.4h3.28c1.09,0,1.94.26,2.57.78ZM305.82,120.3c.4-.32.6-.79.6-1.4s-.2-1.07-.6-1.4c-.4-.32-.98-.49-1.74-.49h-2.04v3.77h2.04c.76,0,1.34-.16,1.74-.49Z"/>
      <path class="cls-2" d="M310.21,124.02c-.5-.28-.9-.67-1.18-1.16-.28-.49-.43-1.05-.43-1.67s.14-1.18.43-1.67c.28-.49.68-.88,1.18-1.15.5-.28,1.07-.41,1.7-.41s1.2.14,1.7.41c.5.28.89.66,1.18,1.15.28.49.43,1.05.43,1.67s-.14,1.18-.43,1.67-.68.88-1.18,1.16c-.5.28-1.07.42-1.7.42s-1.2-.14-1.7-.42ZM313.01,123.15c.32-.19.58-.45.76-.79.18-.34.28-.73.28-1.17s-.09-.83-.28-1.17c-.18-.34-.44-.6-.76-.79-.32-.18-.69-.28-1.1-.28s-.77.09-1.1.28c-.32.18-.58.45-.77.79-.19.34-.28.73-.28,1.17s.09.83.28,1.17c.19.34.44.6.77.79.32.19.69.28,1.1.28s.77-.09,1.1-.28Z"/>
      <path class="cls-2" d="M322.13,118.65c.48.47.71,1.15.71,2.06v3.66h-1.15v-3.53c0-.62-.15-1.08-.44-1.39-.3-.31-.72-.47-1.27-.47-.62,0-1.12.18-1.48.55-.36.36-.54.89-.54,1.57v3.28h-1.15v-6.36h1.1v.96c.23-.33.55-.58.94-.76.4-.18.85-.26,1.35-.26.81,0,1.45.23,1.93.7Z"/>
      <path class="cls-2" d="M328.56,124c-.17.14-.38.25-.62.33s-.5.11-.77.11c-.64,0-1.14-.17-1.49-.52-.35-.34-.53-.84-.53-1.48v-3.49h-1.08v-.95h1.08v-1.39h1.15v1.39h1.82v.95h-1.82v3.44c0,.34.09.61.26.79.17.18.42.28.74.28.35,0,.65-.1.9-.3l.36.83Z"/>
      <path class="cls-2" d="M333.97,124.17c-.59-.2-1.05-.45-1.39-.76l.44-.94c.32.29.73.52,1.23.7.5.18,1.01.27,1.54.27.7,0,1.22-.12,1.56-.35.34-.24.52-.55.52-.94,0-.29-.09-.52-.28-.7s-.42-.32-.7-.41c-.28-.1-.67-.2-1.17-.32-.63-.15-1.14-.3-1.53-.46-.39-.15-.72-.39-1-.7-.28-.32-.41-.74-.41-1.28,0-.45.12-.85.35-1.21.24-.36.59-.65,1.07-.86s1.08-.32,1.79-.32c.5,0,.98.06,1.46.19s.89.31,1.24.55l-.4.96c-.35-.22-.73-.39-1.13-.51-.4-.12-.79-.17-1.18-.17-.68,0-1.19.12-1.53.37s-.51.57-.51.96c0,.29.1.52.29.7.19.18.43.32.71.42.28.1.67.21,1.16.32.63.15,1.14.3,1.52.46.38.15.71.38.99.7.28.31.41.73.41,1.26,0,.44-.12.84-.36,1.21s-.6.65-1.09.86c-.49.21-1.09.32-1.8.32-.63,0-1.24-.1-1.83-.29Z"/>
      <path class="cls-2" d="M344.97,118.6c.47.43.7,1.08.7,1.93v3.84h-1.09v-.84c-.19.3-.47.52-.82.68-.36.16-.78.23-1.27.23-.71,0-1.28-.17-1.71-.52-.43-.34-.64-.8-.64-1.36s.2-1.01.61-1.35c.41-.34,1.06-.51,1.94-.51h1.82v-.23c0-.5-.14-.88-.43-1.14-.29-.26-.71-.4-1.27-.4-.38,0-.74.06-1.1.19-.36.12-.66.29-.91.5l-.48-.86c.33-.26.72-.47,1.18-.61s.94-.21,1.45-.21c.88,0,1.55.22,2.02.65ZM343.82,123.26c.32-.2.55-.47.7-.83v-.89h-1.78c-.98,0-1.46.33-1.46.98,0,.32.12.57.37.76.25.18.59.28,1.03.28s.82-.1,1.14-.29Z"/>
      <path class="cls-2" d="M347.83,116.57c-.15-.14-.22-.32-.22-.53s.07-.39.22-.53c.15-.15.33-.22.56-.22s.41.07.56.21c.15.14.22.31.22.52s-.07.4-.22.55c-.15.15-.33.22-.56.22s-.41-.07-.56-.22ZM347.81,118.01h1.15v6.36h-1.15v-6.36Z"/>
      <path class="cls-2" d="M356.48,118.65c.48.47.71,1.15.71,2.06v3.66h-1.15v-3.53c0-.62-.15-1.08-.44-1.39-.3-.31-.72-.47-1.27-.47-.62,0-1.12.18-1.48.55-.36.36-.54.89-.54,1.57v3.28h-1.15v-6.36h1.1v.96c.23-.33.55-.58.94-.76.4-.18.85-.26,1.35-.26.81,0,1.45.23,1.93.7Z"/>
      <path class="cls-2" d="M362.9,124c-.17.14-.38.25-.62.33s-.5.11-.77.11c-.64,0-1.14-.17-1.49-.52-.35-.34-.53-.84-.53-1.48v-3.49h-1.08v-.95h1.08v-1.39h1.15v1.39h1.82v.95h-1.82v3.44c0,.34.09.61.26.79.17.18.42.28.74.28.35,0,.65-.1.9-.3l.36.83Z"/>
      <path class="cls-2" d="M375.48,124.37v-6.12s-3.05,5.1-3.05,5.1h-.55l-3.04-5.06v6.08h-1.15v-8.4h.98l3.5,5.9,3.46-5.9h.98v8.4s-1.14,0-1.14,0Z"/>
      <path class="cls-2" d="M383.32,118.6c.47.43.7,1.08.7,1.93v3.84h-1.09v-.84c-.19.3-.47.52-.82.68-.36.16-.78.23-1.27.23-.71,0-1.28-.17-1.71-.52-.43-.34-.64-.8-.64-1.36s.2-1.01.61-1.35c.41-.34,1.06-.51,1.94-.51h1.82v-.23c0-.5-.14-.88-.43-1.14-.29-.26-.71-.4-1.27-.4-.38,0-.74.06-1.1.19-.36.12-.66.29-.91.5l-.48-.86c.33-.26.72-.47,1.18-.61s.94-.21,1.45-.21c.88,0,1.55.22,2.02.65ZM382.18,123.26c.32-.2.55-.47.7-.83v-.89h-1.78c-.98,0-1.46.33-1.46.98,0,.32.12.57.37.76.25.18.59.28,1.03.28s.82-.1,1.14-.29Z"/>
      <path class="cls-2" d="M388.15,118.24c.39-.19.87-.29,1.43-.29v1.12c-.06,0-.15-.01-.26-.01-.62,0-1.11.19-1.47.56s-.53.9-.53,1.59v3.17h-1.15v-6.36h1.1v1.07c.2-.37.5-.65.89-.84Z"/>
      <path class="cls-2" d="M394.84,124c-.17.14-.38.25-.62.33s-.5.11-.77.11c-.64,0-1.14-.17-1.49-.52-.35-.34-.53-.84-.53-1.48v-3.49h-1.08v-.95h1.08v-1.39h1.15v1.39h1.82v.95h-1.82v3.44c0,.34.09.61.26.79.17.18.42.28.74.28.35,0,.65-.1.9-.3l.36.83Z"/>
      <path class="cls-2" d="M396.25,116.57c-.15-.14-.22-.32-.22-.53s.07-.39.22-.53.33-.22.56-.22.41.07.56.21.22.31.22.52-.07.4-.22.55c-.15.15-.33.22-.56.22s-.41-.07-.56-.22ZM396.23,118.01h1.15v6.36h-1.15v-6.36Z"/>
      <path class="cls-2" d="M404.9,118.65c.48.47.71,1.15.71,2.06v3.66h-1.15v-3.53c0-.62-.15-1.08-.44-1.39-.3-.31-.72-.47-1.27-.47-.62,0-1.12.18-1.48.55-.36.36-.54.89-.54,1.57v3.28h-1.15v-6.36h1.1v.96c.23-.33.55-.58.94-.76.4-.18.85-.26,1.35-.26.81,0,1.45.23,1.93.7Z"/>
    </g>
    <rect class="cls-1" x="247.12" y="0" width="2" height="150"/>
  </g>
  <g>
    <path class="cls-2" d="M156.27,84.3c-2.52,0-5.04.01-7.56,0-.76,0-1.24.33-1.63.96-1.25,2.02-2.41,4.11-3.84,6-4.26,5.63-9.71,9.8-16.19,12.57-3.52,1.5-7.15,2.63-11,2.92-2.05.15-4.12.51-6.16.41-11.35-.53-21.09-4.76-28.91-13.1-4.75-5.07-7.96-11.03-9.68-17.75-.86-3.37-1.47-6.84-1.37-10.32.21-6.81,1.67-13.34,4.98-19.39,3.14-5.75,7.32-10.56,12.71-14.26,4.9-3.37,10.29-5.63,16.16-6.69,5.66-1.02,11.26-.83,16.84.56,7.57,1.89,14.06,5.63,19.55,11.16,3.69,3.72,6.4,8.07,8.52,12.82,1.35,3.03,2.1,6.25,2.64,9.53.51,3.08.55,6.17.4,9.26-.09,1.97-.53,3.94-.89,5.89-.21,1.16-.15,1.31,1.02,1.31,3.72,0,7.44,0,11.16,0,1.65,0,2.46.83,2.47,2.49,0,1.3,0,2.59,0,3.89,0,1.4-.4,1.77-1.82,1.77-2.47,0-4.95,0-7.42,0v-.03ZM131.22,76.19h0c5.64,0,11.29,0,16.93,0,1.05,0,1.08-.06,1.31-1.1.5-2.25.96-4.51.89-6.83-.08-2.49.05-5-.25-7.47-.83-6.83-3.4-13.01-7.54-18.5-6.01-7.98-13.94-12.98-23.7-15.04-4.37-.92-8.77-1.17-13.22-.48-7.58,1.17-14.4,4.02-20.22,9.04-8.07,6.97-12.71,15.78-13.82,26.42-.65,6.18.22,12.14,2.42,17.94,2.09,5.52,5.24,10.34,9.47,14.45,4.6,4.46,10,7.58,16.11,9.45,5.27,1.61,10.64,2.11,16.13,1.36,3.54-.48,6.99-1.27,10.27-2.67,5.73-2.44,10.79-5.89,14.78-10.71,1.74-2.1,3.2-4.43,4.75-6.67.44-.63.2-1.02-.57-1.09-.17-.01-.34,0-.5,0-3.62.04-7.25.08-10.87.12-4.37.04-8.73.09-13.1.12-3.72.03-7.44.03-11.16.03-.65,0-.96.29-1.05.92-.15,1.07-.38,2.13-.47,3.2-.07.82-.46,1.27-1.23,1.32-1.34.08-2.68.11-4.02.13-.93.01-1.19-.29-1.11-1.25.08-1.05.21-2.1.28-3.15.08-1.14.04-1.17-1.12-1.17-5.79,0-11.57,0-17.36,0-.74,0-1.49.02-2.23,0-.85-.03-1.47-.44-1.65-1.14-.22-.86-.2-1.73.32-2.5,1.42-2.08,2.8-4.2,4.29-6.22,3.57-4.85,7.2-9.65,10.8-14.48,4.07-5.46,8.12-10.94,12.2-16.4,1.41-1.88,2.86-3.73,4.33-5.56.69-.86,1.64-1.39,2.72-1.65.76-.18,1.28.27,1.19,1.05-.05.4-.11.81-.17,1.21-.64,4.32-1.28,8.64-1.92,12.96-.82,5.58-1.64,11.16-2.43,16.74-.23,1.61-.47,3.23-.55,4.86-.08,1.53.78,2.41,2.3,2.59.74.09,1.48.16,2.22.17,5.52.01,11.04,0,16.57,0ZM93.68,76.2h0c2.06,0,4.13,0,6.19,0,.94,0,1.71-.32,2.39-.99,1.25-1.24,1.52-2.85,1.76-4.46.9-6.1,1.8-12.2,2.66-18.3.13-.93.11-1.91.04-2.85-.05-.7-.53-.97-1.19-.7-.51.21-1.02.56-1.36.98-1.02,1.24-1.95,2.56-2.93,3.83-4.86,6.37-9.72,12.74-14.57,19.12-.33.43-.61.93-.82,1.43-.42,1.02-.02,1.7,1.06,1.89.26.05.53.05.79.05,1.99,0,3.99,0,5.98,0Z"/>
    <path class="cls-2" d="M78.48,113.28c3.03,1.41,1.77,5.26-.5,6.41-1.17.59-2.39.85-3.69.63-1.25-.21-2.04-1.02-2.07-2.29-.02-.83.13-1.67.2-2.5.08-.91.16-1.81.22-2.72.02-.41.09-.79-.47-1.05-.52-.24-.36-1.43.22-1.99.8-.77,1.83-1.02,2.88-1.17.38-.05.77-.05,1.15-.02,2.49.16,3.58,2.31,2.23,4.41-.06.1-.12.2-.18.3ZM74.22,116.58c-.02.69.23,1.17.92,1.31.89.17,1.77.1,2.57-.4.49-.31.78-.75.63-1.33-.14-.57-.63-.76-1.16-.78-.43-.02-.86.05-1.29.04-.62-.01-1.03-.43-1.13-1.09-.09-.62.27-.81.78-1.01.5-.2.99-.49,1.37-.86.4-.39.29-1.08-.09-1.34-.44-.3-1.79-.26-1.98.06-.03.06-.04.14-.05.21-.18,1.64-.36,3.29-.57,5.19Z"/>
    <path class="cls-2" d="M148.09,113.92c.66-.41,1.22-.89,1.87-1.13,1.76-.65,3.28.32,3.46,2.18.16,1.65-.31,3.15-1.5,4.34-1.1,1.1-2.4,1.43-3.88.8-.1-.04-.21-.07-.47-.15,0,.84-.03,1.59.02,2.34.02.22.23.49.42.62.53.33.46.73.23,1.18-.34.66-1.23,1.04-1.97.85-.65-.16-1.05-.7-.97-1.56.13-1.33.4-2.65.55-3.98.14-1.21.24-2.43.25-3.64,0-.33-.35-.76-.65-.97-.48-.34-.53-.7-.31-1.17.27-.58,1.07-1.05,1.71-1,.82.06,1.12.63,1.24,1.29ZM151.59,116.03c-.12-.19-.28-.66-.61-.88-.52-.35-1.18-.22-1.58.21-.48.51-.82,1.15-1.18,1.76-.05.09.01.32.1.42.43.46,1.57.64,2.22.35.68-.3.97-.88,1.05-1.85Z"/>
    <path class="cls-2" d="M99.58,113.68c.55-.3,1.09-.72,1.7-.93,1.74-.58,3.25.39,3.41,2.21.15,1.7-.35,3.24-1.61,4.45-1.19,1.15-2.52,1.27-4.32.44-.14.11-.28.29-.45.32-.33.06-.74.16-.99.02-.19-.11-.28-.57-.25-.86.17-1.91.46-3.81.56-5.72.08-1.36-.04-2.72-.69-4-.36-.69.02-1.33.82-1.63.71-.27,1.41,0,1.57.78.18.96.2,1.95.25,2.93.04.68,0,1.36,0,1.99ZM102.84,116.32c0-.95-.62-1.46-1.51-1.27-.78.17-1.82,1.37-1.84,2.18,0,.12.07.29.16.36.67.47,1.41.62,2.17.29.67-.29.97-.88,1.02-1.56Z"/>
    <path class="cls-2" d="M130.14,114.41c.28-.31.41-.5.59-.64.45-.35.88-.78,1.39-.98,1.88-.73,3.37.51,3.05,2.51-.09.57-.34,1.12-.35,1.68,0,.39.19.91.48,1.16.35.31.78.45.62,1.04-.17.61-.52,1.02-1.16,1.13-1.11.2-1.99-.45-2.02-1.66-.02-.8.24-1.6.31-2.41.03-.37-.07-.75-.11-1.13-.45.1-1.02.06-1.32.32-.89.81-1.4,1.87-1.48,3.1-.07,1.02-.47,1.62-1.24,1.79-.82.19-1.16-.14-1.09-.98.19-2.24.45-4.48.51-6.73.02-.97-.34-1.96-.62-2.92-.24-.81-.02-1.39.8-1.7.75-.29,1.45,0,1.57.84.18,1.29.17,2.62.21,3.93.01.49-.07.98-.13,1.65Z"/>
    <path class="cls-2" d="M86.5,119.11c-.19.17-.34.32-.5.46-.98.87-2.36,1.1-3.41.56-.98-.5-1.45-1.58-1.3-2.96.33-3.11,3.42-5.23,6.43-4.42,1.2.32,1.66.96,1.43,2.01-.05.2-.12.48-.27.57-.91.54-.55,1.38-.49,2.12.02.26.28.6.51.71.43.2.81.36.71.91-.1.56-.33,1.05-.95,1.24-.78.24-1.5-.02-1.92-.72-.08-.14-.15-.28-.25-.47ZM85.46,114.9c-.91,0-1.64.31-2.06,1.17-.32.67-.16,1.49.33,1.84.47.34,1.3.28,1.77-.25.39-.43.72-.96.91-1.51.37-1.04.18-1.24-.96-1.24Z"/>
    <path class="cls-2" d="M108.09,117.32c.27.65.74.99,1.3.91.69-.09,1.34-.41,2.02-.58.33-.08.69-.04,1.04-.06,0,.35.11.78-.04,1.04-.91,1.58-3.41,2.27-5.03,1.43-.89-.46-1.27-1.24-1.42-2.2-.37-2.38,1.28-4.78,3.61-5.2.26-.05.53-.07.79-.05,1.2.06,2.07.68,2.31,1.61.24.98-.28,2.1-1.24,2.7-1.02.63-2.13.63-3.34.4ZM108.28,115.53c.02.09.04.19.06.28.55-.04,1.11-.04,1.65-.14.16-.03.28-.33.41-.51-.17-.13-.34-.34-.53-.37-.68-.1-1.27.09-1.59.74Z"/>
    <path class="cls-2" d="M144.11,116.05c-.02,2.9-2.21,4.81-4.92,4.27-1.15-.23-1.91-1.06-2-2.22-.03-.36-.04-.72,0-1.08.08-.59.28-1.14-.12-1.75-.17-.26-.03-.88.18-1.2,1.05-1.61,4.44-1.97,5.86-.68.72.66,1.01,1.43,1,2.67ZM140.69,114.94c-1.11-.02-1.62.51-1.63,1.69-.01.94.55,1.49,1.54,1.5,1.02,0,1.75-.68,1.78-1.67.02-.97-.55-1.49-1.68-1.52Z"/>
    <path class="cls-2" d="M122.35,115.19c.53.1,1.06.18,1.59.3.94.2,1.94.34,2.18,1.54.2,1.02-.44,2.32-1.49,2.9-1.22.68-2.48.67-3.72.03-.55-.29-.85-.77-.83-1.41.03-.79.53-1.04,1.27-.81.67.21,1.39.29,2.09.37.23.03.49-.12.75-.36-.18-.07-.35-.16-.53-.2-.52-.11-1.04-.17-1.56-.29-1.55-.35-2.1-1.5-1.43-2.93.8-1.69,3.77-2.37,5.22-1.18.48.39.54.94.16,1.47-.45.63-1.13.87-1.65.53-.67-.44-1.34-.52-2.05-.22v.26Z"/>
    <path class="cls-2" d="M116.67,113.21c.73-.22,1.36-.51,2.01-.58.62-.06,1.11.29,1.18.99.07.62-.38,1.43-.91,1.57-.18.05-.45.03-.6-.08-.62-.44-.99-.09-1.16.42-.19.55-.26,1.16-.32,1.75-.05.52.04,1.06,0,1.58-.07.91-.71,1.51-1.53,1.51-.68,0-.89-.26-.8-.94.14-1.14.28-2.27.37-3.41.04-.57-.12-1.07-.76-1.31-.42-.16-.48-.54-.3-.97.52-1.24,1.9-1.43,2.82-.54Z"/>
    <path class="cls-2" d="M93.29,113.22c.77-.23,1.4-.53,2.05-.59.69-.07,1.14.41,1.19,1,.05.62-.41,1.44-.93,1.56-.19.05-.46.02-.61-.08-.59-.43-.93-.09-1.13.38-.19.45-.29.96-.33,1.46-.05.64.02,1.3-.02,1.94-.05.85-.59,1.39-1.39,1.48-.77.08-1.02-.25-.91-1.02.16-1.16.26-2.32.34-3.49.03-.5-.16-.91-.71-1.13-.51-.21-.49-.66-.3-1.1.52-1.16,1.99-1.3,2.75-.42Z"/>
    <path class="cls-2" d="M120.79,45.71c.11-.28.17-.61.34-.84,2.1-2.83,4.41-5.44,7.48-7.28,1.67-1,3.47-1.21,5.34-.89,1.68.29,3.29,2.1,3.65,3.97.65,3.4.03,6.64-1.38,9.74-2.19,4.83-5.47,8.88-9.15,12.64-.73.75-1.38,1.6-1.99,2.45-.53.75-.28,1.39.63,1.53,1.04.16,2.1.22,3.15.21,1.65-.02,3.31-.19,4.96-.2,1.32-.01,2.23-.6,2.88-1.69.42-.69.85-1.37,1.44-2.01-.1.61-.19,1.22-.29,1.83-.32,1.87-.6,3.74-1,5.59-.14.68-.5,1.34-.88,1.93-.4.61-1.05.84-1.81.83-4.9-.02-9.79-.01-14.69-.01-.61,0-1.16-.11-1.45-.72-.29-.61.04-1.09.41-1.5,1.66-1.83,3.35-3.63,5.04-5.43,2.98-3.18,5.7-6.56,7.76-10.41,1.56-2.9,2.47-6,1.81-9.35-.85-4.35-3.89-5.26-7.63-3.76-1.5.61-2.61,1.76-3.69,2.94-.21.23-.47.4-.71.59-.08-.06-.16-.11-.24-.17Z"/>
    <path class="cls-2" d="M101.43,41.62c.18.81.54,1.06,1.25.88.39-.1.76-.28,1.15-.4.11-.03.32.01.37.09.05.08,0,.27-.07.38-.45.72-1.83,1.3-2.66,1.13-.87-.17-1.34-.85-1.21-1.73.28-1.91,1.68-3.24,3.33-3.09.38.03.95.26,1.05.54.13.37.02.95-.21,1.3-.69,1.07-1.78,1.16-3,.89ZM101.7,40.69c.46.36.93.36,1.38.07.15-.09.3-.37.26-.5-.04-.15-.32-.33-.48-.32-.49.03-.98.16-1.17.75Z"/>
    <path class="cls-2" d="M97.12,43.76c-.29-.04-.6-.06-.9-.13-.82-.2-1.11-.66-.91-1.48.24-.98.56-1.94.72-2.93.12-.69,0-1.42.05-2.13.02-.28.1-.69.28-.78.3-.16.72-.17,1.07-.1.09.02.17.55.11.82-.29,1.33-.65,2.65-.95,3.99-.25,1.11.07,1.46,1.22,1.35.47-.05.94-.2,1.41-.27.16-.02.42.03.49.14.07.12.02.38-.07.51-.61.87-1.57.91-2.52,1.03Z"/>
  </g>
</svg>