<?xml version="1.0" encoding="UTF-8"?>
<svg id="Calque_1" data-name="Calque 1" xmlns="http://www.w3.org/2000/svg" viewBox="0 0 522 150">
  <defs>
    <style>
      .cls-1 {
        fill: #272824;
      }

      .cls-1, .cls-2, .cls-3 {
        stroke-width: 0px;
      }

      .cls-2 {
        fill: #1d1d1b;
      }

      .cls-3 {
        fill: #5a3417;
      }
    </style>
  </defs>
  <g>
    <g>
      <path class="cls-3" d="M117.64,52.63c-.72.15-1.46.23-2.21.23-.71,0-1.42-.07-2.1-.21-.54.79-1.25,1.61-2.16,2.4,1.23.63,2.71.98,4.25.98s3.04-.35,4.28-.99c-.86-.85-1.54-1.66-2.07-2.4"/>
      <path class="cls-3" d="M110.94,56.18c.77,2.74,2.49,4.66,4.49,4.66s3.72-1.91,4.49-4.66c-1.32.66-2.89,1.01-4.49,1.01s-3.17-.36-4.49-1.01"/>
      <path class="cls-3" d="M118.9,42.58c-.26-1.31-1.73-2.31-3.51-2.31s-3.26,1.02-3.51,2.34c-1.5.6-3.09,2.21-4.69,4.22-2.66,3.33-3.6,7-2.11,8.19,1.49,1.19,4.86-.55,7.52-3.88.8-1,1.44-2.04,1.91-3.02,0,0,.13-.33.43-.26.28.07.16.46.16.46l-.02.08c-.14.6-.5,1.85-1.35,3.26,1.13.19,2.33.18,3.46-.02-1.03-1.6-1.37-2.8-1.48-3.32,0,0-.12-.39.17-.46.3-.07.43.26.43.26.47.99,1.11,2.02,1.91,3.02,2.66,3.33,6.02,5.07,7.52,3.88,1.49-1.19.55-4.86-2.1-8.19-1.62-2.03-3.23-3.66-4.75-4.24"/>
      <path class="cls-3" d="M111.64,39.48c0,.42.06.71.2.92,0,0,3.37-2.81,6.88,0,.13-.18.2-.5.2-.92,0-1.46-.87-2.72-2.11-3.3.44-2.18,1.37-3.15,1.37-3.16.19-.19.19-.49,0-.68-.19-.18-.49-.18-.68,0-.13.14-1.12,1.25-1.6,3.54-.2-.03-.4-.06-.61-.06s-.41.02-.61.06c-.49-2.3-1.47-3.41-1.61-3.55-.19-.19-.48-.19-.68,0-.19.18-.19.49,0,.67,0,.01.93.98,1.37,3.16-1.25.58-2.11,1.84-2.11,3.3"/>
      <path class="cls-3" d="M131.9,34.87l-14.17-8.18s-1.05-.6-2.38-.6c-.8,0-1.55.2-2.23.6l-14.17,8.18c-.09.05-2.31,1.36-2.31,4v16.37c0,.11.03,2.68,2.31,4l14.17,8.18s1.05.6,2.38.6h0c.8,0,1.55-.2,2.23-.6l14.17-8.18c.1-.05,2.31-1.36,2.31-4v-16.37c0-.11-.03-2.68-2.31-4M133.03,55.23c0,1.94-1.65,2.93-1.71,2.97l-14.17,8.18c-.5.29-1.05.44-1.64.44-1.01,0-1.78-.43-1.79-.44l-14.17-8.18c-1.68-.97-1.71-2.89-1.71-2.97v-16.37c0-1.94,1.65-2.93,1.71-2.97l14.17-8.18c.5-.29,1.05-.44,1.64-.44,1.01,0,1.78.43,1.79.44l14.17,8.18c1.68.97,1.71,2.89,1.71,2.97v16.37Z"/>
    </g>
    <path class="cls-3" d="M209.58,80.9c-.35-.19-.72-.28-1.09-.28s-.74.09-1.09.28c-.36.19-.63.47-.83.82-.2.36-.3.73-.3,1.11s.1.75.3,1.1c.19.35.47.63.82.82.35.19.72.29,1.1.29s.76-.1,1.11-.29c.35-.2.62-.47.82-.82.2-.36.29-.72.29-1.1s-.1-.76-.3-1.11c-.2-.35-.48-.63-.84-.82M210.1,83.76c-.17.29-.39.52-.68.69-.29.16-.6.24-.92.24s-.62-.08-.92-.24c-.29-.17-.53-.4-.69-.69-.16-.29-.24-.6-.24-.92s.08-.63.25-.93c.16-.3.4-.53.69-.69.3-.16.6-.24.91-.24s.62.08.91.24c.3.16.53.39.69.69.16.29.25.61.25.93s-.08.62-.24.92"/>
    <path class="cls-3" d="M208.93,82.96c.26-.11.42-.37.42-.68s-.15-.57-.4-.68c-.1-.04-.22-.07-.48-.07h-.78v2.53h.38v-1.01h.49l.54,1.01h.43l-.58-1.07s-.01-.02-.02-.03M208.56,82.7h-.49v-.82h.41c.18,0,.25.02.31.05.12.06.18.19.18.35,0,.26-.15.41-.4.41"/>
    <g>
      <path class="cls-3" d="M89.08,84.56c.87.1,1.62-.37,2.09-.97.33-.41.8-1.52.52-2.46-.11-.38-.38-.73-.7-.92-.49-.28-.96-.42-1.49-.42-.77,0-1.44.3-1.85.82-.42.52-.89,1.69-.62,2.61,0,0,.28,1.15,2.06,1.35"/>
      <path class="cls-3" d="M127.37,94.87c-.24-.28-.7-.36-.89-.13-.13.16-.33.48-.59.89-.41.65-.98,1.54-1.57,2.29-.66.84-2.22,2.35-3.59,2.56-.28.04-.57.04-.84-.02-.92-.2-1.33-1.07-1.47-1.46-.18-.48-.05-.82.4-1.01,1.04-.43,3-1.34,4.49-3.42.89-1.25,2.08-3.56,1.16-5.54-.78-1.67-2.42-1.89-3.73-1.69-.33.05-.64.14-.93.25-1.85.76-3.11,2.37-4.03,3.68-.61.86-1.28,2.19-1.92,3.37l-1.68,2.75c-1.58,2.24-2.57,1.44-2.61,1.42-.16-.12-.26-.41-.29-.82-.1-1.28.73-5.57,1.4-9.45.77-4.46,1.16-6.43,1.23-7.01.23-1.8-.5-2.77-1.32-3.06,0,0-1.67-.7-2.11.75l-.4,1.35s-2.98,13.3-6.68,17.95c-.57.71-1.3.46-1.42.35-.16-.12-.25-.41-.28-.82-.1-1.28.74-5.64,1.41-9.52.77-4.46,1.16-6.43,1.23-7.01.23-1.8-.31-2.64-1.02-2.97,0,0-1.96-1-2.38.76l-.34,1.3c-2.32,9.14-4.32,13.27-5.39,15.55-.73,1.57-1.61,2.46-2.02,2.67-.33.17-.82.16-1.07-.03-.17-.13-.27-.34-.3-.63-.07-.77.09-2.13.21-3.11.04-.31.07-.58.09-.8.03-.33.07-.66.12-.99.13-1.07.32-2.23.2-3.36-.07-.64-.21-1.07-.37-1.3-.48-.73-1.67-1.23-2.53-1.1-.43.07-.76.32-1,.75l-1.39,3.62c-2.09,5.55-4.32,6.95-4.32,6.95-.3.17-.63.13-.79-.02-.2-.18-.13-.75-.08-1.26l.86-6.18c.67-4.26-3.23-4.02-3.23-4.02,0,0-2.46-.11-4.57,3.22-.47.73-.78,1.17-.82,1.23,0,0-.19.27-.37.25-.2-.02-.14-.29-.14-.29.09-.57.09-.92.09-.92.09-3.74-3.05-3.49-3.05-3.49,0,0-2.17-.11-4.28,3.22-.47.73-.78,1.17-.82,1.23,0,0-.16.26-.29.26-.29,0-.22-.3-.22-.3,0-.01.1-.89.1-1.2-.05-3.3-2-3.15-2-3.15-1.31-.03-1.84.95-2.44,2.33-2.94,6.67-4.83,8.4-5.28,8.96-.55.56-1.03.37-1.03.37-.48-.16-.42-.64-.37-1.07l.82-3.82.79-3.68c.2-1.09-.02-2.11-1.29-2.81-1.76-.88-2.13.53-2.13.53-.02.13-.07.31-.1.42-.99-2.07-3.86-1.01-3.86-1.01-2.51.74-3.86,2.85-4.75,4.75-.15.28-1.84,3.24-1.63,7.24.01.53.17,1.15.4,1.7.63,1.51,2.13,1.9,3.4,1.7.21-.03.4-.08.6-.15,1.82-.62,2.73-1.31,3.77-2.81.09-.13.18-.26.26-.38,0,.89.04,2,.71,2.69,1.12,1.16,2.32.79,4.13-1.03h0c2.29-2.36,4-5.51,4.89-7.44.13-.27.23-.5.31-.66.2-.42.4-.61.54-.64.29,0,.24.34.18.9-.23,2.06-.68,4.39-1.02,6.08-.26,1.34-.37,2.26-.37,2.65,0,.35.28.97,1.44.85,0,0,1.89.14,3.05-5.17.68-3.1,2.23-6.27,3.98-6.23,0,0,.2-.01.45.05,1.44.4,1.13,1.91,1.13,1.91-.23,2.06-.67,4.24-1,5.94-.26,1.34-.37,2.26-.37,2.65,0,.35.28.97,1.44.85,0,0,1.9.14,3.05-5.17.05-.23.3-1.16.32-1.38.8-3.35,2.33-5.08,4.05-4.85,0,0,1.97.13,1.29,3.89l-.79,5.29s-.28,2.19,1.83,2.22c2.2.03,4.34-2.36,4.34-2.36.72-.9,1.21-.94,3.87-7.2.13-.32.39-.24.39-.24h.01c.22.09.21.23.13.76,0,.05-.04.17-.08.35-.37,1.5-1.48,6.07.21,7.92.5.54,1.19.8,2.04.77,2.85-.1,5.5-5.31,7.25-9.31,0,0,.2-.56.53-.44.21.08.18.25.15.42-.01.05-.02.09-.04.15-.76,2.82-1.58,6.77-.03,8.47,0,0,.73.9,2.3.71,2.35-.09,3.98-3.65,5.66-7.13.47-.98.78-1.67,1.13-2.4.03-.06.14-.33.4-.22.22.09.15.41.13.47,0,0-1.34,7-.06,8.58.47.58,1.08.76,1.97.72,1.6-.07,2.81-1.62,3.67-2.73l.22-.28c.65-.82,1.22-1.65,1.72-2.46,0,0,.12-.26.37-.2.22.06.24.38.24.38.01.17.16,1.04.26,1.44,0,0,1.3,5.52,6.8,3.35,1.82-.72,3.37-2.38,4.75-4.56.59-.94,1.35-2.21,1.51-2.68.08-.15.04-.34-.1-.5M48.32,95.95c-1.21,2.83-3.13,4.34-4.19,3.89-1.06-.45-1.13-2.35-.17-5.28,1.03-3.11,2.62-4.34,3.76-4.15,1.3.21,1.8,2.71.59,5.54M118.57,91.4c1.18-1.7,2.45-2.29,3.32-1.69.87.61.87,2.03-.31,3.73-1.18,1.7-2.85,2.58-3.72,1.98-.57-.4-.47-2.32.71-4.02"/>
      <path class="cls-3" d="M204.03,87.38c-2.15-.44-2.08,1.72-2.08,1.72,0,0-.07,4.72-.88,7.81h0c-.02.14-.1.35-.14.46-.95,2.85-3.21,1.67-3.21,1.67-.34-.13-.52-.5-.58-.97-.1-.77.02-2.13.11-3.12.02-.3.05-.58.06-.8.06-.93.07-1.16.08-1.7.01-.26.02-.61.04-1.14,0-.09.15-2.29-.71-3.19-.79-.82-1.54-.88-2.09-.82-.49.06-.86.42-1.15,1.15-.38.98-1.19,3.35-1.94,4.8-3.4,6.64-4.81,6.34-4.81,6.34-.77-.03-.16-4.67-.16-4.67.05-.37.8-5.59.8-5.59.18-1.24-.36-1.71-.63-1.85-.27-.13-.67-.15-1.04-.02-.46.16-.68.33-1.08.55-.29.17-.6.34-.91.47-.85.38-1.81.44-2.49.17.6-1.68-.64-2.37-.64-2.37-.3-.2-.65-.26-1.07-.19-.88.17-1.46.74-1.65,1.63-.13.6-.24,1.74.46,2.54.28.32.63.51.96.66,0,0,.33.1-.08,1.02-1.24,2.59-2.21,4.2-2.92,5.21-.51.71-.89,1.12-1.11,1.37-.73.8-1.22.48-1.22.48-.39-.19-.37-.59-.31-1.02l.81-3.77.8-3.73c.2-1.09-.02-2.11-1.29-2.81-1.84-.88-2.13.53-2.13.53-.02.13-.07.31-.1.42-.99-2.07-3.86-1.01-3.86-1.01-2.34.78-3.82,2.91-4.75,4.75-.15.28-1.84,3.24-1.63,7.24.01.53.1,1.06.33,1.61.64,1.51,2.2,1.99,3.47,1.8.21-.03.4-.08.6-.15,1.82-.62,2.73-1.31,3.77-2.81.09-.13.18-.26.26-.38,0,.89.11,2.25.78,2.94,0,0,1.57,1.59,4.06-1.28.61-.63,1.17-1.31,1.69-2.01,1.44-1.87,2.5-3.82,3.17-5.26l.31-.66c.93-2.31,1.91-2.41,2.32-2.34.48.08.65.29.77.74,0,0,.35,1.18.07,3.73,0,0-.48,4.91-.49,5.08,0,0-.27,2.41,2.02,2.41,2.2,0,4-2.34,4-2.34.46-.57.93-1.16,1.79-2.56.6-1.14,2.55-4.57,2.57-4.62.16-.24.36-.19.36-.19.23.08.25.16.19.69v.07c-.24,1.83-.61,6.36,1.3,8.13,0,0,1.29,1.32,4.14.45,0,0,.49-.2.36.27-.2.72-.84,1.95-.92,2.12-.51,1.06-2.43,4.09-3.76,5.04-.6.4-1.01.56-1.67.74-1.59.28-1.37,2.38-1.37,2.38.04.38.03,1.04.62,1.35,0,0,1.75.83,4.32-1.08.56-.41,1.13-.96,1.73-1.65,0,0,6.75-7.29,7.8-21.06.19-2.49-1.02-3.22-2.07-3.44M169.89,95.97c-1.21,2.83-3.12,4.34-4.19,3.89-1.06-.45-1.13-2.35-.16-5.28,1.03-3.11,2.62-4.34,3.76-4.15,1.3.21,1.8,2.71.59,5.54"/>
      <path class="cls-3" d="M37.1,89.15c-1.18-.02-2.64.02-3.93.08.36-2.12.69-4.07,1.13-6,.01-.06.03-.11.04-.17.5.13.4.08.93.2,0,0,5.92,1.17,8.6.36,0,0,2.76-.7,2.5-4.15-.04-.54-.19-1.03-.38-1.19-.29-.25-.59-.05-.68.11-.59.88-1.61,1.23-3.36,1.33-4.45.26-10.75-.86-10.76-.86-3.59-.58-5.53,1.68-5.53,1.68,0,0-1.28,1.25-.84,2.83,0,0,.29.85,1,1.09,0,0,.07.02.08-.04.31-1.24,1.37-1.91,1.37-1.91.6-.44,1.77-.78,3.17-.28-1.31,8.02-2.83,19.17-2.83,19.17-.13,1.33.69,1.71,1.71,1.71,1.13,0,3.07-.91,3.43-1.13-.53-.91-.83-1.96-.83-3.01,0-.88.24-3.13.65-5.96,1.04-.05,2.18-.07,2.98-.08,1.04-.03,2.84.2,3.22-2.04,0,0,.39-1.71-1.66-1.75"/>
      <path class="cls-3" d="M158.29,99.03c0-1.85,1.14-10.07,2.49-16.01.33-1.41.64-2.82.75-3.45.14-.72-.63-.83-1.13-.88-1.43-.14-2.75.14-3.5.72.11.22.06.47-.05.69-.41,1-1.34,3.52-2.94,6.49-1.55,2.89-3.36,6.35-4.85,8.78-.22.36-.43.74-.6.93-.11-.33-.22-.72-.3-1.08-1.11-5.19-1.82-13.48-2.04-15.55-.06-.52-.45-.93-.93-1.1-.14-.05-.3-.08-.3-.08-4.4-.78-6.43,1.53-6.43,1.53,0,0-1.25,1.26-.81,2.84,0,0,.29.85,1,1.09,0,0,.07.02.08-.04.31-1.24,1.37-1.91,1.37-1.91.4-.29,1.03-.53,1.81-.52-.48,1.77-1.27,5.68-1.7,7.31-.47,1.8-2.98,10.47-3.32,11.74-.17.63-.22,1.1-.22,1.38.05.8.58,1.22,1.74,1.22.72,0,1.55-.17,2.51-.5-.22-.47-.36-1-.36-1.71,0-1.44,1.11-5.97,2.43-10.86.11-.41.19-.86.33-1.27.06.14.11.33.17.58.83,3.9,1.97,9.38,2.23,10.48.15.66.81,1.01,1.62,1.06.86.05,1.59-.51,1.95-1.09,1.44-1.97,3.43-6.09,6.03-10.12.28-.41.53-.77.77-1.11-.41,3.73-1.82,11.14-1.82,12.85.06,1.3.69,1.71,1.71,1.71,1.13,0,2.76-.91,3.12-1.13-.53-.91-.8-1.94-.8-2.99"/>
      <polygon class="cls-3" points="58.95 109 61.19 109 61.19 114.66 62.07 114.66 62.07 109 64.29 109 64.29 108.18 58.95 108.18 58.95 109"/>
      <path class="cls-3" d="M68.77,111.84c.68-.27,1.1-.93,1.1-1.75s-.38-1.44-1.02-1.72c-.26-.11-.55-.18-1.22-.18h-1.97v6.48h.89v-2.61h1.34l1.4,2.61h1.01l-1.46-2.7s-.05-.09-.07-.12M67.89,111.22h-1.33v-2.22h1.11c.47,0,.66.05.82.13.32.17.49.51.49.96,0,.69-.42,1.12-1.09,1.12"/>
      <path class="cls-3" d="M79.46,110.99c-.68-.29-1.28-.54-1.28-1.12,0-.46.44-.93,1.17-.93s1.26.49,1.26.49l.13.12.44-.75-.07-.08s-.64-.64-1.76-.64-2.07.79-2.07,1.81c0,1.1.93,1.5,1.75,1.86.72.31,1.34.58,1.34,1.23,0,.55-.45.94-1.1.94-.91,0-1.52-.63-1.52-.64l-.11-.12-.53.69.08.09s.75.84,2.07.84c1.19,0,2.02-.75,2.02-1.81,0-1.19-.97-1.6-1.82-1.96"/>
      <path class="cls-3" d="M85.92,108.07c-1.85,0-3.3,1.45-3.3,3.31s1.45,3.38,3.3,3.38,3.3-1.49,3.3-3.38-1.45-3.31-3.3-3.31M85.92,113.92c-1.34,0-2.38-1.12-2.38-2.54s1.05-2.46,2.38-2.46,2.38,1.08,2.38,2.46-1.05,2.54-2.38,2.54"/>
      <path class="cls-3" d="M94.18,111.95s-.05-.09-.07-.12c.68-.27,1.1-.93,1.1-1.75s-.38-1.44-1.02-1.72c-.26-.11-.55-.18-1.22-.18h-1.97v6.48h.89v-2.61h1.34l1.4,2.61h1.01l-1.46-2.7ZM93.23,111.22h-1.33v-2.22h1.11c.47,0,.66.05.82.13.32.17.49.51.49.96,0,.69-.42,1.12-1.09,1.12"/>
      <path class="cls-3" d="M100.9,112.95c0-1.19-.97-1.6-1.82-1.96-.68-.29-1.28-.54-1.28-1.13,0-.46.44-.93,1.17-.93s1.26.49,1.26.49l.13.12.44-.75-.07-.08s-.64-.64-1.76-.64-2.07.79-2.07,1.81c0,1.1.93,1.5,1.75,1.86.72.31,1.34.58,1.34,1.23,0,.55-.45.94-1.1.94-.91,0-1.52-.63-1.52-.64l-.11-.12-.53.69.08.09s.75.84,2.07.84c1.19,0,2.02-.75,2.02-1.81"/>
      <path class="cls-3" d="M107.87,108.18h-2.14v6.48h2.14c2.01,0,3.25-1.24,3.25-3.24s-1.25-3.23-3.25-3.23M107.8,113.83h-1.19v-4.83h1.19c1.5,0,2.4.9,2.4,2.41s-.9,2.42-2.4,2.42"/>
      <polygon class="cls-3" points="113.83 111.81 116.18 111.81 116.18 110.99 113.83 110.99 113.83 109.01 116.71 109.01 116.71 108.18 112.94 108.18 112.94 114.66 116.87 114.66 116.87 113.83 113.83 113.83 113.83 111.81"/>
      <polygon class="cls-3" points="121.72 108.18 121.72 114.66 125.49 114.66 125.49 113.83 122.61 113.83 122.61 108.18 121.72 108.18"/>
      <path class="cls-3" d="M131.74,114.66l-2.38-6.48h-.85l-2.38,6.48h.94l.71-1.98h2.3l.71,1.98h.94ZM128.06,111.88l.76-2.06c.04-.11.08-.24.12-.36.04.13.08.26.12.36l.75,2.06h-1.74Z"/>
      <path class="cls-3" d="M139.27,111.84c.68-.27,1.1-.93,1.1-1.75s-.38-1.44-1.02-1.72c-.26-.11-.55-.18-1.22-.18h-1.97v6.48h.89v-2.61h1.34l1.4,2.61h1.01l-1.46-2.7s-.05-.09-.07-.12M138.38,111.22h-1.33v-2.22h1.11c.47,0,.66.05.82.13.32.17.49.51.49.96,0,.69-.42,1.12-1.09,1.12"/>
      <path class="cls-3" d="M146.45,112.33c0,1-.61,1.59-1.63,1.59s-1.62-.6-1.62-1.57v-4.17h-.89v4.18c0,1.44,1.01,2.41,2.52,2.41s2.5-.97,2.5-2.41v-4.18h-.89v4.15Z"/>
      <path class="cls-3" d="M154.24,113.14s-.74.78-1.91.78c-1.35,0-2.38-1.1-2.38-2.55s.99-2.45,2.36-2.45c1.09,0,1.79.64,1.79.65l.12.11.49-.67-.08-.08s-.81-.85-2.33-.85c-1.85,0-3.25,1.42-3.25,3.31s1.41,3.38,3.28,3.38c1.57,0,2.44-.97,2.48-1.01l.08-.09-.53-.65-.11.12Z"/>
      <polygon class="cls-3" points="160.78 111 157.46 111 157.46 108.18 156.57 108.18 156.57 114.66 157.46 114.66 157.46 111.83 160.78 111.83 160.78 114.66 161.66 114.66 161.66 108.18 160.78 108.18 160.78 111"/>
      <polygon class="cls-3" points="164.76 111.81 167.12 111.81 167.12 110.99 164.76 110.99 164.76 109.01 167.64 109.01 167.64 108.18 163.87 108.18 163.87 114.66 167.8 114.66 167.8 113.83 164.76 113.83 164.76 111.81"/>
      <path class="cls-3" d="M97.2,119.47c-.18-.17-.47-.35-.91-.35-.92,0-1.56.74-1.56,1.79s.61,1.8,1.52,1.8c.47,0,.78-.19.97-.37v.29h.68v-4.71h-.69v1.54ZM96.31,122.07c-.53,0-.88-.45-.88-1.16s.37-1.15.9-1.15c.61,0,.88.58.88,1.15,0,.85-.47,1.16-.9,1.16"/>
      <path class="cls-3" d="M100.64,119.12c-1,0-1.7.74-1.7,1.8s.75,1.79,1.79,1.79c.76,0,1.25-.46,1.27-.48l.07-.07-.33-.56-.12.12s-.35.35-.88.35c-.61,0-1.03-.39-1.1-1h2.42v-.12s.02-.15.02-.23c0-.8-.45-1.6-1.46-1.6M99.69,120.46c.13-.45.47-.72.93-.72.43,0,.7.27.77.72h-1.7Z"/>
      <path class="cls-3" d="M104.8,119.12c-.48,0-.79.18-.97.37v-.29h-.67v4.71h.69v-1.54c.18.17.48.35.92.35.91,0,1.55-.74,1.55-1.79s-.61-1.8-1.51-1.8M104.72,122.08c-.58,0-.88-.58-.88-1.15,0-.85.47-1.16.9-1.16.53,0,.88.45.88,1.15s-.36,1.16-.9,1.16"/>
      <path class="cls-3" d="M109.64,120.85c0,.58-.37,1.2-1.05,1.2-.47,0-.56-.29-.56-.81v-2.04h-.69v2.16c0,.92.39,1.36,1.19,1.36.52,0,.89-.25,1.12-.5v.43h.68v-3.44h-.69v1.66Z"/>
      <rect class="cls-3" x="111.59" y="117.93" width=".71" height=".8"/>
      <rect class="cls-3" x="111.6" y="119.2" width=".69" height="3.44"/>
      <path class="cls-3" d="M114.76,120.61c-.4-.16-.65-.27-.65-.48,0-.33.35-.36.5-.36.46,0,.69.24.7.25l.12.13.33-.56-.06-.07s-.36-.39-1.08-.39-1.22.41-1.22,1.01c0,.66.59.89,1.07,1.08.4.16.65.27.65.48,0,.28-.28.38-.51.38-.53,0-.85-.34-.85-.34l-.1-.11-.39.52.07.08s.45.51,1.27.51c.71,0,1.22-.43,1.22-1.02,0-.67-.59-.9-1.07-1.08"/>
      <polygon class="cls-3" points="120.58 117.93 120 117.93 118.86 119.06 119.32 119.53 119.89 118.97 119.9 118.96 119.9 121.99 118.9 121.99 118.9 122.64 121.57 122.64 121.57 121.99 120.58 121.99 120.58 117.93"/>
      <path class="cls-3" d="M123.86,117.86c-.9,0-1.52.66-1.52,1.62s.63,1.57,1.51,1.57c.36,0,.7-.11.96-.3-.15.66-.55,1.3-1.3,1.3-.33,0-.58-.14-.58-.14l-.13-.07-.27.63.1.06s.36.2.88.2c1.37,0,2.08-1.33,2.08-2.64s-.71-2.22-1.74-2.22M123.91,120.39c-.53,0-.88-.36-.88-.92s.32-.94.83-.94c.61,0,1,.73,1,1.23,0,.28-.42.63-.95.63"/>
      <path class="cls-3" d="M128.33,120.97c.6-.41,1.28-.88,1.28-1.73,0-.81-.61-1.38-1.48-1.38-1.01,0-1.45.84-1.46.88l-.05.1.54.36.07-.12s.31-.54.88-.54c.47,0,.8.3.8.73,0,.49-.45.8-.97,1.17-.61.42-1.31.9-1.31,1.8,0,.11,0,.21.03.31l.02.1h3.02v-.65h-2.31c.07-.42.49-.7.96-1.02"/>
      <polygon class="cls-3" points="132.36 117.93 131.77 117.93 130.63 119.06 131.09 119.53 131.66 118.97 131.67 118.96 131.67 121.99 130.67 121.99 130.67 122.64 133.34 122.64 133.34 121.99 132.36 121.99 132.36 117.93"/>
      <polygon class="cls-3" points="72.79 111.82 75.15 111.82 75.15 111 72.79 111 72.79 109.02 75.67 109.02 75.67 108.2 71.91 108.2 71.91 114.67 75.83 114.67 75.83 113.85 72.79 113.85 72.79 111.82"/>
      <polygon class="cls-3" points="73.93 106.34 73.16 107.66 74.02 107.66 74.98 106.34 73.93 106.34"/>
    </g>
  </g>
  <g>
    <g>
      <path class="cls-2" d="M260.18,26.08v2.98h4.73v1.54h-4.73v3.75h-1.82v-9.8h7.15v1.53h-5.33Z"/>
      <path class="cls-2" d="M272.25,27.59c.58.53.88,1.32.88,2.39v4.38h-1.65v-.91c-.21.33-.52.58-.92.75-.4.17-.88.26-1.43.26s-1.05-.1-1.47-.29c-.42-.19-.74-.46-.97-.8-.23-.34-.34-.73-.34-1.15,0-.67.25-1.21.75-1.62.5-.41,1.29-.61,2.36-.61h1.93v-.11c0-.52-.16-.92-.47-1.2-.31-.28-.78-.42-1.39-.42-.42,0-.83.06-1.24.2s-.75.31-1.03.55l-.69-1.27c.39-.3.86-.53,1.41-.69.55-.16,1.13-.24,1.75-.24,1.1,0,1.94.26,2.53.79ZM270.66,32.88c.34-.2.58-.49.72-.86v-.87h-1.81c-1.01,0-1.51.33-1.51.99,0,.32.13.57.38.76s.6.28,1.05.28.83-.1,1.17-.3Z"/>
      <path class="cls-2" d="M287.04,27.62c.55.55.83,1.37.83,2.46v4.28h-1.75v-4.06c0-.65-.15-1.15-.43-1.48s-.7-.5-1.25-.5c-.59,0-1.06.19-1.41.58-.35.39-.53.94-.53,1.66v3.79h-1.75v-4.06c0-.65-.15-1.15-.43-1.48s-.7-.5-1.25-.5c-.6,0-1.07.19-1.42.57-.35.38-.52.94-.52,1.67v3.79h-1.75v-7.48h1.67v.95c.28-.34.63-.59,1.05-.77.42-.18.89-.27,1.4-.27.56,0,1.06.1,1.49.31.43.21.78.52,1.03.93.31-.39.7-.7,1.19-.92.48-.22,1.02-.33,1.61-.33.94,0,1.69.27,2.24.82Z"/>
      <path class="cls-2" d="M290.19,25.35c-.21-.2-.32-.45-.32-.75s.11-.55.32-.75c.21-.2.48-.3.8-.3s.58.1.8.29c.21.19.32.43.32.72,0,.31-.1.57-.31.78s-.48.32-.81.32-.58-.1-.8-.3ZM290.11,26.88h1.75v7.48h-1.75v-7.48Z"/>
      <path class="cls-2" d="M294.15,23.97h1.75v10.39h-1.75v-10.39Z"/>
      <path class="cls-2" d="M298.2,23.97h1.75v10.39h-1.75v-10.39Z"/>
      <path class="cls-2" d="M309.25,31.18h-5.87c.1.55.37.99.81,1.31s.97.48,1.62.48c.82,0,1.5-.27,2.03-.81l.94,1.08c-.34.4-.76.71-1.27.91-.51.21-1.09.31-1.74.31-.82,0-1.54-.16-2.17-.49-.62-.33-1.11-.78-1.45-1.37-.34-.58-.51-1.24-.51-1.98s.17-1.38.5-1.97.79-1.04,1.38-1.37c.59-.33,1.25-.49,1.99-.49s1.38.16,1.95.48,1.02.78,1.34,1.36c.32.58.48,1.26.48,2.02,0,.12,0,.29-.03.52ZM304.07,28.7c-.39.33-.62.77-.71,1.32h4.24c-.08-.54-.3-.98-.69-1.32s-.86-.5-1.43-.5-1.03.17-1.42.5Z"/>
      <path class="cls-2" d="M323.99,34.36v-6.5s-3.23,5.38-3.23,5.38h-.81l-3.22-5.29v6.41h-1.74v-9.8h1.5l3.89,6.5,3.82-6.5h1.5v9.8s-1.71,0-1.71,0Z"/>
      <path class="cls-2" d="M333.57,27.59c.58.53.88,1.32.88,2.39v4.38h-1.65v-.91c-.21.33-.52.58-.92.75-.4.17-.88.26-1.44.26s-1.05-.1-1.47-.29c-.42-.19-.74-.46-.97-.8-.23-.34-.34-.73-.34-1.15,0-.67.25-1.21.75-1.62s1.29-.61,2.36-.61h1.93v-.11c0-.52-.16-.92-.47-1.2-.31-.28-.78-.42-1.39-.42-.42,0-.83.06-1.24.2s-.75.31-1.03.55l-.69-1.27c.39-.3.86-.53,1.41-.69.55-.16,1.13-.24,1.75-.24,1.1,0,1.94.26,2.53.79ZM331.97,32.88c.34-.2.58-.49.72-.86v-.87h-1.81c-1.01,0-1.51.33-1.51.99,0,.32.13.57.38.76s.6.28,1.05.28.83-.1,1.17-.3Z"/>
      <path class="cls-2" d="M341.01,26.8v1.67c-.15-.03-.29-.04-.41-.04-.68,0-1.21.2-1.6.59-.38.4-.57.97-.57,1.71v3.63h-1.75v-7.48h1.67v1.09c.5-.78,1.39-1.18,2.66-1.18Z"/>
      <path class="cls-2" d="M349.78,26.88l-3.5,8.08c-.33.81-.72,1.38-1.19,1.72-.47.33-1.03.5-1.69.5-.37,0-.74-.06-1.11-.18s-.66-.29-.9-.5l.7-1.29c.17.16.37.29.59.38.23.09.46.14.69.14.31,0,.56-.08.76-.24.2-.16.38-.42.55-.8l.13-.29-3.26-7.5h1.82l2.35,5.53,2.37-5.53h1.68Z"/>
      <path class="cls-2" d="M361.31,34.36l-2-2.87c-.08,0-.21.01-.38.01h-2.21v2.86h-1.82v-9.8h4.03c.85,0,1.59.14,2.22.42s1.11.68,1.45,1.2c.34.52.5,1.14.5,1.86s-.18,1.37-.54,1.9c-.36.53-.88.93-1.55,1.19l2.25,3.22h-1.96ZM360.65,26.6c-.41-.34-1.01-.5-1.81-.5h-2.13v3.91h2.13c.79,0,1.4-.17,1.81-.51.41-.34.62-.82.62-1.45s-.21-1.11-.62-1.44Z"/>
      <path class="cls-2" d="M371.97,31.18h-5.87c.1.55.37.99.81,1.31.43.32.97.48,1.62.48.82,0,1.5-.27,2.03-.81l.94,1.08c-.34.4-.76.71-1.27.91-.51.21-1.09.31-1.74.31-.82,0-1.54-.16-2.17-.49-.63-.33-1.11-.78-1.45-1.37-.34-.58-.51-1.24-.51-1.98s.17-1.38.5-1.97c.33-.58.79-1.04,1.38-1.37.59-.33,1.25-.49,1.99-.49s1.38.16,1.95.48,1.02.78,1.34,1.36.48,1.26.48,2.02c0,.12,0,.29-.03.52ZM366.79,28.7c-.39.33-.62.77-.71,1.32h4.24c-.07-.54-.3-.98-.69-1.32-.38-.34-.86-.5-1.43-.5s-1.03.17-1.42.5Z"/>
      <path class="cls-2" d="M379.44,32.96v1.4h-6.45v-1.11l4.1-4.97h-4.02v-1.4h6.26v1.11l-4.12,4.97h4.23Z"/>
      <path class="cls-2" d="M387.94,31.18h-5.87c.1.55.37.99.8,1.31.43.32.97.48,1.62.48.82,0,1.5-.27,2.03-.81l.94,1.08c-.34.4-.76.71-1.27.91-.51.21-1.09.31-1.74.31-.82,0-1.54-.16-2.17-.49-.62-.33-1.11-.78-1.45-1.37s-.51-1.24-.51-1.98.17-1.38.5-1.97c.33-.58.79-1.04,1.38-1.37.59-.33,1.25-.49,1.99-.49s1.38.16,1.95.48c.57.32,1.02.78,1.34,1.36.32.58.48,1.26.48,2.02,0,.12,0,.29-.03.52ZM382.77,28.7c-.39.33-.62.77-.71,1.32h4.24c-.07-.54-.3-.98-.69-1.32s-.86-.5-1.43-.5-1.03.17-1.42.5ZM384.86,23.94h2.06l-2.44,1.92h-1.51l1.89-1.92Z"/>
      <path class="cls-2" d="M393.13,29.74h3.85v1.46h-3.85v-1.46Z"/>
      <path class="cls-2" d="M408.23,32.26h-4.46l-.92,2.1h-1.24l3.8-8.4h1.19l3.82,8.4h-1.26l-.92-2.1ZM407.81,31.3l-1.81-4.12-1.81,4.12h3.62Z"/>
      <path class="cls-2" d="M416.52,28.35c.49.27.87.65,1.15,1.14.28.49.41,1.05.41,1.69s-.14,1.21-.41,1.7c-.28.49-.66.88-1.15,1.15-.49.27-1.04.41-1.66.41-.46,0-.87-.09-1.25-.26-.38-.18-.7-.43-.97-.77v3.29h-1.15v-8.69h1.1v1.01c.26-.35.58-.62.97-.8.39-.18.82-.27,1.3-.27.62,0,1.17.14,1.66.41ZM415.87,33.14c.32-.19.58-.45.77-.79.19-.34.28-.73.28-1.17s-.09-.83-.28-1.17c-.19-.34-.44-.6-.77-.79-.32-.18-.69-.28-1.1-.28s-.76.09-1.09.28c-.32.19-.58.45-.77.79s-.28.72-.28,1.16.09.83.28,1.17.44.6.77.79c.33.19.69.28,1.09.28s.77-.09,1.1-.28Z"/>
      <path class="cls-2" d="M419.69,26.56c-.15-.14-.22-.32-.22-.53s.07-.39.22-.53c.15-.15.33-.22.56-.22s.41.07.56.21c.15.14.22.31.22.52s-.07.4-.22.55c-.15.15-.33.22-.56.22s-.41-.07-.56-.22ZM419.68,28h1.15v6.36h-1.15v-6.36Z"/>
      <path class="cls-2" d="M424.06,34.01c-.51-.28-.91-.67-1.19-1.16s-.43-1.05-.43-1.67.14-1.18.43-1.67c.29-.49.69-.88,1.19-1.15.51-.28,1.09-.41,1.73-.41.58,0,1.09.12,1.54.35.45.23.8.57,1.05,1.01l-.88.56c-.2-.3-.45-.53-.74-.68-.3-.15-.62-.23-.98-.23-.42,0-.79.09-1.12.28-.33.18-.59.45-.78.79s-.28.73-.28,1.17.09.84.28,1.18.45.6.78.79.71.28,1.12.28c.36,0,.69-.08.98-.23.3-.15.54-.38.74-.68l.88.55c-.25.44-.6.78-1.05,1.01-.45.24-.97.35-1.54.35-.65,0-1.23-.14-1.73-.42Z"/>
      <path class="cls-2" d="M435.81,28v6.36h-1.09v-.96c-.23.33-.54.58-.92.76-.38.18-.79.27-1.24.27-.85,0-1.52-.23-2-.7s-.73-1.16-.73-2.07v-3.66h1.15v3.53c0,.62.15,1.08.44,1.4.3.32.72.47,1.27.47.61,0,1.09-.18,1.44-.55s.53-.89.53-1.56v-3.29h1.15Z"/>
      <path class="cls-2" d="M438,25.45h1.15v8.9h-1.15v-8.9Z"/>
      <path class="cls-2" d="M445.08,33.99c-.17.14-.38.25-.62.33s-.5.11-.77.11c-.64,0-1.14-.17-1.49-.52-.35-.34-.53-.84-.53-1.48v-3.49h-1.08v-.95h1.08v-1.39h1.15v1.39h1.82v.95h-1.82v3.44c0,.34.09.61.26.79.17.18.42.28.74.28.35,0,.65-.1.9-.3l.36.83Z"/>
      <path class="cls-2" d="M451.98,31.56h-5.16c.07.56.32,1.01.74,1.35.42.34.94.51,1.57.51.76,0,1.37-.26,1.84-.77l.64.74c-.29.34-.65.59-1.07.77-.43.18-.91.26-1.43.26-.67,0-1.27-.14-1.79-.41-.52-.28-.92-.66-1.21-1.16s-.43-1.06-.43-1.68.14-1.17.41-1.67c.28-.5.66-.88,1.14-1.16.48-.28,1.03-.41,1.64-.41s1.15.14,1.63.41c.48.28.85.66,1.12,1.16.27.5.4,1.06.4,1.7,0,.09,0,.2-.02.35ZM447.47,29.41c-.37.34-.59.78-.65,1.32h4.08c-.06-.54-.28-.97-.65-1.31-.37-.34-.83-.51-1.39-.51s-1.01.17-1.39.5Z"/>
      <path class="cls-2" d="M459.53,28v6.36h-1.09v-.96c-.23.33-.54.58-.92.76-.38.18-.79.27-1.24.27-.85,0-1.52-.23-2-.7-.49-.47-.73-1.16-.73-2.07v-3.66h1.15v3.53c0,.62.15,1.08.44,1.4.3.32.72.47,1.27.47.61,0,1.09-.18,1.44-.55s.53-.89.53-1.56v-3.29h1.15Z"/>
      <path class="cls-2" d="M463.72,28.23c.39-.19.87-.29,1.43-.29v1.12c-.06,0-.15-.01-.26-.01-.62,0-1.11.19-1.47.56s-.53.9-.53,1.59v3.17h-1.15v-6.36h1.1v1.07c.2-.37.5-.65.89-.84Z"/>
      <path class="cls-2" d="M258.3,43.96h3.54c.89,0,1.68.18,2.36.53.69.35,1.22.85,1.6,1.48.38.64.57,1.37.57,2.19s-.19,1.55-.57,2.19c-.38.64-.91,1.13-1.6,1.48-.69.35-1.48.53-2.36.53h-3.54v-8.4ZM261.77,51.32c.68,0,1.28-.13,1.79-.4.52-.26.91-.63,1.19-1.11s.42-1.03.42-1.65-.14-1.17-.42-1.65c-.28-.48-.68-.85-1.19-1.11s-1.11-.4-1.79-.4h-2.27v6.31h2.27Z"/>
      <path class="cls-2" d="M273.77,49.56h-5.16c.07.56.32,1.01.74,1.35.42.34.94.51,1.57.51.76,0,1.37-.26,1.84-.77l.64.74c-.29.34-.65.59-1.07.77-.43.18-.91.26-1.43.26-.67,0-1.27-.14-1.79-.41-.52-.28-.92-.66-1.21-1.16s-.43-1.06-.43-1.68.14-1.17.41-1.67c.28-.5.66-.88,1.14-1.16.48-.28,1.03-.41,1.64-.41s1.15.14,1.63.41c.48.28.85.66,1.12,1.16.27.5.4,1.06.4,1.7,0,.09,0,.2-.02.35ZM269.26,47.41c-.37.34-.59.78-.65,1.32h4.08c-.06-.54-.28-.97-.65-1.31-.37-.34-.83-.51-1.39-.51s-1.01.17-1.39.5Z"/>
      <path class="cls-2" d="M280.42,46.35c.49.27.87.65,1.15,1.14s.41,1.05.41,1.69-.14,1.21-.41,1.7c-.28.49-.66.88-1.15,1.15-.49.27-1.04.41-1.66.41-.46,0-.87-.09-1.25-.26-.38-.18-.7-.43-.97-.77v3.29h-1.15v-8.69h1.1v1.01c.26-.35.58-.62.97-.8.39-.18.82-.27,1.3-.27.62,0,1.17.14,1.66.41ZM279.76,51.14c.32-.19.58-.45.77-.79s.28-.73.28-1.17-.09-.83-.28-1.17-.44-.6-.77-.79c-.32-.18-.69-.28-1.1-.28s-.76.09-1.09.28c-.32.19-.58.45-.77.79-.19.34-.28.72-.28,1.16s.09.83.28,1.17c.18.34.44.6.77.79.33.19.69.28,1.09.28s.77-.09,1.1-.28Z"/>
      <path class="cls-2" d="M289.5,46v6.36h-1.09v-.96c-.23.33-.54.58-.92.76-.38.18-.79.27-1.24.27-.85,0-1.52-.23-2-.7s-.73-1.16-.73-2.07v-3.66h1.15v3.53c0,.62.15,1.08.44,1.4.3.32.72.47,1.27.47.61,0,1.09-.18,1.44-.55s.53-.89.53-1.56v-3.29h1.15Z"/>
      <path class="cls-2" d="M291.72,44.56c-.15-.14-.22-.32-.22-.53s.07-.39.22-.53.33-.22.56-.22.41.07.56.21.22.31.22.52-.07.4-.22.55c-.15.15-.33.22-.56.22s-.41-.07-.56-.22ZM291.7,46h1.15v6.36h-1.15v-6.36Z"/>
      <path class="cls-2" d="M295.37,52.22c-.48-.14-.86-.32-1.13-.53l.48-.91c.28.2.62.36,1.02.48.4.12.8.18,1.21.18,1.01,0,1.51-.29,1.51-.86,0-.19-.07-.34-.2-.46-.14-.11-.31-.19-.51-.25-.2-.05-.49-.11-.87-.17-.51-.08-.93-.17-1.25-.28-.32-.1-.6-.28-.83-.53-.23-.25-.35-.6-.35-1.04,0-.58.24-1.04.72-1.39.48-.35,1.12-.52,1.93-.52.42,0,.85.05,1.27.16.42.1.77.24,1.04.42l-.49.91c-.52-.34-1.13-.5-1.84-.5-.49,0-.86.08-1.12.24-.26.16-.38.37-.38.64,0,.21.07.37.22.49.14.12.32.21.53.26.21.06.51.12.89.19.51.09.93.18,1.24.28.32.1.59.27.81.51.22.24.34.58.34,1.01,0,.58-.25,1.03-.74,1.37-.49.34-1.16.51-2.01.51-.52,0-1.02-.07-1.5-.21Z"/>
      <path class="cls-2" d="M306.37,43.96v8.4h-1.19v-7.36h-1.9v-1.04h3.08Z"/>
      <path class="cls-2" d="M313.54,44.95c.61.73.92,1.76.92,3.1,0,.94-.17,1.73-.5,2.39-.33.66-.8,1.16-1.39,1.5s-1.29.51-2.08.51c-.41,0-.79-.04-1.15-.13s-.67-.21-.94-.37l.46-.94c.41.26.95.4,1.62.4.87,0,1.55-.27,2.05-.81s.74-1.33.74-2.36v-.3c-.24.36-.57.63-1,.82-.42.19-.9.28-1.43.28s-1.05-.1-1.48-.31c-.44-.21-.78-.51-1.02-.89s-.37-.83-.37-1.34.13-.99.39-1.39c.26-.4.61-.71,1.06-.93.45-.22.95-.33,1.51-.33,1.13,0,2,.36,2.61,1.09ZM312.05,47.87c.3-.14.53-.34.69-.59s.25-.52.25-.83-.08-.57-.23-.81c-.16-.24-.38-.44-.68-.59-.3-.15-.66-.22-1.09-.22-.55,0-1,.15-1.34.44-.34.3-.51.69-.51,1.19s.17.89.52,1.18c.34.29.81.44,1.39.44.38,0,.71-.07,1.01-.22Z"/>
      <path class="cls-2" d="M321.48,51.32v1.04h-6.04v-.82l3.42-3.3c.42-.4.7-.75.84-1.04.14-.29.22-.59.22-.88,0-.44-.15-.78-.46-1.03-.31-.24-.75-.37-1.33-.37-.93,0-1.64.3-2.15.91l-.82-.71c.33-.4.76-.71,1.29-.94.53-.22,1.13-.34,1.78-.34.88,0,1.58.21,2.1.63s.78.99.78,1.71c0,.45-.1.87-.29,1.27-.19.4-.56.86-1.09,1.37l-2.57,2.47h4.31Z"/>
      <path class="cls-2" d="M325.07,43.96v8.4h-1.19v-7.36h-1.9v-1.04h3.08Z"/>
      <path class="cls-2" d="M330.35,47.35c-.16-.16-.24-.35-.24-.59s.08-.43.24-.58c.16-.16.35-.23.58-.23s.41.08.56.23c.15.15.23.35.23.59s-.08.44-.23.59c-.16.16-.34.23-.56.23s-.42-.08-.58-.23ZM330.35,52.2c-.16-.16-.24-.35-.24-.59s.08-.43.24-.58c.16-.16.35-.23.58-.23s.41.08.56.23c.15.15.23.35.23.59s-.08.44-.23.59c-.16.16-.34.23-.56.23s-.42-.08-.58-.23Z"/>
      <path class="cls-2" d="M344.56,52.36v-6.12s-3.05,5.1-3.05,5.1h-.55l-3.04-5.06v6.08h-1.15v-8.4h.98l3.5,5.9,3.46-5.9h.98v8.4s-1.14,0-1.14,0Z"/>
      <path class="cls-2" d="M348.08,44.56c-.15-.14-.22-.32-.22-.53s.07-.39.22-.53.33-.22.56-.22.41.07.56.21.22.31.22.52-.07.4-.22.55c-.15.15-.33.22-.56.22s-.41-.07-.56-.22ZM348.06,46h1.15v6.36h-1.15v-6.36Z"/>
      <path class="cls-2" d="M357.13,49.56h-5.16c.07.56.32,1.01.74,1.35.42.34.94.51,1.57.51.76,0,1.37-.26,1.84-.77l.64.74c-.29.34-.65.59-1.07.77-.43.18-.91.26-1.43.26-.67,0-1.27-.14-1.79-.41-.52-.28-.92-.66-1.21-1.16s-.43-1.06-.43-1.68.14-1.17.41-1.67c.28-.5.66-.88,1.14-1.16.48-.28,1.03-.41,1.64-.41s1.15.14,1.63.41c.48.28.85.66,1.12,1.16.27.5.4,1.06.4,1.7,0,.09,0,.2-.02.35ZM352.63,47.41c-.37.34-.59.78-.65,1.32h4.08c-.06-.54-.28-.97-.65-1.31-.37-.34-.83-.51-1.39-.51s-1.01.17-1.39.5Z"/>
      <path class="cls-2" d="M358.75,43.45h1.15v8.9h-1.15v-8.9Z"/>
      <path class="cls-2" d="M370.36,46.35c.49.27.87.65,1.15,1.14.28.49.41,1.05.41,1.69s-.14,1.21-.41,1.7c-.28.49-.66.88-1.15,1.15-.49.27-1.04.41-1.66.41-.47,0-.9-.09-1.3-.28-.39-.18-.72-.45-.97-.8v1.01h-1.1v-8.9h1.15v3.5c.26-.34.58-.59.96-.76s.8-.26,1.26-.26c.62,0,1.17.14,1.66.41ZM369.7,51.14c.32-.19.58-.45.77-.79.19-.34.28-.73.28-1.17s-.09-.83-.28-1.17c-.19-.34-.44-.6-.77-.79-.32-.18-.69-.28-1.1-.28s-.76.09-1.09.28c-.33.18-.58.45-.77.79s-.28.73-.28,1.17.09.83.28,1.17.44.6.77.79c.33.19.69.28,1.09.28s.77-.09,1.1-.28Z"/>
      <path class="cls-2" d="M373.53,44.56c-.15-.14-.22-.32-.22-.53s.07-.39.22-.53c.15-.15.33-.22.56-.22s.41.07.56.21c.15.14.22.31.22.52s-.07.4-.22.55c-.15.15-.33.22-.56.22s-.41-.07-.56-.22ZM373.51,46h1.15v6.36h-1.15v-6.36Z"/>
      <path class="cls-2" d="M377.88,52.01c-.5-.28-.9-.67-1.18-1.16s-.43-1.05-.43-1.67.14-1.18.43-1.67c.28-.49.68-.88,1.18-1.15.5-.28,1.07-.41,1.7-.41s1.2.14,1.7.41c.5.28.89.66,1.18,1.15.28.49.43,1.05.43,1.67s-.14,1.18-.43,1.67c-.28.49-.68.88-1.18,1.16-.5.28-1.07.42-1.7.42s-1.2-.14-1.7-.42ZM380.68,51.14c.32-.19.58-.45.76-.79.18-.34.28-.73.28-1.17s-.09-.83-.28-1.17c-.18-.34-.44-.6-.76-.79-.32-.18-.69-.28-1.1-.28s-.77.09-1.1.28c-.32.18-.58.45-.77.79s-.28.73-.28,1.17.09.83.28,1.17.44.6.77.79c.32.19.69.28,1.1.28s.77-.09,1.1-.28Z"/>
      <path class="cls-2" d="M389,45.45v.55h1.85v.95h-1.82v5.41h-1.15v-5.41h-1.08v-.95h1.08v-.56c0-.63.18-1.13.55-1.5.37-.37.88-.55,1.55-.55.26,0,.5.03.72.1.22.06.42.16.58.28l-.35.88c-.26-.2-.56-.3-.89-.3-.69,0-1.03.37-1.03,1.12Z"/>
      <path class="cls-2" d="M394.9,46.23c.39-.19.87-.29,1.43-.29v1.12c-.06,0-.15-.01-.26-.01-.62,0-1.11.19-1.47.56s-.53.9-.53,1.59v3.17h-1.15v-6.36h1.1v1.07c.2-.37.5-.65.89-.84Z"/>
      <path class="cls-2" d="M402.07,46.59c.47.43.7,1.08.7,1.93v3.84h-1.09v-.84c-.19.3-.47.52-.82.68s-.78.23-1.27.23c-.71,0-1.28-.17-1.71-.52-.43-.34-.64-.8-.64-1.36s.2-1.01.61-1.35c.41-.34,1.06-.51,1.94-.51h1.82v-.23c0-.5-.14-.88-.43-1.14-.29-.26-.71-.4-1.27-.4-.38,0-.74.06-1.1.19s-.66.29-.91.5l-.48-.86c.33-.26.72-.47,1.18-.61s.94-.21,1.45-.21c.88,0,1.55.22,2.02.65ZM400.92,51.25c.32-.2.55-.47.7-.83v-.89h-1.78c-.98,0-1.46.33-1.46.98,0,.32.12.57.37.76.25.18.59.28,1.03.28s.82-.1,1.14-.29Z"/>
      <path class="cls-2" d="M410.22,46.64c.48.47.71,1.15.71,2.06v3.66h-1.15v-3.53c0-.62-.15-1.08-.44-1.39-.3-.31-.72-.47-1.27-.47-.62,0-1.12.18-1.48.55-.36.36-.54.89-.54,1.57v3.28h-1.15v-6.36h1.1v.96c.23-.33.55-.58.94-.76.4-.18.85-.26,1.35-.26.81,0,1.45.23,1.93.7Z"/>
      <path class="cls-2" d="M414.15,52.01c-.51-.28-.91-.67-1.19-1.16s-.43-1.05-.43-1.67.14-1.18.43-1.67c.29-.49.69-.88,1.19-1.15.51-.28,1.09-.41,1.73-.41.58,0,1.09.12,1.54.35.45.23.8.57,1.05,1.01l-.88.56c-.2-.3-.45-.53-.74-.68-.3-.15-.62-.23-.98-.23-.42,0-.79.09-1.12.28-.33.18-.59.45-.78.79s-.28.73-.28,1.17.09.84.28,1.18.45.6.78.79c.33.18.71.28,1.12.28.36,0,.69-.08.98-.23.3-.15.54-.38.74-.68l.88.55c-.25.44-.6.78-1.05,1.01-.45.24-.97.35-1.54.35-.65,0-1.23-.14-1.73-.42ZM414.25,54.78l.25-.59c.24.14.51.2.82.2.45,0,.67-.16.67-.48,0-.14-.06-.26-.17-.34s-.28-.13-.52-.13h-.32l.3-1.18h.66l-.18.68c.34.03.59.14.77.32.18.18.27.41.27.68,0,.34-.14.6-.41.8-.27.2-.63.29-1.08.29-.42,0-.77-.09-1.07-.26Z"/>
      <path class="cls-2" d="M424.3,46.59c.47.43.7,1.08.7,1.93v3.84h-1.09v-.84c-.19.3-.47.52-.82.68-.36.16-.78.23-1.27.23-.71,0-1.28-.17-1.71-.52-.43-.34-.64-.8-.64-1.36s.2-1.01.61-1.35c.41-.34,1.06-.51,1.94-.51h1.82v-.23c0-.5-.14-.88-.43-1.14-.29-.26-.71-.4-1.27-.4-.38,0-.74.06-1.1.19-.36.12-.66.29-.91.5l-.48-.86c.33-.26.72-.47,1.18-.61s.94-.21,1.45-.21c.88,0,1.55.22,2.02.65ZM423.15,51.25c.32-.2.55-.47.7-.83v-.89h-1.78c-.98,0-1.46.33-1.46.98,0,.32.12.57.37.76.25.18.59.28,1.03.28s.82-.1,1.14-.29Z"/>
      <path class="cls-2" d="M427.16,44.56c-.15-.14-.22-.32-.22-.53s.07-.39.22-.53c.15-.15.33-.22.56-.22s.41.07.56.21c.15.14.22.31.22.52s-.07.4-.22.55c-.15.15-.33.22-.56.22s-.41-.07-.56-.22ZM427.14,46h1.15v6.36h-1.15v-6.36Z"/>
      <path class="cls-2" d="M430.81,52.22c-.48-.14-.86-.32-1.13-.53l.48-.91c.28.2.62.36,1.02.48.4.12.8.18,1.21.18,1.01,0,1.51-.29,1.51-.86,0-.19-.07-.34-.2-.46-.14-.11-.31-.19-.51-.25-.2-.05-.49-.11-.87-.17-.51-.08-.93-.17-1.25-.28-.32-.1-.6-.28-.83-.53-.23-.25-.35-.6-.35-1.04,0-.58.24-1.04.72-1.39.48-.35,1.12-.52,1.93-.52.42,0,.85.05,1.27.16.42.1.77.24,1.04.42l-.49.91c-.52-.34-1.13-.5-1.84-.5-.49,0-.86.08-1.12.24-.26.16-.38.37-.38.64,0,.21.07.37.22.49.14.12.32.21.53.26.21.06.51.12.89.19.51.09.93.18,1.24.28.32.1.59.27.81.51.22.24.34.58.34,1.01,0,.58-.25,1.03-.74,1.37-.49.34-1.16.51-2.01.51-.52,0-1.02-.07-1.5-.21Z"/>
      <path class="cls-2" d="M267.76,82l-2.38,6.36h-1.1l-1.84-4.82-1.86,4.82h-1.1l-2.36-6.36h1.09l1.85,5.06,1.92-5.06h.97l1.88,5.09,1.9-5.09h1.03Z"/>
      <path class="cls-2" d="M278.45,82l-2.38,6.36h-1.1l-1.84-4.82-1.86,4.82h-1.1l-2.36-6.36h1.09l1.85,5.06,1.92-5.06h.97l1.88,5.09,1.9-5.09h1.03Z"/>
      <path class="cls-2" d="M289.14,82l-2.38,6.36h-1.1l-1.84-4.82-1.86,4.82h-1.1l-2.36-6.36h1.09l1.85,5.06,1.92-5.06h.97l1.88,5.09,1.9-5.09h1.03Z"/>
      <path class="cls-2" d="M289.61,88.2c-.16-.16-.24-.35-.24-.59s.08-.43.24-.58c.16-.16.35-.23.58-.23s.41.08.56.23c.15.15.23.35.23.59s-.08.44-.23.59c-.16.16-.34.23-.56.23s-.42-.08-.58-.23Z"/>
      <path class="cls-2" d="M294.62,82.23c.39-.19.87-.29,1.43-.29v1.12c-.06,0-.15-.01-.26-.01-.62,0-1.11.19-1.47.56s-.53.9-.53,1.59v3.17h-1.15v-6.36h1.1v1.07c.2-.37.5-.65.89-.84Z"/>
      <path class="cls-2" d="M303.13,85.56h-5.16c.07.56.32,1.01.74,1.35.42.34.94.51,1.57.51.76,0,1.37-.26,1.84-.77l.64.74c-.29.34-.65.59-1.07.77-.43.18-.91.26-1.43.26-.67,0-1.27-.14-1.79-.41-.52-.28-.92-.66-1.21-1.16s-.43-1.06-.43-1.68.14-1.17.41-1.67c.28-.5.66-.88,1.14-1.16.48-.28,1.03-.41,1.64-.41s1.15.14,1.63.41c.48.28.85.66,1.12,1.16.27.5.4,1.06.4,1.7,0,.09,0,.2-.02.35ZM298.63,83.41c-.37.34-.59.78-.65,1.32h4.08c-.06-.54-.28-.97-.65-1.31-.37-.34-.83-.51-1.39-.51s-1.01.17-1.39.5Z"/>
      <path class="cls-2" d="M309.41,87.41v.95h-5.33v-.74l3.76-4.67h-3.68v-.95h5.16v.76l-3.76,4.66h3.85Z"/>
      <path class="cls-2" d="M316.57,85.56h-5.16c.07.56.32,1.01.74,1.35.42.34.94.51,1.57.51.76,0,1.37-.26,1.84-.77l.64.74c-.29.34-.65.59-1.07.77-.43.18-.91.26-1.43.26-.67,0-1.27-.14-1.79-.41-.52-.28-.92-.66-1.21-1.16-.28-.5-.43-1.06-.43-1.68s.14-1.17.41-1.67c.28-.5.66-.88,1.14-1.16.48-.28,1.03-.41,1.64-.41s1.15.14,1.63.41c.48.28.85.66,1.12,1.16s.4,1.06.4,1.7c0,.09,0,.2-.02.35ZM312.07,83.41c-.37.34-.59.78-.65,1.32h4.08c-.06-.54-.28-.97-.65-1.31-.37-.34-.83-.51-1.39-.51s-1.01.17-1.39.5Z"/>
      <path class="cls-2" d="M326.23,80.54c.85.44,1.51,1.07,1.99,1.87.48.8.71,1.71.71,2.74s-.19,1.83-.56,2.41c-.38.58-.9.88-1.57.88-.38,0-.7-.1-.95-.29s-.41-.48-.49-.85c-.24.37-.55.65-.94.85s-.83.29-1.34.29c-.56,0-1.06-.13-1.51-.4-.45-.26-.8-.63-1.05-1.1s-.38-1-.38-1.59.13-1.11.38-1.58.6-.83,1.05-1.09.95-.39,1.51-.39c.46,0,.88.09,1.26.26.38.17.69.43.94.76v-.97h1.04v4.32c0,.3.06.51.19.65s.29.21.49.21c.35,0,.63-.21.82-.62.2-.41.29-.99.29-1.75,0-.89-.2-1.67-.6-2.35-.4-.68-.96-1.2-1.69-1.58s-1.55-.56-2.49-.56-1.78.2-2.5.59c-.72.39-1.29.94-1.69,1.64-.4.7-.6,1.51-.6,2.41s.2,1.72.59,2.42.95,1.25,1.67,1.65c.72.4,1.54.59,2.48.59.39,0,.79-.04,1.2-.13.41-.09.78-.22,1.12-.4l.26.77c-.35.18-.76.32-1.22.42-.46.1-.92.14-1.36.14-1.1,0-2.07-.23-2.92-.7-.85-.47-1.51-1.12-1.99-1.95-.47-.83-.71-1.77-.71-2.82s.24-1.98.71-2.81c.48-.82,1.14-1.47,2-1.93.86-.46,1.84-.7,2.95-.7s2.04.22,2.89.67ZM324.3,87.23c.31-.18.55-.43.73-.75.18-.32.27-.7.27-1.13s-.09-.81-.27-1.13c-.18-.32-.42-.57-.73-.74-.31-.17-.66-.26-1.05-.26-.61,0-1.1.19-1.48.58-.38.39-.56.91-.56,1.55s.19,1.17.57,1.56c.38.39.87.59,1.47.59.39,0,.74-.09,1.05-.26Z"/>
      <path class="cls-2" d="M331.9,81.45v.55h1.85v.95h-1.82v5.41h-1.15v-5.41h-1.08v-.95h1.08v-.56c0-.63.18-1.13.55-1.5.37-.37.88-.55,1.55-.55.26,0,.5.03.72.1.22.06.42.16.58.28l-.35.88c-.26-.2-.56-.3-.89-.3-.69,0-1.03.37-1.03,1.12Z"/>
      <path class="cls-2" d="M339.06,82.59c.47.43.7,1.08.7,1.93v3.84h-1.09v-.84c-.19.3-.47.52-.82.68-.36.16-.78.23-1.27.23-.71,0-1.28-.17-1.71-.52-.43-.34-.64-.8-.64-1.36s.2-1.01.61-1.35c.41-.34,1.06-.51,1.94-.51h1.82v-.23c0-.5-.14-.88-.43-1.14-.29-.26-.71-.4-1.27-.4-.38,0-.74.06-1.1.19-.36.12-.66.29-.91.5l-.48-.86c.33-.26.72-.47,1.18-.61s.94-.21,1.45-.21c.88,0,1.55.22,2.02.65ZM337.91,87.25c.32-.2.55-.47.7-.83v-.89h-1.78c-.98,0-1.46.33-1.46.98,0,.32.12.57.37.76.25.18.59.28,1.03.28s.82-.1,1.14-.29Z"/>
      <path class="cls-2" d="M351.75,82.64c.47.46.7,1.15.7,2.06v3.66h-1.15v-3.53c0-.62-.14-1.08-.43-1.39-.28-.31-.69-.47-1.22-.47-.58,0-1.05.18-1.39.55-.34.36-.52.89-.52,1.57v3.28h-1.15v-3.53c0-.62-.14-1.08-.43-1.39-.28-.31-.69-.47-1.22-.47-.58,0-1.05.18-1.39.55s-.52.89-.52,1.57v3.28h-1.15v-6.36h1.1v.95c.23-.33.54-.58.91-.75s.8-.26,1.28-.26.94.1,1.32.3c.38.2.68.49.89.88.24-.37.57-.66,1-.86.43-.21.91-.31,1.45-.31.8,0,1.43.23,1.9.7Z"/>
      <path class="cls-2" d="M354.6,80.56c-.15-.14-.22-.32-.22-.53s.07-.39.22-.53.33-.22.56-.22.41.07.56.21.22.31.22.52-.07.4-.22.55c-.15.15-.33.22-.56.22s-.41-.07-.56-.22ZM354.58,82h1.15v6.36h-1.15v-6.36Z"/>
      <path class="cls-2" d="M357.93,79.45h1.15v8.9h-1.15v-8.9Z"/>
      <path class="cls-2" d="M361.27,79.45h1.15v8.9h-1.15v-8.9Z"/>
      <path class="cls-2" d="M370.34,85.56h-5.16c.07.56.32,1.01.74,1.35.42.34.94.51,1.57.51.76,0,1.37-.26,1.84-.77l.64.74c-.29.34-.65.59-1.07.77-.43.18-.91.26-1.43.26-.67,0-1.27-.14-1.79-.41-.52-.28-.92-.66-1.21-1.16-.28-.5-.43-1.06-.43-1.68s.14-1.17.41-1.67c.28-.5.66-.88,1.14-1.16.48-.28,1.03-.41,1.64-.41s1.15.14,1.63.41c.48.28.85.66,1.12,1.16s.4,1.06.4,1.7c0,.09,0,.2-.02.35ZM365.84,83.41c-.37.34-.59.78-.65,1.32h4.08c-.06-.54-.28-.97-.65-1.31-.37-.34-.83-.51-1.39-.51s-1.01.17-1.39.5Z"/>
      <path class="cls-2" d="M381.82,82.64c.47.46.7,1.15.7,2.06v3.66h-1.15v-3.53c0-.62-.14-1.08-.43-1.39-.28-.31-.69-.47-1.22-.47-.58,0-1.05.18-1.39.55s-.52.89-.52,1.57v3.28h-1.15v-3.53c0-.62-.14-1.08-.43-1.39-.28-.31-.69-.47-1.22-.47-.58,0-1.05.18-1.39.55s-.52.89-.52,1.57v3.28h-1.15v-6.36h1.1v.95c.23-.33.54-.58.91-.75s.8-.26,1.28-.26.94.1,1.32.3.68.49.89.88c.24-.37.57-.66,1-.86.43-.21.91-.31,1.45-.31.8,0,1.43.23,1.9.7Z"/>
      <path class="cls-2" d="M388.99,82.59c.47.43.7,1.08.7,1.93v3.84h-1.09v-.84c-.19.3-.47.52-.82.68-.36.16-.78.23-1.27.23-.71,0-1.28-.17-1.71-.52-.43-.34-.64-.8-.64-1.36s.2-1.01.61-1.35c.41-.34,1.06-.51,1.94-.51h1.82v-.23c0-.5-.14-.88-.43-1.14-.29-.26-.71-.4-1.27-.4-.38,0-.74.06-1.1.19-.36.12-.66.29-.91.5l-.48-.86c.33-.26.72-.47,1.18-.61s.94-.21,1.45-.21c.88,0,1.55.22,2.02.65ZM387.84,87.25c.32-.2.55-.47.7-.83v-.89h-1.78c-.98,0-1.46.33-1.46.98,0,.32.12.57.37.76.25.18.59.28,1.03.28s.82-.1,1.14-.29Z"/>
      <path class="cls-2" d="M393.82,82.23c.39-.19.87-.29,1.43-.29v1.12c-.06,0-.15-.01-.26-.01-.62,0-1.11.19-1.47.56s-.53.9-.53,1.59v3.17h-1.15v-6.36h1.1v1.07c.2-.37.5-.65.89-.84Z"/>
      <path class="cls-2" d="M402.55,82l-3.08,7c-.27.65-.59,1.1-.95,1.37s-.8.4-1.31.4c-.31,0-.61-.05-.91-.15-.29-.1-.53-.25-.73-.44l.49-.86c.33.31.71.47,1.14.47.28,0,.51-.07.7-.22.19-.15.36-.4.51-.76l.2-.44-2.81-6.35h1.2l2.22,5.09,2.2-5.09h1.13Z"/>
      <path class="cls-2" d="M402.94,88.2c-.16-.16-.24-.35-.24-.59s.08-.43.24-.58.35-.23.58-.23.41.08.56.23c.15.15.23.35.23.59s-.08.44-.23.59-.34.23-.56.23-.42-.08-.58-.23Z"/>
      <path class="cls-2" d="M407.26,81.45v.55h1.85v.95h-1.82v5.41h-1.15v-5.41h-1.08v-.95h1.08v-.56c0-.63.18-1.13.55-1.5s.88-.55,1.55-.55c.26,0,.5.03.72.1s.42.16.58.28l-.35.88c-.26-.2-.56-.3-.89-.3-.69,0-1.03.37-1.03,1.12Z"/>
      <path class="cls-2" d="M413.15,82.23c.39-.19.87-.29,1.43-.29v1.12c-.06,0-.15-.01-.26-.01-.62,0-1.11.19-1.47.56-.36.37-.53.9-.53,1.59v3.17h-1.15v-6.36h1.1v1.07c.2-.37.5-.65.89-.84Z"/>
      <path class="cls-2" d="M259.78,105.9c-.68-.37-1.21-.88-1.59-1.54-.38-.65-.58-1.39-.58-2.2s.19-1.55.58-2.2c.38-.65.92-1.16,1.6-1.54.68-.37,1.44-.56,2.28-.56.66,0,1.26.11,1.8.33s1.01.55,1.39.98l-.78.76c-.63-.66-1.42-1-2.36-1-.62,0-1.19.14-1.69.42s-.9.67-1.18,1.16c-.28.49-.43,1.04-.43,1.65s.14,1.16.43,1.65c.28.49.68.88,1.18,1.16.5.28,1.07.42,1.69.42.94,0,1.72-.34,2.36-1.01l.78.76c-.38.43-.85.76-1.4.98-.55.22-1.15.34-1.81.34-.84,0-1.6-.19-2.27-.56Z"/>
      <path class="cls-2" d="M272.27,103.56h-5.16c.07.56.32,1.01.74,1.35.42.34.94.51,1.57.51.76,0,1.37-.26,1.84-.77l.64.74c-.29.34-.65.59-1.07.77-.43.18-.91.26-1.43.26-.67,0-1.27-.14-1.79-.41-.52-.28-.92-.66-1.21-1.16-.28-.5-.43-1.06-.43-1.68s.14-1.17.41-1.67c.28-.5.66-.88,1.14-1.16.48-.28,1.03-.41,1.64-.41s1.15.14,1.63.41c.48.28.85.66,1.12,1.16s.4,1.06.4,1.7c0,.09,0,.2-.02.35ZM267.76,101.41c-.37.34-.59.78-.65,1.32h4.08c-.06-.54-.28-.97-.65-1.31-.37-.34-.83-.51-1.39-.51s-1.01.17-1.39.5Z"/>
      <path class="cls-2" d="M279.21,100.64c.48.47.71,1.15.71,2.06v3.66h-1.15v-3.53c0-.62-.15-1.08-.44-1.39-.3-.31-.72-.47-1.27-.47-.62,0-1.12.18-1.48.55-.36.36-.54.89-.54,1.57v3.28h-1.15v-6.36h1.1v.96c.23-.33.55-.58.94-.76.4-.18.85-.26,1.35-.26.81,0,1.45.23,1.93.7Z"/>
      <path class="cls-2" d="M285.64,105.99c-.17.14-.38.25-.62.33s-.5.11-.77.11c-.64,0-1.14-.17-1.49-.52-.35-.34-.53-.84-.53-1.48v-3.49h-1.08v-.95h1.08v-1.39h1.15v1.39h1.82v.95h-1.82v3.44c0,.34.09.61.26.79.17.18.42.28.74.28.35,0,.65-.1.9-.3l.36.83Z"/>
      <path class="cls-2" d="M289.02,100.23c.39-.19.87-.29,1.43-.29v1.12c-.06,0-.15-.01-.26-.01-.62,0-1.11.19-1.47.56s-.53.9-.53,1.59v3.17h-1.15v-6.36h1.1v1.07c.2-.37.5-.65.89-.84Z"/>
      <path class="cls-2" d="M297.53,103.56h-5.16c.07.56.32,1.01.74,1.35.42.34.94.51,1.57.51.76,0,1.37-.26,1.84-.77l.64.74c-.29.34-.65.59-1.07.77-.43.18-.91.26-1.43.26-.67,0-1.27-.14-1.79-.41-.52-.28-.92-.66-1.21-1.16-.28-.5-.43-1.06-.43-1.68s.14-1.17.41-1.67c.28-.5.66-.88,1.14-1.16.48-.28,1.03-.41,1.64-.41s1.15.14,1.63.41c.48.28.85.66,1.12,1.16s.4,1.06.4,1.7c0,.09,0,.2-.02.35ZM293.02,101.41c-.37.34-.59.78-.65,1.32h4.08c-.06-.54-.28-.97-.65-1.31-.37-.34-.83-.51-1.39-.51s-1.01.17-1.39.5Z"/>
      <path class="cls-2" d="M303.41,106.01c-.51-.28-.91-.67-1.19-1.16s-.43-1.05-.43-1.67.14-1.18.43-1.67c.29-.49.69-.88,1.19-1.15.51-.28,1.09-.41,1.73-.41.58,0,1.09.12,1.54.35.45.23.8.57,1.05,1.01l-.88.56c-.2-.3-.45-.53-.74-.68-.3-.15-.62-.23-.98-.23-.42,0-.79.09-1.12.28-.33.18-.59.45-.78.79-.19.34-.28.73-.28,1.17s.09.84.28,1.18c.19.34.45.6.78.79s.71.28,1.12.28c.36,0,.69-.08.98-.23.3-.15.54-.38.74-.68l.88.55c-.25.44-.6.78-1.05,1.01-.45.24-.97.35-1.54.35-.65,0-1.23-.14-1.73-.42Z"/>
      <path class="cls-2" d="M310.15,106.01c-.5-.28-.9-.67-1.18-1.16s-.43-1.05-.43-1.67.14-1.18.43-1.67c.28-.49.68-.88,1.18-1.15.5-.28,1.07-.41,1.7-.41s1.2.14,1.7.41c.5.28.89.66,1.18,1.15.28.49.43,1.05.43,1.67s-.14,1.18-.43,1.67c-.28.49-.68.88-1.18,1.16-.5.28-1.07.42-1.7.42s-1.2-.14-1.7-.42ZM312.96,105.14c.32-.19.58-.45.76-.79.18-.34.28-.73.28-1.17s-.09-.83-.28-1.17c-.18-.34-.44-.6-.76-.79-.32-.18-.69-.28-1.1-.28s-.77.09-1.1.28c-.32.18-.58.45-.77.79s-.28.73-.28,1.17.09.83.28,1.17.44.6.77.79c.32.19.69.28,1.1.28s.77-.09,1.1-.28Z"/>
      <path class="cls-2" d="M326.61,100.64c.47.46.7,1.15.7,2.06v3.66h-1.15v-3.53c0-.62-.14-1.08-.43-1.39-.28-.31-.69-.47-1.22-.47-.58,0-1.05.18-1.39.55-.34.36-.52.89-.52,1.57v3.28h-1.15v-3.53c0-.62-.14-1.08-.43-1.39-.28-.31-.69-.47-1.22-.47-.58,0-1.05.18-1.39.55-.34.36-.52.89-.52,1.57v3.28h-1.15v-6.36h1.1v.95c.23-.33.54-.58.91-.75s.8-.26,1.28-.26.94.1,1.32.3.68.49.89.88c.24-.37.57-.66,1-.86.43-.21.91-.31,1.45-.31.8,0,1.43.23,1.9.7Z"/>
      <path class="cls-2" d="M339.3,100.64c.47.46.7,1.15.7,2.06v3.66h-1.15v-3.53c0-.62-.14-1.08-.43-1.39-.28-.31-.69-.47-1.22-.47-.58,0-1.05.18-1.39.55s-.52.89-.52,1.57v3.28h-1.15v-3.53c0-.62-.14-1.08-.43-1.39-.28-.31-.69-.47-1.22-.47-.58,0-1.05.18-1.39.55s-.52.89-.52,1.57v3.28h-1.15v-6.36h1.1v.95c.23-.33.54-.58.91-.75s.8-.26,1.28-.26.94.1,1.32.3.68.49.89.88c.24-.37.57-.66,1-.86.43-.21.91-.31,1.45-.31.8,0,1.43.23,1.9.7Z"/>
      <path class="cls-2" d="M347.88,103.56h-5.16c.07.56.32,1.01.74,1.35.42.34.94.51,1.57.51.76,0,1.37-.26,1.84-.77l.64.74c-.29.34-.65.59-1.07.77-.43.18-.91.26-1.43.26-.67,0-1.27-.14-1.79-.41-.52-.28-.92-.66-1.21-1.16-.28-.5-.43-1.06-.43-1.68s.14-1.17.41-1.67c.28-.5.66-.88,1.14-1.16.48-.28,1.03-.41,1.64-.41s1.15.14,1.63.41c.48.28.85.66,1.12,1.16s.4,1.06.4,1.7c0,.09,0,.2-.02.35ZM343.37,101.41c-.37.34-.59.78-.65,1.32h4.08c-.06-.54-.28-.97-.65-1.31-.37-.34-.83-.51-1.39-.51s-1.01.17-1.39.5Z"/>
      <path class="cls-2" d="M351.49,100.23c.39-.19.87-.29,1.43-.29v1.12c-.06,0-.15-.01-.26-.01-.62,0-1.11.19-1.47.56-.36.37-.53.9-.53,1.59v3.17h-1.15v-6.36h1.1v1.07c.2-.37.5-.65.89-.84Z"/>
      <path class="cls-2" d="M355.31,106.01c-.51-.28-.91-.67-1.19-1.16s-.43-1.05-.43-1.67.14-1.18.43-1.67c.29-.49.69-.88,1.19-1.15.51-.28,1.09-.41,1.73-.41.58,0,1.09.12,1.54.35.45.23.8.57,1.05,1.01l-.88.56c-.2-.3-.45-.53-.74-.68-.3-.15-.62-.23-.98-.23-.42,0-.79.09-1.12.28-.33.18-.59.45-.78.79s-.28.73-.28,1.17.09.84.28,1.18.45.6.78.79.71.28,1.12.28c.36,0,.69-.08.98-.23.3-.15.54-.38.74-.68l.88.55c-.25.44-.6.78-1.05,1.01-.45.24-.97.35-1.54.35-.65,0-1.23-.14-1.73-.42Z"/>
      <path class="cls-2" d="M361.15,98.56c-.15-.14-.22-.32-.22-.53s.07-.39.22-.53c.15-.15.33-.22.56-.22s.41.07.56.21c.15.14.22.31.22.52s-.07.4-.22.55c-.15.15-.33.22-.56.22s-.41-.07-.56-.22ZM361.13,100h1.15v6.36h-1.15v-6.36Z"/>
      <path class="cls-2" d="M368.81,100.59c.47.43.7,1.08.7,1.93v3.84h-1.09v-.84c-.19.3-.47.52-.82.68-.36.16-.78.23-1.27.23-.71,0-1.28-.17-1.71-.52-.43-.34-.64-.8-.64-1.36s.2-1.01.61-1.35c.41-.34,1.06-.51,1.94-.51h1.82v-.23c0-.5-.14-.88-.43-1.14-.29-.26-.71-.4-1.27-.4-.38,0-.74.06-1.1.19-.36.12-.66.29-.91.5l-.48-.86c.33-.26.72-.47,1.18-.61s.94-.21,1.45-.21c.88,0,1.55.22,2.02.65ZM367.67,105.25c.32-.2.55-.47.7-.83v-.89h-1.78c-.98,0-1.46.33-1.46.98,0,.32.12.57.37.76.25.18.59.28,1.03.28s.82-.1,1.14-.29Z"/>
      <path class="cls-2" d="M371.65,97.45h1.15v8.9h-1.15v-8.9Z"/>
      <path class="cls-2" d="M379.9,105.9c-.68-.37-1.21-.89-1.6-1.54-.39-.66-.58-1.39-.58-2.2s.19-1.54.58-2.2c.39-.66.92-1.17,1.6-1.54.68-.37,1.44-.56,2.29-.56s1.6.19,2.28.56c.68.37,1.21.88,1.6,1.54.38.65.58,1.39.58,2.2s-.19,1.55-.58,2.2-.92,1.16-1.6,1.54c-.68.37-1.44.56-2.28.56s-1.61-.19-2.29-.56ZM383.85,104.97c.49-.28.88-.67,1.16-1.16.28-.49.43-1.04.43-1.65s-.14-1.16-.43-1.65c-.28-.49-.67-.88-1.16-1.16-.49-.28-1.05-.42-1.66-.42s-1.17.14-1.67.42-.89.67-1.18,1.16c-.28.49-.43,1.04-.43,1.65s.14,1.16.43,1.65.68.88,1.18,1.16c.5.28,1.06.42,1.67.42s1.17-.14,1.66-.42Z"/>
      <path class="cls-2" d="M389.35,106.01c-.51-.28-.91-.67-1.19-1.16s-.43-1.05-.43-1.67.14-1.18.43-1.67c.29-.49.69-.88,1.19-1.15.51-.28,1.09-.41,1.73-.41.58,0,1.09.12,1.54.35.45.23.8.57,1.05,1.01l-.88.56c-.2-.3-.45-.53-.74-.68-.3-.15-.62-.23-.98-.23-.42,0-.79.09-1.12.28-.33.18-.59.45-.78.79s-.28.73-.28,1.17.09.84.28,1.18.45.6.78.79c.33.18.71.28,1.12.28.36,0,.69-.08.98-.23.3-.15.54-.38.74-.68l.88.55c-.25.44-.6.78-1.05,1.01-.45.24-.97.35-1.54.35-.65,0-1.23-.14-1.73-.42Z"/>
      <path class="cls-2" d="M400.79,103.56h-5.16c.07.56.32,1.01.74,1.35.42.34.94.51,1.57.51.76,0,1.37-.26,1.84-.77l.64.74c-.29.34-.65.59-1.07.77-.43.18-.91.26-1.43.26-.67,0-1.27-.14-1.79-.41-.52-.28-.92-.66-1.21-1.16-.28-.5-.43-1.06-.43-1.68s.14-1.17.41-1.67.66-.88,1.14-1.16c.48-.28,1.03-.41,1.64-.41s1.15.14,1.63.41c.48.28.85.66,1.12,1.16s.4,1.06.4,1.7c0,.09,0,.2-.02.35ZM396.28,101.41c-.37.34-.59.78-.65,1.32h4.08c-.06-.54-.28-.97-.65-1.31-.37-.34-.83-.51-1.39-.51s-1.01.17-1.39.5ZM398.39,97.52h1.46l-2.02,1.56h-1.08l1.63-1.56Z"/>
      <path class="cls-2" d="M406.57,100.59c.47.43.7,1.08.7,1.93v3.84h-1.09v-.84c-.19.3-.47.52-.82.68s-.78.23-1.27.23c-.71,0-1.28-.17-1.71-.52-.43-.34-.64-.8-.64-1.36s.2-1.01.61-1.35c.41-.34,1.06-.51,1.94-.51h1.82v-.23c0-.5-.14-.88-.43-1.14-.29-.26-.71-.4-1.27-.4-.38,0-.74.06-1.1.19s-.66.29-.91.5l-.48-.86c.33-.26.72-.47,1.18-.61s.94-.21,1.45-.21c.88,0,1.55.22,2.02.65ZM405.42,105.25c.32-.2.55-.47.7-.83v-.89h-1.78c-.98,0-1.46.33-1.46.98,0,.32.12.57.37.76.25.18.59.28,1.03.28s.82-.1,1.14-.29Z"/>
      <path class="cls-2" d="M414.73,100.64c.48.47.71,1.15.71,2.06v3.66h-1.15v-3.53c0-.62-.15-1.08-.44-1.39-.3-.31-.72-.47-1.27-.47-.62,0-1.12.18-1.48.55-.36.36-.54.89-.54,1.57v3.28h-1.15v-6.36h1.1v.96c.23-.33.55-.58.94-.76.4-.18.85-.26,1.35-.26.81,0,1.45.23,1.93.7Z"/>
      <path class="cls-2" d="M423.34,103.56h-5.16c.07.56.32,1.01.74,1.35.42.34.94.51,1.57.51.76,0,1.37-.26,1.84-.77l.64.74c-.29.34-.65.59-1.07.77-.43.18-.91.26-1.43.26-.67,0-1.27-.14-1.79-.41-.52-.28-.92-.66-1.21-1.16s-.43-1.06-.43-1.68.14-1.17.41-1.67c.28-.5.66-.88,1.14-1.16.48-.28,1.03-.41,1.64-.41s1.15.14,1.63.41c.48.28.85.66,1.12,1.16.27.5.4,1.06.4,1.7,0,.09,0,.2-.02.35ZM418.83,101.41c-.37.34-.59.78-.65,1.32h4.08c-.06-.54-.28-.97-.65-1.31-.37-.34-.83-.51-1.39-.51s-1.01.17-1.39.5Z"/>
      <path class="cls-2" d="M259.27,123.97c-.53-.34-.94-.84-1.25-1.49s-.46-1.43-.46-2.32.15-1.67.46-2.32c.3-.65.72-1.15,1.25-1.49s1.13-.51,1.8-.51,1.27.17,1.81.51.95.84,1.25,1.49c.3.65.46,1.43.46,2.32s-.15,1.67-.46,2.32c-.3.65-.72,1.15-1.25,1.49s-1.13.51-1.81.51-1.27-.17-1.8-.51ZM262.5,122.38c.35-.5.52-1.24.52-2.22s-.17-1.72-.52-2.22c-.35-.5-.82-.74-1.42-.74s-1.06.25-1.41.74c-.35.5-.52,1.24-.52,2.22s.17,1.72.52,2.22c.35.5.82.74,1.41.74s1.07-.25,1.42-.74Z"/>
      <path class="cls-2" d="M271.67,123.04v1.32h-6.19v-1.04l3.34-3.17c.38-.36.63-.67.76-.94.13-.27.2-.53.2-.8,0-.39-.13-.69-.4-.9-.26-.21-.65-.31-1.16-.31-.86,0-1.51.29-1.97.88l-1.09-.84c.33-.44.77-.78,1.33-1.03.56-.24,1.18-.37,1.87-.37.91,0,1.64.22,2.18.65s.82,1.02.82,1.76c0,.46-.1.88-.29,1.28-.19.4-.56.86-1.1,1.37l-2.24,2.14h3.96Z"/>
      <path class="cls-2" d="M281.97,123.04v1.32h-6.19v-1.04l3.34-3.17c.38-.36.63-.67.76-.94.13-.27.2-.53.2-.8,0-.39-.13-.69-.4-.9-.26-.21-.65-.31-1.16-.31-.86,0-1.51.29-1.97.88l-1.09-.84c.33-.44.77-.78,1.33-1.03.56-.24,1.18-.37,1.87-.37.91,0,1.64.22,2.18.65s.82,1.02.82,1.76c0,.46-.1.88-.29,1.28-.19.4-.56.86-1.1,1.37l-2.24,2.14h3.96Z"/>
      <path class="cls-2" d="M289.33,120.75c.24.34.35.74.35,1.19,0,.51-.14.96-.43,1.34-.28.38-.69.68-1.21.88-.52.2-1.12.31-1.81.31s-1.29-.1-1.81-.31c-.52-.2-.91-.5-1.19-.88-.28-.38-.42-.83-.42-1.34,0-.46.12-.85.35-1.19.23-.34.56-.61,1-.81-.34-.18-.59-.43-.77-.73-.18-.3-.27-.65-.27-1.04,0-.47.13-.88.39-1.24.26-.35.63-.62,1.1-.82.47-.19,1.02-.29,1.63-.29s1.17.1,1.64.29c.47.19.84.46,1.1.82.26.35.4.76.4,1.24,0,.39-.09.74-.28,1.03-.18.3-.45.54-.79.73.44.2.78.47,1.01.81ZM287.6,122.9c.34-.24.5-.57.5-1s-.17-.74-.5-.98c-.34-.24-.79-.36-1.37-.36s-1.03.12-1.36.36c-.33.24-.49.57-.49.98s.16.76.49,1c.33.24.78.36,1.36.36s1.03-.12,1.37-.36ZM285.08,117.37c-.28.21-.43.5-.43.88s.14.65.43.86c.28.21.67.32,1.16.32s.89-.11,1.18-.32c.29-.21.43-.5.43-.86s-.15-.67-.44-.88c-.29-.21-.68-.31-1.17-.31s-.87.1-1.16.31Z"/>
      <path class="cls-2" d="M300.08,123.04v1.32h-6.19v-1.04l3.34-3.17c.38-.36.63-.67.76-.94.13-.27.2-.53.2-.8,0-.39-.13-.69-.4-.9-.26-.21-.65-.31-1.16-.31-.86,0-1.51.29-1.97.88l-1.09-.84c.33-.44.77-.78,1.33-1.03.56-.24,1.18-.37,1.87-.37.91,0,1.64.22,2.18.65s.82,1.02.82,1.76c0,.46-.1.88-.29,1.28-.19.4-.56.86-1.1,1.37l-2.24,2.14h3.96Z"/>
      <path class="cls-2" d="M307.28,115.96v1.04l-3.26,7.36h-1.67l3.16-7.08h-3.3v1.43h-1.45v-2.75h6.53Z"/>
      <path class="cls-2" d="M319.04,122.45h-1.49v1.91h-1.51v-1.91h-4.61v-1.08l4.14-5.41h1.67l-3.9,5.17h2.75v-1.69h1.46v1.69h1.49v1.32Z"/>
      <path class="cls-2" d="M325.5,115.96v1.04l-3.26,7.36h-1.67l3.16-7.08h-3.3v1.43h-1.45v-2.75h6.53Z"/>
      <path class="cls-2" d="M336.23,120.75c.24.34.35.74.35,1.19,0,.51-.14.96-.43,1.34-.28.38-.69.68-1.21.88-.52.2-1.12.31-1.81.31s-1.29-.1-1.81-.31c-.52-.2-.91-.5-1.19-.88-.28-.38-.42-.83-.42-1.34,0-.46.12-.85.35-1.19.23-.34.56-.61,1-.81-.34-.18-.59-.43-.77-.73-.18-.3-.27-.65-.27-1.04,0-.47.13-.88.39-1.24.26-.35.63-.62,1.1-.82.47-.19,1.02-.29,1.63-.29s1.17.1,1.64.29c.47.19.84.46,1.1.82.26.35.4.76.4,1.24,0,.39-.09.74-.28,1.03-.18.3-.45.54-.79.73.44.2.78.47,1.01.81ZM334.51,122.9c.34-.24.5-.57.5-1s-.17-.74-.5-.98c-.34-.24-.79-.36-1.37-.36s-1.03.12-1.36.36c-.33.24-.49.57-.49.98s.16.76.49,1,.78.36,1.36.36,1.03-.12,1.37-.36ZM331.99,117.37c-.28.21-.43.5-.43.88s.14.65.43.86.67.32,1.16.32.89-.11,1.18-.32.43-.5.43-.86-.15-.67-.44-.88c-.29-.21-.68-.31-1.17-.31s-.87.1-1.16.31Z"/>
      <path class="cls-2" d="M342.95,120.22c.41.43.61.97.61,1.62,0,.49-.12.93-.37,1.33-.25.4-.62.72-1.12.95-.5.24-1.11.35-1.83.35-.6,0-1.18-.09-1.73-.26s-1.03-.41-1.42-.71l.67-1.21c.3.26.67.46,1.11.61.44.15.89.22,1.35.22.55,0,.99-.11,1.3-.34.32-.23.47-.54.47-.93s-.15-.7-.45-.92c-.3-.22-.76-.33-1.37-.33h-.77v-1.07l1.91-2.27h-3.82v-1.31h5.72v1.04l-2.04,2.42c.78.1,1.37.36,1.78.79Z"/>
    </g>
    <rect class="cls-1" x="247.12" width="2" height="150"/>
  </g>
</svg>