<?xml version="1.0" encoding="UTF-8"?>
<svg id="Calque_1" data-name="Calque 1" xmlns="http://www.w3.org/2000/svg" version="1.1" viewBox="0 0 522 150">
  <g>
    <g>
      <path d="M108.255,52.63c-.718.15-1.46.232-2.215.232-.713,0-1.415-.074-2.097-.21-.545.793-1.251,1.614-2.157,2.395,1.234.635,2.715.977,4.254.977s3.044-.354,4.285-.994c-.857-.855-1.539-1.663-2.07-2.4" fill="#5a3417" stroke-width="0"/>
      <path d="M101.548,56.179c.774,2.744,2.491,4.662,4.49,4.662s3.719-1.913,4.49-4.657c-1.315.656-2.887,1.01-4.487,1.01-1.612,0-3.175-.36-4.493-1.015" fill="#5a3417" stroke-width="0"/>
      <path d="M109.517,42.576c-.261-1.311-1.731-2.315-3.506-2.315-1.786,0-3.265,1.017-3.51,2.34-1.497.597-3.092,2.212-4.69,4.217-2.657,3.334-3.6,7.003-2.107,8.194,1.495,1.189,4.863-.549,7.519-3.883.798-1.004,1.443-2.035,1.914-3.024,0,0,.131-.333.432-.26.282.065.162.455.162.455l-.02.08c-.139.605-.499,1.845-1.352,3.264,1.133.188,2.334.183,3.464-.019-1.034-1.6-1.374-2.797-1.48-3.325,0,0-.119-.39.166-.455.298-.074.429.26.429.26.47.989,1.114,2.02,1.914,3.024,2.659,3.334,6.023,5.072,7.518,3.883,1.493-1.191.55-4.86-2.105-8.194-1.618-2.029-3.234-3.661-4.749-4.241" fill="#5a3417" stroke-width="0"/>
      <path d="M102.254,39.485c0,.416.06.708.198.916,0,0,3.367-2.811,6.881,0,.135-.184.198-.5.198-.916,0-1.464-.866-2.722-2.113-3.3.444-2.175,1.365-3.15,1.374-3.159.186-.187.186-.489-.002-.677-.192-.185-.49-.184-.682.009-.132.141-1.116,1.246-1.603,3.545-.2-.033-.403-.056-.611-.056-.209,0-.412.022-.611.056-.487-2.303-1.472-3.406-1.609-3.55-.187-.186-.484-.188-.678,0-.186.185-.186.487-.001.673.01.011.929.98,1.374,3.16-1.247.578-2.113,1.836-2.113,3.3" fill="#5a3417" stroke-width="0"/>
      <path d="M122.518,34.87l-14.172-8.182c-.043-.025-1.048-.596-2.383-.596-.798,0-1.55.2-2.234.596l-14.173,8.182c-.094.054-2.309,1.363-2.309,3.999v16.365c0,.109.026,2.681,2.309,3.999l14.173,8.182c.042.025,1.047.596,2.382.596h.001c.797,0,1.549-.2,2.234-.596l14.172-8.182c.095-.055,2.309-1.363,2.309-3.999v-16.365c0-.109-.026-2.68-2.309-3.999M123.638,55.234c0,1.938-1.646,2.929-1.715,2.97l-14.172,8.182c-.502.29-1.054.437-1.64.437-1.006,0-1.784-.434-1.789-.437l-14.173-8.182c-1.678-.969-1.714-2.891-1.715-2.97v-16.365c0-1.938,1.647-2.929,1.715-2.97l14.173-8.182c.501-.29,1.053-.437,1.64-.437,1.006,0,1.783.434,1.789.437l14.172,8.182c1.678.97,1.714,2.891,1.715,2.97v16.365Z" fill="#5a3417" stroke-width="0"/>
    </g>
    <path d="M200.198,80.903c-.352-.188-.718-.283-1.089-.283s-.736.095-1.088.283c-.361.192-.631.467-.834.821-.198.358-.302.728-.302,1.115,0,.383.099.747.299,1.104.194.355.466.627.821.822.35.194.717.294,1.104.294s.758-.1,1.108-.294c.354-.196.625-.468.821-.822.196-.356.294-.721.294-1.104,0-.387-.103-.757-.299-1.115-.198-.354-.475-.628-.835-.821M200.717,83.758c-.165.292-.389.524-.684.689-.294.164-.602.243-.924.243s-.622-.079-.919-.243c-.292-.165-.527-.396-.688-.689-.163-.294-.244-.598-.244-.919s.081-.633.251-.927c.164-.3.397-.528.693-.686.295-.16.598-.238.908-.238.313,0,.618.078.909.238.298.158.527.386.693.686.164.294.251.606.251.927s-.082.625-.244.919" fill="#5a3417" stroke-width="0"/>
    <path d="M199.538,82.962c.256-.11.417-.369.417-.683s-.15-.569-.403-.68c-.101-.043-.216-.07-.476-.07h-.778v2.53h.378v-1.005h.486l.54,1.005h.431l-.577-1.068c-.006-.01-.011-.019-.017-.028M199.171,82.699h-.495v-.817h.41c.175,0,.248.019.305.049.117.063.179.186.179.355,0,.258-.149.413-.4.413" fill="#5a3417" stroke-width="0"/>
    <g>
      <path d="M79.694,84.562c.874.098,1.619-.371,2.092-.97.328-.413.796-1.522.523-2.463-.106-.376-.381-.732-.705-.923-.486-.279-.957-.421-1.492-.421-.766,0-1.44.298-1.852.818-.417.524-.89,1.69-.625,2.611,0,0,.284,1.147,2.058,1.348" fill="#5a3417" stroke-width="0"/>
      <path d="M117.984,94.874c-.243-.281-.703-.359-.887-.13-.128.156-.333.48-.594.888-.413.652-.979,1.539-1.572,2.289-.655.838-2.219,2.346-3.587,2.557-.278.043-.566.036-.845-.024-.925-.201-1.335-1.072-1.471-1.456-.181-.485-.045-.821.395-1.005,1.042-.429,3.004-1.344,4.49-3.419.895-1.249,2.082-3.565,1.161-5.539-.782-1.675-2.419-1.888-3.73-1.687-.33.051-.642.136-.933.253-1.848.764-3.111,2.373-4.029,3.677-.606.86-1.278,2.191-1.923,3.371l-1.682,2.75c-1.578,2.236-2.57,1.444-2.607,1.419-.157-.122-.259-.41-.291-.82-.103-1.276.725-5.566,1.396-9.446.77-4.458,1.158-6.433,1.231-7.007.232-1.797-.497-2.774-1.319-3.058,0,0-1.669-.695-2.111.75l-.402,1.353s-2.983,13.3-6.678,17.947c-.566.711-1.3.458-1.42.35-.157-.121-.25-.411-.282-.82-.103-1.276.741-5.636,1.412-9.516.77-4.458,1.157-6.433,1.231-7.007.232-1.797-.315-2.64-1.018-2.974,0,0-1.961-.996-2.377.758l-.343,1.301c-2.317,9.135-4.318,13.271-5.392,15.549-.727,1.574-1.608,2.459-2.022,2.671-.334.165-.818.164-1.074-.029-.167-.131-.267-.341-.298-.627-.067-.77.092-2.126.212-3.114.035-.306.068-.58.093-.802.032-.329.074-.657.115-.991.131-1.073.324-2.231.201-3.356-.072-.641-.213-1.068-.367-1.304-.479-.731-1.665-1.233-2.529-1.1-.427.066-.758.317-.995.753l-1.393,3.623c-2.091,5.553-4.325,6.951-4.325,6.951-.3.173-.629.127-.792-.017-.2-.179-.126-.751-.075-1.26l.86-6.182c.672-4.257-3.23-4.017-3.23-4.017,0,0-2.459-.108-4.574,3.216-.467.733-.781,1.172-.823,1.227,0,0-.191.267-.366.251-.196-.019-.142-.292-.142-.292.085-.569.093-.916.093-.916.089-3.736-3.049-3.486-3.049-3.486,0,0-2.166-.108-4.279,3.216-.467.733-.781,1.172-.824,1.227,0,0-.162.264-.288.261-.288-.007-.22-.302-.22-.302.004-.012.105-.894.1-1.204-.054-3.296-2-3.153-2-3.153-1.31-.032-1.838.948-2.444,2.326-2.941,6.673-4.83,8.397-5.276,8.965-.546.556-1.027.366-1.027.366-.481-.164-.423-.644-.366-1.074l.821-3.821.788-3.676c.197-1.086-.022-2.11-1.288-2.806-1.755-.883-2.129.526-2.129.526-.02.128-.071.307-.098.417-.988-2.074-3.856-1.009-3.856-1.009-2.513.744-3.856,2.845-4.749,4.753-.152.278-1.841,3.243-1.635,7.242.012.527.172,1.155.403,1.701.635,1.514,2.128,1.9,3.398,1.704.205-.032.404-.081.599-.147,1.823-.622,2.731-1.314,3.773-2.806.086-.129.177-.256.265-.38.007.893.035,1.996.711,2.69,1.12,1.157,2.32.794,4.129-1.032l.006.007c2.286-2.366,3.995-5.515,4.888-7.45.125-.271.229-.498.308-.66.2-.418.404-.609.54-.637.289.005.244.34.179.897-.227,2.062-.682,4.386-1.016,6.085-.261,1.343-.37,2.256-.373,2.655,0,.35.278.969,1.437.847,0,0,1.895.139,3.054-5.17.677-3.1,2.229-6.269,3.981-6.228,0,0,.202-.01.449.048,1.444.395,1.126,1.91,1.126,1.91-.227,2.062-.669,4.24-1.003,5.938-.261,1.343-.37,2.256-.373,2.655,0,.35.278.969,1.437.847,0,0,1.896.139,3.054-5.17.051-.231.296-1.159.321-1.378.799-3.35,2.332-5.081,4.047-4.846,0,0,1.965.132,1.288,3.889l-.785,5.286s-.283,2.19,1.832,2.219c2.203.031,4.337-2.361,4.337-2.361.719-.899,1.213-.944,3.865-7.203.127-.323.394-.239.394-.239l.01.004c.219.084.208.226.128.753-.007.052-.04.17-.078.347-.366,1.5-1.482,6.075.21,7.916.498.538,1.187.797,2.042.768,2.851-.103,5.498-5.313,7.249-9.309,0,0,.201-.555.532-.435.211.076.177.253.147.419-.013.049-.024.09-.039.146-.757,2.825-1.581,6.774-.032,8.466,0,0,.731.902,2.299.714,2.352-.085,3.979-3.646,5.664-7.134.466-.976.783-1.672,1.13-2.404.029-.059.143-.326.405-.221.222.089.154.408.133.468,0,0-1.34,7.004-.06,8.577.472.581,1.077.76,1.972.72,1.602-.072,2.812-1.62,3.674-2.733l.216-.28c.652-.823,1.216-1.651,1.719-2.458,0,0,.119-.261.372-.196.222.057.237.384.237.384.012.172.158,1.042.258,1.443,0,0,1.301,5.523,6.804,3.354,1.823-.718,3.373-2.381,4.755-4.563.594-.943,1.353-2.214,1.509-2.675.076-.15.039-.335-.098-.499M38.933,95.949c-1.209,2.833-3.126,4.341-4.188,3.888-1.063-.453-1.132-2.351-.165-5.276,1.029-3.114,2.623-4.335,3.763-4.152,1.304.211,1.797,2.707.589,5.541M109.181,91.405c1.184-1.7,2.452-2.292,3.321-1.686.869.605.87,2.027-.315,3.726-1.184,1.699-2.848,2.584-3.718,1.979-.573-.398-.473-2.321.711-4.02" fill="#5a3417" stroke-width="0"/>
      <path d="M194.647,87.38c-2.155-.442-2.078,1.725-2.078,1.725,0,0-.069,4.723-.88,7.813l-.002.013c-.023.125-.1.341-.137.451-.954,2.854-3.214,1.674-3.214,1.674-.337-.135-.518-.497-.576-.973-.1-.766.019-2.128.107-3.119.024-.304.051-.579.064-.804.062-.933.066-1.162.082-1.702.01-.265.017-.607.04-1.143.003-.087.149-2.294-.711-3.185-.787-.815-1.54-.885-2.09-.824-.493.059-.861.42-1.15,1.155-.383.976-1.195,3.348-1.94,4.804-3.401,6.644-4.814,6.342-4.814,6.342-.77-.028-.16-4.666-.16-4.666.051-.371.801-5.587.801-5.587.177-1.239-.36-1.713-.632-1.846-.27-.132-.671-.152-1.039-.019-.46.161-.683.33-1.077.552-.293.165-.596.337-.905.473-.852.376-1.811.435-2.494.17.597-1.676-.641-2.369-.641-2.369-.295-.201-.653-.264-1.066-.187-.877.165-1.464.744-1.653,1.632-.13.603-.24,1.74.459,2.543.277.317.627.509.964.662,0,0,.33.099-.075,1.024-1.236,2.586-2.207,4.199-2.918,5.214-.512.706-.887,1.119-1.109,1.375-.732.804-1.221.479-1.221.479-.388-.194-.368-.593-.31-1.023l.808-3.767.801-3.73c.197-1.087-.022-2.111-1.288-2.807-1.84-.884-2.128.526-2.128.526-.02.129-.071.307-.099.418-.988-2.075-3.855-1.01-3.855-1.01-2.336.784-3.82,2.909-4.75,4.753-.152.279-1.841,3.243-1.635,7.243.012.526.1,1.063.33,1.609.636,1.514,2.201,1.991,3.47,1.796.206-.032.404-.081.6-.148,1.822-.621,2.73-1.314,3.772-2.805.087-.13.178-.256.265-.381.006.894.106,2.249.783,2.944,0,0,1.568,1.594,4.063-1.278.607-.628,1.172-1.311,1.692-2.011,1.438-1.873,2.504-3.821,3.165-5.256l.307-.665c.933-2.31,1.911-2.411,2.324-2.343.48.078.65.287.768.742,0,0,.349,1.182.074,3.734,0,0-.48,4.908-.494,5.077,0,0-.272,2.415,2.017,2.415,2.203,0,4-2.341,4-2.341.46-.575.926-1.158,1.79-2.557.597-1.138,2.549-4.565,2.572-4.616.158-.24.365-.191.365-.191.226.078.249.155.188.689l-.01.068c-.226,1.831-.598,6.363,1.31,8.133,0,0,1.293,1.323,4.139.446,0,0,.49-.196.358.27-.201.717-.84,1.952-.919,2.117-.509,1.064-2.433,4.093-3.759,5.038-.595.402-1.007.561-1.674.744-1.591.28-1.369,2.379-1.369,2.379.042.378.03,1.038.624,1.347,0,0,1.752.826,4.318-1.081.559-.415,1.133-.955,1.728-1.651,0,0,6.746-7.285,7.801-21.06.19-2.487-1.018-3.222-2.074-3.439M160.501,95.974c-1.208,2.833-3.125,4.341-4.188,3.889-1.062-.453-1.131-2.352-.164-5.276,1.029-3.114,2.622-4.336,3.763-4.152,1.304.211,1.796,2.707.589,5.54" fill="#5a3417" stroke-width="0"/>
      <path d="M27.709,89.152c-1.18-.022-2.638.016-3.931.084.363-2.116.685-4.071,1.125-6.002.015-.063.029-.112.043-.171.501.134.401.082.933.203,0,0,5.92,1.17,8.599.363,0,0,2.762-.703,2.504-4.154-.04-.54-.192-1.029-.382-1.191-.292-.251-.588-.048-.677.109-.591.881-1.608,1.232-3.362,1.333-4.453.257-10.753-.857-10.761-.861-3.586-.583-5.533,1.676-5.533,1.676,0,0-1.285,1.251-.841,2.832,0,0,.293.846,1.002,1.089,0,0,.067.016.08-.045.306-1.245,1.369-1.91,1.369-1.91.604-.44,1.767-.777,3.165-.278-1.305,8.024-2.829,19.171-2.829,19.171-.129,1.329.691,1.714,1.713,1.714,1.133,0,3.073-.912,3.432-1.133-.525-.912-.829-1.961-.829-3.012,0-.878.236-3.132.65-5.956,1.04-.048,2.176-.073,2.976-.078,1.035-.03,2.839.201,3.217-2.038,0,0,.393-1.706-1.662-1.745" fill="#5a3417" stroke-width="0"/>
      <path d="M148.901,99.029c0-1.85,1.135-10.073,2.489-16.013.331-1.409.636-2.818.746-3.454.137-.718-.635-.834-1.133-.88-1.431-.136-2.753.139-3.5.719.111.222.056.47-.055.691-.414.995-1.338,3.517-2.938,6.489-1.555,2.889-3.36,6.349-4.851,8.781-.221.359-.429.74-.595.933-.11-.332-.221-.718-.304-1.078-1.106-5.195-1.822-13.476-2.043-15.549-.058-.524-.446-.925-.93-1.098-.136-.052-.302-.083-.302-.083-4.396-.775-6.435,1.53-6.435,1.53,0,0-1.254,1.255-.81,2.836,0,0,.294.846,1.003,1.089,0,0,.066.016.079-.045.306-1.245,1.369-1.91,1.369-1.91.395-.287,1.029-.529,1.811-.524-.476,1.773-1.271,5.681-1.699,7.315-.471,1.796-2.984,10.473-3.316,11.744-.166.635-.221,1.105-.221,1.381.055.801.58,1.216,1.741,1.216.719,0,1.547-.166,2.514-.498-.221-.47-.359-.995-.359-1.714,0-1.437,1.106-5.968,2.432-10.858.11-.415.193-.857.331-1.272.056.139.11.332.165.581.829,3.896,1.974,9.376,2.23,10.481.151.657.81,1.015,1.619,1.062.861.051,1.594-.506,1.948-1.087,1.442-1.974,3.432-6.091,6.028-10.124.277-.414.525-.773.774-1.106-.415,3.73-1.821,11.138-1.821,12.851.056,1.298.691,1.713,1.713,1.713,1.133,0,2.764-.913,3.123-1.133-.525-.912-.804-1.937-.804-2.987" fill="#5a3417" stroke-width="0"/>
      <polygon points="49.568 109.005 51.799 109.005 51.799 114.659 52.685 114.659 52.685 109.005 54.907 109.005 54.907 108.181 49.568 108.181 49.568 109.005" fill="#5a3417" stroke-width="0"/>
      <path d="M59.386,111.835c.677-.266,1.105-.935,1.105-1.752,0-.799-.381-1.443-1.019-1.724-.257-.11-.551-.179-1.219-.179h-1.974v6.478h.887v-2.61h1.34l1.403,2.61h1.012l-1.462-2.704c-.026-.045-.05-.085-.071-.119M58.5,111.224h-1.334v-2.219h1.114c.467,0,.659.051.816.133.321.173.491.506.491.964,0,.692-.416,1.122-1.087,1.122" fill="#5a3417" stroke-width="0"/>
      <path d="M70.074,110.987c-.684-.29-1.275-.539-1.275-1.124,0-.457.436-.929,1.167-.929.742,0,1.257.486,1.262.491l.127.122.442-.755-.073-.075c-.025-.026-.636-.641-1.757-.641-1.161,0-2.071.793-2.071,1.806,0,1.102.931,1.504,1.753,1.858.721.311,1.344.579,1.344,1.228,0,.552-.451.938-1.096.938-.905,0-1.517-.629-1.522-.636l-.112-.117-.53.685.076.086c.03.034.753.841,2.071.841,1.187,0,2.017-.746,2.017-1.815,0-1.193-.967-1.601-1.82-1.962" fill="#5a3417" stroke-width="0"/>
      <path d="M76.536,108.075c-1.848,0-3.296,1.452-3.296,3.306,0,1.897,1.448,3.385,3.296,3.385s3.296-1.487,3.296-3.385c0-1.854-1.448-3.306-3.296-3.306M76.536,113.923c-1.337,0-2.384-1.117-2.384-2.543,0-1.381,1.047-2.464,2.384-2.464s2.384,1.082,2.384,2.464c0,1.426-1.047,2.543-2.384,2.543" fill="#5a3417" stroke-width="0"/>
      <path d="M84.797,111.954c-.026-.045-.05-.085-.071-.119.677-.266,1.105-.935,1.105-1.752,0-.799-.381-1.443-1.019-1.724-.257-.11-.551-.179-1.219-.179h-1.974v6.478h.887v-2.61h1.34l1.403,2.61h1.012l-1.462-2.704ZM83.839,111.224h-1.334v-2.219h1.114c.467,0,.659.051.816.133.321.173.491.506.491.964,0,.692-.416,1.122-1.087,1.122" fill="#5a3417" stroke-width="0"/>
      <path d="M91.51,112.95c0-1.193-.967-1.602-1.82-1.962-.684-.29-1.275-.539-1.275-1.125,0-.456.436-.928,1.167-.928.743,0,1.257.486,1.262.49l.127.123.442-.755-.073-.075c-.025-.026-.636-.642-1.757-.642-1.161,0-2.07.794-2.07,1.806,0,1.103.931,1.505,1.752,1.859.721.311,1.344.579,1.344,1.228,0,.551-.451.938-1.096.938-.905,0-1.517-.63-1.522-.636l-.111-.117-.53.685.075.086c.03.034.753.841,2.071.841,1.187,0,2.017-.746,2.017-1.815" fill="#5a3417" stroke-width="0"/>
      <path d="M98.48,108.181h-2.141v6.478h2.141c2.006,0,3.252-1.243,3.252-3.243s-1.246-3.234-3.252-3.234M98.418,113.835h-1.193v-4.83h1.193c1.504,0,2.401.901,2.401,2.411s-.898,2.419-2.401,2.419" fill="#5a3417" stroke-width="0"/>
      <polygon points="104.439 111.81 106.794 111.81 106.794 110.985 104.439 110.985 104.439 109.005 107.323 109.005 107.323 108.181 103.554 108.181 103.554 114.658 107.482 114.658 107.482 113.834 104.439 113.834 104.439 111.81" fill="#5a3417" stroke-width="0"/>
      <polygon points="112.338 108.181 112.338 114.659 116.1 114.659 116.1 113.834 113.224 113.834 113.224 108.181 112.338 108.181" fill="#5a3417" stroke-width="0"/>
      <path d="M122.351,114.658l-2.377-6.478h-.847l-2.377,6.478h.94l.706-1.975h2.301l.714,1.975h.94ZM118.673,111.876l.76-2.063c.039-.106.08-.237.117-.364.037.127.079.258.116.363l.745,2.064h-1.739Z" fill="#5a3417" stroke-width="0"/>
      <path d="M129.883,111.835c.677-.266,1.105-.935,1.105-1.752,0-.799-.381-1.443-1.019-1.724-.257-.11-.551-.179-1.219-.179h-1.974v6.478h.887v-2.61h1.34l1.403,2.61h1.012l-1.462-2.704c-.026-.045-.05-.085-.071-.119M128.996,111.224h-1.334v-2.219h1.114c.467,0,.659.051.816.133.321.173.491.506.491.964,0,.692-.416,1.122-1.087,1.122" fill="#5a3417" stroke-width="0"/>
      <path d="M137.06,112.333c0,.996-.608,1.59-1.625,1.59-.997,0-1.617-.602-1.617-1.573v-4.169h-.894v4.178c0,1.438,1.013,2.405,2.52,2.405,1.496,0,2.502-.967,2.502-2.405v-4.178h-.886v4.151Z" fill="#5a3417" stroke-width="0"/>
      <path d="M144.858,113.139c-.007.007-.736.784-1.909.784-1.354,0-2.376-1.097-2.376-2.552,0-1.422.991-2.454,2.358-2.454,1.091,0,1.785.643,1.792.65l.115.109.486-.67-.078-.084c-.032-.034-.809-.847-2.333-.847-1.855,0-3.253,1.421-3.253,3.306,0,1.929,1.41,3.384,3.279,3.384,1.571,0,2.44-.967,2.477-1.008l.078-.088-.528-.647-.109.118Z" fill="#5a3417" stroke-width="0"/>
      <polygon points="151.392 111.003 148.071 111.003 148.071 108.181 147.185 108.181 147.185 114.659 148.071 114.659 148.071 111.827 151.392 111.827 151.392 114.659 152.278 114.659 152.278 108.181 151.392 108.181 151.392 111.003" fill="#5a3417" stroke-width="0"/>
      <polygon points="155.374 111.81 157.729 111.81 157.729 110.985 155.374 110.985 155.374 109.005 158.258 109.005 158.258 108.181 154.488 108.181 154.488 114.658 158.417 114.658 158.417 113.834 155.374 113.834 155.374 111.81" fill="#5a3417" stroke-width="0"/>
      <path d="M87.814,119.469c-.181-.172-.472-.345-.91-.345-.918,0-1.56.738-1.56,1.794,0,1.077.609,1.8,1.516,1.8.473,0,.78-.186.966-.369v.293h.676v-4.708h-.689v1.535ZM86.923,122.074c-.533,0-.877-.454-.877-1.156,0-.678.369-1.15.896-1.15.611,0,.885.577.885,1.15,0,.852-.467,1.156-.903,1.156" fill="#5a3417" stroke-width="0"/>
      <path d="M91.254,119.124c-1.001,0-1.699.741-1.699,1.8,0,1.04.755,1.794,1.793,1.794.758,0,1.247-.46,1.267-.479l.074-.072-.333-.56-.118.118s-.354.348-.877.348c-.613,0-1.031-.389-1.096-1.002h2.424l.01-.118s.014-.153.014-.233c0-.796-.451-1.598-1.459-1.598M90.306,120.46c.125-.446.472-.717.935-.717.426,0,.705.266.766.717h-1.701Z" fill="#5a3417" stroke-width="0"/>
      <path d="M95.415,119.124c-.478,0-.785.185-.973.367v-.291h-.669v4.708h.688v-1.544c.183.175.477.354.916.354.914,0,1.553-.738,1.553-1.794,0-1.076-.609-1.8-1.515-1.8M95.333,122.08c-.58,0-.884-.578-.884-1.15,0-.852.466-1.156.902-1.156.534,0,.878.451.878,1.149,0,.692-.36,1.157-.897,1.157" fill="#5a3417" stroke-width="0"/>
      <path d="M100.25,120.855c0,.582-.368,1.2-1.049,1.2-.472,0-.561-.286-.561-.814v-2.041h-.689v2.155c0,.917.39,1.364,1.193,1.364.519,0,.889-.246,1.119-.502v.426h.676v-3.443h-.689v1.655Z" fill="#5a3417" stroke-width="0"/>
      <rect x="102.201" y="117.933" width=".707" height=".796" fill="#5a3417" stroke-width="0"/>
      <rect x="102.214" y="119.199" width=".689" height="3.443" fill="#5a3417" stroke-width="0"/>
      <path d="M105.373,120.613c-.403-.157-.647-.267-.647-.481,0-.329.353-.364.504-.364.458,0,.694.24.704.25l.117.125.332-.558-.062-.071c-.015-.016-.357-.391-1.079-.391-.717,0-1.217.414-1.217,1.008,0,.659.591.893,1.067,1.081.404.16.649.272.649.483,0,.278-.276.377-.511.377-.527,0-.852-.341-.855-.344l-.105-.114-.391.517.07.079c.019.021.453.506,1.275.506.706,0,1.218-.429,1.218-1.021,0-.667-.592-.898-1.068-1.083" fill="#5a3417" stroke-width="0"/>
      <polygon points="111.198 117.933 110.61 117.933 109.475 119.061 109.934 119.531 110.499 118.966 110.509 118.957 110.509 121.992 109.509 121.992 109.509 122.643 112.179 122.643 112.179 121.992 111.198 121.992 111.198 117.933" fill="#5a3417" stroke-width="0"/>
      <path d="M114.469,117.857c-.897,0-1.522.665-1.522,1.617,0,.908.635,1.566,1.509,1.566.356,0,.7-.11.959-.296-.15.663-.552,1.304-1.301,1.304-.327,0-.58-.14-.583-.142l-.125-.071-.266.626.101.057c.015.008.364.2.88.2,1.368,0,2.085-1.329,2.085-2.642s-.715-2.219-1.737-2.219M114.526,120.39c-.533,0-.877-.362-.877-.922,0-.572.324-.94.826-.94.61,0,.998.73.998,1.232,0,.285-.422.63-.947.63" fill="#5a3417" stroke-width="0"/>
      <path d="M118.947,120.968c.6-.41,1.28-.875,1.28-1.734,0-.81-.61-1.377-1.483-1.377-1.012,0-1.446.839-1.464.875l-.051.101.539.363.069-.122s.315-.542.881-.542c.469,0,.796.299.796.726,0,.494-.45.805-.972,1.166-.613.422-1.307.902-1.307,1.804,0,.109.008.209.028.308l.019.105h3.015v-.65h-2.311c.073-.417.488-.7.962-1.024" fill="#5a3417" stroke-width="0"/>
      <polygon points="122.969 117.933 122.381 117.933 121.246 119.061 121.706 119.531 122.271 118.966 122.28 118.957 122.28 121.992 121.281 121.992 121.281 122.643 123.95 122.643 123.95 121.992 122.969 121.992 122.969 117.933" fill="#5a3417" stroke-width="0"/>
      <polygon points="63.405 111.823 65.758 111.823 65.758 110.999 63.405 110.999 63.405 109.02 66.287 109.02 66.287 108.197 62.521 108.197 62.521 114.668 66.445 114.668 66.445 113.845 63.405 113.845 63.405 111.823" fill="#5a3417" stroke-width="0"/>
      <polygon points="64.546 106.337 63.778 107.664 64.636 107.664 65.593 106.337 64.546 106.337" fill="#5a3417" stroke-width="0"/>
    </g>
  </g>
  <g>
    <path d="M246.601,27.07v2.982h4.732v1.54h-4.732v3.752h-1.82v-9.8h7.154v1.525h-5.334Z" fill="#000" stroke-width="0"/>
    <path d="M259.635,33.076h-4.9l-.966,2.268h-1.876l4.41-9.8h1.792l4.424,9.8h-1.903l-.98-2.268ZM259.033,31.648l-1.849-4.284-1.834,4.284h3.683Z" fill="#000" stroke-width="0"/>
    <path d="M272.767,35.344l-.014-6.496-3.22,5.376h-.812l-3.22-5.292v6.412h-1.736v-9.8h1.498l3.892,6.496,3.822-6.496h1.498l.014,9.8h-1.722Z" fill="#000" stroke-width="0"/>
    <path d="M277.135,25.544h1.819v9.8h-1.819v-9.8Z" fill="#000" stroke-width="0"/>
    <path d="M281.6,25.544h1.82v8.26h5.124v1.54h-6.944v-9.8Z" fill="#000" stroke-width="0"/>
    <path d="M289.986,25.544h1.82v8.26h5.123v1.54h-6.943v-9.8Z" fill="#000" stroke-width="0"/>
    <path d="M305.723,33.818v1.526h-7.351v-9.8h7.154v1.525h-5.334v2.549h4.731v1.498h-4.731v2.701h5.53Z" fill="#000" stroke-width="0"/>
    <path d="M320.618,35.344l-.015-6.496-3.22,5.376h-.812l-3.221-5.292v6.412h-1.735v-9.8h1.498l3.892,6.496,3.822-6.496h1.498l.014,9.8h-1.722Z" fill="#000" stroke-width="0"/>
    <path d="M331.342,33.076h-4.9l-.966,2.268h-1.876l4.41-9.8h1.792l4.424,9.8h-1.903l-.98-2.268ZM330.74,31.648l-1.849-4.284-1.834,4.284h3.683Z" fill="#000" stroke-width="0"/>
    <path d="M341.884,35.344l-2.002-2.87c-.084.01-.21.014-.378.014h-2.212v2.856h-1.82v-9.8h4.032c.85,0,1.589.14,2.219.42s1.113.682,1.449,1.204.504,1.144.504,1.861c0,.738-.18,1.372-.539,1.904s-.875.929-1.547,1.19l2.254,3.22h-1.96ZM341.226,27.588c-.411-.336-1.013-.504-1.806-.504h-2.128v3.906h2.128c.793,0,1.395-.171,1.806-.512s.616-.823.616-1.449-.205-1.105-.616-1.441Z" fill="#000" stroke-width="0"/>
    <path d="M349.793,31.886v3.458h-1.819v-3.43l-3.851-6.37h1.946l2.87,4.773,2.898-4.773h1.791l-3.836,6.342Z" fill="#000" stroke-width="0"/>
    <path d="M365.096,35.344l-2.002-2.87c-.084.01-.21.014-.379.014h-2.211v2.856h-1.82v-9.8h4.031c.85,0,1.59.14,2.22.42s1.112.682,1.449,1.204c.336.522.504,1.144.504,1.861,0,.738-.181,1.372-.539,1.904-.359.532-.875.929-1.547,1.19l2.254,3.22h-1.96ZM364.438,27.588c-.411-.336-1.013-.504-1.807-.504h-2.127v3.906h2.127c.794,0,1.396-.171,1.807-.512.41-.341.616-.823.616-1.449s-.206-1.105-.616-1.441Z" fill="#000" stroke-width="0"/>
    <path d="M376.268,33.818v1.526h-7.351v-9.8h7.154v1.525h-5.334v2.549h4.731v1.498h-4.731v2.701h5.53Z" fill="#000" stroke-width="0"/>
    <path d="M385.913,33.804v1.54h-8.358v-1.218l5.769-7.042h-5.67v-1.54h8.078v1.218l-5.769,7.042h5.95Z" fill="#000" stroke-width="0"/>
    <path d="M394.93,33.818v1.526h-7.351v-9.8h7.154v1.525h-5.334v2.549h4.731v1.498h-4.731v2.701h5.53ZM391.891,22.828h2.059l-2.436,1.918h-1.513l1.89-1.918Z" fill="#000" stroke-width="0"/>
    <path d="M400.277,30.724h3.85v1.456h-3.85v-1.456Z" fill="#000" stroke-width="0"/>
    <path d="M415.373,33.244h-4.465l-.924,2.1h-1.236l3.805-8.4h1.188l3.816,8.4h-1.26l-.924-2.1ZM414.952,32.284l-1.812-4.116-1.812,4.116h3.624Z" fill="#000" stroke-width="0"/>
    <path d="M423.664,29.332c.488.271.87.651,1.146,1.14.275.488.414,1.052.414,1.692s-.139,1.206-.414,1.697c-.276.492-.658.875-1.146,1.146-.488.272-1.04.408-1.655.408-.456,0-.874-.088-1.255-.265-.38-.176-.701-.432-.966-.768v3.288h-1.151v-8.688h1.104v1.009c.256-.353.58-.618.973-.799.392-.18.823-.27,1.296-.27.615,0,1.167.136,1.655.408ZM423.011,34.126c.323-.188.579-.452.768-.792s.282-.73.282-1.17-.094-.83-.282-1.17-.444-.603-.768-.786c-.324-.185-.69-.276-1.099-.276-.4,0-.762.094-1.086.282-.324.188-.58.45-.768.786-.188.336-.282.724-.282,1.164s.092.83.276,1.17c.184.34.439.604.768.792.328.188.691.282,1.092.282.408,0,.774-.095,1.099-.282Z" fill="#000" stroke-width="0"/>
    <path d="M426.839,27.544c-.148-.145-.223-.32-.223-.528s.074-.386.223-.534c.147-.147.333-.222.558-.222s.41.07.559.21c.147.14.222.314.222.522,0,.216-.074.397-.222.546-.148.147-.335.222-.559.222s-.41-.072-.558-.216ZM426.82,28.984h1.152v6.36h-1.152v-6.36Z" fill="#000" stroke-width="0"/>
    <path d="M431.206,34.996c-.508-.28-.905-.666-1.193-1.158s-.433-1.05-.433-1.674.145-1.183.433-1.674c.288-.492.686-.877,1.193-1.152.509-.276,1.087-.414,1.734-.414.576,0,1.09.116,1.542.348.452.232.802.568,1.05,1.008l-.876.564c-.2-.304-.448-.532-.744-.684-.296-.152-.624-.229-.983-.229-.416,0-.79.092-1.122.276-.332.184-.592.446-.78.786s-.282.729-.282,1.17c0,.448.094.842.282,1.182s.448.603.78.786.706.276,1.122.276c.359,0,.688-.076.983-.229.296-.151.544-.38.744-.684l.876.552c-.248.44-.598.778-1.05,1.014-.452.236-.966.354-1.542.354-.647,0-1.226-.141-1.734-.42Z" fill="#000" stroke-width="0"/>
    <path d="M442.948,28.984v6.36h-1.092v-.96c-.232.328-.538.582-.918.762-.38.181-.794.271-1.242.271-.849,0-1.517-.234-2.004-.702-.488-.468-.732-1.158-.732-2.07v-3.66h1.152v3.528c0,.616.147,1.082.444,1.398.295.315.72.474,1.271.474.607,0,1.088-.184,1.44-.552.352-.368.527-.889.527-1.561v-3.288h1.152Z" fill="#000" stroke-width="0"/>
    <path d="M445.145,26.44h1.151v8.904h-1.151v-8.904Z" fill="#000" stroke-width="0"/>
    <path d="M452.224,34.972c-.168.145-.376.254-.624.33s-.504.114-.768.114c-.641,0-1.137-.172-1.488-.517-.352-.344-.527-.836-.527-1.476v-3.492h-1.08v-.948h1.08v-1.392h1.151v1.392h1.824v.948h-1.824v3.444c0,.344.086.607.258.792.173.184.418.275.738.275.353,0,.652-.1.9-.3l.359.828Z" fill="#000" stroke-width="0"/>
    <path d="M459.124,32.548h-5.16c.072.56.318,1.01.738,1.35.42.341.941.511,1.565.511.76,0,1.372-.257,1.836-.769l.637.744c-.288.336-.646.592-1.074.768-.428.177-.906.265-1.434.265-.673,0-1.269-.139-1.789-.414-.52-.276-.922-.662-1.205-1.158-.284-.496-.427-1.056-.427-1.68,0-.616.139-1.172.414-1.668.276-.496.656-.883,1.141-1.158.483-.276,1.029-.414,1.638-.414s1.15.138,1.626.414c.476.275.848.662,1.116,1.158.268.496.402,1.063.402,1.704,0,.088-.009.203-.024.348ZM454.618,30.4c-.372.336-.591.776-.654,1.32h4.08c-.064-.536-.282-.974-.654-1.314-.372-.34-.834-.51-1.386-.51s-1.014.168-1.386.504Z" fill="#000" stroke-width="0"/>
    <path d="M466.672,28.984v6.36h-1.092v-.96c-.232.328-.538.582-.918.762-.381.181-.795.271-1.242.271-.848,0-1.516-.234-2.004-.702s-.732-1.158-.732-2.07v-3.66h1.152v3.528c0,.616.148,1.082.443,1.398.297.315.721.474,1.272.474.608,0,1.088-.184,1.44-.552.352-.368.527-.889.527-1.561v-3.288h1.152Z" fill="#000" stroke-width="0"/>
    <path d="M470.859,29.212c.393-.192.868-.288,1.428-.288v1.116c-.063-.008-.151-.013-.264-.013-.624,0-1.114.187-1.47.559-.356.372-.534.902-.534,1.59v3.168h-1.152v-6.36h1.104v1.068c.2-.368.496-.648.888-.84Z" fill="#000" stroke-width="0"/>
    <path d="M244.725,44.944h3.54c.888,0,1.676.177,2.364.528.688.353,1.222.846,1.602,1.482.38.636.57,1.366.57,2.189s-.19,1.554-.57,2.19c-.38.636-.914,1.13-1.602,1.481-.688.353-1.476.528-2.364.528h-3.54v-8.4ZM248.193,52.3c.68,0,1.278-.132,1.794-.396.516-.264.914-.634,1.194-1.109s.42-1.026.42-1.65-.14-1.174-.42-1.649c-.28-.477-.678-.847-1.194-1.11s-1.114-.396-1.794-.396h-2.268v6.312h2.268Z" fill="#000" stroke-width="0"/>
    <path d="M260.192,50.548h-5.16c.072.56.318,1.01.738,1.35.42.341.942.511,1.566.511.76,0,1.372-.257,1.836-.769l.636.744c-.288.336-.646.592-1.074.768-.428.177-.906.265-1.434.265-.672,0-1.268-.139-1.788-.414-.52-.276-.922-.662-1.206-1.158s-.426-1.056-.426-1.68c0-.616.138-1.172.414-1.668.276-.496.656-.883,1.14-1.158.484-.276,1.03-.414,1.638-.414s1.15.138,1.626.414c.476.275.848.662,1.116,1.158.269.496.402,1.063.402,1.704,0,.088-.008.203-.024.348ZM255.687,48.4c-.372.336-.59.776-.654,1.32h4.08c-.064-.536-.282-.974-.654-1.314-.372-.34-.834-.51-1.386-.51s-1.014.168-1.386.504Z" fill="#000" stroke-width="0"/>
    <path d="M266.841,47.332c.487.271.87.651,1.146,1.14.276.488.414,1.052.414,1.692s-.138,1.206-.414,1.697c-.275.492-.658.875-1.146,1.146-.488.272-1.04.408-1.656.408-.456,0-.874-.088-1.254-.265-.38-.176-.702-.432-.966-.768v3.288h-1.152v-8.688h1.104v1.009c.256-.353.579-.618.972-.799.392-.18.824-.27,1.296-.27.616,0,1.168.136,1.656.408ZM266.187,52.126c.324-.188.58-.452.769-.792.188-.34.281-.73.281-1.17s-.094-.83-.281-1.17c-.188-.34-.444-.603-.769-.786-.323-.185-.69-.276-1.098-.276-.4,0-.763.094-1.086.282-.324.188-.58.45-.769.786-.188.336-.281.724-.281,1.164s.092.83.275,1.17.439.604.768.792c.328.188.692.282,1.093.282.407,0,.774-.095,1.098-.282Z" fill="#000" stroke-width="0"/>
    <path d="M275.925,46.984v6.36h-1.093v-.96c-.231.328-.537.582-.918.762-.38.181-.794.271-1.241.271-.849,0-1.517-.234-2.005-.702-.487-.468-.731-1.158-.731-2.07v-3.66h1.152v3.528c0,.616.147,1.082.443,1.398.296.315.72.474,1.272.474.607,0,1.088-.184,1.439-.552.353-.368.528-.889.528-1.561v-3.288h1.152Z" fill="#000" stroke-width="0"/>
    <path d="M278.139,45.544c-.148-.145-.223-.32-.223-.528s.074-.386.223-.534c.147-.147.334-.222.558-.222s.41.07.558.21c.148.14.223.314.223.522,0,.216-.074.397-.223.546-.147.147-.334.222-.558.222s-.41-.072-.558-.216ZM278.12,46.984h1.152v6.36h-1.152v-6.36Z" fill="#000" stroke-width="0"/>
    <path d="M281.793,53.206c-.48-.141-.856-.318-1.129-.534l.48-.912c.279.2.62.36,1.02.48.4.119.805.18,1.213.18,1.008,0,1.512-.288,1.512-.864,0-.192-.068-.344-.204-.456-.136-.111-.306-.193-.51-.246-.204-.052-.494-.109-.87-.174-.512-.08-.93-.172-1.254-.276-.324-.104-.603-.279-.834-.527-.232-.248-.349-.596-.349-1.044,0-.576.24-1.038.72-1.387.48-.348,1.125-.521,1.933-.521.424,0,.848.052,1.272.156.424.104.771.244,1.043.42l-.491.912c-.521-.336-1.132-.504-1.836-.504-.488,0-.86.08-1.116.239-.256.16-.384.372-.384.637,0,.208.071.371.216.491.144.12.322.208.534.265.212.056.51.12.894.191.512.089.926.183,1.242.282.316.101.586.271.81.51.224.24.337.576.337,1.009,0,.575-.246,1.033-.738,1.373-.492.341-1.162.511-2.01.511-.521,0-1.021-.07-1.5-.21Z" fill="#000" stroke-width="0"/>
    <path d="M292.796,44.944v8.4h-1.188v-7.356h-1.896v-1.044h3.084Z" fill="#000" stroke-width="0"/>
    <path d="M299.966,45.94c.612.729.918,1.761.918,3.097,0,.936-.166,1.733-.497,2.394-.332.66-.797,1.16-1.393,1.5s-1.29.51-2.082.51c-.408,0-.792-.042-1.152-.126-.359-.084-.672-.206-.936-.366l.456-.936c.408.264.948.396,1.62.396.871,0,1.554-.271,2.046-.811s.737-1.326.737-2.357v-.301c-.239.36-.571.635-.995.822-.425.188-.9.282-1.429.282-.552,0-1.046-.104-1.481-.312-.437-.208-.776-.506-1.021-.894s-.365-.834-.365-1.338c0-.528.129-.992.39-1.393.26-.399.614-.71,1.062-.93.448-.22.952-.33,1.513-.33,1.128,0,1.998.364,2.609,1.092ZM298.473,48.856c.295-.144.525-.34.689-.588s.246-.523.246-.828c0-.296-.078-.565-.234-.81s-.384-.44-.684-.588c-.3-.148-.662-.223-1.086-.223-.553,0-.998.148-1.338.444s-.51.692-.51,1.188.172.89.516,1.182.808.438,1.392.438c.376,0,.712-.071,1.009-.216Z" fill="#000" stroke-width="0"/>
    <path d="M307.904,52.3v1.044h-6.036v-.816l3.42-3.3c.416-.399.696-.746.84-1.038s.216-.586.216-.882c0-.439-.154-.782-.462-1.025-.308-.244-.75-.366-1.325-.366-.929,0-1.645.304-2.148.912l-.816-.708c.328-.4.758-.712,1.29-.937.532-.224,1.126-.336,1.782-.336.88,0,1.58.21,2.1.63.521.42.78.99.78,1.71,0,.448-.096.872-.288,1.272-.191.4-.556.855-1.092,1.368l-2.568,2.472h4.309Z" fill="#000" stroke-width="0"/>
    <path d="M311.492,44.944v8.4h-1.188v-7.356h-1.896v-1.044h3.084Z" fill="#000" stroke-width="0"/>
    <path d="M316.771,48.334c-.16-.156-.239-.354-.239-.594,0-.232.079-.427.239-.582.16-.156.353-.234.576-.234s.412.076.564.228c.152.152.228.349.228.589s-.077.438-.233.594-.342.233-.559.233c-.224,0-.416-.077-.576-.233ZM316.771,53.182c-.16-.156-.239-.354-.239-.594,0-.232.079-.426.239-.582s.353-.234.576-.234.412.076.564.229c.152.151.228.348.228.588s-.077.438-.233.594-.342.234-.559.234c-.224,0-.416-.078-.576-.234Z" fill="#000" stroke-width="0"/>
    <path d="M330.979,53.344l-.012-6.12-3.036,5.101h-.552l-3.036-5.064v6.084h-1.152v-8.4h.984l3.504,5.904,3.456-5.904h.983l.013,8.4h-1.152Z" fill="#000" stroke-width="0"/>
    <path d="M334.502,45.544c-.148-.145-.223-.32-.223-.528s.074-.386.223-.534c.147-.147.334-.222.558-.222s.41.07.558.21c.148.14.223.314.223.522,0,.216-.074.397-.223.546-.147.147-.334.222-.558.222s-.41-.072-.558-.216ZM334.483,46.984h1.152v6.36h-1.152v-6.36Z" fill="#000" stroke-width="0"/>
    <path d="M343.556,50.548h-5.16c.072.56.318,1.01.738,1.35.42.341.941.511,1.565.511.76,0,1.372-.257,1.836-.769l.637.744c-.288.336-.646.592-1.074.768-.428.177-.906.265-1.434.265-.673,0-1.269-.139-1.789-.414-.52-.276-.922-.662-1.205-1.158-.284-.496-.427-1.056-.427-1.68,0-.616.139-1.172.414-1.668.276-.496.656-.883,1.141-1.158.483-.276,1.029-.414,1.638-.414s1.15.138,1.626.414c.476.275.848.662,1.116,1.158.268.496.402,1.063.402,1.704,0,.088-.009.203-.024.348ZM339.05,48.4c-.372.336-.591.776-.654,1.32h4.08c-.064-.536-.282-.974-.654-1.314-.372-.34-.834-.51-1.386-.51s-1.014.168-1.386.504Z" fill="#000" stroke-width="0"/>
    <path d="M345.176,44.44h1.151v8.904h-1.151v-8.904Z" fill="#000" stroke-width="0"/>
    <path d="M356.779,47.332c.488.271.87.651,1.146,1.14.275.488.414,1.052.414,1.692s-.139,1.206-.414,1.697c-.276.492-.658.875-1.146,1.146-.488.272-1.04.408-1.656.408-.472,0-.904-.092-1.296-.276-.392-.184-.716-.452-.972-.804v1.008h-1.104v-8.904h1.151v3.504c.256-.336.576-.59.96-.762s.805-.258,1.26-.258c.616,0,1.168.136,1.656.408ZM356.125,52.126c.324-.188.58-.452.769-.792.188-.34.282-.73.282-1.17s-.095-.83-.282-1.17c-.188-.34-.444-.603-.769-.786-.323-.185-.689-.276-1.098-.276-.4,0-.764.092-1.092.276-.328.184-.584.446-.768.786-.185.34-.276.729-.276,1.17s.092.83.276,1.17c.184.34.439.604.768.792.328.188.691.282,1.092.282.408,0,.774-.095,1.098-.282Z" fill="#000" stroke-width="0"/>
    <path d="M359.953,45.544c-.148-.145-.222-.32-.222-.528s.073-.386.222-.534c.148-.147.334-.222.559-.222s.409.07.558.21c.147.14.222.314.222.522,0,.216-.074.397-.222.546-.148.147-.334.222-.558.222s-.41-.072-.559-.216ZM359.936,46.984h1.151v6.36h-1.151v-6.36Z" fill="#000" stroke-width="0"/>
    <path d="M364.303,52.996c-.504-.28-.897-.666-1.182-1.158s-.426-1.05-.426-1.674.142-1.183.426-1.674c.284-.492.678-.877,1.182-1.152.504-.276,1.072-.414,1.704-.414s1.198.138,1.698.414c.5.275.893.66,1.176,1.152.284.491.426,1.05.426,1.674s-.142,1.182-.426,1.674c-.283.492-.676.878-1.176,1.158-.5.279-1.066.42-1.698.42s-1.2-.141-1.704-.42ZM367.105,52.126c.324-.188.578-.452.762-.792s.275-.73.275-1.17-.092-.83-.275-1.17-.438-.603-.762-.786c-.324-.185-.69-.276-1.099-.276s-.773.092-1.098.276c-.324.184-.58.446-.769.786-.188.34-.281.729-.281,1.17s.094.83.281,1.17c.188.34.444.604.769.792.324.188.69.282,1.098.282s.774-.095,1.099-.282Z" fill="#000" stroke-width="0"/>
    <path d="M375.427,46.432v.552h1.849v.948h-1.824v5.412h-1.152v-5.412h-1.08v-.948h1.08v-.563c0-.632.184-1.132.553-1.5.367-.368.883-.552,1.548-.552.256,0,.495.031.72.096.224.064.416.156.576.276l-.348.876c-.265-.2-.561-.301-.889-.301-.688,0-1.032.372-1.032,1.116Z" fill="#000" stroke-width="0"/>
    <path d="M381.318,47.212c.393-.192.868-.288,1.429-.288v1.116c-.064-.008-.152-.013-.265-.013-.623,0-1.113.187-1.47.559s-.534.902-.534,1.59v3.168h-1.151v-6.36h1.104v1.068c.2-.368.496-.648.888-.84Z" fill="#000" stroke-width="0"/>
    <path d="M388.488,47.572c.469.433.703,1.076.703,1.933v3.84h-1.093v-.84c-.192.296-.466.521-.821.678-.356.156-.778.234-1.267.234-.712,0-1.282-.172-1.71-.517-.428-.344-.642-.796-.642-1.355s.204-1.01.611-1.351c.408-.34,1.057-.51,1.944-.51h1.824v-.228c0-.496-.145-.876-.432-1.141-.289-.264-.713-.396-1.272-.396-.376,0-.744.062-1.104.186-.359.124-.664.29-.912.498l-.479-.863c.328-.265.72-.467,1.176-.606s.94-.21,1.452-.21c.88,0,1.554.216,2.021.647ZM387.343,52.234c.319-.195.552-.474.696-.834v-.888h-1.776c-.976,0-1.464.328-1.464.984,0,.319.124.571.372.756.248.184.592.275,1.032.275s.819-.098,1.14-.294Z" fill="#000" stroke-width="0"/>
    <path d="M396.648,47.626c.477.468.714,1.154.714,2.058v3.66h-1.151v-3.528c0-.615-.148-1.08-.444-1.392-.296-.312-.72-.468-1.272-.468-.623,0-1.115.182-1.476.546s-.54.886-.54,1.565v3.276h-1.152v-6.36h1.104v.96c.231-.327.546-.579.942-.756.396-.176.846-.264,1.35-.264.808,0,1.45.234,1.926.702Z" fill="#000" stroke-width="0"/>
    <path d="M400.572,52.996c-.508-.28-.905-.666-1.193-1.158s-.433-1.05-.433-1.674.145-1.183.433-1.674c.288-.492.686-.877,1.193-1.152.508-.276,1.086-.414,1.734-.414.576,0,1.09.116,1.542.348.452.232.802.568,1.05,1.008l-.876.564c-.2-.304-.448-.532-.744-.684-.296-.152-.624-.229-.983-.229-.416,0-.791.092-1.122.276-.332.184-.593.446-.78.786s-.282.729-.282,1.17c0,.448.095.842.282,1.182s.448.603.78.786c.331.184.706.276,1.122.276.359,0,.688-.076.983-.229.296-.151.544-.38.744-.684l.876.552c-.248.44-.598.778-1.05,1.014-.452.236-.966.354-1.542.354-.648,0-1.227-.141-1.734-.42ZM400.675,55.768l.252-.588c.24.136.512.204.815.204.448,0,.672-.16.672-.48,0-.144-.056-.258-.168-.342-.111-.084-.283-.126-.516-.126h-.324l.301-1.176h.66l-.181.684c.336.032.594.139.774.318.18.18.27.406.27.678,0,.336-.136.603-.408.798-.271.196-.632.295-1.08.295-.416,0-.771-.089-1.067-.265Z" fill="#000" stroke-width="0"/>
    <path d="M410.725,47.572c.468.433.702,1.076.702,1.933v3.84h-1.093v-.84c-.191.296-.466.521-.821.678-.356.156-.778.234-1.267.234-.712,0-1.281-.172-1.71-.517-.428-.344-.642-.796-.642-1.355s.204-1.01.611-1.351c.408-.34,1.057-.51,1.944-.51h1.824v-.228c0-.496-.144-.876-.432-1.141-.288-.264-.712-.396-1.272-.396-.376,0-.744.062-1.104.186-.36.124-.664.29-.912.498l-.48-.863c.328-.265.721-.467,1.176-.606.457-.14.94-.21,1.452-.21.88,0,1.554.216,2.022.647ZM409.578,52.234c.32-.195.553-.474.696-.834v-.888h-1.776c-.976,0-1.464.328-1.464.984,0,.319.124.571.372.756.248.184.592.275,1.032.275s.819-.098,1.14-.294Z" fill="#000" stroke-width="0"/>
    <path d="M413.58,45.544c-.147-.145-.222-.32-.222-.528s.074-.386.222-.534c.148-.147.334-.222.559-.222s.41.07.558.21c.148.14.222.314.222.522,0,.216-.073.397-.222.546-.147.147-.334.222-.558.222s-.41-.072-.559-.216ZM413.562,46.984h1.152v6.36h-1.152v-6.36Z" fill="#000" stroke-width="0"/>
    <path d="M417.234,53.206c-.48-.141-.856-.318-1.128-.534l.479-.912c.28.2.62.36,1.021.48.399.119.804.18,1.212.18,1.008,0,1.512-.288,1.512-.864,0-.192-.068-.344-.203-.456-.137-.111-.307-.193-.511-.246-.204-.052-.494-.109-.87-.174-.512-.08-.93-.172-1.254-.276-.324-.104-.602-.279-.834-.527s-.348-.596-.348-1.044c0-.576.24-1.038.72-1.387.479-.348,1.124-.521,1.933-.521.424,0,.848.052,1.271.156.424.104.771.244,1.044.42l-.492.912c-.521-.336-1.132-.504-1.836-.504-.487,0-.86.08-1.116.239-.256.16-.384.372-.384.637,0,.208.072.371.216.491.145.12.322.208.534.265.212.056.511.12.894.191.513.089.927.183,1.242.282.316.101.586.271.811.51.224.24.336.576.336,1.009,0,.575-.246,1.033-.738,1.373-.492.341-1.162.511-2.01.511-.52,0-1.02-.07-1.5-.21Z" fill="#000" stroke-width="0"/>
    <path d="M254.181,82.984l-2.376,6.36h-1.104l-1.836-4.824-1.86,4.824h-1.104l-2.364-6.36h1.092l1.848,5.064,1.92-5.064h.973l1.884,5.088,1.896-5.088h1.032Z" fill="#000" stroke-width="0"/>
    <path d="M264.873,82.984l-2.376,6.36h-1.104l-1.836-4.824-1.86,4.824h-1.104l-2.364-6.36h1.092l1.848,5.064,1.92-5.064h.972l1.884,5.088,1.896-5.088h1.032Z" fill="#000" stroke-width="0"/>
    <path d="M275.564,82.984l-2.376,6.36h-1.104l-1.837-4.824-1.859,4.824h-1.104l-2.364-6.36h1.092l1.848,5.064,1.92-5.064h.973l1.884,5.088,1.896-5.088h1.031Z" fill="#000" stroke-width="0"/>
    <path d="M276.033,89.182c-.16-.156-.24-.354-.24-.594,0-.232.08-.426.24-.582.159-.156.352-.234.575-.234s.412.076.564.229c.151.151.228.348.228.588s-.078.438-.233.594c-.156.156-.343.234-.559.234-.224,0-.416-.078-.575-.234Z" fill="#000" stroke-width="0"/>
    <path d="M281.049,83.212c.392-.192.867-.288,1.428-.288v1.116c-.064-.008-.152-.013-.264-.013-.625,0-1.115.187-1.471.559s-.534.902-.534,1.59v3.168h-1.151v-6.36h1.104v1.068c.2-.368.496-.648.889-.84Z" fill="#000" stroke-width="0"/>
    <path d="M289.557,86.548h-5.16c.072.56.318,1.01.738,1.35.42.341.941.511,1.565.511.761,0,1.372-.257,1.836-.769l.636.744c-.287.336-.646.592-1.073.768-.429.177-.906.265-1.435.265-.672,0-1.268-.139-1.787-.414-.521-.276-.923-.662-1.207-1.158-.283-.496-.426-1.056-.426-1.68,0-.616.139-1.172.414-1.668.276-.496.656-.883,1.141-1.158.483-.276,1.029-.414,1.638-.414s1.149.138,1.626.414c.476.275.848.662,1.116,1.158.268.496.401,1.063.401,1.704,0,.088-.008.203-.023.348ZM285.051,84.4c-.372.336-.59.776-.654,1.32h4.08c-.064-.536-.282-.974-.654-1.314-.372-.34-.834-.51-1.386-.51s-1.015.168-1.386.504Z" fill="#000" stroke-width="0"/>
    <path d="M295.832,88.396v.948h-5.328v-.744l3.757-4.668h-3.685v-.948h5.16v.757l-3.756,4.655h3.852Z" fill="#000" stroke-width="0"/>
    <path d="M302.996,86.548h-5.159c.071.56.317,1.01.737,1.35.42.341.942.511,1.566.511.76,0,1.372-.257,1.836-.769l.636.744c-.288.336-.646.592-1.073.768-.429.177-.906.265-1.435.265-.672,0-1.268-.139-1.788-.414-.52-.276-.922-.662-1.206-1.158s-.426-1.056-.426-1.68c0-.616.138-1.172.414-1.668s.656-.883,1.14-1.158c.484-.276,1.03-.414,1.639-.414s1.149.138,1.626.414c.476.275.848.662,1.116,1.158.268.496.401,1.063.401,1.704,0,.088-.008.203-.024.348ZM298.49,84.4c-.371.336-.59.776-.653,1.32h4.08c-.064-.536-.282-.974-.654-1.314-.372-.34-.834-.51-1.386-.51s-1.015.168-1.387.504Z" fill="#000" stroke-width="0"/>
    <path d="M312.656,81.526c.848.444,1.51,1.066,1.986,1.866.476.8.714,1.712.714,2.736s-.188,1.828-.563,2.412c-.377.584-.9.876-1.572.876-.385,0-.702-.098-.954-.294s-.414-.479-.486-.847c-.239.368-.554.65-.942.847-.388.196-.834.294-1.338.294-.56,0-1.063-.132-1.512-.396-.448-.264-.798-.63-1.05-1.098s-.378-.998-.378-1.59c0-.584.126-1.11.378-1.578s.602-.832,1.05-1.092.952-.391,1.512-.391c.465,0,.885.086,1.261.258.376.173.688.427.936.763v-.973h1.044v4.32c0,.296.064.515.192.654s.292.21.491.21c.353,0,.627-.206.822-.618.196-.412.295-.994.295-1.746,0-.888-.201-1.67-.601-2.346-.4-.676-.962-1.202-1.687-1.578-.724-.376-1.554-.564-2.489-.564-.944,0-1.778.196-2.502.589-.725.392-1.286.939-1.687,1.644s-.6,1.508-.6,2.412c0,.912.197,1.72.594,2.424s.952,1.254,1.668,1.65c.716.396,1.542.594,2.479.594.392,0,.791-.044,1.199-.132.408-.089.78-.221,1.116-.396l.265.769c-.353.184-.761.323-1.225.42-.464.096-.916.144-1.355.144-1.097,0-2.07-.233-2.922-.702-.853-.468-1.515-1.118-1.986-1.949-.473-.832-.708-1.772-.708-2.82s.237-1.984.714-2.809c.476-.823,1.144-1.468,2.004-1.932.859-.464,1.842-.696,2.946-.696,1.08,0,2.044.223,2.892.666ZM310.719,88.216c.308-.176.552-.426.731-.75.181-.324.271-.702.271-1.134s-.09-.811-.271-1.135c-.18-.323-.424-.571-.731-.743-.309-.172-.658-.259-1.051-.259-.607,0-1.1.194-1.476.582-.376.389-.563.906-.563,1.555s.189,1.168.569,1.56c.38.393.87.588,1.47.588.393,0,.742-.088,1.051-.264Z" fill="#000" stroke-width="0"/>
    <path d="M318.32,82.432v.552h1.849v.948h-1.824v5.412h-1.152v-5.412h-1.08v-.948h1.08v-.563c0-.632.185-1.132.552-1.5.368-.368.885-.552,1.549-.552.256,0,.496.031.72.096s.416.156.576.276l-.349.876c-.264-.2-.56-.301-.888-.301-.688,0-1.032.372-1.032,1.116Z" fill="#000" stroke-width="0"/>
    <path d="M325.479,83.572c.468.433.702,1.076.702,1.933v3.84h-1.092v-.84c-.192.296-.466.521-.822.678s-.778.234-1.267.234c-.711,0-1.281-.172-1.709-.517-.429-.344-.643-.796-.643-1.355s.204-1.01.612-1.351c.408-.34,1.056-.51,1.944-.51h1.823v-.228c0-.496-.144-.876-.432-1.141-.288-.264-.712-.396-1.272-.396-.376,0-.744.062-1.104.186-.36.124-.664.29-.912.498l-.48-.863c.328-.265.721-.467,1.177-.606s.939-.21,1.452-.21c.879,0,1.554.216,2.021.647ZM324.332,88.234c.32-.195.553-.474.696-.834v-.888h-1.775c-.977,0-1.464.328-1.464.984,0,.319.123.571.371.756.248.184.592.275,1.032.275s.82-.098,1.14-.294Z" fill="#000" stroke-width="0"/>
    <path d="M338.174,83.62c.469.464.703,1.151.703,2.063v3.66h-1.152v-3.528c0-.615-.143-1.08-.426-1.392-.284-.312-.69-.468-1.219-.468-.584,0-1.048.182-1.392.546-.345.364-.517.886-.517,1.565v3.276h-1.151v-3.528c0-.615-.143-1.08-.426-1.392-.284-.312-.69-.468-1.218-.468-.585,0-1.049.182-1.393.546s-.516.886-.516,1.565v3.276h-1.152v-6.36h1.104v.948c.232-.328.536-.578.912-.75s.805-.258,1.284-.258c.496,0,.937.1,1.32.3s.68.492.888.876c.24-.368.574-.655,1.002-.864.428-.208.91-.312,1.446-.312.8,0,1.434.232,1.901.696Z" fill="#000" stroke-width="0"/>
    <path d="M341.019,81.544c-.148-.145-.223-.32-.223-.528s.074-.386.223-.534c.147-.147.333-.222.558-.222s.41.07.559.21c.147.14.222.314.222.522,0,.216-.074.397-.222.546-.148.147-.335.222-.559.222s-.41-.072-.558-.216ZM341,82.984h1.152v6.36h-1.152v-6.36Z" fill="#000" stroke-width="0"/>
    <path d="M344.349,80.44h1.151v8.904h-1.151v-8.904Z" fill="#000" stroke-width="0"/>
    <path d="M347.696,80.44h1.151v8.904h-1.151v-8.904Z" fill="#000" stroke-width="0"/>
    <path d="M356.768,86.548h-5.159c.071.56.317,1.01.737,1.35.42.341.942.511,1.566.511.76,0,1.372-.257,1.836-.769l.636.744c-.288.336-.646.592-1.073.768-.429.177-.906.265-1.435.265-.672,0-1.268-.139-1.788-.414-.52-.276-.922-.662-1.206-1.158s-.426-1.056-.426-1.68c0-.616.138-1.172.414-1.668s.656-.883,1.14-1.158c.484-.276,1.03-.414,1.639-.414s1.149.138,1.626.414c.476.275.848.662,1.116,1.158.268.496.401,1.063.401,1.704,0,.088-.008.203-.024.348ZM352.262,84.4c-.371.336-.59.776-.653,1.32h4.08c-.064-.536-.282-.974-.654-1.314-.372-.34-.834-.51-1.386-.51s-1.015.168-1.387.504Z" fill="#000" stroke-width="0"/>
    <path d="M368.246,83.62c.468.464.702,1.151.702,2.063v3.66h-1.152v-3.528c0-.615-.142-1.08-.426-1.392-.284-.312-.69-.468-1.218-.468-.584,0-1.049.182-1.393.546s-.516.886-.516,1.565v3.276h-1.152v-3.528c0-.615-.143-1.08-.426-1.392-.284-.312-.69-.468-1.218-.468-.585,0-1.049.182-1.393.546s-.516.886-.516,1.565v3.276h-1.152v-6.36h1.104v.948c.231-.328.535-.578.912-.75.375-.172.804-.258,1.283-.258.496,0,.937.1,1.32.3s.68.492.889.876c.239-.368.573-.655,1.002-.864.428-.208.909-.312,1.445-.312.8,0,1.434.232,1.902.696Z" fill="#000" stroke-width="0"/>
    <path d="M375.41,83.572c.468.433.702,1.076.702,1.933v3.84h-1.093v-.84c-.191.296-.466.521-.821.678-.356.156-.778.234-1.267.234-.712,0-1.281-.172-1.71-.517-.428-.344-.642-.796-.642-1.355s.204-1.01.611-1.351c.408-.34,1.057-.51,1.944-.51h1.824v-.228c0-.496-.144-.876-.432-1.141-.288-.264-.712-.396-1.272-.396-.376,0-.744.062-1.104.186-.36.124-.664.29-.912.498l-.48-.863c.328-.265.721-.467,1.176-.606.457-.14.94-.21,1.452-.21.88,0,1.554.216,2.022.647ZM374.264,88.234c.32-.195.553-.474.696-.834v-.888h-1.776c-.976,0-1.464.328-1.464.984,0,.319.124.571.372.756.248.184.592.275,1.032.275s.819-.098,1.14-.294Z" fill="#000" stroke-width="0"/>
    <path d="M380.24,83.212c.392-.192.867-.288,1.428-.288v1.116c-.064-.008-.152-.013-.264-.013-.625,0-1.115.187-1.471.559s-.534.902-.534,1.59v3.168h-1.151v-6.36h1.104v1.068c.2-.368.496-.648.889-.84Z" fill="#000" stroke-width="0"/>
    <path d="M388.976,82.984l-3.084,6.996c-.272.648-.59,1.104-.954,1.368s-.802.396-1.314.396c-.312,0-.613-.051-.905-.15-.292-.101-.534-.246-.726-.438l.491-.863c.328.312.708.468,1.14.468.28,0,.515-.074.703-.222.188-.148.357-.402.51-.763l.203-.443-2.808-6.349h1.2l2.22,5.088,2.196-5.088h1.128Z" fill="#000" stroke-width="0"/>
    <path d="M389.359,89.182c-.16-.156-.24-.354-.24-.594,0-.232.08-.426.24-.582s.353-.234.576-.234.412.076.564.229c.151.151.228.348.228.588s-.078.438-.233.594c-.156.156-.343.234-.559.234-.224,0-.416-.078-.576-.234Z" fill="#000" stroke-width="0"/>
    <path d="M393.68,82.432v.552h1.848v.948h-1.824v5.412h-1.151v-5.412h-1.08v-.948h1.08v-.563c0-.632.184-1.132.552-1.5s.884-.552,1.548-.552c.256,0,.496.031.72.096.225.064.416.156.576.276l-.348.876c-.264-.2-.561-.301-.889-.301-.688,0-1.031.372-1.031,1.116Z" fill="#000" stroke-width="0"/>
    <path d="M399.571,83.212c.392-.192.868-.288,1.428-.288v1.116c-.063-.008-.151-.013-.264-.013-.624,0-1.114.187-1.47.559-.356.372-.534.902-.534,1.59v3.168h-1.152v-6.36h1.104v1.068c.199-.368.496-.648.888-.84Z" fill="#000" stroke-width="0"/>
    <path d="M246.207,106.882c-.676-.372-1.206-.884-1.59-1.536-.384-.652-.576-1.386-.576-2.202s.192-1.55.576-2.202c.384-.651.916-1.164,1.596-1.536.68-.371,1.44-.558,2.28-.558.655,0,1.256.11,1.8.33s1.008.546,1.392.978l-.78.757c-.632-.664-1.42-.996-2.364-.996-.624,0-1.188.14-1.692.42s-.898.666-1.182,1.158c-.284.491-.426,1.042-.426,1.649s.142,1.158.426,1.65c.284.492.678.878,1.182,1.158.504.279,1.068.42,1.692.42.936,0,1.724-.336,2.364-1.009l.78.757c-.384.432-.85.76-1.397.983-.548.225-1.15.336-1.806.336-.84,0-1.598-.186-2.274-.558Z" fill="#000" stroke-width="0"/>
    <path d="M258.693,104.548h-5.16c.072.56.318,1.01.738,1.35.42.341.942.511,1.566.511.76,0,1.372-.257,1.836-.769l.636.744c-.288.336-.646.592-1.074.768-.428.177-.906.265-1.434.265-.672,0-1.268-.139-1.788-.414-.52-.276-.922-.662-1.206-1.158-.284-.496-.426-1.056-.426-1.68,0-.616.138-1.172.414-1.668.276-.496.656-.883,1.14-1.158.484-.276,1.03-.414,1.638-.414s1.149.138,1.626.414c.476.275.848.662,1.116,1.158s.402,1.063.402,1.704c0,.088-.008.203-.024.348ZM254.187,102.4c-.372.336-.59.776-.654,1.32h4.08c-.064-.536-.282-.974-.654-1.314-.372-.34-.834-.51-1.386-.51s-1.015.168-1.386.504Z" fill="#000" stroke-width="0"/>
    <path d="M265.635,101.626c.477.468.714,1.154.714,2.058v3.66h-1.151v-3.528c0-.615-.148-1.08-.444-1.392-.296-.312-.72-.468-1.272-.468-.623,0-1.115.182-1.476.546-.36.364-.54.886-.54,1.565v3.276h-1.152v-6.36h1.104v.96c.232-.327.546-.579.942-.756.396-.176.846-.264,1.35-.264.808,0,1.45.234,1.926.702Z" fill="#000" stroke-width="0"/>
    <path d="M272.061,106.972c-.168.145-.376.254-.624.33s-.504.114-.768.114c-.64,0-1.136-.172-1.488-.517-.353-.344-.528-.836-.528-1.476v-3.492h-1.08v-.948h1.08v-1.392h1.152v1.392h1.824v.948h-1.824v3.444c0,.344.086.607.258.792.172.184.418.275.738.275.352,0,.652-.1.9-.3l.359.828Z" fill="#000" stroke-width="0"/>
    <path d="M275.445,101.212c.392-.192.867-.288,1.428-.288v1.116c-.064-.008-.152-.013-.264-.013-.625,0-1.115.187-1.471.559s-.534.902-.534,1.59v3.168h-1.151v-6.36h1.104v1.068c.2-.368.496-.648.889-.84Z" fill="#000" stroke-width="0"/>
    <path d="M283.953,104.548h-5.16c.072.56.318,1.01.738,1.35.42.341.941.511,1.565.511.76,0,1.372-.257,1.836-.769l.636.744c-.287.336-.646.592-1.074.768-.428.177-.905.265-1.434.265-.672,0-1.268-.139-1.788-.414-.52-.276-.922-.662-1.206-1.158-.283-.496-.426-1.056-.426-1.68,0-.616.139-1.172.414-1.668.276-.496.656-.883,1.141-1.158.483-.276,1.029-.414,1.638-.414s1.149.138,1.626.414c.476.275.848.662,1.115,1.158.269.496.402,1.063.402,1.704,0,.088-.008.203-.023.348ZM279.447,102.4c-.373.336-.591.776-.654,1.32h4.08c-.064-.536-.282-.974-.654-1.314-.372-.34-.834-.51-1.386-.51s-1.015.168-1.386.504Z" fill="#000" stroke-width="0"/>
    <path d="M289.838,106.996c-.508-.28-.905-.666-1.193-1.158s-.432-1.05-.432-1.674.144-1.183.432-1.674c.288-.492.686-.877,1.193-1.152.509-.276,1.087-.414,1.734-.414.576,0,1.09.116,1.542.348.452.232.802.568,1.05,1.008l-.875.564c-.201-.304-.449-.532-.744-.684-.297-.152-.625-.229-.984-.229-.416,0-.79.092-1.122.276-.332.184-.592.446-.78.786-.188.34-.281.729-.281,1.17,0,.448.094.842.281,1.182.188.34.448.603.78.786s.706.276,1.122.276c.359,0,.688-.076.984-.229.295-.151.543-.38.744-.684l.875.552c-.248.44-.598.778-1.05,1.014-.452.236-.966.354-1.542.354-.647,0-1.226-.141-1.734-.42Z" fill="#000" stroke-width="0"/>
    <path d="M296.576,106.996c-.504-.28-.897-.666-1.182-1.158s-.426-1.05-.426-1.674.142-1.183.426-1.674c.284-.492.678-.877,1.182-1.152.504-.276,1.072-.414,1.704-.414s1.198.138,1.698.414c.5.275.893.66,1.176,1.152.284.491.426,1.05.426,1.674s-.142,1.182-.426,1.674c-.283.492-.676.878-1.176,1.158-.5.279-1.066.42-1.698.42s-1.2-.141-1.704-.42ZM299.379,106.126c.324-.188.578-.452.762-.792s.275-.73.275-1.17-.092-.83-.275-1.17-.438-.603-.762-.786c-.324-.185-.69-.276-1.099-.276s-.773.092-1.098.276c-.324.184-.58.446-.769.786-.188.34-.281.729-.281,1.17s.094.83.281,1.17c.188.34.444.604.769.792.324.188.69.282,1.098.282s.774-.095,1.099-.282Z" fill="#000" stroke-width="0"/>
    <path d="M313.034,101.62c.468.464.702,1.151.702,2.063v3.66h-1.152v-3.528c0-.615-.142-1.08-.426-1.392-.283-.312-.689-.468-1.218-.468-.584,0-1.048.182-1.392.546-.345.364-.517.886-.517,1.565v3.276h-1.151v-3.528c0-.615-.143-1.08-.426-1.392-.285-.312-.69-.468-1.219-.468-.584,0-1.048.182-1.392.546-.345.364-.517.886-.517,1.565v3.276h-1.151v-6.36h1.104v.948c.232-.328.536-.578.912-.75s.804-.258,1.284-.258c.496,0,.936.1,1.32.3.384.2.68.492.888.876.24-.368.573-.655,1.002-.864.428-.208.91-.312,1.446-.312.8,0,1.434.232,1.901.696Z" fill="#000" stroke-width="0"/>
    <path d="M325.719,101.62c.468.464.702,1.151.702,2.063v3.66h-1.152v-3.528c0-.615-.142-1.08-.426-1.392-.284-.312-.69-.468-1.218-.468-.584,0-1.049.182-1.393.546s-.516.886-.516,1.565v3.276h-1.152v-3.528c0-.615-.143-1.08-.426-1.392-.284-.312-.69-.468-1.218-.468-.585,0-1.049.182-1.393.546s-.516.886-.516,1.565v3.276h-1.152v-6.36h1.104v.948c.231-.328.535-.578.912-.75.375-.172.804-.258,1.283-.258.496,0,.937.1,1.32.3s.68.492.889.876c.239-.368.573-.655,1.002-.864.428-.208.909-.312,1.445-.312.8,0,1.434.232,1.902.696Z" fill="#000" stroke-width="0"/>
    <path d="M334.305,104.548h-5.16c.072.56.318,1.01.738,1.35.42.341.941.511,1.565.511.76,0,1.372-.257,1.836-.769l.636.744c-.287.336-.646.592-1.074.768-.428.177-.905.265-1.434.265-.672,0-1.268-.139-1.788-.414-.52-.276-.922-.662-1.206-1.158-.283-.496-.426-1.056-.426-1.68,0-.616.139-1.172.414-1.668.276-.496.656-.883,1.141-1.158.483-.276,1.029-.414,1.638-.414s1.149.138,1.626.414c.476.275.848.662,1.115,1.158.269.496.402,1.063.402,1.704,0,.088-.008.203-.023.348ZM329.799,102.4c-.373.336-.591.776-.654,1.32h4.08c-.064-.536-.282-.974-.654-1.314-.372-.34-.834-.51-1.386-.51s-1.015.168-1.386.504Z" fill="#000" stroke-width="0"/>
    <path d="M337.916,101.212c.393-.192.868-.288,1.428-.288v1.116c-.063-.008-.151-.013-.264-.013-.624,0-1.114.187-1.47.559-.356.372-.534.902-.534,1.59v3.168h-1.152v-6.36h1.104v1.068c.2-.368.496-.648.888-.84Z" fill="#000" stroke-width="0"/>
    <path d="M341.738,106.996c-.508-.28-.906-.666-1.194-1.158s-.432-1.05-.432-1.674.144-1.183.432-1.674c.288-.492.687-.877,1.194-1.152.508-.276,1.086-.414,1.734-.414.575,0,1.09.116,1.541.348.452.232.803.568,1.051,1.008l-.876.564c-.2-.304-.448-.532-.744-.684-.296-.152-.624-.229-.984-.229-.416,0-.79.092-1.122.276-.332.184-.592.446-.779.786-.188.34-.282.729-.282,1.17,0,.448.094.842.282,1.182.188.34.447.603.779.786s.706.276,1.122.276c.36,0,.688-.076.984-.229.296-.151.544-.38.744-.684l.876.552c-.248.44-.599.778-1.051,1.014-.451.236-.966.354-1.541.354-.648,0-1.227-.141-1.734-.42Z" fill="#000" stroke-width="0"/>
    <path d="M347.57,99.544c-.148-.145-.223-.32-.223-.528s.074-.386.223-.534c.148-.147.334-.222.558-.222s.41.07.559.21c.147.14.222.314.222.522,0,.216-.074.397-.222.546-.148.147-.335.222-.559.222s-.409-.072-.558-.216ZM347.553,100.984h1.151v6.36h-1.151v-6.36Z" fill="#000" stroke-width="0"/>
    <path d="M355.238,101.572c.468.433.702,1.076.702,1.933v3.84h-1.093v-.84c-.191.296-.466.521-.821.678-.356.156-.778.234-1.267.234-.712,0-1.281-.172-1.71-.517-.428-.344-.642-.796-.642-1.355s.204-1.01.611-1.351c.408-.34,1.057-.51,1.944-.51h1.824v-.228c0-.496-.144-.876-.432-1.141-.288-.264-.712-.396-1.272-.396-.376,0-.744.062-1.104.186-.36.124-.664.29-.912.498l-.48-.863c.328-.265.721-.467,1.176-.606.457-.14.94-.21,1.452-.21.88,0,1.554.216,2.022.647ZM354.092,106.234c.32-.195.553-.474.696-.834v-.888h-1.776c-.976,0-1.464.328-1.464.984,0,.319.124.571.372.756.248.184.592.275,1.032.275s.819-.098,1.14-.294Z" fill="#000" stroke-width="0"/>
    <path d="M358.076,98.44h1.151v8.904h-1.151v-8.904Z" fill="#000" stroke-width="0"/>
    <path d="M366.32,106.882c-.681-.372-1.215-.886-1.603-1.542s-.582-1.388-.582-2.196.194-1.54.582-2.196c.388-.655.922-1.17,1.603-1.542.68-.371,1.443-.558,2.291-.558.841,0,1.601.187,2.28.558.681.372,1.212.885,1.597,1.536.384.652.575,1.387.575,2.202s-.191,1.55-.575,2.202c-.385.652-.916,1.164-1.597,1.536-.68.372-1.439.558-2.28.558-.848,0-1.611-.186-2.291-.558ZM370.273,105.952c.492-.28.881-.666,1.164-1.158.284-.492.426-1.042.426-1.65s-.142-1.158-.426-1.649c-.283-.492-.672-.878-1.164-1.158s-1.046-.42-1.662-.42-1.174.14-1.674.42-.892.666-1.176,1.158c-.284.491-.426,1.042-.426,1.649s.142,1.158.426,1.65.676.878,1.176,1.158c.5.279,1.059.42,1.674.42s1.17-.141,1.662-.42Z" fill="#000" stroke-width="0"/>
    <path d="M375.77,106.996c-.508-.28-.905-.666-1.193-1.158s-.433-1.05-.433-1.674.145-1.183.433-1.674c.288-.492.686-.877,1.193-1.152.508-.276,1.086-.414,1.734-.414.576,0,1.09.116,1.542.348.452.232.802.568,1.05,1.008l-.876.564c-.2-.304-.448-.532-.744-.684-.296-.152-.624-.229-.983-.229-.416,0-.791.092-1.122.276-.332.184-.593.446-.78.786s-.282.729-.282,1.17c0,.448.095.842.282,1.182s.448.603.78.786c.331.184.706.276,1.122.276.359,0,.688-.076.983-.229.296-.151.544-.38.744-.684l.876.552c-.248.44-.598.778-1.05,1.014-.452.236-.966.354-1.542.354-.648,0-1.227-.141-1.734-.42Z" fill="#000" stroke-width="0"/>
    <path d="M387.212,104.548h-5.16c.072.56.318,1.01.738,1.35.42.341.942.511,1.565.511.761,0,1.373-.257,1.836-.769l.637.744c-.288.336-.646.592-1.074.768-.428.177-.906.265-1.434.265-.672,0-1.269-.139-1.788-.414-.521-.276-.923-.662-1.206-1.158-.284-.496-.426-1.056-.426-1.68,0-.616.138-1.172.414-1.668.275-.496.655-.883,1.14-1.158.483-.276,1.03-.414,1.638-.414s1.15.138,1.626.414c.476.275.849.662,1.116,1.158s.402,1.063.402,1.704c0,.088-.008.203-.024.348ZM382.706,102.4c-.372.336-.59.776-.654,1.32h4.08c-.063-.536-.282-.974-.653-1.314-.373-.34-.834-.51-1.387-.51s-1.014.168-1.386.504ZM384.812,98.5h1.463l-2.016,1.56h-1.08l1.633-1.56Z" fill="#000" stroke-width="0"/>
    <path d="M392.99,101.572c.468.433.701,1.076.701,1.933v3.84h-1.092v-.84c-.191.296-.466.521-.822.678-.355.156-.777.234-1.266.234-.712,0-1.282-.172-1.71-.517-.428-.344-.642-.796-.642-1.355s.203-1.01.611-1.351c.408-.34,1.057-.51,1.944-.51h1.824v-.228c0-.496-.145-.876-.433-1.141-.287-.264-.712-.396-1.271-.396-.376,0-.744.062-1.104.186-.36.124-.665.29-.912.498l-.48-.863c.328-.265.72-.467,1.176-.606s.94-.21,1.452-.21c.88,0,1.554.216,2.022.647ZM391.844,106.234c.32-.195.552-.474.696-.834v-.888h-1.776c-.977,0-1.464.328-1.464.984,0,.319.124.571.372.756.248.184.592.275,1.032.275s.819-.098,1.14-.294Z" fill="#000" stroke-width="0"/>
    <path d="M401.15,101.626c.476.468.713,1.154.713,2.058v3.66h-1.151v-3.528c0-.615-.148-1.08-.444-1.392-.296-.312-.72-.468-1.271-.468-.624,0-1.116.182-1.477.546-.359.364-.54.886-.54,1.565v3.276h-1.151v-6.36h1.104v.96c.232-.327.546-.579.942-.756.396-.176.846-.264,1.35-.264.808,0,1.45.234,1.927.702Z" fill="#000" stroke-width="0"/>
    <path d="M409.76,104.548h-5.16c.072.56.318,1.01.738,1.35.42.341.941.511,1.565.511.761,0,1.372-.257,1.836-.769l.636.744c-.287.336-.646.592-1.073.768-.429.177-.906.265-1.435.265-.672,0-1.268-.139-1.787-.414-.521-.276-.923-.662-1.207-1.158-.283-.496-.426-1.056-.426-1.68,0-.616.139-1.172.414-1.668.276-.496.656-.883,1.141-1.158.483-.276,1.029-.414,1.638-.414s1.149.138,1.626.414c.476.275.848.662,1.116,1.158.268.496.401,1.063.401,1.704,0,.088-.008.203-.023.348ZM405.254,102.4c-.372.336-.59.776-.654,1.32h4.08c-.064-.536-.282-.974-.654-1.314-.372-.34-.834-.51-1.386-.51s-1.015.168-1.386.504Z" fill="#000" stroke-width="0"/>
    <path d="M245.697,124.954c-.528-.34-.944-.836-1.248-1.488s-.456-1.426-.456-2.322.151-1.67.456-2.322c.304-.651.72-1.147,1.248-1.487s1.128-.51,1.8-.51,1.273.17,1.806.51.95.836,1.254,1.487c.304.652.456,1.427.456,2.322s-.152,1.67-.456,2.322c-.304.652-.722,1.148-1.254,1.488s-1.134.51-1.806.51-1.272-.17-1.8-.51ZM248.919,123.364c.348-.495.522-1.235.522-2.22s-.174-1.724-.522-2.22c-.348-.496-.822-.744-1.422-.744-.592,0-1.062.248-1.41.744-.348.496-.522,1.236-.522,2.22s.174,1.725.522,2.22c.348.497.818.744,1.41.744.6,0,1.074-.247,1.422-.744Z" fill="#000" stroke-width="0"/>
    <path d="M258.093,124.024v1.32h-6.192v-1.044l3.336-3.168c.375-.36.63-.674.762-.942.132-.268.198-.534.198-.798,0-.392-.132-.691-.396-.899-.264-.208-.652-.312-1.164-.312-.856,0-1.512.292-1.968.876l-1.092-.84c.328-.44.77-.782,1.326-1.026.556-.243,1.178-.365,1.866-.365.912,0,1.64.216,2.184.647s.816,1.021.816,1.764c0,.456-.096.885-.288,1.284-.192.4-.56.856-1.104,1.368l-2.244,2.136h3.96Z" fill="#000" stroke-width="0"/>
    <path d="M268.389,124.024v1.32h-6.192v-1.044l3.336-3.168c.376-.36.63-.674.763-.942.131-.268.197-.534.197-.798,0-.392-.132-.691-.396-.899-.265-.208-.652-.312-1.164-.312-.856,0-1.513.292-1.968.876l-1.093-.84c.328-.44.771-.782,1.326-1.026.556-.243,1.178-.365,1.866-.365.912,0,1.64.216,2.184.647s.816,1.021.816,1.764c0,.456-.096.885-.288,1.284-.192.4-.56.856-1.104,1.368l-2.243,2.136h3.96Z" fill="#000" stroke-width="0"/>
    <path d="M275.75,121.738c.236.341.354.738.354,1.194,0,.512-.143.96-.427,1.344-.283.385-.686.679-1.205.883-.521.203-1.125.306-1.812.306s-1.29-.103-1.806-.306c-.517-.204-.914-.498-1.194-.883-.28-.384-.42-.832-.42-1.344,0-.456.116-.854.348-1.194.232-.34.564-.609.996-.81-.336-.184-.594-.426-.773-.726-.18-.301-.271-.646-.271-1.038,0-.473.13-.884.39-1.236.261-.352.627-.624,1.099-.816.472-.191,1.016-.287,1.632-.287.624,0,1.172.096,1.645.287.472.192.84.465,1.104.816.264.353.396.764.396,1.236,0,.392-.093.735-.276,1.031-.185.297-.448.54-.792.732.439.2.777.47,1.014.81ZM274.028,123.88c.336-.24.504-.572.504-.996,0-.416-.168-.744-.504-.984-.336-.239-.792-.359-1.368-.359s-1.028.12-1.355.359c-.328.24-.492.568-.492.984,0,.424.164.756.492.996.327.24.779.36,1.355.36s1.032-.12,1.368-.36ZM271.502,118.36c-.283.209-.426.5-.426.876,0,.36.143.646.426.858.284.212.67.318,1.158.318.496,0,.889-.106,1.176-.318.288-.212.433-.498.433-.858,0-.376-.146-.667-.438-.876-.292-.208-.682-.312-1.17-.312s-.874.104-1.158.312Z" fill="#000" stroke-width="0"/>
    <path d="M286.508,124.024v1.32h-6.191v-1.044l3.336-3.168c.375-.36.63-.674.762-.942.132-.268.198-.534.198-.798,0-.392-.132-.691-.396-.899-.264-.208-.651-.312-1.164-.312-.856,0-1.512.292-1.968.876l-1.092-.84c.328-.44.77-.782,1.326-1.026.556-.243,1.178-.365,1.865-.365.912,0,1.641.216,2.185.647s.815,1.021.815,1.764c0,.456-.096.885-.287,1.284-.192.4-.561.856-1.104,1.368l-2.244,2.136h3.96Z" fill="#000" stroke-width="0"/>
    <path d="M293.708,116.944v1.044l-3.264,7.356h-1.669l3.156-7.08h-3.3v1.428h-1.452v-2.748h6.528Z" fill="#000" stroke-width="0"/>
    <path d="M305.468,123.436h-1.488v1.908h-1.512v-1.908h-4.608v-1.08l4.141-5.412h1.668l-3.9,5.173h2.748v-1.692h1.464v1.692h1.488v1.319Z" fill="#000" stroke-width="0"/>
    <path d="M311.924,116.944v1.044l-3.264,7.356h-1.669l3.156-7.08h-3.3v1.428h-1.452v-2.748h6.528Z" fill="#000" stroke-width="0"/>
    <path d="M322.657,121.738c.235.341.354.738.354,1.194,0,.512-.143.96-.427,1.344-.284.385-.686.679-1.206.883-.52.203-1.124.306-1.812.306s-1.29-.103-1.806-.306c-.517-.204-.914-.498-1.194-.883-.28-.384-.42-.832-.42-1.344,0-.456.116-.854.348-1.194.232-.34.564-.609.996-.81-.336-.184-.594-.426-.774-.726-.18-.301-.27-.646-.27-1.038,0-.473.13-.884.39-1.236.261-.352.626-.624,1.099-.816.472-.191,1.016-.287,1.632-.287.624,0,1.172.096,1.644.287.473.192.84.465,1.104.816.264.353.396.764.396,1.236,0,.392-.092.735-.275,1.031-.185.297-.448.54-.792.732.439.2.777.47,1.014.81ZM320.936,123.88c.336-.24.504-.572.504-.996,0-.416-.168-.744-.504-.984-.336-.239-.792-.359-1.368-.359s-1.028.12-1.356.359c-.328.24-.492.568-.492.984,0,.424.164.756.492.996s.78.36,1.356.36,1.032-.12,1.368-.36ZM318.409,118.36c-.284.209-.426.5-.426.876,0,.36.142.646.426.858s.67.318,1.158.318c.496,0,.888-.106,1.176-.318s.433-.498.433-.858c0-.376-.146-.667-.438-.876-.292-.208-.683-.312-1.17-.312s-.874.104-1.158.312Z" fill="#000" stroke-width="0"/>
    <path d="M329.371,121.204c.408.432.612.972.612,1.62,0,.487-.124.932-.372,1.331-.248.4-.622.719-1.122.954-.5.236-1.11.354-1.83.354-.6,0-1.178-.086-1.733-.258-.557-.172-1.031-.41-1.423-.714l.673-1.213c.304.257.674.459,1.109.606.436.148.886.222,1.35.222.553,0,.986-.113,1.303-.342.315-.228.474-.538.474-.93s-.149-.698-.45-.918c-.3-.22-.758-.33-1.374-.33h-.768v-1.068l1.908-2.268h-3.816v-1.309h5.724v1.044l-2.039,2.425c.775.096,1.367.359,1.775.792Z" fill="#000" stroke-width="0"/>
  </g>
  <rect x="233.478" width="2" height="150" fill="#272824" stroke-width="0"/>
  <rect y="0" width="522" height="150" fill="none" stroke-width="0"/>
</svg>