<?xml version="1.0" encoding="UTF-8"?>
<svg id="Calque_1" data-name="Calque 1" xmlns="http://www.w3.org/2000/svg" version="1.1" viewBox="0 0 522 150.001">
  <rect x="233.478" y="0" width="2" height="150" fill="#272824" stroke-width="0"/>
  <g>
    <path d="M250.293,20.934c.514.247.915.6,1.204,1.057.289.458.434.985.434,1.582,0,.635-.159,1.192-.476,1.673-.317.481-.747.852-1.288,1.113-.541.261-1.147.392-1.82.392-1.344,0-2.387-.42-3.129-1.26s-1.113-2.044-1.113-3.612c0-1.101.2-2.041.602-2.82s.964-1.372,1.688-1.778c.723-.406,1.561-.609,2.513-.609.504,0,.978.055,1.421.161.443.107.828.264,1.155.47l-.672,1.371c-.485-.316-1.106-.476-1.862-.476-.943,0-1.68.289-2.212.868s-.798,1.414-.798,2.506v.014c.289-.336.658-.59,1.105-.763.448-.173.952-.259,1.513-.259.644,0,1.222.124,1.735.371ZM249.635,24.868c.354-.303.532-.707.532-1.211,0-.513-.177-.919-.532-1.218-.355-.299-.831-.448-1.428-.448-.588,0-1.066.159-1.435.477-.369.317-.553.719-.553,1.203,0,.477.18.871.539,1.184.359.312.856.469,1.491.469.569,0,1.031-.151,1.386-.455Z" fill="#000" stroke-width="0"/>
    <path d="M256.271,16.811v9.8h-1.82v-8.274h-2.072v-1.525h3.892Z" fill="#000" stroke-width="0"/>
    <path d="M264.405,20.934c.513.247.914.6,1.204,1.057.289.458.434.985.434,1.582,0,.635-.158,1.192-.476,1.673-.317.481-.747.852-1.288,1.113-.542.261-1.148.392-1.82.392-1.344,0-2.387-.42-3.129-1.26s-1.113-2.044-1.113-3.612c0-1.101.201-2.041.603-2.82.401-.779.963-1.372,1.687-1.778.724-.406,1.562-.609,2.514-.609.504,0,.977.055,1.421.161.442.107.828.264,1.154.47l-.672,1.371c-.485-.316-1.105-.476-1.862-.476-.942,0-1.68.289-2.211.868s-.798,1.414-.798,2.506v.014c.29-.336.658-.59,1.106-.763.448-.173.952-.259,1.512-.259.644,0,1.223.124,1.736.371ZM263.747,24.868c.354-.303.532-.707.532-1.211,0-.513-.178-.919-.532-1.218s-.831-.448-1.428-.448c-.588,0-1.066.159-1.436.477-.368.317-.553.719-.553,1.203,0,.477.18.871.539,1.184s.856.469,1.491.469c.568,0,1.031-.151,1.386-.455Z" fill="#000" stroke-width="0"/>
    <path d="M271.559,16.811h4.284c1.046,0,1.974.203,2.786.608.812.406,1.441.98,1.89,1.723s.673,1.599.673,2.568-.225,1.827-.673,2.569-1.077,1.316-1.89,1.722c-.812.406-1.74.609-2.786.609h-4.284v-9.8ZM275.759,25.071c.719,0,1.351-.138,1.897-.413.546-.275.966-.667,1.26-1.176s.441-1.099.441-1.771-.147-1.262-.441-1.771-.714-.9-1.26-1.176c-.547-.275-1.179-.413-1.897-.413h-2.38v6.72h2.38Z" fill="#000" stroke-width="0"/>
    <path d="M283.123,16.811h1.82v9.8h-1.82v-9.8Z" fill="#000" stroke-width="0"/>
    <path d="M289.408,18.336v2.982h4.732v1.54h-4.732v3.752h-1.819v-9.8h7.153v1.525h-5.334Z" fill="#000" stroke-width="0"/>
    <path d="M302.918,26.611l-2.002-2.87c-.084.01-.209.014-.378.014h-2.212v2.856h-1.82v-9.8h4.032c.85,0,1.589.14,2.22.42.63.28,1.112.682,1.449,1.204.336.522.504,1.144.504,1.861,0,.738-.181,1.372-.539,1.904-.359.532-.875.929-1.547,1.19l2.254,3.22h-1.961ZM302.261,18.855c-.411-.336-1.013-.504-1.807-.504h-2.128v3.906h2.128c.794,0,1.396-.171,1.807-.512.41-.341.616-.823.616-1.449s-.206-1.105-.616-1.441Z" fill="#000" stroke-width="0"/>
    <path d="M313.097,24.343h-4.9l-.966,2.268h-1.876l4.41-9.8h1.792l4.424,9.8h-1.904l-.979-2.268ZM312.494,22.914l-1.848-4.284-1.834,4.284h3.682Z" fill="#000" stroke-width="0"/>
    <path d="M318.941,26.1c-.798-.435-1.424-1.034-1.876-1.799-.453-.766-.679-1.629-.679-2.591s.229-1.824.686-2.59c.457-.765,1.085-1.365,1.883-1.799s1.691-.651,2.682-.651c.803,0,1.535.141,2.197.421.663.279,1.223.686,1.68,1.218l-1.176,1.105c-.709-.765-1.582-1.147-2.617-1.147-.672,0-1.274.146-1.807.44-.531.294-.947.703-1.246,1.226s-.447,1.115-.447,1.777.148,1.256.447,1.778.715.931,1.246,1.225c.532.295,1.135.441,1.807.441,1.035,0,1.908-.387,2.617-1.162l1.176,1.12c-.457.532-1.02.938-1.687,1.218-.667.28-1.402.42-2.205.42-.989,0-1.883-.217-2.681-.65Z" fill="#000" stroke-width="0"/>
    <path d="M328.93,26.1c-.803-.435-1.432-1.036-1.89-1.807-.457-.77-.686-1.631-.686-2.583s.229-1.812.686-2.583c.458-.77,1.087-1.372,1.89-1.806s1.704-.651,2.703-.651,1.898.218,2.701.651,1.433,1.034,1.891,1.799c.457.766.686,1.629.686,2.59s-.229,1.825-.686,2.591c-.458.765-1.088,1.364-1.891,1.799-.803.434-1.703.65-2.701.65s-1.9-.217-2.703-.65ZM333.396,24.713c.522-.294.934-.704,1.231-1.231.299-.527.448-1.118.448-1.771s-.149-1.243-.448-1.771c-.298-.527-.709-.938-1.231-1.232-.523-.294-1.111-.44-1.764-.44s-1.242.146-1.765.44-.934.705-1.231,1.232c-.299.527-.448,1.118-.448,1.771s.149,1.244.448,1.771c.298.527.709.938,1.231,1.231.522.295,1.11.441,1.765.441s1.24-.146,1.764-.441Z" fill="#000" stroke-width="0"/>
    <path d="M342.16,21.991h3.85v1.456h-3.85v-1.456Z" fill="#000" stroke-width="0"/>
    <path d="M358,25.567v1.044h-6.097v-8.4h5.929v1.044h-4.729v2.58h4.212v1.021h-4.212v2.712h4.896Z" fill="#000" stroke-width="0"/>
    <path d="M365.098,20.893c.476.468.714,1.154.714,2.058v3.66h-1.151v-3.528c0-.615-.148-1.08-.444-1.392-.296-.312-.72-.468-1.272-.468-.624,0-1.115.182-1.476.546s-.54.886-.54,1.565v3.276h-1.152v-6.36h1.104v.96c.231-.327.546-.579.941-.756.396-.176.847-.264,1.351-.264.808,0,1.449.234,1.926.702Z" fill="#000" stroke-width="0"/>
    <path d="M368.271,26.473c-.479-.141-.855-.318-1.128-.534l.48-.912c.279.2.62.36,1.02.48.4.119.804.18,1.212.18,1.008,0,1.512-.288,1.512-.864,0-.192-.067-.344-.203-.456-.137-.111-.307-.193-.51-.246-.205-.052-.494-.109-.871-.174-.512-.08-.93-.172-1.254-.276-.323-.104-.602-.279-.834-.527-.231-.248-.348-.596-.348-1.044,0-.576.24-1.038.72-1.387.48-.348,1.124-.521,1.933-.521.424,0,.848.052,1.271.156.424.104.772.244,1.044.42l-.491.912c-.521-.336-1.133-.504-1.836-.504-.488,0-.86.08-1.116.239-.257.16-.384.372-.384.637,0,.208.071.371.215.491.145.12.322.208.535.265.211.056.51.12.894.191.512.089.926.183,1.242.282.315.101.586.271.81.51.224.24.336.576.336,1.009,0,.575-.246,1.033-.738,1.373-.491.341-1.162.511-2.01.511-.52,0-1.02-.07-1.5-.21Z" fill="#000" stroke-width="0"/>
    <path d="M379.684,23.815h-5.16c.072.56.318,1.01.738,1.35.42.341.941.511,1.565.511.761,0,1.372-.257,1.836-.769l.636.744c-.287.336-.646.592-1.073.768-.429.177-.906.265-1.435.265-.672,0-1.268-.139-1.787-.414-.521-.276-.923-.662-1.207-1.158-.283-.496-.426-1.056-.426-1.68,0-.616.139-1.172.414-1.668.276-.496.656-.883,1.141-1.158.483-.276,1.029-.414,1.638-.414s1.149.138,1.626.414c.476.275.848.662,1.116,1.158.268.496.401,1.063.401,1.704,0,.088-.008.203-.023.348ZM375.178,21.666c-.372.336-.59.776-.654,1.32h4.08c-.064-.536-.282-.974-.654-1.314-.372-.34-.834-.51-1.386-.51s-1.015.168-1.386.504Z" fill="#000" stroke-width="0"/>
    <path d="M381.321,18.811c-.147-.145-.222-.32-.222-.528s.074-.386.222-.534c.148-.147.334-.222.558-.222s.41.07.559.21.222.314.222.522c0,.216-.073.397-.222.546-.148.147-.334.222-.559.222s-.409-.072-.558-.216ZM381.304,20.25h1.151v6.36h-1.151v-6.36Z" fill="#000" stroke-width="0"/>
    <path d="M390.735,20.25v5.496c0,1.112-.276,1.935-.828,2.466-.552.532-1.376.799-2.472.799-.601,0-1.172-.082-1.717-.246-.543-.164-.983-.398-1.319-.702l.552-.888c.296.256.662.457,1.098.605.437.148.887.222,1.351.222.744,0,1.294-.176,1.649-.527.356-.353.534-.889.534-1.608v-.504c-.271.328-.605.574-1.002.738-.396.164-.826.246-1.29.246-.607,0-1.158-.13-1.649-.391-.492-.26-.878-.624-1.158-1.092s-.42-1.002-.42-1.602.14-1.135.42-1.603.666-.83,1.158-1.086c.491-.256,1.042-.384,1.649-.384.48,0,.926.088,1.338.264.412.177.75.437,1.015.78v-.984h1.092ZM388.545,25.075c.332-.176.592-.422.78-.738.188-.315.282-.674.282-1.073,0-.616-.204-1.114-.612-1.494-.407-.38-.932-.57-1.571-.57-.648,0-1.177.19-1.584.57-.408.38-.612.878-.612,1.494,0,.399.094.758.282,1.073.188.316.447.562.779.738s.71.264,1.135.264c.415,0,.789-.088,1.121-.264Z" fill="#000" stroke-width="0"/>
    <path d="M398.254,20.893c.476.468.713,1.154.713,2.058v3.66h-1.151v-3.528c0-.615-.148-1.08-.444-1.392-.296-.312-.72-.468-1.271-.468-.624,0-1.116.182-1.477.546-.359.364-.54.886-.54,1.565v3.276h-1.151v-6.36h1.104v.96c.232-.327.546-.579.942-.756.396-.176.846-.264,1.35-.264.808,0,1.45.234,1.927.702Z" fill="#000" stroke-width="0"/>
    <path d="M406.863,23.815h-5.16c.072.56.318,1.01.738,1.35.42.341.941.511,1.565.511.761,0,1.372-.257,1.836-.769l.636.744c-.287.336-.646.592-1.073.768-.429.177-.906.265-1.435.265-.672,0-1.268-.139-1.787-.414-.521-.276-.923-.662-1.207-1.158-.283-.496-.426-1.056-.426-1.68,0-.616.139-1.172.414-1.668.276-.496.656-.883,1.141-1.158.483-.276,1.029-.414,1.638-.414s1.149.138,1.626.414c.476.275.848.662,1.116,1.158.268.496.401,1.063.401,1.704,0,.088-.008.203-.023.348ZM402.357,21.666c-.372.336-.59.776-.654,1.32h4.08c-.064-.536-.282-.974-.654-1.314-.372-.34-.834-.51-1.386-.51s-1.015.168-1.386.504Z" fill="#000" stroke-width="0"/>
    <path d="M411.303,22.819h3.229v.996h-3.229v-.996Z" fill="#000" stroke-width="0"/>
    <path d="M419.859,26.473c-.48-.141-.856-.318-1.128-.534l.479-.912c.28.2.62.36,1.021.48.399.119.804.18,1.212.18,1.008,0,1.512-.288,1.512-.864,0-.192-.068-.344-.204-.456-.136-.111-.306-.193-.51-.246-.204-.052-.494-.109-.87-.174-.512-.08-.93-.172-1.254-.276-.324-.104-.602-.279-.834-.527s-.348-.596-.348-1.044c0-.576.239-1.038.72-1.387.479-.348,1.124-.521,1.932-.521.424,0,.849.052,1.272.156.424.104.771.244,1.044.42l-.492.912c-.521-.336-1.132-.504-1.836-.504-.488,0-.86.08-1.116.239-.256.16-.384.372-.384.637,0,.208.072.371.216.491.145.12.322.208.534.265.212.056.51.12.894.191.512.089.926.183,1.242.282.316.101.586.271.811.51.224.24.336.576.336,1.009,0,.575-.246,1.033-.738,1.373-.492.341-1.162.511-2.01.511-.521,0-1.021-.07-1.5-.21Z" fill="#000" stroke-width="0"/>
    <path d="M425.564,18.811c-.147-.145-.222-.32-.222-.528s.074-.386.222-.534c.148-.147.334-.222.559-.222s.41.07.558.21c.148.14.222.314.222.522,0,.216-.073.397-.222.546-.147.147-.334.222-.558.222s-.41-.072-.559-.216ZM425.547,20.25h1.152v6.36h-1.152v-6.36Z" fill="#000" stroke-width="0"/>
    <path d="M434.979,20.25v5.496c0,1.112-.275,1.935-.828,2.466-.552.532-1.376.799-2.472.799-.601,0-1.172-.082-1.716-.246s-.984-.398-1.32-.702l.553-.888c.295.256.661.457,1.098.605.436.148.886.222,1.35.222.744,0,1.294-.176,1.65-.527.355-.353.533-.889.533-1.608v-.504c-.271.328-.605.574-1.002.738-.396.164-.826.246-1.289.246-.608,0-1.158-.13-1.65-.391-.492-.26-.878-.624-1.158-1.092s-.42-1.002-.42-1.602.14-1.135.42-1.603.666-.83,1.158-1.086,1.042-.384,1.65-.384c.479,0,.926.088,1.338.264.412.177.75.437,1.014.78v-.984h1.092ZM432.789,25.075c.332-.176.592-.422.779-.738.188-.315.282-.674.282-1.073,0-.616-.204-1.114-.612-1.494-.407-.38-.932-.57-1.571-.57-.648,0-1.177.19-1.584.57-.408.38-.612.878-.612,1.494,0,.399.094.758.282,1.073.188.316.448.562.78.738.331.176.709.264,1.134.264.415,0,.79-.088,1.122-.264Z" fill="#000" stroke-width="0"/>
    <path d="M442.497,20.893c.476.468.714,1.154.714,2.058v3.66h-1.152v-3.528c0-.615-.148-1.08-.443-1.392-.297-.312-.721-.468-1.272-.468-.624,0-1.116.182-1.476.546-.36.364-.541.886-.541,1.565v3.276h-1.151v-6.36h1.104v.96c.231-.327.545-.579.941-.756.396-.176.846-.264,1.35-.264.809,0,1.45.234,1.927.702Z" fill="#000" stroke-width="0"/>
    <path d="M449.685,20.838c.468.433.702,1.076.702,1.933v3.84h-1.092v-.84c-.192.296-.467.521-.822.678-.356.156-.778.234-1.266.234-.713,0-1.282-.172-1.711-.517-.428-.344-.642-.796-.642-1.355s.204-1.01.612-1.351c.408-.34,1.056-.51,1.943-.51h1.824v-.228c0-.496-.144-.876-.432-1.141-.288-.264-.712-.396-1.272-.396-.376,0-.743.062-1.104.186s-.664.29-.912.498l-.479-.863c.327-.265.72-.467,1.176-.606s.939-.21,1.451-.21c.881,0,1.555.216,2.022.647ZM448.539,25.5c.319-.195.552-.474.695-.834v-.888h-1.775c-.977,0-1.465.328-1.465.984,0,.319.125.571.373.756.247.184.592.275,1.031.275s.82-.098,1.141-.294Z" fill="#000" stroke-width="0"/>
    <path d="M452.522,17.706h1.152v8.904h-1.152v-8.904Z" fill="#000" stroke-width="0"/>
    <path d="M461.595,23.815h-5.16c.072.56.318,1.01.738,1.35.42.341.941.511,1.565.511.76,0,1.372-.257,1.836-.769l.637.744c-.288.336-.646.592-1.074.768-.428.177-.906.265-1.434.265-.673,0-1.269-.139-1.789-.414-.52-.276-.922-.662-1.205-1.158-.284-.496-.427-1.056-.427-1.68,0-.616.139-1.172.414-1.668.276-.496.656-.883,1.141-1.158.483-.276,1.029-.414,1.638-.414s1.15.138,1.626.414c.476.275.848.662,1.116,1.158.268.496.402,1.063.402,1.704,0,.088-.009.203-.024.348ZM457.089,21.666c-.372.336-.591.776-.654,1.32h4.08c-.064-.536-.282-.974-.654-1.314-.372-.34-.834-.51-1.386-.51s-1.014.168-1.386.504ZM459.194,17.767h1.464l-2.016,1.56h-1.08l1.632-1.56Z" fill="#000" stroke-width="0"/>
    <path d="M466.791,26.239c-.168.145-.377.254-.625.33s-.504.114-.768.114c-.64,0-1.136-.172-1.488-.517-.352-.344-.527-.836-.527-1.476v-3.492h-1.08v-.948h1.08v-1.392h1.152v1.392h1.823v.948h-1.823v3.444c0,.344.085.607.258.792.172.184.418.275.737.275.353,0,.652-.1.9-.3l.36.828Z" fill="#000" stroke-width="0"/>
    <path d="M468.2,18.811c-.147-.145-.222-.32-.222-.528s.074-.386.222-.534c.148-.147.334-.222.558-.222s.41.07.559.21.222.314.222.522c0,.216-.073.397-.222.546-.148.147-.334.222-.559.222s-.409-.072-.558-.216ZM468.183,20.25h1.151v6.36h-1.151v-6.36Z" fill="#000" stroke-width="0"/>
    <path d="M477.53,20.25v8.688h-1.152v-3.288c-.264.336-.586.592-.966.768-.38.177-.798.265-1.254.265-.616,0-1.168-.136-1.656-.408-.488-.271-.869-.654-1.146-1.146-.276-.491-.414-1.058-.414-1.697s.138-1.204.414-1.692.657-.868,1.146-1.14c.488-.272,1.04-.408,1.656-.408.472,0,.904.09,1.296.27.392.181.716.446.972.799v-1.009h1.104ZM475.346,25.393c.328-.188.584-.452.769-.792.184-.34.276-.73.276-1.17s-.095-.828-.282-1.164c-.188-.336-.444-.599-.769-.786-.324-.188-.686-.282-1.086-.282-.408,0-.773.092-1.098.276-.324.184-.58.446-.768.786-.188.34-.282.729-.282,1.17s.094.83.282,1.17c.188.34.443.604.768.792.324.188.689.282,1.098.282.4,0,.764-.095,1.092-.282Z" fill="#000" stroke-width="0"/>
    <path d="M485.643,20.25v6.36h-1.093v-.96c-.231.328-.538.582-.918.762-.38.181-.794.271-1.241.271-.849,0-1.517-.234-2.005-.702-.487-.468-.731-1.158-.731-2.07v-3.66h1.152v3.528c0,.616.147,1.082.443,1.398.296.315.72.474,1.271.474.608,0,1.088-.184,1.44-.552s.528-.889.528-1.561v-3.288h1.152Z" fill="#000" stroke-width="0"/>
    <path d="M493.562,23.815h-5.159c.071.56.317,1.01.737,1.35.42.341.942.511,1.566.511.76,0,1.372-.257,1.836-.769l.636.744c-.288.336-.646.592-1.074.768-.428.177-.906.265-1.434.265-.672,0-1.268-.139-1.788-.414-.521-.276-.922-.662-1.206-1.158s-.426-1.056-.426-1.68c0-.616.138-1.172.414-1.668.275-.496.656-.883,1.14-1.158.484-.276,1.03-.414,1.638-.414s1.15.138,1.627.414c.476.275.848.662,1.115,1.158.269.496.402,1.063.402,1.704,0,.088-.008.203-.024.348ZM489.056,21.666c-.372.336-.59.776-.653,1.32h4.08c-.064-.536-.282-.974-.654-1.314-.372-.34-.834-.51-1.387-.51s-1.014.168-1.386.504Z" fill="#000" stroke-width="0"/>
    <path d="M244.6,36.811c-.148-.145-.223-.32-.223-.528s.074-.386.223-.534c.147-.147.333-.222.558-.222s.41.07.558.21.222.314.222.522c0,.216-.074.397-.222.546-.148.147-.334.222-.558.222s-.41-.072-.558-.216ZM244.581,38.25h1.152v6.36h-1.152v-6.36Z" fill="#000" stroke-width="0"/>
    <path d="M257.787,38.887c.468.464.702,1.151.702,2.063v3.66h-1.152v-3.528c0-.615-.142-1.08-.426-1.392-.284-.312-.69-.468-1.218-.468-.584,0-1.048.182-1.392.546-.344.364-.516.886-.516,1.565v3.276h-1.152v-3.528c0-.615-.142-1.08-.426-1.392-.284-.312-.69-.468-1.218-.468-.584,0-1.048.182-1.392.546-.344.364-.516.886-.516,1.565v3.276h-1.152v-6.36h1.104v.948c.232-.328.536-.578.912-.75s.804-.258,1.284-.258c.496,0,.936.1,1.319.3.384.2.68.492.889.876.24-.368.573-.655,1.002-.864.428-.208.91-.312,1.446-.312.8,0,1.434.232,1.902.696Z" fill="#000" stroke-width="0"/>
    <path d="M265.641,38.599c.488.271.87.651,1.146,1.14.275.488.414,1.052.414,1.692s-.139,1.206-.414,1.697c-.276.492-.658.875-1.146,1.146-.488.272-1.04.408-1.655.408-.456,0-.874-.088-1.255-.265-.38-.176-.701-.432-.966-.768v3.288h-1.151v-8.688h1.104v1.009c.256-.353.58-.618.973-.799.392-.18.823-.27,1.296-.27.615,0,1.167.136,1.655.408ZM264.987,43.393c.323-.188.579-.452.768-.792s.282-.73.282-1.17-.094-.83-.282-1.17-.444-.603-.768-.786c-.324-.185-.69-.276-1.099-.276-.4,0-.762.094-1.086.282-.324.188-.58.45-.768.786-.188.336-.282.724-.282,1.164s.092.83.276,1.17c.184.34.439.604.768.792.328.188.691.282,1.092.282.408,0,.774-.095,1.099-.282Z" fill="#000" stroke-width="0"/>
    <path d="M270.789,38.479c.392-.192.868-.288,1.428-.288v1.116c-.064-.008-.152-.013-.264-.013-.624,0-1.114.187-1.47.559-.356.372-.534.902-.534,1.59v3.168h-1.152v-6.36h1.104v1.068c.2-.368.495-.648.888-.84Z" fill="#000" stroke-width="0"/>
    <path d="M279.297,41.815h-5.16c.072.56.318,1.01.738,1.35.42.341.941.511,1.566.511.76,0,1.371-.257,1.836-.769l.636.744c-.288.336-.646.592-1.074.768-.428.177-.906.265-1.434.265-.673,0-1.269-.139-1.788-.414-.521-.276-.922-.662-1.206-1.158s-.427-1.056-.427-1.68c0-.616.139-1.172.414-1.668.276-.496.656-.883,1.141-1.158.484-.276,1.029-.414,1.638-.414s1.15.138,1.626.414c.477.275.848.662,1.116,1.158s.402,1.063.402,1.704c0,.088-.009.203-.024.348ZM274.791,39.666c-.372.336-.59.776-.654,1.32h4.08c-.064-.536-.281-.974-.654-1.314-.371-.34-.834-.51-1.386-.51s-1.014.168-1.386.504Z" fill="#000" stroke-width="0"/>
    <path d="M281.241,44.473c-.48-.141-.856-.318-1.128-.534l.479-.912c.28.2.62.36,1.021.48.399.119.804.18,1.212.18,1.008,0,1.512-.288,1.512-.864,0-.192-.068-.344-.204-.456-.136-.111-.306-.193-.51-.246-.204-.052-.494-.109-.87-.174-.512-.08-.93-.172-1.254-.276-.324-.104-.603-.279-.834-.527-.232-.248-.349-.596-.349-1.044,0-.576.24-1.038.721-1.387.479-.348,1.124-.521,1.932-.521.424,0,.848.052,1.272.156.424.104.771.244,1.044.42l-.492.912c-.521-.336-1.132-.504-1.836-.504-.488,0-.86.08-1.116.239-.256.16-.384.372-.384.637,0,.208.072.371.216.491s.322.208.534.265c.212.056.51.12.894.191.513.089.927.183,1.242.282.316.101.586.271.81.51.225.24.337.576.337,1.009,0,.575-.246,1.033-.738,1.373-.492.341-1.162.511-2.01.511-.521,0-1.021-.07-1.5-.21Z" fill="#000" stroke-width="0"/>
    <path d="M287.253,44.473c-.479-.141-.856-.318-1.128-.534l.48-.912c.279.2.619.36,1.02.48.4.119.804.18,1.212.18,1.008,0,1.512-.288,1.512-.864,0-.192-.067-.344-.204-.456-.136-.111-.306-.193-.51-.246-.204-.052-.494-.109-.87-.174-.512-.08-.93-.172-1.254-.276-.323-.104-.602-.279-.834-.527-.231-.248-.348-.596-.348-1.044,0-.576.239-1.038.72-1.387.48-.348,1.124-.521,1.932-.521.424,0,.849.052,1.272.156.424.104.772.244,1.044.42l-.492.912c-.52-.336-1.132-.504-1.836-.504-.488,0-.859.08-1.115.239-.257.16-.385.372-.385.637,0,.208.072.371.216.491.145.12.322.208.534.265.212.056.51.12.895.191.512.089.926.183,1.242.282.315.101.586.271.81.51.224.24.336.576.336,1.009,0,.575-.246,1.033-.738,1.373-.491.341-1.162.511-2.01.511-.521,0-1.021-.07-1.5-.21Z" fill="#000" stroke-width="0"/>
    <path d="M292.959,36.811c-.148-.145-.223-.32-.223-.528s.074-.386.223-.534c.147-.147.334-.222.558-.222s.41.07.558.21c.148.14.223.314.223.522,0,.216-.074.397-.223.546-.147.147-.334.222-.558.222s-.41-.072-.558-.216ZM292.94,38.25h1.152v6.36h-1.152v-6.36Z" fill="#000" stroke-width="0"/>
    <path d="M297.309,44.263c-.504-.28-.898-.666-1.182-1.158-.284-.492-.427-1.05-.427-1.674s.143-1.183.427-1.674c.283-.492.678-.877,1.182-1.152.504-.276,1.072-.414,1.704-.414s1.198.138,1.698.414c.5.275.892.66,1.176,1.152.283.491.426,1.05.426,1.674s-.143,1.182-.426,1.674c-.284.492-.676.878-1.176,1.158-.5.279-1.066.42-1.698.42s-1.2-.141-1.704-.42ZM300.11,43.393c.324-.188.578-.452.763-.792.184-.34.275-.73.275-1.17s-.092-.83-.275-1.17c-.185-.34-.438-.603-.763-.786-.323-.185-.689-.276-1.098-.276s-.774.092-1.099.276c-.323.184-.58.446-.768.786s-.282.729-.282,1.17.095.83.282,1.17.444.604.768.792c.324.188.69.282,1.099.282s.774-.095,1.098-.282Z" fill="#000" stroke-width="0"/>
    <path d="M309.23,38.893c.476.468.714,1.154.714,2.058v3.66h-1.151v-3.528c0-.615-.148-1.08-.444-1.392-.296-.312-.72-.468-1.272-.468-.624,0-1.115.182-1.476.546s-.54.886-.54,1.565v3.276h-1.152v-6.36h1.104v.96c.231-.327.546-.579.941-.756.396-.176.847-.264,1.351-.264.808,0,1.449.234,1.926.702Z" fill="#000" stroke-width="0"/>
    <path d="M318.885,44.239c-.168.145-.376.254-.624.33s-.504.114-.769.114c-.64,0-1.136-.172-1.487-.517-.353-.344-.528-.836-.528-1.476v-3.492h-1.08v-.948h1.08v-1.392h1.152v1.392h1.824v.948h-1.824v3.444c0,.344.086.607.258.792.172.184.418.275.738.275.352,0,.651-.1.899-.3l.36.828Z" fill="#000" stroke-width="0"/>
    <path d="M321.08,44.263c-.504-.28-.897-.666-1.182-1.158s-.426-1.05-.426-1.674.142-1.183.426-1.674c.284-.492.678-.877,1.182-1.152.504-.276,1.072-.414,1.704-.414s1.198.138,1.698.414c.5.275.893.66,1.176,1.152.284.491.426,1.05.426,1.674s-.142,1.182-.426,1.674c-.283.492-.676.878-1.176,1.158-.5.279-1.066.42-1.698.42s-1.2-.141-1.704-.42ZM323.883,43.393c.324-.188.578-.452.762-.792s.275-.73.275-1.17-.092-.83-.275-1.17-.438-.603-.762-.786c-.324-.185-.69-.276-1.099-.276s-.773.092-1.098.276c-.324.184-.58.446-.769.786-.188.34-.281.729-.281,1.17s.094.83.281,1.17c.188.34.444.604.769.792.324.188.69.282,1.098.282s.774-.095,1.099-.282Z" fill="#000" stroke-width="0"/>
    <path d="M333.608,38.25v6.36h-1.092v-.96c-.232.328-.538.582-.918.762-.38.181-.794.271-1.242.271-.849,0-1.517-.234-2.004-.702-.488-.468-.732-1.158-.732-2.07v-3.66h1.152v3.528c0,.616.147,1.082.444,1.398.295.315.72.474,1.271.474.607,0,1.088-.184,1.44-.552.352-.368.527-.889.527-1.561v-3.288h1.152Z" fill="#000" stroke-width="0"/>
    <path d="M336.128,44.473c-.479-.141-.856-.318-1.128-.534l.48-.912c.279.2.619.36,1.02.48.4.119.805.18,1.212.18,1.009,0,1.513-.288,1.513-.864,0-.192-.068-.344-.204-.456-.137-.111-.307-.193-.511-.246-.203-.052-.494-.109-.869-.174-.513-.08-.931-.172-1.254-.276-.324-.104-.603-.279-.834-.527-.232-.248-.349-.596-.349-1.044,0-.576.24-1.038.72-1.387.48-.348,1.124-.521,1.933-.521.424,0,.848.052,1.271.156.424.104.772.244,1.044.42l-.492.912c-.52-.336-1.132-.504-1.836-.504-.487,0-.859.08-1.115.239-.257.16-.385.372-.385.637,0,.208.072.371.217.491.144.12.321.208.533.265.213.056.511.12.895.191.512.089.926.183,1.242.282.315.101.586.271.81.51.224.24.336.576.336,1.009,0,.575-.246,1.033-.737,1.373-.492.341-1.162.511-2.011.511-.52,0-1.02-.07-1.5-.21Z" fill="#000" stroke-width="0"/>
    <path d="M345.368,44.473c-.479-.141-.856-.318-1.128-.534l.48-.912c.279.2.619.36,1.02.48.4.119.804.18,1.212.18,1.008,0,1.512-.288,1.512-.864,0-.192-.067-.344-.204-.456-.136-.111-.306-.193-.51-.246-.204-.052-.494-.109-.87-.174-.512-.08-.93-.172-1.254-.276-.323-.104-.602-.279-.834-.527-.231-.248-.348-.596-.348-1.044,0-.576.239-1.038.72-1.387.48-.348,1.124-.521,1.932-.521.424,0,.849.052,1.272.156.424.104.772.244,1.044.42l-.492.912c-.52-.336-1.132-.504-1.836-.504-.488,0-.859.08-1.115.239-.257.16-.385.372-.385.637,0,.208.072.371.216.491.145.12.322.208.534.265.212.056.51.12.895.191.512.089.926.183,1.242.282.315.101.586.271.81.51.224.24.336.576.336,1.009,0,.575-.246,1.033-.738,1.373-.491.341-1.162.511-2.01.511-.521,0-1.021-.07-1.5-.21Z" fill="#000" stroke-width="0"/>
    <path d="M356.984,38.25v6.36h-1.093v-.96c-.231.328-.538.582-.918.762-.38.181-.794.271-1.241.271-.849,0-1.517-.234-2.005-.702-.487-.468-.731-1.158-.731-2.07v-3.66h1.152v3.528c0,.616.147,1.082.443,1.398.296.315.72.474,1.271.474.608,0,1.088-.184,1.44-.552s.528-.889.528-1.561v-3.288h1.152Z" fill="#000" stroke-width="0"/>
    <path d="M364.208,38.599c.487.271.87.651,1.146,1.14.276.488.414,1.052.414,1.692s-.138,1.206-.414,1.697c-.275.492-.658.875-1.146,1.146-.488.272-1.04.408-1.656.408-.456,0-.874-.088-1.254-.265-.38-.176-.702-.432-.966-.768v3.288h-1.152v-8.688h1.104v1.009c.256-.353.579-.618.972-.799.392-.18.824-.27,1.296-.27.616,0,1.168.136,1.656.408ZM363.554,43.393c.324-.188.58-.452.769-.792.188-.34.281-.73.281-1.17s-.094-.83-.281-1.17c-.188-.34-.444-.603-.769-.786-.323-.185-.69-.276-1.098-.276-.4,0-.763.094-1.086.282-.324.188-.58.45-.769.786-.188.336-.281.724-.281,1.164s.092.83.275,1.17.439.604.768.792c.328.188.692.282,1.093.282.407,0,.774-.095,1.098-.282Z" fill="#000" stroke-width="0"/>
    <path d="M372.392,38.599c.488.271.87.651,1.146,1.14.275.488.413,1.052.413,1.692s-.138,1.206-.413,1.697c-.276.492-.658.875-1.146,1.146-.488.272-1.04.408-1.655.408-.457,0-.875-.088-1.255-.265-.38-.176-.702-.432-.966-.768v3.288h-1.152v-8.688h1.104v1.009c.256-.353.58-.618.972-.799.393-.18.824-.27,1.297-.27.615,0,1.167.136,1.655.408ZM371.738,43.393c.323-.188.579-.452.768-.792.188-.34.282-.73.282-1.17s-.095-.83-.282-1.17c-.188-.34-.444-.603-.768-.786-.324-.185-.69-.276-1.099-.276-.4,0-.762.094-1.086.282-.324.188-.58.45-.769.786-.188.336-.281.724-.281,1.164s.092.83.275,1.17c.185.34.44.604.769.792.328.188.691.282,1.092.282.408,0,.774-.095,1.099-.282Z" fill="#000" stroke-width="0"/>
    <path d="M376.567,44.263c-.504-.28-.897-.666-1.182-1.158s-.427-1.05-.427-1.674.143-1.183.427-1.674c.284-.492.678-.877,1.182-1.152.504-.276,1.072-.414,1.704-.414s1.198.138,1.698.414c.5.275.892.66,1.176,1.152.284.491.426,1.05.426,1.674s-.142,1.182-.426,1.674-.676.878-1.176,1.158c-.5.279-1.066.42-1.698.42s-1.2-.141-1.704-.42ZM379.369,43.393c.324-.188.578-.452.763-.792.184-.34.275-.73.275-1.17s-.092-.83-.275-1.17c-.185-.34-.438-.603-.763-.786-.323-.185-.689-.276-1.098-.276s-.773.092-1.098.276c-.324.184-.58.446-.769.786-.188.34-.282.729-.282,1.17s.095.83.282,1.17c.188.34.444.604.769.792.324.188.689.282,1.098.282s.774-.095,1.098-.282Z" fill="#000" stroke-width="0"/>
    <path d="M385.16,38.479c.392-.192.867-.288,1.428-.288v1.116c-.064-.008-.152-.013-.264-.013-.625,0-1.115.187-1.471.559s-.534.902-.534,1.59v3.168h-1.151v-6.36h1.104v1.068c.2-.368.496-.648.889-.84Z" fill="#000" stroke-width="0"/>
    <path d="M391.844,44.239c-.168.145-.377.254-.625.33s-.504.114-.768.114c-.64,0-1.136-.172-1.488-.517-.352-.344-.527-.836-.527-1.476v-3.492h-1.08v-.948h1.08v-1.392h1.152v1.392h1.823v.948h-1.823v3.444c0,.344.085.607.258.792.172.184.418.275.737.275.353,0,.652-.1.9-.3l.36.828Z" fill="#000" stroke-width="0"/>
    <path d="M393.56,44.473c-.48-.141-.856-.318-1.128-.534l.479-.912c.28.2.62.36,1.021.48.399.119.804.18,1.212.18,1.008,0,1.512-.288,1.512-.864,0-.192-.068-.344-.204-.456-.136-.111-.306-.193-.51-.246-.204-.052-.494-.109-.87-.174-.512-.08-.93-.172-1.254-.276-.324-.104-.603-.279-.834-.527-.232-.248-.349-.596-.349-1.044,0-.576.24-1.038.721-1.387.479-.348,1.124-.521,1.932-.521.424,0,.848.052,1.272.156.424.104.771.244,1.044.42l-.492.912c-.521-.336-1.132-.504-1.836-.504-.488,0-.86.08-1.116.239-.256.16-.384.372-.384.637,0,.208.072.371.216.491s.322.208.534.265c.212.056.51.12.894.191.513.089.927.183,1.242.282.316.101.586.271.81.51.225.24.337.576.337,1.009,0,.575-.246,1.033-.738,1.373-.492.341-1.162.511-2.01.511-.521,0-1.021-.07-1.5-.21Z" fill="#000" stroke-width="0"/>
    <path d="M398.947,44.449c-.16-.156-.24-.354-.24-.594,0-.232.08-.426.24-.582s.352-.234.576-.234.412.076.563.229c.152.151.229.348.229.588s-.078.438-.234.594c-.155.156-.342.234-.558.234-.225,0-.416-.078-.576-.234Z" fill="#000" stroke-width="0"/>
    <path d="M250.186,72.21v.816l-3.396,7.584h-1.271l3.324-7.356h-3.84v1.5h-1.151v-2.544h6.336Z" fill="#000" stroke-width="0"/>
    <path d="M260.013,74.599c.488.271.87.651,1.146,1.14.276.488.414,1.052.414,1.692s-.138,1.206-.414,1.697c-.276.492-.658.875-1.146,1.146-.488.272-1.041.408-1.656.408-.473,0-.904-.092-1.296-.276-.392-.184-.716-.452-.972-.804v1.008h-1.104v-8.904h1.151v3.504c.256-.336.576-.59.96-.762.384-.172.804-.258,1.26-.258.615,0,1.167.136,1.656.408ZM259.359,79.393c.324-.188.58-.452.768-.792s.282-.73.282-1.17-.094-.83-.282-1.17-.444-.603-.768-.786c-.324-.185-.69-.276-1.099-.276-.4,0-.764.092-1.092.276-.328.184-.584.446-.768.786-.185.34-.276.729-.276,1.17s.092.83.276,1.17c.184.34.439.604.768.792.328.188.692.282,1.092.282.408,0,.774-.095,1.099-.282Z" fill="#000" stroke-width="0"/>
    <path d="M263.188,72.811c-.148-.145-.223-.32-.223-.528s.074-.386.223-.534c.147-.147.334-.222.558-.222s.41.07.558.21c.148.14.223.314.223.522,0,.216-.074.397-.223.546-.147.147-.334.222-.558.222s-.41-.072-.558-.216ZM263.169,74.25h1.152v6.36h-1.152v-6.36Z" fill="#000" stroke-width="0"/>
    <path d="M266.841,80.473c-.479-.141-.856-.318-1.128-.534l.48-.912c.279.2.619.36,1.02.48.4.119.804.18,1.212.18,1.008,0,1.512-.288,1.512-.864,0-.192-.067-.344-.204-.456-.136-.111-.306-.193-.51-.246-.204-.052-.494-.109-.87-.174-.512-.08-.93-.172-1.254-.276-.323-.104-.602-.279-.834-.527-.231-.248-.348-.596-.348-1.044,0-.576.239-1.038.72-1.387.48-.348,1.124-.521,1.932-.521.424,0,.849.052,1.272.156.424.104.772.244,1.044.42l-.492.912c-.52-.336-1.132-.504-1.836-.504-.488,0-.859.08-1.115.239-.257.16-.385.372-.385.637,0,.208.072.371.216.491.145.12.322.208.534.265.212.056.51.12.895.191.512.089.926.183,1.242.282.315.101.586.271.81.51.224.24.336.576.336,1.009,0,.575-.246,1.033-.738,1.373-.491.341-1.162.511-2.01.511-.521,0-1.021-.07-1.5-.21Z" fill="#000" stroke-width="0"/>
    <path d="M281.541,80.611l-1.812-2.58c-.224.017-.4.024-.527.024h-2.076v2.556h-1.2v-8.4h3.276c1.088,0,1.943.261,2.567.78.624.521.937,1.236.937,2.148,0,.647-.16,1.199-.48,1.655s-.775.788-1.368.996l1.992,2.82h-1.308ZM280.904,76.542c.4-.327.601-.796.601-1.403s-.2-1.074-.601-1.398c-.399-.324-.979-.486-1.739-.486h-2.04v3.78h2.04c.76,0,1.34-.164,1.739-.492Z" fill="#000" stroke-width="0"/>
    <path d="M290.408,74.25v6.36h-1.092v-.96c-.232.328-.538.582-.918.762-.38.181-.794.271-1.242.271-.848,0-1.516-.234-2.004-.702s-.731-1.158-.731-2.07v-3.66h1.151v3.528c0,.616.148,1.082.444,1.398.296.315.72.474,1.272.474.607,0,1.088-.184,1.439-.552s.528-.889.528-1.561v-3.288h1.151Z" fill="#000" stroke-width="0"/>
    <path d="M298.328,77.815h-5.16c.072.56.318,1.01.738,1.35.42.341.942.511,1.566.511.76,0,1.372-.257,1.836-.769l.636.744c-.288.336-.646.592-1.074.768-.428.177-.905.265-1.434.265-.672,0-1.269-.139-1.788-.414-.52-.276-.922-.662-1.206-1.158s-.426-1.056-.426-1.68c0-.616.138-1.172.414-1.668s.655-.883,1.14-1.158c.484-.276,1.03-.414,1.639-.414s1.149.138,1.625.414c.477.275.849.662,1.116,1.158.269.496.402,1.063.402,1.704,0,.088-.008.203-.024.348ZM293.822,75.666c-.372.336-.59.776-.654,1.32h4.08c-.063-.536-.281-.974-.653-1.314-.372-.34-.834-.51-1.386-.51s-1.015.168-1.387.504Z" fill="#000" stroke-width="0"/>
    <path d="M309.177,71.706v8.904h-1.104v-1.008c-.256.352-.58.62-.972.804-.392.185-.824.276-1.296.276-.616,0-1.168-.136-1.656-.408-.488-.271-.87-.654-1.146-1.146-.275-.491-.414-1.058-.414-1.697s.139-1.204.414-1.692c.276-.488.658-.868,1.146-1.14.488-.272,1.04-.408,1.656-.408.456,0,.876.086,1.26.258s.704.426.96.762v-3.504h1.152ZM306.992,79.393c.328-.188.584-.452.769-.792.184-.34.275-.73.275-1.17s-.092-.83-.275-1.17c-.185-.34-.44-.603-.769-.786-.328-.185-.691-.276-1.092-.276-.408,0-.773.092-1.098.276-.324.184-.58.446-.769.786-.188.34-.282.729-.282,1.17s.095.83.282,1.17c.188.34.444.604.769.792.324.188.689.282,1.098.282.4,0,.764-.095,1.092-.282Z" fill="#000" stroke-width="0"/>
    <path d="M317.084,77.815h-5.16c.072.56.318,1.01.738,1.35.42.341.942.511,1.566.511.76,0,1.372-.257,1.836-.769l.636.744c-.288.336-.646.592-1.074.768-.428.177-.905.265-1.434.265-.672,0-1.269-.139-1.788-.414-.52-.276-.922-.662-1.206-1.158s-.426-1.056-.426-1.68c0-.616.138-1.172.414-1.668s.655-.883,1.14-1.158c.484-.276,1.03-.414,1.639-.414s1.149.138,1.625.414c.477.275.849.662,1.116,1.158.269.496.402,1.063.402,1.704,0,.088-.008.203-.024.348ZM312.578,75.666c-.372.336-.59.776-.654,1.32h4.08c-.063-.536-.281-.974-.653-1.314-.372-.34-.834-.51-1.386-.51s-1.015.168-1.387.504Z" fill="#000" stroke-width="0"/>
    <path d="M321.933,71.706h1.151v8.904h-1.151v-8.904Z" fill="#000" stroke-width="0"/>
    <path d="M324.944,72.21h1.008l-.084,3.24h-.853l-.071-3.24Z" fill="#000" stroke-width="0"/>
    <path d="M327.968,72.21h1.2v8.4h-1.2v-8.4Z" fill="#000" stroke-width="0"/>
    <path d="M336.842,74.893c.477.468.715,1.154.715,2.058v3.66h-1.152v-3.528c0-.615-.148-1.08-.444-1.392-.296-.312-.72-.468-1.271-.468-.624,0-1.116.182-1.477.546-.359.364-.54.886-.54,1.565v3.276h-1.151v-6.36h1.104v.96c.232-.327.546-.579.942-.756.396-.176.846-.264,1.35-.264.809,0,1.45.234,1.926.702Z" fill="#000" stroke-width="0"/>
    <path d="M345.729,71.706v8.904h-1.104v-1.008c-.256.352-.58.62-.972.804-.393.185-.824.276-1.297.276-.615,0-1.168-.136-1.655-.408-.488-.271-.87-.654-1.146-1.146-.275-.491-.414-1.058-.414-1.697s.139-1.204.414-1.692c.276-.488.658-.868,1.146-1.14.487-.272,1.04-.408,1.655-.408.457,0,.877.086,1.261.258s.704.426.96.762v-3.504h1.152ZM343.544,79.393c.328-.188.584-.452.769-.792.184-.34.275-.73.275-1.17s-.092-.83-.275-1.17c-.185-.34-.44-.603-.769-.786-.328-.185-.692-.276-1.092-.276-.408,0-.774.092-1.099.276-.323.184-.58.446-.768.786s-.282.729-.282,1.17.095.83.282,1.17.444.604.768.792c.324.188.69.282,1.099.282.399,0,.764-.095,1.092-.282Z" fill="#000" stroke-width="0"/>
    <path d="M353.84,74.25v6.36h-1.092v-.96c-.232.328-.538.582-.918.762-.381.181-.795.271-1.242.271-.848,0-1.516-.234-2.004-.702s-.732-1.158-.732-2.07v-3.66h1.152v3.528c0,.616.148,1.082.443,1.398.297.315.721.474,1.272.474.608,0,1.088-.184,1.44-.552.352-.368.527-.889.527-1.561v-3.288h1.152Z" fill="#000" stroke-width="0"/>
    <path d="M356.359,80.473c-.479-.141-.855-.318-1.127-.534l.479-.912c.28.2.62.36,1.021.48.399.119.804.18,1.211.18,1.009,0,1.513-.288,1.513-.864,0-.192-.068-.344-.204-.456-.137-.111-.307-.193-.51-.246-.204-.052-.494-.109-.87-.174-.513-.08-.931-.172-1.254-.276-.324-.104-.603-.279-.834-.527-.232-.248-.349-.596-.349-1.044,0-.576.24-1.038.721-1.387.479-.348,1.123-.521,1.932-.521.424,0,.848.052,1.271.156.424.104.772.244,1.045.42l-.492.912c-.521-.336-1.133-.504-1.836-.504-.488,0-.86.08-1.116.239-.257.16-.384.372-.384.637,0,.208.072.371.216.491s.321.208.534.265c.212.056.51.12.894.191.512.089.926.183,1.242.282.315.101.586.271.81.51.225.24.336.576.336,1.009,0,.575-.246,1.033-.737,1.373-.492.341-1.162.511-2.011.511-.52,0-1.02-.07-1.5-.21Z" fill="#000" stroke-width="0"/>
    <path d="M365.623,80.239c-.168.145-.375.254-.623.33s-.504.114-.769.114c-.64,0-1.136-.172-1.487-.517-.353-.344-.528-.836-.528-1.476v-3.492h-1.08v-.948h1.08v-1.392h1.151v1.392h1.824v.948h-1.824v3.444c0,.344.086.607.258.792.173.184.418.275.738.275.353,0,.652-.1.9-.3l.359.828Z" fill="#000" stroke-width="0"/>
    <path d="M369.008,74.479c.392-.192.867-.288,1.428-.288v1.116c-.064-.008-.152-.013-.264-.013-.625,0-1.115.187-1.471.559s-.534.902-.534,1.59v3.168h-1.151v-6.36h1.104v1.068c.2-.368.496-.648.889-.84Z" fill="#000" stroke-width="0"/>
    <path d="M371.869,72.811c-.147-.145-.222-.32-.222-.528s.074-.386.222-.534c.148-.147.334-.222.559-.222s.41.07.558.21c.148.14.222.314.222.522,0,.216-.073.397-.222.546-.147.147-.334.222-.558.222s-.41-.072-.559-.216ZM371.852,74.25h1.152v6.36h-1.152v-6.36Z" fill="#000" stroke-width="0"/>
    <path d="M380.924,77.815h-5.16c.072.56.318,1.01.738,1.35.42.341.941.511,1.565.511.76,0,1.372-.257,1.836-.769l.636.744c-.287.336-.646.592-1.074.768-.428.177-.905.265-1.434.265-.672,0-1.268-.139-1.788-.414-.52-.276-.922-.662-1.206-1.158-.283-.496-.426-1.056-.426-1.68,0-.616.139-1.172.414-1.668.276-.496.656-.883,1.141-1.158.483-.276,1.029-.414,1.638-.414s1.149.138,1.626.414c.476.275.848.662,1.115,1.158.269.496.402,1.063.402,1.704,0,.088-.008.203-.023.348ZM376.418,75.666c-.373.336-.591.776-.654,1.32h4.08c-.064-.536-.282-.974-.654-1.314-.372-.34-.834-.51-1.386-.51s-1.015.168-1.386.504Z" fill="#000" stroke-width="0"/>
    <path d="M383.39,79.273c.147.156.222.35.222.582,0,.12-.014.236-.042.348-.028.112-.082.284-.162.517l-.563,1.668h-.756l.443-1.788c-.152-.057-.273-.15-.365-.282-.093-.132-.139-.286-.139-.462,0-.24.076-.437.229-.588.151-.152.344-.229.575-.229.224,0,.41.078.559.234Z" fill="#000" stroke-width="0"/>
    <path d="M251.373,96.546h-1.596v2.064h-1.164v-2.064h-4.668v-.84l4.296-5.496h1.296l-4.116,5.305h3.229v-1.824h1.128v1.824h1.596v1.031Z" fill="#000" stroke-width="0"/>
    <path d="M259.401,96.546h-1.596v2.064h-1.164v-2.064h-4.668v-.84l4.296-5.496h1.296l-4.116,5.305h3.228v-1.824h1.128v1.824h1.596v1.031Z" fill="#000" stroke-width="0"/>
    <path d="M266.48,94.998c.257.345.385.756.385,1.236,0,.504-.137.942-.408,1.314-.271.371-.66.657-1.164.857s-1.096.3-1.775.3c-.673,0-1.259-.1-1.759-.3s-.886-.486-1.158-.857c-.272-.372-.408-.811-.408-1.314,0-.48.126-.892.378-1.236.252-.344.618-.607,1.098-.792-.384-.184-.676-.428-.876-.731s-.3-.664-.3-1.08c0-.464.126-.868.378-1.212s.606-.608,1.062-.792c.456-.185.984-.276,1.584-.276.607,0,1.142.092,1.602.276.46.184.816.448,1.068.792s.377.748.377,1.212c0,.408-.102.766-.306,1.074-.204.308-.498.554-.882.737.48.185.848.448,1.104.792ZM265.089,97.321c.384-.276.576-.649.576-1.122,0-.464-.192-.83-.576-1.098-.384-.269-.908-.402-1.571-.402s-1.185.134-1.561.402c-.376.268-.564.634-.564,1.098,0,.473.188.846.564,1.122s.896.414,1.561.414,1.188-.138,1.571-.414ZM262.173,91.453c-.328.244-.492.574-.492.99s.162.744.486.984c.324.239.774.359,1.351.359.583,0,1.041-.12,1.373-.359.332-.24.498-.568.498-.984s-.17-.746-.51-.99-.794-.366-1.361-.366-1.017.122-1.345.366Z" fill="#000" stroke-width="0"/>
    <path d="M273.075,93.823c.436.208.778.506,1.026.895.247.388.371.834.371,1.338,0,.527-.13.992-.39,1.392-.26.4-.616.71-1.067.93-.453.221-.959.33-1.519.33-1.128,0-1.998-.363-2.61-1.092-.611-.728-.918-1.76-.918-3.096,0-.937.166-1.734.498-2.395s.796-1.159,1.393-1.5c.596-.34,1.29-.51,2.082-.51.408,0,.792.042,1.151.126.36.084.673.206.937.366l-.456.936c-.4-.264-.937-.396-1.608-.396-.872,0-1.556.27-2.052.81s-.744,1.326-.744,2.358c0,.128.004.228.013.3.239-.36.569-.634.989-.822.42-.188.895-.281,1.422-.281.552,0,1.046.104,1.482.312ZM272.793,97.29c.344-.296.516-.691.516-1.188s-.174-.89-.521-1.183c-.348-.292-.814-.438-1.398-.438-.376,0-.71.072-1.002.216-.292.145-.52.34-.684.588s-.246.524-.246.828c0,.296.078.566.234.811s.384.439.684.588c.3.147.658.222,1.074.222.552,0,1-.148,1.344-.444Z" fill="#000" stroke-width="0"/>
    <path d="M277.035,98.197c-.517-.34-.922-.834-1.219-1.482-.296-.647-.443-1.415-.443-2.304s.147-1.656.443-2.304c.297-.648.702-1.142,1.219-1.482.516-.34,1.105-.51,1.77-.51.656,0,1.242.17,1.758.51.517.341.922.834,1.219,1.482.295.647.443,1.416.443,2.304s-.148,1.656-.443,2.304c-.297.648-.702,1.143-1.219,1.482-.516.34-1.102.51-1.758.51-.664,0-1.254-.17-1.77-.51ZM280.419,96.811c.403-.552.606-1.353.606-2.4s-.203-1.848-.606-2.399c-.404-.553-.942-.828-1.614-.828-.68,0-1.222.275-1.626.828-.403.552-.606,1.352-.606,2.399s.203,1.849.606,2.4c.404.552.946.828,1.626.828.672,0,1.21-.276,1.614-.828Z" fill="#000" stroke-width="0"/>
    <path d="M293.133,90.991c.624.521.936,1.236.936,2.148s-.312,1.628-.936,2.147c-.624.521-1.48.78-2.568.78h-2.076v2.544h-1.199v-8.4h3.275c1.088,0,1.944.261,2.568.78ZM292.269,94.537c.4-.324.601-.79.601-1.397s-.2-1.074-.601-1.398c-.399-.324-.979-.486-1.739-.486h-2.041v3.769h2.041c.76,0,1.34-.162,1.739-.486Z" fill="#000" stroke-width="0"/>
    <path d="M296.66,98.263c-.504-.28-.897-.666-1.182-1.158s-.426-1.05-.426-1.674.142-1.183.426-1.674c.284-.492.678-.877,1.182-1.152.504-.276,1.072-.414,1.704-.414s1.198.138,1.698.414c.5.275.893.66,1.176,1.152.284.491.426,1.05.426,1.674s-.142,1.182-.426,1.674c-.283.492-.676.878-1.176,1.158-.5.279-1.066.42-1.698.42s-1.2-.141-1.704-.42ZM299.463,97.393c.324-.188.578-.452.762-.792s.275-.73.275-1.17-.092-.83-.275-1.17-.438-.603-.762-.786c-.324-.185-.69-.276-1.099-.276s-.773.092-1.098.276c-.324.184-.58.446-.769.786-.188.34-.281.729-.281,1.17s.094.83.281,1.17c.188.34.444.604.769.792.324.188.69.282,1.098.282s.774-.095,1.099-.282Z" fill="#000" stroke-width="0"/>
    <path d="M308.582,92.893c.477.468.715,1.154.715,2.058v3.66h-1.152v-3.528c0-.615-.148-1.08-.444-1.392-.296-.312-.72-.468-1.271-.468-.624,0-1.116.182-1.477.546-.359.364-.54.886-.54,1.565v3.276h-1.151v-6.36h1.104v.96c.232-.327.546-.579.942-.756.396-.176.846-.264,1.35-.264.809,0,1.45.234,1.926.702Z" fill="#000" stroke-width="0"/>
    <path d="M315.009,98.239c-.168.145-.376.254-.624.33s-.504.114-.769.114c-.64,0-1.136-.172-1.487-.517-.353-.344-.528-.836-.528-1.476v-3.492h-1.08v-.948h1.08v-1.392h1.152v1.392h1.823v.948h-1.823v3.444c0,.344.085.607.258.792.172.184.418.275.737.275.353,0,.652-.1.9-.3l.36.828Z" fill="#000" stroke-width="0"/>
    <path d="M315.873,94.819h3.228v.996h-3.228v-.996Z" fill="#000" stroke-width="0"/>
    <path d="M321.458,98.412c-.588-.195-1.05-.45-1.386-.762l.444-.937c.319.288.729.522,1.229.702.5.181,1.014.271,1.542.271.696,0,1.216-.118,1.561-.354.344-.235.516-.55.516-.941,0-.288-.094-.522-.282-.702-.188-.18-.42-.318-.695-.414-.276-.096-.666-.204-1.17-.324-.633-.151-1.143-.304-1.53-.456-.389-.151-.72-.386-.996-.702-.276-.315-.414-.741-.414-1.277,0-.448.118-.853.354-1.212.235-.36.594-.648,1.073-.864.48-.216,1.076-.324,1.788-.324.496,0,.984.064,1.464.192.48.128.892.312,1.236.552l-.396.96c-.353-.224-.729-.394-1.129-.51-.399-.116-.792-.174-1.176-.174-.68,0-1.189.124-1.529.372-.341.248-.511.567-.511.96,0,.287.097.521.288.701.192.181.43.32.714.42.284.101.67.206,1.158.318.632.152,1.14.305,1.524.456.384.152.714.384.989.696.276.312.414.731.414,1.26,0,.44-.12.842-.359,1.206-.24.364-.604.652-1.093.864-.487.212-1.088.317-1.8.317-.632,0-1.241-.098-1.83-.294Z" fill="#000" stroke-width="0"/>
    <path d="M332.462,92.838c.468.433.702,1.076.702,1.933v3.84h-1.092v-.84c-.192.296-.466.521-.822.678-.355.156-.777.234-1.266.234-.712,0-1.282-.172-1.71-.517-.429-.344-.642-.796-.642-1.355s.203-1.01.611-1.351c.408-.34,1.057-.51,1.944-.51h1.823v-.228c0-.496-.144-.876-.432-1.141-.288-.264-.712-.396-1.271-.396-.377,0-.744.062-1.104.186s-.664.29-.912.498l-.479-.863c.328-.265.72-.467,1.176-.606s.939-.21,1.452-.21c.88,0,1.554.216,2.021.647ZM331.316,97.5c.319-.195.552-.474.695-.834v-.888h-1.775c-.977,0-1.464.328-1.464.984,0,.319.124.571.372.756.248.184.592.275,1.031.275s.82-.098,1.141-.294Z" fill="#000" stroke-width="0"/>
    <path d="M335.318,90.811c-.148-.145-.223-.32-.223-.528s.074-.386.223-.534c.147-.147.334-.222.558-.222s.41.07.558.21c.148.14.223.314.223.522,0,.216-.074.397-.223.546-.147.147-.334.222-.558.222s-.41-.072-.558-.216ZM335.3,92.25h1.152v6.36h-1.152v-6.36Z" fill="#000" stroke-width="0"/>
    <path d="M343.971,92.893c.476.468.713,1.154.713,2.058v3.66h-1.151v-3.528c0-.615-.148-1.08-.444-1.392-.296-.312-.72-.468-1.271-.468-.624,0-1.116.182-1.477.546-.359.364-.54.886-.54,1.565v3.276h-1.151v-6.36h1.104v.96c.232-.327.546-.579.942-.756.396-.176.846-.264,1.35-.264.808,0,1.45.234,1.927.702Z" fill="#000" stroke-width="0"/>
    <path d="M350.396,98.239c-.168.145-.377.254-.625.33s-.504.114-.768.114c-.64,0-1.136-.172-1.488-.517-.352-.344-.527-.836-.527-1.476v-3.492h-1.08v-.948h1.08v-1.392h1.152v1.392h1.823v.948h-1.823v3.444c0,.344.085.607.258.792.172.184.418.275.737.275.353,0,.652-.1.9-.3l.36.828Z" fill="#000" stroke-width="0"/>
    <path d="M351.26,94.819h3.229v.996h-3.229v-.996Z" fill="#000" stroke-width="0"/>
    <path d="M364.22,98.611l-.012-6.12-3.036,5.101h-.552l-3.036-5.064v6.084h-1.152v-8.4h.984l3.504,5.904,3.456-5.904h.983l.013,8.4h-1.152Z" fill="#000" stroke-width="0"/>
    <path d="M372.062,92.838c.468.433.702,1.076.702,1.933v3.84h-1.092v-.84c-.192.296-.466.521-.822.678-.355.156-.777.234-1.266.234-.712,0-1.282-.172-1.71-.517-.429-.344-.642-.796-.642-1.355s.203-1.01.611-1.351c.408-.34,1.057-.51,1.944-.51h1.823v-.228c0-.496-.144-.876-.432-1.141-.288-.264-.712-.396-1.271-.396-.377,0-.744.062-1.104.186s-.664.29-.912.498l-.479-.863c.328-.265.72-.467,1.176-.606s.939-.21,1.452-.21c.88,0,1.554.216,2.021.647ZM370.916,97.5c.319-.195.552-.474.695-.834v-.888h-1.775c-.977,0-1.464.328-1.464.984,0,.319.124.571.372.756.248.184.592.275,1.031.275s.82-.098,1.141-.294Z" fill="#000" stroke-width="0"/>
    <path d="M376.892,92.479c.392-.192.868-.288,1.428-.288v1.116c-.063-.008-.151-.013-.264-.013-.624,0-1.114.187-1.47.559-.356.372-.534.902-.534,1.59v3.168h-1.152v-6.36h1.104v1.068c.199-.368.496-.648.888-.84Z" fill="#000" stroke-width="0"/>
    <path d="M383.575,98.239c-.168.145-.376.254-.624.33s-.504.114-.768.114c-.641,0-1.137-.172-1.488-.517-.352-.344-.527-.836-.527-1.476v-3.492h-1.08v-.948h1.08v-1.392h1.151v1.392h1.824v.948h-1.824v3.444c0,.344.086.607.258.792.173.184.418.275.738.275.353,0,.652-.1.9-.3l.359.828Z" fill="#000" stroke-width="0"/>
    <path d="M384.985,90.811c-.148-.145-.222-.32-.222-.528s.073-.386.222-.534c.147-.147.334-.222.558-.222s.41.07.559.21c.147.14.222.314.222.522,0,.216-.074.397-.222.546-.148.147-.334.222-.559.222s-.41-.072-.558-.216ZM384.967,92.25h1.152v6.36h-1.152v-6.36Z" fill="#000" stroke-width="0"/>
    <path d="M393.637,92.893c.477.468.715,1.154.715,2.058v3.66h-1.152v-3.528c0-.615-.148-1.08-.444-1.392-.296-.312-.72-.468-1.271-.468-.624,0-1.116.182-1.477.546-.359.364-.54.886-.54,1.565v3.276h-1.151v-6.36h1.104v.96c.232-.327.546-.579.942-.756.396-.176.846-.264,1.35-.264.809,0,1.45.234,1.926.702Z" fill="#000" stroke-width="0"/>
    <path d="M245.721,116.221c-.528-.34-.944-.836-1.248-1.488s-.456-1.426-.456-2.322.151-1.67.456-2.322c.304-.651.72-1.147,1.248-1.487s1.128-.51,1.8-.51,1.273.17,1.806.51.95.836,1.254,1.487c.304.652.456,1.427.456,2.322s-.152,1.67-.456,2.322c-.304.652-.722,1.148-1.254,1.488s-1.134.51-1.806.51-1.272-.17-1.8-.51ZM248.943,114.63c.348-.495.522-1.235.522-2.22s-.174-1.724-.522-2.22c-.348-.496-.822-.744-1.422-.744-.592,0-1.062.248-1.41.744-.348.496-.522,1.236-.522,2.22s.174,1.725.522,2.22c.348.497.818.744,1.41.744.6,0,1.074-.247,1.422-.744Z" fill="#000" stroke-width="0"/>
    <path d="M257.607,109.17c.636.721.954,1.752.954,3.097,0,.943-.172,1.75-.517,2.418-.344.668-.826,1.176-1.446,1.523-.62.349-1.338.522-2.154.522-.432,0-.838-.046-1.218-.138-.38-.093-.71-.227-.99-.402l.576-1.176c.416.271.948.407,1.596.407.808,0,1.44-.247,1.896-.743s.684-1.212.684-2.148v-.012c-.248.288-.564.506-.948.653-.384.148-.816.223-1.296.223-.552,0-1.048-.106-1.488-.318-.439-.212-.784-.514-1.032-.906-.248-.392-.372-.844-.372-1.355,0-.544.136-1.022.408-1.435.272-.411.64-.729,1.104-.953.464-.225.984-.336,1.56-.336,1.152,0,2.046.359,2.682,1.079ZM256.275,111.763c.315-.272.474-.616.474-1.032,0-.408-.154-.746-.462-1.014-.308-.269-.734-.402-1.278-.402-.488,0-.884.13-1.188.39-.304.261-.456.606-.456,1.038,0,.44.152.788.456,1.044.304.256.712.384,1.224.384.504,0,.914-.136,1.23-.407Z" fill="#000" stroke-width="0"/>
    <path d="M269.265,108.21v1.044l-3.264,7.356h-1.668l3.155-7.08h-3.299v1.428h-1.453v-2.748h6.528Z" fill="#000" stroke-width="0"/>
    <path d="M275.48,112.471c.408.432.612.972.612,1.62,0,.487-.124.932-.372,1.331-.248.4-.622.719-1.122.954-.5.236-1.11.354-1.83.354-.6,0-1.178-.086-1.733-.258-.557-.172-1.03-.41-1.422-.714l.672-1.213c.304.257.674.459,1.109.606.437.148.887.222,1.351.222.552,0,.985-.113,1.302-.342.316-.228.474-.538.474-.93s-.149-.698-.45-.918c-.3-.22-.758-.33-1.373-.33h-.769v-1.068l1.908-2.268h-3.816v-1.309h5.725v1.044l-2.04,2.425c.775.096,1.367.359,1.775.792Z" fill="#000" stroke-width="0"/>
    <path d="M283.328,108.21v8.4h-1.56v-7.092h-1.776v-1.309h3.336Z" fill="#000" stroke-width="0"/>
    <path d="M287.9,108.21v8.4h-1.56v-7.092h-1.776v-1.309h3.336Z" fill="#000" stroke-width="0"/>
    <path d="M300.368,114.703h-1.487v1.908h-1.513v-1.908h-4.608v-1.08l4.141-5.412h1.668l-3.9,5.173h2.748v-1.692h1.465v1.692h1.487v1.319Z" fill="#000" stroke-width="0"/>
    <path d="M307.61,113.004c.235.341.354.738.354,1.194,0,.512-.142.96-.426,1.344-.284.385-.687.679-1.206.883-.52.203-1.124.306-1.812.306s-1.289-.103-1.806-.306c-.516-.204-.914-.498-1.194-.883-.279-.384-.42-.832-.42-1.344,0-.456.116-.854.349-1.194.231-.34.563-.609.996-.81-.336-.184-.595-.426-.774-.726-.18-.301-.27-.646-.27-1.038,0-.473.13-.884.39-1.236.26-.352.626-.624,1.099-.816.472-.191,1.016-.287,1.631-.287.625,0,1.172.096,1.645.287.472.192.84.465,1.104.816.265.353.396.764.396,1.236,0,.392-.092.735-.275,1.031-.185.297-.449.54-.793.732.44.2.778.47,1.015.81ZM305.889,115.147c.336-.24.504-.572.504-.996,0-.416-.168-.744-.504-.984-.337-.239-.793-.359-1.369-.359s-1.027.12-1.355.359c-.328.24-.492.568-.492.984,0,.424.164.756.492.996s.78.36,1.355.36,1.032-.12,1.369-.36ZM303.362,109.626c-.284.209-.427.5-.427.876,0,.36.143.646.427.858s.67.318,1.157.318c.496,0,.889-.106,1.177-.318s.432-.498.432-.858c0-.376-.146-.667-.438-.876-.292-.208-.683-.312-1.171-.312s-.873.104-1.157.312Z" fill="#000" stroke-width="0"/>
    <path d="M318.746,113.004c.235.341.354.738.354,1.194,0,.512-.142.96-.426,1.344-.284.385-.686.679-1.206.883-.521.203-1.124.306-1.812.306s-1.29-.103-1.807-.306c-.516-.204-.914-.498-1.193-.883-.28-.384-.42-.832-.42-1.344,0-.456.115-.854.348-1.194.232-.34.564-.609.996-.81-.336-.184-.594-.426-.774-.726-.18-.301-.27-.646-.27-1.038,0-.473.13-.884.39-1.236.26-.352.626-.624,1.098-.816.473-.191,1.017-.287,1.633-.287.623,0,1.172.096,1.644.287.472.192.84.465,1.104.816.264.353.396.764.396,1.236,0,.392-.092.735-.276,1.031-.184.297-.447.54-.791.732.439.2.777.47,1.014.81ZM317.023,115.147c.336-.24.504-.572.504-.996,0-.416-.168-.744-.504-.984-.336-.239-.791-.359-1.367-.359s-1.028.12-1.356.359c-.328.24-.492.568-.492.984,0,.424.164.756.492.996s.78.36,1.356.36,1.031-.12,1.367-.36ZM314.498,109.626c-.284.209-.426.5-.426.876,0,.36.142.646.426.858.283.212.67.318,1.158.318.496,0,.888-.106,1.176-.318s.432-.498.432-.858c0-.376-.146-.667-.438-.876-.293-.208-.683-.312-1.17-.312s-.875.104-1.158.312Z" fill="#000" stroke-width="0"/>
    <path d="M323.012,108.21v8.4h-1.561v-7.092h-1.775v-1.309h3.336Z" fill="#000" stroke-width="0"/>
    <path d="M254.469,128.203l-2.364,6.408h-1.44l-1.656-4.416-1.68,4.416h-1.44l-2.352-6.408h1.416l1.692,4.729,1.764-4.729h1.26l1.729,4.752,1.74-4.752h1.332Z" fill="#000" stroke-width="0"/>
    <path d="M265.377,128.203l-2.363,6.408h-1.44l-1.656-4.416-1.68,4.416h-1.44l-2.352-6.408h1.416l1.692,4.729,1.764-4.729h1.26l1.728,4.752,1.74-4.752h1.332Z" fill="#000" stroke-width="0"/>
    <path d="M276.285,128.203l-2.364,6.408h-1.439l-1.656-4.416-1.68,4.416h-1.44l-2.352-6.408h1.416l1.691,4.729,1.764-4.729h1.261l1.728,4.752,1.74-4.752h1.332Z" fill="#000" stroke-width="0"/>
    <path d="M276.705,134.412c-.191-.188-.288-.426-.288-.714,0-.296.095-.536.282-.72.188-.185.422-.276.702-.276s.514.092.702.276c.188.184.281.424.281.72,0,.288-.096.526-.287.714-.192.188-.425.282-.696.282s-.504-.094-.696-.282Z" fill="#000" stroke-width="0"/>
    <path d="M284.553,129.745c.44.212.784.515,1.032.906s.372.844.372,1.356c0,.544-.136,1.021-.408,1.434-.271.412-.64.73-1.104.954s-.984.336-1.561.336c-1.151,0-2.046-.36-2.682-1.08s-.954-1.752-.954-3.096c0-.944.172-1.75.517-2.418.344-.668.825-1.177,1.445-1.524s1.338-.521,2.154-.521c.432,0,.838.046,1.218.138s.71.226.99.401l-.576,1.177c-.416-.272-.948-.408-1.596-.408-.809,0-1.44.248-1.896.744s-.684,1.212-.684,2.147v.013c.248-.288.563-.506.948-.654.384-.148.815-.222,1.296-.222.552,0,1.048.105,1.487.317ZM283.989,133.117c.304-.26.456-.605.456-1.038,0-.439-.152-.788-.456-1.044s-.712-.384-1.224-.384c-.504,0-.914.136-1.23.408-.316.271-.474.616-.474,1.032,0,.407.153.745.462,1.014.308.268.733.402,1.277.402.488,0,.885-.131,1.188-.391Z" fill="#000" stroke-width="0"/>
    <path d="M289.677,126.21v8.4h-1.56v-7.092h-1.776v-1.309h3.336Z" fill="#000" stroke-width="0"/>
    <path d="M296.649,129.745c.439.212.784.515,1.032.906.247.392.371.844.371,1.356,0,.544-.136,1.021-.408,1.434-.271.412-.64.73-1.104.954s-.984.336-1.56.336c-1.152,0-2.046-.36-2.683-1.08-.636-.72-.953-1.752-.953-3.096,0-.944.172-1.75.516-2.418s.826-1.177,1.445-1.524c.62-.348,1.338-.521,2.154-.521.432,0,.838.046,1.219.138.379.092.709.226.989.401l-.576,1.177c-.416-.272-.948-.408-1.596-.408-.808,0-1.44.248-1.896.744-.457.496-.685,1.212-.685,2.147v.013c.248-.288.564-.506.948-.654s.816-.222,1.296-.222c.552,0,1.048.105,1.488.317ZM296.085,133.117c.304-.26.456-.605.456-1.038,0-.439-.152-.788-.456-1.044s-.712-.384-1.224-.384c-.504,0-.914.136-1.23.408-.316.271-.474.616-.474,1.032,0,.407.153.745.462,1.014.308.268.734.402,1.278.402.487,0,.884-.131,1.188-.391Z" fill="#000" stroke-width="0"/>
    <path d="M305.697,125.706v8.904h-1.44v-.828c-.248.305-.554.532-.918.685-.364.151-.766.228-1.206.228-.616,0-1.17-.136-1.662-.408-.492-.271-.878-.658-1.158-1.158-.279-.499-.42-1.073-.42-1.722s.141-1.22.42-1.716c.28-.496.666-.88,1.158-1.152.492-.271,1.046-.408,1.662-.408.424,0,.812.072,1.164.217.352.144.652.359.9.647v-3.288h1.5ZM303.285,133.164c.288-.164.516-.397.684-.702.168-.304.252-.655.252-1.056s-.084-.752-.252-1.056-.396-.538-.684-.702-.612-.246-.973-.246-.684.082-.972.246-.516.398-.684.702-.252.656-.252,1.056.084.752.252,1.056c.168.305.396.538.684.702s.612.246.972.246.685-.082.973-.246Z" fill="#000" stroke-width="0"/>
    <path d="M307.736,126.889c-.184-.172-.275-.386-.275-.643s.092-.47.275-.642c.185-.172.412-.258.685-.258s.5.082.685.246c.184.164.275.37.275.617,0,.265-.09.486-.27.666-.181.181-.41.271-.69.271-.272,0-.5-.086-.685-.258ZM307.665,128.203h1.5v6.408h-1.5v-6.408Z" fill="#000" stroke-width="0"/>
    <path d="M312.789,127.867v.384h1.764v1.2h-1.716v5.16h-1.5v-5.16h-1.056v-1.2h1.056v-.407c0-.688.2-1.23.601-1.626.399-.396.963-.595,1.691-.595.576,0,1.027.116,1.355.349l-.42,1.128c-.256-.176-.531-.265-.828-.265-.631,0-.947.345-.947,1.032Z" fill="#000" stroke-width="0"/>
    <path d="M320.229,128.13v1.429c-.128-.024-.244-.036-.348-.036-.584,0-1.04.17-1.368.51s-.492.83-.492,1.47v3.108h-1.5v-6.408h1.429v.937c.432-.672,1.191-1.009,2.279-1.009Z" fill="#000" stroke-width="0"/>
    <path d="M326.078,128.809c.5.452.75,1.134.75,2.046v3.756h-1.416v-.78c-.184.28-.445.494-.785.643-.341.147-.75.222-1.23.222s-.9-.082-1.26-.246c-.36-.164-.639-.392-.834-.684-.196-.292-.294-.622-.294-.99,0-.576.214-1.038.642-1.386.428-.349,1.102-.522,2.021-.522h1.656v-.096c0-.448-.134-.792-.401-1.032-.269-.24-.666-.36-1.194-.36-.359,0-.714.057-1.062.168-.348.112-.642.269-.881.469l-.589-1.093c.336-.256.74-.451,1.212-.588.473-.136.973-.204,1.5-.204.944,0,1.666.227,2.166.679ZM324.711,133.345c.291-.172.498-.418.617-.738v-.744h-1.548c-.864,0-1.296.284-1.296.852,0,.272.108.488.324.648s.516.24.9.24c.375,0,.709-.086,1.002-.258Z" fill="#000" stroke-width="0"/>
    <path d="M329.96,134.275c-.528-.28-.94-.67-1.235-1.17-.297-.5-.444-1.066-.444-1.698s.147-1.195.444-1.692c.295-.495.705-.884,1.229-1.163.524-.28,1.122-.421,1.794-.421.632,0,1.186.129,1.662.385.476.256.834.624,1.074,1.104l-1.152.672c-.184-.296-.414-.518-.689-.666-.276-.147-.578-.222-.906-.222-.561,0-1.024.182-1.393.546-.367.364-.552.851-.552,1.458s.183,1.094.546,1.458c.364.364.83.546,1.398.546.328,0,.63-.073.906-.222.275-.148.506-.37.689-.666l1.152.672c-.248.48-.61.851-1.086,1.11-.477.26-1.026.39-1.65.39-.664,0-1.26-.14-1.788-.42Z" fill="#000" stroke-width="0"/>
    <path d="M336.812,134.275c-.521-.28-.926-.67-1.219-1.17-.292-.5-.438-1.066-.438-1.698s.146-1.195.438-1.692c.293-.495.698-.884,1.219-1.163.52-.28,1.104-.421,1.752-.421.655,0,1.244.141,1.764.421.52.279.926.668,1.218,1.163.292.497.438,1.061.438,1.692s-.146,1.198-.438,1.698-.698.89-1.218,1.17-1.108.42-1.764.42c-.648,0-1.232-.14-1.752-.42ZM339.932,132.859c.36-.368.541-.852.541-1.452s-.181-1.084-.541-1.452c-.359-.367-.815-.552-1.367-.552s-1.006.185-1.362.552c-.356.368-.534.853-.534,1.452s.178,1.084.534,1.452.81.552,1.362.552,1.008-.184,1.367-.552Z" fill="#000" stroke-width="0"/>
    <path d="M343.088,134.412c-.191-.188-.287-.426-.287-.714,0-.296.094-.536.281-.72.188-.185.422-.276.702-.276s.515.092.702.276c.188.184.282.424.282.72,0,.288-.097.526-.288.714-.192.188-.424.282-.696.282s-.504-.094-.696-.282Z" fill="#000" stroke-width="0"/>
    <path d="M347.888,127.867v.384h1.765v1.2h-1.717v5.16h-1.5v-5.16h-1.056v-1.2h1.056v-.407c0-.688.2-1.23.601-1.626.399-.396.964-.595,1.692-.595.575,0,1.027.116,1.355.349l-.42,1.128c-.256-.176-.532-.265-.828-.265-.632,0-.948.345-.948,1.032Z" fill="#000" stroke-width="0"/>
    <path d="M355.328,128.13v1.429c-.129-.024-.244-.036-.349-.036-.584,0-1.04.17-1.368.51s-.492.83-.492,1.47v3.108h-1.5v-6.408h1.429v.937c.432-.672,1.192-1.009,2.28-1.009Z" fill="#000" stroke-width="0"/>
  </g>
  <rect x="233.478" y="0" width="2" height="150" fill="#272824" stroke-width="0"/>
  <g>
    <g>
      <path d="M66.443,82.028l-.632-.428v-21.307l.688-.428c1.451-.893,3.368-1.34,5.75-1.34,3.176,0,5.973,1.111,8.392,3.331,2.63,2.406,3.945,5.433,3.945,9.081,0,3.449-1.222,6.389-3.666,8.821-2.444,2.444-5.384,3.666-8.82,3.666-2.382,0-4.268-.465-5.657-1.396M68.658,79.981c1.005.397,2.152.596,3.443.596,2.481,0,4.664-.862,6.55-2.587,2.059-1.873,3.088-4.224,3.088-7.053,0-2.803-1.011-5.136-3.033-6.997-1.861-1.699-4.013-2.549-6.457-2.549-1.352,0-2.549.192-3.591.577v18.013Z" fill="#28225c" stroke-width="0"/>
      <path d="M89.053,74.417c0,1.811.533,3.288,1.6,4.429,1.067,1.154,2.438,1.737,4.113,1.749l-.019,2.828c-2.469-.013-4.503-.868-6.103-2.568-1.612-1.699-2.419-3.845-2.419-6.438v-7.89h2.829v7.89Z" fill="#28225c" stroke-width="0"/>
      <path d="M104.721,61.876c-1.65.012-2.996.583-4.038,1.712-1.042,1.129-1.563,2.58-1.563,4.354v1.898h2.847v2.773h-2.847v10.495h-2.772v-15.166c0-2.543.787-4.646,2.363-6.308,1.575-1.674,3.573-2.518,5.992-2.531l.019,2.773Z" fill="#28225c" stroke-width="0"/>
      <path d="M105.632,74.79c0-2.345.831-4.342,2.493-5.992,1.663-1.662,3.66-2.493,5.992-2.493v2.549c-1.637,0-3.04.577-4.205,1.731-1.154,1.166-1.731,2.567-1.731,4.205v8.318h-2.549v-8.318Z" fill="#28225c" stroke-width="0"/>
      <path d="M123.385,83.48c-2.32,0-4.305-.843-5.955-2.531-1.65-1.675-2.475-3.703-2.475-6.085,0-2.369.825-4.398,2.475-6.085,1.65-1.687,3.635-2.531,5.955-2.531s4.305.844,5.954,2.531c1.65,1.687,2.475,3.716,2.475,6.085v8.3h-2.791v-8.3c0-1.587-.552-2.946-1.656-4.075-1.104-1.129-2.432-1.694-3.982-1.694-1.563,0-2.897.565-4.001,1.694-1.104,1.129-1.656,2.488-1.656,4.075s.552,2.947,1.656,4.075c1.104,1.129,2.438,1.694,4.001,1.694v2.847Z" fill="#28225c" stroke-width="0"/>
      <path d="M136.076,80.893c-1.687-1.675-2.531-3.703-2.531-6.085,0-2.369.843-4.398,2.531-6.085,1.675-1.675,3.703-2.512,6.085-2.512,1.75,0,3.35.49,4.801,1.47l-1.581,2.344c-.968-.657-2.041-.986-3.22-.986-1.588,0-2.946.565-4.075,1.693-1.129,1.129-1.693,2.487-1.693,4.075s.564,2.946,1.693,4.075c1.129,1.129,2.487,1.693,4.075,1.693,1.229,0,2.345-.36,3.35-1.079l1.656,2.326c-1.501,1.067-3.17,1.6-5.006,1.6-2.382,0-4.41-.843-6.085-2.531" fill="#28225c" stroke-width="0"/>
      <path d="M157.047,66.302c2.37,0,4.398.837,6.085,2.512,1.674,1.687,2.512,3.716,2.512,6.085,0,2.382-.837,4.41-2.512,6.085-1.687,1.687-3.716,2.531-6.085,2.531-2.382,0-4.41-.843-6.085-2.531-1.687-1.675-2.531-3.703-2.531-6.085,0-2.369.844-4.398,2.531-6.085,1.674-1.675,3.703-2.512,6.085-2.512M157.047,80.667c1.588,0,2.94-.564,4.057-1.693,1.128-1.129,1.693-2.487,1.693-4.075s-.565-2.94-1.693-4.056c-1.117-1.129-2.469-1.694-4.057-1.694s-2.946.565-4.075,1.694c-1.129,1.116-1.694,2.469-1.694,4.056s.565,2.946,1.694,4.075c1.129,1.129,2.487,1.693,4.075,1.693" fill="#28225c" stroke-width="0"/>
      <path d="M17.319,67.841c.091-.081.184-.16.278-.238v-.34c0-3.373,2.744-6.115,6.117-6.115h4.336v-3.192h-4.336c-2.486,0-4.823.968-6.581,2.726-1.758,1.758-2.726,4.095-2.726,6.581v5.34h.005c.478-1.868,1.51-3.517,2.908-4.762" fill="#28225c" stroke-width="0"/>
      <path d="M34.114,72.603v-8.718c0-1.482-1.206-2.688-2.688-2.688h-2.27v-3.163h2.27c3.226,0,5.85,2.624,5.85,5.851v8.718h-3.163Z" fill="#28225c" stroke-width="0"/>
      <path d="M90.236,61.24c0,.72-.255,1.334-.763,1.842-.509.509-1.123.763-1.842.763-.707,0-1.315-.254-1.823-.763-.508-.508-.763-1.122-.763-1.842s.255-1.327.763-1.823c.508-.509,1.116-.763,1.823-.763.719,0,1.333.254,1.842.763.508.496.763,1.104.763,1.823" fill="#b28935" stroke-width="0"/>
      <path d="M123.377,66.248c-2.32,0-4.305.844-5.955,2.531-1.307,1.336-2.087,2.89-2.359,4.654h2.828c.238-.988.729-1.871,1.485-2.644,1.104-1.129,2.438-1.694,4.001-1.694,1.55,0,2.878.565,3.982,1.694.756.773,1.247,1.656,1.485,2.644h2.847c-.272-1.764-1.053-3.318-2.359-4.654-1.65-1.687-3.635-2.531-5.954-2.531" fill="#b28935" stroke-width="0"/>
      <rect x="65.811" y="66.546" width="2.847" height="9.547" fill="#b28935" stroke-width="0"/>
      <path d="M157.04,83.514c2.37,0,4.398-.843,6.085-2.531,1.652-1.653,2.486-3.651,2.508-5.991h-2.847c-.022,1.547-.583,2.875-1.689,3.982-1.117,1.129-2.469,1.694-4.057,1.694s-2.946-.565-4.075-1.694c-1.106-1.106-1.667-2.434-1.689-3.982h-2.847c.022,2.341.861,4.339,2.526,5.991,1.674,1.687,3.703,2.531,6.085,2.531" fill="#b28935" stroke-width="0"/>
      <rect x="96.34" y="76.094" width="2.773" height="7.104" fill="#b28935" stroke-width="0"/>
      <rect x="105.625" y="76.094" width="2.549" height="7.104" fill="#b28935" stroke-width="0"/>
      <rect x="34.092" y="77.266" width="3.184" height="6.829" fill="#28225c" stroke-width="0"/>
      <path d="M23.674,81.255c-2.667,0-4.954-1.654-5.893-3.989h-3.344c1.053,4.118,4.795,7.172,9.236,7.172s8.183-3.054,9.236-7.172h-3.344c-.939,2.336-3.226,3.989-5.893,3.989" fill="#28225c" stroke-width="0"/>
      <path d="M38.728,77.266h-.005c1.051,4.121,4.794,7.178,9.238,7.178,1.973,0,3.807-.602,5.329-1.632-1.521,1.029-3.354,1.63-5.325,1.63-4.443,0-8.185-3.055-9.237-7.175" fill="#9e9e9e" stroke-width="0"/>
      <path d="M51.512,80.173c1.047-.708,1.871-1.719,2.347-2.907h-.003c-.476,1.187-1.299,2.199-2.344,2.907" fill="#9e9e9e" stroke-width="0"/>
      <path d="M47.961,65.379c-2.497,0-4.771.966-6.472,2.542l-.014-.741c.016-3.353,2.749-6.076,6.105-6.076,1.631,0,3.164.635,4.317,1.788l2.251-2.251c-2.593-2.328-4.416-2.858-6.583-2.855-2.069.003-4.8,1.101-6.554,2.855-1.755,1.755-2.721,4.087-2.721,6.569v.031l.105,5.299h3.678c.942-2.329,3.225-3.978,5.888-3.978s4.947,1.648,5.888,3.978h3.345c-1.057-4.113-4.796-7.161-9.234-7.161" fill="#28225c" stroke-width="0"/>
      <path d="M53.29,82.812c1.908-1.29,3.327-3.253,3.912-5.546h-.003c-.585,2.292-2.001,4.255-3.908,5.546" fill="#b28937" stroke-width="0"/>
      <path d="M42.071,77.266h-.005c.938,2.338,3.226,3.995,5.895,3.995,1.315,0,2.537-.401,3.551-1.088-1.014.685-2.234,1.085-3.547,1.085-2.669,0-4.956-1.655-5.894-3.992" fill="#b28937" stroke-width="0"/>
      <path d="M57.198,77.266h-3.34c-.477,1.188-1.3,2.199-2.347,2.907-1.014.687-2.236,1.088-3.551,1.088-2.669,0-4.958-1.657-5.895-3.995h-3.338c1.052,4.12,4.795,7.175,9.237,7.175,1.971,0,3.804-.601,5.325-1.63,1.907-1.291,3.324-3.254,3.908-5.546" fill="#b28935" stroke-width="0"/>
      <path d="M23.674,65.373c-1.971,0-3.804.601-5.325,1.63-.252.17-.494.354-.727.547-.094.077-.186.156-.277.237-1.395,1.243-2.425,2.888-2.902,4.753h3.341c.477-1.183,1.3-2.192,2.344-2.898,1.014-.687,2.237-1.088,3.551-1.088,2.666,0,4.952,1.653,5.892,3.986h3.339c-1.055-4.115-4.795-7.166-9.235-7.166" fill="#b28935" stroke-width="0"/>
      <path d="M15.879,73.132h.246l1.446,3.661h-.241l-.461-1.174h-1.754l-.467,1.174h-.241l1.472-3.661ZM16.796,75.424l-.784-2.072h-.01l-.815,2.072h1.61Z" fill="#28225c" stroke-width="0"/>
      <path d="M22.335,74.983c0-.26.038-.507.115-.741s.189-.44.336-.618c.147-.178.327-.319.541-.423.214-.104.459-.156.736-.156.188,0,.367.028.538.082.171.054.324.135.459.241.135.106.249.234.341.385.092.151.154.321.185.513h-.215c-.086-.321-.239-.573-.462-.754-.222-.181-.503-.272-.841-.272-.246,0-.463.048-.651.144-.188.096-.345.224-.472.385-.126.161-.222.346-.287.556-.065.21-.097.43-.097.659,0,.233.032.452.095.659.063.207.157.387.282.541.125.154.281.276.469.366.188.091.408.136.662.136.219,0,.416-.036.59-.108.174-.072.322-.173.443-.303.121-.13.213-.286.274-.469.062-.183.087-.387.077-.613h-1.349v-.195h1.544v1.795h-.195v-.779h-.01c-.044.133-.111.254-.2.361-.089.108-.194.198-.315.272s-.256.131-.405.172c-.149.041-.303.062-.464.062-.277,0-.522-.05-.736-.149-.214-.099-.394-.234-.541-.405-.147-.171-.258-.372-.333-.603-.075-.231-.113-.478-.113-.741" fill="#28225c" stroke-width="0"/>
      <polygon points="30.904 73.132 33.365 73.132 33.365 73.327 31.129 73.327 31.129 74.794 33.232 74.794 33.232 74.988 31.129 74.988 31.129 76.599 33.391 76.599 33.391 76.794 30.904 76.794 30.904 73.132" fill="#28225c" stroke-width="0"/>
      <polygon points="38.411 73.132 38.693 73.132 41.006 76.491 41.016 76.491 41.016 73.132 41.242 73.132 41.242 76.794 40.975 76.794 38.647 73.409 38.637 73.409 38.637 76.794 38.411 76.794 38.411 73.132" fill="#28225c" stroke-width="0"/>
      <path d="M46.386,74.963c0-.267.039-.517.118-.751.079-.234.192-.437.341-.61.149-.172.331-.309.549-.408s.462-.149.736-.149c.215,0,.401.028.559.084.157.057.29.127.397.21.108.084.196.175.264.274.069.099.12.192.156.279.036.087.061.162.074.226.013.063.02.098.02.105h-.226c-.024-.154-.074-.291-.149-.413-.075-.121-.169-.225-.282-.31-.113-.085-.238-.15-.377-.195-.138-.044-.284-.067-.438-.067-.239,0-.453.046-.641.138s-.347.216-.477.372c-.13.156-.229.338-.297.546-.069.208-.103.431-.103.667s.034.458.103.667c.068.209.167.391.297.546s.289.279.477.372.402.138.641.138c.178,0,.344-.037.5-.11.156-.074.291-.171.408-.292.116-.121.209-.262.279-.421.07-.159.11-.324.12-.495h.226c-.021.219-.074.42-.161.605-.087.185-.198.344-.334.479-.135.135-.291.24-.469.315-.178.075-.368.113-.569.113-.273,0-.519-.049-.736-.149s-.4-.235-.549-.408c-.149-.172-.263-.376-.341-.61-.079-.234-.118-.485-.118-.751" fill="#28225c" stroke-width="0"/>
      <polygon points="54.77 73.132 57.231 73.132 57.231 73.327 54.996 73.327 54.996 74.794 57.098 74.794 57.098 74.988 54.996 74.988 54.996 76.599 57.257 76.599 57.257 76.794 54.77 76.794 54.77 73.132" fill="#28225c" stroke-width="0"/>
    </g>
    <line x1="13.332" y1="90.738" x2="202.01" y2="90.738" fill="none" stroke="#cbab6c" stroke-miterlimit="10" stroke-width=".333"/>
    <line x1="13.332" y1="96.697" x2="202.01" y2="96.697" fill="none" stroke="#cbab6c" stroke-miterlimit="10" stroke-width=".333"/>
    <g>
      <path d="M18.728,91.994v.442h-1.774v1.047h1.584v.442h-1.584v1.062h1.842v.447h-2.304v-3.44h2.236Z" fill="#28225c" stroke-width="0"/>
      <path d="M23.639,91.994v3.555h-.015l-2.526-2.565.01,2.451h-.467v-3.545h.023l2.522,2.593-.01-2.488h.462Z" fill="#28225c" stroke-width="0"/>
      <path d="M27.056,92.446c-.14-.041-.271-.062-.395-.062-.188,0-.336.043-.445.127s-.164.198-.164.345c0,.143.064.259.192.35.129.091.312.18.55.269.178.063.327.133.45.207.122.075.224.178.304.31.081.132.122.299.122.502,0,.185-.046.351-.139.5-.092.149-.223.267-.393.352-.169.086-.368.129-.597.129-.213,0-.417-.034-.614-.103-.196-.068-.369-.154-.519-.259l.205-.367c.117.089.258.165.423.227s.319.093.462.093c.184,0,.345-.048.483-.143.138-.096.207-.236.207-.424,0-.158-.059-.285-.174-.378-.116-.094-.278-.182-.488-.265-.193-.073-.354-.145-.482-.214-.129-.07-.239-.166-.331-.288s-.138-.275-.138-.459c0-.27.094-.488.283-.654.188-.167.434-.255.734-.265.371,0,.716.093,1.033.276l-.176.356c-.124-.066-.256-.12-.396-.161Z" fill="#28225c" stroke-width="0"/>
      <path d="M31.719,91.994v.442h-1.774v1.047h1.584v.442h-1.584v1.062h1.842v.447h-2.304v-3.44h2.236Z" fill="#28225c" stroke-width="0"/>
      <path d="M34.094,91.994v3.44h-.461v-3.44h.461Z" fill="#28225c" stroke-width="0"/>
      <path d="M38.332,95.368c-.224.069-.431.104-.621.104-.358,0-.675-.074-.947-.222s-.483-.35-.631-.606-.221-.546-.221-.866c0-.374.079-.698.237-.973.159-.274.373-.485.643-.631s.564-.219.886-.219c.193,0,.376.022.547.068.171.047.325.107.462.184l-.152.424c-.102-.058-.229-.107-.383-.15-.154-.043-.293-.063-.417-.063-.267,0-.502.054-.707.161-.204.108-.362.262-.473.462-.111.2-.167.433-.167.699,0,.248.056.468.167.662.11.193.268.343.471.449s.435.159.694.159c.121,0,.238-.012.353-.035.114-.024.21-.058.285-.103v-.681h-.685v-.442h1.151v1.39c-.104.082-.269.158-.492.229Z" fill="#28225c" stroke-width="0"/>
      <path d="M43.745,91.994v3.555h-.015l-2.527-2.565.01,2.451h-.466v-3.545h.023l2.522,2.593-.01-2.488h.462Z" fill="#28225c" stroke-width="0"/>
      <path d="M48.013,91.994v.442h-1.774v1.047h1.584v.442h-1.584v1.062h1.842v.447h-2.304v-3.44h2.236Z" fill="#28225c" stroke-width="0"/>
      <path d="M50.06,93.678c.054-.096.128-.171.222-.227.093-.055.194-.083.302-.083.111,0,.214.028.31.083.095.056.17.131.226.227.056.095.084.198.084.31,0,.171-.061.315-.182.433-.12.117-.267.176-.438.176-.168,0-.311-.059-.429-.176-.117-.117-.176-.262-.176-.433,0-.111.027-.215.081-.31Z" fill="#28225c" stroke-width="0"/>
      <path d="M54.661,92.446c-.14-.041-.271-.062-.395-.062-.188,0-.336.043-.445.127s-.164.198-.164.345c0,.143.064.259.192.35.129.091.312.18.55.269.178.063.327.133.45.207.122.075.224.178.304.31.081.132.122.299.122.502,0,.185-.046.351-.139.5-.092.149-.223.267-.393.352-.169.086-.368.129-.597.129-.213,0-.417-.034-.614-.103-.196-.068-.369-.154-.519-.259l.205-.367c.117.089.258.165.423.227s.319.093.462.093c.184,0,.345-.048.483-.143.138-.096.207-.236.207-.424,0-.158-.059-.285-.174-.378-.116-.094-.278-.182-.488-.265-.193-.073-.354-.145-.482-.214-.129-.07-.239-.166-.331-.288s-.138-.275-.138-.459c0-.27.094-.488.283-.654.188-.167.434-.255.734-.265.371,0,.716.093,1.033.276l-.176.356c-.124-.066-.256-.12-.396-.161Z" fill="#28225c" stroke-width="0"/>
      <path d="M57.55,91.994v3.44h-.462v-3.44h.462Z" fill="#28225c" stroke-width="0"/>
      <path d="M61.787,95.368c-.224.069-.431.104-.621.104-.358,0-.674-.074-.946-.222-.273-.147-.483-.35-.631-.606s-.222-.546-.222-.866c0-.374.079-.698.238-.973.158-.274.373-.485.643-.631s.564-.219.885-.219c.193,0,.376.022.548.068.171.047.324.107.461.184l-.152.424c-.102-.058-.229-.107-.383-.15s-.293-.063-.416-.063c-.267,0-.502.054-.707.161-.205.108-.362.262-.474.462s-.166.433-.166.699c0,.248.055.468.166.662.111.193.269.343.472.449.202.106.435.159.694.159.12,0,.238-.012.353-.035.114-.024.209-.058.285-.103v-.681h-.686v-.442h1.152v1.39c-.105.082-.27.158-.493.229Z" fill="#28225c" stroke-width="0"/>
      <path d="M67.201,91.994v3.555h-.015l-2.527-2.565.01,2.451h-.466v-3.545h.023l2.522,2.593-.01-2.488h.462Z" fill="#28225c" stroke-width="0"/>
      <path d="M71.036,94.53h-1.323l-.366.904h-.457l1.504-3.583h.028l1.504,3.583h-.533l-.356-.904ZM70.879,94.13l-.49-1.257-.509,1.257h.999Z" fill="#28225c" stroke-width="0"/>
      <path d="M74.072,91.994v2.993h1.751v.447h-2.213v-3.44h.462Z" fill="#28225c" stroke-width="0"/>
      <path d="M79.849,91.994v.442h-1.774v1.047h1.584v.442h-1.584v1.062h1.842v.447h-2.304v-3.44h2.236Z" fill="#28225c" stroke-width="0"/>
      <path d="M83.794,91.994v.442h-.923v2.998h-.462v-2.998h-.899v-.442h2.284Z" fill="#28225c" stroke-width="0"/>
      <path d="M86.035,91.994v3.44h-.461v-3.44h.461Z" fill="#28225c" stroke-width="0"/>
      <path d="M91.518,95.434h-1.547c-.12.025-.241.038-.361.038-.317,0-.611-.078-.881-.233s-.482-.367-.64-.635c-.157-.269-.235-.564-.235-.888,0-.314.079-.606.237-.876.159-.27.372-.484.641-.645.268-.16.561-.24.878-.24.314,0,.605.08.876.24.27.16.484.375.645.645s.24.562.24.876c0,.244-.048.476-.143.694-.096.219-.229.409-.4.571h.69v.452ZM88.5,94.372c.114.2.271.358.469.477.198.117.415.176.65.176s.449-.058.645-.174c.195-.115.349-.274.462-.476.112-.202.169-.422.169-.659,0-.235-.058-.452-.172-.652-.114-.199-.27-.358-.466-.476-.197-.117-.413-.176-.647-.176s-.45.06-.647.178c-.196.119-.352.278-.464.479s-.169.417-.169.652.058.452.171.651Z" fill="#28225c" stroke-width="0"/>
      <path d="M93.863,94.627c.073.122.173.219.298.29s.264.107.416.107c.159,0,.303-.035.431-.104.129-.07.229-.167.303-.291.073-.123.109-.262.109-.413v-2.223h.452v2.236c0,.244-.058.461-.172.649-.114.189-.27.335-.466.438-.197.103-.416.154-.657.154-.237,0-.455-.052-.651-.154-.197-.104-.352-.249-.464-.438-.113-.188-.169-.405-.169-.649v-2.236h.461v2.223c0,.151.037.289.109.411Z" fill="#28225c" stroke-width="0"/>
      <path d="M100.098,91.994v.442h-1.775v1.047h1.585v.442h-1.585v1.062h1.842v.447h-2.303v-3.44h2.236Z" fill="#28225c" stroke-width="0"/>
      <path d="M102.144,93.678c.055-.096.128-.171.222-.227.094-.055.194-.083.303-.083.11,0,.214.028.309.083.096.056.171.131.227.227.056.095.083.198.083.31,0,.171-.061.315-.181.433-.121.117-.267.176-.438.176-.169,0-.312-.059-.429-.176s-.176-.262-.176-.433c0-.111.026-.215.08-.31Z" fill="#28225c" stroke-width="0"/>
      <path d="M105.822,91.994v3.44h-.461v-3.44h.461Z" fill="#28225c" stroke-width="0"/>
      <path d="M111.276,91.884v3.55h-.457v-2.228l-1.266,1.795h-.01l-1.242-1.732v2.165h-.447v-3.55h.005l1.694,2.398,1.718-2.398h.005Z" fill="#28225c" stroke-width="0"/>
      <path d="M115.108,92.274c.211.188.317.449.317.785,0,.194-.039.375-.117.543s-.203.305-.376.409-.391.157-.654.157h-.509v1.266h-.462v-3.44h.923c.375,0,.667.094.878.28ZM114.681,93.617c.103-.07.177-.155.221-.255.045-.101.067-.197.067-.293,0-.165-.055-.312-.162-.44-.107-.128-.276-.192-.505-.192h-.532v1.285h.509c.165,0,.299-.035.402-.104Z" fill="#28225c" stroke-width="0"/>
      <path d="M119.075,95.434l-.809-1.271c-.025.003-.063.005-.114.005h-.51v1.266h-.461v-3.44h.918c.234,0,.444.041.628.124.185.082.329.203.434.363s.157.354.157.578c0,.213-.047.408-.141.586s-.237.312-.431.404l.866,1.385h-.538ZM118.678,93.526c.109-.13.164-.279.164-.447,0-.102-.022-.201-.068-.3-.047-.099-.119-.18-.22-.245-.1-.065-.226-.098-.378-.098h-.533v1.285h.5c.247,0,.426-.065.535-.195Z" fill="#28225c" stroke-width="0"/>
      <path d="M123.601,91.994v.442h-1.774v1.047h1.584v.442h-1.584v1.062h1.842v.447h-2.304v-3.44h2.236Z" fill="#28225c" stroke-width="0"/>
      <path d="M126.899,92.446c-.14-.041-.271-.062-.396-.062-.188,0-.335.043-.444.127-.11.084-.165.198-.165.345,0,.143.064.259.193.35.128.091.312.18.55.269.177.063.327.133.449.207.122.075.224.178.305.31s.121.299.121.502c0,.185-.046.351-.138.5s-.223.267-.393.352c-.17.086-.369.129-.598.129-.212,0-.417-.034-.613-.103-.197-.068-.37-.154-.519-.259l.204-.367c.117.089.259.165.424.227s.318.093.461.093c.185,0,.346-.048.483-.143.138-.096.207-.236.207-.424,0-.158-.058-.285-.174-.378-.115-.094-.278-.182-.487-.265-.194-.073-.354-.145-.483-.214-.128-.07-.238-.166-.331-.288-.092-.122-.138-.275-.138-.459,0-.27.095-.488.283-.654.188-.167.434-.255.735-.265.371,0,.715.093,1.032.276l-.176.356c-.124-.066-.255-.12-.395-.161Z" fill="#28225c" stroke-width="0"/>
      <path d="M130.711,92.446c-.14-.041-.271-.062-.396-.062-.188,0-.335.043-.444.127-.11.084-.165.198-.165.345,0,.143.064.259.193.35.128.091.312.18.55.269.177.063.327.133.449.207.122.075.224.178.305.31s.121.299.121.502c0,.185-.046.351-.138.5s-.223.267-.393.352c-.17.086-.369.129-.598.129-.212,0-.417-.034-.613-.103-.197-.068-.37-.154-.519-.259l.204-.367c.117.089.259.165.424.227s.318.093.461.093c.185,0,.346-.048.483-.143.138-.096.207-.236.207-.424,0-.158-.058-.285-.174-.378-.115-.094-.278-.182-.487-.265-.194-.073-.354-.145-.483-.214-.128-.07-.238-.166-.331-.288-.092-.122-.138-.275-.138-.459,0-.27.095-.488.283-.654.188-.167.434-.255.735-.265.371,0,.715.093,1.032.276l-.176.356c-.124-.066-.255-.12-.395-.161Z" fill="#28225c" stroke-width="0"/>
      <path d="M133.599,91.994v3.44h-.461v-3.44h.461Z" fill="#28225c" stroke-width="0"/>
      <path d="M135.654,92.84c.159-.27.372-.484.641-.645.268-.16.561-.24.878-.24.314,0,.605.08.876.24.27.16.484.375.645.645s.24.562.24.876c0,.317-.079.61-.238.88-.158.271-.373.483-.645.641s-.563.235-.878.235c-.317,0-.611-.078-.881-.233s-.482-.367-.64-.635c-.157-.269-.235-.564-.235-.888,0-.314.079-.606.237-.876ZM136.063,94.372c.114.2.271.358.469.477.198.117.415.176.65.176s.449-.058.645-.174c.195-.115.349-.274.462-.476.112-.202.169-.422.169-.659s-.058-.459-.172-.662c-.114-.202-.27-.362-.466-.48-.197-.117-.413-.176-.647-.176s-.45.06-.647.179c-.196.119-.352.28-.464.482-.112.203-.169.424-.169.662,0,.234.058.452.171.651Z" fill="#28225c" stroke-width="0"/>
      <path d="M143.75,91.994v3.555h-.015l-2.527-2.565.01,2.451h-.466v-3.545h.023l2.522,2.593-.01-2.488h.462Z" fill="#28225c" stroke-width="0"/>
      <path d="M150.359,91.994v.442h-.924v2.998h-.461v-2.998h-.899v-.442h2.284Z" fill="#28225c" stroke-width="0"/>
      <path d="M152.016,92.84c.158-.27.372-.484.64-.645.269-.16.562-.24.878-.24.314,0,.606.08.876.24s.484.375.645.645.24.562.24.876c0,.317-.079.61-.237.88-.159.271-.374.483-.646.641-.271.157-.563.235-.878.235-.316,0-.61-.078-.88-.233s-.483-.367-.641-.635c-.156-.269-.235-.564-.235-.888,0-.314.079-.606.238-.876ZM152.425,94.372c.114.2.271.358.469.477.198.117.415.176.649.176s.45-.058.645-.174c.195-.115.35-.274.462-.476.112-.202.169-.422.169-.659s-.057-.459-.171-.662c-.114-.202-.27-.362-.467-.48-.196-.117-.412-.176-.647-.176s-.45.06-.646.179c-.197.119-.352.28-.464.482-.113.203-.169.424-.169.662,0,.234.057.452.171.651Z" fill="#28225c" stroke-width="0"/>
      <path d="M157.64,94.627c.073.122.173.219.298.29s.264.107.416.107c.159,0,.303-.035.431-.104.129-.07.229-.167.303-.291.073-.123.109-.262.109-.413v-2.223h.452v2.236c0,.244-.058.461-.172.649-.114.189-.27.335-.466.438-.197.103-.416.154-.657.154-.237,0-.455-.052-.651-.154-.197-.104-.352-.249-.464-.438-.113-.188-.169-.405-.169-.649v-2.236h.461v2.223c0,.151.037.289.109.411Z" fill="#28225c" stroke-width="0"/>
      <path d="M163.022,92.446c-.14-.041-.271-.062-.395-.062-.188,0-.336.043-.445.127s-.164.198-.164.345c0,.143.064.259.192.35.129.091.312.18.55.269.178.063.327.133.45.207.122.075.224.178.304.31.081.132.122.299.122.502,0,.185-.046.351-.139.5-.092.149-.223.267-.393.352-.169.086-.368.129-.597.129-.213,0-.417-.034-.614-.103-.196-.068-.369-.154-.519-.259l.205-.367c.117.089.258.165.423.227s.319.093.462.093c.184,0,.345-.048.483-.143.138-.096.207-.236.207-.424,0-.158-.059-.285-.174-.378-.116-.094-.278-.182-.488-.265-.193-.073-.354-.145-.482-.214-.129-.07-.239-.166-.331-.288s-.138-.275-.138-.459c0-.27.094-.488.283-.654.188-.167.434-.255.734-.265.371,0,.716.093,1.033.276l-.176.356c-.124-.066-.256-.12-.396-.161Z" fill="#28225c" stroke-width="0"/>
      <path d="M169.38,92.446c-.14-.041-.271-.062-.395-.062-.188,0-.336.043-.445.127s-.164.198-.164.345c0,.143.064.259.192.35.129.091.312.18.55.269.178.063.327.133.45.207.122.075.224.178.304.31.081.132.122.299.122.502,0,.185-.046.351-.139.5-.092.149-.223.267-.393.352-.169.086-.368.129-.597.129-.213,0-.417-.034-.614-.103-.196-.068-.369-.154-.519-.259l.205-.367c.117.089.258.165.423.227s.319.093.462.093c.184,0,.345-.048.483-.143.138-.096.207-.236.207-.424,0-.158-.059-.285-.174-.378-.116-.094-.278-.182-.488-.265-.193-.073-.354-.145-.482-.214-.129-.07-.239-.166-.331-.288s-.138-.275-.138-.459c0-.27.094-.488.283-.654.188-.167.434-.255.734-.265.371,0,.716.093,1.033.276l-.176.356c-.124-.066-.256-.12-.396-.161Z" fill="#28225c" stroke-width="0"/>
      <path d="M172.335,94.627c.073.122.172.219.298.29.125.071.264.107.416.107.158,0,.302-.035.431-.104.128-.07.229-.167.302-.291.073-.123.109-.262.109-.413v-2.223h.452v2.236c0,.244-.057.461-.171.649-.114.189-.27.335-.467.438-.196.103-.415.154-.656.154-.238,0-.455-.052-.652-.154-.196-.104-.352-.249-.464-.438-.112-.188-.169-.405-.169-.649v-2.236h.462v2.223c0,.151.036.289.109.411Z" fill="#28225c" stroke-width="0"/>
      <path d="M178.134,92.274c.211.188.316.449.316.785,0,.194-.039.375-.116.543-.078.168-.203.305-.376.409s-.392.157-.654.157h-.51v1.266h-.461v-3.44h.923c.374,0,.667.094.878.28ZM177.705,93.617c.104-.07.177-.155.222-.255.044-.101.066-.197.066-.293,0-.165-.054-.312-.161-.44-.108-.128-.276-.192-.505-.192h-.533v1.285h.51c.165,0,.299-.035.401-.104Z" fill="#28225c" stroke-width="0"/>
      <path d="M182.007,92.274c.211.188.317.449.317.785,0,.194-.039.375-.117.543s-.203.305-.376.409-.391.157-.654.157h-.509v1.266h-.462v-3.44h.923c.375,0,.667.094.878.28ZM181.579,93.617c.103-.07.177-.155.221-.255.045-.101.067-.197.067-.293,0-.165-.055-.312-.162-.44-.107-.128-.276-.192-.505-.192h-.532v1.285h.509c.165,0,.299-.035.402-.104Z" fill="#28225c" stroke-width="0"/>
      <path d="M184.104,92.84c.158-.27.372-.484.64-.645.269-.16.562-.24.878-.24.314,0,.606.08.876.24s.484.375.645.645.24.562.24.876c0,.317-.079.61-.237.88-.159.271-.374.483-.646.641-.271.157-.563.235-.878.235-.316,0-.61-.078-.88-.233s-.483-.367-.641-.635c-.156-.269-.235-.564-.235-.888,0-.314.079-.606.238-.876ZM184.513,94.372c.114.2.271.358.469.477.198.117.415.176.649.176s.45-.058.645-.174c.195-.115.35-.274.462-.476.112-.202.169-.422.169-.659s-.057-.459-.171-.662c-.114-.202-.27-.362-.467-.48-.196-.117-.412-.176-.647-.176s-.45.06-.646.179c-.197.119-.352.28-.464.482-.113.203-.169.424-.169.662,0,.234.057.452.171.651Z" fill="#28225c" stroke-width="0"/>
      <path d="M191.094,95.434l-.809-1.271c-.025.003-.063.005-.114.005h-.509v1.266h-.462v-3.44h.919c.234,0,.443.041.628.124.184.082.328.203.433.363s.157.354.157.578c0,.213-.047.408-.141.586s-.237.312-.431.404l.866,1.385h-.538ZM190.697,93.526c.109-.13.164-.279.164-.447,0-.102-.023-.201-.069-.3s-.119-.18-.219-.245-.227-.098-.379-.098h-.532v1.285h.499c.248,0,.427-.065.536-.195Z" fill="#28225c" stroke-width="0"/>
      <path d="M195.367,91.994v.442h-.923v2.998h-.462v-2.998h-.899v-.442h2.284Z" fill="#28225c" stroke-width="0"/>
      <path d="M198.532,92.446c-.14-.041-.271-.062-.396-.062-.188,0-.335.043-.444.127-.11.084-.165.198-.165.345,0,.143.064.259.193.35.128.091.312.18.55.269.177.063.327.133.449.207.122.075.224.178.305.31s.121.299.121.502c0,.185-.046.351-.138.5s-.223.267-.393.352c-.17.086-.369.129-.598.129-.212,0-.417-.034-.613-.103-.197-.068-.37-.154-.519-.259l.204-.367c.117.089.259.165.424.227s.318.093.461.093c.185,0,.346-.048.483-.143.138-.096.207-.236.207-.424,0-.158-.058-.285-.174-.378-.115-.094-.278-.182-.487-.265-.194-.073-.354-.145-.483-.214-.128-.07-.238-.166-.331-.288-.092-.122-.138-.275-.138-.459,0-.27.095-.488.283-.654.188-.167.434-.255.735-.265.371,0,.715.093,1.032.276l-.176.356c-.124-.066-.255-.12-.395-.161Z" fill="#28225c" stroke-width="0"/>
    </g>
    <g>
      <path d="M203.332,71.941v.848c-.009.061-.021.121-.027.182-.063.618-.089,1.242-.192,1.853-.62,3.679-2.355,6.742-5.166,9.187-2.313,2.012-4.989,3.233-8.05,3.572-.291.032-.583.061-.874.092h-1.661c-.054-.011-.109-.027-.163-.031-2.848-.187-5.454-1.082-7.765-2.754-3.664-2.651-5.83-6.219-6.422-10.72-.035-.267-.063-.536-.094-.804,0-.667,0-1.334,0-2.001.011-.06.024-.121.033-.181.12-.781.202-1.569.366-2.341.3-1.417.834-2.753,1.534-4.022.054-.098.055-.156-.023-.247-.279-.326-.545-.663-.815-.998-.062-.077-.119-.158-.189-.251.072,0,.116-.003.16,0,.485.034.97.057,1.453.109.233.025.358-.052.493-.241,1.328-1.85,2.991-3.331,4.977-4.446.136-.077.194-.165.225-.319.071-.351.176-.695.267-1.042h.063c.074.14.148.28.237.448.147-.442.365-.806.682-1.106.315-.298.683-.497,1.124-.609-.365.488-.416,1.085-.145,1.549.577-.167,1.154-.333,1.731-.499-.25-1.032-1.332-1.772-2.488-1.689.054-.041.092-.073.133-.099,1.277-.835,2.699-1.147,4.203-1.156.675-.004,1.25.226,1.675.772.008.01.028.012.051.022.196-.398.14-.789.004-1.184.933.887,1.456,1.917,1.131,3.227.031.02.04.029.05.031.582.113,1.163.227,1.746.334.042.008.112-.021.138-.056.637-.861.381-1.836-.502-2.292-.057-.029-.115-.057-.173-.085.48-.042.921.064,1.335.286.41.22.742.537,1.055.897.029-.245.056-.462.082-.68.018,0,.037-.002.055-.003.288.611.576,1.222.864,1.833.018-.046.039-.101.069-.179.274.365.472.745.566,1.165.052.232.168.365.367.48,1.994,1.146,3.66,2.655,4.981,4.542.036.051.127.091.192.09.271-.007.541-.03.812-.049.3-.021.6-.043.942-.068-.345.428-.656.821-.978,1.206-.089.107-.098.183-.029.307,1.027,1.852,1.651,3.831,1.863,5.939.04.392.064.786.096,1.18ZM190.766,86.344c4.826-1.128,8.287-3.897,10.269-8.383,1.846-4.176,1.518-8.322-.55-12.374-.221.249-.437.496-.606.771-.168.273-.284.577-.43.864-.28.547-.726.9-1.322,1.02-.39.078-.795.081-1.193.115-.07.006-.14,0-.212,0,.008,2.291-.912,3.911-3.181,4.611.025.223.05.453.078.681.082.667-.005,1.278-.43,1.842-.338.449-.591.96-.888,1.441-.068.11-.064.214-.046.337.059.401.123.804.147,1.208.023.396-.135.734-.423,1.016-.105.103-.195.235-.251.371-.247.604-.548,1.176-.911,1.719-.055.082-.093.195-.092.293.009,1.249.028,2.497.043,3.746.003.225,0,.45,0,.721ZM182.649,72.943c-.207-.072-.405-.124-.589-.208-1.535-.7-2.334-1.918-2.494-3.576-.025-.262-.026-.527-.038-.798-.06-.004-.11-.008-.159-.01-.31-.013-.623-.005-.93-.042-.768-.093-1.362-.453-1.705-1.174-.114-.24-.216-.488-.358-.711-.186-.291-.407-.56-.625-.855-3.875,7.1-.959,16.368,6.76,19.755.015-.055.03-.109.042-.163.44-1.997.88-3.993,1.318-5.99.013-.059.025-.127.009-.182-.147-.525-.06-1.042.031-1.561.02-.117.014-.247-.017-.362-.191-.712-.614-1.305-1.014-1.906-.263-.396-.372-.816-.319-1.285.035-.308.059-.617.089-.933ZM189.455,59.053c-.102.494-.184.968-.304,1.431-.053.206-.164.406-.287.582-.111.159-.269.289-.416.42-.074.066-.166.129-.26.15-.476.11-.932.09-1.324-.253-.306-.268-.579-.555-.637-.985-.017-.128-.056-.254-.093-.378-.076-.252-.158-.502-.241-.762-.449.174-.859.014-1.282-.033.35.305.7.61,1.05.915-.011.013-.022.026-.033.039-1.23-.413-2.18-1.178-2.835-2.327.032,1.13.712,1.854,1.529,2.496-.015.018-.03.037-.045.055-.558-.257-1.117-.515-1.675-.772-.004.049.01.064.026.077.38.302.765.598,1.138.908.426.354.786.763,1.007,1.28.029.069.044.144.066.216-.015.01-.03.02-.045.031-.439-.581-.949-1.078-1.605-1.404.454.355.839.769,1.126,1.271.286.499.481,1.032.59,1.6-.423-.757-.985-1.399-1.588-2.011.178.724.335,1.445.318,2.194-.004.17-.055.291-.185.391-.451.349-.903.696-1.349,1.051-.196.156-.379.33-.598.522.399-.038.746-.078,1.093-.102,1.673-.114,3.213.226,4.534,1.325.077.064.206.088.311.09.445.007.891.006,1.336-.008.11-.003.228-.049.324-.106.401-.242.776-.532,1.193-.738,1.078-.534,2.239-.633,3.421-.561.285.017.57.052.854.078-.09-.137-.196-.251-.317-.346-.497-.39-.996-.779-1.501-1.159-.158-.119-.24-.261-.243-.457-.013-.752.043-1.491.406-2.173.011-.021.015-.046.022-.069-.652.598-1.172,1.291-1.589,2.064.251-.89.547-1.756,1.186-2.457-.182.167-.365.33-.534.507-.166.174-.318.362-.476.544.415-1.112,1.116-1.952,2.248-2.411-.071-.034-.134-.045-.191-.032-.657.15-1.237.454-1.747.892-.035.03-.073.058-.11.087l-.03-.033c.306-.468.714-.836,1.191-1.136l-.026-.037c-.141.06-.283.12-.46.195.486-.581.85-1.18.986-1.894-.476.597-.973,1.166-1.634,1.561-.654.391-1.402.513-2.121.727.385-.44.854-.755,1.358-1.03-.507.107-1.01.1-1.531-.023ZM190.71,74.42c-.13-.64-.257-1.241-.372-1.845-.039-.201-.091-.377-.294-.477-.078-.039-.138-.116-.203-.178-.556-.537-.882-1.207-1.113-1.932-.063-.199-.109-.404-.183-.598-.025-.064-.109-.139-.175-.148-.585-.082-.645-.04-.793.522-.006.022-.01.044-.016.066-.22.817-.565,1.58-1.225,2.124-.322.265-.456.557-.499.935-.003.028-.011.055-.016.083-.087.459-.173.918-.265,1.41.23-.206.412-.435.717-.464.228-.022.513.214.612.515-.058-.031-.105-.057-.153-.083-.299-.166-.484-.154-.738.08-.145.133-.282.28-.395.44-.75,1.068-1.164,2.259-1.297,3.555-.038.372.083.672.355.906.415.357.833.712,1.268,1.043.7.533,1.492.774,2.379.72.483-.029.936-.129,1.362-.361.686-.374,1.266-.882,1.838-1.408.318-.292.444-.622.392-1.042-.174-1.411-.659-2.692-1.578-3.793-.234-.281-.487-.326-.812-.154-.054.029-.108.058-.184.098.274-.575.654-.661,1.105-.275.089.076.173.16.283.262ZM199.207,63.53c-1.199-1.535-2.622-2.758-4.256-3.72-.108.096-.207.185-.324.289.085.023.141.038.225.061-.08.049-.142.085-.202.123-.821.523-1.424,1.215-1.565,2.206-.065.454-.026.922-.026,1.384,0,.05.048.111.09.149.31.28.626.554.936.834.063.058.11.073.19.031.235-.124.481-.226.711-.357.972-.555,2.029-.807,3.133-.898.352-.029.703-.065,1.088-.102ZM181.196,59.885c-1.105.529-3.813,2.923-4.1,3.661.417.041.832.079,1.246.124.905.098,1.781.287,2.591.731.305.167.638.286.962.416.053.021.15.006.194-.031.33-.275.654-.557.972-.845.052-.047.091-.129.101-.2.195-1.361-.515-2.712-1.746-3.333-.046-.023-.09-.053-.135-.079.004-.01.008-.021.011-.031.142.013.283.026.459.042-.194-.159-.364-.298-.555-.455ZM180.965,68.21c.009.012.018.024.026.037.117-.006.236,0,.35-.022.233-.045.462-.107.693-.158.182-.04.364-.078.548-.108.496-.079.937.061,1.346.338.322.218.638.449.978.637.404.223.79.09,1.024-.31.029-.049.057-.099.085-.148.023.008.045.016.068.024-.046.211-.063.434-.145.631-.121.292-.448.224-.714.324.128.154.24.288.379.454-.111-.038-.181-.062-.264-.09.017.103.031.19.043.265-.159-.175-.311-.347-.469-.513-.11-.116-.237-.125-.358-.017-.122.109-.25.214-.352.341-.276.342-.643.526-1.053.64-.323.09-.63.054-.893-.173-.389-.337-.621-.758-.642-1.279-.006-.149.025-.3.04-.458-.166.024-.211.145-.224.276-.057.561.112,1.054.493,1.462.422.45,1.027.538,1.603.26.134-.064.263-.137.395-.205-.427.499-.957.698-1.626.523.11.697.41,1.15,1.174,1.147-.005.021-.01.042-.015.062-.222.071-.444.142-.666.212,0,.018,0,.035,0,.053.047.019.093.049.142.056.462.066.924.072,1.382-.025,1.001-.212,1.727-.77,2.138-1.722.25-.579.364-1.185.398-1.81.028-.524-.149-.974-.485-1.369-.332-.39-.757-.637-1.232-.807-.946-.338-1.92-.395-2.908-.276-.22.027-.435.089-.653.134.002.015.003.03.005.045.651.109,1.297.234,1.877.571.584.339,1.017.834,1.442,1.38-.277-.022-.488-.121-.684-.261-.329-.234-.668-.458-1.077-.507-.284-.034-.576-.036-.861-.014-.403.031-.693-.142-.932-.439-.048-.059-.091-.123-.148-.201-.116.356.142.761-.227,1.039ZM194.629,66.656c0-.019,0-.038,0-.057-.056-.018-.111-.038-.167-.053-.842-.229-1.69-.193-2.537-.044-.636.112-1.236.322-1.752.725-.482.377-.786.867-.794,1.488-.009.749.142,1.471.485,2.145.275.541.646.993,1.194,1.279.708.369,1.459.45,2.239.33.042-.006.081-.036.163-.074-.249-.093-.45-.168-.651-.243.004-.017.008-.034.011-.051.318.013.597-.053.792-.33.175-.249.28-.517.289-.843-.34.091-.653.148-.971.017-.299-.122-.644-.388-.732-.585.074.05.142.101.214.144.525.313,1.07.431,1.607.057.571-.396.808-.967.759-1.657-.009-.121-.07-.206-.216-.231.114.637-.093,1.159-.517,1.606-.215.227-.48.339-.795.29-.512-.079-.965-.273-1.298-.692-.07-.088-.147-.172-.227-.252-.197-.198-.298-.204-.497,0-.161.165-.303.35-.463.537.018-.106.035-.207.053-.314-.083.013-.15.023-.233.035.135-.149.252-.277.382-.42-.272-.085-.558-.059-.702-.302-.127-.214-.144-.46-.104-.707.037.041.058.086.079.131.183.397.593.559.988.376.163-.075.315-.175.467-.273.28-.18.548-.379.835-.548.349-.205.735-.258,1.13-.177.381.078.756.187,1.138.263.147.029.304.005.46.005-.004-.047-.003-.059-.007-.069-.007-.015-.015-.032-.028-.042-.151-.114-.162-.265-.142-.439.017-.146.004-.295.004-.491-.055.069-.077.093-.096.121-.236.351-.554.536-.987.496-.123-.011-.249,0-.372-.012-.529-.049-1.007.09-1.446.379-.123.081-.242.17-.372.235-.157.078-.325.136-.524.217.819-1.218,1.931-1.845,3.339-1.969ZM181.601,65.265c-.02-.019-.045-.042-.069-.065-.602-.575-1.342-.864-2.148-.949-1.162-.123-2.33-.194-3.496-.285-.291-.023-.582-.035-.904-.054.162.207.295.403.454.576.711.775,1.309,1.625,1.788,2.563.173.338.463.565.819.701.47.18.965.162,1.456.177.028,0,.073-.047.083-.08.06-.203.008-.278-.223-.378-.055-.024-.133-.085-.135-.131-.011-.384-.01-.768,0-1.152.001-.047.062-.117.111-.135.115-.042.238-.06.358-.088.002-.01.005-.02.007-.03-.773-.276-1.547-.551-2.32-.827.005-.021.01-.043.015-.064.782.045,1.565.09,2.399.138-.229-.152-.41-.285-.603-.398-.189-.111-.39-.203-.6-.311.862-.148,2.201.435,2.656,1.149-.063.073-.128.148-.192.223.08.01.16.002.192-.042.122-.168.228-.347.352-.54ZM196.565,65.931c0,.011,0,.021,0,.032.099.022.197.048.297.065.129.021.179.09.176.22-.008.339-.007.678-.008,1.017,0,.105-.031.17-.141.217-.259.111-.27.156-.164.468.362-.036.733-.059,1.1-.112.452-.064.82-.29,1.081-.665.141-.203.263-.422.375-.643.251-.497.559-.953.922-1.376.306-.355.597-.723.894-1.086.034-.042.062-.088.118-.169-.268.016-.496.028-.725.045-1.172.087-2.345.163-3.515.27-.693.063-1.353.264-1.942.65-.172.113-.329.25-.488.372.13.179.239.335.356.485.043.056.104.098.157.146.012-.013.024-.026.035-.038-.006-.014-.009-.032-.019-.042-.172-.181-.173-.182-.001-.358.527-.543,1.177-.852,1.917-.967.203-.032.415-.005.61-.005-.373.229-.746.457-1.118.686.006.011.011.021.017.032.792-.045,1.583-.089,2.375-.134.003.019.006.038.009.057-.772.278-1.545.556-2.317.834ZM184.171,80.744c0,.075,0,.129,0,.183.011.83.018,1.66.038,2.49.004.162-.052.251-.193.314-.165.074-.324.16-.484.244-.043.023-.104.053-.115.092-.072.255-.132.514-.206.811.576-.288,1.11-.544,1.631-.825.146-.078.2-.045.255.076.278.605.555,1.211.835,1.815.04.087.03.147-.056.196-.085.048-.166.104-.292.185.442.054.833.102,1.256.154-.11-.245-.2-.45-.294-.655-.307-.673-.616-1.345-.922-2.018-.041-.089-.114-.195.068-.221.592-.085,1.185-.17,1.777-.259.149-.022.233.043.289.173.325.764.649,1.527.978,2.289.048.111.04.201-.023.302-.089.141-.167.29-.243.424.616.108,1.13-.158,1.643-.423.027-.014.063-.045.064-.068.005-.238.003-.476.003-.734-.287.146-.532.27-.794.403-.05-.102-.094-.179-.129-.261-.216-.497-.414-1.003-.65-1.49-.117-.242-.127-.431.072-.617.017-.016.023-.046.04-.084-.459-.128-.899-.274-1.351-.371-.416-.089-.809-.2-1.122-.505-.003-.003-.011,0-.025.002.01.104.022.209.029.314.011.169-.026.202-.18.144-.391-.147-.782-.294-1.167-.455-.068-.029-.138-.119-.155-.193-.056-.253-.114-.51-.124-.768-.013-.319-.2-.493-.454-.668ZM196.236,68.343c-.168-.015-.33-.031-.492-.042-.029-.002-.07.012-.089.033-.128.138-.251.279-.39.436.231.126.471.257.728.398-.269.276-.581.202-.888.142-.015.028-.028.047-.035.067-.151.45-.373.857-.708,1.201-.037.038-.047.122-.039.181.076.562-.137,1.028-.479,1.45-.06.074-.148.126-.223.188.009.012.018.024.027.037.703-.216,1.3-.599,1.763-1.178.678-.847.878-1.834.825-2.912ZM181.104,69.295c-.338.077-.658.153-.91-.137.254-.143.496-.278.735-.413-.133-.122-.252-.204-.334-.314-.073-.1-.143-.147-.264-.123-.06.012-.124.013-.186.012-.104-.001-.138.049-.131.148.021.321.013.646.06.962.205,1.359.915,2.344,2.192,2.894.073.032.153.047.273.083-.042-.058-.052-.077-.067-.091-.48-.438-.696-.973-.604-1.624.006-.039-.005-.095-.03-.122-.352-.358-.572-.793-.735-1.275ZM185.11,80.379c-.012.017-.023.033-.035.05.242.288.476.584.728.863.559.617,1.238.97,2.094.986.781.014,1.522-.074,2.101-.653.325-.325.603-.698.901-1.05.013-.016.015-.042.036-.109-1.991,1.58-3.922,1.482-5.825-.087ZM188.544,58.911c.007.003.013.005.02.008.018-.058.038-.116.053-.175.133-.514.271-1.026.395-1.542.1-.414.152-.834.079-1.259-.02-.116-.054-.23-.082-.345-.016.003-.031.006-.047.008-.022.27-.045.54-.071.856-.076-.202-.134-.355-.2-.528-.049.069-.077.107-.117.164-.177-.351-.296-.72-.633-.926-.323-.197-.676-.28-1.056-.207.022.024.047.035.073.043.685.195,1.116.656,1.305,1.324.11.388.166.795.207,1.198.047.458.05.921.072,1.381ZM185.07,74.812c.021-.001.043-.002.064-.003.182-.731.28-1.478.4-2.219-.328.115-.636.222-.942.332-.027.01-.067.041-.066.06.013.291-.022.599.064.869.107.337.315.642.48.962ZM191.131,74.744c.018-.002.036-.004.054-.006.072-.164.135-.334.219-.492.199-.375.259-.777.248-1.193-.001-.047-.025-.123-.057-.136-.298-.114-.6-.216-.926-.33.155.724.309,1.44.463,2.157ZM183.013,73.009c-.029.287-.049.551-.082.814-.047.374.035.714.237,1.033.329.519.651,1.043.977,1.565.008.012.025.018.04.028.108-.117.114-.229.032-.367-.255-.426-.485-.867-.752-1.285-.215-.336-.298-.685-.251-1.077.027-.222.032-.446.047-.68-.086-.01-.157-.019-.247-.029ZM192.894,73.038c.017.13.025.242.046.352.107.559.045,1.076-.276,1.57-.255.391-.446.823-.673,1.232-.079.142-.05.247.041.34.317-.528.635-1.047.941-1.573.089-.154.193-.327.201-.496.025-.475.004-.953,0-1.431-.073-.006-.101-.012-.128-.01-.044.002-.088.009-.152.016ZM184.113,58.625c0,.02,0,.04,0,.06.399.193.83.275,1.268.301.208.012.298-.138.236-.338-.038-.122-.086-.241-.135-.375-.467.12-.918.236-1.369.353ZM196.198,67.952c-.017-.108-.034-.185-.041-.262-.013-.147-.09-.192-.235-.19-.147.001-.294-.032-.441-.051-.011.122-.031.255-.029.388,0,.039.064.108.101.11.206.011.412.005.646.005ZM180.794,67.463c-.207.021-.381.034-.552.06-.046.007-.11.048-.122.087-.031.104-.039.215-.058.336.226,0,.426.003.627-.004.03-.001.08-.048.083-.077.015-.126.015-.254.022-.402ZM194.201,68.803c.003-.172-.121-.323-.272-.329-.125-.005-.187.061-.192.182-.007.17.145.35.296.351.14.001.157-.099.168-.204ZM182.529,68.513c-.047-.03-.119-.111-.199-.119-.152-.016-.303.172-.292.332.008.126.083.18.203.175.141-.006.294-.181.288-.388ZM189.574,58.383c.174-.026.334-.049.495-.073,0-.011,0-.023,0-.034-.153-.024-.306-.047-.465-.071-.011.065-.018.108-.029.179Z" fill="#b28935" stroke-width="0"/>
      <path d="M187.568,77.307c-.107-.139-.191-.236-.263-.341-.235-.344-.542-.557-.968-.605-.674-.077-.861-.805-.614-1.282.199-.385.612-.484.951-.213.138.111.267.248.359.399.331.54.558,1.119.563,1.765,0,.076-.015.152-.029.278Z" fill="#b28935" stroke-width="0"/>
      <path d="M188.59,77.257c.022-.244.023-.492.071-.73.093-.463.274-.897.545-1.284.111-.159.253-.307.41-.419.294-.209.64-.119.833.185.287.452.138,1.253-.557,1.343-.462.06-.796.287-1.041.671-.057.089-.13.168-.195.252-.022-.006-.044-.012-.067-.018Z" fill="#b28935" stroke-width="0"/>
    </g>
    <g id="zUKTvf">
      <path d="M196.551,65.939c0,.011,0,.021,0,.032.099.022.197.048.298.065.129.021.179.09.176.221-.008.339-.007.679-.008,1.018,0,.105-.031.171-.141.218-.259.111-.27.156-.164.469l-.005.408c.008,2.295-.914,3.917-3.186,4.618,0,0-2.3.27-3.273-.632l-.226-.24c-.078-.039-.138-.116-.203-.179-.557-.538-.884-1.209-1.115-1.935-.064-.199-.109-.405-.183-.599-.025-.064-.11-.139-.176-.148-.586-.083-.646-.04-.794.522-.006.022-.01.044-.016.066-.22.819-.566,1.583-1.226,2.127,0,0-.628.576-.803.637-.433.174-.521.225-.828.335-.027.01-.183.037-.182.057,0,0-1.02.086-1.268.057-.087-.01-.157-.019-.248-.029l-.364-.065c-.207-.072-.406-.124-.59-.208-1.537-.701-2.337-1.92-2.498-3.582-.025-.263-.026-.527-.038-.799l-.027-.432c.028,0,.073-.047.083-.08.06-.204.008-.278-.223-.379-.056-.024-.134-.085-.135-.131-.011-.384-.01-.769,0-1.154.001-.047.062-.117.111-.135.115-.042.239-.06.359-.088.282-.063.55-.089.55-.089l1.26-.122c.4-.038.747-.078,1.095-.102,1.675-.115,3.218.226,4.541,1.327.077.064.206.088.312.09.446.007.892.006,1.338-.008.11-.003.229-.049.324-.106.401-.242.777-.533,1.195-.74,1.08-.535,2.242-.634,3.427-.561.286.018.571.052.856.078l1.999.23M180.757,67.473,182.897,72.488c.462.066.926.072,1.384-.025,1.003-.213,1.73-.771,2.141-1.725.25-.58.365-1.186.398-1.813.028-.525-.149-.975-.486-1.371-.333-.39-.758-.638-1.234-.808-.947-.338-1.922-.396-2.912-.276-.22.027-.436.089-.654.135,0,0-1.312.366-1.453,1.015-.023.106-.039.215-.058.337l-.047.521c.021.321.013.647.061.964.205,1.361.916,2.348,2.195,2.899.073.032.154.048.273.083.089.025.391.064.391.064ZM193.63,72.45c.704-.216,1.302-.6,1.766-1.18.679-.849.879-1.837.826-2.916l-.038-.391c-.017-.108-.034-.185-.041-.263-.089-.449-.96-.87-1.531-1.092-.056-.018-.111-.038-.168-.054-.843-.229-1.692-.194-2.541-.044-.637.112-1.238.322-1.754.726-.483.378-.787.868-.795,1.49-.009.75.143,1.473.485,2.148.275.542.647.994,1.196,1.281.709.37,1.461.45,2.242.33l.352-.036Z" fill="#df0a14" stroke-width="0"/>
    </g>
  </g>
  <rect y="0" width="522" height="150" fill="none" stroke-width="0"/>
</svg>