<?xml version="1.0" encoding="UTF-8"?>
<svg id="Calque_1" data-name="Calque 1" xmlns="http://www.w3.org/2000/svg" viewBox="0 0 522 151.55">
  <defs>
    <style>
      .cls-1 {
        fill: #b28937;
      }

      .cls-1, .cls-2, .cls-3, .cls-4, .cls-5, .cls-6, .cls-7 {
        stroke-width: 0px;
      }

      .cls-2 {
        fill: #272824;
      }

      .cls-3 {
        fill: #9e9e9e;
      }

      .cls-4 {
        fill: #df0a14;
      }

      .cls-8 {
        fill: none;
        stroke: #cbab6c;
        stroke-miterlimit: 10;
        stroke-width: .33px;
      }

      .cls-5 {
        fill: #b28935;
      }

      .cls-6 {
        fill: #1d1d1b;
      }

      .cls-7 {
        fill: #28225c;
      }
    </style>
  </defs>
  <g>
    <rect class="cls-2" x="233.48" y=".51" width="2" height="150"/>
    <g>
      <path class="cls-6" d="M250.27,20.19c.51.25.91.6,1.2,1.06.29.46.43.99.43,1.58,0,.63-.16,1.19-.48,1.67-.32.48-.75.85-1.29,1.11-.54.26-1.15.39-1.82.39-1.34,0-2.39-.42-3.13-1.26-.74-.84-1.11-2.04-1.11-3.61,0-1.1.2-2.04.6-2.82.4-.78.96-1.37,1.69-1.78.72-.41,1.56-.61,2.51-.61.5,0,.98.05,1.42.16.44.11.83.26,1.15.47l-.67,1.37c-.49-.32-1.11-.48-1.86-.48-.94,0-1.68.29-2.21.87-.53.58-.8,1.41-.8,2.51h0c.29-.32.66-.58,1.11-.75s.95-.26,1.51-.26c.64,0,1.22.12,1.74.37ZM249.61,24.12c.35-.3.53-.71.53-1.21s-.18-.92-.53-1.22c-.35-.3-.83-.45-1.43-.45s-1.07.16-1.44.48-.55.72-.55,1.2.18.87.54,1.18c.36.31.86.47,1.49.47.57,0,1.03-.15,1.39-.46Z"/>
      <path class="cls-6" d="M256.25,16.07v9.8h-1.82v-8.27h-2.07v-1.53h3.89Z"/>
      <path class="cls-6" d="M264.38,20.19c.51.25.91.6,1.2,1.06.29.46.43.99.43,1.58,0,.63-.16,1.19-.48,1.67-.32.48-.75.85-1.29,1.11-.54.26-1.15.39-1.82.39-1.34,0-2.39-.42-3.13-1.26-.74-.84-1.11-2.04-1.11-3.61,0-1.1.2-2.04.6-2.82s.96-1.37,1.69-1.78,1.56-.61,2.51-.61c.5,0,.98.05,1.42.16.44.11.83.26,1.15.47l-.67,1.37c-.49-.32-1.11-.48-1.86-.48-.94,0-1.68.29-2.21.87-.53.58-.8,1.41-.8,2.51h0c.29-.32.66-.58,1.11-.75s.95-.26,1.51-.26c.64,0,1.22.12,1.74.37ZM263.72,24.12c.35-.3.53-.71.53-1.21s-.18-.92-.53-1.22-.83-.45-1.43-.45-1.07.16-1.44.48-.55.72-.55,1.2.18.87.54,1.18.86.47,1.49.47c.57,0,1.03-.15,1.39-.46Z"/>
      <path class="cls-6" d="M271.54,16.07h4.28c1.05,0,1.97.2,2.79.61.81.41,1.44.98,1.89,1.72.45.74.67,1.6.67,2.57s-.22,1.83-.67,2.57c-.45.74-1.08,1.32-1.89,1.72-.81.41-1.74.61-2.79.61h-4.28v-9.8ZM275.74,24.33c.72,0,1.35-.14,1.9-.41s.97-.67,1.26-1.18.44-1.1.44-1.77-.15-1.26-.44-1.77-.71-.9-1.26-1.18-1.18-.41-1.9-.41h-2.38v6.72h2.38Z"/>
      <path class="cls-6" d="M283.02,16.86c-.21-.2-.32-.45-.32-.75s.11-.55.32-.75c.21-.2.48-.3.8-.3s.58.1.8.29c.21.19.32.43.32.72,0,.31-.1.57-.31.78s-.48.32-.81.32-.58-.1-.8-.3ZM282.93,18.39h1.75v7.48h-1.75v-7.48Z"/>
      <path class="cls-6" d="M288.91,18v.45h2.06v1.4h-2v6.02h-1.75v-6.02h-1.23v-1.4h1.23v-.48c0-.8.23-1.43.7-1.9s1.12-.69,1.97-.69c.67,0,1.2.14,1.58.41l-.49,1.32c-.3-.21-.62-.31-.97-.31-.74,0-1.11.4-1.11,1.2Z"/>
      <path class="cls-6" d="M297.59,18.31v1.67c-.15-.03-.28-.04-.41-.04-.68,0-1.21.2-1.6.59s-.57.97-.57,1.71v3.63h-1.75v-7.48h1.67v1.09c.5-.78,1.39-1.18,2.66-1.18Z"/>
      <path class="cls-6" d="M304.41,19.1c.58.53.88,1.32.88,2.39v4.38h-1.65v-.91c-.21.33-.52.58-.92.75-.4.17-.88.26-1.43.26s-1.05-.1-1.47-.29c-.42-.19-.74-.46-.97-.8-.23-.34-.34-.73-.34-1.15,0-.67.25-1.21.75-1.62.5-.41,1.29-.61,2.36-.61h1.93v-.11c0-.52-.16-.92-.47-1.2-.31-.28-.78-.42-1.39-.42-.42,0-.83.06-1.24.2s-.75.31-1.03.55l-.69-1.27c.39-.3.86-.53,1.41-.69.55-.16,1.13-.24,1.75-.24,1.1,0,1.94.26,2.53.79ZM302.82,24.39c.34-.2.58-.49.72-.86v-.87h-1.81c-1.01,0-1.51.33-1.51.99,0,.32.13.57.38.76s.6.28,1.05.28.83-.1,1.17-.3Z"/>
      <path class="cls-6" d="M314.04,19.13c.57.55.85,1.37.85,2.45v4.28h-1.75v-4.06c0-.65-.15-1.15-.46-1.48s-.75-.5-1.32-.5c-.64,0-1.15.19-1.53.58-.37.39-.56.95-.56,1.67v3.78h-1.75v-7.48h1.67v.97c.29-.35.65-.61,1.09-.78.44-.18.93-.27,1.48-.27.94,0,1.7.28,2.27.83Z"/>
      <path class="cls-6" d="M318.53,25.48c-.62-.33-1.1-.78-1.44-1.37-.35-.58-.52-1.24-.52-1.98s.17-1.39.52-1.97c.35-.58.82-1.03,1.44-1.36.61-.33,1.31-.49,2.09-.49.74,0,1.38.15,1.94.45.56.3.97.73,1.25,1.29l-1.34.78c-.21-.34-.48-.6-.8-.78-.32-.17-.67-.26-1.06-.26-.65,0-1.19.21-1.62.64-.43.42-.64.99-.64,1.7s.21,1.28.64,1.7.97.64,1.63.64c.38,0,.74-.09,1.06-.26.32-.17.59-.43.8-.78l1.34.78c-.29.56-.71.99-1.27,1.29-.56.3-1.2.46-1.93.46-.77,0-1.47-.16-2.09-.49Z"/>
      <path class="cls-6" d="M326.53,25.48c-.61-.33-1.08-.78-1.42-1.37s-.51-1.24-.51-1.98.17-1.39.51-1.97.81-1.03,1.42-1.36c.61-.33,1.29-.49,2.04-.49s1.45.16,2.06.49c.61.33,1.08.78,1.42,1.36s.51,1.24.51,1.97-.17,1.4-.51,1.98-.81,1.04-1.42,1.37c-.61.33-1.29.49-2.06.49s-1.44-.16-2.04-.49ZM330.17,23.82c.42-.43.63-.99.63-1.69s-.21-1.26-.63-1.69c-.42-.43-.95-.64-1.6-.64s-1.17.21-1.59.64c-.42.43-.62.99-.62,1.69s.21,1.26.62,1.69c.42.43.95.64,1.59.64s1.18-.21,1.6-.64Z"/>
      <path class="cls-6" d="M337.73,21.25h3.85v1.46h-3.85v-1.46Z"/>
      <path class="cls-6" d="M353.57,24.82v1.04h-6.1v-8.4h5.93v1.04h-4.73v2.58h4.21v1.02h-4.21v2.71h4.9Z"/>
      <path class="cls-6" d="M360.66,20.15c.48.47.71,1.15.71,2.06v3.66h-1.15v-3.53c0-.62-.15-1.08-.44-1.39-.3-.31-.72-.47-1.27-.47-.62,0-1.12.18-1.48.55-.36.36-.54.89-.54,1.57v3.28h-1.15v-6.36h1.1v.96c.23-.33.55-.58.94-.76.4-.18.85-.26,1.35-.26.81,0,1.45.23,1.93.7Z"/>
      <path class="cls-6" d="M363.84,25.73c-.48-.14-.86-.32-1.13-.53l.48-.91c.28.2.62.36,1.02.48.4.12.8.18,1.21.18,1.01,0,1.51-.29,1.51-.86,0-.19-.07-.34-.2-.46-.14-.11-.31-.19-.51-.25-.2-.05-.49-.11-.87-.17-.51-.08-.93-.17-1.25-.28-.32-.1-.6-.28-.83-.53s-.35-.6-.35-1.04c0-.58.24-1.04.72-1.39.48-.35,1.12-.52,1.93-.52.42,0,.85.05,1.27.16.42.1.77.24,1.04.42l-.49.91c-.52-.34-1.13-.5-1.84-.5-.49,0-.86.08-1.12.24-.26.16-.38.37-.38.64,0,.21.07.37.22.49s.32.21.53.26c.21.06.51.12.89.19.51.09.93.18,1.24.28.32.1.59.27.81.51.22.24.34.58.34,1.01,0,.58-.25,1.03-.74,1.37-.49.34-1.16.51-2.01.51-.52,0-1.02-.07-1.5-.21Z"/>
      <path class="cls-6" d="M375.25,23.07h-5.16c.07.56.32,1.01.74,1.35.42.34.94.51,1.57.51.76,0,1.37-.26,1.84-.77l.64.74c-.29.34-.65.59-1.07.77-.43.18-.91.26-1.43.26-.67,0-1.27-.14-1.79-.41-.52-.28-.92-.66-1.21-1.16-.28-.5-.43-1.06-.43-1.68s.14-1.17.41-1.67.66-.88,1.14-1.16c.48-.28,1.03-.41,1.64-.41s1.15.14,1.63.41c.48.28.85.66,1.12,1.16s.4,1.06.4,1.7c0,.09,0,.2-.02.35ZM370.74,20.92c-.37.34-.59.78-.65,1.32h4.08c-.06-.54-.28-.97-.65-1.31-.37-.34-.83-.51-1.39-.51s-1.01.17-1.39.5Z"/>
      <path class="cls-6" d="M376.89,18.07c-.15-.14-.22-.32-.22-.53s.07-.39.22-.53c.15-.15.33-.22.56-.22s.41.07.56.21c.15.14.22.31.22.52s-.07.4-.22.55c-.15.15-.33.22-.56.22s-.41-.07-.56-.22ZM376.87,19.51h1.15v6.36h-1.15v-6.36Z"/>
      <path class="cls-6" d="M386.3,19.51v5.5c0,1.11-.28,1.93-.83,2.47-.55.53-1.38.8-2.47.8-.6,0-1.17-.08-1.72-.25s-.98-.4-1.32-.7l.55-.89c.3.26.66.46,1.1.61.44.15.89.22,1.35.22.74,0,1.29-.18,1.65-.53.36-.35.53-.89.53-1.61v-.5c-.27.33-.61.57-1,.74s-.83.25-1.29.25c-.61,0-1.16-.13-1.65-.39-.49-.26-.88-.62-1.16-1.09s-.42-1-.42-1.6.14-1.13.42-1.6.67-.83,1.16-1.09,1.04-.38,1.65-.38c.48,0,.93.09,1.34.26.41.18.75.44,1.01.78v-.98h1.09ZM384.11,24.33c.33-.18.59-.42.78-.74.19-.32.28-.67.28-1.07,0-.62-.2-1.11-.61-1.49s-.93-.57-1.57-.57-1.18.19-1.58.57c-.41.38-.61.88-.61,1.49,0,.4.09.76.28,1.07.19.32.45.56.78.74.33.18.71.26,1.13.26s.79-.09,1.12-.26Z"/>
      <path class="cls-6" d="M393.82,20.15c.48.47.71,1.15.71,2.06v3.66h-1.15v-3.53c0-.62-.15-1.08-.44-1.39-.3-.31-.72-.47-1.27-.47-.62,0-1.12.18-1.48.55-.36.36-.54.89-.54,1.57v3.28h-1.15v-6.36h1.1v.96c.23-.33.55-.58.94-.76.4-.18.85-.26,1.35-.26.81,0,1.45.23,1.93.7Z"/>
      <path class="cls-6" d="M402.43,23.07h-5.16c.07.56.32,1.01.74,1.35.42.34.94.51,1.57.51.76,0,1.37-.26,1.84-.77l.64.74c-.29.34-.65.59-1.07.77-.43.18-.91.26-1.43.26-.67,0-1.27-.14-1.79-.41-.52-.28-.92-.66-1.21-1.16-.28-.5-.43-1.06-.43-1.68s.14-1.17.41-1.67.66-.88,1.14-1.16c.48-.28,1.03-.41,1.64-.41s1.15.14,1.63.41c.48.28.85.66,1.12,1.16s.4,1.06.4,1.7c0,.09,0,.2-.02.35ZM397.92,20.92c-.37.34-.59.78-.65,1.32h4.08c-.06-.54-.28-.97-.65-1.31-.37-.34-.83-.51-1.39-.51s-1.01.17-1.39.5Z"/>
      <path class="cls-6" d="M406.87,22.08h3.23v1h-3.23v-1Z"/>
      <path class="cls-6" d="M415.43,25.73c-.48-.14-.86-.32-1.13-.53l.48-.91c.28.2.62.36,1.02.48.4.12.8.18,1.21.18,1.01,0,1.51-.29,1.51-.86,0-.19-.07-.34-.2-.46-.14-.11-.31-.19-.51-.25-.2-.05-.49-.11-.87-.17-.51-.08-.93-.17-1.25-.28-.32-.1-.6-.28-.83-.53-.23-.25-.35-.6-.35-1.04,0-.58.24-1.04.72-1.39.48-.35,1.12-.52,1.93-.52.42,0,.85.05,1.27.16.42.1.77.24,1.04.42l-.49.91c-.52-.34-1.13-.5-1.84-.5-.49,0-.86.08-1.12.24-.26.16-.38.37-.38.64,0,.21.07.37.22.49.14.12.32.21.53.26.21.06.51.12.89.19.51.09.93.18,1.24.28.32.1.59.27.81.51.22.24.34.58.34,1.01,0,.58-.25,1.03-.74,1.37-.49.34-1.16.51-2.01.51-.52,0-1.02-.07-1.5-.21Z"/>
      <path class="cls-6" d="M421.13,18.07c-.15-.14-.22-.32-.22-.53s.07-.39.22-.53.33-.22.56-.22.41.07.56.21.22.31.22.52-.07.4-.22.55c-.15.15-.33.22-.56.22s-.41-.07-.56-.22ZM421.11,19.51h1.15v6.36h-1.15v-6.36Z"/>
      <path class="cls-6" d="M430.54,19.51v5.5c0,1.11-.28,1.93-.83,2.47-.55.53-1.38.8-2.47.8-.6,0-1.17-.08-1.72-.25s-.98-.4-1.32-.7l.55-.89c.3.26.66.46,1.1.61s.89.22,1.35.22c.74,0,1.29-.18,1.65-.53.36-.35.53-.89.53-1.61v-.5c-.27.33-.61.57-1,.74-.4.16-.83.25-1.29.25-.61,0-1.16-.13-1.65-.39-.49-.26-.88-.62-1.16-1.09-.28-.47-.42-1-.42-1.6s.14-1.13.42-1.6c.28-.47.67-.83,1.16-1.09.49-.26,1.04-.38,1.65-.38.48,0,.93.09,1.34.26.41.18.75.44,1.01.78v-.98h1.09ZM428.35,24.33c.33-.18.59-.42.78-.74.19-.32.28-.67.28-1.07,0-.62-.2-1.11-.61-1.49-.41-.38-.93-.57-1.57-.57s-1.18.19-1.58.57-.61.88-.61,1.49c0,.4.09.76.28,1.07.19.32.45.56.78.74.33.18.71.26,1.13.26s.79-.09,1.12-.26Z"/>
      <path class="cls-6" d="M438.06,20.15c.48.47.71,1.15.71,2.06v3.66h-1.15v-3.53c0-.62-.15-1.08-.44-1.39-.3-.31-.72-.47-1.27-.47-.62,0-1.12.18-1.48.55s-.54.89-.54,1.57v3.28h-1.15v-6.36h1.1v.96c.23-.33.55-.58.94-.76.4-.18.85-.26,1.35-.26.81,0,1.45.23,1.93.7Z"/>
      <path class="cls-6" d="M445.25,20.1c.47.43.7,1.08.7,1.93v3.84h-1.09v-.84c-.19.3-.47.52-.82.68-.36.16-.78.23-1.27.23-.71,0-1.28-.17-1.71-.52-.43-.34-.64-.8-.64-1.36s.2-1.01.61-1.35c.41-.34,1.06-.51,1.94-.51h1.82v-.23c0-.5-.14-.88-.43-1.14-.29-.26-.71-.4-1.27-.4-.38,0-.74.06-1.1.19-.36.12-.66.29-.91.5l-.48-.86c.33-.26.72-.47,1.18-.61s.94-.21,1.45-.21c.88,0,1.55.22,2.02.65ZM444.1,24.76c.32-.2.55-.47.7-.83v-.89h-1.78c-.98,0-1.46.33-1.46.98,0,.32.12.57.37.76.25.18.59.28,1.03.28s.82-.1,1.14-.29Z"/>
      <path class="cls-6" d="M448.09,16.96h1.15v8.9h-1.15v-8.9Z"/>
      <path class="cls-6" d="M457.16,23.07h-5.16c.07.56.32,1.01.74,1.35.42.34.94.51,1.57.51.76,0,1.37-.26,1.84-.77l.64.74c-.29.34-.65.59-1.07.77-.43.18-.91.26-1.43.26-.67,0-1.27-.14-1.79-.41-.52-.28-.92-.66-1.21-1.16s-.43-1.06-.43-1.68.14-1.17.41-1.67c.28-.5.66-.88,1.14-1.16.48-.28,1.03-.41,1.64-.41s1.15.14,1.63.41c.48.28.85.66,1.12,1.16.27.5.4,1.06.4,1.7,0,.09,0,.2-.02.35ZM452.65,20.92c-.37.34-.59.78-.65,1.32h4.08c-.06-.54-.28-.97-.65-1.31-.37-.34-.83-.51-1.39-.51s-1.01.17-1.39.5ZM454.76,17.02h1.46l-2.02,1.56h-1.08l1.63-1.56Z"/>
      <path class="cls-6" d="M462.36,25.5c-.17.14-.38.25-.62.33s-.5.11-.77.11c-.64,0-1.14-.17-1.49-.52-.35-.34-.53-.84-.53-1.48v-3.49h-1.08v-.95h1.08v-1.39h1.15v1.39h1.82v.95h-1.82v3.44c0,.34.09.61.26.79.17.18.42.28.74.28.35,0,.65-.1.9-.3l.36.83Z"/>
      <path class="cls-6" d="M463.77,18.07c-.15-.14-.22-.32-.22-.53s.07-.39.22-.53c.15-.15.33-.22.56-.22s.41.07.56.21c.15.14.22.31.22.52s-.07.4-.22.55c-.15.15-.33.22-.56.22s-.41-.07-.56-.22ZM463.75,19.51h1.15v6.36h-1.15v-6.36Z"/>
      <path class="cls-6" d="M473.1,19.51v8.69h-1.15v-3.29c-.26.34-.59.59-.97.77-.38.18-.8.26-1.25.26-.62,0-1.17-.14-1.66-.41-.49-.27-.87-.65-1.15-1.15-.28-.49-.41-1.06-.41-1.7s.14-1.2.41-1.69c.28-.49.66-.87,1.15-1.14.49-.27,1.04-.41,1.66-.41.47,0,.9.09,1.3.27.39.18.72.45.97.8v-1.01h1.1ZM470.91,24.65c.33-.19.58-.45.77-.79.18-.34.28-.73.28-1.17s-.09-.83-.28-1.16c-.19-.34-.44-.6-.77-.79-.32-.19-.69-.28-1.09-.28s-.77.09-1.1.28c-.32.18-.58.45-.77.79s-.28.73-.28,1.17.09.83.28,1.17.44.6.77.79c.32.19.69.28,1.1.28s.76-.09,1.09-.28Z"/>
      <path class="cls-6" d="M481.21,19.51v6.36h-1.09v-.96c-.23.33-.54.58-.92.76-.38.18-.79.27-1.24.27-.85,0-1.52-.23-2-.7s-.73-1.16-.73-2.07v-3.66h1.15v3.53c0,.62.15,1.08.44,1.4.3.32.72.47,1.27.47.61,0,1.09-.18,1.44-.55s.53-.89.53-1.56v-3.29h1.15Z"/>
      <path class="cls-6" d="M489.13,23.07h-5.16c.07.56.32,1.01.74,1.35.42.34.94.51,1.57.51.76,0,1.37-.26,1.84-.77l.64.74c-.29.34-.65.59-1.07.77-.43.18-.91.26-1.43.26-.67,0-1.27-.14-1.79-.41-.52-.28-.92-.66-1.21-1.16-.28-.5-.43-1.06-.43-1.68s.14-1.17.41-1.67c.28-.5.66-.88,1.14-1.16.48-.28,1.03-.41,1.64-.41s1.15.14,1.63.41c.48.28.85.66,1.12,1.16s.4,1.06.4,1.7c0,.09,0,.2-.02.35ZM484.62,20.92c-.37.34-.59.78-.65,1.32h4.08c-.06-.54-.28-.97-.65-1.31-.37-.34-.83-.51-1.39-.51s-1.01.17-1.39.5Z"/>
      <path class="cls-6" d="M244.58,36.07c-.15-.14-.22-.32-.22-.53s.07-.39.22-.53c.15-.15.33-.22.56-.22s.41.07.56.21c.15.14.22.31.22.52s-.07.4-.22.55c-.15.15-.33.22-.56.22s-.41-.07-.56-.22ZM244.56,37.51h1.15v6.36h-1.15v-6.36Z"/>
      <path class="cls-6" d="M257.76,38.14c.47.46.7,1.15.7,2.06v3.66h-1.15v-3.53c0-.62-.14-1.08-.43-1.39-.28-.31-.69-.47-1.22-.47-.58,0-1.05.18-1.39.55-.34.36-.52.89-.52,1.57v3.28h-1.15v-3.53c0-.62-.14-1.08-.43-1.39-.28-.31-.69-.47-1.22-.47-.58,0-1.05.18-1.39.55-.34.36-.52.89-.52,1.57v3.28h-1.15v-6.36h1.1v.95c.23-.33.54-.58.91-.75s.8-.26,1.28-.26.94.1,1.32.3.68.49.89.88c.24-.37.57-.66,1-.86.43-.21.91-.31,1.45-.31.8,0,1.43.23,1.9.7Z"/>
      <path class="cls-6" d="M265.62,37.86c.49.27.87.65,1.15,1.14.28.49.41,1.05.41,1.69s-.14,1.21-.41,1.7c-.28.49-.66.88-1.15,1.15-.49.27-1.04.41-1.66.41-.46,0-.87-.09-1.25-.26-.38-.18-.7-.43-.97-.77v3.29h-1.15v-8.69h1.1v1.01c.26-.35.58-.62.97-.8.39-.18.82-.27,1.3-.27.62,0,1.17.14,1.66.41ZM264.96,42.65c.32-.19.58-.45.77-.79.19-.34.28-.73.28-1.17s-.09-.83-.28-1.17c-.19-.34-.44-.6-.77-.79-.32-.18-.69-.28-1.1-.28s-.76.09-1.09.28c-.32.19-.58.45-.77.79s-.28.72-.28,1.16.09.83.28,1.17c.18.34.44.6.77.79.33.19.69.28,1.09.28s.77-.09,1.1-.28Z"/>
      <path class="cls-6" d="M270.77,37.74c.39-.19.87-.29,1.43-.29v1.12c-.06,0-.15-.01-.26-.01-.62,0-1.11.19-1.47.56-.36.37-.53.9-.53,1.59v3.17h-1.15v-6.36h1.1v1.07c.2-.37.5-.65.89-.84Z"/>
      <path class="cls-6" d="M279.27,41.07h-5.16c.07.56.32,1.01.74,1.35.42.34.94.51,1.57.51.76,0,1.37-.26,1.84-.77l.64.74c-.29.34-.65.59-1.07.77-.43.18-.91.26-1.43.26-.67,0-1.27-.14-1.79-.41-.52-.28-.92-.66-1.21-1.16s-.43-1.06-.43-1.68.14-1.17.41-1.67c.28-.5.66-.88,1.14-1.16.48-.28,1.03-.41,1.64-.41s1.15.14,1.63.41c.48.28.85.66,1.12,1.16.27.5.4,1.06.4,1.7,0,.09,0,.2-.02.35ZM274.77,38.92c-.37.34-.59.78-.65,1.32h4.08c-.06-.54-.28-.97-.65-1.31-.37-.34-.83-.51-1.39-.51s-1.01.17-1.39.5Z"/>
      <path class="cls-6" d="M281.22,43.73c-.48-.14-.86-.32-1.13-.53l.48-.91c.28.2.62.36,1.02.48.4.12.8.18,1.21.18,1.01,0,1.51-.29,1.51-.86,0-.19-.07-.34-.2-.46-.14-.11-.31-.19-.51-.25-.2-.05-.49-.11-.87-.17-.51-.08-.93-.17-1.25-.28-.32-.1-.6-.28-.83-.53-.23-.25-.35-.6-.35-1.04,0-.58.24-1.04.72-1.39.48-.35,1.12-.52,1.93-.52.42,0,.85.05,1.27.16.42.1.77.24,1.04.42l-.49.91c-.52-.34-1.13-.5-1.84-.5-.49,0-.86.08-1.12.24-.26.16-.38.37-.38.64,0,.21.07.37.22.49.14.12.32.21.53.26.21.06.51.12.89.19.51.09.93.18,1.24.28.32.1.59.27.81.51.22.24.34.58.34,1.01,0,.58-.25,1.03-.74,1.37-.49.34-1.16.51-2.01.51-.52,0-1.02-.07-1.5-.21Z"/>
      <path class="cls-6" d="M287.23,43.73c-.48-.14-.86-.32-1.13-.53l.48-.91c.28.2.62.36,1.02.48.4.12.8.18,1.21.18,1.01,0,1.51-.29,1.51-.86,0-.19-.07-.34-.2-.46-.14-.11-.31-.19-.51-.25-.2-.05-.49-.11-.87-.17-.51-.08-.93-.17-1.25-.28-.32-.1-.6-.28-.83-.53s-.35-.6-.35-1.04c0-.58.24-1.04.72-1.39.48-.35,1.12-.52,1.93-.52.42,0,.85.05,1.27.16.42.1.77.24,1.04.42l-.49.91c-.52-.34-1.13-.5-1.84-.5-.49,0-.86.08-1.12.24-.26.16-.38.37-.38.64,0,.21.07.37.22.49s.32.21.53.26c.21.06.51.12.89.19.51.09.93.18,1.24.28.32.1.59.27.81.51.22.24.34.58.34,1.01,0,.58-.25,1.03-.74,1.37-.49.34-1.16.51-2.01.51-.52,0-1.02-.07-1.5-.21Z"/>
      <path class="cls-6" d="M292.93,36.07c-.15-.14-.22-.32-.22-.53s.07-.39.22-.53c.15-.15.33-.22.56-.22s.41.07.56.21c.15.14.22.31.22.52s-.07.4-.22.55c-.15.15-.33.22-.56.22s-.41-.07-.56-.22ZM292.92,37.51h1.15v6.36h-1.15v-6.36Z"/>
      <path class="cls-6" d="M297.28,43.52c-.5-.28-.9-.67-1.18-1.16-.28-.49-.43-1.05-.43-1.67s.14-1.18.43-1.67c.28-.49.68-.88,1.18-1.15.5-.28,1.07-.41,1.7-.41s1.2.14,1.7.41c.5.28.89.66,1.18,1.15.28.49.43,1.05.43,1.67s-.14,1.18-.43,1.67-.68.88-1.18,1.16c-.5.28-1.07.42-1.7.42s-1.2-.14-1.7-.42ZM300.09,42.65c.32-.19.58-.45.76-.79.18-.34.28-.73.28-1.17s-.09-.83-.28-1.17c-.18-.34-.44-.6-.76-.79-.32-.18-.69-.28-1.1-.28s-.77.09-1.1.28c-.32.18-.58.45-.77.79-.19.34-.28.73-.28,1.17s.09.83.28,1.17c.19.34.44.6.77.79.32.19.69.28,1.1.28s.77-.09,1.1-.28Z"/>
      <path class="cls-6" d="M309.21,38.15c.48.47.71,1.15.71,2.06v3.66h-1.15v-3.53c0-.62-.15-1.08-.44-1.39-.3-.31-.72-.47-1.27-.47-.62,0-1.12.18-1.48.55-.36.36-.54.89-.54,1.57v3.28h-1.15v-6.36h1.1v.96c.23-.33.55-.58.94-.76.4-.18.85-.26,1.35-.26.81,0,1.45.23,1.93.7Z"/>
      <path class="cls-6" d="M318.86,43.5c-.17.14-.38.25-.62.33s-.5.11-.77.11c-.64,0-1.14-.17-1.49-.52-.35-.34-.53-.84-.53-1.48v-3.49h-1.08v-.95h1.08v-1.39h1.15v1.39h1.82v.95h-1.82v3.44c0,.34.09.61.26.79.17.18.42.28.74.28.35,0,.65-.1.9-.3l.36.83Z"/>
      <path class="cls-6" d="M321.06,43.52c-.5-.28-.9-.67-1.18-1.16-.28-.49-.43-1.05-.43-1.67s.14-1.18.43-1.67c.28-.49.68-.88,1.18-1.15.5-.28,1.07-.41,1.7-.41s1.2.14,1.7.41c.5.28.89.66,1.18,1.15.28.49.43,1.05.43,1.67s-.14,1.18-.43,1.67-.68.88-1.18,1.16c-.5.28-1.07.42-1.7.42s-1.2-.14-1.7-.42ZM323.86,42.65c.32-.19.58-.45.76-.79.18-.34.28-.73.28-1.17s-.09-.83-.28-1.17c-.18-.34-.44-.6-.76-.79-.32-.18-.69-.28-1.1-.28s-.77.09-1.1.28c-.32.18-.58.45-.77.79-.19.34-.28.73-.28,1.17s.09.83.28,1.17c.19.34.44.6.77.79.32.19.69.28,1.1.28s.77-.09,1.1-.28Z"/>
      <path class="cls-6" d="M333.58,37.51v6.36h-1.09v-.96c-.23.33-.54.58-.92.76-.38.18-.79.27-1.24.27-.85,0-1.52-.23-2-.7s-.73-1.16-.73-2.07v-3.66h1.15v3.53c0,.62.15,1.08.44,1.4.3.32.72.47,1.27.47.61,0,1.09-.18,1.44-.55.35-.37.53-.89.53-1.56v-3.29h1.15Z"/>
      <path class="cls-6" d="M336.1,43.73c-.48-.14-.86-.32-1.13-.53l.48-.91c.28.2.62.36,1.02.48.4.12.8.18,1.21.18,1.01,0,1.51-.29,1.51-.86,0-.19-.07-.34-.2-.46-.14-.11-.31-.19-.51-.25-.2-.05-.49-.11-.87-.17-.51-.08-.93-.17-1.25-.28-.32-.1-.6-.28-.83-.53-.23-.25-.35-.6-.35-1.04,0-.58.24-1.04.72-1.39.48-.35,1.12-.52,1.93-.52.42,0,.85.05,1.27.16.42.1.77.24,1.04.42l-.49.91c-.52-.34-1.13-.5-1.84-.5-.49,0-.86.08-1.12.24-.26.16-.38.37-.38.64,0,.21.07.37.22.49.14.12.32.21.53.26.21.06.51.12.89.19.51.09.93.18,1.24.28.32.1.59.27.81.51.22.24.34.58.34,1.01,0,.58-.25,1.03-.74,1.37-.49.34-1.16.51-2.01.51-.52,0-1.02-.07-1.5-.21Z"/>
      <path class="cls-6" d="M345.34,43.73c-.48-.14-.86-.32-1.13-.53l.48-.91c.28.2.62.36,1.02.48.4.12.8.18,1.21.18,1.01,0,1.51-.29,1.51-.86,0-.19-.07-.34-.2-.46-.14-.11-.31-.19-.51-.25-.2-.05-.49-.11-.87-.17-.51-.08-.93-.17-1.25-.28-.32-.1-.6-.28-.83-.53s-.35-.6-.35-1.04c0-.58.24-1.04.72-1.39.48-.35,1.12-.52,1.93-.52.42,0,.85.05,1.27.16.42.1.77.24,1.04.42l-.49.91c-.52-.34-1.13-.5-1.84-.5-.49,0-.86.08-1.12.24-.26.16-.38.37-.38.64,0,.21.07.37.22.49s.32.21.53.26c.21.06.51.12.89.19.51.09.93.18,1.24.28.32.1.59.27.81.51.22.24.34.58.34,1.01,0,.58-.25,1.03-.74,1.37-.49.34-1.16.51-2.01.51-.52,0-1.02-.07-1.5-.21Z"/>
      <path class="cls-6" d="M356.96,37.51v6.36h-1.09v-.96c-.23.33-.54.58-.92.76-.38.18-.79.27-1.24.27-.85,0-1.52-.23-2-.7s-.73-1.16-.73-2.07v-3.66h1.15v3.53c0,.62.15,1.08.44,1.4.3.32.72.47,1.27.47.61,0,1.09-.18,1.44-.55s.53-.89.53-1.56v-3.29h1.15Z"/>
      <path class="cls-6" d="M364.18,37.86c.49.27.87.65,1.15,1.14.28.49.41,1.05.41,1.69s-.14,1.21-.41,1.7c-.28.49-.66.88-1.15,1.15-.49.27-1.04.41-1.66.41-.46,0-.87-.09-1.25-.26-.38-.18-.7-.43-.97-.77v3.29h-1.15v-8.69h1.1v1.01c.26-.35.58-.62.97-.8.39-.18.82-.27,1.3-.27.62,0,1.17.14,1.66.41ZM363.53,42.65c.32-.19.58-.45.77-.79.19-.34.28-.73.28-1.17s-.09-.83-.28-1.17c-.19-.34-.44-.6-.77-.79-.32-.18-.69-.28-1.1-.28s-.76.09-1.09.28c-.32.19-.58.45-.77.79s-.28.72-.28,1.16.09.83.28,1.17.44.6.77.79c.33.19.69.28,1.09.28s.77-.09,1.1-.28Z"/>
      <path class="cls-6" d="M372.37,37.86c.49.27.87.65,1.15,1.14.28.49.41,1.05.41,1.69s-.14,1.21-.41,1.7c-.28.49-.66.88-1.15,1.15-.49.27-1.04.41-1.66.41-.46,0-.87-.09-1.25-.26-.38-.18-.7-.43-.97-.77v3.29h-1.15v-8.69h1.1v1.01c.26-.35.58-.62.97-.8.39-.18.82-.27,1.3-.27.62,0,1.17.14,1.66.41ZM371.71,42.65c.32-.19.58-.45.77-.79s.28-.73.28-1.17-.09-.83-.28-1.17-.44-.6-.77-.79c-.32-.18-.69-.28-1.1-.28s-.76.09-1.09.28c-.32.19-.58.45-.77.79-.19.34-.28.72-.28,1.16s.09.83.28,1.17c.18.34.44.6.77.79.33.19.69.28,1.09.28s.77-.09,1.1-.28Z"/>
      <path class="cls-6" d="M376.54,43.52c-.5-.28-.9-.67-1.18-1.16s-.43-1.05-.43-1.67.14-1.18.43-1.67c.28-.49.68-.88,1.18-1.15.5-.28,1.07-.41,1.7-.41s1.2.14,1.7.41c.5.28.89.66,1.18,1.15.28.49.43,1.05.43,1.67s-.14,1.18-.43,1.67c-.28.49-.68.88-1.18,1.16-.5.28-1.07.42-1.7.42s-1.2-.14-1.7-.42ZM379.35,42.65c.32-.19.58-.45.76-.79.18-.34.28-.73.28-1.17s-.09-.83-.28-1.17c-.18-.34-.44-.6-.76-.79-.32-.18-.69-.28-1.1-.28s-.77.09-1.1.28c-.32.18-.58.45-.77.79s-.28.73-.28,1.17.09.83.28,1.17.44.6.77.79c.32.19.69.28,1.1.28s.77-.09,1.1-.28Z"/>
      <path class="cls-6" d="M385.14,37.74c.39-.19.87-.29,1.43-.29v1.12c-.06,0-.15-.01-.26-.01-.62,0-1.11.19-1.47.56s-.53.9-.53,1.59v3.17h-1.15v-6.36h1.1v1.07c.2-.37.5-.65.89-.84Z"/>
      <path class="cls-6" d="M391.82,43.5c-.17.14-.38.25-.62.33s-.5.11-.77.11c-.64,0-1.14-.17-1.49-.52-.35-.34-.53-.84-.53-1.48v-3.49h-1.08v-.95h1.08v-1.39h1.15v1.39h1.82v.95h-1.82v3.44c0,.34.09.61.26.79.17.18.42.28.74.28.35,0,.65-.1.9-.3l.36.83Z"/>
      <path class="cls-6" d="M393.54,43.73c-.48-.14-.86-.32-1.13-.53l.48-.91c.28.2.62.36,1.02.48.4.12.8.18,1.21.18,1.01,0,1.51-.29,1.51-.86,0-.19-.07-.34-.2-.46-.14-.11-.31-.19-.51-.25-.2-.05-.49-.11-.87-.17-.51-.08-.93-.17-1.25-.28-.32-.1-.6-.28-.83-.53-.23-.25-.35-.6-.35-1.04,0-.58.24-1.04.72-1.39.48-.35,1.12-.52,1.93-.52.42,0,.85.05,1.27.16.42.1.77.24,1.04.42l-.49.91c-.52-.34-1.13-.5-1.84-.5-.49,0-.86.08-1.12.24-.26.16-.38.37-.38.64,0,.21.07.37.22.49.14.12.32.21.53.26.21.06.51.12.89.19.51.09.93.18,1.24.28.32.1.59.27.81.51.22.24.34.58.34,1.01,0,.58-.25,1.03-.74,1.37-.49.34-1.16.51-2.01.51-.52,0-1.02-.07-1.5-.21Z"/>
      <path class="cls-6" d="M398.92,43.71c-.16-.16-.24-.35-.24-.59s.08-.43.24-.58.35-.23.58-.23.41.08.56.23c.15.15.23.35.23.59s-.08.44-.23.59-.34.23-.56.23-.42-.08-.58-.23Z"/>
      <path class="cls-6" d="M250.16,71.47v.82l-3.4,7.58h-1.27l3.32-7.36h-3.84v1.5h-1.15v-2.54h6.34Z"/>
      <path class="cls-6" d="M259.99,73.86c.49.27.87.65,1.15,1.14.28.49.41,1.05.41,1.69s-.14,1.21-.41,1.7c-.28.49-.66.88-1.15,1.15-.49.27-1.04.41-1.66.41-.47,0-.9-.09-1.3-.28-.39-.18-.72-.45-.97-.8v1.01h-1.1v-8.9h1.15v3.5c.26-.34.58-.59.96-.76.38-.17.8-.26,1.26-.26.62,0,1.17.14,1.66.41ZM259.34,78.65c.32-.19.58-.45.77-.79.19-.34.28-.73.28-1.17s-.09-.83-.28-1.17c-.19-.34-.44-.6-.77-.79-.32-.18-.69-.28-1.1-.28s-.76.09-1.09.28c-.33.18-.58.45-.77.79-.18.34-.28.73-.28,1.17s.09.83.28,1.17c.18.34.44.6.77.79.33.19.69.28,1.09.28s.77-.09,1.1-.28Z"/>
      <path class="cls-6" d="M263.16,72.07c-.15-.14-.22-.32-.22-.53s.07-.39.22-.53c.15-.15.33-.22.56-.22s.41.07.56.21c.15.14.22.31.22.52s-.07.4-.22.55c-.15.15-.33.22-.56.22s-.41-.07-.56-.22ZM263.15,73.51h1.15v6.36h-1.15v-6.36Z"/>
      <path class="cls-6" d="M266.82,79.73c-.48-.14-.86-.32-1.13-.53l.48-.91c.28.2.62.36,1.02.48.4.12.8.18,1.21.18,1.01,0,1.51-.29,1.51-.86,0-.19-.07-.34-.2-.46-.14-.11-.31-.19-.51-.25-.2-.05-.49-.11-.87-.17-.51-.08-.93-.17-1.25-.28-.32-.1-.6-.28-.83-.53s-.35-.6-.35-1.04c0-.58.24-1.04.72-1.39.48-.35,1.12-.52,1.93-.52.42,0,.85.05,1.27.16.42.1.77.24,1.04.42l-.49.91c-.52-.34-1.13-.5-1.84-.5-.49,0-.86.08-1.12.24-.26.16-.38.37-.38.64,0,.21.07.37.22.49s.32.21.53.26c.21.06.51.12.89.19.51.09.93.18,1.24.28.32.1.59.27.81.51.22.24.34.58.34,1.01,0,.58-.25,1.03-.74,1.37-.49.34-1.16.51-2.01.51-.52,0-1.02-.07-1.5-.21Z"/>
      <path class="cls-6" d="M281.52,79.87l-1.81-2.58c-.22.02-.4.02-.53.02h-2.08v2.56h-1.2v-8.4h3.28c1.09,0,1.94.26,2.57.78.62.52.94,1.24.94,2.15,0,.65-.16,1.2-.48,1.66s-.78.79-1.37,1l1.99,2.82h-1.31ZM280.88,75.8c.4-.33.6-.8.6-1.4s-.2-1.07-.6-1.4c-.4-.32-.98-.49-1.74-.49h-2.04v3.78h2.04c.76,0,1.34-.16,1.74-.49Z"/>
      <path class="cls-6" d="M290.39,73.51v6.36h-1.09v-.96c-.23.33-.54.58-.92.76-.38.18-.79.27-1.24.27-.85,0-1.52-.23-2-.7s-.73-1.16-.73-2.07v-3.66h1.15v3.53c0,.62.15,1.08.44,1.4.3.32.72.47,1.27.47.61,0,1.09-.18,1.44-.55s.53-.89.53-1.56v-3.29h1.15Z"/>
      <path class="cls-6" d="M298.3,77.07h-5.16c.07.56.32,1.01.74,1.35.42.34.94.51,1.57.51.76,0,1.37-.26,1.84-.77l.64.74c-.29.34-.65.59-1.07.77-.43.18-.91.26-1.43.26-.67,0-1.27-.14-1.79-.41-.52-.28-.92-.66-1.21-1.16-.28-.5-.43-1.06-.43-1.68s.14-1.17.41-1.67c.28-.5.66-.88,1.14-1.16.48-.28,1.03-.41,1.64-.41s1.15.14,1.63.41c.48.28.85.66,1.12,1.16s.4,1.06.4,1.7c0,.09,0,.2-.02.35ZM293.8,74.92c-.37.34-.59.78-.65,1.32h4.08c-.06-.54-.28-.97-.65-1.31-.37-.34-.83-.51-1.39-.51s-1.01.17-1.39.5Z"/>
      <path class="cls-6" d="M309.15,70.96v8.9h-1.1v-1.01c-.26.35-.58.62-.97.8-.39.18-.82.28-1.3.28-.62,0-1.17-.14-1.66-.41-.49-.27-.87-.65-1.15-1.15-.28-.49-.41-1.06-.41-1.7s.14-1.2.41-1.69c.28-.49.66-.87,1.15-1.14.49-.27,1.04-.41,1.66-.41.46,0,.88.09,1.26.26.38.17.7.43.96.76v-3.5h1.15ZM306.97,78.65c.33-.19.58-.45.77-.79.18-.34.28-.73.28-1.17s-.09-.83-.28-1.17c-.18-.34-.44-.6-.77-.79-.33-.18-.69-.28-1.09-.28s-.77.09-1.1.28c-.32.18-.58.45-.77.79s-.28.73-.28,1.17.09.83.28,1.17.44.6.77.79c.32.19.69.28,1.1.28s.76-.09,1.09-.28Z"/>
      <path class="cls-6" d="M317.06,77.07h-5.16c.07.56.32,1.01.74,1.35.42.34.94.51,1.57.51.76,0,1.37-.26,1.84-.77l.64.74c-.29.34-.65.59-1.07.77-.43.18-.91.26-1.43.26-.67,0-1.27-.14-1.79-.41-.52-.28-.92-.66-1.21-1.16-.28-.5-.43-1.06-.43-1.68s.14-1.17.41-1.67c.28-.5.66-.88,1.14-1.16.48-.28,1.03-.41,1.64-.41s1.15.14,1.63.41c.48.28.85.66,1.12,1.16s.4,1.06.4,1.7c0,.09,0,.2-.02.35ZM312.55,74.92c-.37.34-.59.78-.65,1.32h4.08c-.06-.54-.28-.97-.65-1.31-.37-.34-.83-.51-1.39-.51s-1.01.17-1.39.5Z"/>
      <path class="cls-6" d="M321.91,70.96h1.15v8.9h-1.15v-8.9Z"/>
      <path class="cls-6" d="M324.92,71.47h1.01l-.08,3.24h-.85l-.07-3.24Z"/>
      <path class="cls-6" d="M327.94,71.47h1.2v8.4h-1.2v-8.4Z"/>
      <path class="cls-6" d="M336.82,74.15c.48.47.71,1.15.71,2.06v3.66h-1.15v-3.53c0-.62-.15-1.08-.44-1.39-.3-.31-.72-.47-1.27-.47-.62,0-1.12.18-1.48.55s-.54.89-.54,1.57v3.28h-1.15v-6.36h1.1v.96c.23-.33.55-.58.94-.76.4-.18.85-.26,1.35-.26.81,0,1.45.23,1.93.7Z"/>
      <path class="cls-6" d="M345.7,70.96v8.9h-1.1v-1.01c-.26.35-.58.62-.97.8-.39.18-.82.28-1.3.28-.62,0-1.17-.14-1.66-.41-.49-.27-.87-.65-1.15-1.15-.28-.49-.41-1.06-.41-1.7s.14-1.2.41-1.69.66-.87,1.15-1.14c.49-.27,1.04-.41,1.66-.41.46,0,.88.09,1.26.26s.7.43.96.76v-3.5h1.15ZM343.52,78.65c.33-.19.58-.45.77-.79.18-.34.28-.73.28-1.17s-.09-.83-.28-1.17c-.18-.34-.44-.6-.77-.79-.33-.18-.69-.28-1.09-.28s-.77.09-1.1.28c-.32.18-.58.45-.77.79-.19.34-.28.73-.28,1.17s.09.83.28,1.17c.19.34.44.6.77.79.32.19.69.28,1.1.28s.76-.09,1.09-.28Z"/>
      <path class="cls-6" d="M353.82,73.51v6.36h-1.09v-.96c-.23.33-.54.58-.92.76-.38.18-.79.27-1.24.27-.85,0-1.52-.23-2-.7s-.73-1.16-.73-2.07v-3.66h1.15v3.53c0,.62.15,1.08.44,1.4.3.32.72.47,1.27.47.61,0,1.09-.18,1.44-.55.35-.37.53-.89.53-1.56v-3.29h1.15Z"/>
      <path class="cls-6" d="M356.34,79.73c-.48-.14-.86-.32-1.13-.53l.48-.91c.28.2.62.36,1.02.48.4.12.8.18,1.21.18,1.01,0,1.51-.29,1.51-.86,0-.19-.07-.34-.2-.46-.14-.11-.31-.19-.51-.25-.2-.05-.49-.11-.87-.17-.51-.08-.93-.17-1.25-.28-.32-.1-.6-.28-.83-.53-.23-.25-.35-.6-.35-1.04,0-.58.24-1.04.72-1.39.48-.35,1.12-.52,1.93-.52.42,0,.85.05,1.27.16.42.1.77.24,1.04.42l-.49.91c-.52-.34-1.13-.5-1.84-.5-.49,0-.86.08-1.12.24-.26.16-.38.37-.38.64,0,.21.07.37.22.49.14.12.32.21.53.26.21.06.51.12.89.19.51.09.93.18,1.24.28.32.1.59.27.81.51.22.24.34.58.34,1.01,0,.58-.25,1.03-.74,1.37-.49.34-1.16.51-2.01.51-.52,0-1.02-.07-1.5-.21Z"/>
      <path class="cls-6" d="M365.6,79.5c-.17.14-.38.25-.62.33s-.5.11-.77.11c-.64,0-1.14-.17-1.49-.52-.35-.34-.53-.84-.53-1.48v-3.49h-1.08v-.95h1.08v-1.39h1.15v1.39h1.82v.95h-1.82v3.44c0,.34.09.61.26.79.17.18.42.28.74.28.35,0,.65-.1.9-.3l.36.83Z"/>
      <path class="cls-6" d="M368.98,73.74c.39-.19.87-.29,1.43-.29v1.12c-.06,0-.15-.01-.26-.01-.62,0-1.11.19-1.47.56s-.53.9-.53,1.59v3.17h-1.15v-6.36h1.1v1.07c.2-.37.5-.65.89-.84Z"/>
      <path class="cls-6" d="M371.85,72.07c-.15-.14-.22-.32-.22-.53s.07-.39.22-.53.33-.22.56-.22.41.07.56.21.22.31.22.52-.07.4-.22.55c-.15.15-.33.22-.56.22s-.41-.07-.56-.22ZM371.83,73.51h1.15v6.36h-1.15v-6.36Z"/>
      <path class="cls-6" d="M380.9,77.07h-5.16c.07.56.32,1.01.74,1.35.42.34.94.51,1.57.51.76,0,1.37-.26,1.84-.77l.64.74c-.29.34-.65.59-1.07.77-.43.18-.91.26-1.43.26-.67,0-1.27-.14-1.79-.41-.52-.28-.92-.66-1.21-1.16s-.43-1.06-.43-1.68.14-1.17.41-1.67c.28-.5.66-.88,1.14-1.16.48-.28,1.03-.41,1.64-.41s1.15.14,1.63.41c.48.28.85.66,1.12,1.16.27.5.4,1.06.4,1.7,0,.09,0,.2-.02.35ZM376.39,74.92c-.37.34-.59.78-.65,1.32h4.08c-.06-.54-.28-.97-.65-1.31-.37-.34-.83-.51-1.39-.51s-1.01.17-1.39.5Z"/>
      <path class="cls-6" d="M383.37,78.53c.15.16.22.35.22.58,0,.12-.01.24-.04.35-.03.11-.08.28-.16.52l-.56,1.67h-.76l.44-1.79c-.15-.06-.27-.15-.37-.28-.09-.13-.14-.29-.14-.46,0-.24.08-.44.23-.59.15-.15.34-.23.58-.23s.41.08.56.23Z"/>
      <path class="cls-6" d="M251.35,95.8h-1.6v2.06h-1.16v-2.06h-4.67v-.84l4.3-5.5h1.3l-4.12,5.3h3.23v-1.82h1.13v1.82h1.6v1.03Z"/>
      <path class="cls-6" d="M259.38,95.8h-1.6v2.06h-1.16v-2.06h-4.67v-.84l4.3-5.5h1.3l-4.12,5.3h3.23v-1.82h1.13v1.82h1.6v1.03Z"/>
      <path class="cls-6" d="M266.46,94.26c.26.34.38.76.38,1.24s-.14.94-.41,1.31c-.27.37-.66.66-1.16.86-.5.2-1.1.3-1.78.3s-1.26-.1-1.76-.3-.89-.49-1.16-.86c-.27-.37-.41-.81-.41-1.31s.13-.89.38-1.24c.25-.34.62-.61,1.1-.79-.38-.18-.68-.43-.88-.73-.2-.3-.3-.66-.3-1.08,0-.46.13-.87.38-1.21s.61-.61,1.06-.79c.46-.18.98-.28,1.58-.28s1.14.09,1.6.28c.46.18.82.45,1.07.79s.38.75.38,1.21c0,.41-.1.77-.31,1.07-.2.31-.5.55-.88.74.48.18.85.45,1.1.79ZM265.07,96.58c.38-.28.58-.65.58-1.12s-.19-.83-.58-1.1c-.38-.27-.91-.4-1.57-.4s-1.18.13-1.56.4c-.38.27-.56.63-.56,1.1s.19.85.56,1.12.9.41,1.56.41,1.19-.14,1.57-.41ZM262.15,90.71c-.33.24-.49.57-.49.99s.16.74.49.98c.32.24.77.36,1.35.36s1.04-.12,1.37-.36c.33-.24.5-.57.5-.98s-.17-.75-.51-.99c-.34-.24-.79-.37-1.36-.37s-1.02.12-1.34.37Z"/>
      <path class="cls-6" d="M273.05,93.08c.44.21.78.51,1.03.89.25.39.37.83.37,1.34s-.13.99-.39,1.39c-.26.4-.62.71-1.07.93-.45.22-.96.33-1.52.33-1.13,0-2-.36-2.61-1.09-.61-.73-.92-1.76-.92-3.1,0-.94.17-1.73.5-2.39.33-.66.8-1.16,1.39-1.5.6-.34,1.29-.51,2.08-.51.41,0,.79.04,1.15.13s.67.21.94.37l-.46.94c-.4-.26-.94-.4-1.61-.4-.87,0-1.56.27-2.05.81s-.74,1.33-.74,2.36c0,.13,0,.23.01.3.24-.36.57-.63.99-.82.42-.19.89-.28,1.42-.28s1.05.1,1.48.31ZM272.77,96.55c.34-.3.52-.69.52-1.19s-.17-.89-.52-1.18c-.35-.29-.81-.44-1.4-.44-.38,0-.71.07-1,.22-.29.14-.52.34-.68.59s-.25.52-.25.83.08.57.23.81.38.44.68.59c.3.15.66.22,1.07.22.55,0,1-.15,1.34-.44Z"/>
      <path class="cls-6" d="M277.01,97.45c-.52-.34-.92-.83-1.22-1.48-.3-.65-.44-1.42-.44-2.3s.15-1.66.44-2.3c.3-.65.7-1.14,1.22-1.48.52-.34,1.11-.51,1.77-.51s1.24.17,1.76.51c.52.34.92.83,1.22,1.48.3.65.44,1.42.44,2.3s-.15,1.66-.44,2.3c-.3.65-.7,1.14-1.22,1.48-.52.34-1.1.51-1.76.51s-1.25-.17-1.77-.51ZM280.39,96.07c.4-.55.61-1.35.61-2.4s-.2-1.85-.61-2.4c-.4-.55-.94-.83-1.61-.83s-1.22.28-1.63.83c-.4.55-.61,1.35-.61,2.4s.2,1.85.61,2.4.95.83,1.63.83,1.21-.28,1.61-.83Z"/>
      <path class="cls-6" d="M293.11,90.25c.62.52.94,1.24.94,2.15s-.31,1.63-.94,2.15c-.62.52-1.48.78-2.57.78h-2.08v2.54h-1.2v-8.4h3.28c1.09,0,1.94.26,2.57.78ZM292.25,93.79c.4-.32.6-.79.6-1.4s-.2-1.07-.6-1.4-.98-.49-1.74-.49h-2.04v3.77h2.04c.76,0,1.34-.16,1.74-.49Z"/>
      <path class="cls-6" d="M296.64,97.52c-.5-.28-.9-.67-1.18-1.16-.28-.49-.43-1.05-.43-1.67s.14-1.18.43-1.67c.28-.49.68-.88,1.18-1.15.5-.28,1.07-.41,1.7-.41s1.2.14,1.7.41c.5.28.89.66,1.18,1.15.28.49.43,1.05.43,1.67s-.14,1.18-.43,1.67-.68.88-1.18,1.16c-.5.28-1.07.42-1.7.42s-1.2-.14-1.7-.42ZM299.44,96.65c.32-.19.58-.45.76-.79.18-.34.28-.73.28-1.17s-.09-.83-.28-1.17c-.18-.34-.44-.6-.76-.79-.32-.18-.69-.28-1.1-.28s-.77.09-1.1.28c-.32.18-.58.45-.77.79-.19.34-.28.73-.28,1.17s.09.83.28,1.17c.19.34.44.6.77.79.32.19.69.28,1.1.28s.77-.09,1.1-.28Z"/>
      <path class="cls-6" d="M308.56,92.15c.48.47.71,1.15.71,2.06v3.66h-1.15v-3.53c0-.62-.15-1.08-.44-1.39-.3-.31-.72-.47-1.27-.47-.62,0-1.12.18-1.48.55s-.54.89-.54,1.57v3.28h-1.15v-6.36h1.1v.96c.23-.33.55-.58.94-.76.4-.18.85-.26,1.35-.26.81,0,1.45.23,1.93.7Z"/>
      <path class="cls-6" d="M314.98,97.5c-.17.14-.38.25-.62.33s-.5.11-.77.11c-.64,0-1.14-.17-1.49-.52-.35-.34-.53-.84-.53-1.48v-3.49h-1.08v-.95h1.08v-1.39h1.15v1.39h1.82v.95h-1.82v3.44c0,.34.09.61.26.79.17.18.42.28.74.28.35,0,.65-.1.9-.3l.36.83Z"/>
      <path class="cls-6" d="M315.85,94.08h3.23v1h-3.23v-1Z"/>
      <path class="cls-6" d="M321.43,97.67c-.59-.2-1.05-.45-1.39-.76l.44-.94c.32.29.73.52,1.23.7.5.18,1.01.27,1.54.27.7,0,1.22-.12,1.56-.35.34-.24.52-.55.52-.94,0-.29-.09-.52-.28-.7s-.42-.32-.7-.41c-.28-.1-.67-.2-1.17-.32-.63-.15-1.14-.3-1.53-.46-.39-.15-.72-.39-1-.7-.28-.32-.41-.74-.41-1.28,0-.45.12-.85.35-1.21.24-.36.59-.65,1.07-.86s1.08-.32,1.79-.32c.5,0,.98.06,1.46.19s.89.31,1.24.55l-.4.96c-.35-.22-.73-.39-1.13-.51s-.79-.17-1.18-.17c-.68,0-1.19.12-1.53.37-.34.25-.51.57-.51.96,0,.29.1.52.29.7.19.18.43.32.71.42.28.1.67.21,1.16.32.63.15,1.14.3,1.52.46.38.15.71.38.99.7.28.31.41.73.41,1.26,0,.44-.12.84-.36,1.21s-.6.65-1.09.86c-.49.21-1.09.32-1.8.32-.63,0-1.24-.1-1.83-.29Z"/>
      <path class="cls-6" d="M332.44,92.1c.47.43.7,1.08.7,1.93v3.84h-1.09v-.84c-.19.3-.47.52-.82.68s-.78.23-1.27.23c-.71,0-1.28-.17-1.71-.52-.43-.34-.64-.8-.64-1.36s.2-1.01.61-1.35c.41-.34,1.06-.51,1.94-.51h1.82v-.23c0-.5-.14-.88-.43-1.14-.29-.26-.71-.4-1.27-.4-.38,0-.74.06-1.1.19s-.66.29-.91.5l-.48-.86c.33-.26.72-.47,1.18-.61s.94-.21,1.45-.21c.88,0,1.55.22,2.02.65ZM331.29,96.76c.32-.2.55-.47.7-.83v-.89h-1.78c-.98,0-1.46.33-1.46.98,0,.32.12.57.37.76.25.18.59.28,1.03.28s.82-.1,1.14-.29Z"/>
      <path class="cls-6" d="M335.29,90.07c-.15-.14-.22-.32-.22-.53s.07-.39.22-.53c.15-.15.33-.22.56-.22s.41.07.56.21c.15.14.22.31.22.52s-.07.4-.22.55c-.15.15-.33.22-.56.22s-.41-.07-.56-.22ZM335.28,91.51h1.15v6.36h-1.15v-6.36Z"/>
      <path class="cls-6" d="M343.95,92.15c.48.47.71,1.15.71,2.06v3.66h-1.15v-3.53c0-.62-.15-1.08-.44-1.39-.3-.31-.72-.47-1.27-.47-.62,0-1.12.18-1.48.55s-.54.89-.54,1.57v3.28h-1.15v-6.36h1.1v.96c.23-.33.55-.58.94-.76.4-.18.85-.26,1.35-.26.81,0,1.45.23,1.93.7Z"/>
      <path class="cls-6" d="M350.37,97.5c-.17.14-.38.25-.62.33s-.5.11-.77.11c-.64,0-1.14-.17-1.49-.52-.35-.34-.53-.84-.53-1.48v-3.49h-1.08v-.95h1.08v-1.39h1.15v1.39h1.82v.95h-1.82v3.44c0,.34.09.61.26.79.17.18.42.28.74.28.35,0,.65-.1.9-.3l.36.83Z"/>
      <path class="cls-6" d="M351.24,94.08h3.23v1h-3.23v-1Z"/>
      <path class="cls-6" d="M364.2,97.87v-6.12s-3.05,5.1-3.05,5.1h-.55l-3.04-5.06v6.08h-1.15v-8.4h.98l3.5,5.9,3.46-5.9h.98v8.4s-1.14,0-1.14,0Z"/>
      <path class="cls-6" d="M372.04,92.1c.47.43.7,1.08.7,1.93v3.84h-1.09v-.84c-.19.3-.47.52-.82.68s-.78.23-1.27.23c-.71,0-1.28-.17-1.71-.52-.43-.34-.64-.8-.64-1.36s.2-1.01.61-1.35c.41-.34,1.06-.51,1.94-.51h1.82v-.23c0-.5-.14-.88-.43-1.14-.29-.26-.71-.4-1.27-.4-.38,0-.74.06-1.1.19s-.66.29-.91.5l-.48-.86c.33-.26.72-.47,1.18-.61s.94-.21,1.45-.21c.88,0,1.55.22,2.02.65ZM370.89,96.76c.32-.2.55-.47.7-.83v-.89h-1.78c-.98,0-1.46.33-1.46.98,0,.32.12.57.37.76.25.18.59.28,1.03.28s.82-.1,1.14-.29Z"/>
      <path class="cls-6" d="M376.87,91.74c.39-.19.87-.29,1.43-.29v1.12c-.06,0-.15-.01-.26-.01-.62,0-1.11.19-1.47.56-.36.37-.53.9-.53,1.59v3.17h-1.15v-6.36h1.1v1.07c.2-.37.5-.65.89-.84Z"/>
      <path class="cls-6" d="M383.55,97.5c-.17.14-.38.25-.62.33s-.5.11-.77.11c-.64,0-1.14-.17-1.49-.52-.35-.34-.53-.84-.53-1.48v-3.49h-1.08v-.95h1.08v-1.39h1.15v1.39h1.82v.95h-1.82v3.44c0,.34.09.61.26.79.17.18.42.28.74.28.35,0,.65-.1.9-.3l.36.83Z"/>
      <path class="cls-6" d="M384.96,90.07c-.15-.14-.22-.32-.22-.53s.07-.39.22-.53c.15-.15.33-.22.56-.22s.41.07.56.21c.15.14.22.31.22.52s-.07.4-.22.55c-.15.15-.33.22-.56.22s-.41-.07-.56-.22ZM384.94,91.51h1.15v6.36h-1.15v-6.36Z"/>
      <path class="cls-6" d="M393.61,92.15c.48.47.71,1.15.71,2.06v3.66h-1.15v-3.53c0-.62-.15-1.08-.44-1.39-.3-.31-.72-.47-1.27-.47-.62,0-1.12.18-1.48.55s-.54.89-.54,1.57v3.28h-1.15v-6.36h1.1v.96c.23-.33.55-.58.94-.76.4-.18.85-.26,1.35-.26.81,0,1.45.23,1.93.7Z"/>
      <path class="cls-6" d="M245.7,115.48c-.53-.34-.94-.84-1.25-1.49-.3-.65-.46-1.43-.46-2.32s.15-1.67.46-2.32c.3-.65.72-1.15,1.25-1.49.53-.34,1.13-.51,1.8-.51s1.27.17,1.81.51c.53.34.95.84,1.25,1.49.3.65.46,1.43.46,2.32s-.15,1.67-.46,2.32-.72,1.15-1.25,1.49c-.53.34-1.13.51-1.81.51s-1.27-.17-1.8-.51ZM248.92,113.89c.35-.5.52-1.24.52-2.22s-.17-1.72-.52-2.22c-.35-.5-.82-.74-1.42-.74s-1.06.25-1.41.74c-.35.5-.52,1.24-.52,2.22s.17,1.72.52,2.22c.35.5.82.74,1.41.74s1.07-.25,1.42-.74Z"/>
      <path class="cls-6" d="M257.58,108.43c.64.72.95,1.75.95,3.1,0,.94-.17,1.75-.52,2.42s-.83,1.18-1.45,1.52c-.62.35-1.34.52-2.15.52-.43,0-.84-.05-1.22-.14-.38-.09-.71-.23-.99-.4l.58-1.18c.42.27.95.41,1.6.41.81,0,1.44-.25,1.9-.74s.68-1.21.68-2.15h0c-.25.28-.56.49-.95.64-.38.15-.82.22-1.3.22-.55,0-1.05-.11-1.49-.32s-.78-.51-1.03-.91c-.25-.39-.37-.84-.37-1.36,0-.54.14-1.02.41-1.43.27-.41.64-.73,1.1-.95.46-.22.98-.34,1.56-.34,1.15,0,2.05.36,2.68,1.08ZM256.25,111.02c.32-.27.47-.62.47-1.03s-.15-.75-.46-1.01c-.31-.27-.73-.4-1.28-.4-.49,0-.88.13-1.19.39-.3.26-.46.61-.46,1.04s.15.79.46,1.04c.3.26.71.38,1.22.38s.91-.14,1.23-.41Z"/>
      <path class="cls-6" d="M269.24,107.47v1.04l-3.26,7.36h-1.67l3.16-7.08h-3.3v1.43h-1.45v-2.75h6.53Z"/>
      <path class="cls-6" d="M275.46,111.73c.41.43.61.97.61,1.62,0,.49-.12.93-.37,1.33-.25.4-.62.72-1.12.95-.5.24-1.11.35-1.83.35-.6,0-1.18-.09-1.73-.26-.56-.17-1.03-.41-1.42-.71l.67-1.21c.3.26.67.46,1.11.61.44.15.89.22,1.35.22.55,0,.99-.11,1.3-.34.32-.23.47-.54.47-.93s-.15-.7-.45-.92c-.3-.22-.76-.33-1.37-.33h-.77v-1.07l1.91-2.27h-3.82v-1.31h5.72v1.04l-2.04,2.42c.78.1,1.37.36,1.78.79Z"/>
      <path class="cls-6" d="M283.3,107.47v8.4h-1.56v-7.09h-1.78v-1.31h3.34Z"/>
      <path class="cls-6" d="M287.88,107.47v8.4h-1.56v-7.09h-1.78v-1.31h3.34Z"/>
      <path class="cls-6" d="M300.34,113.96h-1.49v1.91h-1.51v-1.91h-4.61v-1.08l4.14-5.41h1.67l-3.9,5.17h2.75v-1.69h1.46v1.69h1.49v1.32Z"/>
      <path class="cls-6" d="M307.59,112.26c.24.34.35.74.35,1.19,0,.51-.14.96-.43,1.34-.28.38-.69.68-1.21.88-.52.2-1.12.31-1.81.31s-1.29-.1-1.81-.31c-.52-.2-.91-.5-1.19-.88-.28-.38-.42-.83-.42-1.34,0-.46.12-.85.35-1.19.23-.34.56-.61,1-.81-.34-.18-.59-.43-.77-.73-.18-.3-.27-.65-.27-1.04,0-.47.13-.88.39-1.24.26-.35.63-.62,1.1-.82.47-.19,1.02-.29,1.63-.29s1.17.1,1.64.29c.47.19.84.46,1.1.82.26.35.4.76.4,1.24,0,.39-.09.74-.28,1.03-.18.3-.45.54-.79.73.44.2.78.47,1.01.81ZM305.86,114.4c.34-.24.5-.57.5-1s-.17-.74-.5-.98c-.34-.24-.79-.36-1.37-.36s-1.03.12-1.36.36c-.33.24-.49.57-.49.98s.16.76.49,1,.78.36,1.36.36,1.03-.12,1.37-.36ZM303.34,108.88c-.28.21-.43.5-.43.88s.14.65.43.86.67.32,1.16.32.89-.11,1.18-.32.43-.5.43-.86-.15-.67-.44-.88c-.29-.21-.68-.31-1.17-.31s-.87.1-1.16.31Z"/>
      <path class="cls-6" d="M318.72,112.26c.24.34.35.74.35,1.19,0,.51-.14.96-.43,1.34-.28.38-.69.68-1.21.88-.52.2-1.12.31-1.81.31s-1.29-.1-1.81-.31c-.52-.2-.91-.5-1.19-.88-.28-.38-.42-.83-.42-1.34,0-.46.12-.85.35-1.19.23-.34.56-.61,1-.81-.34-.18-.59-.43-.77-.73-.18-.3-.27-.65-.27-1.04,0-.47.13-.88.39-1.24.26-.35.63-.62,1.1-.82.47-.19,1.02-.29,1.63-.29s1.17.1,1.64.29c.47.19.84.46,1.1.82.26.35.4.76.4,1.24,0,.39-.09.74-.28,1.03-.18.3-.45.54-.79.73.44.2.78.47,1.01.81ZM317,114.4c.34-.24.5-.57.5-1s-.17-.74-.5-.98c-.34-.24-.79-.36-1.37-.36s-1.03.12-1.36.36c-.33.24-.49.57-.49.98s.16.76.49,1,.78.36,1.36.36,1.03-.12,1.37-.36ZM314.47,108.88c-.28.21-.43.5-.43.88s.14.65.43.86.67.32,1.16.32.89-.11,1.18-.32.43-.5.43-.86-.15-.67-.44-.88c-.29-.21-.68-.31-1.17-.31s-.87.1-1.16.31Z"/>
      <path class="cls-6" d="M322.99,107.47v8.4h-1.56v-7.09h-1.78v-1.31h3.34Z"/>
      <path class="cls-6" d="M254.45,127.46l-2.36,6.41h-1.44l-1.66-4.42-1.68,4.42h-1.44l-2.35-6.41h1.42l1.69,4.73,1.76-4.73h1.26l1.73,4.75,1.74-4.75h1.33Z"/>
      <path class="cls-6" d="M265.35,127.46l-2.36,6.41h-1.44l-1.66-4.42-1.68,4.42h-1.44l-2.35-6.41h1.42l1.69,4.73,1.76-4.73h1.26l1.73,4.75,1.74-4.75h1.33Z"/>
      <path class="cls-6" d="M276.26,127.46l-2.36,6.41h-1.44l-1.66-4.42-1.68,4.42h-1.44l-2.35-6.41h1.42l1.69,4.73,1.76-4.73h1.26l1.73,4.75,1.74-4.75h1.33Z"/>
      <path class="cls-6" d="M276.68,133.67c-.19-.19-.29-.43-.29-.71s.09-.54.28-.72c.19-.18.42-.28.7-.28s.51.09.7.28c.19.18.28.42.28.72s-.1.53-.29.71c-.19.19-.42.28-.7.28s-.5-.09-.7-.28Z"/>
      <path class="cls-6" d="M284.53,129c.44.21.78.51,1.03.91.25.39.37.84.37,1.36,0,.54-.14,1.02-.41,1.43s-.64.73-1.1.95-.98.34-1.56.34c-1.15,0-2.05-.36-2.68-1.08-.64-.72-.95-1.75-.95-3.1,0-.94.17-1.75.52-2.42.34-.67.83-1.18,1.45-1.52.62-.35,1.34-.52,2.15-.52.43,0,.84.05,1.22.14.38.09.71.23.99.4l-.58,1.18c-.42-.27-.95-.41-1.6-.41-.81,0-1.44.25-1.9.74s-.68,1.21-.68,2.15h0c.25-.28.56-.49.95-.64s.82-.22,1.3-.22c.55,0,1.05.11,1.49.32ZM283.97,132.37c.3-.26.46-.61.46-1.04s-.15-.79-.46-1.04c-.3-.26-.71-.38-1.22-.38s-.91.14-1.23.41c-.32.27-.47.62-.47,1.03s.15.75.46,1.01c.31.27.73.4,1.28.4.49,0,.88-.13,1.19-.39Z"/>
      <path class="cls-6" d="M289.65,125.47v8.4h-1.56v-7.09h-1.78v-1.31h3.34Z"/>
      <path class="cls-6" d="M296.63,129c.44.21.78.51,1.03.91.25.39.37.84.37,1.36,0,.54-.14,1.02-.41,1.43-.27.41-.64.73-1.1.95-.46.22-.98.34-1.56.34-1.15,0-2.05-.36-2.68-1.08s-.95-1.75-.95-3.1c0-.94.17-1.75.52-2.42s.83-1.18,1.45-1.52c.62-.35,1.34-.52,2.15-.52.43,0,.84.05,1.22.14.38.09.71.23.99.4l-.58,1.18c-.42-.27-.95-.41-1.6-.41-.81,0-1.44.25-1.9.74s-.68,1.21-.68,2.15h0c.25-.28.56-.49.95-.64s.82-.22,1.3-.22c.55,0,1.05.11,1.49.32ZM296.06,132.37c.3-.26.46-.61.46-1.04s-.15-.79-.46-1.04-.71-.38-1.22-.38-.91.14-1.23.41c-.32.27-.47.62-.47,1.03s.15.75.46,1.01c.31.27.73.4,1.28.4.49,0,.88-.13,1.19-.39Z"/>
      <path class="cls-6" d="M305.67,124.96v8.9h-1.44v-.83c-.25.3-.55.53-.92.68-.36.15-.77.23-1.21.23-.62,0-1.17-.14-1.66-.41-.49-.27-.88-.66-1.16-1.16-.28-.5-.42-1.07-.42-1.72s.14-1.22.42-1.72c.28-.5.67-.88,1.16-1.15.49-.27,1.05-.41,1.66-.41.42,0,.81.07,1.16.22.35.14.65.36.9.65v-3.29h1.5ZM303.26,132.42c.29-.16.52-.4.68-.7.17-.3.25-.66.25-1.06s-.08-.75-.25-1.06-.4-.54-.68-.7-.61-.25-.97-.25-.68.08-.97.25c-.29.16-.52.4-.68.7s-.25.66-.25,1.06.08.75.25,1.06c.17.3.4.54.68.7.29.16.61.25.97.25s.68-.08.97-.25Z"/>
      <path class="cls-6" d="M307.71,126.15c-.18-.17-.28-.39-.28-.64s.09-.47.28-.64c.18-.17.41-.26.68-.26s.5.08.68.25c.18.16.28.37.28.62,0,.26-.09.49-.27.67-.18.18-.41.27-.69.27s-.5-.09-.68-.26ZM307.64,127.46h1.5v6.41h-1.5v-6.41Z"/>
      <path class="cls-6" d="M312.77,127.12v.38h1.76v1.2h-1.72v5.16h-1.5v-5.16h-1.06v-1.2h1.06v-.41c0-.69.2-1.23.6-1.63.4-.4.96-.59,1.69-.59.58,0,1.03.12,1.36.35l-.42,1.13c-.26-.18-.53-.26-.83-.26-.63,0-.95.34-.95,1.03Z"/>
      <path class="cls-6" d="M320.2,127.39v1.43c-.13-.02-.24-.04-.35-.04-.58,0-1.04.17-1.37.51s-.49.83-.49,1.47v3.11h-1.5v-6.41h1.43v.94c.43-.67,1.19-1.01,2.28-1.01Z"/>
      <path class="cls-6" d="M326.05,128.07c.5.45.75,1.13.75,2.05v3.76h-1.42v-.78c-.18.28-.45.49-.79.64-.34.15-.75.22-1.23.22s-.9-.08-1.26-.25-.64-.39-.83-.68c-.2-.29-.29-.62-.29-.99,0-.58.21-1.04.64-1.39.43-.35,1.1-.52,2.02-.52h1.66v-.1c0-.45-.13-.79-.4-1.03-.27-.24-.67-.36-1.19-.36-.36,0-.71.06-1.06.17-.35.11-.64.27-.88.47l-.59-1.09c.34-.26.74-.45,1.21-.59.47-.14.97-.2,1.5-.2.94,0,1.67.23,2.17.68ZM324.69,132.6c.29-.17.5-.42.62-.74v-.74h-1.55c-.86,0-1.3.28-1.3.85,0,.27.11.49.32.65s.52.24.9.24.71-.09,1-.26Z"/>
      <path class="cls-6" d="M329.94,133.53c-.53-.28-.94-.67-1.24-1.17s-.44-1.07-.44-1.7.15-1.2.44-1.69c.3-.5.71-.88,1.23-1.16.52-.28,1.12-.42,1.79-.42.63,0,1.19.13,1.66.38.48.26.83.62,1.07,1.1l-1.15.67c-.18-.3-.41-.52-.69-.67-.28-.15-.58-.22-.91-.22-.56,0-1.02.18-1.39.55-.37.36-.55.85-.55,1.46s.18,1.09.55,1.46.83.55,1.4.55c.33,0,.63-.07.91-.22.28-.15.51-.37.69-.67l1.15.67c-.25.48-.61.85-1.09,1.11-.48.26-1.03.39-1.65.39-.66,0-1.26-.14-1.79-.42Z"/>
      <path class="cls-6" d="M336.79,133.53c-.52-.28-.93-.67-1.22-1.17-.29-.5-.44-1.07-.44-1.7s.15-1.2.44-1.69c.29-.5.7-.88,1.22-1.16.52-.28,1.1-.42,1.75-.42s1.24.14,1.76.42c.52.28.93.67,1.22,1.16.29.5.44,1.06.44,1.69s-.15,1.2-.44,1.7-.7.89-1.22,1.17c-.52.28-1.11.42-1.76.42s-1.23-.14-1.75-.42ZM339.91,132.12c.36-.37.54-.85.54-1.45s-.18-1.08-.54-1.45c-.36-.37-.82-.55-1.37-.55s-1.01.18-1.36.55c-.36.37-.53.85-.53,1.45s.18,1.08.53,1.45c.36.37.81.55,1.36.55s1.01-.18,1.37-.55Z"/>
      <path class="cls-6" d="M343.06,133.67c-.19-.19-.29-.43-.29-.71s.09-.54.28-.72c.19-.18.42-.28.7-.28s.51.09.7.28c.19.18.28.42.28.72s-.1.53-.29.71c-.19.19-.42.28-.7.28s-.5-.09-.7-.28Z"/>
      <path class="cls-6" d="M347.86,127.12v.38h1.76v1.2h-1.72v5.16h-1.5v-5.16h-1.06v-1.2h1.06v-.41c0-.69.2-1.23.6-1.63.4-.4.96-.59,1.69-.59.58,0,1.03.12,1.36.35l-.42,1.13c-.26-.18-.53-.26-.83-.26-.63,0-.95.34-.95,1.03Z"/>
      <path class="cls-6" d="M355.3,127.39v1.43c-.13-.02-.24-.04-.35-.04-.58,0-1.04.17-1.37.51-.33.34-.49.83-.49,1.47v3.11h-1.5v-6.41h1.43v.94c.43-.67,1.19-1.01,2.28-1.01Z"/>
    </g>
    <rect class="cls-2" x="233.48" y=".51" width="2" height="150"/>
  </g>
  <g>
    <g>
      <path class="cls-7" d="M66.44,82.27l-.63-.43v-21.31l.69-.43c1.45-.89,3.37-1.34,5.75-1.34,3.18,0,5.97,1.11,8.39,3.33,2.63,2.41,3.95,5.43,3.95,9.08,0,3.45-1.22,6.39-3.67,8.82-2.44,2.44-5.38,3.67-8.82,3.67-2.38,0-4.27-.47-5.66-1.4M68.66,80.22c1,.4,2.15.6,3.44.6,2.48,0,4.66-.86,6.55-2.59,2.06-1.87,3.09-4.22,3.09-7.05s-1.01-5.14-3.03-7c-1.86-1.7-4.01-2.55-6.46-2.55-1.35,0-2.55.19-3.59.58v18.01Z"/>
      <path class="cls-7" d="M89.05,74.66c0,1.81.53,3.29,1.6,4.43,1.07,1.15,2.44,1.74,4.11,1.75l-.02,2.83c-2.47-.01-4.5-.87-6.1-2.57-1.61-1.7-2.42-3.85-2.42-6.44v-7.89h2.83v7.89Z"/>
      <path class="cls-7" d="M104.72,62.12c-1.65.01-3,.58-4.04,1.71-1.04,1.13-1.56,2.58-1.56,4.35v1.9h2.85v2.77h-2.85v10.49h-2.77v-15.17c0-2.54.79-4.65,2.36-6.31,1.58-1.67,3.57-2.52,5.99-2.53l.02,2.77Z"/>
      <path class="cls-7" d="M105.63,75.03c0-2.34.83-4.34,2.49-5.99,1.66-1.66,3.66-2.49,5.99-2.49v2.55c-1.64,0-3.04.58-4.21,1.73-1.15,1.17-1.73,2.57-1.73,4.21v8.32h-2.55v-8.32Z"/>
      <path class="cls-7" d="M123.38,83.72c-2.32,0-4.3-.84-5.95-2.53-1.65-1.68-2.47-3.7-2.47-6.09s.82-4.4,2.47-6.08c1.65-1.69,3.63-2.53,5.95-2.53s4.3.84,5.95,2.53c1.65,1.69,2.48,3.72,2.48,6.08v8.3h-2.79v-8.3c0-1.59-.55-2.95-1.66-4.08-1.1-1.13-2.43-1.69-3.98-1.69s-2.9.56-4,1.69c-1.1,1.13-1.66,2.49-1.66,4.08s.55,2.95,1.66,4.08c1.1,1.13,2.44,1.69,4,1.69v2.85Z"/>
      <path class="cls-7" d="M136.08,81.13c-1.69-1.67-2.53-3.7-2.53-6.08s.84-4.4,2.53-6.09c1.67-1.67,3.7-2.51,6.08-2.51,1.75,0,3.35.49,4.8,1.47l-1.58,2.34c-.97-.66-2.04-.99-3.22-.99-1.59,0-2.95.56-4.08,1.69-1.13,1.13-1.69,2.49-1.69,4.08s.56,2.95,1.69,4.08c1.13,1.13,2.49,1.69,4.08,1.69,1.23,0,2.35-.36,3.35-1.08l1.66,2.33c-1.5,1.07-3.17,1.6-5.01,1.6-2.38,0-4.41-.84-6.08-2.53"/>
      <path class="cls-7" d="M157.05,66.54c2.37,0,4.4.84,6.09,2.51,1.67,1.69,2.51,3.72,2.51,6.08s-.84,4.41-2.51,6.08c-1.69,1.69-3.72,2.53-6.09,2.53s-4.41-.84-6.08-2.53c-1.69-1.67-2.53-3.7-2.53-6.08s.84-4.4,2.53-6.08c1.67-1.67,3.7-2.51,6.08-2.51M157.05,80.91c1.59,0,2.94-.56,4.06-1.69,1.13-1.13,1.69-2.49,1.69-4.08s-.56-2.94-1.69-4.06c-1.12-1.13-2.47-1.69-4.06-1.69s-2.95.56-4.08,1.69c-1.13,1.12-1.69,2.47-1.69,4.06s.56,2.95,1.69,4.08c1.13,1.13,2.49,1.69,4.08,1.69"/>
      <path class="cls-7" d="M17.32,68.08c.09-.08.18-.16.28-.24v-.34c0-3.37,2.74-6.12,6.12-6.12h4.34v-3.19h-4.34c-2.49,0-4.82.97-6.58,2.73-1.76,1.76-2.73,4.1-2.73,6.58v5.34h0c.48-1.87,1.51-3.52,2.91-4.76"/>
      <path class="cls-7" d="M34.11,72.84v-8.72c0-1.48-1.21-2.69-2.69-2.69h-2.27v-3.16h2.27c3.23,0,5.85,2.62,5.85,5.85v8.72h-3.16Z"/>
      <path class="cls-5" d="M90.24,61.48c0,.72-.25,1.33-.76,1.84-.51.51-1.12.76-1.84.76s-1.31-.25-1.82-.76c-.51-.51-.76-1.12-.76-1.84s.25-1.33.76-1.82c.51-.51,1.12-.76,1.82-.76s1.33.25,1.84.76c.51.5.76,1.1.76,1.82"/>
      <path class="cls-5" d="M123.38,66.49c-2.32,0-4.3.84-5.95,2.53-1.31,1.34-2.09,2.89-2.36,4.65h2.83c.24-.99.73-1.87,1.48-2.64,1.1-1.13,2.44-1.69,4-1.69s2.88.56,3.98,1.69c.76.77,1.25,1.66,1.49,2.64h2.85c-.27-1.76-1.05-3.32-2.36-4.65-1.65-1.69-3.63-2.53-5.95-2.53"/>
      <rect class="cls-5" x="65.81" y="66.79" width="2.85" height="9.55"/>
      <path class="cls-5" d="M157.04,83.76c2.37,0,4.4-.84,6.09-2.53,1.65-1.65,2.49-3.65,2.51-5.99h-2.85c-.02,1.55-.58,2.88-1.69,3.98-1.12,1.13-2.47,1.69-4.06,1.69s-2.95-.56-4.08-1.69c-1.11-1.11-1.67-2.43-1.69-3.98h-2.85c.02,2.34.86,4.34,2.53,5.99,1.67,1.69,3.7,2.53,6.08,2.53"/>
      <rect class="cls-5" x="96.34" y="76.34" width="2.77" height="7.1"/>
      <rect class="cls-5" x="105.63" y="76.34" width="2.55" height="7.1"/>
      <rect class="cls-7" x="34.09" y="77.51" width="3.18" height="6.83"/>
      <path class="cls-7" d="M23.67,81.5c-2.67,0-4.95-1.65-5.89-3.99h-3.34c1.05,4.12,4.79,7.17,9.24,7.17s8.18-3.05,9.24-7.17h-3.34c-.94,2.34-3.23,3.99-5.89,3.99"/>
      <path class="cls-3" d="M38.73,77.51h0c1.05,4.12,4.79,7.18,9.24,7.18,1.97,0,3.81-.6,5.33-1.63-1.52,1.03-3.35,1.63-5.32,1.63-4.44,0-8.19-3.06-9.24-7.18"/>
      <path class="cls-3" d="M51.51,80.41c1.05-.71,1.87-1.72,2.35-2.91h0c-.48,1.19-1.3,2.2-2.34,2.91"/>
      <path class="cls-7" d="M47.96,65.62c-2.5,0-4.77.97-6.47,2.54v-.74c0-3.35,2.73-6.08,6.09-6.08,1.63,0,3.16.64,4.32,1.79l2.25-2.25c-2.59-2.33-4.42-2.86-6.58-2.86-2.07,0-4.8,1.1-6.55,2.86-1.75,1.75-2.72,4.09-2.72,6.57v.03l.1,5.3h3.68c.94-2.33,3.23-3.98,5.89-3.98s4.95,1.65,5.89,3.98h3.35c-1.06-4.11-4.8-7.16-9.23-7.16"/>
      <path class="cls-1" d="M53.29,83.05c1.91-1.29,3.33-3.25,3.91-5.55h0c-.58,2.29-2,4.25-3.91,5.55"/>
      <path class="cls-1" d="M42.07,77.51h0c.94,2.34,3.23,4,5.9,4,1.31,0,2.54-.4,3.55-1.09-1.01.68-2.23,1.09-3.55,1.09-2.67,0-4.96-1.66-5.89-3.99"/>
      <path class="cls-5" d="M57.2,77.51h-3.34c-.48,1.19-1.3,2.2-2.35,2.91-1.01.69-2.24,1.09-3.55,1.09-2.67,0-4.96-1.66-5.9-4h-3.34c1.05,4.12,4.79,7.18,9.24,7.18,1.97,0,3.8-.6,5.33-1.63,1.91-1.29,3.32-3.25,3.91-5.55"/>
      <path class="cls-5" d="M23.67,65.61c-1.97,0-3.8.6-5.33,1.63-.25.17-.49.35-.73.55-.09.08-.19.16-.28.24-1.4,1.24-2.42,2.89-2.9,4.75h3.34c.48-1.18,1.3-2.19,2.34-2.9,1.01-.69,2.24-1.09,3.55-1.09,2.67,0,4.95,1.65,5.89,3.99h3.34c-1.06-4.12-4.8-7.17-9.24-7.17"/>
      <path class="cls-7" d="M15.88,73.37h.25l1.45,3.66h-.24l-.46-1.17h-1.75l-.47,1.17h-.24l1.47-3.66ZM16.8,75.67l-.78-2.07h-.01l-.82,2.07h1.61Z"/>
      <path class="cls-7" d="M22.33,75.23c0-.26.04-.51.12-.74s.19-.44.34-.62c.15-.18.33-.32.54-.42.21-.1.46-.16.74-.16.19,0,.37.03.54.08.17.05.32.13.46.24.14.11.25.23.34.38.09.15.15.32.18.51h-.22c-.09-.32-.24-.57-.46-.75-.22-.18-.5-.27-.84-.27-.25,0-.46.05-.65.14-.19.1-.35.22-.47.38-.13.16-.22.35-.29.56-.06.21-.1.43-.1.66s.03.45.09.66c.06.21.16.39.28.54.12.15.28.28.47.37.19.09.41.14.66.14.22,0,.42-.04.59-.11.17-.07.32-.17.44-.3.12-.13.21-.29.27-.47.06-.18.09-.39.08-.61h-1.35v-.19h1.54v1.79h-.19v-.78h-.01c-.04.13-.11.25-.2.36-.09.11-.19.2-.32.27s-.26.13-.41.17c-.15.04-.3.06-.46.06-.28,0-.52-.05-.74-.15-.21-.1-.39-.23-.54-.4-.15-.17-.26-.37-.33-.6-.08-.23-.11-.48-.11-.74"/>
      <polygon class="cls-7" points="30.9 73.37 33.37 73.37 33.37 73.57 31.13 73.57 31.13 75.04 33.23 75.04 33.23 75.23 31.13 75.23 31.13 76.84 33.39 76.84 33.39 77.04 30.9 77.04 30.9 73.37"/>
      <polygon class="cls-7" points="38.41 73.37 38.69 73.37 41.01 76.73 41.02 76.73 41.02 73.37 41.24 73.37 41.24 77.04 40.98 77.04 38.65 73.65 38.64 73.65 38.64 77.04 38.41 77.04 38.41 73.37"/>
      <path class="cls-7" d="M46.39,75.2c0-.27.04-.52.12-.75.08-.23.19-.44.34-.61.15-.17.33-.31.55-.41s.46-.15.74-.15c.22,0,.4.03.56.08.16.06.29.13.4.21.11.08.2.18.26.27.07.1.12.19.16.28.04.09.06.16.07.23.01.06.02.1.02.11h-.23c-.02-.15-.07-.29-.15-.41-.08-.12-.17-.22-.28-.31-.11-.09-.24-.15-.38-.19-.14-.04-.28-.07-.44-.07-.24,0-.45.05-.64.14s-.35.22-.48.37c-.13.16-.23.34-.3.55-.07.21-.1.43-.1.67s.03.46.1.67c.07.21.17.39.3.55s.29.28.48.37.4.14.64.14c.18,0,.34-.04.5-.11.16-.07.29-.17.41-.29.12-.12.21-.26.28-.42.07-.16.11-.32.12-.49h.23c-.02.22-.07.42-.16.61-.09.18-.2.34-.33.48-.13.14-.29.24-.47.32-.18.08-.37.11-.57.11-.27,0-.52-.05-.74-.15s-.4-.24-.55-.41c-.15-.17-.26-.38-.34-.61-.08-.23-.12-.48-.12-.75"/>
      <polygon class="cls-7" points="54.77 73.37 57.23 73.37 57.23 73.57 55 73.57 55 75.04 57.1 75.04 57.1 75.23 55 75.23 55 76.84 57.26 76.84 57.26 77.04 54.77 77.04 54.77 73.37"/>
    </g>
    <line class="cls-8" x1="13.33" y1="90.98" x2="202.01" y2="90.98"/>
    <line class="cls-8" x1="13.33" y1="96.94" x2="202.01" y2="96.94"/>
    <g>
      <path class="cls-7" d="M18.73,92.23v.44h-1.77v1.05h1.58v.44h-1.58v1.06h1.84v.45h-2.3v-3.44h2.24Z"/>
      <path class="cls-7" d="M23.64,92.23v3.55h-.01l-2.53-2.57v2.45s-.46,0-.46,0v-3.54h.02l2.52,2.59v-2.49s.45,0,.45,0Z"/>
      <path class="cls-7" d="M27.06,92.69c-.14-.04-.27-.06-.4-.06-.19,0-.34.04-.44.13-.11.08-.16.2-.16.34s.06.26.19.35.31.18.55.27c.18.06.33.13.45.21.12.08.22.18.3.31.08.13.12.3.12.5,0,.18-.05.35-.14.5-.09.15-.22.27-.39.35-.17.09-.37.13-.6.13-.21,0-.42-.03-.61-.1s-.37-.15-.52-.26l.2-.37c.12.09.26.17.42.23s.32.09.46.09c.18,0,.35-.05.48-.14.14-.1.21-.24.21-.42,0-.16-.06-.29-.17-.38-.12-.09-.28-.18-.49-.26-.19-.07-.35-.14-.48-.21-.13-.07-.24-.17-.33-.29-.09-.12-.14-.28-.14-.46,0-.27.09-.49.28-.65.19-.17.43-.25.73-.26.37,0,.72.09,1.03.28l-.18.36c-.12-.07-.26-.12-.4-.16Z"/>
      <path class="cls-7" d="M31.72,92.23v.44h-1.77v1.05h1.58v.44h-1.58v1.06h1.84v.45h-2.3v-3.44h2.24Z"/>
      <path class="cls-7" d="M34.09,92.23v3.44h-.46v-3.44h.46Z"/>
      <path class="cls-7" d="M38.33,95.61c-.22.07-.43.1-.62.1-.36,0-.67-.07-.95-.22-.27-.15-.48-.35-.63-.61s-.22-.55-.22-.87c0-.37.08-.7.24-.97s.37-.49.64-.63.56-.22.89-.22c.19,0,.38.02.55.07.17.05.32.11.46.18l-.15.42c-.1-.06-.23-.11-.38-.15-.15-.04-.29-.06-.42-.06-.27,0-.5.05-.71.16-.2.11-.36.26-.47.46-.11.2-.17.43-.17.7,0,.25.06.47.17.66.11.19.27.34.47.45.2.11.43.16.69.16.12,0,.24-.01.35-.04.11-.02.21-.06.29-.1v-.68h-.69v-.44h1.15v1.39c-.1.08-.27.16-.49.23Z"/>
      <path class="cls-7" d="M43.75,92.23v3.55h-.01l-2.53-2.57v2.45s-.46,0-.46,0v-3.54h.02l2.52,2.59v-2.49s.45,0,.45,0Z"/>
      <path class="cls-7" d="M48.01,92.23v.44h-1.77v1.05h1.58v.44h-1.58v1.06h1.84v.45h-2.3v-3.44h2.24Z"/>
      <path class="cls-7" d="M50.06,93.92c.05-.1.13-.17.22-.23.09-.05.19-.08.3-.08s.21.03.31.08c.1.06.17.13.23.23.06.09.08.2.08.31,0,.17-.06.32-.18.43s-.27.18-.44.18-.31-.06-.43-.18c-.12-.12-.18-.26-.18-.43,0-.11.03-.21.08-.31Z"/>
      <path class="cls-7" d="M54.66,92.69c-.14-.04-.27-.06-.4-.06-.19,0-.34.04-.44.13-.11.08-.16.2-.16.34s.06.26.19.35.31.18.55.27c.18.06.33.13.45.21.12.08.22.18.3.31.08.13.12.3.12.5,0,.18-.05.35-.14.5-.09.15-.22.27-.39.35-.17.09-.37.13-.6.13-.21,0-.42-.03-.61-.1s-.37-.15-.52-.26l.2-.37c.12.09.26.17.42.23s.32.09.46.09c.18,0,.35-.05.48-.14.14-.1.21-.24.21-.42,0-.16-.06-.29-.17-.38-.12-.09-.28-.18-.49-.26-.19-.07-.35-.14-.48-.21-.13-.07-.24-.17-.33-.29-.09-.12-.14-.28-.14-.46,0-.27.09-.49.28-.65.19-.17.43-.25.73-.26.37,0,.72.09,1.03.28l-.18.36c-.12-.07-.26-.12-.4-.16Z"/>
      <path class="cls-7" d="M57.55,92.23v3.44h-.46v-3.44h.46Z"/>
      <path class="cls-7" d="M61.79,95.61c-.22.07-.43.1-.62.1-.36,0-.67-.07-.95-.22-.27-.15-.48-.35-.63-.61s-.22-.55-.22-.87c0-.37.08-.7.24-.97s.37-.49.64-.63.56-.22.89-.22c.19,0,.38.02.55.07.17.05.32.11.46.18l-.15.42c-.1-.06-.23-.11-.38-.15-.15-.04-.29-.06-.42-.06-.27,0-.5.05-.71.16-.2.11-.36.26-.47.46-.11.2-.17.43-.17.7,0,.25.06.47.17.66.11.19.27.34.47.45.2.11.43.16.69.16.12,0,.24-.01.35-.04.11-.02.21-.06.29-.1v-.68h-.69v-.44h1.15v1.39c-.1.08-.27.16-.49.23Z"/>
      <path class="cls-7" d="M67.2,92.23v3.55h-.01l-2.53-2.57v2.45s-.46,0-.46,0v-3.54h.02l2.52,2.59v-2.49s.45,0,.45,0Z"/>
      <path class="cls-7" d="M71.04,94.77h-1.32l-.37.9h-.46l1.5-3.58h.03l1.5,3.58h-.53l-.36-.9ZM70.88,94.37l-.49-1.26-.51,1.26h1Z"/>
      <path class="cls-7" d="M74.07,92.23v2.99h1.75v.45h-2.21v-3.44h.46Z"/>
      <path class="cls-7" d="M79.85,92.23v.44h-1.77v1.05h1.58v.44h-1.58v1.06h1.84v.45h-2.3v-3.44h2.24Z"/>
      <path class="cls-7" d="M83.79,92.23v.44h-.92v3h-.46v-3h-.9v-.44h2.28Z"/>
      <path class="cls-7" d="M86.04,92.23v3.44h-.46v-3.44h.46Z"/>
      <path class="cls-7" d="M91.52,95.68h-1.55c-.12.03-.24.04-.36.04-.32,0-.61-.08-.88-.23s-.48-.37-.64-.63c-.16-.27-.24-.56-.24-.89s.08-.61.24-.88.37-.48.64-.64.56-.24.88-.24.61.08.88.24c.27.16.48.38.64.64s.24.56.24.88c0,.24-.05.48-.14.69s-.23.41-.4.57h.69v.45ZM88.5,94.61c.11.2.27.36.47.48.2.12.42.18.65.18s.45-.06.64-.17c.2-.12.35-.27.46-.48.11-.2.17-.42.17-.66s-.06-.45-.17-.65c-.11-.2-.27-.36-.47-.48s-.41-.18-.65-.18-.45.06-.65.18c-.2.12-.35.28-.46.48-.11.2-.17.42-.17.65s.06.45.17.65Z"/>
      <path class="cls-7" d="M93.86,94.87c.07.12.17.22.3.29.12.07.26.11.42.11s.3-.04.43-.1c.13-.07.23-.17.3-.29.07-.12.11-.26.11-.41v-2.22h.45v2.24c0,.24-.06.46-.17.65-.11.19-.27.33-.47.44-.2.1-.42.15-.66.15s-.46-.05-.65-.15c-.2-.1-.35-.25-.46-.44-.11-.19-.17-.41-.17-.65v-2.24h.46v2.22c0,.15.04.29.11.41Z"/>
      <path class="cls-7" d="M100.1,92.23v.44h-1.77v1.05h1.58v.44h-1.58v1.06h1.84v.45h-2.3v-3.44h2.24Z"/>
      <path class="cls-7" d="M102.14,93.92c.05-.1.13-.17.22-.23.09-.05.19-.08.3-.08s.21.03.31.08c.1.06.17.13.23.23.06.09.08.2.08.31,0,.17-.06.32-.18.43s-.27.18-.44.18-.31-.06-.43-.18c-.12-.12-.18-.26-.18-.43,0-.11.03-.21.08-.31Z"/>
      <path class="cls-7" d="M105.82,92.23v3.44h-.46v-3.44h.46Z"/>
      <path class="cls-7" d="M111.28,92.13v3.55h-.46v-2.23l-1.27,1.79h0l-1.24-1.73v2.17h-.45v-3.55h0l1.69,2.4,1.72-2.4h0Z"/>
      <path class="cls-7" d="M115.11,92.52c.21.19.32.45.32.79,0,.19-.04.38-.12.54-.08.17-.2.3-.38.41s-.39.16-.65.16h-.51v1.27h-.46v-3.44h.92c.37,0,.67.09.88.28ZM114.68,93.86c.1-.07.18-.16.22-.25.04-.1.07-.2.07-.29,0-.17-.05-.31-.16-.44-.11-.13-.28-.19-.5-.19h-.53v1.29h.51c.17,0,.3-.04.4-.1Z"/>
      <path class="cls-7" d="M119.08,95.68l-.81-1.27s-.06,0-.11,0h-.51v1.27h-.46v-3.44h.92c.23,0,.44.04.63.12.18.08.33.2.43.36s.16.35.16.58c0,.21-.05.41-.14.59s-.24.31-.43.4l.87,1.38h-.54ZM118.68,93.77c.11-.13.16-.28.16-.45,0-.1-.02-.2-.07-.3-.05-.1-.12-.18-.22-.25-.1-.07-.23-.1-.38-.1h-.53v1.29h.5c.25,0,.43-.07.54-.2Z"/>
      <path class="cls-7" d="M123.6,92.23v.44h-1.77v1.05h1.58v.44h-1.58v1.06h1.84v.45h-2.3v-3.44h2.24Z"/>
      <path class="cls-7" d="M126.9,92.69c-.14-.04-.27-.06-.4-.06-.19,0-.34.04-.44.13-.11.08-.16.2-.16.34s.06.26.19.35.31.18.55.27c.18.06.33.13.45.21.12.08.22.18.3.31.08.13.12.3.12.5,0,.18-.05.35-.14.5-.09.15-.22.27-.39.35-.17.09-.37.13-.6.13-.21,0-.42-.03-.61-.1s-.37-.15-.52-.26l.2-.37c.12.09.26.17.42.23s.32.09.46.09c.18,0,.35-.05.48-.14.14-.1.21-.24.21-.42,0-.16-.06-.29-.17-.38-.12-.09-.28-.18-.49-.26-.19-.07-.35-.14-.48-.21-.13-.07-.24-.17-.33-.29-.09-.12-.14-.28-.14-.46,0-.27.09-.49.28-.65.19-.17.43-.25.73-.26.37,0,.72.09,1.03.28l-.18.36c-.12-.07-.26-.12-.4-.16Z"/>
      <path class="cls-7" d="M130.71,92.69c-.14-.04-.27-.06-.4-.06-.19,0-.34.04-.44.13-.11.08-.16.2-.16.34s.06.26.19.35.31.18.55.27c.18.06.33.13.45.21.12.08.22.18.3.31.08.13.12.3.12.5,0,.18-.05.35-.14.5-.09.15-.22.27-.39.35-.17.09-.37.13-.6.13-.21,0-.42-.03-.61-.1s-.37-.15-.52-.26l.2-.37c.12.09.26.17.42.23s.32.09.46.09c.18,0,.35-.05.48-.14.14-.1.21-.24.21-.42,0-.16-.06-.29-.17-.38-.12-.09-.28-.18-.49-.26-.19-.07-.35-.14-.48-.21-.13-.07-.24-.17-.33-.29-.09-.12-.14-.28-.14-.46,0-.27.09-.49.28-.65.19-.17.43-.25.73-.26.37,0,.72.09,1.03.28l-.18.36c-.12-.07-.26-.12-.4-.16Z"/>
      <path class="cls-7" d="M133.6,92.23v3.44h-.46v-3.44h.46Z"/>
      <path class="cls-7" d="M135.65,93.08c.16-.27.37-.48.64-.64s.56-.24.88-.24.61.08.88.24c.27.16.48.38.64.64s.24.56.24.88-.08.61-.24.88c-.16.27-.37.48-.65.64-.27.16-.56.24-.88.24s-.61-.08-.88-.23-.48-.37-.64-.63c-.16-.27-.24-.56-.24-.89s.08-.61.24-.88ZM136.06,94.61c.11.2.27.36.47.48.2.12.42.18.65.18s.45-.06.64-.17c.2-.12.35-.27.46-.48.11-.2.17-.42.17-.66s-.06-.46-.17-.66c-.11-.2-.27-.36-.47-.48-.2-.12-.41-.18-.65-.18s-.45.06-.65.18-.35.28-.46.48c-.11.2-.17.42-.17.66s.06.45.17.65Z"/>
      <path class="cls-7" d="M143.75,92.23v3.55h-.01l-2.53-2.57v2.45s-.46,0-.46,0v-3.54h.02l2.52,2.59v-2.49s.45,0,.45,0Z"/>
      <path class="cls-7" d="M150.36,92.23v.44h-.92v3h-.46v-3h-.9v-.44h2.28Z"/>
      <path class="cls-7" d="M152.02,93.08c.16-.27.37-.48.64-.64s.56-.24.88-.24.61.08.88.24c.27.16.48.38.64.64s.24.56.24.88-.08.61-.24.88c-.16.27-.37.48-.65.64-.27.16-.56.24-.88.24s-.61-.08-.88-.23-.48-.37-.64-.63c-.16-.27-.24-.56-.24-.89s.08-.61.24-.88ZM152.42,94.61c.11.2.27.36.47.48.2.12.42.18.65.18s.45-.06.64-.17c.2-.12.35-.27.46-.48.11-.2.17-.42.17-.66s-.06-.46-.17-.66c-.11-.2-.27-.36-.47-.48-.2-.12-.41-.18-.65-.18s-.45.06-.65.18-.35.28-.46.48c-.11.2-.17.42-.17.66s.06.45.17.65Z"/>
      <path class="cls-7" d="M157.64,94.87c.07.12.17.22.3.29.12.07.26.11.42.11s.3-.04.43-.1c.13-.07.23-.17.3-.29.07-.12.11-.26.11-.41v-2.22h.45v2.24c0,.24-.06.46-.17.65-.11.19-.27.33-.47.44-.2.1-.42.15-.66.15s-.46-.05-.65-.15c-.2-.1-.35-.25-.46-.44-.11-.19-.17-.41-.17-.65v-2.24h.46v2.22c0,.15.04.29.11.41Z"/>
      <path class="cls-7" d="M163.02,92.69c-.14-.04-.27-.06-.4-.06-.19,0-.34.04-.44.13-.11.08-.16.2-.16.34s.06.26.19.35.31.18.55.27c.18.06.33.13.45.21.12.08.22.18.3.31.08.13.12.3.12.5,0,.18-.05.35-.14.5-.09.15-.22.27-.39.35-.17.09-.37.13-.6.13-.21,0-.42-.03-.61-.1s-.37-.15-.52-.26l.2-.37c.12.09.26.17.42.23s.32.09.46.09c.18,0,.35-.05.48-.14.14-.1.21-.24.21-.42,0-.16-.06-.29-.17-.38-.12-.09-.28-.18-.49-.26-.19-.07-.35-.14-.48-.21-.13-.07-.24-.17-.33-.29-.09-.12-.14-.28-.14-.46,0-.27.09-.49.28-.65.19-.17.43-.25.73-.26.37,0,.72.09,1.03.28l-.18.36c-.12-.07-.26-.12-.4-.16Z"/>
      <path class="cls-7" d="M169.38,92.69c-.14-.04-.27-.06-.4-.06-.19,0-.34.04-.44.13-.11.08-.16.2-.16.34s.06.26.19.35.31.18.55.27c.18.06.33.13.45.21.12.08.22.18.3.31.08.13.12.3.12.5,0,.18-.05.35-.14.5-.09.15-.22.27-.39.35-.17.09-.37.13-.6.13-.21,0-.42-.03-.61-.1s-.37-.15-.52-.26l.2-.37c.12.09.26.17.42.23s.32.09.46.09c.18,0,.35-.05.48-.14.14-.1.21-.24.21-.42,0-.16-.06-.29-.17-.38-.12-.09-.28-.18-.49-.26-.19-.07-.35-.14-.48-.21-.13-.07-.24-.17-.33-.29-.09-.12-.14-.28-.14-.46,0-.27.09-.49.28-.65.19-.17.43-.25.73-.26.37,0,.72.09,1.03.28l-.18.36c-.12-.07-.26-.12-.4-.16Z"/>
      <path class="cls-7" d="M172.33,94.87c.07.12.17.22.3.29.12.07.26.11.42.11s.3-.04.43-.1c.13-.07.23-.17.3-.29.07-.12.11-.26.11-.41v-2.22h.45v2.24c0,.24-.06.46-.17.65-.11.19-.27.33-.47.44-.2.1-.42.15-.66.15s-.46-.05-.65-.15c-.2-.1-.35-.25-.46-.44-.11-.19-.17-.41-.17-.65v-2.24h.46v2.22c0,.15.04.29.11.41Z"/>
      <path class="cls-7" d="M178.13,92.52c.21.19.32.45.32.79,0,.19-.04.38-.12.54-.08.17-.2.3-.38.41s-.39.16-.65.16h-.51v1.27h-.46v-3.44h.92c.37,0,.67.09.88.28ZM177.71,93.86c.1-.07.18-.16.22-.25.04-.1.07-.2.07-.29,0-.17-.05-.31-.16-.44-.11-.13-.28-.19-.5-.19h-.53v1.29h.51c.17,0,.3-.04.4-.1Z"/>
      <path class="cls-7" d="M182.01,92.52c.21.19.32.45.32.79,0,.19-.04.38-.12.54-.08.17-.2.3-.38.41s-.39.16-.65.16h-.51v1.27h-.46v-3.44h.92c.37,0,.67.09.88.28ZM181.58,93.86c.1-.07.18-.16.22-.25.04-.1.07-.2.07-.29,0-.17-.05-.31-.16-.44-.11-.13-.28-.19-.5-.19h-.53v1.29h.51c.17,0,.3-.04.4-.1Z"/>
      <path class="cls-7" d="M184.1,93.08c.16-.27.37-.48.64-.64s.56-.24.88-.24.61.08.88.24c.27.16.48.38.64.64s.24.56.24.88-.08.61-.24.88c-.16.27-.37.48-.65.64-.27.16-.56.24-.88.24s-.61-.08-.88-.23-.48-.37-.64-.63c-.16-.27-.24-.56-.24-.89s.08-.61.24-.88ZM184.51,94.61c.11.2.27.36.47.48.2.12.42.18.65.18s.45-.06.64-.17c.2-.12.35-.27.46-.48.11-.2.17-.42.17-.66s-.06-.46-.17-.66c-.11-.2-.27-.36-.47-.48-.2-.12-.41-.18-.65-.18s-.45.06-.65.18-.35.28-.46.48c-.11.2-.17.42-.17.66s.06.45.17.65Z"/>
      <path class="cls-7" d="M191.09,95.68l-.81-1.27s-.06,0-.11,0h-.51v1.27h-.46v-3.44h.92c.23,0,.44.04.63.12.18.08.33.2.43.36s.16.35.16.58c0,.21-.05.41-.14.59s-.24.31-.43.4l.87,1.38h-.54ZM190.7,93.77c.11-.13.16-.28.16-.45,0-.1-.02-.2-.07-.3-.05-.1-.12-.18-.22-.25-.1-.07-.23-.1-.38-.1h-.53v1.29h.5c.25,0,.43-.07.54-.2Z"/>
      <path class="cls-7" d="M195.37,92.23v.44h-.92v3h-.46v-3h-.9v-.44h2.28Z"/>
      <path class="cls-7" d="M198.53,92.69c-.14-.04-.27-.06-.4-.06-.19,0-.34.04-.44.13-.11.08-.16.2-.16.34s.06.26.19.35.31.18.55.27c.18.06.33.13.45.21.12.08.22.18.3.31.08.13.12.3.12.5,0,.18-.05.35-.14.5-.09.15-.22.27-.39.35-.17.09-.37.13-.6.13-.21,0-.42-.03-.61-.1s-.37-.15-.52-.26l.2-.37c.12.09.26.17.42.23s.32.09.46.09c.18,0,.35-.05.48-.14.14-.1.21-.24.21-.42,0-.16-.06-.29-.17-.38-.12-.09-.28-.18-.49-.26-.19-.07-.35-.14-.48-.21-.13-.07-.24-.17-.33-.29-.09-.12-.14-.28-.14-.46,0-.27.09-.49.28-.65.19-.17.43-.25.73-.26.37,0,.72.09,1.03.28l-.18.36c-.12-.07-.26-.12-.4-.16Z"/>
    </g>
    <g>
      <path class="cls-5" d="M203.33,72.18v.85c0,.06-.02.12-.03.18-.06.62-.09,1.24-.19,1.85-.62,3.68-2.36,6.74-5.17,9.19-2.31,2.01-4.99,3.23-8.05,3.57-.29.03-.58.06-.87.09h-1.66c-.05-.01-.11-.03-.16-.03-2.85-.19-5.45-1.08-7.76-2.75-3.66-2.65-5.83-6.22-6.42-10.72-.04-.27-.06-.54-.09-.8,0-.67,0-1.33,0-2,.01-.06.02-.12.03-.18.12-.78.2-1.57.37-2.34.3-1.42.83-2.75,1.53-4.02.05-.1.06-.16-.02-.25-.28-.33-.55-.66-.81-1-.06-.08-.12-.16-.19-.25.07,0,.12,0,.16,0,.48.03.97.06,1.45.11.23.03.36-.05.49-.24,1.33-1.85,2.99-3.33,4.98-4.45.14-.08.19-.17.23-.32.07-.35.18-.7.27-1.04h.06c.07.14.15.28.24.45.15-.44.37-.81.68-1.11.32-.3.68-.5,1.12-.61-.37.49-.42,1.09-.15,1.55.58-.17,1.15-.33,1.73-.5-.25-1.03-1.33-1.77-2.49-1.69.05-.04.09-.07.13-.1,1.28-.84,2.7-1.15,4.2-1.16.68,0,1.25.23,1.68.77,0,.01.03.01.05.02.2-.4.14-.79,0-1.18.93.89,1.46,1.92,1.13,3.23.03.02.04.03.05.03.58.11,1.16.23,1.75.33.04,0,.11-.02.14-.06.64-.86.38-1.84-.5-2.29-.06-.03-.12-.06-.17-.08.48-.04.92.06,1.34.29.41.22.74.54,1.05.9.03-.24.06-.46.08-.68.02,0,.04,0,.06,0,.29.61.58,1.22.86,1.83.02-.05.04-.1.07-.18.27.37.47.74.57,1.17.05.23.17.36.37.48,1.99,1.15,3.66,2.65,4.98,4.54.04.05.13.09.19.09.27,0,.54-.03.81-.05.3-.02.6-.04.94-.07-.35.43-.66.82-.98,1.21-.09.11-.1.18-.03.31,1.03,1.85,1.65,3.83,1.86,5.94.04.39.06.79.1,1.18ZM190.77,86.59c4.83-1.13,8.29-3.9,10.27-8.38,1.85-4.18,1.52-8.32-.55-12.37-.22.25-.44.5-.61.77-.17.27-.28.58-.43.86-.28.55-.73.9-1.32,1.02-.39.08-.79.08-1.19.12-.07,0-.14,0-.21,0,0,2.29-.91,3.91-3.18,4.61.03.22.05.45.08.68.08.67,0,1.28-.43,1.84-.34.45-.59.96-.89,1.44-.07.11-.06.21-.05.34.06.4.12.8.15,1.21.02.4-.13.73-.42,1.02-.11.1-.2.24-.25.37-.25.6-.55,1.18-.91,1.72-.06.08-.09.2-.09.29,0,1.25.03,2.5.04,3.75,0,.22,0,.45,0,.72ZM182.65,73.18c-.21-.07-.41-.12-.59-.21-1.54-.7-2.33-1.92-2.49-3.58-.03-.26-.03-.53-.04-.8-.06,0-.11,0-.16-.01-.31-.01-.62,0-.93-.04-.77-.09-1.36-.45-1.7-1.17-.11-.24-.22-.49-.36-.71-.19-.29-.41-.56-.62-.86-3.88,7.1-.96,16.37,6.76,19.76.01-.06.03-.11.04-.16.44-2,.88-3.99,1.32-5.99.01-.06.03-.13,0-.18-.15-.52-.06-1.04.03-1.56.02-.12.01-.25-.02-.36-.19-.71-.61-1.3-1.01-1.91-.26-.4-.37-.82-.32-1.28.03-.31.06-.62.09-.93ZM189.46,59.29c-.1.49-.18.97-.3,1.43-.05.21-.16.41-.29.58-.11.16-.27.29-.42.42-.07.07-.17.13-.26.15-.48.11-.93.09-1.32-.25-.31-.27-.58-.55-.64-.98-.02-.13-.06-.25-.09-.38-.08-.25-.16-.5-.24-.76-.45.17-.86.01-1.28-.03.35.31.7.61,1.05.92-.01.01-.02.03-.03.04-1.23-.41-2.18-1.18-2.83-2.33.03,1.13.71,1.85,1.53,2.5-.02.02-.03.04-.05.06-.56-.26-1.12-.51-1.68-.77,0,.05,0,.06.03.08.38.3.76.6,1.14.91.43.35.79.76,1.01,1.28.03.07.04.14.07.22-.01.01-.03.02-.04.03-.44-.58-.95-1.08-1.61-1.4.45.35.84.77,1.13,1.27.29.5.48,1.03.59,1.6-.42-.76-.99-1.4-1.59-2.01.18.72.33,1.44.32,2.19,0,.17-.06.29-.19.39-.45.35-.9.7-1.35,1.05-.2.16-.38.33-.6.52.4-.04.75-.08,1.09-.1,1.67-.11,3.21.23,4.53,1.32.08.06.21.09.31.09.45,0,.89,0,1.34,0,.11,0,.23-.05.32-.11.4-.24.78-.53,1.19-.74,1.08-.53,2.24-.63,3.42-.56.29.02.57.05.85.08-.09-.14-.2-.25-.32-.35-.5-.39-1-.78-1.5-1.16-.16-.12-.24-.26-.24-.46-.01-.75.04-1.49.41-2.17.01-.02.01-.05.02-.07-.65.6-1.17,1.29-1.59,2.06.25-.89.55-1.76,1.19-2.46-.18.17-.37.33-.53.51-.17.17-.32.36-.48.54.41-1.11,1.12-1.95,2.25-2.41-.07-.03-.13-.04-.19-.03-.66.15-1.24.45-1.75.89-.04.03-.07.06-.11.09l-.03-.03c.31-.47.71-.84,1.19-1.14l-.03-.04c-.14.06-.28.12-.46.2.49-.58.85-1.18.99-1.89-.48.6-.97,1.17-1.63,1.56-.65.39-1.4.51-2.12.73.39-.44.85-.76,1.36-1.03-.51.11-1.01.1-1.53-.02ZM190.71,74.66c-.13-.64-.26-1.24-.37-1.85-.04-.2-.09-.38-.29-.48-.08-.04-.14-.12-.2-.18-.56-.54-.88-1.21-1.11-1.93-.06-.2-.11-.4-.18-.6-.02-.06-.11-.14-.18-.15-.59-.08-.64-.04-.79.52,0,.02-.01.04-.02.07-.22.82-.56,1.58-1.22,2.12-.32.27-.46.56-.5.94,0,.03-.01.06-.02.08-.09.46-.17.92-.27,1.41.23-.21.41-.44.72-.46.23-.02.51.21.61.51-.06-.03-.11-.06-.15-.08-.3-.17-.48-.15-.74.08-.14.13-.28.28-.39.44-.75,1.07-1.16,2.26-1.3,3.56-.04.37.08.67.36.91.41.36.83.71,1.27,1.04.7.53,1.49.77,2.38.72.48-.03.94-.13,1.36-.36.69-.37,1.27-.88,1.84-1.41.32-.29.44-.62.39-1.04-.17-1.41-.66-2.69-1.58-3.79-.23-.28-.49-.33-.81-.15-.05.03-.11.06-.18.1.27-.58.65-.66,1.11-.28.09.08.17.16.28.26ZM199.21,63.77c-1.2-1.54-2.62-2.76-4.26-3.72-.11.1-.21.18-.32.29.08.02.14.04.22.06-.08.05-.14.08-.2.12-.82.52-1.42,1.21-1.57,2.21-.06.45-.03.92-.03,1.38,0,.05.05.11.09.15.31.28.63.55.94.83.06.06.11.07.19.03.23-.12.48-.23.71-.36.97-.55,2.03-.81,3.13-.9.35-.03.7-.07,1.09-.1ZM181.2,60.13c-1.1.53-3.81,2.92-4.1,3.66.42.04.83.08,1.25.12.9.1,1.78.29,2.59.73.31.17.64.29.96.42.05.02.15,0,.19-.03.33-.28.65-.56.97-.84.05-.05.09-.13.1-.2.19-1.36-.52-2.71-1.75-3.33-.05-.02-.09-.05-.13-.08,0-.01,0-.02.01-.03.14.01.28.03.46.04-.19-.16-.36-.3-.56-.45ZM180.97,68.45s.02.02.03.04c.12,0,.24,0,.35-.02.23-.04.46-.11.69-.16.18-.04.36-.08.55-.11.5-.08.94.06,1.35.34.32.22.64.45.98.64.4.22.79.09,1.02-.31.03-.05.06-.1.08-.15.02,0,.05.02.07.02-.05.21-.06.43-.14.63-.12.29-.45.22-.71.32.13.15.24.29.38.45-.11-.04-.18-.06-.26-.09.02.1.03.19.04.26-.16-.17-.31-.35-.47-.51-.11-.12-.24-.13-.36-.02-.12.11-.25.21-.35.34-.28.34-.64.53-1.05.64-.32.09-.63.05-.89-.17-.39-.34-.62-.76-.64-1.28,0-.15.03-.3.04-.46-.17.02-.21.15-.22.28-.06.56.11,1.05.49,1.46.42.45,1.03.54,1.6.26.13-.06.26-.14.39-.21-.43.5-.96.7-1.63.52.11.7.41,1.15,1.17,1.15,0,.02,0,.04-.01.06-.22.07-.44.14-.67.21,0,.02,0,.04,0,.05.05.02.09.05.14.06.46.07.92.07,1.38-.03,1-.21,1.73-.77,2.14-1.72.25-.58.36-1.18.4-1.81.03-.52-.15-.97-.49-1.37-.33-.39-.76-.64-1.23-.81-.95-.34-1.92-.4-2.91-.28-.22.03-.44.09-.65.13,0,.02,0,.03,0,.05.65.11,1.3.23,1.88.57.58.34,1.02.83,1.44,1.38-.28-.02-.49-.12-.68-.26-.33-.23-.67-.46-1.08-.51-.28-.03-.58-.04-.86-.01-.4.03-.69-.14-.93-.44-.05-.06-.09-.12-.15-.2-.12.36.14.76-.23,1.04ZM194.63,66.9s0-.04,0-.06c-.06-.02-.11-.04-.17-.05-.84-.23-1.69-.19-2.54-.04-.64.11-1.24.32-1.75.72-.48.38-.79.87-.79,1.49,0,.75.14,1.47.48,2.14.27.54.65.99,1.19,1.28.71.37,1.46.45,2.24.33.04,0,.08-.04.16-.07-.25-.09-.45-.17-.65-.24,0-.02,0-.03.01-.05.32.01.6-.05.79-.33.18-.25.28-.52.29-.84-.34.09-.65.15-.97.02-.3-.12-.64-.39-.73-.59.07.05.14.1.21.14.53.31,1.07.43,1.61.06.57-.4.81-.97.76-1.66,0-.12-.07-.21-.22-.23.11.64-.09,1.16-.52,1.61-.21.23-.48.34-.79.29-.51-.08-.96-.27-1.3-.69-.07-.09-.15-.17-.23-.25-.2-.2-.3-.2-.5,0-.16.17-.3.35-.46.54.02-.11.03-.21.05-.31-.08.01-.15.02-.23.04.14-.15.25-.28.38-.42-.27-.09-.56-.06-.7-.3-.13-.21-.14-.46-.1-.71.04.04.06.09.08.13.18.4.59.56.99.38.16-.08.32-.18.47-.27.28-.18.55-.38.84-.55.35-.21.74-.26,1.13-.18.38.08.76.19,1.14.26.15.03.3,0,.46,0,0-.05,0-.06,0-.07,0-.02-.02-.03-.03-.04-.15-.11-.16-.27-.14-.44.02-.15,0-.3,0-.49-.05.07-.08.09-.1.12-.24.35-.55.54-.99.5-.12-.01-.25,0-.37-.01-.53-.05-1.01.09-1.45.38-.12.08-.24.17-.37.24-.16.08-.32.14-.52.22.82-1.22,1.93-1.85,3.34-1.97ZM181.6,65.51s-.04-.04-.07-.06c-.6-.58-1.34-.86-2.15-.95-1.16-.12-2.33-.19-3.5-.28-.29-.02-.58-.03-.9-.05.16.21.3.4.45.58.71.77,1.31,1.63,1.79,2.56.17.34.46.56.82.7.47.18.97.16,1.46.18.03,0,.07-.05.08-.08.06-.2,0-.28-.22-.38-.06-.02-.13-.09-.13-.13-.01-.38,0-.77,0-1.15,0-.05.06-.12.11-.13.11-.04.24-.06.36-.09,0-.01,0-.02,0-.03-.77-.28-1.55-.55-2.32-.83,0-.02,0-.04.01-.06.78.05,1.56.09,2.4.14-.23-.15-.41-.28-.6-.4-.19-.11-.39-.2-.6-.31.86-.15,2.2.43,2.66,1.15-.06.07-.13.15-.19.22.08.01.16,0,.19-.04.12-.17.23-.35.35-.54ZM196.57,66.17s0,.02,0,.03c.1.02.2.05.3.06.13.02.18.09.18.22,0,.34,0,.68,0,1.02,0,.1-.03.17-.14.22-.26.11-.27.16-.16.47.36-.04.73-.06,1.1-.11.45-.06.82-.29,1.08-.66.14-.2.26-.42.37-.64.25-.5.56-.95.92-1.38.31-.36.6-.72.89-1.09.03-.04.06-.09.12-.17-.27.02-.5.03-.72.04-1.17.09-2.34.16-3.51.27-.69.06-1.35.26-1.94.65-.17.11-.33.25-.49.37.13.18.24.33.36.49.04.06.1.1.16.15.01-.01.02-.03.04-.04,0-.01,0-.03-.02-.04-.17-.18-.17-.18,0-.36.53-.54,1.18-.85,1.92-.97.2-.03.41,0,.61,0-.37.23-.75.46-1.12.69,0,.01.01.02.02.03.79-.04,1.58-.09,2.37-.13,0,.02,0,.04,0,.06-.77.28-1.54.56-2.32.83ZM184.17,80.99c0,.08,0,.13,0,.18.01.83.02,1.66.04,2.49,0,.16-.05.25-.19.31-.16.07-.32.16-.48.24-.04.02-.1.05-.12.09-.07.26-.13.51-.21.81.58-.29,1.11-.54,1.63-.82.15-.08.2-.04.26.08.28.61.56,1.21.84,1.82.04.09.03.15-.06.2-.09.05-.17.1-.29.18.44.05.83.1,1.26.15-.11-.24-.2-.45-.29-.65-.31-.67-.62-1.34-.92-2.02-.04-.09-.11-.19.07-.22.59-.08,1.18-.17,1.78-.26.15-.02.23.04.29.17.32.76.65,1.53.98,2.29.05.11.04.2-.02.3-.09.14-.17.29-.24.42.62.11,1.13-.16,1.64-.42.03-.01.06-.04.06-.07,0-.24,0-.48,0-.73-.29.15-.53.27-.79.4-.05-.1-.09-.18-.13-.26-.22-.5-.41-1-.65-1.49-.12-.24-.13-.43.07-.62.02-.02.02-.05.04-.08-.46-.13-.9-.27-1.35-.37-.42-.09-.81-.2-1.12-.5,0,0-.01,0-.03,0,0,.1.02.21.03.31.01.17-.03.2-.18.14-.39-.15-.78-.29-1.17-.45-.07-.03-.14-.12-.15-.19-.06-.25-.11-.51-.12-.77-.01-.32-.2-.49-.45-.67ZM196.24,68.58c-.17-.01-.33-.03-.49-.04-.03,0-.07.01-.09.03-.13.14-.25.28-.39.44.23.13.47.26.73.4-.27.28-.58.2-.89.14-.01.03-.03.05-.04.07-.15.45-.37.86-.71,1.2-.04.04-.05.12-.04.18.08.56-.14,1.03-.48,1.45-.06.07-.15.13-.22.19,0,.01.02.02.03.04.7-.22,1.3-.6,1.76-1.18.68-.85.88-1.83.82-2.91ZM181.1,69.54c-.34.08-.66.15-.91-.14.25-.14.5-.28.74-.41-.13-.12-.25-.2-.33-.31-.07-.1-.14-.15-.26-.12-.06.01-.12.01-.19.01-.1,0-.14.05-.13.15.02.32.01.65.06.96.2,1.36.91,2.34,2.19,2.89.07.03.15.05.27.08-.04-.06-.05-.08-.07-.09-.48-.44-.7-.97-.6-1.62,0-.04,0-.1-.03-.12-.35-.36-.57-.79-.74-1.28ZM185.11,80.62s-.02.03-.04.05c.24.29.48.58.73.86.56.62,1.24.97,2.09.99.78.01,1.52-.07,2.1-.65.33-.33.6-.7.9-1.05.01-.02.01-.04.04-.11-1.99,1.58-3.92,1.48-5.83-.09ZM188.54,59.15s.01,0,.02,0c.02-.06.04-.12.05-.17.13-.51.27-1.03.39-1.54.1-.41.15-.83.08-1.26-.02-.12-.05-.23-.08-.35-.02,0-.03,0-.05,0-.02.27-.04.54-.07.86-.08-.2-.13-.36-.2-.53-.05.07-.08.11-.12.16-.18-.35-.3-.72-.63-.93-.32-.2-.68-.28-1.06-.21.02.02.05.04.07.04.69.19,1.12.66,1.31,1.32.11.39.17.8.21,1.2.05.46.05.92.07,1.38ZM185.07,75.05s.04,0,.06,0c.18-.73.28-1.48.4-2.22-.33.11-.64.22-.94.33-.03,0-.07.04-.07.06.01.29-.02.6.06.87.11.34.32.64.48.96ZM191.13,74.99s.04,0,.05,0c.07-.16.13-.33.22-.49.2-.37.26-.78.25-1.19,0-.05-.02-.12-.06-.14-.3-.11-.6-.22-.93-.33.16.72.31,1.44.46,2.16ZM183.01,73.25c-.03.29-.05.55-.08.81-.05.37.04.71.24,1.03.33.52.65,1.04.98,1.56,0,.01.03.02.04.03.11-.12.11-.23.03-.37-.25-.43-.48-.87-.75-1.29-.21-.34-.3-.69-.25-1.08.03-.22.03-.45.05-.68-.09-.01-.16-.02-.25-.03ZM192.89,73.28c.02.13.02.24.05.35.11.56.05,1.08-.28,1.57-.25.39-.45.82-.67,1.23-.08.14-.05.25.04.34.32-.53.64-1.05.94-1.57.09-.15.19-.33.2-.5.02-.48,0-.95,0-1.43-.07,0-.1-.01-.13-.01-.04,0-.09,0-.15.02ZM184.11,58.87s0,.04,0,.06c.4.19.83.27,1.27.3.21.01.3-.14.24-.34-.04-.12-.09-.24-.13-.37-.47.12-.92.24-1.37.35ZM196.2,68.19c-.02-.11-.03-.18-.04-.26-.01-.15-.09-.19-.23-.19-.15,0-.29-.03-.44-.05-.01.12-.03.26-.03.39,0,.04.06.11.1.11.21.01.41,0,.65,0ZM180.79,67.71c-.21.02-.38.03-.55.06-.05,0-.11.05-.12.09-.03.1-.04.21-.06.34.23,0,.43,0,.63,0,.03,0,.08-.05.08-.08.01-.13.02-.25.02-.4ZM194.2,69.05c0-.17-.12-.32-.27-.33-.12,0-.19.06-.19.18,0,.17.15.35.3.35.14,0,.16-.1.17-.2ZM182.53,68.75s-.12-.11-.2-.12c-.15-.02-.3.17-.29.33,0,.13.08.18.2.17.14,0,.29-.18.29-.39ZM189.57,58.62c.17-.03.33-.05.49-.07,0-.01,0-.02,0-.03-.15-.02-.31-.05-.46-.07-.01.06-.02.11-.03.18Z"/>
      <path class="cls-5" d="M187.57,77.55c-.11-.14-.19-.24-.26-.34-.23-.34-.54-.56-.97-.61-.67-.08-.86-.81-.61-1.28.2-.38.61-.48.95-.21.14.11.27.25.36.4.33.54.56,1.12.56,1.76,0,.08-.02.15-.03.28Z"/>
      <path class="cls-5" d="M188.59,77.5c.02-.24.02-.49.07-.73.09-.46.27-.9.54-1.28.11-.16.25-.31.41-.42.29-.21.64-.12.83.18.29.45.14,1.25-.56,1.34-.46.06-.8.29-1.04.67-.06.09-.13.17-.19.25-.02,0-.04-.01-.07-.02Z"/>
    </g>
    <g id="zUKTvf">
      <path class="cls-4" d="M196.55,66.18s0,.02,0,.03c.1.02.2.05.3.06.13.02.18.09.18.22,0,.34,0,.68,0,1.02,0,.11-.03.17-.14.22-.26.11-.27.16-.16.47v.41c0,2.29-.92,3.92-3.19,4.62,0,0-2.3.27-3.27-.63l-.23-.24c-.08-.04-.14-.12-.2-.18-.56-.54-.88-1.21-1.12-1.93-.06-.2-.11-.4-.18-.6-.02-.06-.11-.14-.18-.15-.59-.08-.65-.04-.79.52,0,.02-.01.04-.02.07-.22.82-.57,1.58-1.23,2.13,0,0-.63.58-.8.64-.43.17-.52.23-.83.34-.03,0-.18.04-.18.06,0,0-1.02.09-1.27.06-.09-.01-.16-.02-.25-.03l-.36-.07c-.21-.07-.41-.12-.59-.21-1.54-.7-2.34-1.92-2.5-3.58-.03-.26-.03-.53-.04-.8l-.03-.43s.07-.05.08-.08c.06-.2,0-.28-.22-.38-.06-.02-.13-.09-.13-.13-.01-.38,0-.77,0-1.15,0-.05.06-.12.11-.13.11-.04.24-.06.36-.09.28-.06.55-.09.55-.09l1.26-.12c.4-.04.75-.08,1.09-.1,1.68-.11,3.22.23,4.54,1.33.08.06.21.09.31.09.45,0,.89,0,1.34,0,.11,0,.23-.05.32-.11.4-.24.78-.53,1.2-.74,1.08-.53,2.24-.63,3.43-.56.29.02.57.05.86.08l2,.23M180.76,67.71,182.9,72.73c.46.07.93.07,1.38-.03,1-.21,1.73-.77,2.14-1.72.25-.58.36-1.19.4-1.81.03-.52-.15-.98-.49-1.37-.33-.39-.76-.64-1.23-.81-.95-.34-1.92-.4-2.91-.28-.22.03-.44.09-.65.13,0,0-1.31.37-1.45,1.01-.02.11-.04.22-.06.34l-.05.52c.02.32.01.65.06.96.21,1.36.92,2.35,2.2,2.9.07.03.15.05.27.08.09.03.39.06.39.06ZM193.63,72.69c.7-.22,1.3-.6,1.77-1.18.68-.85.88-1.84.83-2.92l-.04-.39c-.02-.11-.03-.19-.04-.26-.09-.45-.96-.87-1.53-1.09-.06-.02-.11-.04-.17-.05-.84-.23-1.69-.19-2.54-.04-.64.11-1.24.32-1.75.73-.48.38-.79.87-.8,1.49,0,.75.14,1.47.49,2.15.28.54.65.99,1.2,1.28.71.37,1.46.45,2.24.33l.35-.04Z"/>
    </g>
  </g>
</svg>