<?xml version="1.0" encoding="UTF-8"?>
<svg id="Calque_1" data-name="Calque 1" xmlns="http://www.w3.org/2000/svg" version="1.1" viewBox="0 0 522 150.001">
  <rect x="233.478" y="-.193" width="2" height="150" fill="#272824" stroke-width="0"/>
  <g>
    <path d="M244.397,25.19h1.82v8.26h5.124v1.54h-6.944v-9.8Z" fill="#000" stroke-width="0"/>
    <path d="M260.133,33.464v1.526h-7.35v-9.8h7.154v1.525h-5.334v2.549h4.732v1.498h-4.732v2.701h5.53Z" fill="#000" stroke-width="0"/>
    <path d="M267.882,34.479c-.798-.435-1.423-1.034-1.876-1.799-.453-.766-.679-1.629-.679-2.591s.229-1.824.686-2.59c.458-.765,1.085-1.365,1.884-1.799.797-.434,1.691-.651,2.681-.651.803,0,1.535.141,2.198.421.662.279,1.223.686,1.68,1.218l-1.176,1.105c-.71-.765-1.582-1.147-2.618-1.147-.672,0-1.274.146-1.806.44-.532.294-.948.703-1.246,1.226-.299.522-.448,1.115-.448,1.777s.149,1.256.448,1.778c.298.522.714.931,1.246,1.225.531.295,1.134.441,1.806.441,1.036,0,1.908-.387,2.618-1.162l1.176,1.12c-.457.532-1.02.938-1.688,1.218-.667.28-1.402.42-2.205.42-.989,0-1.883-.217-2.681-.65Z" fill="#000" stroke-width="0"/>
    <path d="M282.351,32.723h-4.899l-.967,2.268h-1.876l4.41-9.8h1.792l4.424,9.8h-1.903l-.98-2.268ZM281.749,31.294l-1.849-4.284-1.834,4.284h3.683Z" fill="#000" stroke-width="0"/>
    <path d="M288.301,26.716v2.982h4.731v1.54h-4.731v3.752h-1.82v-9.8h7.154v1.525h-5.334Z" fill="#000" stroke-width="0"/>
    <path d="M302.748,33.464v1.526h-7.35v-9.8h7.154v1.525h-5.334v2.549h4.731v1.498h-4.731v2.701h5.529ZM299.711,22.474h2.058l-2.437,1.918h-1.512l1.891-1.918Z" fill="#000" stroke-width="0"/>
    <path d="M308.643,25.19h4.283c1.046,0,1.975.203,2.786.608.812.406,1.442.98,1.89,1.723.449.742.673,1.599.673,2.568s-.224,1.827-.673,2.569c-.447.742-1.077,1.316-1.89,1.722-.812.406-1.74.609-2.786.609h-4.283v-9.8ZM312.842,33.45c.719,0,1.352-.138,1.897-.413s.966-.667,1.26-1.176.441-1.099.441-1.771-.147-1.262-.441-1.771-.714-.9-1.26-1.176-1.179-.413-1.897-.413h-2.38v6.72h2.38Z" fill="#000" stroke-width="0"/>
    <path d="M327.557,33.464v1.526h-7.351v-9.8h7.154v1.525h-5.334v2.549h4.731v1.498h-4.731v2.701h5.53Z" fill="#000" stroke-width="0"/>
    <path d="M333.449,25.19h1.82v8.26h5.124v1.54h-6.944v-9.8Z" fill="#000" stroke-width="0"/>
    <path d="M348.262,32.723h-4.9l-.966,2.268h-1.876l4.41-9.8h1.792l4.424,9.8h-1.903l-.98-2.268ZM347.66,31.294l-1.849-4.284-1.834,4.284h3.683Z" fill="#000" stroke-width="0"/>
    <path d="M362.506,25.61c.631.28,1.113.682,1.449,1.204s.504,1.144.504,1.861c0,.71-.168,1.328-.504,1.855s-.818.931-1.449,1.211c-.629.28-1.369.42-2.219.42h-2.212v2.828h-1.819v-9.8h4.031c.85,0,1.59.14,2.219.42ZM362.01,30.118c.41-.336.615-.816.615-1.442s-.205-1.105-.615-1.441c-.411-.336-1.014-.504-1.807-.504h-2.128v3.892h2.128c.793,0,1.396-.168,1.807-.504Z" fill="#000" stroke-width="0"/>
    <path d="M366.279,25.19h1.82v8.26h5.124v1.54h-6.944v-9.8Z" fill="#000" stroke-width="0"/>
    <path d="M381.092,32.723h-4.9l-.966,2.268h-1.876l4.41-9.8h1.792l4.424,9.8h-1.904l-.979-2.268ZM380.489,31.294l-1.848-4.284-1.834,4.284h3.682Z" fill="#000" stroke-width="0"/>
    <path d="M386.937,34.479c-.798-.435-1.424-1.034-1.876-1.799-.453-.766-.68-1.629-.68-2.591s.229-1.824.687-2.59c.457-.765,1.085-1.365,1.883-1.799s1.692-.651,2.681-.651c.803,0,1.535.141,2.198.421.663.279,1.223.686,1.681,1.218l-1.176,1.105c-.71-.765-1.582-1.147-2.619-1.147-.672,0-1.273.146-1.806.44s-.947.703-1.246,1.226-.448,1.115-.448,1.777.149,1.256.448,1.778.714.931,1.246,1.225c.532.295,1.134.441,1.806.441,1.037,0,1.909-.387,2.619-1.162l1.176,1.12c-.458.532-1.021.938-1.688,1.218-.667.28-1.402.42-2.205.42-.989,0-1.883-.217-2.681-.65Z" fill="#000" stroke-width="0"/>
    <path d="M402.609,33.464v1.526h-7.351v-9.8h7.154v1.525h-5.334v2.549h4.731v1.498h-4.731v2.701h5.53Z" fill="#000" stroke-width="0"/>
    <path d="M407.957,30.37h3.85v1.456h-3.85v-1.456Z" fill="#000" stroke-width="0"/>
    <path d="M419.183,34.528c-.676-.372-1.206-.884-1.59-1.536s-.576-1.386-.576-2.202.192-1.55.576-2.202c.384-.651.916-1.164,1.596-1.536.681-.371,1.44-.558,2.28-.558.656,0,1.256.11,1.8.33s1.008.546,1.392.978l-.779.757c-.633-.664-1.42-.996-2.364-.996-.624,0-1.188.14-1.692.42s-.897.666-1.182,1.158c-.284.491-.426,1.042-.426,1.649s.142,1.158.426,1.65.678.878,1.182,1.158c.504.279,1.068.42,1.692.42.937,0,1.724-.336,2.364-1.009l.779.757c-.384.432-.85.76-1.397.983-.548.225-1.15.336-1.806.336-.84,0-1.599-.186-2.274-.558Z" fill="#000" stroke-width="0"/>
    <path d="M430.463,29.218c.468.433.702,1.076.702,1.933v3.84h-1.093v-.84c-.191.296-.466.521-.821.678-.356.156-.778.234-1.267.234-.712,0-1.281-.172-1.71-.517-.428-.344-.642-.796-.642-1.355s.204-1.01.611-1.351c.408-.34,1.057-.51,1.944-.51h1.824v-.228c0-.496-.144-.876-.432-1.141-.288-.264-.712-.396-1.272-.396-.376,0-.744.062-1.104.186-.36.124-.664.29-.912.498l-.48-.863c.328-.265.721-.467,1.176-.606.457-.14.94-.21,1.452-.21.88,0,1.554.216,2.022.647ZM429.316,33.88c.32-.195.553-.474.696-.834v-.888h-1.776c-.976,0-1.464.328-1.464.984,0,.319.124.571.372.756.248.184.592.275,1.032.275s.819-.098,1.14-.294Z" fill="#000" stroke-width="0"/>
    <path d="M434.597,28.078v.552h1.848v.948h-1.823v5.412h-1.152v-5.412h-1.08v-.948h1.08v-.563c0-.632.184-1.132.552-1.5s.884-.552,1.548-.552c.256,0,.496.031.721.096.224.064.415.156.575.276l-.348.876c-.265-.2-.56-.301-.888-.301-.688,0-1.032.372-1.032,1.116Z" fill="#000" stroke-width="0"/>
    <path d="M443.164,32.194h-5.159c.071.56.317,1.01.737,1.35.42.341.942.511,1.566.511.76,0,1.372-.257,1.836-.769l.636.744c-.288.336-.646.592-1.073.768-.429.177-.906.265-1.435.265-.672,0-1.268-.139-1.788-.414-.52-.276-.922-.662-1.206-1.158s-.426-1.056-.426-1.68c0-.616.138-1.172.414-1.668s.656-.883,1.14-1.158c.484-.276,1.03-.414,1.639-.414s1.149.138,1.626.414c.476.275.848.662,1.116,1.158.268.496.401,1.063.401,1.704,0,.088-.008.203-.024.348ZM438.658,30.046c-.371.336-.59.776-.653,1.32h4.08c-.064-.536-.282-.974-.654-1.314-.372-.34-.834-.51-1.386-.51s-1.015.168-1.387.504ZM440.765,26.146h1.464l-2.016,1.56h-1.08l1.632-1.56Z" fill="#000" stroke-width="0"/>
    <path d="M447.604,31.198h3.229v.996h-3.229v-.996Z" fill="#000" stroke-width="0"/>
    <path d="M460.864,28.978c.488.271.87.651,1.146,1.14.275.488.413,1.052.413,1.692s-.138,1.206-.413,1.697c-.276.492-.658.875-1.146,1.146-.488.272-1.04.408-1.655.408-.473,0-.904-.092-1.297-.276-.392-.184-.716-.452-.972-.804v1.008h-1.104v-8.904h1.152v3.504c.256-.336.576-.59.96-.762s.804-.258,1.261-.258c.615,0,1.167.136,1.655.408ZM460.211,33.772c.323-.188.579-.452.768-.792.188-.34.282-.73.282-1.17s-.095-.83-.282-1.17c-.188-.34-.444-.603-.768-.786-.324-.185-.69-.276-1.099-.276-.4,0-.764.092-1.092.276-.328.184-.584.446-.769.786-.184.34-.275.729-.275,1.17s.092.83.275,1.17c.185.34.44.604.769.792.328.188.691.282,1.092.282.408,0,.774-.095,1.099-.282Z" fill="#000" stroke-width="0"/>
    <path d="M468.299,29.218c.468.433.701,1.076.701,1.933v3.84h-1.092v-.84c-.191.296-.466.521-.822.678-.355.156-.777.234-1.266.234-.712,0-1.282-.172-1.71-.517-.428-.344-.642-.796-.642-1.355s.203-1.01.611-1.351c.408-.34,1.057-.51,1.944-.51h1.824v-.228c0-.496-.145-.876-.433-1.141-.287-.264-.712-.396-1.271-.396-.376,0-.744.062-1.104.186-.36.124-.665.29-.912.498l-.48-.863c.328-.265.72-.467,1.176-.606s.94-.21,1.452-.21c.88,0,1.554.216,2.022.647ZM467.152,33.88c.32-.195.552-.474.696-.834v-.888h-1.776c-.977,0-1.464.328-1.464.984,0,.319.124.571.372.756.248.184.592.275,1.032.275s.819-.098,1.14-.294Z" fill="#000" stroke-width="0"/>
    <path d="M473.129,28.858c.392-.192.867-.288,1.428-.288v1.116c-.064-.008-.152-.013-.264-.013-.625,0-1.115.187-1.471.559s-.534.902-.534,1.59v3.168h-1.151v-6.36h1.104v1.068c.2-.368.496-.648.889-.84Z" fill="#000" stroke-width="0"/>
    <path d="M478.876,31.198h3.229v.996h-3.229v-.996Z" fill="#000" stroke-width="0"/>
    <path d="M493.12,27.37c.624.521.937,1.236.937,2.148s-.312,1.628-.937,2.147c-.624.521-1.48.78-2.568.78h-2.075v2.544h-1.2v-8.4h3.275c1.088,0,1.944.261,2.568.78ZM492.256,30.916c.4-.324.601-.79.601-1.397s-.2-1.074-.601-1.398-.979-.486-1.74-.486h-2.039v3.769h2.039c.761,0,1.34-.162,1.74-.486Z" fill="#000" stroke-width="0"/>
    <path d="M503.608,34.99l-.013-6.12-3.035,5.101h-.553l-3.035-5.064v6.084h-1.152v-8.4h.983l3.505,5.904,3.455-5.904h.984l.012,8.4h-1.151Z" fill="#000" stroke-width="0"/>
    <path d="M508.144,34.126c-.624-.64-.936-1.56-.936-2.76v-4.776h1.2v4.729c0,1.8.787,2.7,2.363,2.7.769,0,1.356-.223,1.765-.666.407-.444.611-1.122.611-2.034v-4.729h1.164v4.776c0,1.208-.312,2.13-.936,2.766-.624.637-1.496.954-2.616.954s-1.992-.319-2.616-.96Z" fill="#000" stroke-width="0"/>
    <path d="M251.145,49.372c.28.356.42.807.42,1.351,0,.728-.274,1.288-.822,1.68s-1.346.588-2.394.588h-4.008v-8.4h3.769c.96,0,1.702.192,2.226.576s.786.916.786,1.597c0,.439-.102.819-.306,1.14-.204.32-.478.563-.822.731.488.137.872.383,1.152.738ZM245.541,45.562v2.688h2.46c.616,0,1.09-.113,1.422-.342.332-.228.498-.562.498-1.002s-.166-.774-.498-1.002c-.332-.229-.806-.342-1.422-.342h-2.46ZM249.837,51.682c.344-.225.516-.576.516-1.057,0-.936-.684-1.403-2.052-1.403h-2.76v2.796h2.76c.68,0,1.192-.112,1.536-.336Z" fill="#000" stroke-width="0"/>
    <path d="M255.249,46.858c.392-.192.868-.288,1.428-.288v1.116c-.064-.008-.152-.013-.264-.013-.624,0-1.114.187-1.47.559-.356.372-.534.902-.534,1.59v3.168h-1.152v-6.36h1.104v1.068c.2-.368.496-.648.888-.84Z" fill="#000" stroke-width="0"/>
    <path d="M262.419,47.218c.468.433.702,1.076.702,1.933v3.84h-1.092v-.84c-.192.296-.467.521-.822.678-.356.156-.778.234-1.267.234-.712,0-1.282-.172-1.71-.517-.428-.344-.642-.796-.642-1.355s.204-1.01.612-1.351c.408-.34,1.056-.51,1.944-.51h1.824v-.228c0-.496-.144-.876-.432-1.141-.288-.264-.712-.396-1.272-.396-.376,0-.744.062-1.104.186-.36.124-.665.29-.912.498l-.48-.863c.328-.265.72-.467,1.176-.606s.94-.21,1.452-.21c.88,0,1.554.216,2.022.647ZM261.272,51.88c.32-.195.552-.474.696-.834v-.888h-1.776c-.976,0-1.464.328-1.464.984,0,.319.124.571.372.756.248.184.592.275,1.032.275s.82-.098,1.14-.294Z" fill="#000" stroke-width="0"/>
    <path d="M265.581,52.852c-.48-.141-.856-.318-1.128-.534l.479-.912c.28.2.62.36,1.021.48.399.119.804.18,1.212.18,1.008,0,1.512-.288,1.512-.864,0-.192-.068-.344-.204-.456-.136-.111-.306-.193-.51-.246-.204-.052-.494-.109-.87-.174-.512-.08-.93-.172-1.254-.276-.324-.104-.603-.279-.834-.527-.232-.248-.349-.596-.349-1.044,0-.576.24-1.038.721-1.387.479-.348,1.124-.521,1.932-.521.424,0,.848.052,1.272.156.424.104.771.244,1.044.42l-.492.912c-.521-.336-1.132-.504-1.836-.504-.488,0-.86.08-1.116.239-.256.16-.384.372-.384.637,0,.208.072.371.216.491s.322.208.534.265c.212.056.51.12.894.191.513.089.927.183,1.242.282.316.101.586.271.81.51.225.24.337.576.337,1.009,0,.575-.246,1.033-.738,1.373-.492.341-1.162.511-2.01.511-.521,0-1.021-.07-1.5-.21Z" fill="#000" stroke-width="0"/>
    <path d="M271.593,52.852c-.479-.141-.856-.318-1.128-.534l.48-.912c.279.2.619.36,1.02.48.4.119.804.18,1.212.18,1.008,0,1.512-.288,1.512-.864,0-.192-.067-.344-.204-.456-.136-.111-.306-.193-.51-.246-.204-.052-.494-.109-.87-.174-.512-.08-.93-.172-1.254-.276-.323-.104-.602-.279-.834-.527-.231-.248-.348-.596-.348-1.044,0-.576.239-1.038.72-1.387.48-.348,1.124-.521,1.932-.521.424,0,.849.052,1.272.156.424.104.772.244,1.044.42l-.492.912c-.52-.336-1.132-.504-1.836-.504-.488,0-.859.08-1.115.239-.257.16-.385.372-.385.637,0,.208.072.371.216.491.145.12.322.208.534.265.212.056.51.12.895.191.512.089.926.183,1.242.282.315.101.586.271.81.51.224.24.336.576.336,1.009,0,.575-.246,1.033-.738,1.373-.491.341-1.162.511-2.01.511-.521,0-1.021-.07-1.5-.21Z" fill="#000" stroke-width="0"/>
    <path d="M283.004,50.194h-5.159c.071.56.317,1.01.737,1.35.42.341.942.511,1.566.511.76,0,1.372-.257,1.836-.769l.636.744c-.288.336-.646.592-1.073.768-.429.177-.906.265-1.435.265-.672,0-1.268-.139-1.788-.414-.52-.276-.922-.662-1.206-1.158s-.426-1.056-.426-1.68c0-.616.138-1.172.414-1.668s.656-.883,1.14-1.158c.484-.276,1.03-.414,1.639-.414s1.149.138,1.626.414c.476.275.848.662,1.116,1.158.268.496.401,1.063.401,1.704,0,.088-.008.203-.024.348ZM278.498,48.046c-.371.336-.59.776-.653,1.32h4.08c-.064-.536-.282-.974-.654-1.314-.372-.34-.834-.51-1.386-.51s-1.015.168-1.387.504Z" fill="#000" stroke-width="0"/>
    <path d="M286.616,46.858c.392-.192.868-.288,1.429-.288v1.116c-.064-.008-.152-.013-.265-.013-.624,0-1.114.187-1.47.559-.356.372-.534.902-.534,1.59v3.168h-1.151v-6.36h1.104v1.068c.2-.368.496-.648.888-.84Z" fill="#000" stroke-width="0"/>
    <path d="M289.479,45.19c-.148-.145-.222-.32-.222-.528s.073-.386.222-.534c.148-.147.334-.222.559-.222s.409.07.558.21c.147.14.222.314.222.522,0,.216-.074.397-.222.546-.148.147-.334.222-.558.222s-.41-.072-.559-.216ZM289.461,46.63h1.151v6.36h-1.151v-6.36Z" fill="#000" stroke-width="0"/>
    <path d="M298.532,50.194h-5.16c.072.56.318,1.01.738,1.35.42.341.942.511,1.565.511.761,0,1.373-.257,1.836-.769l.637.744c-.288.336-.646.592-1.074.768-.428.177-.906.265-1.434.265-.672,0-1.269-.139-1.788-.414-.521-.276-.923-.662-1.206-1.158-.284-.496-.426-1.056-.426-1.68,0-.616.138-1.172.414-1.668.275-.496.655-.883,1.14-1.158.483-.276,1.03-.414,1.638-.414s1.15.138,1.626.414c.476.275.849.662,1.116,1.158s.402,1.063.402,1.704c0,.088-.008.203-.024.348ZM294.026,48.046c-.372.336-.59.776-.654,1.32h4.08c-.063-.536-.282-.974-.653-1.314-.373-.34-.834-.51-1.387-.51s-1.014.168-1.386.504Z" fill="#000" stroke-width="0"/>
    <path d="M250.965,86.926h-1.596v2.064h-1.164v-2.064h-4.668v-.84l4.296-5.496h1.296l-4.116,5.305h3.229v-1.824h1.128v1.824h1.596v1.031Z" fill="#000" stroke-width="0"/>
    <path d="M257.421,82.858c.392-.192.868-.288,1.428-.288v1.116c-.064-.008-.152-.013-.264-.013-.624,0-1.114.187-1.47.559-.356.372-.534.902-.534,1.59v3.168h-1.152v-6.36h1.104v1.068c.2-.368.496-.648.888-.84Z" fill="#000" stroke-width="0"/>
    <path d="M266.277,82.63v6.36h-1.093v-.96c-.231.328-.538.582-.918.762-.38.181-.794.271-1.241.271-.849,0-1.517-.234-2.005-.702-.488-.468-.731-1.158-.731-2.07v-3.66h1.152v3.528c0,.616.148,1.082.444,1.398.296.315.72.474,1.271.474.608,0,1.088-.184,1.44-.552s.528-.889.528-1.561v-3.288h1.152Z" fill="#000" stroke-width="0"/>
    <path d="M274.196,86.194h-5.159c.071.56.317,1.01.737,1.35.42.341.942.511,1.566.511.76,0,1.372-.257,1.836-.769l.636.744c-.288.336-.646.592-1.074.768-.428.177-.906.265-1.434.265-.672,0-1.268-.139-1.788-.414-.521-.276-.922-.662-1.206-1.158s-.426-1.056-.426-1.68c0-.616.138-1.172.414-1.668.275-.496.656-.883,1.14-1.158.484-.276,1.03-.414,1.638-.414s1.15.138,1.627.414c.476.275.848.662,1.115,1.158.269.496.402,1.063.402,1.704,0,.088-.008.203-.024.348ZM269.69,84.046c-.372.336-.59.776-.653,1.32h4.08c-.064-.536-.282-.974-.654-1.314-.372-.34-.834-.51-1.387-.51s-1.014.168-1.386.504Z" fill="#000" stroke-width="0"/>
    <path d="M285.045,80.086v8.904h-1.104v-1.008c-.256.352-.58.62-.972.804-.393.185-.824.276-1.296.276-.616,0-1.169-.136-1.656-.408-.488-.271-.87-.654-1.146-1.146-.276-.491-.414-1.058-.414-1.697s.138-1.204.414-1.692c.275-.488.657-.868,1.146-1.14.487-.272,1.04-.408,1.656-.408.456,0,.876.086,1.26.258s.704.426.96.762v-3.504h1.152ZM282.86,87.772c.328-.188.584-.452.769-.792.184-.34.275-.73.275-1.17s-.092-.83-.275-1.17c-.185-.34-.44-.603-.769-.786-.328-.185-.692-.276-1.092-.276-.408,0-.774.092-1.098.276-.324.184-.58.446-.769.786-.188.34-.281.729-.281,1.17s.094.83.281,1.17c.188.34.444.604.769.792.323.188.689.282,1.098.282.399,0,.764-.095,1.092-.282Z" fill="#000" stroke-width="0"/>
    <path d="M293.156,82.63v6.36h-1.092v-.96c-.232.328-.538.582-.918.762-.38.181-.794.271-1.242.271-.848,0-1.516-.234-2.004-.702s-.732-1.158-.732-2.07v-3.66h1.152v3.528c0,.616.148,1.082.444,1.398.296.315.72.474,1.271.474.608,0,1.088-.184,1.44-.552.352-.368.527-.889.527-1.561v-3.288h1.152Z" fill="#000" stroke-width="0"/>
    <path d="M304.592,81.37c.625.521.937,1.236.937,2.148s-.312,1.628-.937,2.147c-.623.521-1.479.78-2.567.78h-2.076v2.544h-1.2v-8.4h3.276c1.088,0,1.944.261,2.567.78ZM303.729,84.916c.399-.324.6-.79.6-1.397s-.2-1.074-.6-1.398c-.4-.324-.98-.486-1.74-.486h-2.04v3.769h2.04c.76,0,1.34-.162,1.74-.486Z" fill="#000" stroke-width="0"/>
    <path d="M311.402,83.218c.468.433.702,1.076.702,1.933v3.84h-1.093v-.84c-.191.296-.466.521-.821.678-.356.156-.778.234-1.267.234-.712,0-1.281-.172-1.71-.517-.428-.344-.642-.796-.642-1.355s.204-1.01.611-1.351c.408-.34,1.057-.51,1.944-.51h1.824v-.228c0-.496-.144-.876-.432-1.141-.288-.264-.712-.396-1.272-.396-.376,0-.744.062-1.104.186-.36.124-.664.29-.912.498l-.48-.863c.328-.265.721-.467,1.176-.606.457-.14.94-.21,1.452-.21.88,0,1.554.216,2.022.647ZM310.256,87.88c.32-.195.553-.474.696-.834v-.888h-1.776c-.976,0-1.464.328-1.464.984,0,.319.124.571.372.756.248.184.592.275,1.032.275s.819-.098,1.14-.294Z" fill="#000" stroke-width="0"/>
    <path d="M319.748,82.63l-3.084,6.996c-.271.648-.59,1.104-.954,1.368s-.802.396-1.313.396c-.312,0-.614-.051-.906-.15-.292-.101-.534-.246-.727-.438l.492-.863c.328.312.708.468,1.141.468.279,0,.514-.074.701-.222.188-.148.358-.402.511-.763l.204-.443-2.809-6.349h1.2l2.22,5.088,2.196-5.088h1.128Z" fill="#000" stroke-width="0"/>
    <path d="M321.068,88.852c-.48-.141-.856-.318-1.128-.534l.479-.912c.28.2.62.36,1.021.48.399.119.804.18,1.212.18,1.008,0,1.512-.288,1.512-.864,0-.192-.068-.344-.204-.456-.136-.111-.306-.193-.51-.246-.204-.052-.494-.109-.87-.174-.512-.08-.93-.172-1.254-.276-.324-.104-.602-.279-.834-.527s-.348-.596-.348-1.044c0-.576.239-1.038.72-1.387.479-.348,1.124-.521,1.932-.521.424,0,.849.052,1.272.156.424.104.771.244,1.044.42l-.492.912c-.521-.336-1.132-.504-1.836-.504-.488,0-.86.08-1.116.239-.256.16-.384.372-.384.637,0,.208.072.371.216.491.145.12.322.208.534.265.212.056.51.12.894.191.512.089.926.183,1.242.282.316.101.586.271.811.51.224.24.336.576.336,1.009,0,.575-.246,1.033-.738,1.373-.492.341-1.162.511-2.01.511-.521,0-1.021-.07-1.5-.21Z" fill="#000" stroke-width="0"/>
    <path d="M335.984,80.086v8.904h-1.104v-1.008c-.256.352-.58.62-.972.804-.393.185-.824.276-1.296.276-.616,0-1.169-.136-1.656-.408-.488-.271-.87-.654-1.146-1.146-.276-.491-.414-1.058-.414-1.697s.138-1.204.414-1.692c.275-.488.657-.868,1.146-1.14.487-.272,1.04-.408,1.656-.408.456,0,.876.086,1.26.258s.704.426.96.762v-3.504h1.152ZM333.8,87.772c.328-.188.584-.452.769-.792.184-.34.275-.73.275-1.17s-.092-.83-.275-1.17c-.185-.34-.44-.603-.769-.786-.328-.185-.692-.276-1.092-.276-.408,0-.774.092-1.098.276-.324.184-.58.446-.769.786-.188.34-.281.729-.281,1.17s.094.83.281,1.17c.188.34.444.604.769.792.323.188.689.282,1.098.282.399,0,.764-.095,1.092-.282Z" fill="#000" stroke-width="0"/>
    <path d="M343.892,86.194h-5.159c.071.56.317,1.01.737,1.35.42.341.942.511,1.566.511.76,0,1.372-.257,1.836-.769l.636.744c-.288.336-.646.592-1.074.768-.428.177-.906.265-1.434.265-.672,0-1.268-.139-1.788-.414-.521-.276-.922-.662-1.206-1.158s-.426-1.056-.426-1.68c0-.616.138-1.172.414-1.668.275-.496.656-.883,1.14-1.158.484-.276,1.03-.414,1.638-.414s1.15.138,1.627.414c.476.275.848.662,1.115,1.158.269.496.402,1.063.402,1.704,0,.088-.008.203-.024.348ZM339.386,84.046c-.372.336-.59.776-.653,1.32h4.08c-.064-.536-.282-.974-.654-1.314-.372-.34-.834-.51-1.387-.51s-1.014.168-1.386.504Z" fill="#000" stroke-width="0"/>
    <path d="M354.523,88.99l-1.812-2.58c-.224.017-.4.024-.528.024h-2.076v2.556h-1.199v-8.4h3.275c1.088,0,1.944.261,2.568.78.624.521.936,1.236.936,2.148,0,.647-.16,1.199-.479,1.655-.32.456-.776.788-1.368.996l1.992,2.82h-1.309ZM353.888,84.922c.4-.327.601-.796.601-1.403s-.2-1.074-.601-1.398c-.399-.324-.979-.486-1.739-.486h-2.041v3.78h2.041c.76,0,1.34-.164,1.739-.492Z" fill="#000" stroke-width="0"/>
    <path d="M363.188,86.194h-5.16c.072.56.318,1.01.738,1.35.42.341.941.511,1.566.511.76,0,1.371-.257,1.836-.769l.636.744c-.288.336-.646.592-1.074.768-.428.177-.906.265-1.434.265-.673,0-1.269-.139-1.788-.414-.521-.276-.922-.662-1.206-1.158s-.427-1.056-.427-1.68c0-.616.139-1.172.414-1.668.276-.496.656-.883,1.141-1.158.484-.276,1.029-.414,1.638-.414s1.15.138,1.626.414c.477.275.848.662,1.116,1.158s.402,1.063.402,1.704c0,.088-.009.203-.024.348ZM358.682,84.046c-.372.336-.59.776-.654,1.32h4.08c-.064-.536-.281-.974-.654-1.314-.371-.34-.834-.51-1.386-.51s-1.014.168-1.386.504Z" fill="#000" stroke-width="0"/>
    <path d="M368.384,88.618c-.168.145-.376.254-.624.33s-.504.114-.768.114c-.641,0-1.137-.172-1.488-.517-.353-.344-.528-.836-.528-1.476v-3.492h-1.08v-.948h1.08v-1.392h1.152v1.392h1.824v.948h-1.824v3.444c0,.344.086.607.258.792.172.184.418.275.738.275.352,0,.651-.1.899-.3l.36.828Z" fill="#000" stroke-width="0"/>
    <path d="M374.492,88.042v.948h-5.328v-.744l3.756-4.668h-3.685v-.948h5.16v.757l-3.756,4.655h3.853Z" fill="#000" stroke-width="0"/>
    <path d="M376.909,87.652c.148.156.222.35.222.582,0,.12-.014.236-.041.348-.028.112-.082.284-.162.517l-.564,1.668h-.756l.444-1.788c-.152-.057-.274-.15-.366-.282s-.139-.286-.139-.462c0-.24.076-.437.229-.588.152-.152.344-.229.576-.229.224,0,.41.078.558.234Z" fill="#000" stroke-width="0"/>
    <path d="M250.965,104.926h-1.596v2.064h-1.164v-2.064h-4.668v-.84l4.296-5.496h1.296l-4.116,5.305h3.229v-1.824h1.128v1.824h1.596v1.031Z" fill="#000" stroke-width="0"/>
    <path d="M258.993,104.926h-1.596v2.064h-1.164v-2.064h-4.668v-.84l4.296-5.496h1.296l-4.116,5.305h3.228v-1.824h1.128v1.824h1.596v1.031Z" fill="#000" stroke-width="0"/>
    <path d="M266.072,103.378c.257.345.385.756.385,1.236,0,.504-.137.942-.408,1.314-.271.371-.66.657-1.164.857s-1.096.3-1.775.3c-.673,0-1.259-.1-1.759-.3s-.886-.486-1.158-.857c-.272-.372-.408-.811-.408-1.314,0-.48.126-.892.378-1.236.252-.344.618-.607,1.098-.792-.384-.184-.676-.428-.876-.731s-.3-.664-.3-1.08c0-.464.126-.868.378-1.212s.606-.608,1.062-.792c.456-.185.984-.276,1.584-.276.607,0,1.142.092,1.602.276.46.184.816.448,1.068.792s.377.748.377,1.212c0,.408-.102.766-.306,1.074-.204.308-.498.554-.882.737.48.185.848.448,1.104.792ZM264.681,105.7c.384-.276.576-.649.576-1.122,0-.464-.192-.83-.576-1.098-.384-.269-.908-.402-1.571-.402s-1.185.134-1.561.402c-.376.268-.564.634-.564,1.098,0,.473.188.846.564,1.122s.896.414,1.561.414,1.188-.138,1.571-.414ZM261.765,99.832c-.328.244-.492.574-.492.99s.162.744.486.984c.324.239.774.359,1.351.359.583,0,1.041-.12,1.373-.359.332-.24.498-.568.498-.984s-.17-.746-.51-.99-.794-.366-1.361-.366-1.017.122-1.345.366Z" fill="#000" stroke-width="0"/>
    <path d="M272.667,102.202c.436.208.778.506,1.026.895.247.388.371.834.371,1.338,0,.527-.13.992-.39,1.392-.26.4-.616.71-1.067.93-.453.221-.959.33-1.519.33-1.128,0-1.998-.363-2.61-1.092-.611-.728-.918-1.76-.918-3.096,0-.937.166-1.734.498-2.395s.796-1.159,1.393-1.5c.596-.34,1.29-.51,2.082-.51.408,0,.792.042,1.151.126.36.084.673.206.937.366l-.456.936c-.4-.264-.937-.396-1.608-.396-.872,0-1.556.27-2.052.81s-.744,1.326-.744,2.358c0,.128.004.228.013.3.239-.36.569-.634.989-.822.42-.188.895-.281,1.422-.281.552,0,1.046.104,1.482.312ZM272.385,105.67c.344-.296.516-.691.516-1.188s-.174-.89-.521-1.183c-.348-.292-.814-.438-1.398-.438-.376,0-.71.072-1.002.216-.292.145-.52.34-.684.588s-.246.524-.246.828c0,.296.078.566.234.811s.384.439.684.588c.3.147.658.222,1.074.222.552,0,1-.148,1.344-.444Z" fill="#000" stroke-width="0"/>
    <path d="M276.627,106.576c-.517-.34-.922-.834-1.219-1.482-.296-.647-.443-1.415-.443-2.304s.147-1.656.443-2.304c.297-.648.702-1.142,1.219-1.482.516-.34,1.105-.51,1.77-.51.656,0,1.242.17,1.758.51.517.341.922.834,1.219,1.482.295.647.443,1.416.443,2.304s-.148,1.656-.443,2.304c-.297.648-.702,1.143-1.219,1.482-.516.34-1.102.51-1.758.51-.664,0-1.254-.17-1.77-.51ZM280.011,105.19c.403-.552.606-1.353.606-2.4s-.203-1.848-.606-2.399c-.404-.553-.942-.828-1.614-.828-.68,0-1.222.275-1.626.828-.403.552-.606,1.352-.606,2.399s.203,1.849.606,2.4c.404.552.946.828,1.626.828.672,0,1.21-.276,1.614-.828Z" fill="#000" stroke-width="0"/>
    <path d="M292.725,99.37c.624.521.936,1.236.936,2.148s-.312,1.628-.936,2.147c-.624.521-1.48.78-2.568.78h-2.076v2.544h-1.199v-8.4h3.275c1.088,0,1.944.261,2.568.78ZM291.86,102.916c.4-.324.601-.79.601-1.397s-.2-1.074-.601-1.398c-.399-.324-.979-.486-1.739-.486h-2.041v3.769h2.041c.76,0,1.34-.162,1.739-.486Z" fill="#000" stroke-width="0"/>
    <path d="M296.252,106.642c-.504-.28-.897-.666-1.182-1.158s-.426-1.05-.426-1.674.142-1.183.426-1.674c.284-.492.678-.877,1.182-1.152.504-.276,1.072-.414,1.704-.414s1.198.138,1.698.414c.5.275.893.66,1.176,1.152.284.491.426,1.05.426,1.674s-.142,1.182-.426,1.674c-.283.492-.676.878-1.176,1.158-.5.279-1.066.42-1.698.42s-1.2-.141-1.704-.42ZM299.055,105.772c.324-.188.578-.452.762-.792s.275-.73.275-1.17-.092-.83-.275-1.17-.438-.603-.762-.786c-.324-.185-.69-.276-1.099-.276s-.773.092-1.098.276c-.324.184-.58.446-.769.786-.188.34-.281.729-.281,1.17s.094.83.281,1.17c.188.34.444.604.769.792.324.188.69.282,1.098.282s.774-.095,1.099-.282Z" fill="#000" stroke-width="0"/>
    <path d="M308.174,101.272c.477.468.715,1.154.715,2.058v3.66h-1.152v-3.528c0-.615-.148-1.08-.444-1.392-.296-.312-.72-.468-1.271-.468-.624,0-1.116.182-1.477.546-.359.364-.54.886-.54,1.565v3.276h-1.151v-6.36h1.104v.96c.232-.327.546-.579.942-.756.396-.176.846-.264,1.35-.264.809,0,1.45.234,1.926.702Z" fill="#000" stroke-width="0"/>
    <path d="M314.601,106.618c-.168.145-.376.254-.624.33s-.504.114-.769.114c-.64,0-1.136-.172-1.487-.517-.353-.344-.528-.836-.528-1.476v-3.492h-1.08v-.948h1.08v-1.392h1.152v1.392h1.823v.948h-1.823v3.444c0,.344.085.607.258.792.172.184.418.275.737.275.353,0,.652-.1.9-.3l.36.828Z" fill="#000" stroke-width="0"/>
    <path d="M315.465,103.198h3.228v.996h-3.228v-.996Z" fill="#000" stroke-width="0"/>
    <path d="M321.05,106.792c-.588-.195-1.05-.45-1.386-.762l.444-.937c.319.288.729.522,1.229.702.5.181,1.014.271,1.542.271.696,0,1.216-.118,1.561-.354.344-.235.516-.55.516-.941,0-.288-.094-.522-.282-.702-.188-.18-.42-.318-.695-.414-.276-.096-.666-.204-1.17-.324-.633-.151-1.143-.304-1.53-.456-.389-.151-.72-.386-.996-.702-.276-.315-.414-.741-.414-1.277,0-.448.118-.853.354-1.212.235-.36.594-.648,1.073-.864.48-.216,1.076-.324,1.788-.324.496,0,.984.064,1.464.192.48.128.892.312,1.236.552l-.396.96c-.353-.224-.729-.394-1.129-.51-.399-.116-.792-.174-1.176-.174-.68,0-1.189.124-1.529.372-.341.248-.511.567-.511.96,0,.287.097.521.288.701.192.181.43.32.714.42.284.101.67.206,1.158.318.632.152,1.14.305,1.524.456.384.152.714.384.989.696.276.312.414.731.414,1.26,0,.44-.12.842-.359,1.206-.24.364-.604.652-1.093.864-.487.212-1.088.317-1.8.317-.632,0-1.241-.098-1.83-.294Z" fill="#000" stroke-width="0"/>
    <path d="M332.054,101.218c.468.433.702,1.076.702,1.933v3.84h-1.092v-.84c-.192.296-.466.521-.822.678-.355.156-.777.234-1.266.234-.712,0-1.282-.172-1.71-.517-.429-.344-.642-.796-.642-1.355s.203-1.01.611-1.351c.408-.34,1.057-.51,1.944-.51h1.823v-.228c0-.496-.144-.876-.432-1.141-.288-.264-.712-.396-1.271-.396-.377,0-.744.062-1.104.186s-.664.29-.912.498l-.479-.863c.328-.265.72-.467,1.176-.606s.939-.21,1.452-.21c.88,0,1.554.216,2.021.647ZM330.908,105.88c.319-.195.552-.474.695-.834v-.888h-1.775c-.977,0-1.464.328-1.464.984,0,.319.124.571.372.756.248.184.592.275,1.031.275s.82-.098,1.141-.294Z" fill="#000" stroke-width="0"/>
    <path d="M334.91,99.19c-.148-.145-.223-.32-.223-.528s.074-.386.223-.534c.147-.147.334-.222.558-.222s.41.07.558.21c.148.14.223.314.223.522,0,.216-.074.397-.223.546-.147.147-.334.222-.558.222s-.41-.072-.558-.216ZM334.892,100.63h1.152v6.36h-1.152v-6.36Z" fill="#000" stroke-width="0"/>
    <path d="M343.562,101.272c.476.468.713,1.154.713,2.058v3.66h-1.151v-3.528c0-.615-.148-1.08-.444-1.392-.296-.312-.72-.468-1.271-.468-.624,0-1.116.182-1.477.546-.359.364-.54.886-.54,1.565v3.276h-1.151v-6.36h1.104v.96c.232-.327.546-.579.942-.756.396-.176.846-.264,1.35-.264.808,0,1.45.234,1.927.702Z" fill="#000" stroke-width="0"/>
    <path d="M349.988,106.618c-.168.145-.377.254-.625.33s-.504.114-.768.114c-.64,0-1.136-.172-1.488-.517-.352-.344-.527-.836-.527-1.476v-3.492h-1.08v-.948h1.08v-1.392h1.152v1.392h1.823v.948h-1.823v3.444c0,.344.085.607.258.792.172.184.418.275.737.275.353,0,.652-.1.9-.3l.36.828Z" fill="#000" stroke-width="0"/>
    <path d="M350.852,103.198h3.229v.996h-3.229v-.996Z" fill="#000" stroke-width="0"/>
    <path d="M363.812,106.99l-.012-6.12-3.036,5.101h-.552l-3.036-5.064v6.084h-1.152v-8.4h.984l3.504,5.904,3.456-5.904h.983l.013,8.4h-1.152Z" fill="#000" stroke-width="0"/>
    <path d="M371.653,101.218c.468.433.702,1.076.702,1.933v3.84h-1.092v-.84c-.192.296-.466.521-.822.678-.355.156-.777.234-1.266.234-.712,0-1.282-.172-1.71-.517-.429-.344-.642-.796-.642-1.355s.203-1.01.611-1.351c.408-.34,1.057-.51,1.944-.51h1.823v-.228c0-.496-.144-.876-.432-1.141-.288-.264-.712-.396-1.271-.396-.377,0-.744.062-1.104.186s-.664.29-.912.498l-.479-.863c.328-.265.72-.467,1.176-.606s.939-.21,1.452-.21c.88,0,1.554.216,2.021.647ZM370.508,105.88c.319-.195.552-.474.695-.834v-.888h-1.775c-.977,0-1.464.328-1.464.984,0,.319.124.571.372.756.248.184.592.275,1.031.275s.82-.098,1.141-.294Z" fill="#000" stroke-width="0"/>
    <path d="M376.483,100.858c.392-.192.868-.288,1.428-.288v1.116c-.063-.008-.151-.013-.264-.013-.624,0-1.114.187-1.47.559-.356.372-.534.902-.534,1.59v3.168h-1.152v-6.36h1.104v1.068c.199-.368.496-.648.888-.84Z" fill="#000" stroke-width="0"/>
    <path d="M383.167,106.618c-.168.145-.376.254-.624.33s-.504.114-.768.114c-.641,0-1.137-.172-1.488-.517-.352-.344-.527-.836-.527-1.476v-3.492h-1.08v-.948h1.08v-1.392h1.151v1.392h1.824v.948h-1.824v3.444c0,.344.086.607.258.792.173.184.418.275.738.275.353,0,.652-.1.9-.3l.359.828Z" fill="#000" stroke-width="0"/>
    <path d="M384.577,99.19c-.148-.145-.222-.32-.222-.528s.073-.386.222-.534c.147-.147.334-.222.558-.222s.41.07.559.21c.147.14.222.314.222.522,0,.216-.074.397-.222.546-.148.147-.334.222-.559.222s-.41-.072-.558-.216ZM384.559,100.63h1.152v6.36h-1.152v-6.36Z" fill="#000" stroke-width="0"/>
    <path d="M393.229,101.272c.477.468.715,1.154.715,2.058v3.66h-1.152v-3.528c0-.615-.148-1.08-.444-1.392-.296-.312-.72-.468-1.271-.468-.624,0-1.116.182-1.477.546-.359.364-.54.886-.54,1.565v3.276h-1.151v-6.36h1.104v.96c.232-.327.546-.579.942-.756.396-.176.846-.264,1.35-.264.809,0,1.45.234,1.926.702Z" fill="#000" stroke-width="0"/>
    <path d="M245.313,124.6c-.528-.34-.944-.836-1.248-1.488s-.456-1.426-.456-2.322.151-1.67.456-2.322c.304-.651.72-1.147,1.248-1.487s1.128-.51,1.8-.51,1.273.17,1.806.51.95.836,1.254,1.487c.304.652.456,1.427.456,2.322s-.152,1.67-.456,2.322c-.304.652-.722,1.148-1.254,1.488s-1.134.51-1.806.51-1.272-.17-1.8-.51ZM248.535,123.01c.348-.495.522-1.235.522-2.22s-.174-1.724-.522-2.22c-.348-.496-.822-.744-1.422-.744-.592,0-1.062.248-1.41.744-.348.496-.522,1.236-.522,2.22s.174,1.725.522,2.22c.348.497.818.744,1.41.744.6,0,1.074-.247,1.422-.744Z" fill="#000" stroke-width="0"/>
    <path d="M257.199,117.55c.636.721.954,1.752.954,3.097,0,.943-.172,1.75-.517,2.418-.344.668-.826,1.176-1.446,1.523-.62.349-1.338.522-2.154.522-.432,0-.838-.046-1.218-.138-.38-.093-.71-.227-.99-.402l.576-1.176c.416.271.948.407,1.596.407.808,0,1.44-.247,1.896-.743s.684-1.212.684-2.148v-.012c-.248.288-.564.506-.948.653-.384.148-.816.223-1.296.223-.552,0-1.048-.106-1.488-.318-.439-.212-.784-.514-1.032-.906-.248-.392-.372-.844-.372-1.355,0-.544.136-1.022.408-1.435.272-.411.64-.729,1.104-.953.464-.225.984-.336,1.56-.336,1.152,0,2.046.359,2.682,1.079ZM255.867,120.142c.315-.272.474-.616.474-1.032,0-.408-.154-.746-.462-1.014-.308-.269-.734-.402-1.278-.402-.488,0-.884.13-1.188.39-.304.261-.456.606-.456,1.038,0,.44.152.788.456,1.044.304.256.712.384,1.224.384.504,0,.914-.136,1.23-.407Z" fill="#000" stroke-width="0"/>
    <path d="M265.671,121.384c.235.341.354.738.354,1.194,0,.512-.143.96-.427,1.344-.284.385-.686.679-1.206.883-.52.203-1.124.306-1.812.306s-1.29-.103-1.806-.306c-.516-.204-.914-.498-1.194-.883-.28-.384-.42-.832-.42-1.344,0-.456.116-.854.348-1.194.232-.34.564-.609.996-.81-.336-.184-.594-.426-.774-.726-.18-.301-.27-.646-.27-1.038,0-.473.13-.884.39-1.236.26-.352.626-.624,1.099-.816.472-.191,1.016-.287,1.632-.287.624,0,1.172.096,1.644.287.473.192.84.465,1.104.816.264.353.396.764.396,1.236,0,.392-.092.735-.275,1.031-.185.297-.448.54-.792.732.439.2.777.47,1.014.81ZM263.949,123.526c.336-.24.504-.572.504-.996,0-.416-.168-.744-.504-.984-.336-.239-.792-.359-1.368-.359s-1.028.12-1.356.359c-.328.24-.492.568-.492.984,0,.424.164.756.492.996s.78.36,1.356.36,1.032-.12,1.368-.36ZM261.423,118.006c-.284.209-.426.5-.426.876,0,.36.142.646.426.858s.67.318,1.158.318c.496,0,.888-.106,1.176-.318s.433-.498.433-.858c0-.376-.146-.667-.438-.876-.292-.208-.683-.312-1.17-.312s-.874.104-1.158.312Z" fill="#000" stroke-width="0"/>
    <path d="M273.369,116.59v1.044l-3.264,7.356h-1.669l3.156-7.08h-3.3v1.428h-1.452v-2.748h6.528Z" fill="#000" stroke-width="0"/>
    <path d="M281.037,123.082h-1.488v1.908h-1.512v-1.908h-4.608v-1.08l4.14-5.412h1.668l-3.899,5.173h2.748v-1.692h1.464v1.692h1.488v1.319Z" fill="#000" stroke-width="0"/>
    <path d="M284.301,116.59v8.4h-1.561v-7.092h-1.775v-1.309h3.336Z" fill="#000" stroke-width="0"/>
    <path d="M288.873,116.59v8.4h-1.561v-7.092h-1.775v-1.309h3.336Z" fill="#000" stroke-width="0"/>
    <path d="M296.625,123.67v1.32h-6.192v-1.044l3.336-3.168c.376-.36.63-.674.763-.942.131-.268.197-.534.197-.798,0-.392-.132-.691-.396-.899-.265-.208-.652-.312-1.164-.312-.856,0-1.513.292-1.968.876l-1.093-.84c.328-.44.771-.782,1.326-1.026.556-.243,1.178-.365,1.866-.365.912,0,1.64.216,2.184.647s.816,1.021.816,1.764c0,.456-.096.885-.288,1.284-.192.4-.56.856-1.104,1.368l-2.243,2.136h3.96Z" fill="#000" stroke-width="0"/>
    <path d="M302.793,120.124c.439.212.783.515,1.031.906s.372.844.372,1.356c0,.544-.136,1.021-.408,1.434-.271.412-.64.73-1.104.954s-.984.336-1.56.336c-1.152,0-2.047-.36-2.683-1.08s-.954-1.752-.954-3.096c0-.944.172-1.75.516-2.418.345-.668.826-1.177,1.446-1.524s1.338-.521,2.154-.521c.432,0,.838.046,1.218.138s.71.226.99.401l-.576,1.177c-.416-.272-.948-.408-1.596-.408-.809,0-1.44.248-1.896.744s-.684,1.212-.684,2.147v.013c.248-.288.564-.506.948-.654s.815-.222,1.296-.222c.552,0,1.048.105,1.488.317ZM302.229,123.496c.304-.26.456-.605.456-1.038,0-.439-.152-.788-.456-1.044-.305-.256-.712-.384-1.225-.384-.504,0-.914.136-1.229.408-.316.271-.474.616-.474,1.032,0,.407.153.745.462,1.014.308.268.733.402,1.278.402.487,0,.883-.131,1.188-.391Z" fill="#000" stroke-width="0"/>
    <path d="M310.364,120.85c.408.432.612.972.612,1.62,0,.487-.124.932-.372,1.331-.248.4-.622.719-1.122.954-.5.236-1.109.354-1.83.354-.6,0-1.178-.086-1.733-.258-.557-.172-1.03-.41-1.423-.714l.673-1.213c.304.257.674.459,1.109.606.437.148.886.222,1.351.222.552,0,.985-.113,1.302-.342.315-.228.474-.538.474-.93s-.149-.698-.449-.918c-.301-.22-.759-.33-1.375-.33h-.768v-1.068l1.908-2.268h-3.816v-1.309h5.725v1.044l-2.04,2.425c.775.096,1.368.359,1.775.792Z" fill="#000" stroke-width="0"/>
  </g>
  <rect x="233.478" y="-.193" width="2" height="150" fill="#272824" stroke-width="0"/>
  <g>
    <path d="M42.356,92.751l-7.788-4.648s8.935-7.546,17.326-7.788c8.391-.241,13.343,1.863,23.248,4.07,9.905,2.207,13.42-3.729,13.698-4.432s1.315-1.847,1.268-.423c-.047,1.424-2.596,8.331-12.979,8.452-10.384.121-13.643-2.906-22.578-1.751-8.935,1.156-10.565,5.494-12.195,6.52Z" fill="#e30613" stroke-width="0"/>
    <g>
      <path d="M44.556,77.92c-.337,0-.836-.049-1.497-.148-.662-.098-1.161-.148-1.497-.148-.37,0-.924.049-1.664.148-.74.099-1.299.148-1.676.148-1.126,0-2.083-.333-2.872-.998-.838-.698-1.257-1.602-1.257-2.711,0-.994.374-1.873,1.122-2.638.542-.55,1.38-1.113,2.514-1.688.879-.436,1.762-.871,2.65-1.307l-.419-.284c-.304,0-.754.058-1.35.173-.596.115-1.046.172-1.35.172-.641,0-1.196-.135-1.664-.407-.575-.337-.863-.801-.863-1.393,0-.649.353-1.15,1.06-1.504.55-.271,1.187-.407,1.91-.407h5.398c1.405,0,2.342.489,2.81,1.467.304.641.456,1.754.456,3.34v6.15c.707.444,1.06.81,1.06,1.097,0,.337-.407.591-1.22.764-.55.115-1.101.172-1.651.172ZM43.077,68.369c0-.781-.263-1.384-.789-1.812-.485-.386-1.13-.579-1.935-.579-1.783,0-2.675.32-2.675.961,0,.395.382.592,1.146.592.288,0,.719-.041,1.294-.123.575-.082,1.006-.123,1.294-.123.731,0,1.097.247,1.097.74,0,.435-.407.867-1.22,1.294-1.397.732-2.144,1.134-2.243,1.208-.813.583-1.22,1.282-1.22,2.095,0,1.274.76,1.91,2.28,1.91.361,0,.858-.078,1.491-.234.682-.172,1.175-.267,1.479-.283v-5.645Z" fill="#000" stroke-width="0"/>
      <path d="M53.356,63.229c-.197,0-.481-.066-.85-.197-.37-.131-.653-.197-.85-.197-.427,0-.641.107-.641.321,0,.263.226.658.678,1.183l1.195-.025c1.684-.033,2.559.243,2.625.826-.132.28-.444.563-.937.851-.682.403-1.06.637-1.134.702v8.973c0,.197.168.39.505.579.255.131.509.259.764.382l.16.407c0,.271-.234.489-.703.653-.353.123-.703.185-1.048.185h-2.428c-.37,0-.731-.066-1.085-.197-.452-.164-.694-.395-.727-.69.115-.222.366-.44.752-.654.386-.213.624-.415.715-.604v-8.886c0-.394-.372-.748-1.116-1.06-.744-.312-1.115-.636-1.115-.973,0-.419.575-.575,1.726-.468-1.052-.92-1.578-1.779-1.578-2.576,0-.682.296-1.208.887-1.578.493-.312,1.105-.468,1.836-.468.345,0,.858.062,1.541.185.682.123,1.199.185,1.553.185.567,0,1.052-.123,1.454-.37.329.453.493.903.493,1.348,0,.61-.3,1.134-.9,1.571-.551.396-1.142.594-1.775.594Z" fill="#000" stroke-width="0"/>
      <path d="M85.82,77.625c-.321,0-.795.049-1.424.148-.628.099-1.103.148-1.423.148-1.841,0-3.242-.661-4.203-1.984-.863-1.175-1.294-2.715-1.294-4.622,0-1.668.464-3.159,1.393-4.474,1.035-1.471,2.354-2.206,3.956-2.206.567,0,1.212.128,1.935.382.616.247,1.232.497,1.849.752v-3.328c0-.337-.306-.632-.918-.887-.612-.255-.918-.538-.918-.85,0-.411.242-.616.727-.616h3.254c.633,0,.949.329.949.986v14.568c1.101.592,1.651,1.023,1.651,1.294,0,.559-.846.838-2.539.838-.493,0-1.099-.025-1.818-.074-.719-.049-1.111-.074-1.177-.074ZM86.608,67.235c-.296-.066-.776-.284-1.442-.653-.542-.304-1.085-.456-1.627-.456-1.052,0-1.861.505-2.428,1.516-.46.83-.69,1.816-.69,2.958,0,.838.168,1.607.505,2.305.419.887,1.002,1.331,1.75,1.331h2.613c.329,0,.63-.103.906-.308.275-.205.413-.464.413-.777v-5.916Z" fill="#000" stroke-width="0"/>
      <path d="M101.103,77.92h-4.708c-1.282,0-2.334-.682-3.155-2.046-.715-1.167-1.072-2.44-1.072-3.821,0-1.865.439-3.467,1.319-4.807,1.011-1.545,2.403-2.317,4.178-2.317h3.537c1.947,0,2.921.571,2.921,1.713,0,.969-.592,1.812-1.775,2.527-1.151.6-2.301,1.204-3.451,1.812-1.331.797-2.124,1.738-2.379,2.822.92.485,1.927.727,3.02.727,1.824,0,2.929-.608,3.315-1.824.411.14.754.399,1.029.777.275.378.413.785.413,1.22,0,.854-.321,1.604-.961,2.249-.641.645-1.385.967-2.231.967ZM98.477,66.175c-2.424,0-3.636,1.36-3.636,4.079,0,1.151.185,2.042.555,2.674.378-.994,1.06-1.849,2.046-2.564.797-.468,1.594-.941,2.391-1.417.764-.477,1.146-.974,1.146-1.491,0-.854-.834-1.282-2.502-1.282Z" fill="#000" stroke-width="0"/>
      <path d="M116.94,77.871h-2.391c-.378,0-.744-.058-1.097-.173-.493-.156-.74-.378-.74-.666,0-.205.173-.407.518-.604.263-.131.526-.263.789-.394l.16-.37v-13.668c0-.238-.234-.518-.702-.838-.296-.173-.456-.259-.481-.259.008.016.029.037.062.061l-.148-.357.172-.345.405-.173h3.024c.491,0,.737.189.737.567,0,10.172.054,15.299.162,15.382.771.444,1.173.666,1.206.666,0-.008-.021-.025-.062-.049l.173.382c0,.247-.243.456-.727.629-.394.139-.748.209-1.06.209Z" fill="#000" stroke-width="0"/>
      <path d="M130.756,77.92c-.337,0-.836-.049-1.497-.148-.662-.098-1.161-.148-1.497-.148-.37,0-.924.049-1.664.148-.74.099-1.299.148-1.676.148-1.126,0-2.083-.333-2.872-.998-.838-.698-1.257-1.602-1.257-2.711,0-.994.374-1.873,1.122-2.638.542-.55,1.38-1.113,2.514-1.688.879-.436,1.762-.871,2.65-1.307l-.419-.284c-.304,0-.754.058-1.35.173-.596.115-1.046.172-1.35.172-.641,0-1.196-.135-1.664-.407-.575-.337-.863-.801-.863-1.393,0-.649.353-1.15,1.06-1.504.55-.271,1.187-.407,1.91-.407h5.398c1.405,0,2.342.489,2.81,1.467.304.641.456,1.754.456,3.34v6.15c.707.444,1.06.81,1.06,1.097,0,.337-.407.591-1.22.764-.55.115-1.101.172-1.651.172ZM129.277,68.369c0-.781-.263-1.384-.789-1.812-.485-.386-1.13-.579-1.935-.579-1.783,0-2.675.32-2.675.961,0,.395.382.592,1.146.592.288,0,.719-.041,1.294-.123.575-.082,1.006-.123,1.294-.123.731,0,1.097.247,1.097.74,0,.435-.407.867-1.22,1.294-1.397.732-2.144,1.134-2.243,1.208-.813.583-1.22,1.282-1.22,2.095,0,1.274.76,1.91,2.28,1.91.361,0,.858-.078,1.491-.234.682-.172,1.175-.267,1.479-.283v-5.645Z" fill="#000" stroke-width="0"/>
      <path d="M151.302,71.635c-1.109,0-2.058-.259-2.847-.777-.904-.599-1.356-1.429-1.356-2.49,0-.419.16-.807.481-1.165.321-.358.497-.643.53-.857l-.123-.284.715-.111c.583,0,.974.209,1.171.628.115.394.23.789.345,1.183.156.419.477.628.961.628.723,0,1.269-.321,1.639-.961.304-.517.456-1.167.456-1.947,0-1.126-.429-2.097-1.288-2.915-.859-.818-1.855-1.226-2.989-1.226-1.183,0-1.775.279-1.775.838v4.4c-.551.591-.826,1.204-.826,1.836,0,.846.275,1.545.826,2.095l-.074,2.613c-.033,1.225.054,1.964.26,2.219.082.098.504.37,1.263.813.611.362.917.686.917.974,0,.263-.226.468-.678.616-.345.115-.686.172-1.023.172h-4.252c-1.175,0-1.763-.263-1.763-.789,0-.271.368-.604,1.103-.998.735-.394,1.103-.789,1.103-1.183v-11.696c0-.517-.347-1.006-1.041-1.466-.694-.46-1.041-.764-1.041-.912,0-.107.164-.218.493-.333.854-.304,2.744-.456,5.669-.456,2.44,0,4.396.452,5.867,1.356,1.775,1.101,2.662,2.802,2.662,5.103,0,1.495-.52,2.718-1.559,3.667-1.04.949-2.315,1.423-3.827,1.423Z" fill="#000" stroke-width="0"/>
      <path d="M162.357,77.871h-2.391c-.378,0-.744-.058-1.097-.173-.493-.156-.74-.378-.74-.666,0-.205.173-.407.518-.604.263-.131.526-.263.789-.394l.16-.37v-13.668c0-.238-.234-.518-.702-.838-.296-.173-.456-.259-.481-.259.008.016.029.037.062.061l-.148-.357.172-.345.405-.173h3.024c.491,0,.737.189.737.567,0,10.172.054,15.299.162,15.382.771.444,1.173.666,1.206.666,0-.008-.021-.025-.062-.049l.173.382c0,.247-.243.456-.727.629-.394.139-.748.209-1.06.209Z" fill="#000" stroke-width="0"/>
      <path d="M176.174,77.92c-.337,0-.836-.049-1.497-.148-.662-.098-1.161-.148-1.497-.148-.37,0-.924.049-1.664.148-.74.099-1.299.148-1.676.148-1.126,0-2.083-.333-2.872-.998-.838-.698-1.257-1.602-1.257-2.711,0-.994.374-1.873,1.122-2.638.542-.55,1.38-1.113,2.514-1.688.879-.436,1.762-.871,2.65-1.307l-.419-.284c-.304,0-.754.058-1.35.173-.596.115-1.046.172-1.35.172-.641,0-1.196-.135-1.664-.407-.575-.337-.863-.801-.863-1.393,0-.649.353-1.15,1.06-1.504.55-.271,1.187-.407,1.91-.407h5.398c1.405,0,2.342.489,2.81,1.467.304.641.456,1.754.456,3.34v6.15c.707.444,1.06.81,1.06,1.097,0,.337-.407.591-1.22.764-.55.115-1.101.172-1.651.172ZM174.695,68.369c0-.781-.263-1.384-.789-1.812-.485-.386-1.13-.579-1.935-.579-1.783,0-2.675.32-2.675.961,0,.395.382.592,1.146.592.288,0,.719-.041,1.294-.123.575-.082,1.006-.123,1.294-.123.731,0,1.097.247,1.097.74,0,.435-.407.867-1.22,1.294-1.397.732-2.144,1.134-2.243,1.208-.813.583-1.22,1.282-1.22,2.095,0,1.274.76,1.91,2.28,1.91.361,0,.858-.078,1.491-.234.682-.172,1.175-.267,1.479-.283v-5.645Z" fill="#000" stroke-width="0"/>
      <path d="M189.09,77.92h-4.56c-1.323,0-2.395-.67-3.217-2.009-.707-1.159-1.06-2.444-1.06-3.858,0-2.194.526-3.927,1.578-5.201,1.134-1.38,2.777-2.071,4.93-2.071,2.884,0,4.326.924,4.326,2.773,0,.575-.236,1.062-.709,1.46-.473.399-1,.598-1.584.598-.436,0-.838-.148-1.208-.444-.411-.329-.67-.505-.777-.53l-.357.247c-.255-.131-.382-.353-.382-.666,0-.534.312-.801.937-.801.115,0,.283.01.505.031.222.02.374.031.456.031l.32-.137.136-.286c0-.298-.263-.563-.789-.795-.444-.199-.834-.298-1.171-.298-1.15,0-2.046.457-2.687,1.37-.567.807-.85,1.811-.85,3.012,0,1.621.39,2.74,1.171,3.357.69.551,1.865.827,3.525.827,1.865,0,2.97-.608,3.315-1.824.37.091.703.339.998.746.296.407.444.807.444,1.202,0,.92-.319,1.695-.955,2.323-.637.628-1.415.943-2.336.943Z" fill="#000" stroke-width="0"/>
      <path d="M202.056,77.92h-4.708c-1.282,0-2.334-.682-3.155-2.046-.715-1.167-1.072-2.44-1.072-3.821,0-1.865.439-3.467,1.319-4.807,1.011-1.545,2.403-2.317,4.178-2.317h3.537c1.947,0,2.921.571,2.921,1.713,0,.969-.592,1.812-1.775,2.527-1.151.6-2.301,1.204-3.451,1.812-1.331.797-2.124,1.738-2.379,2.822.92.485,1.927.727,3.02.727,1.824,0,2.929-.608,3.315-1.824.411.14.754.399,1.029.777.275.378.413.785.413,1.22,0,.854-.321,1.604-.961,2.249-.641.645-1.385.967-2.231.967ZM199.431,66.175c-2.424,0-3.636,1.36-3.636,4.079,0,1.151.185,2.042.555,2.674.378-.994,1.06-1.849,2.046-2.564.797-.468,1.594-.941,2.391-1.417.764-.477,1.146-.974,1.146-1.491,0-.854-.834-1.282-2.502-1.282Z" fill="#000" stroke-width="0"/>
    </g>
    <path d="M24.734,86.644c-4.043,0-7.287-1.296-9.731-3.888-2.391-2.538-3.586-5.836-3.586-9.892,0-3.989,1.054-7.495,3.163-10.517,2.364-3.398,5.453-5.097,9.268-5.097,2.324,0,4.372.51,6.145,1.531,2.149,1.222,3.224,2.908,3.224,5.057,0,1.585-.531,2.858-1.591,3.818-1.061.96-2.391,1.44-3.989,1.44-2.109,0-3.546-.766-4.311-2.297-.201-.645-.41-1.289-.625-1.934-.309-.954-.631-1.431-.967-1.431l-.604.564.161.484-.967.363c-.94,0-1.41-.51-1.41-1.531,0-.551.225-1.01.675-1.38.45-.369.95-.554,1.501-.554.685,0,1.491.43,2.418,1.289.927.86,1.726,1.29,2.397,1.29.564,0,1.028-.188,1.39-.564.363-.376.544-.846.544-1.411,0-1.034-.497-1.806-1.491-2.316-.779-.403-1.74-.605-2.881-.605-2.592,0-4.674,1.196-6.245,3.587-1.384,2.082-2.075,4.486-2.075,7.212,0,3.103.994,5.736,2.982,7.898,2.055,2.23,4.62,3.344,7.696,3.344,4.083,0,6.521-1.329,7.313-3.989,1.209.215,1.813,1.357,1.813,3.425,0,2.109-1.242,3.721-3.727,4.835-1.907.846-4.07,1.269-6.487,1.269Z" fill="#000" stroke-width="0"/>
    <path d="M61.823,63.574c-.279,0-.419-.09-.419-.271,0-.09.251-.431.752-1.023.542-.641.85-1.039.924-1.196.049-.123.16-.3.333-.53.197-.18.398-.271.604-.271h1.417c.279,0,.419.123.419.37,0,.567-.538,1.204-1.615,1.91-1.003.674-1.808,1.011-2.416,1.011Z" fill="#e30613" stroke-width="0"/>
  </g>
  <path d="M65.779,77.92h-4.708c-1.282,0-2.334-.682-3.155-2.046-.715-1.167-1.072-2.44-1.072-3.821,0-1.865.439-3.467,1.319-4.807,1.011-1.545,2.403-2.317,4.178-2.317h3.537c1.947,0,2.921.571,2.921,1.713,0,.969-.592,1.812-1.775,2.527-1.151.6-2.301,1.204-3.451,1.812-1.331.797-2.124,1.738-2.379,2.822.92.485,1.927.727,3.02.727,1.824,0,2.929-.608,3.315-1.824.411.14.754.399,1.029.777.275.378.413.785.413,1.22,0,.854-.321,1.604-.961,2.249-.641.645-1.385.967-2.231.967ZM63.154,66.175c-2.424,0-3.636,1.36-3.636,4.079,0,1.151.185,2.042.555,2.674.378-.994,1.06-1.849,2.046-2.564.797-.468,1.594-.941,2.391-1.417.764-.477,1.146-.974,1.146-1.491,0-.854-.834-1.282-2.502-1.282Z" fill="#000" stroke-width="0"/>
  <rect y="-.193" width="522" height="150" fill="none" stroke-width="0"/>
</svg>