<?xml version="1.0" encoding="UTF-8"?>
<svg id="Calque_1" data-name="Calque 1" xmlns="http://www.w3.org/2000/svg" viewBox="0 0 522 151.55">
  <defs>
    <style>
      .cls-1 {
        fill: #272824;
      }

      .cls-1, .cls-2, .cls-3 {
        stroke-width: 0px;
      }

      .cls-2 {
        fill: #e30613;
      }

      .cls-3 {
        fill: #1d1d1b;
      }
    </style>
  </defs>
  <g>
    <rect class="cls-1" x="233.48" y=".77" width="2" height="150"/>
    <g>
      <path class="cls-3" d="M244.78,26.16h1.82v8.26h5.12v1.54h-6.94v-9.8Z"/>
      <path class="cls-3" d="M259.93,32.78h-5.87c.1.55.37.99.8,1.31.43.32.97.48,1.62.48.82,0,1.5-.27,2.03-.81l.94,1.08c-.34.4-.76.71-1.27.91s-1.09.31-1.74.31c-.82,0-1.54-.16-2.17-.49-.63-.33-1.11-.78-1.45-1.37s-.51-1.24-.51-1.98.17-1.38.5-1.97c.33-.58.79-1.04,1.38-1.37.59-.33,1.25-.49,1.99-.49s1.38.16,1.95.48c.57.32,1.02.78,1.34,1.36.32.58.48,1.26.48,2.02,0,.12,0,.29-.03.52ZM254.76,30.29c-.39.33-.62.77-.71,1.32h4.24c-.07-.54-.3-.98-.69-1.32-.38-.34-.86-.5-1.43-.5s-1.03.17-1.42.5Z"/>
      <path class="cls-3" d="M266.85,35.57c-.62-.33-1.1-.78-1.44-1.37-.35-.58-.52-1.24-.52-1.98s.17-1.39.52-1.97c.34-.58.82-1.03,1.43-1.36.61-.33,1.31-.49,2.09-.49.74,0,1.38.15,1.94.45.56.3.97.73,1.25,1.29l-1.34.78c-.21-.34-.48-.6-.81-.78-.32-.17-.67-.26-1.06-.26-.65,0-1.19.21-1.62.64-.43.42-.64.99-.64,1.7s.21,1.28.64,1.7.97.64,1.63.64c.38,0,.74-.09,1.06-.26s.59-.43.81-.78l1.34.78c-.29.56-.71.99-1.27,1.29-.56.3-1.2.46-1.93.46-.77,0-1.47-.16-2.09-.49Z"/>
      <path class="cls-3" d="M279.02,29.19c.58.53.88,1.32.88,2.39v4.38h-1.65v-.91c-.21.33-.52.58-.92.75s-.88.26-1.44.26-1.05-.1-1.47-.29c-.42-.19-.74-.46-.97-.8-.23-.34-.34-.73-.34-1.15,0-.67.25-1.21.75-1.62.5-.41,1.29-.61,2.36-.61h1.93v-.11c0-.52-.16-.92-.47-1.2-.31-.28-.78-.42-1.39-.42-.42,0-.83.06-1.24.2-.41.13-.75.31-1.03.55l-.69-1.27c.39-.3.86-.53,1.41-.69.55-.16,1.13-.24,1.75-.24,1.1,0,1.94.26,2.53.79ZM277.42,34.48c.34-.2.58-.49.72-.86v-.87h-1.81c-1.01,0-1.51.33-1.51.99,0,.32.13.57.38.76s.6.28,1.05.28.83-.1,1.17-.3Z"/>
      <path class="cls-3" d="M284.07,28.09v.45h2.06v1.4h-2v6.02h-1.75v-6.02h-1.23v-1.4h1.23v-.48c0-.8.23-1.43.7-1.9.47-.46,1.12-.69,1.97-.69.67,0,1.2.14,1.58.41l-.49,1.32c-.3-.21-.62-.31-.97-.31-.74,0-1.11.4-1.11,1.2Z"/>
      <path class="cls-3" d="M294.19,32.78h-5.87c.1.55.37.99.81,1.31s.97.48,1.62.48c.82,0,1.5-.27,2.03-.81l.94,1.08c-.34.4-.76.71-1.27.91-.51.21-1.09.31-1.74.31-.82,0-1.54-.16-2.17-.49-.62-.33-1.11-.78-1.45-1.37-.34-.58-.51-1.24-.51-1.98s.17-1.38.5-1.97.79-1.04,1.38-1.37c.59-.33,1.25-.49,1.99-.49s1.38.16,1.95.48,1.02.78,1.34,1.36c.32.58.48,1.26.48,2.02,0,.12,0,.29-.03.52ZM289.01,30.29c-.39.33-.62.77-.71,1.32h4.24c-.08-.54-.3-.98-.69-1.32s-.86-.5-1.43-.5-1.03.17-1.42.5ZM291.11,25.54h2.06l-2.44,1.92h-1.51l1.89-1.92Z"/>
      <path class="cls-3" d="M307.08,25.57v10.39h-1.68v-.97c-.29.35-.65.62-1.07.8s-.89.27-1.41.27c-.72,0-1.36-.16-1.94-.48s-1.02-.77-1.35-1.35c-.33-.58-.49-1.25-.49-2.01s.16-1.42.49-2c.33-.58.78-1.03,1.35-1.34s1.22-.48,1.94-.48c.49,0,.95.08,1.36.25s.76.42,1.05.76v-3.84h1.75ZM304.27,34.27c.34-.19.6-.46.8-.82.2-.35.29-.77.29-1.23s-.1-.88-.29-1.23c-.2-.35-.46-.63-.8-.82s-.71-.29-1.13-.29-.8.1-1.13.29c-.34.19-.6.46-.8.82-.2.35-.29.76-.29,1.23s.1.88.29,1.23c.2.35.46.63.8.82.34.19.71.29,1.13.29s.8-.09,1.13-.29Z"/>
      <path class="cls-3" d="M316.38,32.78h-5.87c.1.55.37.99.81,1.31.43.32.97.48,1.62.48.82,0,1.5-.27,2.03-.81l.94,1.08c-.34.4-.76.71-1.27.91-.51.21-1.09.31-1.74.31-.82,0-1.54-.16-2.17-.49-.63-.33-1.11-.78-1.45-1.37-.34-.58-.51-1.24-.51-1.98s.17-1.38.5-1.97c.33-.58.79-1.04,1.38-1.37.59-.33,1.25-.49,1.99-.49s1.38.16,1.95.48,1.02.78,1.34,1.36.48,1.26.48,2.02c0,.12,0,.29-.03.52ZM311.2,30.29c-.39.33-.62.77-.71,1.32h4.24c-.07-.54-.3-.98-.69-1.32-.38-.34-.86-.5-1.43-.5s-1.03.17-1.42.5Z"/>
      <path class="cls-3" d="M321.95,25.57h1.75v10.39h-1.75v-10.39Z"/>
      <path class="cls-3" d="M331.38,29.19c.58.53.88,1.32.88,2.39v4.38h-1.65v-.91c-.21.33-.52.58-.92.75-.4.17-.88.26-1.43.26s-1.05-.1-1.47-.29c-.42-.19-.74-.46-.97-.8-.23-.34-.34-.73-.34-1.15,0-.67.25-1.21.75-1.62.5-.41,1.29-.61,2.36-.61h1.93v-.11c0-.52-.16-.92-.47-1.2-.31-.28-.78-.42-1.39-.42-.42,0-.83.06-1.24.2s-.75.31-1.03.55l-.69-1.27c.39-.3.86-.53,1.41-.69.55-.16,1.13-.24,1.75-.24,1.1,0,1.94.26,2.53.79ZM329.78,34.48c.34-.2.58-.49.72-.86v-.87h-1.81c-1.01,0-1.51.33-1.51.99,0,.32.13.57.38.76s.6.28,1.05.28.83-.1,1.17-.3Z"/>
      <path class="cls-3" d="M344.45,28.87c.57.32,1.02.77,1.35,1.34.33.58.49,1.25.49,2s-.16,1.43-.49,2.01c-.33.58-.78,1.03-1.35,1.35-.57.32-1.23.48-1.95.48-1.01,0-1.81-.34-2.39-1.01v3.63h-1.75v-10.19h1.67v.98c.29-.35.65-.62,1.07-.8.42-.18.89-.27,1.41-.27.73,0,1.38.16,1.95.48ZM343.89,33.91c.42-.43.62-.99.62-1.69s-.21-1.26-.62-1.69c-.42-.43-.95-.64-1.59-.64-.42,0-.8.1-1.13.29-.34.19-.6.46-.8.82s-.29.76-.29,1.23.1.88.29,1.23.46.63.8.82c.34.19.71.29,1.13.29.64,0,1.17-.21,1.59-.64Z"/>
      <path class="cls-3" d="M347.96,25.57h1.75v10.39h-1.75v-10.39Z"/>
      <path class="cls-3" d="M357.39,29.19c.58.53.88,1.32.88,2.39v4.38h-1.65v-.91c-.21.33-.52.58-.92.75-.4.17-.88.26-1.44.26s-1.05-.1-1.47-.29c-.42-.19-.74-.46-.97-.8-.23-.34-.34-.73-.34-1.15,0-.67.25-1.21.75-1.62s1.29-.61,2.36-.61h1.93v-.11c0-.52-.16-.92-.47-1.2-.31-.28-.78-.42-1.39-.42-.42,0-.83.06-1.24.2s-.75.31-1.03.55l-.69-1.27c.39-.3.86-.53,1.41-.69.55-.16,1.13-.24,1.75-.24,1.1,0,1.94.26,2.53.79ZM355.79,34.48c.34-.2.58-.49.72-.86v-.87h-1.81c-1.01,0-1.51.33-1.51.99,0,.32.13.57.38.76s.6.28,1.05.28.83-.1,1.17-.3Z"/>
      <path class="cls-3" d="M361.92,35.57c-.62-.33-1.1-.78-1.44-1.37s-.52-1.24-.52-1.98.17-1.39.52-1.97.82-1.03,1.44-1.36c.61-.33,1.31-.49,2.09-.49.74,0,1.38.15,1.94.45.55.3.97.73,1.25,1.29l-1.34.78c-.21-.34-.48-.6-.81-.78-.32-.17-.67-.26-1.06-.26-.65,0-1.2.21-1.62.64-.43.42-.64.99-.64,1.7s.21,1.28.64,1.7c.42.42.97.64,1.63.64.38,0,.73-.09,1.06-.26.32-.17.59-.43.81-.78l1.34.78c-.29.56-.71.99-1.27,1.29-.56.3-1.2.46-1.92.46-.77,0-1.47-.16-2.09-.49Z"/>
      <path class="cls-3" d="M375.6,32.78h-5.87c.1.55.37.99.81,1.31.43.32.97.48,1.62.48.82,0,1.5-.27,2.03-.81l.94,1.08c-.34.4-.76.71-1.27.91-.51.21-1.09.31-1.74.31-.82,0-1.54-.16-2.17-.49-.63-.33-1.11-.78-1.45-1.37-.34-.58-.51-1.24-.51-1.98s.17-1.38.5-1.97c.33-.58.79-1.04,1.38-1.37.59-.33,1.25-.49,1.99-.49s1.38.16,1.95.48,1.02.78,1.34,1.36.48,1.26.48,2.02c0,.12,0,.29-.03.52ZM370.42,30.29c-.39.33-.62.77-.71,1.32h4.24c-.07-.54-.3-.98-.69-1.32-.38-.34-.86-.5-1.43-.5s-1.03.17-1.42.5Z"/>
      <path class="cls-3" d="M380.79,31.34h3.85v1.46h-3.85v-1.46Z"/>
      <path class="cls-3" d="M392.02,35.5c-.68-.37-1.21-.88-1.59-1.54-.38-.65-.58-1.39-.58-2.2s.19-1.55.58-2.2c.38-.65.92-1.16,1.6-1.54.68-.37,1.44-.56,2.28-.56.66,0,1.26.11,1.8.33s1.01.55,1.39.98l-.78.76c-.63-.66-1.42-1-2.36-1-.62,0-1.19.14-1.69.42s-.9.67-1.18,1.16c-.28.49-.43,1.04-.43,1.65s.14,1.16.43,1.65c.28.49.68.88,1.18,1.16.5.28,1.07.42,1.69.42.94,0,1.72-.34,2.36-1.01l.78.76c-.38.43-.85.76-1.4.98-.55.22-1.15.34-1.81.34-.84,0-1.6-.19-2.27-.56Z"/>
      <path class="cls-3" d="M403.29,30.19c.47.43.7,1.08.7,1.93v3.84h-1.09v-.84c-.19.3-.47.52-.82.68s-.78.23-1.27.23c-.71,0-1.28-.17-1.71-.52-.43-.34-.64-.8-.64-1.36s.2-1.01.61-1.35c.41-.34,1.06-.51,1.94-.51h1.82v-.23c0-.5-.14-.88-.43-1.14-.29-.26-.71-.4-1.27-.4-.38,0-.74.06-1.1.19s-.66.29-.91.5l-.48-.86c.33-.26.72-.47,1.18-.61s.94-.21,1.45-.21c.88,0,1.55.22,2.02.65ZM402.15,34.85c.32-.2.55-.47.7-.83v-.89h-1.78c-.98,0-1.46.33-1.46.98,0,.32.12.57.37.76.25.18.59.28,1.03.28s.82-.1,1.14-.29Z"/>
      <path class="cls-3" d="M407.43,29.05v.55h1.85v.95h-1.82v5.41h-1.15v-5.41h-1.08v-.95h1.08v-.56c0-.63.18-1.13.55-1.5.37-.37.88-.55,1.55-.55.26,0,.5.03.72.1.22.06.42.16.58.28l-.35.88c-.26-.2-.56-.3-.89-.3-.69,0-1.03.37-1.03,1.12Z"/>
      <path class="cls-3" d="M416,33.16h-5.16c.07.56.32,1.01.74,1.35.42.34.94.51,1.57.51.76,0,1.37-.26,1.84-.77l.64.74c-.29.34-.65.59-1.07.77-.43.18-.91.26-1.43.26-.67,0-1.27-.14-1.79-.41-.52-.28-.92-.66-1.21-1.16s-.43-1.06-.43-1.68.14-1.17.41-1.67c.28-.5.66-.88,1.14-1.16.48-.28,1.03-.41,1.64-.41s1.15.14,1.63.41c.48.28.85.66,1.12,1.16.27.5.4,1.06.4,1.7,0,.09,0,.2-.02.35ZM411.49,31.01c-.37.34-.59.78-.65,1.32h4.08c-.06-.54-.28-.97-.65-1.31-.37-.34-.83-.51-1.39-.51s-1.01.17-1.39.5ZM413.6,27.11h1.46l-2.02,1.56h-1.08l1.63-1.56Z"/>
      <path class="cls-3" d="M420.44,32.17h3.23v1h-3.23v-1Z"/>
      <path class="cls-3" d="M433.7,29.95c.49.27.87.65,1.15,1.14s.41,1.05.41,1.69-.14,1.21-.41,1.7c-.28.49-.66.88-1.15,1.15-.49.27-1.04.41-1.66.41-.47,0-.9-.09-1.3-.28-.39-.18-.72-.45-.97-.8v1.01h-1.1v-8.9h1.15v3.5c.26-.34.58-.59.96-.76s.8-.26,1.26-.26c.62,0,1.17.14,1.66.41ZM433.04,34.74c.32-.19.58-.45.77-.79s.28-.73.28-1.17-.09-.83-.28-1.17-.44-.6-.77-.79c-.32-.18-.69-.28-1.1-.28s-.76.09-1.09.28c-.33.18-.58.45-.77.79-.18.34-.28.73-.28,1.17s.09.83.28,1.17c.18.34.44.6.77.79.33.19.69.28,1.09.28s.77-.09,1.1-.28Z"/>
      <path class="cls-3" d="M441.13,30.19c.47.43.7,1.08.7,1.93v3.84h-1.09v-.84c-.19.3-.47.52-.82.68-.36.16-.78.23-1.27.23-.71,0-1.28-.17-1.71-.52-.43-.34-.64-.8-.64-1.36s.2-1.01.61-1.35c.41-.34,1.06-.51,1.94-.51h1.82v-.23c0-.5-.14-.88-.43-1.14-.29-.26-.71-.4-1.27-.4-.38,0-.74.06-1.1.19-.36.12-.66.29-.91.5l-.48-.86c.33-.26.72-.47,1.18-.61s.94-.21,1.45-.21c.88,0,1.55.22,2.02.65ZM439.98,34.85c.32-.2.55-.47.7-.83v-.89h-1.78c-.98,0-1.46.33-1.46.98,0,.32.12.57.37.76.25.18.59.28,1.03.28s.82-.1,1.14-.29Z"/>
      <path class="cls-3" d="M445.96,29.83c.39-.19.87-.29,1.43-.29v1.12c-.06,0-.15-.01-.26-.01-.62,0-1.11.19-1.47.56-.36.37-.53.9-.53,1.59v3.17h-1.15v-6.36h1.1v1.07c.2-.37.5-.65.89-.84Z"/>
      <path class="cls-3" d="M451.71,32.17h3.23v1h-3.23v-1Z"/>
      <path class="cls-3" d="M465.95,28.34c.62.52.94,1.24.94,2.15s-.31,1.63-.94,2.15c-.62.52-1.48.78-2.57.78h-2.08v2.54h-1.2v-8.4h3.28c1.09,0,1.94.26,2.57.78ZM465.09,31.88c.4-.32.6-.79.6-1.4s-.2-1.07-.6-1.4c-.4-.32-.98-.49-1.74-.49h-2.04v3.77h2.04c.76,0,1.34-.16,1.74-.49Z"/>
      <path class="cls-3" d="M476.44,35.96v-6.12s-3.05,5.1-3.05,5.1h-.55l-3.04-5.06v6.08h-1.15v-8.4h.98l3.5,5.9,3.46-5.9h.98v8.4s-1.14,0-1.14,0Z"/>
      <path class="cls-3" d="M480.98,35.09c-.62-.64-.94-1.56-.94-2.76v-4.78h1.2v4.73c0,1.8.79,2.7,2.36,2.7.77,0,1.36-.22,1.76-.67.41-.44.61-1.12.61-2.03v-4.73h1.16v4.78c0,1.21-.31,2.13-.94,2.77-.62.64-1.5.95-2.62.95s-1.99-.32-2.62-.96Z"/>
      <path class="cls-3" d="M251.53,50.34c.28.36.42.81.42,1.35,0,.73-.27,1.29-.82,1.68s-1.35.59-2.39.59h-4.01v-8.4h3.77c.96,0,1.7.19,2.23.58.52.38.79.92.79,1.6,0,.44-.1.82-.31,1.14s-.48.56-.82.73c.49.14.87.38,1.15.74ZM245.93,46.53v2.69h2.46c.62,0,1.09-.11,1.42-.34.33-.23.5-.56.5-1s-.17-.77-.5-1c-.33-.23-.81-.34-1.42-.34h-2.46ZM250.22,52.65c.34-.22.52-.58.52-1.06,0-.94-.68-1.4-2.05-1.4h-2.76v2.8h2.76c.68,0,1.19-.11,1.54-.34Z"/>
      <path class="cls-3" d="M255.63,47.83c.39-.19.87-.29,1.43-.29v1.12c-.06,0-.15-.01-.26-.01-.62,0-1.11.19-1.47.56-.36.37-.53.9-.53,1.59v3.17h-1.15v-6.36h1.1v1.07c.2-.37.5-.65.89-.84Z"/>
      <path class="cls-3" d="M262.8,48.19c.47.43.7,1.08.7,1.93v3.84h-1.09v-.84c-.19.3-.47.52-.82.68-.36.16-.78.23-1.27.23-.71,0-1.28-.17-1.71-.52-.43-.34-.64-.8-.64-1.36s.2-1.01.61-1.35c.41-.34,1.06-.51,1.94-.51h1.82v-.23c0-.5-.14-.88-.43-1.14-.29-.26-.71-.4-1.27-.4-.38,0-.74.06-1.1.19-.36.12-.66.29-.91.5l-.48-.86c.33-.26.72-.47,1.18-.61s.94-.21,1.45-.21c.88,0,1.55.22,2.02.65ZM261.66,52.85c.32-.2.55-.47.7-.83v-.89h-1.78c-.98,0-1.46.33-1.46.98,0,.32.12.57.37.76.25.18.59.28,1.03.28s.82-.1,1.14-.29Z"/>
      <path class="cls-3" d="M265.97,53.82c-.48-.14-.86-.32-1.13-.53l.48-.91c.28.2.62.36,1.02.48.4.12.8.18,1.21.18,1.01,0,1.51-.29,1.51-.86,0-.19-.07-.34-.2-.46-.14-.11-.31-.19-.51-.25-.2-.05-.49-.11-.87-.17-.51-.08-.93-.17-1.25-.28-.32-.1-.6-.28-.83-.53-.23-.25-.35-.6-.35-1.04,0-.58.24-1.04.72-1.39.48-.35,1.12-.52,1.93-.52.42,0,.85.05,1.27.16.42.1.77.24,1.04.42l-.49.91c-.52-.34-1.13-.5-1.84-.5-.49,0-.86.08-1.12.24-.26.16-.38.37-.38.64,0,.21.07.37.22.49.14.12.32.21.53.26.21.06.51.12.89.19.51.09.93.18,1.24.28.32.1.59.27.81.51.22.24.34.58.34,1.01,0,.58-.25,1.03-.74,1.37-.49.34-1.16.51-2.01.51-.52,0-1.02-.07-1.5-.21Z"/>
      <path class="cls-3" d="M271.98,53.82c-.48-.14-.86-.32-1.13-.53l.48-.91c.28.2.62.36,1.02.48.4.12.8.18,1.21.18,1.01,0,1.51-.29,1.51-.86,0-.19-.07-.34-.2-.46-.14-.11-.31-.19-.51-.25-.2-.05-.49-.11-.87-.17-.51-.08-.93-.17-1.25-.28-.32-.1-.6-.28-.83-.53s-.35-.6-.35-1.04c0-.58.24-1.04.72-1.39.48-.35,1.12-.52,1.93-.52.42,0,.85.05,1.27.16.42.1.77.24,1.04.42l-.49.91c-.52-.34-1.13-.5-1.84-.5-.49,0-.86.08-1.12.24-.26.16-.38.37-.38.64,0,.21.07.37.22.49s.32.21.53.26c.21.06.51.12.89.19.51.09.93.18,1.24.28.32.1.59.27.81.51.22.24.34.58.34,1.01,0,.58-.25,1.03-.74,1.37-.49.34-1.16.51-2.01.51-.52,0-1.02-.07-1.5-.21Z"/>
      <path class="cls-3" d="M283.39,51.16h-5.16c.07.56.32,1.01.74,1.35.42.34.94.51,1.57.51.76,0,1.37-.26,1.84-.77l.64.74c-.29.34-.65.59-1.07.77-.43.18-.91.26-1.43.26-.67,0-1.27-.14-1.79-.41-.52-.28-.92-.66-1.21-1.16s-.43-1.06-.43-1.68.14-1.17.41-1.67c.28-.5.66-.88,1.14-1.16.48-.28,1.03-.41,1.64-.41s1.15.14,1.63.41c.48.28.85.66,1.12,1.16.27.5.4,1.06.4,1.7,0,.09,0,.2-.02.35ZM278.88,49.01c-.37.34-.59.78-.65,1.32h4.08c-.06-.54-.28-.97-.65-1.31-.37-.34-.83-.51-1.39-.51s-1.01.17-1.39.5Z"/>
      <path class="cls-3" d="M287,47.83c.39-.19.87-.29,1.43-.29v1.12c-.06,0-.15-.01-.26-.01-.62,0-1.11.19-1.47.56s-.53.9-.53,1.59v3.17h-1.15v-6.36h1.1v1.07c.2-.37.5-.65.89-.84Z"/>
      <path class="cls-3" d="M289.86,46.16c-.15-.14-.22-.32-.22-.53s.07-.39.22-.53c.15-.15.33-.22.56-.22s.41.07.56.21c.15.14.22.31.22.52s-.07.4-.22.55c-.15.15-.33.22-.56.22s-.41-.07-.56-.22ZM289.85,47.6h1.15v6.36h-1.15v-6.36Z"/>
      <path class="cls-3" d="M298.92,51.16h-5.16c.07.56.32,1.01.74,1.35.42.34.94.51,1.57.51.76,0,1.37-.26,1.84-.77l.64.74c-.29.34-.65.59-1.07.77-.43.18-.91.26-1.43.26-.67,0-1.27-.14-1.79-.41-.52-.28-.92-.66-1.21-1.16s-.43-1.06-.43-1.68.14-1.17.41-1.67c.28-.5.66-.88,1.14-1.16.48-.28,1.03-.41,1.64-.41s1.15.14,1.63.41c.48.28.85.66,1.12,1.16.27.5.4,1.06.4,1.7,0,.09,0,.2-.02.35ZM294.41,49.01c-.37.34-.59.78-.65,1.32h4.08c-.06-.54-.28-.97-.65-1.31-.37-.34-.83-.51-1.39-.51s-1.01.17-1.39.5Z"/>
      <path class="cls-3" d="M251.35,87.89h-1.6v2.06h-1.16v-2.06h-4.67v-.84l4.3-5.5h1.3l-4.12,5.3h3.23v-1.82h1.13v1.82h1.6v1.03Z"/>
      <path class="cls-3" d="M257.81,83.83c.39-.19.87-.29,1.43-.29v1.12c-.06,0-.15-.01-.26-.01-.62,0-1.11.19-1.47.56-.36.37-.53.9-.53,1.59v3.17h-1.15v-6.36h1.1v1.07c.2-.37.5-.65.89-.84Z"/>
      <path class="cls-3" d="M266.66,83.6v6.36h-1.09v-.96c-.23.33-.54.58-.92.76-.38.18-.79.27-1.24.27-.85,0-1.52-.23-2-.7s-.73-1.16-.73-2.07v-3.66h1.15v3.53c0,.62.15,1.08.44,1.4.3.32.72.47,1.27.47.61,0,1.09-.18,1.44-.55s.53-.89.53-1.56v-3.29h1.15Z"/>
      <path class="cls-3" d="M274.58,87.16h-5.16c.07.56.32,1.01.74,1.35.42.34.94.51,1.57.51.76,0,1.37-.26,1.84-.77l.64.74c-.29.34-.65.59-1.07.77-.43.18-.91.26-1.43.26-.67,0-1.27-.14-1.79-.41-.52-.28-.92-.66-1.21-1.16-.28-.5-.43-1.06-.43-1.68s.14-1.17.41-1.67c.28-.5.66-.88,1.14-1.16.48-.28,1.03-.41,1.64-.41s1.15.14,1.63.41c.48.28.85.66,1.12,1.16s.4,1.06.4,1.7c0,.09,0,.2-.02.35ZM270.08,85.01c-.37.34-.59.78-.65,1.32h4.08c-.06-.54-.28-.97-.65-1.31-.37-.34-.83-.51-1.39-.51s-1.01.17-1.39.5Z"/>
      <path class="cls-3" d="M285.43,81.05v8.9h-1.1v-1.01c-.26.35-.58.62-.97.8-.39.18-.82.28-1.3.28-.62,0-1.17-.14-1.66-.41-.49-.27-.87-.65-1.15-1.15-.28-.49-.41-1.06-.41-1.7s.14-1.2.41-1.69c.28-.49.66-.87,1.15-1.14.49-.27,1.04-.41,1.66-.41.46,0,.88.09,1.26.26.38.17.7.43.96.76v-3.5h1.15ZM283.25,88.74c.33-.19.58-.45.77-.79.18-.34.28-.73.28-1.17s-.09-.83-.28-1.17c-.18-.34-.44-.6-.77-.79-.33-.18-.69-.28-1.09-.28s-.77.09-1.1.28c-.32.18-.58.45-.77.79s-.28.73-.28,1.17.09.83.28,1.17.44.6.77.79c.32.19.69.28,1.1.28s.76-.09,1.09-.28Z"/>
      <path class="cls-3" d="M293.54,83.6v6.36h-1.09v-.96c-.23.33-.54.58-.92.76-.38.18-.79.27-1.24.27-.85,0-1.52-.23-2-.7-.49-.47-.73-1.16-.73-2.07v-3.66h1.15v3.53c0,.62.15,1.08.44,1.4.3.32.72.47,1.27.47.61,0,1.09-.18,1.44-.55s.53-.89.53-1.56v-3.29h1.15Z"/>
      <path class="cls-3" d="M304.98,82.34c.62.52.94,1.24.94,2.15s-.31,1.63-.94,2.15c-.62.52-1.48.78-2.57.78h-2.08v2.54h-1.2v-8.4h3.28c1.09,0,1.94.26,2.57.78ZM304.11,85.88c.4-.32.6-.79.6-1.4s-.2-1.07-.6-1.4c-.4-.32-.98-.49-1.74-.49h-2.04v3.77h2.04c.76,0,1.34-.16,1.74-.49Z"/>
      <path class="cls-3" d="M311.79,84.19c.47.43.7,1.08.7,1.93v3.84h-1.09v-.84c-.19.3-.47.52-.82.68-.36.16-.78.23-1.27.23-.71,0-1.28-.17-1.71-.52-.43-.34-.64-.8-.64-1.36s.2-1.01.61-1.35c.41-.34,1.06-.51,1.94-.51h1.82v-.23c0-.5-.14-.88-.43-1.14-.29-.26-.71-.4-1.27-.4-.38,0-.74.06-1.1.19-.36.12-.66.29-.91.5l-.48-.86c.33-.26.72-.47,1.18-.61s.94-.21,1.45-.21c.88,0,1.55.22,2.02.65ZM310.64,88.85c.32-.2.55-.47.7-.83v-.89h-1.78c-.98,0-1.46.33-1.46.98,0,.32.12.57.37.76.25.18.59.28,1.03.28s.82-.1,1.14-.29Z"/>
      <path class="cls-3" d="M320.13,83.6l-3.08,7c-.27.65-.59,1.1-.95,1.37-.36.26-.8.4-1.31.4-.31,0-.61-.05-.91-.15-.29-.1-.53-.25-.73-.44l.49-.86c.33.31.71.47,1.14.47.28,0,.51-.07.7-.22.19-.15.36-.4.51-.76l.2-.44-2.81-6.35h1.2l2.22,5.09,2.2-5.09h1.13Z"/>
      <path class="cls-3" d="M321.45,89.82c-.48-.14-.86-.32-1.13-.53l.48-.91c.28.2.62.36,1.02.48.4.12.8.18,1.21.18,1.01,0,1.51-.29,1.51-.86,0-.19-.07-.34-.2-.46-.14-.11-.31-.19-.51-.25-.2-.05-.49-.11-.87-.17-.51-.08-.93-.17-1.25-.28-.32-.1-.6-.28-.83-.53-.23-.25-.35-.6-.35-1.04,0-.58.24-1.04.72-1.39.48-.35,1.12-.52,1.93-.52.42,0,.85.05,1.27.16.42.1.77.24,1.04.42l-.49.91c-.52-.34-1.13-.5-1.84-.5-.49,0-.86.08-1.12.24-.26.16-.38.37-.38.64,0,.21.07.37.22.49.14.12.32.21.53.26.21.06.51.12.89.19.51.09.93.18,1.24.28.32.1.59.27.81.51.22.24.34.58.34,1.01,0,.58-.25,1.03-.74,1.37-.49.34-1.16.51-2.01.51-.52,0-1.02-.07-1.5-.21Z"/>
      <path class="cls-3" d="M336.37,81.05v8.9h-1.1v-1.01c-.26.35-.58.62-.97.8-.39.18-.82.28-1.3.28-.62,0-1.17-.14-1.66-.41-.49-.27-.87-.65-1.15-1.15-.28-.49-.41-1.06-.41-1.7s.14-1.2.41-1.69c.28-.49.66-.87,1.15-1.14.49-.27,1.04-.41,1.66-.41.46,0,.88.09,1.26.26.38.17.7.43.96.76v-3.5h1.15ZM334.18,88.74c.33-.19.58-.45.77-.79.18-.34.28-.73.28-1.17s-.09-.83-.28-1.17c-.18-.34-.44-.6-.77-.79-.33-.18-.69-.28-1.09-.28s-.77.09-1.1.28c-.32.18-.58.45-.77.79s-.28.73-.28,1.17.09.83.28,1.17.44.6.77.79c.32.19.69.28,1.1.28s.76-.09,1.09-.28Z"/>
      <path class="cls-3" d="M344.28,87.16h-5.16c.07.56.32,1.01.74,1.35.42.34.94.51,1.57.51.76,0,1.37-.26,1.84-.77l.64.74c-.29.34-.65.59-1.07.77-.43.18-.91.26-1.43.26-.67,0-1.27-.14-1.79-.41-.52-.28-.92-.66-1.21-1.16-.28-.5-.43-1.06-.43-1.68s.14-1.17.41-1.67c.28-.5.66-.88,1.14-1.16.48-.28,1.03-.41,1.64-.41s1.15.14,1.63.41c.48.28.85.66,1.12,1.16s.4,1.06.4,1.7c0,.09,0,.2-.02.35ZM339.77,85.01c-.37.34-.59.78-.65,1.32h4.08c-.06-.54-.28-.97-.65-1.31-.37-.34-.83-.51-1.39-.51s-1.01.17-1.39.5Z"/>
      <path class="cls-3" d="M354.91,89.96l-1.81-2.58c-.22.02-.4.02-.53.02h-2.08v2.56h-1.2v-8.4h3.28c1.09,0,1.94.26,2.57.78.62.52.94,1.24.94,2.15,0,.65-.16,1.2-.48,1.66-.32.46-.78.79-1.37,1l1.99,2.82h-1.31ZM354.27,85.89c.4-.33.6-.8.6-1.4s-.2-1.07-.6-1.4-.98-.49-1.74-.49h-2.04v3.78h2.04c.76,0,1.34-.16,1.74-.49Z"/>
      <path class="cls-3" d="M363.57,87.16h-5.16c.07.56.32,1.01.74,1.35.42.34.94.51,1.57.51.76,0,1.37-.26,1.84-.77l.64.74c-.29.34-.65.59-1.07.77-.43.18-.91.26-1.43.26-.67,0-1.27-.14-1.79-.41-.52-.28-.92-.66-1.21-1.16s-.43-1.06-.43-1.68.14-1.17.41-1.67c.28-.5.66-.88,1.14-1.16.48-.28,1.03-.41,1.64-.41s1.15.14,1.63.41c.48.28.85.66,1.12,1.16.27.5.4,1.06.4,1.7,0,.09,0,.2-.02.35ZM359.07,85.01c-.37.34-.59.78-.65,1.32h4.08c-.06-.54-.28-.97-.65-1.31-.37-.34-.83-.51-1.39-.51s-1.01.17-1.39.5Z"/>
      <path class="cls-3" d="M368.77,89.59c-.17.14-.38.25-.62.33s-.5.11-.77.11c-.64,0-1.14-.17-1.49-.52-.35-.34-.53-.84-.53-1.48v-3.49h-1.08v-.95h1.08v-1.39h1.15v1.39h1.82v.95h-1.82v3.44c0,.34.09.61.26.79.17.18.42.28.74.28.35,0,.65-.1.9-.3l.36.83Z"/>
      <path class="cls-3" d="M374.88,89.01v.95h-5.33v-.74l3.76-4.67h-3.68v-.95h5.16v.76l-3.76,4.66h3.85Z"/>
      <path class="cls-3" d="M377.29,88.62c.15.16.22.35.22.58,0,.12-.01.24-.04.35-.03.11-.08.28-.16.52l-.56,1.67h-.76l.44-1.79c-.15-.06-.27-.15-.37-.28s-.14-.29-.14-.46c0-.24.08-.44.23-.59.15-.15.34-.23.58-.23s.41.08.56.23Z"/>
      <path class="cls-3" d="M251.35,105.89h-1.6v2.06h-1.16v-2.06h-4.67v-.84l4.3-5.5h1.3l-4.12,5.3h3.23v-1.82h1.13v1.82h1.6v1.03Z"/>
      <path class="cls-3" d="M259.38,105.89h-1.6v2.06h-1.16v-2.06h-4.67v-.84l4.3-5.5h1.3l-4.12,5.3h3.23v-1.82h1.13v1.82h1.6v1.03Z"/>
      <path class="cls-3" d="M266.46,104.35c.26.34.38.76.38,1.24s-.14.94-.41,1.31c-.27.37-.66.66-1.16.86-.5.2-1.1.3-1.78.3s-1.26-.1-1.76-.3-.89-.49-1.16-.86c-.27-.37-.41-.81-.41-1.31s.13-.89.38-1.24c.25-.34.62-.61,1.1-.79-.38-.18-.68-.43-.88-.73-.2-.3-.3-.66-.3-1.08,0-.46.13-.87.38-1.21s.61-.61,1.06-.79c.46-.18.98-.28,1.58-.28s1.14.09,1.6.28c.46.18.82.45,1.07.79s.38.75.38,1.21c0,.41-.1.77-.31,1.07-.2.31-.5.55-.88.74.48.18.85.45,1.1.79ZM265.07,106.67c.38-.28.58-.65.58-1.12s-.19-.83-.58-1.1c-.38-.27-.91-.4-1.57-.4s-1.18.13-1.56.4c-.38.27-.56.63-.56,1.1s.19.85.56,1.12.9.41,1.56.41,1.19-.14,1.57-.41ZM262.15,100.8c-.33.24-.49.57-.49.99s.16.74.49.98c.32.24.77.36,1.35.36s1.04-.12,1.37-.36c.33-.24.5-.57.5-.98s-.17-.75-.51-.99c-.34-.24-.79-.37-1.36-.37s-1.02.12-1.34.37Z"/>
      <path class="cls-3" d="M273.05,103.17c.44.21.78.51,1.03.89.25.39.37.83.37,1.34s-.13.99-.39,1.39c-.26.4-.62.71-1.07.93-.45.22-.96.33-1.52.33-1.13,0-2-.36-2.61-1.09-.61-.73-.92-1.76-.92-3.1,0-.94.17-1.73.5-2.39.33-.66.8-1.16,1.39-1.5.6-.34,1.29-.51,2.08-.51.41,0,.79.04,1.15.13s.67.21.94.37l-.46.94c-.4-.26-.94-.4-1.61-.4-.87,0-1.56.27-2.05.81s-.74,1.33-.74,2.36c0,.13,0,.23.01.3.24-.36.57-.63.99-.82.42-.19.89-.28,1.42-.28s1.05.1,1.48.31ZM272.77,106.64c.34-.3.52-.69.52-1.19s-.17-.89-.52-1.18c-.35-.29-.81-.44-1.4-.44-.38,0-.71.07-1,.22-.29.14-.52.34-.68.59s-.25.52-.25.83.08.57.23.81.38.44.68.59c.3.15.66.22,1.07.22.55,0,1-.15,1.34-.44Z"/>
      <path class="cls-3" d="M277.01,107.54c-.52-.34-.92-.83-1.22-1.48-.3-.65-.44-1.42-.44-2.3s.15-1.66.44-2.3c.3-.65.7-1.14,1.22-1.48.52-.34,1.11-.51,1.77-.51s1.24.17,1.76.51c.52.34.92.83,1.22,1.48.3.65.44,1.42.44,2.3s-.15,1.66-.44,2.3c-.3.65-.7,1.14-1.22,1.48-.52.34-1.1.51-1.76.51s-1.25-.17-1.77-.51ZM280.4,106.16c.4-.55.61-1.35.61-2.4s-.2-1.85-.61-2.4c-.4-.55-.94-.83-1.61-.83s-1.22.28-1.63.83c-.4.55-.61,1.35-.61,2.4s.2,1.85.61,2.4.95.83,1.63.83,1.21-.28,1.61-.83Z"/>
      <path class="cls-3" d="M293.11,100.34c.62.52.94,1.24.94,2.15s-.31,1.63-.94,2.15c-.62.52-1.48.78-2.57.78h-2.08v2.54h-1.2v-8.4h3.28c1.09,0,1.94.26,2.57.78ZM292.25,103.88c.4-.32.6-.79.6-1.4s-.2-1.07-.6-1.4-.98-.49-1.74-.49h-2.04v3.77h2.04c.76,0,1.34-.16,1.74-.49Z"/>
      <path class="cls-3" d="M296.64,107.61c-.5-.28-.9-.67-1.18-1.16-.28-.49-.43-1.05-.43-1.67s.14-1.18.43-1.67c.28-.49.68-.88,1.18-1.15.5-.28,1.07-.41,1.7-.41s1.2.14,1.7.41c.5.28.89.66,1.18,1.15.28.49.43,1.05.43,1.67s-.14,1.18-.43,1.67-.68.88-1.18,1.16c-.5.28-1.07.42-1.7.42s-1.2-.14-1.7-.42ZM299.44,106.74c.32-.19.58-.45.76-.79.18-.34.28-.73.28-1.17s-.09-.83-.28-1.17c-.18-.34-.44-.6-.76-.79-.32-.18-.69-.28-1.1-.28s-.77.09-1.1.28c-.32.18-.58.45-.77.79-.19.34-.28.73-.28,1.17s.09.83.28,1.17c.19.34.44.6.77.79.32.19.69.28,1.1.28s.77-.09,1.1-.28Z"/>
      <path class="cls-3" d="M308.56,102.24c.48.47.71,1.15.71,2.06v3.66h-1.15v-3.53c0-.62-.15-1.08-.44-1.39-.3-.31-.72-.47-1.27-.47-.62,0-1.12.18-1.48.55s-.54.89-.54,1.57v3.28h-1.15v-6.36h1.1v.96c.23-.33.55-.58.94-.76.4-.18.85-.26,1.35-.26.81,0,1.45.23,1.93.7Z"/>
      <path class="cls-3" d="M314.98,107.59c-.17.14-.38.25-.62.33s-.5.11-.77.11c-.64,0-1.14-.17-1.49-.52-.35-.34-.53-.84-.53-1.48v-3.49h-1.08v-.95h1.08v-1.39h1.15v1.39h1.82v.95h-1.82v3.44c0,.34.09.61.26.79.17.18.42.28.74.28.35,0,.65-.1.9-.3l.36.83Z"/>
      <path class="cls-3" d="M315.85,104.17h3.23v1h-3.23v-1Z"/>
      <path class="cls-3" d="M321.43,107.76c-.59-.2-1.05-.45-1.39-.76l.44-.94c.32.29.73.52,1.23.7.5.18,1.01.27,1.54.27.7,0,1.22-.12,1.56-.35.34-.24.52-.55.52-.94,0-.29-.09-.52-.28-.7s-.42-.32-.7-.41c-.28-.1-.67-.2-1.17-.32-.63-.15-1.14-.3-1.53-.46-.39-.15-.72-.39-1-.7-.28-.32-.41-.74-.41-1.28,0-.45.12-.85.35-1.21.24-.36.59-.65,1.07-.86s1.08-.32,1.79-.32c.5,0,.98.06,1.46.19s.89.31,1.24.55l-.4.96c-.35-.22-.73-.39-1.13-.51s-.79-.17-1.18-.17c-.68,0-1.19.12-1.53.37-.34.25-.51.57-.51.96,0,.29.1.52.29.7.19.18.43.32.71.42.28.1.67.21,1.16.32.63.15,1.14.3,1.52.46.38.15.71.38.99.7.28.31.41.73.41,1.26,0,.44-.12.84-.36,1.21s-.6.65-1.09.86c-.49.21-1.09.32-1.8.32-.63,0-1.24-.1-1.83-.29Z"/>
      <path class="cls-3" d="M332.44,102.19c.47.43.7,1.08.7,1.93v3.84h-1.09v-.84c-.19.3-.47.52-.82.68s-.78.23-1.27.23c-.71,0-1.28-.17-1.71-.52-.43-.34-.64-.8-.64-1.36s.2-1.01.61-1.35c.41-.34,1.06-.51,1.94-.51h1.82v-.23c0-.5-.14-.88-.43-1.14-.29-.26-.71-.4-1.27-.4-.38,0-.74.06-1.1.19s-.66.29-.91.5l-.48-.86c.33-.26.72-.47,1.18-.61s.94-.21,1.45-.21c.88,0,1.55.22,2.02.65ZM331.29,106.85c.32-.2.55-.47.7-.83v-.89h-1.78c-.98,0-1.46.33-1.46.98,0,.32.12.57.37.76.25.18.59.28,1.03.28s.82-.1,1.14-.29Z"/>
      <path class="cls-3" d="M335.29,100.16c-.15-.14-.22-.32-.22-.53s.07-.39.22-.53c.15-.15.33-.22.56-.22s.41.07.56.21c.15.14.22.31.22.52s-.07.4-.22.55c-.15.15-.33.22-.56.22s-.41-.07-.56-.22ZM335.28,101.6h1.15v6.36h-1.15v-6.36Z"/>
      <path class="cls-3" d="M343.95,102.24c.48.47.71,1.15.71,2.06v3.66h-1.15v-3.53c0-.62-.15-1.08-.44-1.39-.3-.31-.72-.47-1.27-.47-.62,0-1.12.18-1.48.55s-.54.89-.54,1.57v3.28h-1.15v-6.36h1.1v.96c.23-.33.55-.58.94-.76.4-.18.85-.26,1.35-.26.81,0,1.45.23,1.93.7Z"/>
      <path class="cls-3" d="M350.37,107.59c-.17.14-.38.25-.62.33s-.5.11-.77.11c-.64,0-1.14-.17-1.49-.52-.35-.34-.53-.84-.53-1.48v-3.49h-1.08v-.95h1.08v-1.39h1.15v1.39h1.82v.95h-1.82v3.44c0,.34.09.61.26.79.17.18.42.28.74.28.35,0,.65-.1.9-.3l.36.83Z"/>
      <path class="cls-3" d="M351.24,104.17h3.23v1h-3.23v-1Z"/>
      <path class="cls-3" d="M364.2,107.96v-6.12s-3.05,5.1-3.05,5.1h-.55l-3.04-5.06v6.08h-1.15v-8.4h.98l3.5,5.9,3.46-5.9h.98v8.4s-1.14,0-1.14,0Z"/>
      <path class="cls-3" d="M372.04,102.19c.47.43.7,1.08.7,1.93v3.84h-1.09v-.84c-.19.3-.47.52-.82.68s-.78.23-1.27.23c-.71,0-1.28-.17-1.71-.52-.43-.34-.64-.8-.64-1.36s.2-1.01.61-1.35c.41-.34,1.06-.51,1.94-.51h1.82v-.23c0-.5-.14-.88-.43-1.14-.29-.26-.71-.4-1.27-.4-.38,0-.74.06-1.1.19s-.66.29-.91.5l-.48-.86c.33-.26.72-.47,1.18-.61s.94-.21,1.45-.21c.88,0,1.55.22,2.02.65ZM370.89,106.85c.32-.2.55-.47.7-.83v-.89h-1.78c-.98,0-1.46.33-1.46.98,0,.32.12.57.37.76.25.18.59.28,1.03.28s.82-.1,1.14-.29Z"/>
      <path class="cls-3" d="M376.87,101.83c.39-.19.87-.29,1.43-.29v1.12c-.06,0-.15-.01-.26-.01-.62,0-1.11.19-1.47.56-.36.37-.53.9-.53,1.59v3.17h-1.15v-6.36h1.1v1.07c.2-.37.5-.65.89-.84Z"/>
      <path class="cls-3" d="M383.55,107.59c-.17.14-.38.25-.62.33s-.5.11-.77.11c-.64,0-1.14-.17-1.49-.52-.35-.34-.53-.84-.53-1.48v-3.49h-1.08v-.95h1.08v-1.39h1.15v1.39h1.82v.95h-1.82v3.44c0,.34.09.61.26.79.17.18.42.28.74.28.35,0,.65-.1.9-.3l.36.83Z"/>
      <path class="cls-3" d="M384.96,100.16c-.15-.14-.22-.32-.22-.53s.07-.39.22-.53c.15-.15.33-.22.56-.22s.41.07.56.21c.15.14.22.31.22.52s-.07.4-.22.55c-.15.15-.33.22-.56.22s-.41-.07-.56-.22ZM384.94,101.6h1.15v6.36h-1.15v-6.36Z"/>
      <path class="cls-3" d="M393.61,102.24c.48.47.71,1.15.71,2.06v3.66h-1.15v-3.53c0-.62-.15-1.08-.44-1.39-.3-.31-.72-.47-1.27-.47-.62,0-1.12.18-1.48.55s-.54.89-.54,1.57v3.28h-1.15v-6.36h1.1v.96c.23-.33.55-.58.94-.76.4-.18.85-.26,1.35-.26.81,0,1.45.23,1.93.7Z"/>
      <path class="cls-3" d="M245.7,125.57c-.53-.34-.94-.84-1.25-1.49-.3-.65-.46-1.43-.46-2.32s.15-1.67.46-2.32c.3-.65.72-1.15,1.25-1.49.53-.34,1.13-.51,1.8-.51s1.27.17,1.81.51c.53.34.95.84,1.25,1.49.3.65.46,1.43.46,2.32s-.15,1.67-.46,2.32-.72,1.15-1.25,1.49c-.53.34-1.13.51-1.81.51s-1.27-.17-1.8-.51ZM248.92,123.98c.35-.5.52-1.24.52-2.22s-.17-1.72-.52-2.22c-.35-.5-.82-.74-1.42-.74s-1.06.25-1.41.74c-.35.5-.52,1.24-.52,2.22s.17,1.72.52,2.22c.35.5.82.74,1.41.74s1.07-.25,1.42-.74Z"/>
      <path class="cls-3" d="M257.58,118.52c.64.72.95,1.75.95,3.1,0,.94-.17,1.75-.52,2.42s-.83,1.18-1.45,1.52c-.62.35-1.34.52-2.15.52-.43,0-.84-.05-1.22-.14-.38-.09-.71-.23-.99-.4l.58-1.18c.42.27.95.41,1.6.41.81,0,1.44-.25,1.9-.74s.68-1.21.68-2.15h0c-.25.28-.56.49-.95.64-.38.15-.82.22-1.3.22-.55,0-1.05-.11-1.49-.32s-.78-.51-1.03-.91c-.25-.39-.37-.84-.37-1.36,0-.54.14-1.02.41-1.43.27-.41.64-.73,1.1-.95.46-.22.98-.34,1.56-.34,1.15,0,2.05.36,2.68,1.08ZM256.25,121.11c.32-.27.47-.62.47-1.03s-.15-.75-.46-1.01c-.31-.27-.73-.4-1.28-.4-.49,0-.88.13-1.19.39-.3.26-.46.61-.46,1.04s.15.79.46,1.04c.3.26.71.38,1.22.38s.91-.14,1.23-.41Z"/>
      <path class="cls-3" d="M266.06,122.35c.24.34.35.74.35,1.19,0,.51-.14.96-.43,1.34-.28.38-.69.68-1.21.88-.52.2-1.12.31-1.81.31s-1.29-.1-1.81-.31c-.52-.2-.91-.5-1.19-.88-.28-.38-.42-.83-.42-1.34,0-.46.12-.85.35-1.19.23-.34.56-.61,1-.81-.34-.18-.59-.43-.77-.73-.18-.3-.27-.65-.27-1.04,0-.47.13-.88.39-1.24.26-.35.63-.62,1.1-.82.47-.19,1.02-.29,1.63-.29s1.17.1,1.64.29c.47.19.84.46,1.1.82.26.35.4.76.4,1.24,0,.39-.09.74-.28,1.03-.18.3-.45.54-.79.73.44.2.78.47,1.01.81ZM264.33,124.49c.34-.24.5-.57.5-1s-.17-.74-.5-.98c-.34-.24-.79-.36-1.37-.36s-1.03.12-1.36.36c-.33.24-.49.57-.49.98s.16.76.49,1c.33.24.78.36,1.36.36s1.03-.12,1.37-.36ZM261.81,118.97c-.28.21-.43.5-.43.88s.14.65.43.86c.28.21.67.32,1.16.32s.89-.11,1.18-.32c.29-.21.43-.5.43-.86s-.15-.67-.44-.88c-.29-.21-.68-.31-1.17-.31s-.87.1-1.16.31Z"/>
      <path class="cls-3" d="M273.75,117.56v1.04l-3.26,7.36h-1.67l3.16-7.08h-3.3v1.43h-1.45v-2.75h6.53Z"/>
      <path class="cls-3" d="M281.42,124.05h-1.49v1.91h-1.51v-1.91h-4.61v-1.08l4.14-5.41h1.67l-3.9,5.17h2.75v-1.69h1.46v1.69h1.49v1.32Z"/>
      <path class="cls-3" d="M284.69,117.56v8.4h-1.56v-7.09h-1.78v-1.31h3.34Z"/>
      <path class="cls-3" d="M289.26,117.56v8.4h-1.56v-7.09h-1.78v-1.31h3.34Z"/>
      <path class="cls-3" d="M297.01,124.64v1.32h-6.19v-1.04l3.34-3.17c.38-.36.63-.67.76-.94.13-.27.2-.53.2-.8,0-.39-.13-.69-.4-.9-.26-.21-.65-.31-1.16-.31-.86,0-1.51.29-1.97.88l-1.09-.84c.33-.44.77-.78,1.33-1.03.56-.24,1.18-.37,1.87-.37.91,0,1.64.22,2.18.65s.82,1.02.82,1.76c0,.46-.1.88-.29,1.28-.19.4-.56.86-1.1,1.37l-2.24,2.14h3.96Z"/>
      <path class="cls-3" d="M303.18,121.09c.44.21.78.51,1.03.91.25.39.37.84.37,1.36,0,.54-.14,1.02-.41,1.43s-.64.73-1.1.95-.98.34-1.56.34c-1.15,0-2.05-.36-2.68-1.08-.64-.72-.95-1.75-.95-3.1,0-.94.17-1.75.52-2.42.34-.67.83-1.18,1.45-1.52.62-.35,1.34-.52,2.15-.52.43,0,.84.05,1.22.14.38.09.71.23.99.4l-.58,1.18c-.42-.27-.95-.41-1.6-.41-.81,0-1.44.25-1.9.74s-.68,1.21-.68,2.15h0c.25-.28.56-.49.95-.64s.82-.22,1.3-.22c.55,0,1.05.11,1.49.32ZM302.61,124.46c.3-.26.46-.61.46-1.04s-.15-.79-.46-1.04c-.3-.26-.71-.38-1.22-.38s-.91.14-1.23.41c-.32.27-.47.62-.47,1.03s.15.75.46,1.01c.31.27.73.4,1.28.4.49,0,.88-.13,1.19-.39Z"/>
      <path class="cls-3" d="M310.75,121.82c.41.43.61.97.61,1.62,0,.49-.12.93-.37,1.33-.25.4-.62.72-1.12.95-.5.24-1.11.35-1.83.35-.6,0-1.18-.09-1.73-.26-.56-.17-1.03-.41-1.42-.71l.67-1.21c.3.26.67.46,1.11.61.44.15.89.22,1.35.22.55,0,.99-.11,1.3-.34.32-.23.47-.54.47-.93s-.15-.7-.45-.92c-.3-.22-.76-.33-1.37-.33h-.77v-1.07l1.91-2.27h-3.82v-1.31h5.72v1.04l-2.04,2.42c.78.1,1.37.36,1.78.79Z"/>
    </g>
    <rect class="cls-1" x="233.48" y=".77" width="2" height="150"/>
  </g>
  <g>
    <g>
      <path class="cls-2" d="M42.36,93.26l-7.79-4.65s8.93-7.55,17.33-7.79c8.39-.24,13.34,1.86,23.25,4.07,9.91,2.21,13.42-3.73,13.7-4.43s1.32-1.85,1.27-.42-2.6,8.33-12.98,8.45c-10.38.12-13.64-2.91-22.58-1.75-8.93,1.16-10.56,5.49-12.19,6.52Z"/>
      <g>
        <path class="cls-3" d="M44.56,78.43c-.34,0-.84-.05-1.5-.15-.66-.1-1.16-.15-1.5-.15-.37,0-.92.05-1.66.15-.74.1-1.3.15-1.68.15-1.13,0-2.08-.33-2.87-1-.84-.7-1.26-1.6-1.26-2.71,0-.99.37-1.87,1.12-2.64.54-.55,1.38-1.11,2.51-1.69.88-.44,1.76-.87,2.65-1.31l-.42-.28c-.3,0-.75.06-1.35.17-.6.12-1.05.17-1.35.17-.64,0-1.2-.14-1.66-.41-.58-.34-.86-.8-.86-1.39,0-.65.35-1.15,1.06-1.5.55-.27,1.19-.41,1.91-.41h5.4c1.4,0,2.34.49,2.81,1.47.3.64.46,1.75.46,3.34v6.15c.71.44,1.06.81,1.06,1.1,0,.34-.41.59-1.22.76-.55.12-1.1.17-1.65.17ZM43.08,68.88c0-.78-.26-1.38-.79-1.81-.49-.39-1.13-.58-1.93-.58-1.78,0-2.67.32-2.67.96,0,.39.38.59,1.15.59.29,0,.72-.04,1.29-.12.57-.08,1.01-.12,1.29-.12.73,0,1.1.25,1.1.74,0,.44-.41.87-1.22,1.29-1.4.73-2.14,1.13-2.24,1.21-.81.58-1.22,1.28-1.22,2.1,0,1.27.76,1.91,2.28,1.91.36,0,.86-.08,1.49-.23.68-.17,1.17-.27,1.48-.28v-5.65Z"/>
        <path class="cls-3" d="M53.36,63.74c-.2,0-.48-.07-.85-.2-.37-.13-.65-.2-.85-.2-.43,0-.64.11-.64.32,0,.26.23.66.68,1.18l1.2-.02c1.68-.03,2.56.24,2.63.83-.13.28-.44.56-.94.85-.68.4-1.06.64-1.13.7v8.97c0,.2.17.39.51.58.25.13.51.26.76.38l.16.41c0,.27-.23.49-.7.65-.35.12-.7.19-1.05.19h-2.43c-.37,0-.73-.07-1.08-.2-.45-.16-.69-.39-.73-.69.12-.22.37-.44.75-.65.39-.21.62-.41.71-.6v-8.89c0-.39-.37-.75-1.12-1.06-.74-.31-1.12-.64-1.12-.97,0-.42.58-.58,1.73-.47-1.05-.92-1.58-1.78-1.58-2.58,0-.68.3-1.21.89-1.58.49-.31,1.11-.47,1.84-.47.35,0,.86.06,1.54.18.68.12,1.2.18,1.55.18.57,0,1.05-.12,1.45-.37.33.45.49.9.49,1.35,0,.61-.3,1.13-.9,1.57-.55.4-1.14.59-1.77.59Z"/>
        <path class="cls-3" d="M85.82,78.13c-.32,0-.79.05-1.42.15-.63.1-1.1.15-1.42.15-1.84,0-3.24-.66-4.2-1.98-.86-1.17-1.29-2.72-1.29-4.62,0-1.67.46-3.16,1.39-4.47,1.04-1.47,2.35-2.21,3.96-2.21.57,0,1.21.13,1.93.38.62.25,1.23.5,1.85.75v-3.33c0-.34-.31-.63-.92-.89-.61-.25-.92-.54-.92-.85,0-.41.24-.62.73-.62h3.25c.63,0,.95.33.95.99v14.57c1.1.59,1.65,1.02,1.65,1.29,0,.56-.85.84-2.54.84-.49,0-1.1-.02-1.82-.07-.72-.05-1.11-.07-1.18-.07ZM86.61,67.74c-.3-.07-.78-.28-1.44-.65-.54-.3-1.08-.46-1.63-.46-1.05,0-1.86.51-2.43,1.52-.46.83-.69,1.82-.69,2.96,0,.84.17,1.61.51,2.3.42.89,1,1.33,1.75,1.33h2.61c.33,0,.63-.1.91-.31.28-.21.41-.46.41-.78v-5.92Z"/>
        <path class="cls-3" d="M101.1,78.43h-4.71c-1.28,0-2.33-.68-3.16-2.05-.71-1.17-1.07-2.44-1.07-3.82,0-1.87.44-3.47,1.32-4.81,1.01-1.54,2.4-2.32,4.18-2.32h3.54c1.95,0,2.92.57,2.92,1.71,0,.97-.59,1.81-1.77,2.53-1.15.6-2.3,1.2-3.45,1.81-1.33.8-2.12,1.74-2.38,2.82.92.49,1.93.73,3.02.73,1.82,0,2.93-.61,3.32-1.82.41.14.75.4,1.03.78.28.38.41.78.41,1.22,0,.85-.32,1.6-.96,2.25-.64.65-1.38.97-2.23.97ZM98.48,66.68c-2.42,0-3.64,1.36-3.64,4.08,0,1.15.18,2.04.55,2.67.38-.99,1.06-1.85,2.05-2.56.8-.47,1.59-.94,2.39-1.42.76-.48,1.15-.97,1.15-1.49,0-.85-.83-1.28-2.5-1.28Z"/>
        <path class="cls-3" d="M116.94,78.38h-2.39c-.38,0-.74-.06-1.1-.17-.49-.16-.74-.38-.74-.67,0-.21.17-.41.52-.6.26-.13.53-.26.79-.39l.16-.37v-13.67c0-.24-.23-.52-.7-.84-.3-.17-.46-.26-.48-.26,0,.02.03.04.06.06l-.15-.36.17-.34.41-.17h3.02c.49,0,.74.19.74.57,0,10.17.05,15.3.16,15.38.77.44,1.17.67,1.21.67,0,0-.02-.02-.06-.05l.17.38c0,.25-.24.46-.73.63-.39.14-.75.21-1.06.21Z"/>
        <path class="cls-3" d="M130.76,78.43c-.34,0-.84-.05-1.5-.15-.66-.1-1.16-.15-1.5-.15-.37,0-.92.05-1.66.15-.74.1-1.3.15-1.68.15-1.13,0-2.08-.33-2.87-1-.84-.7-1.26-1.6-1.26-2.71,0-.99.37-1.87,1.12-2.64.54-.55,1.38-1.11,2.51-1.69.88-.44,1.76-.87,2.65-1.31l-.42-.28c-.3,0-.75.06-1.35.17-.6.12-1.05.17-1.35.17-.64,0-1.2-.14-1.66-.41-.58-.34-.86-.8-.86-1.39,0-.65.35-1.15,1.06-1.5.55-.27,1.19-.41,1.91-.41h5.4c1.4,0,2.34.49,2.81,1.47.3.64.46,1.75.46,3.34v6.15c.71.44,1.06.81,1.06,1.1,0,.34-.41.59-1.22.76-.55.12-1.1.17-1.65.17ZM129.28,68.88c0-.78-.26-1.38-.79-1.81-.49-.39-1.13-.58-1.93-.58-1.78,0-2.67.32-2.67.96,0,.39.38.59,1.15.59.29,0,.72-.04,1.29-.12.57-.08,1.01-.12,1.29-.12.73,0,1.1.25,1.1.74,0,.44-.41.87-1.22,1.29-1.4.73-2.14,1.13-2.24,1.21-.81.58-1.22,1.28-1.22,2.1,0,1.27.76,1.91,2.28,1.91.36,0,.86-.08,1.49-.23.68-.17,1.17-.27,1.48-.28v-5.65Z"/>
        <path class="cls-3" d="M151.3,72.14c-1.11,0-2.06-.26-2.85-.78-.9-.6-1.36-1.43-1.36-2.49,0-.42.16-.81.48-1.16.32-.36.5-.64.53-.86l-.12-.28.71-.11c.58,0,.97.21,1.17.63.12.39.23.79.35,1.18.16.42.48.63.96.63.72,0,1.27-.32,1.64-.96.3-.52.46-1.17.46-1.95,0-1.13-.43-2.1-1.29-2.91-.86-.82-1.85-1.23-2.99-1.23s-1.77.28-1.77.84v4.4c-.55.59-.83,1.2-.83,1.84,0,.85.28,1.54.83,2.1l-.07,2.61c-.03,1.22.05,1.96.26,2.22.08.1.5.37,1.26.81.61.36.92.69.92.97,0,.26-.23.47-.68.62-.35.12-.69.17-1.02.17h-4.25c-1.18,0-1.76-.26-1.76-.79,0-.27.37-.6,1.1-1,.74-.39,1.1-.79,1.1-1.18v-11.7c0-.52-.35-1.01-1.04-1.47-.69-.46-1.04-.76-1.04-.91,0-.11.16-.22.49-.33.85-.3,2.74-.46,5.67-.46,2.44,0,4.4.45,5.87,1.36,1.77,1.1,2.66,2.8,2.66,5.1,0,1.5-.52,2.72-1.56,3.67-1.04.95-2.32,1.42-3.83,1.42Z"/>
        <path class="cls-3" d="M162.36,78.38h-2.39c-.38,0-.74-.06-1.1-.17-.49-.16-.74-.38-.74-.67,0-.21.17-.41.52-.6.26-.13.53-.26.79-.39l.16-.37v-13.67c0-.24-.23-.52-.7-.84-.3-.17-.46-.26-.48-.26,0,.02.03.04.06.06l-.15-.36.17-.34.41-.17h3.02c.49,0,.74.19.74.57,0,10.17.05,15.3.16,15.38.77.44,1.17.67,1.21.67,0,0-.02-.02-.06-.05l.17.38c0,.25-.24.46-.73.63-.39.14-.75.21-1.06.21Z"/>
        <path class="cls-3" d="M176.17,78.43c-.34,0-.84-.05-1.5-.15-.66-.1-1.16-.15-1.5-.15-.37,0-.92.05-1.66.15-.74.1-1.3.15-1.68.15-1.13,0-2.08-.33-2.87-1-.84-.7-1.26-1.6-1.26-2.71,0-.99.37-1.87,1.12-2.64.54-.55,1.38-1.11,2.51-1.69.88-.44,1.76-.87,2.65-1.31l-.42-.28c-.3,0-.75.06-1.35.17-.6.12-1.05.17-1.35.17-.64,0-1.2-.14-1.66-.41-.58-.34-.86-.8-.86-1.39,0-.65.35-1.15,1.06-1.5.55-.27,1.19-.41,1.91-.41h5.4c1.4,0,2.34.49,2.81,1.47.3.64.46,1.75.46,3.34v6.15c.71.44,1.06.81,1.06,1.1,0,.34-.41.59-1.22.76-.55.12-1.1.17-1.65.17ZM174.69,68.88c0-.78-.26-1.38-.79-1.81-.49-.39-1.13-.58-1.93-.58-1.78,0-2.67.32-2.67.96,0,.39.38.59,1.15.59.29,0,.72-.04,1.29-.12.57-.08,1.01-.12,1.29-.12.73,0,1.1.25,1.1.74,0,.44-.41.87-1.22,1.29-1.4.73-2.14,1.13-2.24,1.21-.81.58-1.22,1.28-1.22,2.1,0,1.27.76,1.91,2.28,1.91.36,0,.86-.08,1.49-.23.68-.17,1.17-.27,1.48-.28v-5.65Z"/>
        <path class="cls-3" d="M189.09,78.43h-4.56c-1.32,0-2.4-.67-3.22-2.01-.71-1.16-1.06-2.44-1.06-3.86,0-2.19.53-3.93,1.58-5.2,1.13-1.38,2.78-2.07,4.93-2.07,2.88,0,4.33.92,4.33,2.77,0,.58-.24,1.06-.71,1.46-.47.4-1,.6-1.58.6-.44,0-.84-.15-1.21-.44-.41-.33-.67-.51-.78-.53l-.36.25c-.25-.13-.38-.35-.38-.67,0-.53.31-.8.94-.8.11,0,.28.01.51.03.22.02.37.03.46.03l.32-.14.14-.29c0-.3-.26-.56-.79-.79-.44-.2-.83-.3-1.17-.3-1.15,0-2.05.46-2.69,1.37-.57.81-.85,1.81-.85,3.01,0,1.62.39,2.74,1.17,3.36.69.55,1.87.83,3.52.83,1.87,0,2.97-.61,3.32-1.82.37.09.7.34,1,.75.3.41.44.81.44,1.2,0,.92-.32,1.69-.96,2.32-.64.63-1.42.94-2.34.94Z"/>
        <path class="cls-3" d="M202.06,78.43h-4.71c-1.28,0-2.33-.68-3.16-2.05-.71-1.17-1.07-2.44-1.07-3.82,0-1.87.44-3.47,1.32-4.81,1.01-1.54,2.4-2.32,4.18-2.32h3.54c1.95,0,2.92.57,2.92,1.71,0,.97-.59,1.81-1.77,2.53-1.15.6-2.3,1.2-3.45,1.81-1.33.8-2.12,1.74-2.38,2.82.92.49,1.93.73,3.02.73,1.82,0,2.93-.61,3.32-1.82.41.14.75.4,1.03.78.28.38.41.78.41,1.22,0,.85-.32,1.6-.96,2.25-.64.65-1.38.97-2.23.97ZM199.43,66.68c-2.42,0-3.64,1.36-3.64,4.08,0,1.15.18,2.04.55,2.67.38-.99,1.06-1.85,2.05-2.56.8-.47,1.59-.94,2.39-1.42.76-.48,1.15-.97,1.15-1.49,0-.85-.83-1.28-2.5-1.28Z"/>
      </g>
      <path class="cls-3" d="M24.73,87.15c-4.04,0-7.29-1.3-9.73-3.89-2.39-2.54-3.59-5.84-3.59-9.89s1.05-7.49,3.16-10.52c2.36-3.4,5.45-5.1,9.27-5.1,2.32,0,4.37.51,6.14,1.53,2.15,1.22,3.22,2.91,3.22,5.06,0,1.59-.53,2.86-1.59,3.82-1.06.96-2.39,1.44-3.99,1.44-2.11,0-3.55-.77-4.31-2.3-.2-.64-.41-1.29-.62-1.93-.31-.95-.63-1.43-.97-1.43l-.6.56.16.48-.97.36c-.94,0-1.41-.51-1.41-1.53,0-.55.22-1.01.67-1.38.45-.37.95-.55,1.5-.55.68,0,1.49.43,2.42,1.29.93.86,1.73,1.29,2.4,1.29.56,0,1.03-.19,1.39-.56.36-.38.54-.85.54-1.41,0-1.03-.5-1.81-1.49-2.32-.78-.4-1.74-.6-2.88-.6-2.59,0-4.67,1.2-6.25,3.59-1.38,2.08-2.08,4.49-2.08,7.21,0,3.1.99,5.74,2.98,7.9,2.06,2.23,4.62,3.34,7.7,3.34,4.08,0,6.52-1.33,7.31-3.99,1.21.21,1.81,1.36,1.81,3.43s-1.24,3.72-3.73,4.84c-1.91.85-4.07,1.27-6.49,1.27Z"/>
      <path class="cls-2" d="M61.82,64.08c-.28,0-.42-.09-.42-.27,0-.09.25-.43.75-1.02.54-.64.85-1.04.92-1.2.05-.12.16-.3.33-.53.2-.18.4-.27.6-.27h1.42c.28,0,.42.12.42.37,0,.57-.54,1.2-1.61,1.91-1,.67-1.81,1.01-2.42,1.01Z"/>
    </g>
    <path class="cls-3" d="M65.78,78.43h-4.71c-1.28,0-2.33-.68-3.16-2.05-.71-1.17-1.07-2.44-1.07-3.82,0-1.87.44-3.47,1.32-4.81,1.01-1.54,2.4-2.32,4.18-2.32h3.54c1.95,0,2.92.57,2.92,1.71,0,.97-.59,1.81-1.77,2.53-1.15.6-2.3,1.2-3.45,1.81-1.33.8-2.12,1.74-2.38,2.82.92.49,1.93.73,3.02.73,1.82,0,2.93-.61,3.32-1.82.41.14.75.4,1.03.78.28.38.41.78.41,1.22,0,.85-.32,1.6-.96,2.25-.64.65-1.38.97-2.23.97ZM63.15,66.68c-2.42,0-3.64,1.36-3.64,4.08,0,1.15.18,2.04.55,2.67.38-.99,1.06-1.85,2.05-2.56.8-.47,1.59-.94,2.39-1.42.76-.48,1.15-.97,1.15-1.49,0-.85-.83-1.28-2.5-1.28Z"/>
  </g>
</svg>