<?xml version="1.0" encoding="UTF-8"?>
<svg id="Calque_1" data-name="Calque 1" xmlns="http://www.w3.org/2000/svg" version="1.1" xmlns:xlink="http://www.w3.org/1999/xlink" viewBox="0 0 536.674 306.671">
  <defs>
    <clipPath id="clippath">
      <rect id="SVGID" x="88.444" y="109.497" width="117.968" height="74.48" rx="11.418" ry="11.418" transform="translate(.691 294.166) rotate(-90)" fill="none" stroke-width="0"/>
    </clipPath>
    <linearGradient id="Dégradé_sans_nom_67" data-name="Dégradé sans nom 67" x1="127.068" y1="113.578" x2="192.9" y2="220.791" gradientTransform="translate(294.166 -.691) rotate(90)" gradientUnits="userSpaceOnUse">
      <stop offset=".474" stop-color="#fff"/>
      <stop offset=".844" stop-color="#000"/>
    </linearGradient>
    <linearGradient id="Dégradé_sans_nom_66" data-name="Dégradé sans nom 66" x1="181.202" y1="2389.124" x2="209.23" y2="2456.748" gradientTransform="translate(336.855 2533.067) rotate(-180)" gradientUnits="userSpaceOnUse">
      <stop offset=".5" stop-color="#fff"/>
      <stop offset="1" stop-color="#000"/>
    </linearGradient>
    <clipPath id="clippath-1">
      <rect id="SVGID-2" data-name="SVGID" x="88.444" y="109.497" width="117.968" height="74.48" rx="11.418" ry="11.418" transform="translate(.691 294.166) rotate(-90)" fill="none" stroke-width="0"/>
    </clipPath>
    <linearGradient id="Dégradé_sans_nom_65" data-name="Dégradé sans nom 65" x1="116.693" y1="147.885" x2="147.132" y2="147.885" gradientUnits="userSpaceOnUse">
      <stop offset="0" stop-color="#4d4e4d"/>
      <stop offset=".184" stop-color="#444544"/>
      <stop offset=".485" stop-color="#2c2c2d"/>
      <stop offset=".862" stop-color="#050508"/>
      <stop offset=".9" stop-color="#010104"/>
    </linearGradient>
  </defs>
  <rect x="-5.932" y="-4.918" width="550.579" height="320.189" fill="#282a28" stroke-width="0"/>
  <g>
    <g>
      <path d="M250.561,124.662h14.763c.053,1.46.134,2.488.243,3.083.487,3.624,1,7.45,1.541,11.478.54,4.029,1.095,8.152,1.663,12.37s1.162,8.49,1.785,12.816c.621,4.327,1.257,8.598,1.906,12.816.053.486.147,1.068.283,1.744.135.677.256,1.216.365,1.622.107.405.162.636.162.689h-13.14c.215-1.514.27-2.649.162-3.407-.162-1.729-.379-3.92-.649-6.57-.271-2.648-.568-5.325-.892-8.03h-7.868c-.434,2.867-.771,5.463-1.014,7.787-.243,2.326-.474,4.624-.689,6.895-.054.649-.054,1.758,0,3.326h-7.949c.54-1.622.865-2.758.974-3.407.377-2.055.824-4.542,1.338-7.462.513-2.921,1.041-6.016,1.582-9.288.54-3.271,1.081-6.61,1.623-10.018.54-3.407,1.041-6.637,1.5-9.693.459-3.055.864-5.772,1.217-8.152.351-2.379.608-4.218.771-5.516.108-.594.215-1.622.324-3.083ZM255.103,121.661l-6.732-7.868h8.76l4.137,7.868h-6.165ZM255.022,131.476l-3.812,26.849h7.057l-3.245-26.849Z" fill="#bf0418" stroke-width="0"/>
      <path d="M294.037,139.506h11.681v.811c0,.541.053,1.028.162,1.46.324,2.001.702,4.272,1.136,6.814.432,2.542.852,5.029,1.257,7.463.406,2.434.798,4.719,1.177,6.854.377,2.138.675,3.8.892,4.989.216,1.189.325,1.839.325,1.946h.243c.595-3.569,1.121-6.691,1.582-9.368.458-2.678.933-5.557,1.419-8.64.486-3.082.919-5.921,1.298-8.517.054-.325.107-.797.162-1.42.054-.621.094-1.162.122-1.622.026-.459.04-.716.04-.771h6.327c-.486,1.785-.784,3.029-.893,3.731-.324,1.677-.703,3.65-1.135,5.921-.434,2.271-.88,4.652-1.339,7.139-.46,2.488-.92,4.948-1.379,7.381-.46,2.434-.852,4.651-1.176,6.651-.758,3.894-1.298,7.544-1.623,10.951h-12.086c0-.108-.149-.945-.446-2.515-.298-1.568-.703-3.772-1.217-6.611s-1.068-5.894-1.662-9.166c-.596-3.271-1.23-6.678-1.906-10.22-.677-3.541-1.312-6.8-1.906-9.774-.109-.649-.46-1.811-1.055-3.488Z" fill="#bf0418" stroke-width="0"/>
      <path d="M337.027,160.19v14.357c0,1.082.229,1.812.689,2.189.459.379,1.203.568,2.231.568s1.743-.243,2.149-.73c.405-.486.608-1.217.608-2.189v-9.815h10.545v9.733c0,1.569-.19,2.854-.568,3.854-.379,1.001-1.082,1.784-2.108,2.353-1.028.567-2.462.959-4.3,1.176-1.839.216-4.245.324-7.219.324-2.758,0-5.003-.121-6.732-.364-1.731-.244-3.056-.676-3.975-1.298-.92-.621-1.541-1.42-1.866-2.394-.324-.974-.486-2.189-.486-3.65v-28.39c0-1.623.243-2.906.73-3.853.486-.946,1.27-1.663,2.352-2.15,1.081-.486,2.475-.797,4.178-.933,1.703-.134,3.799-.203,6.286-.203,2.758,0,5.016.054,6.773.162,1.757.109,3.149.393,4.178.852,1.026.46,1.743,1.15,2.149,2.068.405.92.608,2.19.608,3.812v14.52h-16.224ZM342.625,156.297v-10.789c0-1.568-.921-2.353-2.758-2.353-1.894,0-2.84.812-2.84,2.434v10.708h5.598Z" fill="#bf0418" stroke-width="0"/>
      <path d="M384.438,140.531c1.541,1.116,2.312,2.613,2.312,4.49v32.771c0,.974.041,1.663.122,2.068s.229.88.446,1.42h-11.519v-34.961c0-1.892-.865-2.839-2.596-2.839-.758,0-1.366.284-1.825.852-.46.568-.689,1.231-.689,1.987v31.473c0,.974.041,1.663.122,2.068s.229.88.446,1.42h-11.924c.107-.487.202-.96.283-1.42.082-.459.122-1.148.122-2.068v-33.987c0-.957-.055-1.782-.162-2.474-.109-.692-.217-1.276-.324-1.755h9.733l1.217,1.356c.107-.053.473-.238,1.095-.558.621-.319,1.554-.651,2.799-.998,1.243-.346,2.541-.52,3.894-.52,2.758,0,4.907.559,6.448,1.674Z" fill="#bf0418" stroke-width="0"/>
      <path d="M393.767,135.136c-.893-.641-1.339-1.659-1.339-3.051,0-1.338.446-2.314,1.339-2.93.892-.616,2.527-.924,4.907-.924,2.162,0,3.717.295,4.664.883.945.589,1.42,1.579,1.42,2.971s-.475,2.41-1.42,3.051c-.947.643-2.555.963-4.826.963s-3.854-.321-4.745-.963ZM404.189,177.792c0,.974.041,1.663.122,2.068s.229.88.446,1.42h-11.924c.107-.487.202-.96.283-1.42.081-.459.122-1.148.122-2.068v-33.987c0-.973-.055-1.811-.162-2.514-.109-.702-.217-1.298-.325-1.785h11.438v38.286Z" fill="#bf0418" stroke-width="0"/>
      <path d="M425.156,145.711c-1.055.406-1.839.893-2.352,1.46-.515.568-.84,1.164-.974,1.785-.136.623-.203,1.149-.203,1.582v27.254c0,.974.041,1.663.122,2.068s.229.88.446,1.42h-11.924c.107-.487.202-.96.283-1.42.081-.459.122-1.148.122-2.068v-33.987c0-.973-.055-1.811-.162-2.514-.109-.702-.217-1.298-.325-1.785h9.734l1.379,1.866c.053-.053.351-.27.893-.649.539-.378,1.392-.797,2.555-1.257,1.162-.459,2.446-.689,3.853-.689h2.028v6.327h-1.217c-1.784,0-3.204.203-4.259.608Z" fill="#bf0418" stroke-width="0"/>
    </g>
    <g>
      <g>
        <path d="M173.251,87.753c6.306,0,11.418,5.112,11.418,11.418v95.133c0,6.306-5.112,11.418-11.418,11.418h-51.644c-6.306,0-11.418-5.112-11.418-11.418v-95.133c0-6.306,5.112-11.418,11.418-11.418h51.644M173.251,83.608h-51.644c-8.582,0-15.564,6.982-15.564,15.563v95.133c0,8.582,6.982,15.564,15.564,15.564h51.644c8.582,0,15.564-6.982,15.564-15.564v-95.133c0-8.582-6.982-15.563-15.564-15.563h0Z" fill="#010104" stroke-width="0"/>
        <path d="M173.251,87.753c6.306,0,11.418,5.112,11.418,11.418v95.133c0,6.306-5.112,11.418-11.418,11.418h-51.644c-6.306,0-11.418-5.112-11.418-11.418v-95.133c0-6.306,5.112-11.418,11.418-11.418h51.644M173.251,85.68h-51.644c-7.439,0-13.491,6.052-13.491,13.491v95.133c0,7.439,6.052,13.491,13.491,13.491h51.644c7.439,0,13.491-6.052,13.491-13.491v-95.133c0-7.439-6.052-13.491-13.491-13.491h0Z" fill="#fff" stroke-width="0"/>
        <g>
          <rect x="88.444" y="109.497" width="117.968" height="74.48" rx="11.418" ry="11.418" transform="translate(.691 294.166) rotate(-90)" fill="#fff" stroke-width="0"/>
          <g clip-path="url(#clippath)">
            <rect x="88.444" y="109.497" width="117.968" height="74.48" rx="11.418" ry="11.418" transform="translate(.691 294.166) rotate(-90)" fill="url(#Dégradé_sans_nom_67)" stroke-width="0"/>
            <path d="M110.189,151.306v-52.135c0-6.306,5.112-11.418,11.418-11.418h51.644c6.306,0,11.418,5.112,11.418,11.418v37.014s-74.48,15.12-74.48,15.12Z" fill="url(#Dégradé_sans_nom_66)" fill-rule="evenodd" stroke-width="0"/>
          </g>
          <path d="M173.251,206.136h-51.644c-6.525,0-11.832-5.308-11.832-11.832v-95.133c0-6.524,5.308-11.832,11.832-11.832h51.644c6.525,0,11.832,5.308,11.832,11.832v95.133c0,6.524-5.308,11.832-11.832,11.832ZM121.606,88.168c-6.067,0-11.003,4.936-11.003,11.003v95.133c0,6.067,4.936,11.003,11.003,11.003h51.644c6.067,0,11.003-4.936,11.003-11.003v-95.133c0-6.067-4.936-11.003-11.003-11.003h-51.644Z" fill="#010104" stroke-width="0"/>
        </g>
      </g>
      <g clip-path="url(#clippath-1)">
        <g>
          <path d="M164.319,204.113c-.028.163-.054.326-.087.487,2.838-1.892,6.059-3.068,9.161-4.468-2.61.348-6.044,1.956-9.074,3.98Z" fill="#000" stroke-width="0"/>
          <path d="M192.11,181.809c1.234-3.611,1.376-7.331.983-11.095-.073-.695-.03-1.417-.974-1.538.068,1.801.137,3.604.203,5.347.028-.091.074-.236.12-.382.065.012.13.024.195.036-.167,1.796-.335,3.592-.502,5.388.646-2.279.735-4.608.738-6.941.334,4.53-.622,8.816-2.61,12.906.097.027.193.054.29.081.523-1.266,1.115-2.508,1.557-3.802Z" fill="#000" stroke-width="0"/>
          <path d="M190.983,167.892c.041.049.082.098.123.147.272-.194.543-.387.8-.571.037.277.082.617.127.956.277-.28.589-.613.547-.892-.2-1.333-.497-2.651-.778-4.068-.287,1.547-.554,2.987-.821,4.428Z" fill="#000" stroke-width="0"/>
          <path d="M185.024,82.668c3.506-.628,6.849-1.806,10.187-3,2.824-1.01,5.649-2.025,8.648-2.398,1.315-.164,2.638-.269,4.014-.407-3.73-.118-7.291.521-10.799,1.551-3.672,1.077-7.318,2.264-11.034,3.162-4.461,1.078-8.912.778-13.244-.823-.138-.051-.267-.129-.4-.194,2.442-.103,4.762-.518,6.886-1.61.003-.144.054-.244.135-.286.912-.474,1.84-.919,2.738-1.416.409-.226.763-.551,1.142-.83h-1.315c-4.226,2.524-8.67,4.091-13.707,3.098.992.497,1.996.925,2.978,1.399,4.396,2.123,8.994,2.61,13.768,1.755Z" fill="#000" stroke-width="0"/>
          <path d="M165.741,203.82c-.521.34-1.042.679-1.563,1.019-.025.114-.051.227-.078.34.581-.404,1.173-.794,1.767-1.181-.042-.059-.084-.118-.126-.177Z" fill="#000" stroke-width="0"/>
          <rect x="148.82" y="174.987" width="0" height=".31" fill="#000" stroke-width="0"/>
          <path d="M137.473,163.398c.123-.398.257-.794.398-1.19-.019-.021-.037-.042-.056-.063-.165.396-.321.794-.468,1.193.042.021.084.04.126.061Z" fill="#000" stroke-width="0"/>
          <path d="M78.143,174.953v1.162c.619.072,1.254.145,1.889.218.012-.03.024-.06.036-.091-.624-.418-1.248-.836-1.925-1.29Z" fill="#000" stroke-width="0"/>
          <path d="M124.197,158.325c.055.027.109.053.164.079.722-1.48,1.587-2.861,2.559-4.166-.062-.074-.121-.15-.178-.228-.41.587-.808,1.185-1.181,1.806-.49.815-.911,1.671-1.364,2.509Z" fill="#000" stroke-width="0"/>
          <path d="M137.271,161.57c-.022-.023-.043-.045-.065-.068-.232.488-.451.978-.657,1.467.051.022.102.044.153.067.176-.487.367-.976.57-1.466Z" fill="#000" stroke-width="0"/>
          <path d="M123.686,157.955c.157-.007.21-.065.241-.133.703-1.54,1.55-2.972,2.498-4.329-.048-.093-.1-.185-.141-.282-.698,1.05-1.341,2.143-1.916,3.289-.24.478-.455.97-.681,1.455Z" fill="#000" stroke-width="0"/>
          <path d="M179.837,169.364c-.108-.008-.216-.003-.322.007.131.2.259.402.381.608.329-.223.657-.45.98-.688-.125-.313-.217-.545-.381-.959-.272.426-.465.729-.657,1.031Z" fill="#000" stroke-width="0"/>
          <path d="M161.933,140.973l-.098.507c-.063-.006-.126-.013-.189-.019.034-.163.068-.326.102-.489-.289-.002-.577-.012-.864-.027-.299.866-.601,1.741-.904,2.621.2.157.414.313.624.469.229-.457.46-.919.687-1.37,0,0-.013.076-.039.149-.144.413-.238.853-.446,1.232-.018.033-.037.066-.055.099.128.094.249.189.38.282.509-1.128.942-2.281,1.273-3.469-.157.005-.314.012-.471.012Z" fill="#000" stroke-width="0"/>
          <path d="M103.375,125.725c-1.356-2.617-2.929-5.122-4.414-7.672-.234-.402-.478-.799-.73-1.221-.069.093-.111.123-.114.157-.022.24-.028.481-.055.72-.411,3.722.359,7.322,1.128,10.923.6,2.807,1.207,5.623.968,8.514-.107,1.294-.441,2.569-.694,3.978.952-2.411,1.433-4.807,1.176-7.284-.331-3.196-.797-6.377-1.18-9.568-.118-.98-.152-1.97-.224-2.955.074-.02.147-.041.221-.061.712,1.186,1.425,2.372,2.137,3.558.025-.01.05-.019.075-.028-.042-.182-.085-.365-.127-.547.038-.014.076-.028.114-.042l1.69,3.129c.052-.026.103-.051.155-.077-.318-.685-.624-1.376-.957-2.054-.322-.655-.67-1.297-1.007-1.945,1.558,2.344,2.601,4.917,3.392,7.756.081-.221.122-.277.116-.329-.016-.151-.031-.307-.08-.45-.514-1.509-.864-3.103-1.589-4.503Z" fill="#000" stroke-width="0"/>
          <path d="M180.183,80.342c2.633.235,5.254.226,7.836-.431,3.414-.868,6.818-1.777,10.24-2.609,1.527-.371,3.089-.595,4.635-.886h-3.551c-1.447.3-2.894.594-4.339.901-1.942.412-3.873.889-5.826,1.235-1.531.271-3.09.386-4.637.57-.024-.074-.047-.149-.07-.223,1.232-.828,2.463-1.655,3.695-2.483h-2.63c-1.916,1.281-3.832,2.561-5.763,3.852.122.023.266.062.411.074Z" fill="#000" stroke-width="0"/>
          <path d="M78.545,126.061c.566.368,1.081.82,1.589,1.269,2.824,2.496,4.682,5.638,6.039,9.106.282.721.501,1.467.749,2.202-1.766-2.223-3.408-4.499-6.102-5.707-.918-.412-1.746-1.022-2.682-1.581v.788c4.523,2.479,8.173,5.819,10.289,10.715-.131-6.4-5.942-16.417-10.301-17.832-.12.451-.007.763.419,1.039Z" fill="#000" stroke-width="0"/>
          <path d="M100.849,117.367c-1.785-3.473-3.217-7.026-2.394-11.14-.094.105-.132.133-.149.17-.195.44-.373.887-.58,1.321-2.237,4.682-2.685,9.595-1.664,14.618.67,3.296,1.604,6.54,2.446,9.801.59,2.285,1.001,4.579.611,6.945-.103.624-.244,1.242-.367,1.862.802-2.114,1.078-4.31.681-6.515-.449-2.494-1.055-4.961-1.639-7.429-1.013-4.279-1.818-8.576-1.151-12.996.199-1.321.517-2.624.781-3.935.075.005.151.011.226.016.106,2.248.656,4.374,1.691,6.478-.01-.209-.014-.313-.025-.553.822,1.533,1.579,2.945,2.336,4.357.044-.021.088-.042.132-.063v-.483c1.007,1.91,1.936,3.67,2.864,5.429.046-.021.092-.043.139-.064-.12-.292-.219-.595-.362-.876-1.187-2.317-2.384-4.628-3.574-6.943Z" fill="#000" stroke-width="0"/>
          <path d="M88.205,130.653c2.712,3.191,4.354,6.806,4.509,11.03.04,1.089.006,2.18.006,3.135.511-1.345,1.078-2.836,1.642-4.327,1.554-4.107,1.924-8.302.486-12.482-.886-2.577-2.015-5.09-3.249-7.523-2.227-4.393-3.381-8.993-3.254-13.918.031-1.223.005-2.448.005-3.672-.004,0-.008.001-.013.002-.079,1.902-.217,3.803-.224,5.705-.013,3.558.492,7.028,1.98,10.307.949,2.093,1.9,4.186,2.798,6.301,1.075,2.534,1.878,5.155,1.856,7.934-.012,1.438-.185,2.885-.409,4.309-.166,1.055-.532,2.079-.809,3.117-.262-2.588-.74-5.048-2.139-7.263.03.148.06.296.122.605-1.067-1.674-2.001-3.241-3.457-4.397.676.897,1.352,1.793,2.028,2.69-.028.019-.055.037-.083.056-2.034-2.454-4.069-4.908-6.103-7.361-.06.047-.12.094-.181.141.13.188.248.385.391.563,1.361,1.687,2.694,3.399,4.098,5.05Z" fill="#000" stroke-width="0"/>
          <path d="M162.316,145.06c-.022.046-.043.092-.065.138.094.062.195.123.291.185.742-1.49,1.364-3.016,1.832-4.585-.135.019-.27.038-.405.054-.44,1.437-.999,2.838-1.652,4.208Z" fill="#000" stroke-width="0"/>
          <path d="M82.231,118.177c.856,3.114,2.595,5.719,4.698,8.108,1.878,2.133,3.774,4.25,5.665,6.371.015.016.072-.005.173-.016-.046-.799-.083-1.603-.139-2.405-.191-2.736-1.18-5.243-2.289-7.7-1.966-4.356-3.066-8.886-2.908-13.685.05-1.528.157-3.055.237-4.582-.026-.009-.051-.017-.077-.026-.084.647-.171,1.293-.252,1.94-.494,3.958-.615,7.924.405,11.809.72,2.744,1.705,5.419,2.556,8.13.181.576.295,1.172.441,1.759-.055.033-.11.066-.165.098-1.104-1.173-2.208-2.347-3.311-3.52-.025.017-.05.034-.076.05.096.207.192.413.288.62-.045.027-.09.054-.135.081-.926-1.148-1.853-2.295-2.779-3.443-.062.051-.124.101-.186.152,1.158,1.511,2.315,3.021,3.473,4.532-2.67-2.537-4.445-5.642-5.737-9.061,0,.283.046.54.115.79ZM88.247,126.715c.915.975,1.83,1.95,2.745,2.925-.041.042-.082.084-.123.127-.912-.982-1.823-1.964-2.735-2.947.038-.035.075-.07.113-.105Z" fill="#000" stroke-width="0"/>
          <path d="M162.733,93.624c.083.259.13.494.23.703,1.008,2.114,1.973,4.252,3.026,6.342.282.246.565.492.847.738.06.052.12.104.18.157-1.538-2.553-3.075-5.107-4.128-7.918-.005-.013-.056-.009-.154-.022Z" fill="#000" stroke-width="0"/>
          <path d="M182.457,129.927c-1.846,1.398-4.503,4.428-5.845,6.575-2.297,3.676-3.921,7.671-5.551,11.664-1.613,3.951-3.235,7.899-6.384,10.966.209-.121.398-.257.561-.42,1.469-1.461,2.763-3.073,3.692-4.92,1.456-2.891,2.831-5.824,4.187-8.764,1.387-3.006,2.944-5.912,4.873-8.608.338-.472.739-.898,1.11-1.345.038.024.077.048.115.072-.489,1.67-.979,3.339-1.468,5.009.032.016.063.032.095.047.089-.126.177-.251.266-.377.026.011.053.023.079.034-.367,1.432-.733,2.864-1.1,4.296.054.014.108.027.163.041.532-1.798,1.065-3.595,1.597-5.393.057.023.115.045.173.068-1.033,3.375-2.066,6.75-3.099,10.125,2.642-6.153,3.838-12.789,6.536-19.072Z" fill="#000" stroke-width="0"/>
          <path d="M78.131,127.149v3.054c1.34.678,2.678,1.355,4.185,2.118-1.217-1.959-2.413-3.739-4.185-5.172Z" fill="#000" stroke-width="0"/>
          <path d="M104.59,161.171c-.9.338-1.847.55-2.773.82,1.21.009,2.408-.074,3.596-.232,5.777-.77,10.502-3.43,13.999-8.093,3.408-4.543,4.955-9.539,5.047-14.859-.205-.11-.409-.22-.61-.338-.048,1.531-.214,3.079-.526,4.648-.948,4.767-3.056,8.952-6.514,12.368-2.415,2.386-5.316,4.059-8.587,5.044-.27.081-.549.134-.824.2.15-.229.352-.313.522-.44,1.395-1.049,2.815-2.069,4.166-3.172,1.5-1.223,2.163-3.008,2.949-4.698.295-.635.602-1.268.84-1.924.305-.839.547-1.702.816-2.554-.05-.015-.101-.03-.151-.045-.122.324-.244.648-.366.973.742-2.936,1.238-5.884.84-8.922,0,.433.017.866-.003,1.298-.154,3.283-.703,6.49-1.98,9.534-2.051,4.891-5.404,8.501-10.441,10.393Z" fill="#000" stroke-width="0"/>
          <path d="M161.937,136.827c-.061,0-.123-.001-.185-.002.04,0,.08.003.12.003.022,0,.043-.002.065-.002Z" fill="#000" stroke-width="0"/>
          <path d="M110.814,199.677c-.896-.585-1.799-1.117-2.64-1.733-3.107-2.28-6.2-4.58-9.286-6.889-3.518-2.632-7.18-5.015-11.313-6.589-.744-.283-1.503-.527-2.255-.788.134.203.31.284.491.351,4.002,1.48,7.605,3.66,10.925,6.313,2.667,2.131,5.294,4.311,7.937,6.472.346.283.68.583,1.165,1.001-1.922-.231-3.426-1.252-5.189-1.294-.445-.01-.882-.361-1.322-.557-.589-.262-1.178-.525-1.767-.788-.025.055-.051.109-.076.164.856.425,1.704.869,2.572,1.268.851.391,1.722.736,2.585,1.101-3.308-.938-6.162-2.819-9.145-4.434,2.863,3.102,13.55,7.032,17.317,6.403ZM104.305,198.196c.746.187,1.493.373,2.239.56-.007.043-.015.086-.022.129-.749-.188-1.498-.375-2.247-.563.01-.042.02-.084.03-.126Z" fill="#000" stroke-width="0"/>
          <path d="M81.396,146.062c.683.511,1.378,1.007,2.137,1.374,5.313,2.568,10.895,2.977,16.599,1.767,3.946-.838,7.294-2.799,9.913-5.914.48-.571.911-1.183,1.364-1.776-.559,2.819-1.692,5.388-3.275,7.929.244-.141.329-.19.415-.239.041.035.082.069.123.104-.671.849-1.315,1.722-2.02,2.542-.716.833-1.491,1.615-2.264,2.445.691-.578,1.364-1.14,2.036-1.703-2.477,2.755-5.709,4.242-9.118,5.447.369-.004.711-.065,1.042-.162,10.076-2.937,14.071-11.357,14.232-20.532-.111.306-.206.618-.336.916-1.909,4.359-5.216,7.269-9.503,9.167-5.639,2.497-16.069,2.344-21.343-1.365Z" fill="#000" stroke-width="0"/>
          <path d="M165.553,157.217c.216-.086.339-.234.455-.387.448-.594.854-1.21,1.229-1.841-.133.093-.271.181-.416.258-.001,0-.015.008-.033.018-.077.132-.149.266-.228.397-.321.527-.67,1.037-1.006,1.555Z" fill="#000" stroke-width="0"/>
          <path d="M161.871,93.018c.191.982.375,1.974.738,2.895.361.916.729,1.829,1.1,2.74.189.17.378.34.567.509-.955-1.979-1.822-3.998-2.406-6.144Z" fill="#000" stroke-width="0"/>
          <path d="M180.012,158.843c.176-.269.261-.598.388-.899-1.546,2.464-3.192,4.828-5.105,6.962.197.145.39.296.581.449.249-.339.48-.696.689-1.073-.111.097-.223.193-.334.29.137-.221.268-.445.412-.661,1.124-1.688,2.257-3.371,3.369-5.067Z" fill="#000" stroke-width="0"/>
          <path d="M182.031,168.094c-.251-.025-.606-.162-.727-.049-.171.16-.168.505-.24.77.073.035.147.07.22.105.248-.184.496-.368.744-.552,0-.091.002-.183.003-.274Z" fill="#000" stroke-width="0"/>
          <path d="M80.42,99.455c-.204.278-.348.599-.52.9.05.034.099.068.149.102,1.93-2.696,4.064-5.202,6.679-7.256,2.635-2.07,5.529-3.652,8.761-4.605-2.15-.04-4.288-.097-6.422-.027-3.659.12-7.147.928-10.367,2.752-.521.295-.748.611-.534,1.258,1.993-1.237,4.129-2.12,6.405-2.601,2.292-.485,4.619-.725,6.999-.61-.925.429-1.882.802-2.767,1.301-1.25.705-2.517,1.366-3.402,2.616-.583.823-1.466,1.432-2.207,2.146-.139.134-.355.325-.336.463.078.585-.374.843-.653,1.21-.596.783-1.202,1.559-1.784,2.352Z" fill="#000" stroke-width="0"/>
          <path d="M191.084,174.297c-3.22,4.974-6.842,9.566-11.281,13.386-.218.357-.452.703-.694,1.042,3.974-2.812,7.409-6.256,10.523-10.076.071.044.142.089.212.133-.349,1.36-.699,2.719-1.072,4.169.161-.237.267-.393.373-.55.048.023.096.046.145.069-.498,1.148-.997,2.296-1.495,3.444.051.024.102.048.154.073.54-1.079,1.081-2.157,1.621-3.236-.775,2.541-2.321,4.61-3.943,6.634,3.392-1.939,6.778-11.387,5.457-15.088ZM190.725,177.037c.034.003.069.007.103.01-.093.86-.185,1.72-.278,2.581-.055-.006-.109-.012-.164-.018.113-.857.226-1.715.339-2.572Z" fill="#000" stroke-width="0"/>
          <path d="M103.513,89.493c.658-.379,1.288-.805,1.931-1.209-.038-.042-.076-.083-.115-.125-5.596,2.968-10.27,6.731-11.599,13.453.883-.943,1.686-1.896,2.587-2.743,2.531-2.377,5.495-4.113,8.575-5.669,3.383-1.709,6.767-3.417,9.825-5.688.404-.3.811-.598,1.203-.914.391-.314.765-.649,1.146-.976-3.554,2.745-7.522,4.732-11.561,6.601-2.762,1.278-5.517,2.572-8.015,4.34-.281.199-.568.391-.946.652.64-1.695,2.205-2.565,2.792-4.113,1.468-1.115,2.551-2.673,4.176-3.609Z" fill="#000" stroke-width="0"/>
          <path d="M78.169,178.054c.383,1.33,12.446.61,16.404-1.057-3.054.173-5.87-.416-8.639-1.306-2.764-.889-5.341-2.165-7.772-3.841-.212.754-.002,1.178.619,1.472.669.316,1.304.71,1.941,1.09,2.285,1.365,4.792,2.126,7.363,2.713.401.092.812.141,1.219.211-3.078.534-6.14.534-9.215.282.083.044.166.088.249.132-.002.026-.004.051-.007.077-.733-.083-1.466-.165-2.2-.248-.008.094-.015.189-.023.284,1.83.201,3.661.402,5.491.603-.001.021-.002.041-.004.062-1.813-.158-3.627-.316-5.427-.473Z" fill="#000" stroke-width="0"/>
          <path d="M91.735,103.092c-.366,2.594-.171,5.156.21,7.721.071.476.162.949.25,1.423.082.444.173.887.26,1.33.105-2.86.73-5.573,1.8-8.193,1.713-4.191,4.743-7.199,8.554-9.496,2.438-1.47,4.903-2.895,7.334-4.375,2.284-1.39,4.479-2.909,6.396-4.818-.132.097-.261.199-.397.292-1.947,1.338-3.842,2.762-5.855,3.992-2.839,1.736-5.798,3.273-8.645,4.996-3.926,2.377-6.839,5.649-8.334,10.053-.396,1.165-.661,2.374-.979,3.533-.396-2.933-.027-5.884.547-8.764.359-1.805,1.248-3.531,2.079-5.204.456-.918,1.266-1.666,1.949-2.462.699-.815,1.439-1.595,1.923-2.129-.33.29-.95.799-1.529,1.352-3.079,2.947-4.965,6.504-5.563,10.748Z" fill="#000" stroke-width="0"/>
          <path d="M113.606,94.854c-10.216,4.387-13.075,15.224-7.392,24.087-1.211-2.326-2.045-4.773-2.303-7.384-.261-2.647.197-5.177,1.288-7.615,1.098-2.454,4.03-5.46,5.083-5.632-.526,1.196-1.051,2.393-1.577,3.589.037.015.074.031.111.046.086-.059.173-.117.299-.203-.301,1.077-.581,2.078-.861,3.079.053.016.106.031.159.047.446-1.284.892-2.568,1.337-3.853.056.017.112.034.168.05-.866,2.285-1.749,4.566-1.641,7.07.642-4.861,2.894-9.071,5.328-13.283Z" fill="#000" stroke-width="0"/>
          <path d="M92.514,165.198c4.752.895,9.551,1.549,14.214,2.89,2.669.768,5.246,1.704,7.648,2.96.126-.25.258-.497.396-.74-1.723-.889-3.541-1.617-5.425-2.234-5.039-1.65-10.269-2.372-15.486-3.159-2.924-.441-5.85-.899-8.622-1.977-1.294-.503-2.53-1.154-3.792-1.738l-.035.027c.426.265.844.544,1.28.792,3.054,1.736,6.415,2.538,9.822,3.18Z" fill="#000" stroke-width="0"/>
          <path d="M156.497,140.192c.106.131.224.259.335.388.059-.082.118-.164.176-.246-.171-.046-.341-.092-.511-.142Z" fill="#000" stroke-width="0"/>
          <path d="M174.655,169.856h0c-.137-.147-.277-.29-.421-.431h0c.144.14.284.284.421.431Z" fill="#000" stroke-width="0"/>
          <path d="M157.698,141.524c.261.266.534.531.82.792.426-.486.851-.971,1.277-1.457-.475-.053-.947-.124-1.416-.213-.057.074-.113.148-.169.222-.168.22-.341.436-.511.655Z" fill="#000" stroke-width="0"/>
          <path d="M146.04,172.93c0,.022.002.043.002.065h0c0-.022-.001-.043-.002-.065h0Z" fill="#000" stroke-width="0"/>
          <path d="M108.257,174.056c.937.274,1.893.376,2.843.519.631.095,1.26.208,1.888.322.018-.08.036-.161.056-.241-.234-.036-.467-.074-.699-.118-1.344-.257-2.724-.327-4.088-.482Z" fill="#000" stroke-width="0"/>
          <path d="M178.143,177.998c.003.045.002.091.004.136h0c-.002-.045-.001-.091-.004-.136Z" fill="#000" stroke-width="0"/>
          <path d="M100.686,174.021c1.624.221,3.255.368,4.886.504,2.448.204,4.896.406,7.313.831.029-.142.062-.282.094-.423-4.081-.564-8.177-.865-12.294-.912Z" fill="#000" stroke-width="0"/>
          <path d="M194.177,100.799c.208.611.37,1.237.552,1.857-.533-5.543-4.491-10.318-10.347-11.944,4.994,6.605,6.476,13.957,5.112,21.966,1.467-6.477,1.31-12.802-1.707-18.873.072-.058.145-.115.217-.173.993.89,1.985,1.78,3.008,2.697-.056-.165-.101-.295-.146-.425.048-.024.097-.049.145-.073.717,1.018,1.434,2.036,2.151,3.054.028-.019.056-.037.084-.056-.292-.565-.585-1.131-.877-1.696.443.523.782,1.101,1.055,1.708.286.637.527,1.297.753,1.959Z" fill="#000" stroke-width="0"/>
          <path d="M91.532,156.556c-.487-.014-.974-.002-1.461-.002.005.067.01.133.015.2,3.999.531,7.792-.083,11.314-2.13,2.495-1.45,4.311-3.548,5.713-5.975-9.098,3.53-17.843,3.204-26.186-1.971,2.887,2.585,6.464,3.863,10.255,4.698,3.789.834,7.6.9,11.454.353-1.267,1.289-2.841,2.051-4.369,2.902.288-.068.576-.137.865-.205l.066.207c-1.51.497-3.019.995-4.529,1.492.752-.053,1.506-.121,2.195-.37,1.449-.524,2.865-1.138,4.294-1.718-.462.307-.902.659-1.397.898-2.598,1.253-5.361,1.704-8.227,1.62ZM104.949,150.961c-1.122,1.244-2.21,2.345-3.663,3.002,1.189-.975,2.38-1.95,3.663-3.002Z" fill="#000" stroke-width="0"/>
          <path d="M178.156,178.443h0c.002.103.009.206.009.31,0,.409-.023.812-.061,1.211h0c.037-.399.061-.802.061-1.211,0-.104-.006-.206-.009-.31Z" fill="#000" stroke-width="0"/>
          <path d="M115.767,154.248c1.838-1.715,3.478-3.596,4.62-5.849,1.703-3.357,2.486-6.864,2.585-10.477-.257-.17-.51-.347-.758-.531-.139,3.207-.859,6.318-2.281,9.319-.264.557-.598,1.081-.899,1.621-.051-.023-.102-.046-.152-.069.363-1.971.726-3.943.55-5.959-.036.183-.072.366-.109.548-.017-.004-.033-.008-.05-.012-.068-1.589-.135-3.178-.203-4.767-.08-.004-.161-.008-.241-.013.26,3.646.044,7.252-.831,10.805,1.091-5.354,1.054-10.686-.236-16.003,1.203,7.367,1.023,14.585-2.277,21.55.139-.079.223-.108.282-.163Z" fill="#000" stroke-width="0"/>
          <path d="M190.521,169.139c-2.242,5.702-5.259,10.806-9.16,15.239-.154.443-.325.878-.514,1.304,4.831-4.873,8.753-11.106,10.289-16.207-.094-.045-.192-.088-.286-.139-.109-.06-.214-.128-.329-.198Z" fill="#000" stroke-width="0"/>
          <path d="M202.879,194.455c-.596-2.408-.815-4.912-1.152-7.38-.343-2.513-.568-5.043-.957-7.549-.167-1.076-.616-2.108-.936-3.159.172-.007.205.107.274.192,1.317,1.617,2.63,3.238,3.961,4.844.922,1.112,1.338,2.512,2.282,3.658.849,1.031,1.111,2.543,1.638,3.84.129.317.279.624.419.936-.699-5.091-6.516-13.74-10.614-16.074.474,1.012,1.098,2.139,1.541,3.333,1.063,2.863,1.294,5.887,1.578,8.897.278,2.943.551,5.886,1.433,8.732,1.014,3.27,2.643,6.146,5.317,8.353.539.444,1.136.818,1.706,1.224-3.863-3.358-5.404-5.453-6.491-9.845Z" fill="#000" stroke-width="0"/>
          <path d="M200.758,211.007h6.179c.004-.036.008-.072.011-.108h-6.191c0,.036,0,.072,0,.108Z" fill="#000" stroke-width="0"/>
          <path d="M183.02,205.508c-3.609,1.474-7.402,2.24-11.214,2.945-2.754.509-5.504,1.053-8.112,2.126-.246.101-.476.242-.714.365.019.078.038.156.057.234.846-.11,1.708-.155,2.536-.344,1.342-.306,2.656-.734,3.994-1.061,3.463-.845,6.976-1.516,10.389-2.527,5.074-1.503,9.511-4.112,12.861-8.332,1.101-1.386,2.022-2.883,2.633-4.562-.052.08-.112.157-.154.242-2.618,5.296-6.902,8.72-12.276,10.914Z" fill="#000" stroke-width="0"/>
          <path d="M209.913,203.636c-2.522-1.83-4.154-4.295-5.08-7.236-.981-3.117-1.046-6.333-.912-9.561.011-.272.047-.544.071-.816.057-.015.114-.03.17-.045.525,1.114,1.05,2.227,1.659,3.518v-.749c.438,1.02.799,1.862,1.161,2.704.06-.023.12-.047.18-.07-.332-.894-.663-1.788-.995-2.681.045-.015.09-.031.135-.046l2.187,5.882c.065-.027.131-.054.196-.081-1.402-4.407-2.81-8.812-5.888-12.649,0,1.464-.01,2.755.002,4.046.029,3.138.204,6.262,1.033,9.31.881,3.239,2.518,6.002,5.206,8.08.354.274.738.509,1.108.761-.028-.205-.128-.289-.234-.366Z" fill="#000" stroke-width="0"/>
          <path d="M211.521,187.573c.412.516.825,1.033,1.237,1.549v-.789c-.398-.271-.796-.542-1.194-.814-.014.018-.029.036-.043.054Z" fill="#000" stroke-width="0"/>
          <path d="M200.706,171.174c.047.255.167.416.298.568,1.641,1.894,3.599,3.383,5.819,4.535,1.878.975,3.881,1.594,5.936,2.061v-.395c-4.739-.952-8.733-3.235-12.052-6.77Z" fill="#000" stroke-width="0"/>
          <path d="M119.066,211.173c1.433-1.087,2.748-2.32,4.007-3.611-1.381,1.148-2.761,2.297-4.142,3.445.045.055.09.11.135.165Z" fill="#000" stroke-width="0"/>
          <path d="M188.301,207.602c-2.009,1.112-4.018,2.223-6.162,3.41.77.079,5.749-2.668,6.162-3.41Z" fill="#000" stroke-width="0"/>
          <path d="M109.52,196.176c-3.615-2.185-7.105-4.575-10.656-6.865-4.045-2.609-8.249-4.888-12.941-6.132-.197-.052-.398-.087-.598-.13,1.388.561,2.801,1.023,4.166,1.601,4.777,2.022,8.968,5.02,13.166,8,5.019,3.562,10.162,6.869,16.333,8.159-2.694.341-5.383.213-8.079.057.065.064.136.091.205.123.008.004.003.035.015.206-2.073-.372-4.11-.737-6.287-1.127.578.222,1.053.404,1.515.581-1.506-.465-3.024-.895-4.505-1.427-1.301-.467-2.553-1.068-3.827-1.61,5.253,4.028,16.926,5.44,25.43,3.115-1.069-.126-2.087-.19-3.083-.374-3.875-.716-7.502-2.151-10.854-4.177ZM106.772,200.765c.644.104,1.286.215,1.932.306.928.131,1.859.242,2.784.389-1.602-.027-3.172-.265-4.716-.694Z" fill="#000" stroke-width="0"/>
          <path d="M122.708,207.169c-1.701,1.278-3.402,2.555-5.177,3.889.71-.022,3.602-2.18,5.177-3.889Z" fill="#000" stroke-width="0"/>
          <path d="M130.717,197.369c-5.624.077-10.623-1.838-15.195-4.956-2.204-1.503-4.266-3.213-6.387-4.837-2.685-2.055-5.454-3.967-8.694-5.067-.748-.254-1.506-.475-2.26-.711,2.832-.398,5.649-.408,8.468-.11-.286-.081-.573-.162-.86-.243.023-.071.046-.143.068-.214,2.115.421,4.231.841,6.346,1.262-2.588-.986-5.274-1.468-8.033-1.608.197-.042.392-.073.587-.072.372.003.746.004,1.116.042,2.436.252,4.791.804,7.08,1.604-.03-.136-.059-.272-.086-.409-2.09-.719-4.246-1.241-6.499-1.499-4.677-.535-10.555.776-12.424,1.38.925.122,2.045.19,3.126.435,1.105.25,2.188.626,3.249,1.031,3.459,1.318,6.422,3.464,9.333,5.688,3.082,2.355,6.177,4.687,9.754,6.275,3.646,1.618,7.4,2.366,11.27,2.188.013-.06.026-.121.04-.181Z" fill="#000" stroke-width="0"/>
          <path d="M187.038,210.92c.036.082.073.165.109.247,1.342-.566,2.517-1.423,3.763-2.157-.033-.059-.067-.118-.1-.176-1.257.695-2.515,1.391-3.772,2.086Z" fill="#000" stroke-width="0"/>
          <path d="M186.928,210.792c1.686-.875,3.352-1.792,5.048-2.646.851-.429,1.754-.755,2.633-1.128-3.198.696-6.027,2.219-8.718,4.043.376-.019.725-.108,1.036-.27Z" fill="#000" stroke-width="0"/>
          <path d="M212.758,177.812v-.263c-1.652-.493-3.303-.986-4.955-1.48,1.554.86,3.252,1.309,4.955,1.743Z" fill="#000" stroke-width="0"/>
          <path d="M205.865,98.566c-1.909,2.95-3.088,6.218-4.172,9.529-.258.789-.521,1.576-.781,2.364.773-1.675,1.408-3.397,2.096-5.097,1.514-3.742,3.412-7.26,6.393-10.058,1.024-.962,2.233-1.727,3.358-2.582v-.921c-.247.124-.512.224-.739.377-2.503,1.693-4.518,3.856-6.155,6.386Z" fill="#000" stroke-width="0"/>
          <path d="M207.521,88.495c.02.044.04.088.059.132,1.726-.607,3.452-1.215,5.178-1.822v-.263c-1.253.433-2.511.854-3.757,1.305-.505.183-.987.43-1.48.648Z" fill="#000" stroke-width="0"/>
          <path d="M208.029,98.228c-2.46,2.892-4.043,6.269-5.413,9.765-.347.885-.707,1.765-1.061,2.647.659-1.082,1.191-2.218,1.72-3.356,1.472-3.167,3.135-6.215,5.601-8.74,1.157-1.184,2.345-2.348,3.882-3.059v-1.315c-.155.064-.324.105-.462.196-1.622,1.066-3.013,2.387-4.268,3.862Z" fill="#000" stroke-width="0"/>
          <path d="M204.184,82.025c-4.086,1.019-8.054,2.534-12.299,2.875.332.021.667.068.985.014,2.282-.388,4.568-.758,6.837-1.21,2.635-.524,5.237-1.231,7.886-1.655,1.692-.271,3.442-.173,5.166-.241v-.658c-2.915-.271-5.76.173-8.574.875Z" fill="#000" stroke-width="0"/>
          <path d="M205.051,83.334c-4.372.724-8.652,2.014-13.128,2.122.397.047.794.083,1.183.042,3.024-.319,6.051-.613,9.067-.994,2.608-.33,5.205-.742,7.847-.55.46.033.918.11,1.376.167.002.053.003.106.005.159-1.12.494-2.24.988-3.359,1.481l.04.104.461-.076c.01.032.019.064.029.096-.876.401-1.753.801-2.629,1.202.022.054.044.107.067.161.634-.238,1.269-.476,1.903-.714.019.055.038.109.057.164-1.817.65-3.634,1.3-5.45,1.95.348.055.673.015.974-.092,2.201-.791,4.4-1.588,6.594-2.4.898-.332,1.782-.704,2.672-1.058v-1.973c-2.584-.465-5.146-.214-7.707.211Z" fill="#000" stroke-width="0"/>
          <path d="M210.776,103.757c.661-1.004,1.321-2.008,1.982-3.012v-.658c-.846,1.116-1.519,2.33-2.139,3.574.052.032.105.064.157.096Z" fill="#000" stroke-width="0"/>
          <path d="M206.807,130.069c1.583.497,3.168.989,4.747,1.497.41.132.803.318,1.204.48v-.395c-2.087-.774-4.117-1.755-6.411-1.782.141.109.302.15.46.2Z" fill="#000" stroke-width="0"/>
          <path d="M209.944,172.372c-5.976-5.782-7.774-12.876-6.536-20.91.162-1.049.424-2.083.639-3.124-1.075,2.999-1.567,6.1-1.5,9.272.128,6.131,2.29,11.458,6.505,15.975-1.837-.63-3.398-1.667-4.998-2.946.115.285.16.397.282.698-.431-.367-.751-.588-1.008-.867-.756-.82-1.481-1.669-2.229-2.497-.385-.426-.889-.776-1.169-1.259-.436-.752-.74-1.582-1.074-2.39-.248-.602-.455-1.22-.681-1.832-.092.307-.085.588-.012.85.858,3.081,2.401,5.763,4.699,8.001,2.766,2.695,6.119,4.166,9.896,4.759v-1.315c-.253-.16-.534-.289-.753-.487-.7-.629-1.385-1.275-2.061-1.929ZM205.542,172.972c-.584-.481-1.167-.963-1.751-1.444-.564-.515-1.128-1.03-1.692-1.545.016-.018.033-.036.049-.053.562.517,1.124,1.033,1.686,1.55.608.448,1.216.895,1.823,1.343-.039.05-.078.1-.116.149ZM210.153,175.158c-1.297-.577-2.593-1.154-3.89-1.731.019-.043.038-.087.057-.13,1.3.57,2.599,1.141,3.899,1.711-.022.05-.044.1-.066.15Z" fill="#000" stroke-width="0"/>
          <path d="M204.539,148.902c-1.317,5.693-1.198,11.241,1.56,16.543,1.58,3.037,3.828,5.465,6.659,7.369v-1.052c-7.795-5.799-9.768-13.692-8.219-22.86Z" fill="#000" stroke-width="0"/>
          <path d="M208.524,127.767c-.049-.013-.105-.002-.269-.002.239.125.38.199.64.335-1.271-.114-2.402-.215-3.533-.316-.006.066-.012.132-.018.198.686.082,1.376.146,2.058.252.682.106,1.358.255,2.037.385-2.597-.385-5.172-.752-7.77-.079.206.062.416.083.62.059,2.2-.26,4.377-.106,6.517.435,1.331.337,2.636.777,3.952,1.17v-1.315c-.209-.05-.419-.095-.626-.151-1.203-.323-2.405-.649-3.608-.972Z" fill="#000" stroke-width="0"/>
          <path d="M201.682,122.348c-4.847.61-8.637,3.058-11.555,6.922-.326.432-.606.9-.806,1.199,1.016-1.101,2.054-2.415,3.279-3.52,3.579-3.227,7.846-4.545,12.614-4.071,2.741.273,5.252,1.316,7.545,2.855v-.921c-.195-.093-.397-.173-.585-.279-3.267-1.838-6.764-2.655-10.492-2.186Z" fill="#000" stroke-width="0"/>
          <path d="M192.593,127.684c-.814.729-1.521,1.578-2.277,2.372,1.073-.803,2.001-1.746,3.02-2.578,4.774-3.898,11.573-4.277,16.737-.929.946.614,1.793,1.381,2.685,2.077v-1.578c-.147-.092-.301-.175-.44-.277-6.201-4.552-14.012-4.203-19.725.913Z" fill="#000" stroke-width="0"/>
          <path d="M108.697,95.372c-4.647,3.999-7.071,8.951-6.406,15.186.321,3.015,1.423,5.757,3.105,8.402-.644-1.514-1.316-2.867-1.803-4.283-1.369-3.981-1.334-7.97.297-11.872,1.272-3.043,3.333-5.526,6.016-7.407,2.253-1.58,4.657-2.945,6.995-4.404.573-.357,1.15-.708,1.849-1.138-1.441,2.247-3.502,3.837-4.451,6.237-.173.437-.543.793-.797,1.202-.453.727-.888,1.466-1.331,2.2.036.021.073.042.109.063.104-.099.207-.197.311-.296-.82,1.634-1.773,3.188-2.103,5.007.088-.054.144-.124.174-.202,1.117-2.904,2.771-5.505,4.528-8.05,1.915-2.775,3.811-5.563,5.71-8.348.13-.191.222-.407.377-.699-.766.659-1.397,1.272-2.1,1.787-.704.515-1.468.953-2.228,1.388-2.83,1.619-5.759,3.084-8.253,5.23Z" fill="#000" stroke-width="0"/>
          <path d="M167.375,92.327c1.369,2.88,3.158,5.501,4.92,8.142,2.069,3.102,4.061,6.253,5.158,9.855.449,1.477.791,2.992,1.172,4.578.062.142.123.284.182.427-.059-.481-.113-.917-.174-1.348-.682-4.818-2.647-9.121-5.209-13.208-1.811-2.889-3.557-5.821-5.225-8.795-.914-1.63-1.505-3.418-1.835-5.269.795.946,1.51,1.953,2.386,2.793.825.791,1.598,1.649,2.809,2.025.814.253,1.475.994,2.209,1.511.492.347.992.684,1.642,1.132-.136-.285-.182-.38-.228-.476.044-.043.088-.086.131-.129,1.704,1.526,3.409,3.052,5.113,4.578.051-.056.102-.112.154-.168-1.217-1.158-2.363-2.403-3.666-3.453-1.925-1.55-3.964-2.956-5.95-4.431-1.949-1.447-3.747-3.039-4.827-5.277-.308-.638-.535-1.315-.837-2.07.039.559.08,1.016.101,1.474.126,2.832.753,5.537,1.974,8.108Z" fill="#000" stroke-width="0"/>
          <path d="M182.297,104.068c-.018-.309-.116-.565-.232-.813-1.476-3.156-3.733-5.658-6.556-7.644-1.6-1.125-3.297-2.111-4.95-3.16-.052.046-.105.091-.157.137.846,1.719,1.625,3.474,2.552,5.148,1.654,2.987,3.437,5.898,4.575,9.148,1.196,3.416,1.779,6.935,1.98,10.528.003.011.006.023.009.034-.011-.775.008-1.549-.018-2.321-.124-3.639-.743-7.201-2.094-10.579-1.078-2.696-2.396-5.297-3.604-7.941-.075-.165-.127-.34-.198-.532.121,0,.17-.015.204.002,1.263.632,2.077,1.954,3.551,2.284.259.058.457.393.683.6.555.511,1.109,1.022,1.663,1.533.032-.029.063-.058.095-.087-1.1-1.135-2.2-2.269-3.3-3.404,2.516,1.87,4.304,4.339,5.8,7.065Z" fill="#000" stroke-width="0"/>
          <path d="M186.679,89.431c-3.214-1.598-6.675-2.198-10.207-2.5-.262-.022-.522-.059-.784-.081-.259-.022-.519-.034-.943-.061,5.196,2.277,8.85,5.95,11.457,10.674,2.645,4.792,3.18,9.998,2.663,15.375,1.61-10.495-1.558-19-10.549-25.09,2.407.607,4.821,1.184,7.173,1.952,1.082.353,2.044,1.077,3.058,1.638.23.127.516.438.663.379.636-.254.869.288,1.171.562.744.675,1.447,1.402,2.109,2.159.58.663,1.081,1.395,1.629,2.113.037-.064.059-.087.055-.099-.032-.08-.063-.161-.106-.236-1.738-3.05-4.273-5.235-7.388-6.784Z" fill="#000" stroke-width="0"/>
          <path d="M154.577,87.994c.081-.214.136-.346.169-.479.896-3.628,2.887-6.556,5.859-8.759,1.266-.938,2.76-1.569,4.15-2.34h-2.236c-.773.483-1.577.925-2.314,1.458-1.613,1.166-2.889,2.654-3.943,4.337-.115.183-.239.36-.468.704.568-2.464,1.541-4.539,2.779-6.499h-1.315c-.026.103-.03.219-.08.309-1.907,3.437-2.385,7.206-2.645,11.191.014.026.028.052.043.078Z" fill="#000" stroke-width="0"/>
          <path d="M135.25,94.808c.164-.173.328-.347.49-.523-1.786-3.759-2.261-7.852-1.516-12.228.324-1.908.97-3.762,1.468-5.641h-.395c-.831,2.057-1.457,4.174-1.78,6.37-.62,4.227-.16,8.26,1.733,12.022Z" fill="#000" stroke-width="0"/>
          <path d="M132.638,92.658c-.564-3.12-.497-6.168-.092-9.22.325-2.449,1.169-4.749,2.093-7.022h-.526c-.037.102-.063.209-.111.306-1.318,2.647-2.165,5.439-2.563,8.366-.131.964-.196,1.936-.291,2.904-.742-1.317-1.027-2.755-1.308-4.315-.045.306-.075.504-.104.702-.043,0-.087-.002-.13-.003-.072-1.189-.144-2.378-.215-3.567-.156.749-.188,1.49-.147,2.228.041.744.154,1.484.254,2.4-.7-1.981-.433-5.922.539-9.021h-.263c-.033.145-.054.294-.1.436-1.501,4.676-1.26,9.187,1.318,13.457.493.817,1.095,1.567,1.646,2.349Z" fill="#000" stroke-width="0"/>
          <path d="M141.15,86.541c.12-2.316.583-4.664,1.423-7.046.369-1.046.846-2.053,1.273-3.078h-.789c-1.187,2.579-2.071,5.252-2.357,8.087-.108,1.077-.145,2.132-.128,3.17.201-.371.394-.748.577-1.132Z" fill="#000" stroke-width="0"/>
          <path d="M192.522,120.541c-.293.135-.505.222-.707.328-1.086.568-2.168,1.146-3.255,1.711-4.185,2.177-7.698,5.055-10.539,8.647-.678,1.304-1.512,2.526-2.502,3.643-.051.086-.105.169-.155.256-2.236,3.822-3.778,7.934-5.213,12.097-.399,1.158-.798,2.316-1.233,3.459.055.246.085.499.095.756.309-.718.601-1.444.886-2.174,1.454-3.729,2.753-7.519,4.58-11.1,2.764-5.416,6.56-9.907,11.615-13.311.767-.517,1.559-.996,2.34-1.493-.733.997-1.538,1.886-2.305,2.808-1.36,1.636-2.396,3.451-3.085,5.479-.407,1.198-1.015,2.326-1.448,3.517-.222.611-.213,1.302-.389,1.935-.222.8-.544,1.571-.79,2.365-.36,1.163-.691,2.335-1.035,3.503.052.007.104.014.157.021.018-.039.039-.078.054-.118,1.189-3.266,2.287-6.569,3.591-9.788,1.448-3.577,3.507-6.809,6.208-9.591.97-1,2.028-1.914,3.133-2.949Z" fill="#000" stroke-width="0"/>
          <path d="M106.05,183.034c.311.24.613.45.89.69,2.315,2.009,4.599,4.055,6.943,6.029,3.137,2.641,6.521,4.881,10.511,6.051,2.136.626,4.296.936,6.48.938.02-.075.038-.151.059-.225-3.803-.165-7.369-1.252-10.692-3.252-2.908-1.75-5.395-4.017-7.777-6.411-.548-.551-1.165-1.034-1.751-1.548.072-.103.144-.206.217-.309,1.061.346,2.125.693,3.249,1.06-.267-.566-.501-1.149-.706-1.747-3.136-1.012-6.077-1.596-7.424-1.276ZM109.331,183.653c1.255.319,2.509.638,3.764.956-.014.056-.028.113-.042.169-1.253-.326-2.506-.651-3.759-.977.012-.049.025-.099.037-.149Z" fill="#000" stroke-width="0"/>
          <path d="M181.988,167.628c.006-.007.012-.013.018-.02-.06-.041-.118-.079-.178-.12.053.047.107.093.16.14Z" fill="#000" stroke-width="0"/>
          <path d="M180.461,205.4c4.69-1.182,8.735-3.565,11.879-7.326,1.19-1.424,2.175-2.977,2.865-4.706-1.125,2.096-2.465,4.026-4.205,5.669-4.038,3.814-8.999,5.554-14.355,6.363-2.55.385-5.12.632-7.683.929-.563.065-1.132.08-1.699.118l-.074-.223c1.755-.897,3.511-1.794,5.402-2.761-.44.104-.738.174-1.036.244-.014-.044-.029-.087-.043-.131,1.48-.646,2.96-1.292,4.44-1.938-.029-.068-.059-.136-.088-.205-2.045.828-4.091,1.655-6.136,2.483.317-.246.651-.457,1.013-.6,2.44-.963,4.889-1.904,7.329-2.868.795-.314,1.572-.676,2.357-1.016-.023-.057-.046-.113-.07-.17-.737.259-1.475.516-2.211.777-3.444,1.223-6.924,2.356-10.152,4.109-1.685.915-3.227,2.01-4.614,3.31-.202.513-.428,1.013-.677,1.501,2.298-.776,4.715-.992,7.08-1.437,3.567-.672,7.163-1.235,10.678-2.121ZM165.562,206.183c.956-.572,1.912-1.144,2.868-1.715l.076.128c-.952.581-1.904,1.162-2.855,1.743-.029-.052-.059-.104-.088-.155Z" fill="#000" stroke-width="0"/>
          <path d="M198.008,141.356c-.614.896-1.327,1.74-1.824,2.697-1.705,3.277-3.424,6.553-4.968,9.907-1.821,3.955-3.761,7.807-6.805,10.995-.824.863-1.605,1.767-2.405,2.653.165.111.331.223.488.329,3.22-2.705,5.976-6.511,7.922-10.794,2.41-5.304,4.234-10.898,7.741-15.663-.05-.041-.099-.083-.149-.124Z" fill="#000" stroke-width="0"/>
          <path d="M197.279,141.155c-.877,1.175-1.87,2.283-2.603,3.542-2.047,3.518-4.039,7.07-5.952,10.663-2.103,3.947-4.827,7.339-8.432,10-.511.377-1.076.682-1.616,1.021-.024-.036-.048-.072-.072-.109,1.103-1.71,2.206-3.421,3.31-5.131-.05-.033-.101-.067-.151-.1-.157.165-.314.331-.471.496-.018-.011-.036-.022-.055-.032.71-1.469,1.42-2.937,2.131-4.406-.056-.026-.112-.053-.167-.079-.747,1.395-1.495,2.79-2.242,4.184-.06-.03-.12-.06-.181-.09,1.731-3.001,3.2-6.119,4.257-9.43-2.218,5.124-4.776,10.042-8.248,14.457.599.555,1.159,1.152,1.675,1.786.414-.176.873-.279,1.237-.525,3.147-2.135,5.743-4.836,7.662-8.099,1.584-2.694,2.942-5.522,4.352-8.316,1.649-3.265,3.208-6.578,5.512-9.459.182-.227.36-.458.539-.687-.043-.039-.086-.077-.129-.116-.119.143-.244.282-.355.431Z" fill="#000" stroke-width="0"/>
          <path d="M102.766,83.22c4.367,0,8.368-1.31,12.024-3.642,1.504-.959,2.891-2.103,4.331-3.162h-.395c-10.653,8.522-20.511,7.766-30.366,1.065.365.119.565.186.766.249,2.418.757,4.814,1.535,7.425,1.369,1.614-.103,3.237.193,4.836-.388.892-.324,1.886-.353,2.817-.586.801-.2,1.577-.501,2.364-.757-.103-.123-.172-.139-.228-.12-4.344,1.489-8.778,1.809-13.264.861-2.085-.441-4.12-1.121-6.177-1.692h-1.052c1.905,1.233,3.759,2.554,5.726,3.679,3.453,1.976,7.178,3.125,11.192,3.125Z" fill="#000" stroke-width="0"/>
          <path d="M78.205,100.453c2.054-3.05,4.126-6.086,6.765-8.698-2.104.339-4.168.713-6.021,1.787q-.967.56-.798,1.752c.912-.418,1.827-.838,2.741-1.257.03.05.06.101.091.151-.816,1.139-1.631,2.278-2.447,3.417.038.026.075.051.113.077l.462-.419c.018.019.037.038.055.057l-1.155,2.008c.052.027.105.055.157.082.094-.065.188-.13.321-.222-.171.436-.322.823-.474,1.21.064.019.128.037.192.056Z" fill="#000" stroke-width="0"/>
          <path d="M78.14,86.76c3.99-1.291,8.038-1.851,12.203-1.067-3.847-2.093-7.642-4.313-12.219-4.534v.563c1.579.387,3.127.682,4.618,1.155,1.473.467,2.889,1.115,4.331,1.683-2.203.186-4.373-.208-6.431.788-.638.309-1.384.394-2.077.59-.161.045-.312.125-.467.189.019.045.039.089.058.134.187-.027.374-.053.596-.085-.256.15-.469.275-.682.4.024.061.047.122.071.183Z" fill="#000" stroke-width="0"/>
          <path d="M93.545,207.466c-4.075-1.496-7.08-5.187-7.649-7.52.429.353.828.657,1.199.993,1.253,1.136,2.926,1.45,4.355,2.24.013.007.054-.038.107-.077-.17-.12-.315-.222-.424-.299,1.203.453,2.436.918,3.669,1.382.029-.079.057-.157.086-.236-2.244-.734-4.362-1.731-6.215-3.185-1.852-1.453-3.627-3.004-5.378-4.464,2.739,11.488,13.255,14.313,21.172,11.512-3.672.837-7.313.979-10.921-.346Z" fill="#000" stroke-width="0"/>
          <path d="M80.869,83.894c-.898-.237-1.796-.475-2.746-.726v1.794c.944-.322,1.847-.629,2.75-.936-.001-.044-.003-.088-.004-.132Z" fill="#000" stroke-width="0"/>
          <path d="M83.659,200.444c-1.329-2.626-2.309-5.429-3.452-8.15-.257-.613-.529-1.22-.794-1.83.205.076.321.202.441.324,1.598,1.631,2.931,3.486,4.593,5.087,1.724,1.661,3.593,3.095,5.462,4.551.401.312.863.545,1.297.814.002-.186-.069-.26-.146-.326-1.658-1.423-3.402-2.757-4.954-4.287-2.103-2.074-4.048-4.306-6.083-6.451-.565-.595-1.205-1.118-1.811-1.674-.059.032-.119.064-.178.096.083.318.127.652.256.95.355.822.775,1.618,1.118,2.445,1.164,2.807,2.097,5.732,3.499,8.414,3.208,6.136,8.328,9.344,15.359,9.233,1.911-.03,3.775-.382,5.589-.988-1.053.149-2.095.368-3.146.521-7.147,1.036-13.797-2.296-17.051-8.727Z" fill="#000" stroke-width="0"/>
          <path d="M133.756,96.323c.206-.202.411-.404.614-.609-.922-.82-1.827-1.657-2.667-2.554-1.408-1.504-2.192-3.472-3.131-5.304-.195-.38-.273-.833-.34-1.263-.242-1.549-.455-3.103-.658-4.504.001-.019-.015.128-.02.274-.137,3.928,1,7.473,3.241,10.676.866,1.238,1.867,2.316,2.962,3.283Z" fill="#000" stroke-width="0"/>
          <path d="M86.511,211.009c-.654-.271-1.201-.497-1.747-.723.448.463.884.956,1.747.723Z" fill="#000" stroke-width="0"/>
          <path d="M125.408,103.806c.138-.124.277-.248.416-.371-.264-.6-.528-1.2-.786-1.802-.536-1.254-.775-2.635-1.149-3.958-.015.218.007.432.045.644.335,1.878.841,3.702,1.474,5.488Z" fill="#000" stroke-width="0"/>
          <path d="M129.088,100.579c.206-.179.411-.359.616-.54-.078-.166-.155-.332-.234-.497.139.113.276.224.415.338.22-.194.44-.388.66-.584-.472-.417-.929-.852-1.36-1.322-.665-.725-1.242-1.531-1.882-2.329.016.096.02.159.039.218.505,1.608,1.095,3.176,1.746,4.715Z" fill="#000" stroke-width="0"/>
          <path d="M96.117,79.998c-.013.09-.026.179-.039.269,1.458.43,2.895.952,4.377,1.269,2.817.603,5.631.353,8.379-.436,3.335-.958,6.369-2.539,9.103-4.684h-.658c-.039.05-.069.115-.119.149-3.345,2.259-6.949,3.893-10.991,4.368-1.597.188-3.217.194-4.811-.258,1.701-.369,3.42-.627,4.919-1.616.714-.471,1.536-.775,2.291-1.187.854-.466,1.688-.968,2.53-1.455h-.526c-.044.046-.08.107-.133.135-3.807,2-7.832,3.241-12.148,3.442-.723.034-1.45.005-2.175.005Z" fill="#000" stroke-width="0"/>
          <path d="M113.162,173.351c.083.005.167.015.251.023.09-.274.188-.545.291-.812-2.501-1.541-5.121-2.841-7.994-3.554-4.16-1.033-8.346-1.958-12.527-2.901-3.118-.703-6.255-1.343-9.148-2.771-1.066-.526-2.078-1.164-3.114-1.75,1.064.817,2.18,1.562,3.364,2.177,3.295,1.714,6.906,2.478,10.472,3.365,3.796.945,7.625,1.776,11.286,3.197.962.373,1.914.775,2.871,1.164l-.051.196c-1.976-.072-3.953-.144-5.929-.216.004.038.009.077.013.115.283.054.565.108.848.162-.007.016-.014.032-.021.049h-5.064c-.002.044-.004.088-.006.132l12.257.634c-2.978-.013-5.954-.091-8.921-.282-2.953-.19-5.898-.493-8.847-.746.216.117.441.199.672.223,3.46.359,6.916.758,10.382,1.048,2.966.248,5.944.359,8.915.549Z" fill="#000" stroke-width="0"/>
          <path d="M124.417,104.704c.175-.16.351-.321.528-.481-.297-.836-.591-1.673-.878-2.512-.435-1.271-.571-2.644-.843-3.97.063,1.245.228,2.476.438,3.7.19,1.106.452,2.191.756,3.264Z" fill="#000" stroke-width="0"/>
        </g>
      </g>
      <g>
        <path d="M165.116,165.704c-3.112,0-5.969,1.09-8.211,2.908h0c-2.12,1.619-4.402,5.089-8.085,6.97v-1.758h.002l-.008-.761c0-9.335,4.971-15.437,13.906-20.323.537-.294,2.158-1.154,2.158-1.154,0,0-1.518-.878-2.026-1.167-8.856-5.026-13.906-10.988-13.906-20.323,10.697,13.225,28.589,5.353,26.936-9.627-1.557-14.104-25.963-19.546-28.394-41.23-2.431,21.685-26.838,27.126-28.394,41.23-1.653,14.98,16.239,22.852,26.936,9.627,0,9.335-5.049,15.297-13.906,20.323-.508.289-2.026,1.167-2.026,1.167,0,0,1.531.867,2.042,1.154,8.876,4.991,13.906,10.988,13.906,20.323l-.008.761h.002v1.758c-3.683-1.881-5.965-5.351-8.085-6.97h0c-2.243-1.818-5.1-2.908-8.211-2.908-7.206,0-13.048,5.842-13.048,13.048s5.842,13.048,13.048,13.048c3.112,0,5.969-1.09,8.211-2.908,1.973-1.506,4.086-4.616,7.337-6.556-.26.933-.495,1.494-.621,1.788-1.762,4.142-5.603,6.589-7.332,8.853h0c-1.818,2.243-2.908,5.099-2.908,8.211,0,7.174,5.79,12.994,12.952,13.046v.002c.016,0,.032-.001.048-.001.016,0,.032.001.048.001v-.002c7.162-.052,12.952-5.872,12.952-13.046,0-3.112-1.09-5.969-2.908-8.211h0c-1.729-2.264-5.57-4.711-7.332-8.853-.125-.295-.361-.855-.621-1.788,3.251,1.941,5.364,5.05,7.337,6.556,2.243,1.818,5.1,2.908,8.211,2.908,7.206,0,13.048-5.842,13.048-13.048s-5.842-13.048-13.048-13.048Z" fill="#010104" stroke-width="0"/>
        <g>
          <path d="M119.092,120.468c-1.653,14.98,16.239,22.852,26.936,9.627,0,9.335-5.049,15.297-13.906,20.323-.508.289-2.026,1.167-2.026,1.167,0,0,1.531.867,2.042,1.154,8.876,4.991,13.906,10.988,13.906,20.323l-.008.761h.001v1.758c-3.683-1.881-5.965-5.351-8.085-6.97h0c-2.243-1.818-5.1-2.908-8.211-2.908-7.206,0-13.048,5.842-13.048,13.048s5.842,13.048,13.048,13.048c3.112,0,5.969-1.09,8.211-2.908,1.973-1.506,4.086-4.616,7.337-6.556-.26.933-.495,1.494-.621,1.788-1.762,4.142-5.603,6.589-7.332,8.853h0c-1.818,2.243-2.908,5.099-2.908,8.211,0,7.091,5.657,12.854,12.704,13.038V81.544c-3.829,19.784-26.54,25.334-28.04,38.924Z" fill="url(#Dégradé_sans_nom_65)" stroke-width="0"/>
          <path d="M145.888,89.133v39.157l-.827,1.023c-3.272,4.045-7.519,6.272-11.96,6.272-3.668,0-7.158-1.547-9.575-4.245-2.516-2.809-3.652-6.622-3.198-10.736.642-5.817,5.602-10.134,11.346-15.133,5.155-4.486,10.83-9.425,14.214-16.338M145.888,138.039v27.005c-2.021-5.241-6.287-9.536-13.141-13.389-.041-.023-.089-.05-.142-.08.049-.028.093-.053.131-.075,6.869-3.898,11.137-8.215,13.152-13.461M129.741,166.948c2.698,0,5.336.935,7.428,2.631l.014.011.014.011c.676.516,1.432,1.306,2.232,2.143,1.55,1.621,3.48,3.637,6.041,4.946l.417.213v3.627l-1.237.738c-2.155,1.286-3.784,2.989-5.222,4.493-.8.837-1.556,1.627-2.232,2.143l-.014.011-.014.011c-2.093,1.697-4.731,2.631-7.428,2.631-6.509,0-11.805-5.296-11.805-11.805s5.296-11.805,11.805-11.805M145.888,184.432v28.452c-5.823-.767-10.216-5.68-10.216-11.694,0-2.737.91-5.305,2.631-7.428l.011-.014.011-.014c.516-.676,1.307-1.432,2.144-2.232,1.813-1.733,4.068-3.89,5.344-6.889.021-.051.047-.11.076-.18M147.132,81.544c-3.829,19.784-26.54,25.334-28.04,38.924-1.066,9.658,5.993,16.361,14.009,16.361,4.418,0,9.126-2.036,12.927-6.734,0,9.335-5.049,15.297-13.906,20.324-.508.288-2.026,1.167-2.026,1.167,0,0,1.531.867,2.042,1.154,8.876,4.991,13.905,10.988,13.905,20.324l-.008.761h.002v1.758c-3.683-1.881-5.965-5.351-8.085-6.97-2.243-1.818-5.1-2.908-8.212-2.908-7.206,0-13.048,5.842-13.048,13.048s5.842,13.048,13.048,13.048c3.112,0,5.969-1.09,8.212-2.908,1.973-1.506,4.086-4.616,7.337-6.557-.26.933-.495,1.493-.621,1.788-1.762,4.142-5.603,6.589-7.332,8.853-1.818,2.242-2.908,5.099-2.908,8.211,0,7.091,5.657,12.855,12.704,13.038V81.544h0Z" fill="#010104" stroke-width="0"/>
        </g>
        <path d="M147.521,140.11s-.017-.04-.035-.078c-.017.037-.035.078-.035.078-1.994,4.513-5.454,8.653-9.974,11.341,4.52,2.688,7.98,6.828,9.974,11.341l.005.145c.01-.023.02-.045.03-.067.01.023.02.045.03.067l.005-.145c1.994-4.513,5.454-8.653,9.974-11.341-4.52-2.688-7.98-6.828-9.974-11.341Z" fill="#bf0418" stroke-width="0"/>
        <path d="M153.194,109.738c-1.233,0-3.224.141-5.707,3.647v.005s0-.005,0-.005c-2.482-3.506-4.473-3.647-5.707-3.647-2.636,0-4.98,2.188-4.63,5.423.487,4.509,9.697,8.325,10.305,14.254l.032.657s0,.007,0,.01v-.009.009c-.053-6.314,9.831-10.245,10.337-14.92.35-3.235-1.993-5.424-4.63-5.423Z" fill="#bf0418" stroke-width="0"/>
      </g>
    </g>
  </g>
</svg>