<?xml version="1.0" encoding="UTF-8"?> <!-- Generator: Adobe Illustrator 24.0.1, SVG Export Plug-In . SVG Version: 6.00 Build 0) --> <svg xmlns="http://www.w3.org/2000/svg" xmlns:xlink="http://www.w3.org/1999/xlink" id="Calque_1" x="0px" y="0px" viewBox="0 0 481.36 194.7" style="enable-background:new 0 0 481.36 194.7;" xml:space="preserve"> <style type="text/css"> .st0{fill:#12152D;} .st1{fill:url(#SVGID_1_);} .st2{fill:url(#SVGID_2_);} .st3{fill:url(#SVGID_3_);} .st4{fill:url(#SVGID_4_);} .st5{fill:url(#SVGID_5_);} .st6{fill:url(#SVGID_6_);} .st7{fill:url(#SVGID_7_);} .st8{fill:url(#SVGID_8_);} .st9{fill:url(#SVGID_9_);} .st10{fill:url(#SVGID_10_);} .st11{fill:url(#SVGID_11_);} .st12{fill:url(#SVGID_12_);} .st13{fill:url(#SVGID_13_);} .st14{fill:url(#SVGID_14_);} .st15{fill:url(#SVGID_15_);} .st16{fill:url(#SVGID_16_);} </style> <g> <g> <g> <g> <path class="st0" d="M170.84,140.01c-2.78,4.11-8.71,8.01-17.77,11.72c-9.07,3.71-17.84,5.56-26.31,5.56 c-7.28,0-14.5-1.26-21.65-3.77c-8.47-3.04-15.69-7.61-21.65-13.7c-5.03-5.16-9.07-11.39-12.11-18.67 c-3.44-8.21-5.16-16.81-5.16-25.82c0-6.49,1.42-13.37,4.27-20.65c2.85-7.28,7.05-13.7,12.61-19.26 c6.22-6.22,13.24-10.89,21.05-14c7.81-3.11,15.22-4.67,22.24-4.67c4.24,0,8.74,0.63,13.5,1.89c4.77,1.26,9.27,3.15,13.5,5.66 c1.85,1.06,2.98,2.12,3.38,3.18c0.4,1.06,0.4,1.92,0,2.58c-0.8,0.93-1.79,0.93-2.99,0c-0.53-0.53-1.56-1.32-3.08-2.38 c-1.53-1.06-3.48-2.18-5.87-3.38c-2.39-1.19-4.98-2.15-7.77-2.88c-2.79-0.73-6.3-1.09-10.55-1.09c-5.31,0-10.35,1.03-15.13,3.08 c-4.78,2.05-9.42,5.26-13.93,9.63c-10.62,10.2-15.93,24.56-15.93,43.09c0,20.12,5.5,35.68,16.52,46.67 c2.92,2.91,7.43,5.53,13.53,7.84c6.1,2.32,11.68,3.48,16.72,3.48c7.43,0,14.56-1.55,21.39-4.67 c6.83-3.11,12.17-6.92,16.02-11.42c1.72-1.99,3.45-2.38,5.18-1.19C171.9,137.63,171.9,138.69,170.84,140.01z"></path> </g> </g> <path class="st0" d="M200.74,128.17l-8.65,0.04l-6.08-12.67c-1.71,0.74-3.08,1.31-4.13,1.68c-3.51,1.21-6.69,1.82-9.53,1.82 c-2.56,0-6.92-1-13.09-3c-3.22-1.05-5.74-1.57-7.54-1.57c-1.42,0-2.73,0.24-3.91,0.72c-1.19,0.48-2.11,1.3-2.77,2.45l-4.27,9.52 c-0.38,0.67-0.95,1.01-1.71,1.01c-0.66,0-0.85-0.52-0.57-1.57l29.41-68.7L200.74,128.17z M185.01,113.05l-0.31-0.99l-19.65-42.06 l-17.98,43.47c2.38-0.76,4.63-1.45,6.77-2.07c2.14-0.62,4.06-0.93,5.78-0.93c2.47,0,5.18,0.48,8.13,1.43 c6.75,2.19,11.08,3.28,12.98,3.28c0.95,0,1.9-0.14,2.85-0.43C184.53,114.47,185.01,113.91,185.01,113.05z"></path> <path class="st0" d="M331.64,59.54v66.94c-0.19,0.86-0.38,1.29-0.57,1.29l-1.99-1.72l-41.83-62.52v62.67 c-0.38,0.57-0.81,0.86-1.29,0.86c-0.57,0-1-0.33-1.28-1V58.39l8.3-0.02l36.09,56.34V59.54c0-0.77,0.38-1.15,1.14-1.15 C330.97,58.2,331.44,58.58,331.64,59.54z"></path> <path class="st0" d="M385.5,109.19c0,5.24-2.02,9.69-6.07,13.35c-4.05,3.67-8.69,5.5-13.92,5.5c-3.9,0-7.26-0.69-10.07-2.07 c-2.81-1.38-5.88-3.55-9.21-6.5c-0.86-0.76-1.59-1.59-2.21-2.5c-0.62-0.9-0.93-1.69-0.93-2.36c0-1.14,0.43-1.71,1.29-1.71 c0.38,0,1,0.78,1.86,2.33c0.86,1.55,1.95,2.94,3.28,4.16c1.9,1.79,3.9,3.2,6,4.24c2.85,1.41,5.9,2.12,9.14,2.12 c4.28,0,7.78-1.26,10.49-3.78c2.71-2.52,4.07-5.72,4.07-9.62c0-1.9-0.45-3.85-1.36-5.84c-0.91-1.99-2.36-4.08-4.35-6.27 c-4-3.13-7.45-5.89-10.35-8.26c-2.9-2.37-5.07-4.32-6.5-5.84c-1.91-1.9-3.4-4.18-4.5-6.84c-1.09-2.66-1.64-4.94-1.64-6.84 c0-1.52,0.36-3.3,1.07-5.34c0.71-2.04,1.73-3.78,3.07-5.2c2.9-3.07,7.11-3.85,10.28-3.85c1.9,0,3.9,0.43,6,1.29 c2.09,0.86,3.14,1.67,3.14,2.43c0,0.76-0.38,1.14-1.14,1.14c-0.38,0-1.29-0.43-2.71-1.28c-1.43-0.86-3.24-1.29-5.42-1.29 c-3.05,0-5.33,0.86-6.85,2.57c-1.52,1.71-2.28,3.81-2.28,6.28c0,1.62,0.33,3.09,1,4.43c0.66,1.33,2.05,3.14,4.14,5.42l7.99,7.28 c3.43,2.57,5.38,4.07,5.85,4.5c0.47,0.43,1.38,1.31,2.71,2.64c2.66,2.67,4.69,5.16,6.07,7.49 C384.81,103.31,385.5,106.05,385.5,109.19z"></path> <g> <path class="st0" d="M405.1,125.97c0,0,0,1.42-1.42,1.42h-5.3c0,0-1.42,0-1.42-1.42V60.14c0,0,0-1.42,1.42-1.42h5.3 c0,0,1.42,0,1.42,1.42V125.97z"></path> </g> <path class="st0" d="M478.94,128.17l-8.65,0.04l-6.08-12.67c-1.71,0.74-3.08,1.31-4.13,1.68c-3.51,1.21-6.69,1.82-9.53,1.82 c-2.56,0-6.92-1-13.09-3c-3.23-1.05-5.74-1.57-7.54-1.57c-1.42,0-2.73,0.24-3.91,0.72c-1.19,0.48-2.11,1.3-2.77,2.45l-4.27,9.52 c-0.38,0.67-0.95,1.01-1.71,1.01c-0.67,0-0.86-0.52-0.57-1.57l29.41-68.7L478.94,128.17z M463.21,113.05l-0.31-0.99l-19.65-42.06 l-17.98,43.47c2.38-0.76,4.63-1.45,6.77-2.07c2.14-0.62,4.06-0.93,5.78-0.93c2.47,0,5.18,0.48,8.13,1.43 c6.75,2.19,11.08,3.28,12.98,3.28c0.95,0,1.9-0.14,2.85-0.43C462.73,114.47,463.21,113.91,463.21,113.05z"></path> <path class="st0" d="M253.59,126.44c0-0.02,0.01-0.03,0.01-0.05c0-0.03-0.02-0.05-0.02-0.08c0-0.11,0.01-0.22-0.02-0.35 c0-0.76-0.38-1.14-1.15-1.14h-31.92v-66.1h-8.28v68.67h0.98h39.14h0.09c0.59-0.12,0.93-0.36,1.09-0.69 c0.03-0.04,0.04-0.09,0.06-0.13C253.57,126.53,253.59,126.49,253.59,126.44z"></path> <g> <path class="st0" d="M273.21,125.97c0,0,0,1.42-1.42,1.42h-5.3c0,0-1.42,0-1.42-1.42V60.14c0,0,0-1.42,1.42-1.42h5.3 c0,0,1.42,0,1.42,1.42V125.97z"></path> </g> </g> <g> <path class="st0" d="M185.56,139.22h1.52v9.8h5.15v1.43h-6.67V139.22z"></path> <path class="st0" d="M202.11,150.73c-0.86,0-1.64-0.15-2.36-0.45c-0.72-0.3-1.33-0.72-1.85-1.24c-0.51-0.53-0.91-1.15-1.2-1.87 c-0.29-0.72-0.44-1.5-0.44-2.33c0-0.83,0.15-1.61,0.44-2.33c0.29-0.72,0.69-1.34,1.2-1.87c0.51-0.53,1.13-0.94,1.85-1.24 c0.72-0.3,1.51-0.45,2.36-0.45c0.86,0,1.64,0.15,2.36,0.45c0.72,0.3,1.33,0.72,1.85,1.24c0.51,0.53,0.91,1.15,1.2,1.87 c0.29,0.72,0.44,1.5,0.44,2.33c0,0.83-0.15,1.61-0.44,2.33c-0.29,0.72-0.69,1.34-1.2,1.87c-0.51,0.53-1.13,0.94-1.85,1.24 C203.76,150.58,202.97,150.73,202.11,150.73z M202.11,149.31c0.64,0,1.23-0.12,1.74-0.36c0.52-0.24,0.96-0.56,1.33-0.96 c0.37-0.4,0.66-0.87,0.86-1.42c0.2-0.54,0.3-1.12,0.3-1.74c0-0.61-0.1-1.19-0.3-1.74c-0.2-0.54-0.49-1.02-0.86-1.42 c-0.37-0.4-0.81-0.72-1.33-0.96c-0.52-0.24-1.1-0.36-1.74-0.36c-0.65,0-1.23,0.12-1.74,0.36c-0.52,0.24-0.96,0.56-1.33,0.96 c-0.37,0.4-0.66,0.87-0.86,1.42c-0.2,0.54-0.3,1.12-0.3,1.74c0,0.61,0.1,1.19,0.3,1.74c0.2,0.54,0.49,1.02,0.86,1.42 c0.37,0.4,0.81,0.72,1.33,0.96C200.89,149.19,201.47,149.31,202.11,149.31z"></path> <path class="st0" d="M211.78,139.22h1.76l3.3,9.13h0.03l3.42-9.13h1.66l-4.42,11.22h-1.43L211.78,139.22z"></path> <path class="st0" d="M226.48,139.22h7.25v1.43H228V144h5.33v1.43H228v3.6h6.01v1.43h-7.53V139.22z"></path> <path class="st0" d="M246.91,139.22h3.95c0.72,0,1.31,0.1,1.78,0.29c0.47,0.2,0.83,0.44,1.1,0.75c0.27,0.3,0.46,0.64,0.56,1.01 c0.1,0.38,0.16,0.74,0.16,1.09c0,0.36-0.06,0.71-0.19,1.04c-0.13,0.33-0.31,0.63-0.55,0.9c-0.24,0.27-0.53,0.5-0.87,0.68 c-0.34,0.18-0.73,0.3-1.15,0.34l3.19,5.12h-1.9l-2.85-4.95h-1.7v4.95h-1.52V139.22z M248.43,144.17h2c0.3,0,0.59-0.02,0.88-0.07 c0.29-0.05,0.55-0.14,0.78-0.26c0.23-0.13,0.41-0.31,0.55-0.55c0.14-0.24,0.21-0.55,0.21-0.93c0-0.38-0.07-0.69-0.21-0.93 c-0.14-0.24-0.32-0.42-0.55-0.55c-0.23-0.13-0.48-0.21-0.78-0.26c-0.29-0.05-0.58-0.07-0.88-0.07h-2V144.17z"></path> <path class="st0" d="M264.92,150.73c-0.86,0-1.64-0.15-2.36-0.45c-0.72-0.3-1.34-0.72-1.85-1.24c-0.51-0.53-0.91-1.15-1.2-1.87 c-0.29-0.72-0.44-1.5-0.44-2.33c0-0.83,0.15-1.61,0.44-2.33c0.29-0.72,0.69-1.34,1.2-1.87c0.51-0.53,1.13-0.94,1.85-1.24 c0.72-0.3,1.51-0.45,2.36-0.45c0.86,0,1.64,0.15,2.36,0.45c0.72,0.3,1.34,0.72,1.85,1.24c0.51,0.53,0.91,1.15,1.2,1.87 c0.29,0.72,0.44,1.5,0.44,2.33c0,0.83-0.15,1.61-0.44,2.33c-0.29,0.72-0.69,1.34-1.2,1.87c-0.51,0.53-1.13,0.94-1.85,1.24 C266.56,150.58,265.78,150.73,264.92,150.73z M264.92,149.31c0.64,0,1.23-0.12,1.74-0.36c0.52-0.24,0.96-0.56,1.33-0.96 c0.37-0.4,0.66-0.87,0.86-1.42c0.2-0.54,0.3-1.12,0.3-1.74c0-0.61-0.1-1.19-0.3-1.74c-0.2-0.54-0.49-1.02-0.86-1.42 c-0.37-0.4-0.81-0.72-1.33-0.96c-0.52-0.24-1.1-0.36-1.74-0.36c-0.65,0-1.23,0.12-1.74,0.36c-0.52,0.24-0.96,0.56-1.33,0.96 c-0.37,0.4-0.66,0.87-0.86,1.42c-0.2,0.54-0.3,1.12-0.3,1.74c0,0.61,0.1,1.19,0.3,1.74c0.2,0.54,0.49,1.02,0.86,1.42 c0.37,0.4,0.81,0.72,1.33,0.96C263.69,149.19,264.28,149.31,264.92,149.31z"></path> <path class="st0" d="M281.28,150.73c-0.86,0-1.64-0.15-2.36-0.45c-0.72-0.3-1.33-0.72-1.85-1.24c-0.51-0.53-0.91-1.15-1.2-1.87 c-0.29-0.72-0.43-1.5-0.43-2.33c0-0.83,0.14-1.61,0.43-2.33c0.29-0.72,0.69-1.34,1.2-1.87c0.51-0.53,1.13-0.94,1.85-1.24 c0.72-0.3,1.51-0.45,2.36-0.45c0.86,0,1.64,0.15,2.36,0.45c0.72,0.3,1.33,0.72,1.85,1.24c0.51,0.53,0.91,1.15,1.2,1.87 c0.29,0.72,0.44,1.5,0.44,2.33c0,0.83-0.15,1.61-0.44,2.33c-0.29,0.72-0.69,1.34-1.2,1.87c-0.51,0.53-1.13,0.94-1.85,1.24 C282.93,150.58,282.14,150.73,281.28,150.73z M281.28,149.31c0.64,0,1.23-0.12,1.74-0.36c0.52-0.24,0.96-0.56,1.33-0.96 c0.37-0.4,0.66-0.87,0.86-1.42c0.2-0.54,0.3-1.12,0.3-1.74c0-0.61-0.1-1.19-0.3-1.74c-0.2-0.54-0.49-1.02-0.86-1.42 c-0.37-0.4-0.81-0.72-1.33-0.96c-0.52-0.24-1.1-0.36-1.74-0.36c-0.65,0-1.23,0.12-1.74,0.36c-0.52,0.24-0.96,0.56-1.33,0.96 c-0.37,0.4-0.66,0.87-0.86,1.42c-0.2,0.54-0.3,1.12-0.3,1.74c0,0.61,0.1,1.19,0.3,1.74c0.2,0.54,0.49,1.02,0.86,1.42 c0.37,0.4,0.81,0.72,1.33,0.96C280.06,149.19,280.64,149.31,281.28,149.31z"></path> <path class="st0" d="M292.38,139.22h2.27l3.57,8.5h0.06l3.54-8.5h2.27v11.22h-1.52v-9.23h-0.03l-3.79,9.23h-1.02l-3.79-9.23h-0.03 v9.23h-1.52V139.22z"></path> <path class="st0" d="M327.45,150.45h-2.04l-1.38-1.49c-0.48,0.57-0.98,1.01-1.51,1.32c-0.53,0.31-1.18,0.46-1.93,0.46 c-0.63,0-1.18-0.09-1.65-0.28c-0.46-0.18-0.85-0.43-1.15-0.74c-0.3-0.31-0.52-0.65-0.67-1.04c-0.14-0.39-0.21-0.78-0.21-1.2 c0-0.39,0.07-0.75,0.21-1.07c0.14-0.32,0.32-0.62,0.55-0.88c0.23-0.26,0.5-0.5,0.82-0.71s0.64-0.4,0.98-0.55 c-0.36-0.38-0.67-0.77-0.93-1.17c-0.26-0.4-0.39-0.88-0.39-1.43c0-0.42,0.08-0.8,0.25-1.12c0.16-0.33,0.38-0.6,0.66-0.82 c0.27-0.22,0.59-0.39,0.95-0.51c0.36-0.12,0.74-0.17,1.14-0.17c0.39,0,0.76,0.05,1.12,0.16c0.35,0.11,0.66,0.26,0.93,0.47 c0.26,0.21,0.47,0.48,0.63,0.79c0.15,0.32,0.23,0.69,0.23,1.11c0,0.35-0.07,0.67-0.21,0.96c-0.14,0.29-0.32,0.55-0.54,0.79 c-0.22,0.24-0.47,0.45-0.75,0.63c-0.27,0.18-0.55,0.35-0.84,0.5l2.22,2.31l1.41-2.3h1.73l-2.17,3.36L327.45,150.45z M320.41,145.15c-0.22,0.13-0.45,0.26-0.67,0.41c-0.23,0.15-0.43,0.31-0.61,0.49c-0.18,0.18-0.33,0.38-0.44,0.61 c-0.11,0.23-0.17,0.48-0.17,0.77c0,0.27,0.06,0.53,0.17,0.77c0.12,0.24,0.27,0.45,0.48,0.63c0.2,0.18,0.42,0.32,0.67,0.42 c0.25,0.1,0.51,0.15,0.78,0.15c0.27,0,0.53-0.04,0.77-0.13c0.24-0.09,0.46-0.19,0.67-0.33c0.21-0.13,0.4-0.28,0.57-0.45 c0.17-0.17,0.34-0.34,0.48-0.52L320.41,145.15z M322.51,141.57c0-0.37-0.13-0.66-0.38-0.88c-0.25-0.22-0.58-0.33-0.98-0.33 c-0.4,0-0.75,0.11-1.05,0.34c-0.3,0.23-0.44,0.55-0.44,0.98c0,0.19,0.03,0.37,0.1,0.54c0.07,0.17,0.16,0.33,0.27,0.49 c0.11,0.16,0.23,0.31,0.36,0.45c0.13,0.14,0.25,0.27,0.38,0.4c0.19-0.11,0.39-0.22,0.59-0.35c0.21-0.13,0.39-0.27,0.56-0.43 c0.17-0.16,0.31-0.34,0.42-0.53C322.46,142.05,322.51,141.82,322.51,141.57z"></path> <path class="st0" d="M340.13,148.1c0.27,0.41,0.63,0.72,1.05,0.91c0.43,0.2,0.87,0.29,1.32,0.29c0.25,0,0.51-0.04,0.78-0.12 c0.26-0.08,0.5-0.2,0.72-0.36c0.22-0.16,0.39-0.35,0.53-0.59c0.14-0.23,0.21-0.5,0.21-0.81c0-0.43-0.14-0.76-0.41-0.99 c-0.28-0.23-0.62-0.42-1.02-0.57c-0.41-0.15-0.85-0.3-1.33-0.44c-0.48-0.14-0.93-0.34-1.33-0.59c-0.41-0.25-0.75-0.59-1.02-1.02 c-0.27-0.43-0.41-1.01-0.41-1.74c0-0.33,0.07-0.68,0.21-1.05c0.14-0.37,0.37-0.71,0.67-1.02c0.31-0.31,0.7-0.56,1.18-0.77 c0.48-0.21,1.06-0.31,1.74-0.31c0.61,0,1.2,0.09,1.76,0.25c0.56,0.17,1.05,0.51,1.47,1.03l-1.24,1.13 c-0.19-0.3-0.46-0.53-0.81-0.71c-0.35-0.18-0.74-0.27-1.19-0.27c-0.42,0-0.78,0.06-1.05,0.17c-0.28,0.11-0.51,0.25-0.67,0.43 c-0.17,0.17-0.29,0.36-0.36,0.56c-0.07,0.2-0.1,0.39-0.1,0.55c0,0.48,0.14,0.84,0.41,1.09c0.27,0.25,0.62,0.46,1.02,0.62 s0.85,0.3,1.33,0.43c0.48,0.13,0.93,0.3,1.33,0.53c0.41,0.23,0.75,0.53,1.02,0.92s0.41,0.92,0.41,1.59c0,0.54-0.1,1.03-0.31,1.46 c-0.21,0.43-0.48,0.8-0.83,1.09c-0.35,0.3-0.76,0.52-1.24,0.68c-0.47,0.16-0.98,0.24-1.52,0.24c-0.72,0-1.4-0.13-2.05-0.38 c-0.64-0.25-1.16-0.64-1.54-1.17L340.13,148.1z"></path> <path class="st0" d="M351.78,139.22h3.95c0.72,0,1.31,0.1,1.78,0.29c0.47,0.2,0.83,0.44,1.1,0.75c0.27,0.3,0.46,0.64,0.56,1.01 c0.11,0.38,0.16,0.74,0.16,1.09c0,0.35-0.05,0.71-0.16,1.09c-0.11,0.38-0.29,0.71-0.56,1.01c-0.27,0.3-0.64,0.55-1.1,0.75 c-0.46,0.19-1.06,0.29-1.78,0.29h-2.43v4.95h-1.52V139.22z M353.3,144.17h2c0.3,0,0.59-0.02,0.88-0.07 c0.29-0.05,0.55-0.14,0.78-0.26c0.23-0.13,0.41-0.31,0.55-0.55c0.14-0.24,0.21-0.55,0.21-0.93c0-0.38-0.07-0.69-0.21-0.93 c-0.14-0.24-0.32-0.42-0.55-0.55c-0.23-0.13-0.49-0.21-0.78-0.26c-0.29-0.05-0.58-0.07-0.88-0.07h-2V144.17z"></path> <path class="st0" d="M366.7,139.22h1.38l4.8,11.22h-1.78l-1.13-2.77h-5.34l-1.11,2.77h-1.78L366.7,139.22z M369.42,146.34 l-2.09-5.15h-0.03l-2.12,5.15H369.42z"></path> <path class="st0" d="M384.8,144.84c0-0.39,0.07-0.76,0.22-1.09c0.15-0.34,0.35-0.63,0.6-0.89c0.25-0.25,0.55-0.45,0.89-0.6 c0.34-0.15,0.7-0.22,1.09-0.22c0.39,0,0.76,0.07,1.09,0.22c0.34,0.15,0.63,0.35,0.89,0.6c0.25,0.25,0.45,0.55,0.6,0.89 c0.15,0.34,0.22,0.7,0.22,1.09c0,0.39-0.07,0.76-0.22,1.09c-0.15,0.34-0.35,0.63-0.6,0.89c-0.25,0.25-0.55,0.45-0.89,0.6 c-0.34,0.15-0.7,0.22-1.09,0.22c-0.39,0-0.76-0.07-1.09-0.22c-0.34-0.15-0.63-0.35-0.89-0.6s-0.45-0.55-0.6-0.89 C384.87,145.59,384.8,145.23,384.8,144.84z"></path> <path class="st0" d="M403.76,139.22h2l6.18,9.23h0.03v-9.23h1.52v11.22h-1.93l-6.25-9.23h-0.03v9.23h-1.52V139.22z"></path> <path class="st0" d="M423.07,139.22h1.38l4.8,11.22h-1.78l-1.13-2.77h-5.34l-1.11,2.77h-1.78L423.07,139.22z M425.8,146.34 l-2.09-5.15h-0.03l-2.12,5.15H425.8z"></path> <path class="st0" d="M433.88,139.22h2l6.18,9.23h0.03v-9.23h1.52v11.22h-1.93l-6.25-9.23h-0.03v9.23h-1.52V139.22z"></path> <path class="st0" d="M452.02,140.65h-3.62v-1.43h8.75v1.43h-3.61v9.8h-1.52V140.65z"></path> <path class="st0" d="M461.94,139.22h7.25v1.43h-5.72V144h5.33v1.43h-5.33v3.6h6.01v1.43h-7.53V139.22z"></path> <path class="st0" d="M475.13,148.1c0.27,0.41,0.63,0.72,1.05,0.91c0.43,0.2,0.87,0.29,1.32,0.29c0.25,0,0.51-0.04,0.78-0.12 c0.26-0.08,0.5-0.2,0.72-0.36c0.22-0.16,0.39-0.35,0.53-0.59c0.14-0.23,0.21-0.5,0.21-0.81c0-0.43-0.14-0.76-0.41-0.99 c-0.28-0.23-0.62-0.42-1.02-0.57c-0.41-0.15-0.85-0.3-1.33-0.44c-0.48-0.14-0.93-0.34-1.33-0.59c-0.41-0.25-0.75-0.59-1.02-1.02 c-0.27-0.43-0.41-1.01-0.41-1.74c0-0.33,0.07-0.68,0.21-1.05c0.14-0.37,0.37-0.71,0.67-1.02c0.31-0.31,0.7-0.56,1.18-0.77 c0.48-0.21,1.06-0.31,1.74-0.31c0.61,0,1.2,0.09,1.76,0.25c0.56,0.17,1.05,0.51,1.47,1.03l-1.24,1.13 c-0.19-0.3-0.46-0.53-0.81-0.71c-0.35-0.18-0.74-0.27-1.19-0.27c-0.42,0-0.78,0.06-1.05,0.17c-0.28,0.11-0.51,0.25-0.67,0.43 c-0.17,0.17-0.29,0.36-0.36,0.56c-0.07,0.2-0.1,0.39-0.1,0.55c0,0.48,0.14,0.84,0.41,1.09c0.27,0.25,0.62,0.46,1.02,0.62 s0.85,0.3,1.33,0.43c0.48,0.13,0.93,0.3,1.33,0.53c0.41,0.23,0.75,0.53,1.02,0.92c0.27,0.39,0.41,0.92,0.41,1.59 c0,0.54-0.1,1.03-0.31,1.46c-0.21,0.43-0.48,0.8-0.83,1.09c-0.35,0.3-0.76,0.52-1.24,0.68c-0.47,0.16-0.98,0.24-1.52,0.24 c-0.72,0-1.4-0.13-2.05-0.38c-0.64-0.25-1.16-0.64-1.54-1.17L475.13,148.1z"></path> </g> </g> <g> <linearGradient id="SVGID_1_" gradientUnits="userSpaceOnUse" x1="123.5928" y1="38.5779" x2="40.8845" y2="134.9996"> <stop offset="0" style="stop-color:#644C36"></stop> <stop offset="1" style="stop-color:#B5915F"></stop> </linearGradient> <path class="st1" d="M56.08,111.65c-0.53,0.44-1.06,0.89-1.58,1.35c-0.51,0.46-1.01,0.92-1.52,1.4c-0.43,0.41-0.51,0.98-0.33,1.45 c0.17,0.47,0.66,0.81,1.26,0.8c3.07-0.07,6.1-0.4,9.08-0.91c-0.24-0.78-0.45-1.57-0.67-2.35c-1.51,0.17-3.03,0.3-4.57,0.36 c1.26-1.16,2.54-2.25,3.85-3.28c-0.19-0.84-0.36-1.69-0.52-2.54c-0.59,0.4-1.18,0.78-1.78,1.2 C58.2,109.93,57.14,110.77,56.08,111.65z"></path> <linearGradient id="SVGID_2_" gradientUnits="userSpaceOnUse" x1="99.557" y1="17.9605" x2="16.8486" y2="114.3822"> <stop offset="0" style="stop-color:#644C36"></stop> <stop offset="1" style="stop-color:#B5915F"></stop> </linearGradient> <path class="st2" d="M51.24,85.18c-4.47-3.37-8.63-7.41-12.33-12.04c5.91-0.64,11.65-0.58,17.24,0.22c0.69,0.1,1.38,0.2,2.06,0.32 c0.69,0.12,1.38,0.25,2.07,0.39c1.25,0.26,2.46,0.55,3.67,0.87c0.13-0.36,0.26-0.72,0.4-1.08c0.37-0.94,0.76-1.87,1.17-2.78 c-10.47-3.83-22.34-5.14-34.6-3.3c-0.65,0.1-1.25,0.69-1.52,1.41c-0.29,0.71-0.31,1.54,0.08,2.07 c4.76,6.44,10.34,11.87,16.41,16.14c4.45,3.14,9.17,5.65,14.05,7.56c0.01-1.38,0.09-2.77,0.22-4.18 C57.08,89.17,54.11,87.33,51.24,85.18z"></path> <linearGradient id="SVGID_3_" gradientUnits="userSpaceOnUse" x1="121.7304" y1="36.9804" x2="39.0221" y2="133.4021"> <stop offset="0" style="stop-color:#644C36"></stop> <stop offset="1" style="stop-color:#B5915F"></stop> </linearGradient> <path class="st3" d="M64.34,119.66c-0.02,0-0.03,0.01-0.05,0.01c-1.32,0.36-2.65,0.67-4.02,0.96c-0.68,0.14-1.37,0.27-2.07,0.4 c-0.68,0.11-1.37,0.22-2.06,0.32c-5.59,0.8-11.33,0.86-17.24,0.22c3.69-4.63,7.86-8.67,12.33-12.04c2.96-2.22,6.03-4.12,9.2-5.76 c-0.16-1.35-0.29-2.71-0.38-4.08c-4.93,1.91-9.7,4.45-14.19,7.62c-6.07,4.27-11.64,9.7-16.41,16.14c-0.39,0.53-0.37,1.35-0.08,2.07 c0.27,0.72,0.87,1.31,1.52,1.4c12.42,1.87,24.44,0.5,35-3.44c-0.21-0.48-0.43-0.95-0.64-1.44 C64.94,121.24,64.64,120.45,64.34,119.66z"></path> <linearGradient id="SVGID_4_" gradientUnits="userSpaceOnUse" x1="148.1534" y1="59.6454" x2="65.4451" y2="156.0671"> <stop offset="0" style="stop-color:#644C36"></stop> <stop offset="1" style="stop-color:#B5915F"></stop> </linearGradient> <path class="st4" d="M73.14,155.79c-0.64-5.91-0.58-11.65,0.22-17.24c0.09-0.66,0.19-1.32,0.3-1.98c-1.21-1.56-2.35-3.2-3.43-4.92 c-3.17,9.85-4.15,20.83-2.45,32.14c0.1,0.65,0.69,1.25,1.41,1.52c0.71,0.29,1.54,0.31,2.07-0.08c6.35-4.69,11.7-10.18,15.95-16.15 c-1.43-0.94-2.82-1.94-4.15-3C80.15,149.56,76.85,152.83,73.14,155.79z"></path> <linearGradient id="SVGID_5_" gradientUnits="userSpaceOnUse" x1="96.8453" y1="15.6345" x2="14.1369" y2="112.0562"> <stop offset="0" style="stop-color:#644C36"></stop> <stop offset="1" style="stop-color:#B5915F"></stop> </linearGradient> <path class="st5" d="M73.36,56.15c-0.8-5.59-0.86-11.33-0.22-17.24c3.76,3,7.1,6.32,10.04,9.85c1.34-1.07,2.71-2.08,4.11-3.03 c-4.26-6.01-9.64-11.54-16.03-16.26c-0.53-0.39-1.35-0.37-2.07-0.08c-0.72,0.27-1.31,0.87-1.41,1.52 c-1.68,11.2-0.74,22.07,2.36,31.84c1.09-1.62,2.25-3.19,3.51-4.71C73.55,57.42,73.45,56.79,73.36,56.15z"></path> <linearGradient id="SVGID_6_" gradientUnits="userSpaceOnUse" x1="106.8175" y1="24.1884" x2="24.1091" y2="120.6101"> <stop offset="0" style="stop-color:#644C36"></stop> <stop offset="1" style="stop-color:#B5915F"></stop> </linearGradient> <path class="st6" d="M52.65,78.84c-0.18,0.47-0.11,1.04,0.33,1.45c0.5,0.48,1,0.94,1.52,1.4c0.52,0.46,1.05,0.92,1.58,1.36 c1.06,0.88,2.13,1.72,3.23,2.52c0.47,0.34,0.95,0.64,1.42,0.96c0.15-0.86,0.32-1.72,0.52-2.59c-1.19-0.95-2.35-1.94-3.5-2.99 c1.4,0.05,2.78,0.17,4.16,0.31c0.21-0.79,0.44-1.58,0.69-2.38c-2.85-0.47-5.75-0.77-8.68-0.84C53.31,78.03,52.82,78.37,52.65,78.84 z"></path> <linearGradient id="SVGID_7_" gradientUnits="userSpaceOnUse" x1="173.905" y1="81.7346" x2="91.1966" y2="178.1563"> <stop offset="0" style="stop-color:#644C36"></stop> <stop offset="1" style="stop-color:#B5915F"></stop> </linearGradient> <path class="st7" d="M108.85,166.68c-2.54,7.27-6.66,14.3-11.5,21.04l0,0l0,0c-4.84-6.74-8.96-13.77-11.5-21.04 c3.62-4.2,6.8-8.6,9.39-13.17c-1.18-0.54-2.33-1.1-3.45-1.71c-1.06,1.67-2.19,3.32-3.42,4.94c-0.82,1.07-1.67,2.11-2.55,3.16 c-0.88,1.05-1.8,2.1-2.74,3.1c-1.11,1.2-2.17,1.88-2.08,3.46c0.11,2.08,1.36,4.5,2.19,6.52c0.91,2.29,1.96,4.61,3.12,6.84 c0.61,1.19,1.26,2.37,1.93,3.56c0.67,1.18,1.37,2.33,2.1,3.49c0.72,1.16,1.47,2.32,2.23,3.48c0.76,1.14,1.54,2.27,2.34,3.4 c0.51,0.73,1.49,0.99,2.46,0.92h0.01h0.01c0.97,0.07,1.95-0.19,2.46-0.92c0.79-1.14,1.57-2.27,2.34-3.4 c0.76-1.16,1.51-2.32,2.23-3.48c0.72-1.16,1.42-2.31,2.09-3.49c0.67-1.19,1.31-2.38,1.93-3.56c1.17-2.23,2.21-4.55,3.12-6.84 c0.83-2.02,2.08-4.44,2.19-6.52c0.08-1.59-0.98-2.27-2.08-3.46c-0.94-1-1.85-2.06-2.74-3.1c-0.66-0.78-1.27-1.56-1.89-2.34 c-2.08-0.51-4.15-1.11-6.22-1.82C103.1,159.52,105.82,163.17,108.85,166.68z"></path> <linearGradient id="SVGID_8_" gradientUnits="userSpaceOnUse" x1="172.6117" y1="80.6252" x2="89.9033" y2="177.0469"> <stop offset="0" style="stop-color:#644C36"></stop> <stop offset="1" style="stop-color:#B5915F"></stop> </linearGradient> <path class="st8" d="M92.31,170.73c0.92,1.83,1.95,3.58,3.03,5.34c0.43,0.71,1.23,0.96,2.01,0.9h0h0c0.78,0.05,1.58-0.2,2.01-0.9 c1.08-1.76,2.11-3.51,3.03-5.34c0.49-0.94,1.47-2.19,1.32-3.21c-0.16-1.14-1.39-2.27-2.04-3.2c-0.95-1.33-1.86-2.74-2.71-4.13 c-0.34-0.55-0.97-0.81-1.61-0.79c-0.64-0.02-1.27,0.25-1.61,0.79c-0.85,1.39-1.77,2.8-2.71,4.13c-0.65,0.93-1.88,2.06-2.04,3.2 C90.84,168.54,91.82,169.79,92.31,170.73z M97.35,164.74c0.64,1.02,1.29,2.04,1.97,3.07c-0.61,1.17-1.26,2.33-1.96,3.49h0 c-0.7-1.16-1.35-2.32-1.96-3.49C96.06,166.79,96.71,165.76,97.35,164.74z"></path> <linearGradient id="SVGID_9_" gradientUnits="userSpaceOnUse" x1="133.5215" y1="47.0945" x2="50.8131" y2="143.5162"> <stop offset="0" style="stop-color:#644C36"></stop> <stop offset="1" style="stop-color:#B5915F"></stop> </linearGradient> <path class="st9" d="M63.69,129.32c-4.63,1.79-9.53,2.97-14.68,3.67c-2.66,0.34-5.43,0.59-8.17,0.69 c-1.64,0.07-2.87-0.19-3.93,0.98c-1.39,1.54-2.2,4.12-3.07,6.15c-0.96,2.25-1.87,4.64-2.63,7.04c-0.8,2.53-1.55,5.18-2.15,7.83 c-0.31,1.33-0.6,2.68-0.88,4.04c-0.28,1.36-0.51,2.7-0.76,4.07c-0.15,0.88,0.36,1.75,1.09,2.39l0,0l0,0.01 c0.64,0.73,1.51,1.25,2.39,1.09c1.37-0.24,2.71-0.48,4.07-0.76c1.36-0.28,2.71-0.57,4.04-0.88c2.64-0.6,5.29-1.35,7.83-2.15 c2.4-0.76,4.79-1.67,7.04-2.63c2.03-0.86,4.61-1.68,6.15-3.07c1.18-1.06,0.92-2.29,0.98-3.93c0.1-2.74,0.34-5.52,0.68-8.17 c0.7-5.15,1.88-10.05,3.67-14.68c0.21-0.56,0.07-1.09-0.28-1.41C64.78,129.26,64.25,129.11,63.69,129.32z M56.47,154.5 c-6.93,3.35-14.82,5.43-23.02,6.75l0,0h0c1.32-8.2,3.4-16.08,6.75-23.01c7.14-0.53,14.01-1.78,20.3-4.04 C58.24,140.5,57,147.37,56.47,154.5z"></path> <linearGradient id="SVGID_10_" gradientUnits="userSpaceOnUse" x1="133.4392" y1="47.0239" x2="50.7308" y2="143.4456"> <stop offset="0" style="stop-color:#644C36"></stop> <stop offset="1" style="stop-color:#B5915F"></stop> </linearGradient> <path class="st10" d="M41.05,153.65L41.05,153.65c0.52,0.6,1.26,0.98,2.06,0.79c1-0.24,2-0.49,2.98-0.75 c0.99-0.27,1.98-0.57,2.94-0.88c1.01-0.32,2.58-0.5,3.2-1.33c0.69-0.92,0.62-2.59,0.82-3.71c0.28-1.62,0.61-3.25,0.99-4.84 c0.15-0.62-0.11-1.26-0.58-1.7c-0.44-0.46-1.08-0.73-1.7-0.58c-1.59,0.39-3.22,0.72-4.84,0.99c-1.12,0.21-2.79,0.14-3.71,0.82 c-0.83,0.62-1.01,2.19-1.33,3.2c-0.31,0.96-0.61,1.95-0.88,2.94c-0.26,0.98-0.51,1.98-0.75,2.98 C40.06,152.39,40.45,153.13,41.05,153.65L41.05,153.65z M46.13,145.79c1.2-0.25,2.39-0.51,3.57-0.78 c-0.27,1.17-0.53,2.36-0.78,3.57c-1.26,0.39-2.54,0.75-3.86,1.07C45.38,148.33,45.74,147.05,46.13,145.79z"></path> <linearGradient id="SVGID_11_" gradientUnits="userSpaceOnUse" x1="96.0951" y1="14.991" x2="13.3867" y2="111.4126"> <stop offset="0" style="stop-color:#644C36"></stop> <stop offset="1" style="stop-color:#B5915F"></stop> </linearGradient> <path class="st11" d="M31.69,111.62c1-0.94,2.05-1.85,3.1-2.74c1.05-0.89,2.09-1.74,3.17-2.56c4.16-3.15,8.43-5.77,12.98-7.78 c0.55-0.25,0.82-0.72,0.8-1.2c0.01-0.47-0.25-0.95-0.8-1.2c-4.55-2.01-8.83-4.64-12.98-7.79c-1.07-0.82-2.11-1.67-3.17-2.55 c-1.05-0.89-2.1-1.8-3.1-2.74c-1.2-1.11-1.88-2.17-3.46-2.08c-2.08,0.11-4.5,1.35-6.52,2.18c-2.29,0.91-4.61,1.96-6.84,3.12 c-1.18,0.61-2.37,1.26-3.56,1.93c-1.18,0.67-2.33,1.37-3.49,2.09c-1.16,0.72-2.32,1.47-3.48,2.23c-1.13,0.76-2.27,1.54-3.4,2.34 c-0.73,0.51-0.99,1.49-0.92,2.45v0.01v0.01c-0.07,0.97,0.19,1.95,0.92,2.46c1.14,0.79,2.27,1.57,3.4,2.34 c1.16,0.76,2.32,1.51,3.48,2.23c1.17,0.72,2.31,1.42,3.49,2.09c1.19,0.67,2.38,1.31,3.56,1.93c2.23,1.17,4.55,2.21,6.84,3.12 c2.02,0.83,4.44,2.08,6.52,2.18C29.81,113.79,30.49,112.73,31.69,111.62z M6.98,97.35L6.98,97.35L6.98,97.35 c6.74-4.84,13.78-8.96,21.04-11.5c5.43,4.67,11.18,8.63,17.22,11.5c-6.04,2.86-11.79,6.82-17.22,11.5 C20.75,106.31,13.72,102.19,6.98,97.35z"></path> <linearGradient id="SVGID_12_" gradientUnits="userSpaceOnUse" x1="96.636" y1="15.455" x2="13.9277" y2="111.8766"> <stop offset="0" style="stop-color:#644C36"></stop> <stop offset="1" style="stop-color:#B5915F"></stop> </linearGradient> <path class="st12" d="M34.51,95.74c-1.39-0.85-2.8-1.77-4.13-2.71c-0.93-0.65-2.06-1.88-3.2-2.04c-1.02-0.15-2.27,0.84-3.21,1.32 c-1.83,0.92-3.58,1.95-5.34,3.03c-0.71,0.43-0.96,1.22-0.9,2.01v0v0c-0.05,0.78,0.2,1.58,0.9,2.01c1.76,1.08,3.51,2.11,5.34,3.03 c0.94,0.49,2.19,1.47,3.21,1.32c1.14-0.16,2.27-1.39,3.2-2.04c1.33-0.95,2.74-1.86,4.13-2.71c0.55-0.33,0.81-0.97,0.79-1.61 C35.31,96.71,35.05,96.07,34.51,95.74z M26.88,99.32c-1.17-0.61-2.33-1.26-3.49-1.96v0c1.16-0.7,2.32-1.35,3.49-1.97 c1.02,0.67,2.05,1.33,3.07,1.97C28.93,97.99,27.91,98.64,26.88,99.32z"></path> <linearGradient id="SVGID_13_" gradientUnits="userSpaceOnUse" x1="83.4108" y1="4.1107" x2="0.7024" y2="100.5323"> <stop offset="0" style="stop-color:#644C36"></stop> <stop offset="1" style="stop-color:#B5915F"></stop> </linearGradient> <path class="st13" d="M29.06,39.02c0.6,2.64,1.35,5.3,2.15,7.83c0.76,2.4,1.67,4.79,2.63,7.04c0.86,2.03,1.68,4.61,3.07,6.15 c1.06,1.18,2.29,0.92,3.93,0.99c2.75,0.1,5.52,0.34,8.17,0.68c5.15,0.7,10.05,1.87,14.68,3.67c0.56,0.22,1.09,0.07,1.41-0.28 c0.35-0.32,0.49-0.85,0.28-1.41c-1.79-4.63-2.97-9.53-3.67-14.68c-0.34-2.65-0.59-5.42-0.68-8.17c-0.07-1.64,0.19-2.88-0.98-3.93 c-1.54-1.39-4.12-2.2-6.15-3.07c-2.25-0.96-4.64-1.87-7.04-2.63c-2.53-0.8-5.18-1.55-7.83-2.15c-1.33-0.31-2.68-0.6-4.04-0.88 c-1.35-0.28-2.7-0.52-4.07-0.76c-0.88-0.15-1.75,0.36-2.39,1.09l0,0l0,0.01c-0.73,0.64-1.25,1.51-1.09,2.39 c0.24,1.37,0.48,2.71,0.76,4.07C28.46,36.35,28.75,37.69,29.06,39.02z M33.45,33.45c8.19,1.32,16.08,3.4,23.02,6.75 c0.53,7.14,1.78,14.01,4.03,20.3c-6.3-2.25-13.16-3.51-20.3-4.04C36.84,49.53,34.77,41.65,33.45,33.45L33.45,33.45L33.45,33.45z"></path> <linearGradient id="SVGID_14_" gradientUnits="userSpaceOnUse" x1="83.9012" y1="4.5313" x2="1.1928" y2="100.953"> <stop offset="0" style="stop-color:#644C36"></stop> <stop offset="1" style="stop-color:#B5915F"></stop> </linearGradient> <path class="st14" d="M41.01,46.09c0.28,0.99,0.57,1.98,0.88,2.94c0.32,1.01,0.51,2.58,1.33,3.2c0.92,0.69,2.59,0.62,3.71,0.82 c1.62,0.28,3.25,0.61,4.84,1c0.63,0.15,1.26-0.12,1.7-0.58c0.46-0.44,0.73-1.08,0.58-1.7c-0.38-1.59-0.72-3.22-0.99-4.84 c-0.2-1.12-0.14-2.79-0.82-3.71c-0.62-0.82-2.19-1.01-3.2-1.33c-0.96-0.31-1.95-0.61-2.94-0.88c-0.98-0.26-1.98-0.51-2.98-0.75 c-0.8-0.19-1.54,0.19-2.06,0.79l0,0l0,0c-0.59,0.52-0.98,1.26-0.78,2.06C40.5,44.12,40.75,45.11,41.01,46.09z M48.91,46.13 c0.25,1.2,0.51,2.39,0.78,3.56c-1.17-0.27-2.36-0.53-3.57-0.78c-0.39-1.26-0.75-2.54-1.07-3.86 C46.37,45.38,47.65,45.74,48.91,46.13z"></path> <linearGradient id="SVGID_15_" gradientUnits="userSpaceOnUse" x1="100.9096" y1="19.1207" x2="18.2012" y2="115.5424"> <stop offset="0" style="stop-color:#644C36"></stop> <stop offset="1" style="stop-color:#B5915F"></stop> </linearGradient> <path class="st15" d="M85.85,28.02c2.54-7.26,6.66-14.3,11.5-21.04l0,0l0,0c4.84,6.74,8.96,13.77,11.5,21.04 c-2.97,3.45-5.65,7.04-7.95,10.74c2.19-0.81,4.35-1.52,6.48-2.1c0.5-0.62,0.99-1.25,1.51-1.87c0.89-1.05,1.8-2.1,2.74-3.1 c1.11-1.2,2.17-1.88,2.08-3.46c-0.11-2.08-1.35-4.5-2.19-6.52c-0.91-2.29-1.96-4.61-3.12-6.84c-0.61-1.19-1.26-2.37-1.93-3.56 c-0.67-1.18-1.37-2.33-2.09-3.49c-0.72-1.16-1.47-2.32-2.23-3.48c-0.76-1.14-1.54-2.27-2.34-3.41c-0.51-0.73-1.49-0.98-2.46-0.92 h-0.01h-0.01c-0.97-0.06-1.95,0.19-2.46,0.92c-0.79,1.14-1.57,2.27-2.34,3.41c-0.76,1.16-1.51,2.32-2.23,3.48 c-0.72,1.16-1.42,2.31-2.1,3.49c-0.67,1.19-1.32,2.38-1.93,3.56c-1.17,2.23-2.21,4.55-3.12,6.84c-0.83,2.02-2.08,4.44-2.19,6.52 c-0.08,1.58,0.98,2.26,2.08,3.46c0.94,1,1.85,2.05,2.74,3.1c0.89,1.05,1.73,2.09,2.55,3.16c1.24,1.64,2.38,3.3,3.45,4.99 c1.12-0.63,2.25-1.22,3.41-1.78C92.64,36.61,89.46,32.22,85.85,28.02z"></path> <linearGradient id="SVGID_16_" gradientUnits="userSpaceOnUse" x1="102.4227" y1="20.4187" x2="19.7143" y2="116.8403"> <stop offset="0" style="stop-color:#644C36"></stop> <stop offset="1" style="stop-color:#B5915F"></stop> </linearGradient> <path class="st16" d="M102.39,23.97c-0.92-1.83-1.95-3.58-3.03-5.34c-0.43-0.71-1.22-0.96-2.01-0.9h0h0 c-0.78-0.05-1.58,0.2-2.01,0.9c-1.07,1.76-2.11,3.51-3.03,5.34c-0.49,0.94-1.47,2.19-1.32,3.21c0.16,1.14,1.39,2.27,2.04,3.2 c0.95,1.33,1.86,2.74,2.71,4.13c0.34,0.55,0.98,0.81,1.61,0.79c0.64,0.02,1.28-0.24,1.61-0.79c0.85-1.39,1.77-2.8,2.71-4.13 c0.65-0.93,1.88-2.06,2.04-3.2C103.86,26.16,102.87,24.91,102.39,23.97z M97.35,29.96c-0.64-1.02-1.29-2.04-1.96-3.07 c0.61-1.17,1.26-2.33,1.96-3.49h0c0.7,1.16,1.35,2.32,1.96,3.49C98.64,27.91,97.99,28.94,97.35,29.96z"></path> </g> </svg> 