<?xml version="1.0" encoding="utf-8"?>
<!-- Generator: Adobe Illustrator 28.3.0, SVG Export Plug-In . SVG Version: 6.00 Build 0)  -->
<svg version="1.1" id="Calque_1" xmlns="http://www.w3.org/2000/svg" xmlns:xlink="http://www.w3.org/1999/xlink" x="0px" y="0px"
	 width="314.4px" height="80.5px" viewBox="0 0 314.4 80.5" style="enable-background:new 0 0 314.4 80.5;" xml:space="preserve">
<style type="text/css">
	.st0{display:none;}
	.st1{display:inline;}
	.st2{fill:#FFFFFF;}
	.st3{fill-rule:evenodd;clip-rule:evenodd;fill:#FFFFFF;}
	
		.st4{clip-path:url(#SVGID_00000181088188966753467870000000503117514570017696_);fill-rule:evenodd;clip-rule:evenodd;fill:#FFFFFF;}
	.st5{clip-path:url(#SVGID_00000060710702178428325500000002844187323302992319_);}
	.st6{fill:#BF0418;}
</style>
<g>
	<g>
		<g class="st0">
			<g class="st1">
				<path class="st2" d="M91.8,9.4c3.3,0,6,2.7,6,6v49.7c0,3.3-2.7,6-6,6h-27c-3.3,0-6-2.7-6-6V15.4c0-3.3,2.7-6,6-6H91.8 M91.8,7.3
					h-27c-4.5,0-8.1,3.6-8.1,8.1v49.7c0,4.5,3.6,8.1,8.1,8.1h27c4.5,0,8.1-3.6,8.1-8.1V15.4C100,10.9,96.3,7.3,91.8,7.3L91.8,7.3z"
					/>
				<path class="st2" d="M91.8,9.4c3.3,0,6,2.7,6,6v49.7c0,3.3-2.7,6-6,6h-27c-3.3,0-6-2.7-6-6V15.4c0-3.3,2.7-6,6-6H91.8 M91.8,8.4
					h-27c-3.9,0-7,3.2-7,7v49.7c0,3.9,3.2,7,7,7h27c3.9,0,7-3.2,7-7V15.4C98.9,11.5,95.7,8.4,91.8,8.4L91.8,8.4z"/>
				<g>
					<path class="st3" d="M97.8,15.4v49.7c0,3.3-2.7,6-6,6h-27c-3.3,0-6-2.7-6-6V15.4c0-3.3,2.7-6,6-6h27
						C95.1,9.4,97.8,12.1,97.8,15.4z"/>
					<g>
						<defs>
							<path id="SVGID_00000030485972814894810580000003064190325350280894_" d="M97.8,15.4v49.7c0,3.3-2.7,6-6,6h-27
								c-3.3,0-6-2.7-6-6V15.4c0-3.3,2.7-6,6-6h27C95.1,9.4,97.8,12.1,97.8,15.4z"/>
						</defs>
						
							<use xlink:href="#SVGID_00000030485972814894810580000003064190325350280894_"  style="overflow:visible;fill-rule:evenodd;clip-rule:evenodd;fill:#FFFFFF;"/>
						<clipPath id="SVGID_00000176038650086718338840000004046021682543712935_">
							<use xlink:href="#SVGID_00000030485972814894810580000003064190325350280894_"  style="overflow:visible;"/>
						</clipPath>
						
							<path style="clip-path:url(#SVGID_00000176038650086718338840000004046021682543712935_);fill-rule:evenodd;clip-rule:evenodd;fill:#FFFFFF;" d="
							M97.8,15.4v49.7c0,3.3-2.7,6-6,6h-27c-3.3,0-6-2.7-6-6V15.4c0-3.3,2.7-6,6-6h27C95.1,9.4,97.8,12.1,97.8,15.4z"/>
						
							<path style="clip-path:url(#SVGID_00000176038650086718338840000004046021682543712935_);fill-rule:evenodd;clip-rule:evenodd;fill:#FFFFFF;" d="
							M58.9,42.6V15.4c0-3.3,2.7-6,6-6h27c3.3,0,6,2.7,6,6v19.3L58.9,42.6z"/>
					</g>
					<path class="st2" d="M91.8,71.3h-27c-3.4,0-6.2-2.8-6.2-6.2V15.4c0-3.4,2.8-6.2,6.2-6.2h27c3.4,0,6.2,2.8,6.2,6.2v49.7
						C98,68.5,95.3,71.3,91.8,71.3z M64.9,9.6c-3.2,0-5.7,2.6-5.7,5.7v49.7c0,3.2,2.6,5.7,5.7,5.7h27c3.2,0,5.7-2.6,5.7-5.7V15.4
						c0-3.2-2.6-5.7-5.7-5.7H64.9z"/>
				</g>
			</g>
			<g class="st1">
				<defs>
					<path id="SVGID_00000060741288508586525170000006050206901167488640_" d="M97.8,15.4v49.7c0,3.3-2.7,6-6,6h-27
						c-3.3,0-6-2.7-6-6V15.4c0-3.3,2.7-6,6-6h27C95.1,9.4,97.8,12.1,97.8,15.4z"/>
				</defs>
				
					<use xlink:href="#SVGID_00000060741288508586525170000006050206901167488640_"  style="overflow:visible;fill-rule:evenodd;clip-rule:evenodd;fill:#FFFFFF;"/>
				<clipPath id="SVGID_00000179643234471261104890000007876585118345413265_">
					<use xlink:href="#SVGID_00000060741288508586525170000006050206901167488640_"  style="overflow:visible;"/>
				</clipPath>
				<g style="clip-path:url(#SVGID_00000179643234471261104890000007876585118345413265_);">
					<path class="st2" d="M87.2,70.2c0,0.1,0,0.2,0,0.3c1.5-1,3.2-1.6,4.8-2.3C90.6,68.3,88.8,69.1,87.2,70.2z"/>
					<path class="st2" d="M101.7,58.6c0.6-1.9,0.7-3.8,0.5-5.8c0-0.4,0-0.7-0.5-0.8c0,0.9,0.1,1.9,0.1,2.8c0,0,0-0.1,0.1-0.2
						c0,0,0.1,0,0.1,0c-0.1,0.9-0.2,1.9-0.3,2.8c0.3-1.2,0.4-2.4,0.4-3.6c0.2,2.4-0.3,4.6-1.4,6.7c0.1,0,0.1,0,0.2,0
						C101.2,59.9,101.5,59.2,101.7,58.6z"/>
					<path class="st2" d="M101.1,51.3C101.1,51.3,101.2,51.3,101.1,51.3c0.2,0,0.3-0.1,0.5-0.2c0,0.1,0,0.3,0.1,0.5
						c0.1-0.1,0.3-0.3,0.3-0.5c-0.1-0.7-0.3-1.4-0.4-2.1C101.4,49.8,101.2,50.5,101.1,51.3z"/>
					<path class="st2" d="M98,6.8c1.8-0.3,3.6-0.9,5.3-1.6c1.5-0.5,3-1.1,4.5-1.3c0.7-0.1,1.4-0.1,2.1-0.2c-1.9-0.1-3.8,0.3-5.6,0.8
						c-1.9,0.6-3.8,1.2-5.8,1.7c-2.3,0.6-4.7,0.4-6.9-0.4c-0.1,0-0.1-0.1-0.2-0.1c1.3-0.1,2.5-0.3,3.6-0.8c0-0.1,0-0.1,0.1-0.1
						c0.5-0.2,1-0.5,1.4-0.7c0.2-0.1,0.4-0.3,0.6-0.4h-0.7c-2.2,1.3-4.5,2.1-7.2,1.6c0.5,0.3,1,0.5,1.6,0.7C93.1,7,95.5,7.2,98,6.8z
						"/>
					<path class="st2" d="M87.9,70.1c-0.3,0.2-0.5,0.4-0.8,0.5c0,0.1,0,0.1,0,0.2C87.4,70.6,87.7,70.3,87.9,70.1
						C88,70.1,87.9,70.1,87.9,70.1z"/>
					<rect x="79.1" y="55" class="st2" width="0" height="0.2"/>
					<path class="st2" d="M73.2,48.9c0.1-0.2,0.1-0.4,0.2-0.6c0,0,0,0,0,0C73.3,48.5,73.2,48.7,73.2,48.9
						C73.1,48.9,73.1,48.9,73.2,48.9z"/>
					<path class="st2" d="M42.2,55v0.6c0.3,0,0.7,0.1,1,0.1c0,0,0,0,0,0C42.9,55.4,42.5,55.2,42.2,55z"/>
					<path class="st2" d="M66.2,46.3C66.3,46.3,66.3,46.3,66.2,46.3c0.5-0.7,0.9-1.5,1.4-2.1c0,0-0.1-0.1-0.1-0.1
						c-0.2,0.3-0.4,0.6-0.6,0.9C66.7,45.4,66.5,45.9,66.2,46.3z"/>
					<path class="st2" d="M73.1,48C73,48,73,48,73.1,48c-0.2,0.2-0.3,0.5-0.4,0.7c0,0,0.1,0,0.1,0C72.9,48.5,73,48.2,73.1,48z"/>
					<path class="st2" d="M66,46.1c0.1,0,0.1,0,0.1-0.1c0.4-0.8,0.8-1.6,1.3-2.3c0,0-0.1-0.1-0.1-0.1c-0.4,0.5-0.7,1.1-1,1.7
						C66.2,45.6,66.1,45.8,66,46.1z"/>
					<path class="st2" d="M95.3,52.1c-0.1,0-0.1,0-0.2,0c0.1,0.1,0.1,0.2,0.2,0.3c0.2-0.1,0.3-0.2,0.5-0.4c-0.1-0.2-0.1-0.3-0.2-0.5
						C95.5,51.7,95.4,51.9,95.3,52.1z"/>
					<path class="st2" d="M85.9,37.2c0,0.1,0,0.2-0.1,0.3c0,0-0.1,0-0.1,0C85.8,37.4,85.8,37.3,85.9,37.2c-0.2,0-0.4,0-0.5,0
						c-0.2,0.5-0.3,0.9-0.5,1.4c0.1,0.1,0.2,0.2,0.3,0.2c0.1-0.2,0.2-0.5,0.4-0.7c0,0,0,0,0,0.1c-0.1,0.2-0.1,0.4-0.2,0.6
						c0,0,0,0,0,0.1c0.1,0,0.1,0.1,0.2,0.1c0.3-0.6,0.5-1.2,0.7-1.8C86.1,37.2,86,37.2,85.9,37.2z"/>
					<path class="st2" d="M55.4,29.3c-0.7-1.4-1.5-2.7-2.3-4c-0.1-0.2-0.2-0.4-0.4-0.6c0,0-0.1,0.1-0.1,0.1c0,0.1,0,0.3,0,0.4
						c-0.2,1.9,0.2,3.8,0.6,5.7c0.3,1.5,0.6,2.9,0.5,4.4c-0.1,0.7-0.2,1.3-0.4,2.1c0.5-1.3,0.7-2.5,0.6-3.8c-0.2-1.7-0.4-3.3-0.6-5
						c-0.1-0.5-0.1-1-0.1-1.5c0,0,0.1,0,0.1,0c0.4,0.6,0.7,1.2,1.1,1.9c0,0,0,0,0,0c0-0.1,0-0.2-0.1-0.3c0,0,0,0,0.1,0l0.9,1.6
						c0,0,0.1,0,0.1,0c-0.2-0.4-0.3-0.7-0.5-1.1c-0.2-0.3-0.4-0.7-0.5-1c0.8,1.2,1.4,2.6,1.8,4.1c0-0.1,0.1-0.1,0.1-0.2
						c0-0.1,0-0.2,0-0.2C55.9,30.8,55.7,30,55.4,29.3z"/>
					<path class="st2" d="M95.5,5.6c1.4,0.1,2.7,0.1,4.1-0.2c1.8-0.5,3.6-0.9,5.3-1.4c0.8-0.2,1.6-0.3,2.4-0.5h-1.9
						c-0.8,0.2-1.5,0.3-2.3,0.5c-1,0.2-2,0.5-3,0.6c-0.8,0.1-1.6,0.2-2.4,0.3c0,0,0-0.1,0-0.1c0.6-0.4,1.3-0.9,1.9-1.3h-1.4
						c-1,0.7-2,1.3-3,2C95.3,5.5,95.4,5.6,95.5,5.6z"/>
					<path class="st2" d="M42.4,29.4c0.3,0.2,0.6,0.4,0.8,0.7c1.5,1.3,2.4,2.9,3.2,4.8c0.1,0.4,0.3,0.8,0.4,1.2
						c-0.9-1.2-1.8-2.3-3.2-3c-0.5-0.2-0.9-0.5-1.4-0.8v0.4c2.4,1.3,4.3,3,5.4,5.6c-0.1-3.3-3.1-8.6-5.4-9.3
						C42.1,29.1,42.2,29.3,42.4,29.4z"/>
					<path class="st2" d="M54,24.9c-0.9-1.8-1.7-3.7-1.3-5.8c0,0.1-0.1,0.1-0.1,0.1c-0.1,0.2-0.2,0.5-0.3,0.7
						c-1.2,2.4-1.4,5-0.9,7.6c0.4,1.7,0.8,3.4,1.3,5.1c0.3,1.2,0.5,2.4,0.3,3.6c-0.1,0.3-0.1,0.6-0.2,1c0.4-1.1,0.6-2.3,0.4-3.4
						c-0.2-1.3-0.6-2.6-0.9-3.9c-0.5-2.2-0.9-4.5-0.6-6.8c0.1-0.7,0.3-1.4,0.4-2.1c0,0,0.1,0,0.1,0c0.1,1.2,0.3,2.3,0.9,3.4
						c0-0.1,0-0.2,0-0.3c0.4,0.8,0.8,1.5,1.2,2.3c0,0,0,0,0.1,0v-0.3c0.5,1,1,1.9,1.5,2.8c0,0,0,0,0.1,0c-0.1-0.2-0.1-0.3-0.2-0.5
						C55.3,27.3,54.7,26.1,54,24.9z"/>
					<path class="st2" d="M47.4,31.8c1.4,1.7,2.3,3.6,2.4,5.8c0,0.6,0,1.1,0,1.6c0.3-0.7,0.6-1.5,0.9-2.3c0.8-2.1,1-4.3,0.3-6.5
						c-0.5-1.3-1.1-2.7-1.7-3.9c-1.2-2.3-1.8-4.7-1.7-7.3c0-0.6,0-1.3,0-1.9c0,0,0,0,0,0c0,1-0.1,2-0.1,3c0,1.9,0.3,3.7,1,5.4
						c0.5,1.1,1,2.2,1.5,3.3c0.6,1.3,1,2.7,1,4.1c0,0.8-0.1,1.5-0.2,2.3c-0.1,0.6-0.3,1.1-0.4,1.6c-0.1-1.4-0.4-2.6-1.1-3.8
						c0,0.1,0,0.2,0.1,0.3c-0.6-0.9-1-1.7-1.8-2.3c0.4,0.5,0.7,0.9,1.1,1.4c0,0,0,0,0,0c-1.1-1.3-2.1-2.6-3.2-3.8c0,0-0.1,0-0.1,0.1
						c0.1,0.1,0.1,0.2,0.2,0.3C46,30.1,46.7,31,47.4,31.8z"/>
					<path class="st2" d="M86.1,39.4C86.1,39.4,86.1,39.4,86.1,39.4c0,0.1,0.1,0.1,0.1,0.2c0.4-0.8,0.7-1.6,1-2.4
						c-0.1,0-0.1,0-0.2,0C86.8,37.9,86.5,38.6,86.1,39.4z"/>
					<path class="st2" d="M44.3,25.3c0.4,1.6,1.4,3,2.5,4.2c1,1.1,2,2.2,3,3.3c0,0,0,0,0.1,0c0-0.4,0-0.8-0.1-1.3
						c-0.1-1.4-0.6-2.7-1.2-4c-1-2.3-1.6-4.6-1.5-7.1c0-0.8,0.1-1.6,0.1-2.4c0,0,0,0,0,0c0,0.3-0.1,0.7-0.1,1
						c-0.3,2.1-0.3,4.1,0.2,6.2c0.4,1.4,0.9,2.8,1.3,4.2c0.1,0.3,0.2,0.6,0.2,0.9c0,0-0.1,0-0.1,0.1c-0.6-0.6-1.2-1.2-1.7-1.8
						c0,0,0,0,0,0c0.1,0.1,0.1,0.2,0.2,0.3c0,0,0,0-0.1,0c-0.5-0.6-1-1.2-1.5-1.8c0,0-0.1,0.1-0.1,0.1c0.6,0.8,1.2,1.6,1.8,2.4
						c-1.4-1.3-2.3-2.9-3-4.7C44.3,25.1,44.3,25.2,44.3,25.3z M47.5,29.8c0.5,0.5,1,1,1.4,1.5c0,0,0,0-0.1,0.1
						C48.3,30.9,47.9,30.3,47.5,29.8C47.4,29.8,47.4,29.8,47.5,29.8z"/>
					<path class="st2" d="M86.4,12.5c0,0.1,0.1,0.3,0.1,0.4c0.5,1.1,1,2.2,1.6,3.3c0.1,0.1,0.3,0.3,0.4,0.4c0,0,0.1,0.1,0.1,0.1
						C87.8,15.3,87,14,86.4,12.5C86.4,12.5,86.4,12.5,86.4,12.5z"/>
					<path class="st2" d="M96.7,31.5c-1,0.7-2.4,2.3-3.1,3.4c-1.2,1.9-2,4-2.9,6.1c-0.8,2.1-1.7,4.1-3.3,5.7
						c0.1-0.1,0.2-0.1,0.3-0.2c0.8-0.8,1.4-1.6,1.9-2.6c0.8-1.5,1.5-3,2.2-4.6c0.7-1.6,1.5-3.1,2.5-4.5c0.2-0.2,0.4-0.5,0.6-0.7
						c0,0,0,0,0.1,0c-0.3,0.9-0.5,1.7-0.8,2.6c0,0,0,0,0,0c0-0.1,0.1-0.1,0.1-0.2c0,0,0,0,0,0c-0.2,0.7-0.4,1.5-0.6,2.2
						c0,0,0.1,0,0.1,0c0.3-0.9,0.6-1.9,0.8-2.8c0,0,0.1,0,0.1,0c-0.5,1.8-1.1,3.5-1.6,5.3C94.6,38.2,95.2,34.7,96.7,31.5z"/>
					<path class="st2" d="M42.2,30v1.6c0.7,0.4,1.4,0.7,2.2,1.1C43.7,31.7,43.1,30.8,42.2,30z"/>
					<path class="st2" d="M56,47.8c-0.5,0.2-1,0.3-1.4,0.4c0.6,0,1.3,0,1.9-0.1c3-0.4,5.5-1.8,7.3-4.2c1.8-2.4,2.6-5,2.6-7.8
						C66.3,36,66.2,36,66,35.9c0,0.8-0.1,1.6-0.3,2.4c-0.5,2.5-1.6,4.7-3.4,6.5c-1.3,1.2-2.8,2.1-4.5,2.6c-0.1,0-0.3,0.1-0.4,0.1
						c0.1-0.1,0.2-0.2,0.3-0.2c0.7-0.5,1.5-1.1,2.2-1.7c0.8-0.6,1.1-1.6,1.5-2.5c0.2-0.3,0.3-0.7,0.4-1c0.2-0.4,0.3-0.9,0.4-1.3
						c0,0-0.1,0-0.1,0c-0.1,0.2-0.1,0.3-0.2,0.5c0.4-1.5,0.6-3.1,0.4-4.7c0,0.2,0,0.5,0,0.7c-0.1,1.7-0.4,3.4-1,5
						C60.4,44.9,58.6,46.8,56,47.8z"/>
					<path class="st2" d="M85.9,35.1C85.9,35.1,85.9,35.1,85.9,35.1C85.9,35.1,85.9,35.1,85.9,35.1C85.9,35.1,85.9,35.1,85.9,35.1z"
						/>
					<path class="st2" d="M59.2,67.9c-0.5-0.3-0.9-0.6-1.4-0.9c-1.6-1.2-3.2-2.4-4.8-3.6c-1.8-1.4-3.7-2.6-5.9-3.4
						c-0.4-0.1-0.8-0.3-1.2-0.4c0.1,0.1,0.2,0.1,0.3,0.2c2.1,0.8,4,1.9,5.7,3.3c1.4,1.1,2.8,2.3,4.1,3.4c0.2,0.1,0.4,0.3,0.6,0.5
						c-1-0.1-1.8-0.7-2.7-0.7c-0.2,0-0.5-0.2-0.7-0.3c-0.3-0.1-0.6-0.3-0.9-0.4c0,0,0,0.1,0,0.1c0.4,0.2,0.9,0.5,1.3,0.7
						c0.4,0.2,0.9,0.4,1.4,0.6c-1.7-0.5-3.2-1.5-4.8-2.3C51.7,66.2,57.3,68.2,59.2,67.9z M55.8,67.1c0.4,0.1,0.8,0.2,1.2,0.3
						c0,0,0,0,0,0.1C56.6,67.4,56.2,67.3,55.8,67.1C55.8,67.2,55.8,67.1,55.8,67.1z"/>
					<path class="st2" d="M43.9,39.9c0.4,0.3,0.7,0.5,1.1,0.7c2.8,1.3,5.7,1.6,8.7,0.9c2.1-0.4,3.8-1.5,5.2-3.1
						c0.3-0.3,0.5-0.6,0.7-0.9c-0.3,1.5-0.9,2.8-1.7,4.1c0.1-0.1,0.2-0.1,0.2-0.1c0,0,0,0,0.1,0.1c-0.4,0.4-0.7,0.9-1.1,1.3
						c-0.4,0.4-0.8,0.8-1.2,1.3c0.4-0.3,0.7-0.6,1.1-0.9c-1.3,1.4-3,2.2-4.8,2.8c0.2,0,0.4,0,0.5-0.1c5.3-1.5,7.3-5.9,7.4-10.7
						c-0.1,0.2-0.1,0.3-0.2,0.5c-1,2.3-2.7,3.8-5,4.8C52.1,41.9,46.6,41.8,43.9,39.9z"/>
					<path class="st2" d="M87.8,45.7c0.1,0,0.2-0.1,0.2-0.2c0.2-0.3,0.4-0.6,0.6-1c-0.1,0-0.1,0.1-0.2,0.1c0,0,0,0,0,0
						c0,0.1-0.1,0.1-0.1,0.2C88.2,45.2,88,45.4,87.8,45.7z"/>
					<path class="st2" d="M85.9,12.2c0.1,0.5,0.2,1,0.4,1.5c0.2,0.5,0.4,1,0.6,1.4c0.1,0.1,0.2,0.2,0.3,0.3
						C86.7,14.4,86.2,13.3,85.9,12.2z"/>
					<path class="st2" d="M95.4,46.6c0.1-0.1,0.1-0.3,0.2-0.5c-0.8,1.3-1.7,2.5-2.7,3.6c0.1,0.1,0.2,0.2,0.3,0.2
						c0.1-0.2,0.3-0.4,0.4-0.6c-0.1,0.1-0.1,0.1-0.2,0.2c0.1-0.1,0.1-0.2,0.2-0.3C94.2,48.3,94.8,47.4,95.4,46.6z"/>
					<path class="st2" d="M96.4,51.4c-0.1,0-0.3-0.1-0.4,0c-0.1,0.1-0.1,0.3-0.1,0.4c0,0,0.1,0,0.1,0.1c0.1-0.1,0.3-0.2,0.4-0.3
						C96.4,51.5,96.4,51.4,96.4,51.4z"/>
					<path class="st2" d="M43.4,15.5c-0.1,0.1-0.2,0.3-0.3,0.5c0,0,0.1,0,0.1,0.1c1-1.4,2.1-2.7,3.5-3.8c1.4-1.1,2.9-1.9,4.6-2.4
						c-1.1,0-2.2-0.1-3.4,0c-1.9,0.1-3.7,0.5-5.4,1.4c-0.3,0.2-0.4,0.3-0.3,0.7c1-0.6,2.2-1.1,3.3-1.4c1.2-0.3,2.4-0.4,3.7-0.3
						c-0.5,0.2-1,0.4-1.4,0.7c-0.7,0.4-1.3,0.7-1.8,1.4c-0.3,0.4-0.8,0.7-1.2,1.1c-0.1,0.1-0.2,0.2-0.2,0.2c0,0.3-0.2,0.4-0.3,0.6
						C44,14.7,43.7,15.1,43.4,15.5z"/>
					<path class="st2" d="M101.2,54.6c-1.7,2.6-3.6,5-5.9,7c-0.1,0.2-0.2,0.4-0.4,0.5c2.1-1.5,3.9-3.3,5.5-5.3c0,0,0.1,0,0.1,0.1
						c-0.2,0.7-0.4,1.4-0.6,2.2c0.1-0.1,0.1-0.2,0.2-0.3c0,0,0.1,0,0.1,0c-0.3,0.6-0.5,1.2-0.8,1.8c0,0,0.1,0,0.1,0
						c0.3-0.6,0.6-1.1,0.8-1.7c-0.4,1.3-1.2,2.4-2.1,3.5C100.1,61.5,101.9,56.6,101.2,54.6z M101,56.1C101,56.1,101,56.1,101,56.1
						c0,0.5,0,0.9-0.1,1.4c0,0-0.1,0-0.1,0C100.9,57,100.9,56.5,101,56.1z"/>
					<path class="st2" d="M55.4,10.3c0.3-0.2,0.7-0.4,1-0.6c0,0,0,0-0.1-0.1c-2.9,1.5-5.4,3.5-6.1,7c0.5-0.5,0.9-1,1.4-1.4
						c1.3-1.2,2.9-2.1,4.5-3c1.8-0.9,3.5-1.8,5.1-3c0.2-0.2,0.4-0.3,0.6-0.5c0.2-0.2,0.4-0.3,0.6-0.5c-1.9,1.4-3.9,2.5-6,3.4
						c-1.4,0.7-2.9,1.3-4.2,2.3c-0.1,0.1-0.3,0.2-0.5,0.3c0.3-0.9,1.2-1.3,1.5-2.1C54,11.6,54.6,10.8,55.4,10.3z"/>
					<path class="st2" d="M42.2,56.6c0.2,0.7,6.5,0.3,8.6-0.6c-1.6,0.1-3.1-0.2-4.5-0.7c-1.4-0.5-2.8-1.1-4.1-2
						c-0.1,0.4,0,0.6,0.3,0.8c0.3,0.2,0.7,0.4,1,0.6c1.2,0.7,2.5,1.1,3.8,1.4c0.2,0,0.4,0.1,0.6,0.1c-1.6,0.3-3.2,0.3-4.8,0.1
						c0,0,0.1,0,0.1,0.1c0,0,0,0,0,0c-0.4,0-0.8-0.1-1.1-0.1c0,0,0,0.1,0,0.1c1,0.1,1.9,0.2,2.9,0.3c0,0,0,0,0,0
						C44.1,56.8,43.1,56.7,42.2,56.6z"/>
					<path class="st2" d="M49.3,17.4c-0.2,1.4-0.1,2.7,0.1,4c0,0.2,0.1,0.5,0.1,0.7c0,0.2,0.1,0.5,0.1,0.7c0.1-1.5,0.4-2.9,0.9-4.3
						c0.9-2.2,2.5-3.8,4.5-5c1.3-0.8,2.6-1.5,3.8-2.3c1.2-0.7,2.3-1.5,3.3-2.5C62.2,8.9,62.1,9,62,9c-1,0.7-2,1.4-3.1,2.1
						c-1.5,0.9-3,1.7-4.5,2.6c-2.1,1.2-3.6,3-4.4,5.3c-0.2,0.6-0.3,1.2-0.5,1.8c-0.2-1.5,0-3.1,0.3-4.6c0.2-0.9,0.7-1.8,1.1-2.7
						c0.2-0.5,0.7-0.9,1-1.3c0.4-0.4,0.8-0.8,1-1.1c-0.2,0.2-0.5,0.4-0.8,0.7C50.6,13.4,49.6,15.2,49.3,17.4z"/>
					<path class="st2" d="M60.7,13.1c-5.3,2.3-6.8,8-3.9,12.6c-0.6-1.2-1.1-2.5-1.2-3.9c-0.1-1.4,0.1-2.7,0.7-4
						c0.6-1.3,2.1-2.9,2.7-2.9c-0.3,0.6-0.5,1.2-0.8,1.9c0,0,0,0,0.1,0c0,0,0.1-0.1,0.2-0.1c-0.2,0.6-0.3,1.1-0.4,1.6
						c0,0,0.1,0,0.1,0c0.2-0.7,0.5-1.3,0.7-2c0,0,0.1,0,0.1,0c-0.5,1.2-0.9,2.4-0.9,3.7C58.2,17.5,59.4,15.3,60.7,13.1z"/>
					<path class="st2" d="M49.7,49.9c2.5,0.5,5,0.8,7.4,1.5c1.4,0.4,2.7,0.9,4,1.5c0.1-0.1,0.1-0.3,0.2-0.4
						c-0.9-0.5-1.8-0.8-2.8-1.2c-2.6-0.9-5.4-1.2-8.1-1.7c-1.5-0.2-3.1-0.5-4.5-1c-0.7-0.3-1.3-0.6-2-0.9l0,0
						c0.2,0.1,0.4,0.3,0.7,0.4C46.1,49.1,47.9,49.5,49.7,49.9z"/>
					<path class="st2" d="M83.1,36.8c0.1,0.1,0.1,0.1,0.2,0.2c0,0,0.1-0.1,0.1-0.1C83.3,36.9,83.2,36.8,83.1,36.8z"/>
					<path class="st2" d="M92.6,52.3L92.6,52.3c-0.1-0.1-0.1-0.2-0.2-0.2h0C92.4,52.2,92.5,52.2,92.6,52.3z"/>
					<path class="st2" d="M83.7,37.5c0.1,0.1,0.3,0.3,0.4,0.4c0.2-0.3,0.4-0.5,0.7-0.8c-0.2,0-0.5-0.1-0.7-0.1c0,0-0.1,0.1-0.1,0.1
						C83.9,37.3,83.8,37.4,83.7,37.5z"/>
					<path class="st2" d="M77.6,53.9C77.6,53.9,77.6,53.9,77.6,53.9L77.6,53.9C77.6,53.9,77.6,53.9,77.6,53.9L77.6,53.9z"/>
					<path class="st2" d="M57.9,54.5c0.5,0.1,1,0.2,1.5,0.3c0.3,0,0.7,0.1,1,0.2c0,0,0-0.1,0-0.1c-0.1,0-0.2,0-0.4-0.1
						C59.3,54.6,58.6,54.6,57.9,54.5z"/>
					<path class="st2" d="M94.4,56.6C94.4,56.6,94.4,56.6,94.4,56.6L94.4,56.6C94.4,56.6,94.4,56.6,94.4,56.6z"/>
					<path class="st2" d="M53.9,54.5c0.8,0.1,1.7,0.2,2.6,0.3c1.3,0.1,2.6,0.2,3.8,0.4c0-0.1,0-0.1,0-0.2
						C58.2,54.7,56.1,54.5,53.9,54.5z"/>
					<path class="st2" d="M102.8,16.2c0.1,0.3,0.2,0.6,0.3,1c-0.3-2.9-2.3-5.4-5.4-6.2c2.6,3.4,3.4,7.3,2.7,11.5
						c0.8-3.4,0.7-6.7-0.9-9.9c0,0,0.1-0.1,0.1-0.1c0.5,0.5,1,0.9,1.6,1.4c0-0.1-0.1-0.2-0.1-0.2c0,0,0.1,0,0.1,0
						c0.4,0.5,0.7,1.1,1.1,1.6c0,0,0,0,0,0c-0.2-0.3-0.3-0.6-0.5-0.9c0.2,0.3,0.4,0.6,0.6,0.9C102.5,15.6,102.7,15.9,102.8,16.2z"/>
					<path class="st2" d="M49.2,45.4c-0.3,0-0.5,0-0.8,0c0,0,0,0.1,0,0.1c2.1,0.3,4.1,0,5.9-1.1c1.3-0.8,2.3-1.9,3-3.1
						c-4.8,1.8-9.3,1.7-13.7-1c1.5,1.4,3.4,2,5.4,2.5c2,0.4,4,0.5,6,0.2c-0.7,0.7-1.5,1.1-2.3,1.5c0.2,0,0.3-0.1,0.5-0.1l0,0.1
						c-0.8,0.3-1.6,0.5-2.4,0.8c0.4,0,0.8-0.1,1.1-0.2c0.8-0.3,1.5-0.6,2.2-0.9c-0.2,0.2-0.5,0.3-0.7,0.5
						C52.1,45.2,50.7,45.4,49.2,45.4z M56.2,42.4c-0.6,0.6-1.2,1.2-1.9,1.6C54.9,43.5,55.5,43,56.2,42.4z"/>
					<path class="st2" d="M94.4,56.8L94.4,56.8c0,0.1,0,0.1,0,0.2c0,0.2,0,0.4,0,0.6l0,0c0-0.2,0-0.4,0-0.6
						C94.4,56.9,94.4,56.9,94.4,56.8z"/>
					<path class="st2" d="M61.8,44.2c1-0.9,1.8-1.9,2.4-3.1c0.9-1.8,1.3-3.6,1.4-5.5c-0.1-0.1-0.3-0.2-0.4-0.3
						c-0.1,1.7-0.4,3.3-1.2,4.9c-0.1,0.3-0.3,0.6-0.5,0.8c0,0-0.1,0-0.1,0c0.2-1,0.4-2.1,0.3-3.1c0,0.1,0,0.2-0.1,0.3c0,0,0,0,0,0
						c0-0.8-0.1-1.7-0.1-2.5c0,0-0.1,0-0.1,0c0.1,1.9,0,3.8-0.4,5.6c0.6-2.8,0.6-5.6-0.1-8.4c0.6,3.8,0.5,7.6-1.2,11.3
						C61.8,44.2,61.8,44.2,61.8,44.2z"/>
					<path class="st2" d="M100.9,51.9c-1.2,3-2.7,5.6-4.8,8c-0.1,0.2-0.2,0.5-0.3,0.7c2.5-2.5,4.6-5.8,5.4-8.5c0,0-0.1,0-0.1-0.1
						C101,52,100.9,52,100.9,51.9z"/>
					<path class="st2" d="M107.3,65.2c-0.3-1.3-0.4-2.6-0.6-3.9c-0.2-1.3-0.3-2.6-0.5-3.9c-0.1-0.6-0.3-1.1-0.5-1.7
						c0.1,0,0.1,0.1,0.1,0.1c0.7,0.8,1.4,1.7,2.1,2.5c0.5,0.6,0.7,1.3,1.2,1.9c0.4,0.5,0.6,1.3,0.9,2c0.1,0.2,0.1,0.3,0.2,0.5
						c-0.4-2.7-3.4-7.2-5.5-8.4c0.2,0.5,0.6,1.1,0.8,1.7c0.6,1.5,0.7,3.1,0.8,4.6c0.1,1.5,0.3,3.1,0.7,4.6c0.5,1.7,1.4,3.2,2.8,4.4
						c0.3,0.2,0.6,0.4,0.9,0.6C108.7,68.5,107.9,67.5,107.3,65.2z"/>
					<path class="st2" d="M106.2,73.8h3.2c0,0,0,0,0-0.1L106.2,73.8C106.2,73.8,106.2,73.8,106.2,73.8z"/>
					<path class="st2" d="M97,70.9c-1.9,0.8-3.9,1.2-5.9,1.5c-1.4,0.3-2.9,0.6-4.2,1.1c-0.1,0.1-0.2,0.1-0.4,0.2c0,0,0,0.1,0,0.1
						c0.4-0.1,0.9-0.1,1.3-0.2c0.7-0.2,1.4-0.4,2.1-0.6c1.8-0.4,3.6-0.8,5.4-1.3c2.6-0.8,5-2.1,6.7-4.4c0.6-0.7,1.1-1.5,1.4-2.4
						c0,0-0.1,0.1-0.1,0.1C102,68,99.8,69.8,97,70.9z"/>
					<path class="st2" d="M111,70c-1.3-1-2.2-2.2-2.7-3.8c-0.5-1.6-0.5-3.3-0.5-5c0-0.1,0-0.3,0-0.4c0,0,0.1,0,0.1,0
						c0.3,0.6,0.5,1.2,0.9,1.8v-0.4c0.2,0.5,0.4,1,0.6,1.4c0,0,0.1,0,0.1,0c-0.2-0.5-0.3-0.9-0.5-1.4c0,0,0,0,0.1,0l1.1,3.1
						c0,0,0.1,0,0.1,0c-0.7-2.3-1.5-4.6-3.1-6.6c0,0.8,0,1.4,0,2.1c0,1.6,0.1,3.3,0.5,4.9c0.5,1.7,1.3,3.1,2.7,4.2
						c0.2,0.1,0.4,0.3,0.6,0.4C111.1,70,111.1,70,111,70z"/>
					<path class="st2" d="M111.8,61.6c0.2,0.3,0.4,0.5,0.6,0.8V62C112.3,61.8,112.1,61.7,111.8,61.6
						C111.9,61.5,111.8,61.6,111.8,61.6z"/>
					<path class="st2" d="M106.2,53c0,0.1,0.1,0.2,0.2,0.3c0.9,1,1.9,1.8,3,2.4c1,0.5,2,0.8,3.1,1.1v-0.2
						C110,56,107.9,54.8,106.2,53z"/>
					<path class="st2" d="M63.5,73.9c0.7-0.6,1.4-1.2,2.1-1.9C64.9,72.6,64.2,73.2,63.5,73.9C63.5,73.8,63.5,73.9,63.5,73.9z"/>
					<path class="st2" d="M99.7,72c-1,0.6-2.1,1.2-3.2,1.8C96.9,73.8,99.5,72.4,99.7,72z"/>
					<path class="st2" d="M58.6,66.1c-1.9-1.1-3.7-2.4-5.6-3.6c-2.1-1.4-4.3-2.6-6.8-3.2c-0.1,0-0.2,0-0.3-0.1
						c0.7,0.3,1.5,0.5,2.2,0.8c2.5,1.1,4.7,2.6,6.9,4.2c2.6,1.9,5.3,3.6,8.5,4.3c-1.4,0.2-2.8,0.1-4.2,0c0,0,0.1,0,0.1,0.1
						c0,0,0,0,0,0.1c-1.1-0.2-2.1-0.4-3.3-0.6c0.3,0.1,0.5,0.2,0.8,0.3c-0.8-0.2-1.6-0.5-2.4-0.7c-0.7-0.2-1.3-0.6-2-0.8
						c2.7,2.1,8.8,2.8,13.3,1.6c-0.6-0.1-1.1-0.1-1.6-0.2C62.2,67.9,60.3,67.1,58.6,66.1z M57.1,68.5c0.3,0.1,0.7,0.1,1,0.2
						c0.5,0.1,1,0.1,1.5,0.2C58.8,68.8,57.9,68.7,57.1,68.5z"/>
					<path class="st2" d="M65.5,71.8c-0.9,0.7-1.8,1.3-2.7,2C63.1,73.8,64.6,72.7,65.5,71.8z"/>
					<path class="st2" d="M69.6,66.7c-2.9,0-5.5-1-7.9-2.6c-1.2-0.8-2.2-1.7-3.3-2.5c-1.4-1.1-2.8-2.1-4.5-2.6
						c-0.4-0.1-0.8-0.2-1.2-0.4c1.5-0.2,3-0.2,4.4-0.1c-0.1,0-0.3-0.1-0.4-0.1c0,0,0-0.1,0-0.1c1.1,0.2,2.2,0.4,3.3,0.7
						c-1.4-0.5-2.8-0.8-4.2-0.8c0.1,0,0.2,0,0.3,0c0.2,0,0.4,0,0.6,0c1.3,0.1,2.5,0.4,3.7,0.8c0-0.1,0-0.1,0-0.2
						c-1.1-0.4-2.2-0.6-3.4-0.8c-2.4-0.3-5.5,0.4-6.5,0.7c0.5,0.1,1.1,0.1,1.6,0.2c0.6,0.1,1.1,0.3,1.7,0.5c1.8,0.7,3.4,1.8,4.9,3
						c1.6,1.2,3.2,2.4,5.1,3.3C65.6,66.5,67.6,66.9,69.6,66.7C69.6,66.7,69.6,66.7,69.6,66.7z"/>
					<path class="st2" d="M99,73.8c0,0,0,0.1,0.1,0.1c0.7-0.3,1.3-0.7,2-1.1c0,0,0-0.1-0.1-0.1C100.4,73,99.7,73.4,99,73.8z"/>
					<path class="st2" d="M99,73.7c0.9-0.5,1.8-0.9,2.6-1.4c0.4-0.2,0.9-0.4,1.4-0.6c-1.7,0.4-3.1,1.2-4.6,2.1
						C98.6,73.8,98.8,73.8,99,73.7z"/>
					<path class="st2" d="M112.5,56.5v-0.1c-0.9-0.3-1.7-0.5-2.6-0.8C110.7,56,111.6,56.2,112.5,56.5z"/>
					<path class="st2" d="M108.9,15.1c-1,1.5-1.6,3.2-2.2,5c-0.1,0.4-0.3,0.8-0.4,1.2c0.4-0.9,0.7-1.8,1.1-2.7
						c0.8-2,1.8-3.8,3.3-5.3c0.5-0.5,1.2-0.9,1.8-1.3v-0.5c-0.1,0.1-0.3,0.1-0.4,0.2C110.8,12.6,109.7,13.8,108.9,15.1z"/>
					<path class="st2" d="M109.7,9.8C109.8,9.8,109.8,9.9,109.7,9.8c0.9-0.2,1.8-0.6,2.7-0.9V8.8c-0.7,0.2-1.3,0.4-2,0.7
						C110.3,9.6,110,9.7,109.7,9.8z"/>
					<path class="st2" d="M110,14.9c-1.3,1.5-2.1,3.3-2.8,5.1c-0.2,0.5-0.4,0.9-0.6,1.4c0.3-0.6,0.6-1.2,0.9-1.8
						c0.8-1.7,1.6-3.2,2.9-4.6c0.6-0.6,1.2-1.2,2-1.6v-0.7c-0.1,0-0.2,0.1-0.2,0.1C111.4,13.4,110.7,14.1,110,14.9z"/>
					<path class="st2" d="M108,6.4c-2.1,0.5-4.2,1.3-6.4,1.5c0.2,0,0.3,0,0.5,0c1.2-0.2,2.4-0.4,3.6-0.6c1.4-0.3,2.7-0.6,4.1-0.9
						c0.9-0.1,1.8-0.1,2.7-0.1V6C111,5.8,109.5,6.1,108,6.4z"/>
					<path class="st2" d="M108.5,7.1c-2.3,0.4-4.5,1.1-6.9,1.1c0.2,0,0.4,0,0.6,0c1.6-0.2,3.2-0.3,4.7-0.5c1.4-0.2,2.7-0.4,4.1-0.3
						c0.2,0,0.5,0.1,0.7,0.1c0,0,0,0.1,0,0.1c-0.6,0.3-1.2,0.5-1.8,0.8l0,0.1l0.2,0c0,0,0,0,0,0c-0.5,0.2-0.9,0.4-1.4,0.6
						c0,0,0,0.1,0,0.1c0.3-0.1,0.7-0.2,1-0.4c0,0,0,0.1,0,0.1c-0.9,0.3-1.9,0.7-2.8,1c0.2,0,0.4,0,0.5,0c1.1-0.4,2.3-0.8,3.4-1.3
						c0.5-0.2,0.9-0.4,1.4-0.6V7C111.1,6.8,109.8,6.9,108.5,7.1z"/>
					<path class="st2" d="M111.4,17.8c0.3-0.5,0.7-1,1-1.6v-0.3C112,16.5,111.7,17.1,111.4,17.8C111.4,17.8,111.4,17.8,111.4,17.8z"
						/>
					<path class="st2" d="M109.4,31.5c0.8,0.3,1.7,0.5,2.5,0.8c0.2,0.1,0.4,0.2,0.6,0.3v-0.2c-1.1-0.4-2.2-0.9-3.3-0.9
						C109.2,31.5,109.3,31.5,109.4,31.5z"/>
					<path class="st2" d="M111,53.6c-3.1-3-4.1-6.7-3.4-10.9c0.1-0.5,0.2-1.1,0.3-1.6c-0.6,1.6-0.8,3.2-0.8,4.8
						c0.1,3.2,1.2,6,3.4,8.3c-1-0.3-1.8-0.9-2.6-1.5c0.1,0.1,0.1,0.2,0.1,0.4c-0.2-0.2-0.4-0.3-0.5-0.5c-0.4-0.4-0.8-0.9-1.2-1.3
						c-0.2-0.2-0.5-0.4-0.6-0.7c-0.2-0.4-0.4-0.8-0.6-1.2c-0.1-0.3-0.2-0.6-0.4-1c0,0.2,0,0.3,0,0.4c0.4,1.6,1.3,3,2.5,4.2
						c1.4,1.4,3.2,2.2,5.2,2.5v-0.7c-0.1-0.1-0.3-0.2-0.4-0.3C111.7,54.3,111.4,54,111,53.6z M108.7,53.9c-0.3-0.3-0.6-0.5-0.9-0.8
						c-0.3-0.3-0.6-0.5-0.9-0.8c0,0,0,0,0,0c0.3,0.3,0.6,0.5,0.9,0.8C108.1,53.4,108.5,53.6,108.7,53.9
						C108.8,53.9,108.7,53.9,108.7,53.9z M111.1,55.1c-0.7-0.3-1.4-0.6-2-0.9c0,0,0,0,0-0.1C109.8,54.4,110.5,54.7,111.1,55.1
						C111.1,55,111.1,55.1,111.1,55.1z"/>
					<path class="st2" d="M108.2,41.4c-0.7,3-0.6,5.9,0.8,8.6c0.8,1.6,2,2.9,3.5,3.8v-0.5C108.4,50.3,107.4,46.2,108.2,41.4z"/>
					<path class="st2" d="M110.3,30.3c0,0-0.1,0-0.1,0c0.1,0.1,0.2,0.1,0.3,0.2c-0.7-0.1-1.3-0.1-1.8-0.2c0,0,0,0.1,0,0.1
						c0.4,0,0.7,0.1,1.1,0.1c0.4,0.1,0.7,0.1,1.1,0.2c-1.4-0.2-2.7-0.4-4.1,0c0.1,0,0.2,0,0.3,0c1.1-0.1,2.3-0.1,3.4,0.2
						c0.7,0.2,1.4,0.4,2.1,0.6v-0.7c-0.1,0-0.2,0-0.3-0.1C111.5,30.7,110.9,30.5,110.3,30.3z"/>
					<path class="st2" d="M106.7,27.5c-2.5,0.3-4.5,1.6-6,3.6c-0.2,0.2-0.3,0.5-0.4,0.6c0.5-0.6,1.1-1.3,1.7-1.8
						c1.9-1.7,4.1-2.4,6.6-2.1c1.4,0.1,2.7,0.7,3.9,1.5v-0.5c-0.1,0-0.2-0.1-0.3-0.1C110.5,27.7,108.6,27.3,106.7,27.5z"/>
					<path class="st2" d="M102,30.3c-0.4,0.4-0.8,0.8-1.2,1.2c0.6-0.4,1-0.9,1.6-1.3c2.5-2,6-2.2,8.7-0.5c0.5,0.3,0.9,0.7,1.4,1.1
						V30c-0.1,0-0.2-0.1-0.2-0.1C109,27.4,104.9,27.6,102,30.3z"/>
					<path class="st2" d="M58.1,13.4c-2.4,2.1-3.7,4.7-3.3,7.9c0.2,1.6,0.7,3,1.6,4.4c-0.3-0.8-0.7-1.5-0.9-2.2
						c-0.7-2.1-0.7-4.2,0.2-6.2c0.7-1.6,1.7-2.9,3.1-3.9c1.2-0.8,2.4-1.5,3.7-2.3c0.3-0.2,0.6-0.4,1-0.6c-0.8,1.2-1.8,2-2.3,3.3
						c-0.1,0.2-0.3,0.4-0.4,0.6c-0.2,0.4-0.5,0.8-0.7,1.1c0,0,0,0,0.1,0c0.1-0.1,0.1-0.1,0.2-0.2c-0.4,0.9-0.9,1.7-1.1,2.6
						c0,0,0.1-0.1,0.1-0.1c0.6-1.5,1.4-2.9,2.4-4.2c1-1.4,2-2.9,3-4.4c0.1-0.1,0.1-0.2,0.2-0.4C64.3,9.4,64,9.7,63.6,10
						c-0.4,0.3-0.8,0.5-1.2,0.7C61,11.5,59.4,12.3,58.1,13.4z"/>
					<path class="st2" d="M88.8,11.8c0.7,1.5,1.6,2.9,2.6,4.3c1.1,1.6,2.1,3.3,2.7,5.1c0.2,0.8,0.4,1.6,0.6,2.4
						c0,0.1,0.1,0.1,0.1,0.2c0-0.3-0.1-0.5-0.1-0.7c-0.4-2.5-1.4-4.8-2.7-6.9c-0.9-1.5-1.9-3-2.7-4.6c-0.5-0.9-0.8-1.8-1-2.8
						c0.4,0.5,0.8,1,1.2,1.5c0.4,0.4,0.8,0.9,1.5,1.1c0.4,0.1,0.8,0.5,1.2,0.8c0.3,0.2,0.5,0.4,0.9,0.6c-0.1-0.1-0.1-0.2-0.1-0.2
						c0,0,0,0,0.1-0.1c0.9,0.8,1.8,1.6,2.7,2.4c0,0,0.1-0.1,0.1-0.1c-0.6-0.6-1.2-1.3-1.9-1.8c-1-0.8-2.1-1.5-3.1-2.3
						c-1-0.8-2-1.6-2.5-2.8c-0.2-0.3-0.3-0.7-0.4-1.1c0,0.3,0,0.5,0.1,0.8C87.8,9.1,88.1,10.5,88.8,11.8z"/>
					<path class="st2" d="M96.6,18c0-0.2-0.1-0.3-0.1-0.4c-0.8-1.6-1.9-3-3.4-4c-0.8-0.6-1.7-1.1-2.6-1.7c0,0-0.1,0-0.1,0.1
						c0.4,0.9,0.8,1.8,1.3,2.7c0.9,1.6,1.8,3.1,2.4,4.8c0.6,1.8,0.9,3.6,1,5.5c0,0,0,0,0,0c0-0.4,0-0.8,0-1.2
						C95,21.8,94.7,20,94,18.2c-0.6-1.4-1.3-2.8-1.9-4.1c0-0.1-0.1-0.2-0.1-0.3c0.1,0,0.1,0,0.1,0c0.7,0.3,1.1,1,1.9,1.2
						c0.1,0,0.2,0.2,0.4,0.3c0.3,0.3,0.6,0.5,0.9,0.8c0,0,0,0,0,0c-0.6-0.6-1.1-1.2-1.7-1.8C94.9,15.2,95.8,16.5,96.6,18z"/>
					<path class="st2" d="M98.9,10.3c-1.7-0.8-3.5-1.1-5.3-1.3c-0.1,0-0.3,0-0.4,0c-0.1,0-0.3,0-0.5,0c2.7,1.2,4.6,3.1,6,5.6
						c1.4,2.5,1.7,5.2,1.4,8c0.8-5.5-0.8-9.9-5.5-13.1c1.3,0.3,2.5,0.6,3.7,1c0.6,0.2,1.1,0.6,1.6,0.9c0.1,0.1,0.3,0.2,0.3,0.2
						c0.3-0.1,0.5,0.2,0.6,0.3c0.4,0.4,0.8,0.7,1.1,1.1c0.3,0.3,0.6,0.7,0.9,1.1c0,0,0,0,0-0.1c0,0,0-0.1-0.1-0.1
						C101.8,12.3,100.5,11.1,98.9,10.3z"/>
					<path class="st2" d="M82.1,9.6c0-0.1,0.1-0.2,0.1-0.3c0.5-1.9,1.5-3.4,3.1-4.6c0.7-0.5,1.4-0.8,2.2-1.2h-1.2
						C85.8,3.8,85.4,4,85,4.3c-0.8,0.6-1.5,1.4-2.1,2.3c-0.1,0.1-0.1,0.2-0.2,0.4c0.3-1.3,0.8-2.4,1.5-3.4h-0.7c0,0.1,0,0.1,0,0.2
						C82.5,5.5,82.2,7.4,82.1,9.6C82.1,9.5,82.1,9.5,82.1,9.6z"/>
					<path class="st2" d="M72,13.1c0.1-0.1,0.2-0.2,0.3-0.3c-0.9-2-1.2-4.1-0.8-6.4c0.2-1,0.5-2,0.8-2.9H72
						c-0.4,1.1-0.8,2.2-0.9,3.3C70.8,9,71,11.2,72,13.1z"/>
					<path class="st2" d="M70.6,12c-0.3-1.6-0.3-3.2,0-4.8c0.2-1.3,0.6-2.5,1.1-3.7h-0.3c0,0.1,0,0.1-0.1,0.2
						C70.7,5.1,70.2,6.5,70,8c-0.1,0.5-0.1,1-0.2,1.5c-0.4-0.7-0.5-1.4-0.7-2.3c0,0.2,0,0.3-0.1,0.4c0,0,0,0-0.1,0
						C69,7,69,6.4,68.9,5.8c-0.1,0.4-0.1,0.8-0.1,1.2c0,0.4,0.1,0.8,0.1,1.3c-0.4-1-0.2-3.1,0.3-4.7h-0.1c0,0.1,0,0.2-0.1,0.2
						c-0.8,2.4-0.7,4.8,0.7,7C70,11.2,70.3,11.6,70.6,12z"/>
					<path class="st2" d="M75.1,8.8c0.1-1.2,0.3-2.4,0.7-3.7C76,4.6,76.3,4,76.5,3.5h-0.4c-0.6,1.3-1.1,2.7-1.2,4.2
						c-0.1,0.6-0.1,1.1-0.1,1.7C74.9,9.2,75,9,75.1,8.8z"/>
					<path class="st2" d="M101.9,26.6c-0.2,0.1-0.3,0.1-0.4,0.2c-0.6,0.3-1.1,0.6-1.7,0.9c-2.2,1.1-4,2.6-5.5,4.5
						C94,32.8,93.5,33.5,93,34c0,0-0.1,0.1-0.1,0.1c-1.2,2-2,4.1-2.7,6.3c-0.2,0.6-0.4,1.2-0.6,1.8c0,0.1,0,0.3,0,0.4
						c0.2-0.4,0.3-0.8,0.5-1.1c0.8-1.9,1.4-3.9,2.4-5.8c1.4-2.8,3.4-5.2,6.1-7c0.4-0.3,0.8-0.5,1.2-0.8c-0.4,0.5-0.8,1-1.2,1.5
						c-0.7,0.9-1.3,1.8-1.6,2.9c-0.2,0.6-0.5,1.2-0.8,1.8c-0.1,0.3-0.1,0.7-0.2,1c-0.1,0.4-0.3,0.8-0.4,1.2
						c-0.2,0.6-0.4,1.2-0.5,1.8c0,0,0.1,0,0.1,0c0,0,0,0,0-0.1c0.6-1.7,1.2-3.4,1.9-5.1c0.8-1.9,1.8-3.6,3.2-5
						C100.8,27.6,101.3,27.1,101.9,26.6z"/>
					<path class="st2" d="M56.8,59.2c0.2,0.1,0.3,0.2,0.5,0.4c1.2,1,2.4,2.1,3.6,3.1c1.6,1.4,3.4,2.5,5.5,3.2
						c1.1,0.3,2.2,0.5,3.4,0.5c0,0,0-0.1,0-0.1c-2-0.1-3.8-0.7-5.6-1.7c-1.5-0.9-2.8-2.1-4.1-3.3c-0.3-0.3-0.6-0.5-0.9-0.8
						c0-0.1,0.1-0.1,0.1-0.2c0.6,0.2,1.1,0.4,1.7,0.6c-0.1-0.3-0.3-0.6-0.4-0.9C59,59.3,57.5,59,56.8,59.2z M58.5,59.5
						c0.7,0.2,1.3,0.3,2,0.5c0,0,0,0.1,0,0.1C59.8,59.9,59.1,59.8,58.5,59.5C58.5,59.6,58.5,59.5,58.5,59.5z"/>
					<path class="st2" d="M96.4,51.1C96.4,51.1,96.4,51.1,96.4,51.1C96.4,51.1,96.4,51.1,96.4,51.1C96.4,51.1,96.4,51.1,96.4,51.1z"
						/>
					<path class="st2" d="M95.6,70.9c2.4-0.6,4.6-1.9,6.2-3.8c0.6-0.7,1.1-1.6,1.5-2.5c-0.6,1.1-1.3,2.1-2.2,3
						c-2.1,2-4.7,2.9-7.5,3.3c-1.3,0.2-2.7,0.3-4,0.5c-0.3,0-0.6,0-0.9,0.1l0-0.1c0.9-0.5,1.8-0.9,2.8-1.4C91.3,69.9,91.1,70,91,70
						c0,0,0,0,0-0.1c0.8-0.3,1.5-0.7,2.3-1c0,0,0-0.1,0-0.1c-1.1,0.4-2.1,0.9-3.2,1.3c0.2-0.1,0.3-0.2,0.5-0.3
						c1.3-0.5,2.6-1,3.8-1.5c0.4-0.2,0.8-0.4,1.2-0.5c0,0,0-0.1,0-0.1c-0.4,0.1-0.8,0.3-1.2,0.4c-1.8,0.6-3.6,1.2-5.3,2.1
						c-0.9,0.5-1.7,1-2.4,1.7c-0.1,0.3-0.2,0.5-0.4,0.8c1.2-0.4,2.5-0.5,3.7-0.8C91.9,71.6,93.8,71.3,95.6,70.9z M87.8,71.3
						c0.5-0.3,1-0.6,1.5-0.9l0,0.1C88.9,70.8,88.4,71.1,87.8,71.3C87.9,71.3,87.8,71.3,87.8,71.3z"/>
					<path class="st2" d="M104.8,37.4c-0.3,0.5-0.7,0.9-1,1.4c-0.9,1.7-1.8,3.4-2.6,5.2c-1,2.1-2,4.1-3.6,5.7
						c-0.4,0.5-0.8,0.9-1.3,1.4c0.1,0.1,0.2,0.1,0.3,0.2c1.7-1.4,3.1-3.4,4.1-5.6C102.1,42.9,103,40,104.8,37.4
						C104.8,37.5,104.8,37.5,104.8,37.4z"/>
					<path class="st2" d="M104.4,37.3c-0.5,0.6-1,1.2-1.4,1.9c-1.1,1.8-2.1,3.7-3.1,5.6c-1.1,2.1-2.5,3.8-4.4,5.2
						c-0.3,0.2-0.6,0.4-0.8,0.5c0,0,0,0,0-0.1c0.6-0.9,1.2-1.8,1.7-2.7c0,0-0.1,0-0.1-0.1c-0.1,0.1-0.2,0.2-0.2,0.3c0,0,0,0,0,0
						c0.4-0.8,0.7-1.5,1.1-2.3c0,0-0.1,0-0.1,0c-0.4,0.7-0.8,1.5-1.2,2.2c0,0-0.1,0-0.1,0c0.9-1.6,1.7-3.2,2.2-4.9
						c-1.2,2.7-2.5,5.2-4.3,7.6c0.3,0.3,0.6,0.6,0.9,0.9c0.2-0.1,0.5-0.1,0.6-0.3c1.6-1.1,3-2.5,4-4.2c0.8-1.4,1.5-2.9,2.3-4.3
						c0.9-1.7,1.7-3.4,2.9-4.9c0.1-0.1,0.2-0.2,0.3-0.4c0,0,0,0-0.1-0.1C104.5,37.2,104.5,37.2,104.4,37.3z"/>
					<path class="st2" d="M55,7.1c2.3,0,4.4-0.7,6.3-1.9c0.8-0.5,1.5-1.1,2.3-1.7h-0.2C57.8,8,52.7,7.6,47.5,4.1
						c0.2,0.1,0.3,0.1,0.4,0.1c1.3,0.4,2.5,0.8,3.9,0.7c0.8-0.1,1.7,0.1,2.5-0.2c0.5-0.2,1-0.2,1.5-0.3C56.2,4.3,56.6,4.1,57,4
						c-0.1-0.1-0.1-0.1-0.1-0.1c-2.3,0.8-4.6,0.9-6.9,0.4c-1.1-0.2-2.2-0.6-3.2-0.9h-0.5c1,0.6,2,1.3,3,1.9C51,6.5,52.9,7.1,55,7.1z
						"/>
					<path class="st2" d="M42.2,16.1c1.1-1.6,2.2-3.2,3.5-4.5c-1.1,0.2-2.2,0.4-3.1,0.9c-0.5,0.3-0.5,0.3-0.4,0.9
						c0.5-0.2,1-0.4,1.4-0.7c0,0,0,0.1,0,0.1c-0.4,0.6-0.9,1.2-1.3,1.8c0,0,0,0,0.1,0l0.2-0.2c0,0,0,0,0,0l-0.6,1c0,0,0.1,0,0.1,0
						c0,0,0.1-0.1,0.2-0.1c-0.1,0.2-0.2,0.4-0.2,0.6C42.1,16,42.2,16.1,42.2,16.1z"/>
					<path class="st2" d="M42.2,8.9c2.1-0.7,4.2-1,6.4-0.6c-2-1.1-4-2.3-6.4-2.4v0.3c0.8,0.2,1.6,0.4,2.4,0.6
						c0.8,0.2,1.5,0.6,2.3,0.9c-1.2,0.1-2.3-0.1-3.4,0.4c-0.3,0.2-0.7,0.2-1.1,0.3c-0.1,0-0.2,0.1-0.2,0.1c0,0,0,0,0,0.1
						c0.1,0,0.2,0,0.3,0C42.4,8.7,42.2,8.8,42.2,8.9C42.1,8.9,42.2,8.9,42.2,8.9z"/>
					<path class="st2" d="M50.2,72c-2.1-0.8-3.7-2.7-4-3.9c0.2,0.2,0.4,0.3,0.6,0.5c0.7,0.6,1.5,0.8,2.3,1.2c0,0,0,0,0.1,0
						c-0.1-0.1-0.2-0.1-0.2-0.2c0.6,0.2,1.3,0.5,1.9,0.7c0,0,0-0.1,0-0.1c-1.2-0.4-2.3-0.9-3.2-1.7c-1-0.8-1.9-1.6-2.8-2.3
						c1.4,6,6.9,7.5,11.1,6C54,72.6,52.1,72.6,50.2,72z"/>
					<path class="st2" d="M43.6,7.4c-0.5-0.1-0.9-0.2-1.4-0.4V8C42.7,7.8,43.1,7.6,43.6,7.4C43.6,7.5,43.6,7.4,43.6,7.4z"/>
					<path class="st2" d="M45.1,68.3c-0.7-1.4-1.2-2.8-1.8-4.3c-0.1-0.3-0.3-0.6-0.4-1c0.1,0,0.2,0.1,0.2,0.2
						c0.8,0.9,1.5,1.8,2.4,2.7c0.9,0.9,1.9,1.6,2.9,2.4c0.2,0.2,0.5,0.3,0.7,0.4c0-0.1,0-0.1-0.1-0.2c-0.9-0.7-1.8-1.4-2.6-2.2
						c-1.1-1.1-2.1-2.2-3.2-3.4c-0.3-0.3-0.6-0.6-0.9-0.9c0,0-0.1,0-0.1,0.1c0,0.2,0.1,0.3,0.1,0.5c0.2,0.4,0.4,0.8,0.6,1.3
						c0.6,1.5,1.1,3,1.8,4.4c1.7,3.2,4.3,4.9,8,4.8c1,0,2-0.2,2.9-0.5c-0.5,0.1-1.1,0.2-1.6,0.3C50.2,73.4,46.8,71.6,45.1,68.3z"/>
					<path class="st2" d="M71.2,13.9c0.1-0.1,0.2-0.2,0.3-0.3c-0.5-0.4-1-0.9-1.4-1.3c-0.7-0.8-1.1-1.8-1.6-2.8
						c-0.1-0.2-0.1-0.4-0.2-0.7C68.2,8,68.1,7.2,68,6.5c0,0,0,0.1,0,0.1c-0.1,2.1,0.5,3.9,1.7,5.6C70.1,12.8,70.6,13.4,71.2,13.9z"
						/>
					<path class="st2" d="M46.5,73.8c-0.3-0.1-0.6-0.3-0.9-0.4C45.9,73.7,46.1,73.9,46.5,73.8z"/>
					<path class="st2" d="M66.9,17.8c0.1-0.1,0.1-0.1,0.2-0.2c-0.1-0.3-0.3-0.6-0.4-0.9c-0.3-0.7-0.4-1.4-0.6-2.1c0,0.1,0,0.2,0,0.3
						C66.3,15.9,66.5,16.9,66.9,17.8z"/>
					<path class="st2" d="M68.8,16.1c0.1-0.1,0.2-0.2,0.3-0.3c0-0.1-0.1-0.2-0.1-0.3c0.1,0.1,0.1,0.1,0.2,0.2
						c0.1-0.1,0.2-0.2,0.3-0.3c-0.2-0.2-0.5-0.4-0.7-0.7c-0.3-0.4-0.6-0.8-1-1.2c0,0,0,0.1,0,0.1C68.1,14.5,68.4,15.3,68.8,16.1z"/>
					<path class="st2" d="M51.6,5.4c0,0,0,0.1,0,0.1c0.8,0.2,1.5,0.5,2.3,0.7c1.5,0.3,2.9,0.2,4.4-0.2c1.7-0.5,3.3-1.3,4.8-2.4h-0.3
						c0,0,0,0.1-0.1,0.1c-1.7,1.2-3.6,2-5.7,2.3C56,6,55.1,6,54.3,5.7c0.9-0.2,1.8-0.3,2.6-0.8c0.4-0.2,0.8-0.4,1.2-0.6
						c0.4-0.2,0.9-0.5,1.3-0.8h-0.3c0,0,0,0.1-0.1,0.1c-2,1-4.1,1.7-6.3,1.8C52.3,5.4,51.9,5.4,51.6,5.4z"/>
					<path class="st2" d="M60.5,54.1c0,0,0.1,0,0.1,0c0-0.1,0.1-0.3,0.2-0.4c-1.3-0.8-2.7-1.5-4.2-1.9c-2.2-0.5-4.4-1-6.5-1.5
						c-1.6-0.4-3.3-0.7-4.8-1.4c-0.6-0.3-1.1-0.6-1.6-0.9c0.6,0.4,1.1,0.8,1.8,1.1c1.7,0.9,3.6,1.3,5.5,1.8c2,0.5,4,0.9,5.9,1.7
						c0.5,0.2,1,0.4,1.5,0.6l0,0.1c-1,0-2.1-0.1-3.1-0.1c0,0,0,0,0,0.1c0.1,0,0.3,0.1,0.4,0.1c0,0,0,0,0,0h-2.6c0,0,0,0,0,0.1
						l6.4,0.3c-1.6,0-3.1,0-4.7-0.1c-1.5-0.1-3.1-0.3-4.6-0.4c0.1,0.1,0.2,0.1,0.4,0.1c1.8,0.2,3.6,0.4,5.4,0.5
						C57.4,54,58.9,54,60.5,54.1z"/>
					<path class="st2" d="M66.3,18.3c0.1-0.1,0.2-0.2,0.3-0.3c-0.2-0.4-0.3-0.9-0.5-1.3c-0.2-0.7-0.3-1.4-0.4-2.1
						c0,0.7,0.1,1.3,0.2,1.9C66,17.2,66.2,17.7,66.3,18.3z"/>
				</g>
			</g>
			<g class="st1">
				<path class="st2" d="M87.6,50.1c-1.6,0-3.1,0.6-4.3,1.5v0c-1.1,0.8-2.3,2.7-4.2,3.6v-0.9h0l0-0.4c0-4.9,2.6-8.1,7.3-10.6
					c0.3-0.2,1.1-0.6,1.1-0.6s-0.8-0.5-1.1-0.6c-4.6-2.6-7.3-5.7-7.3-10.6c5.6,6.9,14.9,2.8,14.1-5C92.4,19.2,79.7,16.3,78.4,5
					c-1.3,11.3-14,14.2-14.8,21.5c-0.9,7.8,8.5,11.9,14.1,5c0,4.9-2.6,8-7.3,10.6c-0.3,0.2-1.1,0.6-1.1,0.6s0.8,0.5,1.1,0.6
					C75,46,77.6,49.1,77.6,54l0,0.4h0v0.9c-1.9-1-3.1-2.8-4.2-3.6v0c-1.2-0.9-2.7-1.5-4.3-1.5c-3.8,0-6.8,3.1-6.8,6.8
					c0,3.8,3.1,6.8,6.8,6.8c1.6,0,3.1-0.6,4.3-1.5c1-0.8,2.1-2.4,3.8-3.4c-0.1,0.5-0.3,0.8-0.3,0.9c-0.9,2.2-2.9,3.4-3.8,4.6h0
					c-0.9,1.2-1.5,2.7-1.5,4.3c0,3.7,3,6.8,6.8,6.8v0c0,0,0,0,0,0c0,0,0,0,0,0v0c3.7,0,6.8-3.1,6.8-6.8c0-1.6-0.6-3.1-1.5-4.3h0
					c-0.9-1.2-2.9-2.5-3.8-4.6c-0.1-0.2-0.2-0.4-0.3-0.9c1.7,1,2.8,2.6,3.8,3.4c1.2,0.9,2.7,1.5,4.3,1.5c3.8,0,6.8-3.1,6.8-6.8
					C94.4,53.2,91.4,50.1,87.6,50.1z"/>
				<g>
					<path class="st2" d="M63.6,26.5c-0.9,7.8,8.5,11.9,14.1,5c0,4.9-2.6,8-7.3,10.6c-0.3,0.2-1.1,0.6-1.1,0.6s0.8,0.5,1.1,0.6
						C75,46,77.6,49.1,77.6,54l0,0.4h0v0.9c-1.9-1-3.1-2.8-4.2-3.6v0c-1.2-0.9-2.7-1.5-4.3-1.5c-3.8,0-6.8,3.1-6.8,6.8
						c0,3.8,3.1,6.8,6.8,6.8c1.6,0,3.1-0.6,4.3-1.5c1-0.8,2.1-2.4,3.8-3.4c-0.1,0.5-0.3,0.8-0.3,0.9c-0.9,2.2-2.9,3.4-3.8,4.6h0
						c-0.9,1.2-1.5,2.7-1.5,4.3c0,3.7,3,6.7,6.6,6.8V6.2C76.2,16.5,64.3,19.4,63.6,26.5z"/>
					<path class="st2" d="M77.6,10.2v20.5l-0.4,0.5c-1.7,2.1-3.9,3.3-6.2,3.3c-1.9,0-3.7-0.8-5-2.2c-1.3-1.5-1.9-3.5-1.7-5.6
						c0.3-3,2.9-5.3,5.9-7.9C72.8,16.3,75.8,13.8,77.6,10.2 M77.6,35.7v14.1c-1.1-2.7-3.3-5-6.9-7c0,0,0,0-0.1,0c0,0,0,0,0.1,0
						C74.3,40.7,76.5,38.4,77.6,35.7 M69.1,50.8c1.4,0,2.8,0.5,3.9,1.4l0,0l0,0c0.4,0.3,0.7,0.7,1.2,1.1c0.8,0.8,1.8,1.9,3.2,2.6
						l0.2,0.1v1.9l-0.6,0.4c-1.1,0.7-2,1.6-2.7,2.3c-0.4,0.4-0.8,0.8-1.2,1.1l0,0l0,0c-1.1,0.9-2.5,1.4-3.9,1.4
						c-3.4,0-6.2-2.8-6.2-6.2C63,53.6,65.7,50.8,69.1,50.8 M77.6,59.9v14.9c-3-0.4-5.3-3-5.3-6.1c0-1.4,0.5-2.8,1.4-3.9l0,0l0,0
						c0.3-0.4,0.7-0.7,1.1-1.2C75.7,62.7,76.9,61.6,77.6,59.9C77.5,60,77.5,60,77.6,59.9 M78.2,6.2c-2,10.3-13.9,13.2-14.6,20.3
						c-0.6,5,3.1,8.5,7.3,8.5c2.3,0,4.8-1.1,6.8-3.5c0,4.9-2.6,8-7.3,10.6c-0.3,0.2-1.1,0.6-1.1,0.6s0.8,0.5,1.1,0.6
						C75,46,77.6,49.1,77.6,54l0,0.4h0v0.9c-1.9-1-3.1-2.8-4.2-3.6c-1.2-0.9-2.7-1.5-4.3-1.5c-3.8,0-6.8,3.1-6.8,6.8
						c0,3.8,3.1,6.8,6.8,6.8c1.6,0,3.1-0.6,4.3-1.5c1-0.8,2.1-2.4,3.8-3.4c-0.1,0.5-0.3,0.8-0.3,0.9c-0.9,2.2-2.9,3.4-3.8,4.6
						c-0.9,1.2-1.5,2.7-1.5,4.3c0,3.7,3,6.7,6.6,6.8V6.2L78.2,6.2z"/>
				</g>
				<path class="st2" d="M78.4,36.8C78.4,36.8,78.4,36.8,78.4,36.8C78.4,36.8,78.4,36.8,78.4,36.8c-1.1,2.4-2.9,4.5-5.2,5.9
					c2.4,1.4,4.2,3.6,5.2,5.9l0,0.1c0,0,0,0,0,0c0,0,0,0,0,0l0-0.1c1-2.4,2.8-4.5,5.2-5.9C81.3,41.3,79.5,39.1,78.4,36.8z"/>
				<path class="st2" d="M81.4,20.9c-0.6,0-1.7,0.1-3,1.9l0,0v0c-1.3-1.8-2.3-1.9-3-1.9c-1.4,0-2.6,1.1-2.4,2.8
					c0.3,2.4,5.1,4.3,5.4,7.4l0,0.3c0,0,0,0,0,0v0l0,0c0-3.3,5.1-5.4,5.4-7.8C84,22.1,82.8,20.9,81.4,20.9z"/>
			</g>
		</g>
		<g>
			<path class="st2" d="M153.1,48.1v16c0,1.7,0.2,3.4,0.5,5c0.3,1.6,0.6,2.7,0.8,3.2h-15c0.4-2.1,0.6-4.5,0.6-7.1V16.2
				c0-1.4-0.1-2.7-0.3-4S139.3,9.5,139,8h23.3c4,0,6.8,0.6,8.3,1.8c1.6,1.2,2.4,3.3,2.4,6.4v22.7c0,1.8-0.2,3.3-0.5,4.5
				c-0.3,1.2-0.8,2.2-1.5,2.9c-0.6,0.7-1.4,1.2-2.4,1.5s-2,0.4-3.3,0.4H153.1z M153.1,14.3v28.2h3.6c1.2,0,2-0.6,2.5-1.8
				c0.5-1.2,0.7-2.3,0.7-3.5V18.1c0-1-0.3-1.9-0.9-2.7c-0.6-0.7-1.5-1.1-2.6-1.1H153.1z"/>
			<path class="st2" d="M200.6,31V17c0-1.6-0.3-2.7-0.9-3.3c-0.6-0.6-1.6-0.9-3-0.9c-1.6,0-2.7,0.3-3.4,0.8c-0.6,0.6-1,1.6-1,3.2
				v46.2c0,1.5,0.2,2.6,0.7,3.1c0.5,0.6,1.4,0.8,2.7,0.8c1.4,0,2.3-0.3,2.8-0.9c0.4-0.6,0.6-1.6,0.6-3V47.1h13.1v16.1
				c0,1.9-0.2,3.5-0.5,4.7c-0.3,1.3-1.1,2.3-2.2,3c-1.1,0.8-2.8,1.3-5,1.7c-2.2,0.3-5.2,0.5-8.9,0.5c-3.5,0-6.3-0.2-8.5-0.5
				c-2.2-0.3-3.8-0.8-4.9-1.5c-1.1-0.7-1.9-1.7-2.3-2.9c-0.4-1.2-0.6-2.8-0.6-4.6V15.9c0-1.9,0.3-3.4,0.8-4.6c0.5-1.1,1.4-2,2.8-2.6
				c1.3-0.6,3.1-1,5.3-1.2c2.2-0.2,4.9-0.3,8.3-0.3c3.8,0,7.1,0.1,9.7,0.4c2.7,0.3,4.8,0.5,6.4,0.7c-0.1,1-0.1,2.2-0.1,3.6
				c0,1.4,0,2.8,0,4.4V31H200.6z"/>
			<path class="st2" d="M232.7,48.1v16c0,1.7,0.2,3.4,0.5,5c0.3,1.6,0.6,2.7,0.8,3.2h-15c0.4-2.1,0.6-4.5,0.6-7.1V16.2
				c0-1.4-0.1-2.7-0.3-4c-0.2-1.3-0.4-2.7-0.7-4.2h23.3c4,0,6.8,0.6,8.3,1.8c1.6,1.2,2.4,3.3,2.4,6.4v22.7c0,1.8-0.2,3.3-0.5,4.5
				c-0.3,1.2-0.8,2.2-1.5,2.9c-0.6,0.7-1.4,1.2-2.4,1.5s-2,0.4-3.3,0.4H232.7z M232.7,14.3v28.2h3.6c1.2,0,2-0.6,2.5-1.8
				c0.5-1.2,0.7-2.3,0.7-3.5V18.1c0-1-0.3-1.9-0.9-2.7c-0.6-0.7-1.5-1.1-2.6-1.1H232.7z"/>
			<path class="st2" d="M258.3,72.4c0.3-1.8,0.5-3.7,0.5-5.6v-54c0-0.5,0-1.1-0.1-1.9c-0.1-0.8-0.2-1.4-0.2-1.9
				c-0.1-0.5-0.1-0.8-0.1-0.9H278l4.5,33.8h0.4L287.4,8h19.5c-0.2,1.5-0.3,3-0.3,4.6V67c0,0.7,0,1.4,0.1,2.3
				c0.1,0.9,0.2,1.6,0.3,2.1s0.1,0.9,0.1,0.9h-14.4c0-0.1,0-0.4,0.1-0.9c0.1-0.5,0.2-1.2,0.3-2c0.1-0.8,0.1-1.5,0.1-2.1V16h-0.6
				c-0.5,3.4-0.9,6.6-1.3,9.5c-0.4,2.9-0.8,6.1-1.3,9.8c-0.5,3.7-1,7.5-1.5,11.3c-0.5,3.9-1,7.7-1.6,11.4s-1,7.1-1.3,10.1
				c-0.1,0.7-0.2,2.1-0.3,4.1h-12.5L265.7,17h-0.5v49.7c0,0.7,0,1.5,0.1,2.4c0.1,1,0.1,1.7,0.2,2.3c0.1,0.6,0.1,0.9,0.1,1H258.3z"/>
		</g>
		<path class="st2" d="M78.9,18.6C67.4,17.3,61.4,31,71.5,39.2c-7.1,0-11.7-3.9-15.5-10.6c-0.2-0.4-0.9-1.5-0.9-1.5
			s-0.7,1.2-0.9,1.6c-3.8,6.8-8.4,10.6-15.5,10.6l-0.6,0v0h-1.3c1.4-2.8,4.1-4.6,5.3-6.2c1.4-1.7,2.2-3.9,2.2-6.3
			c0-5.5-4.5-10-10-10c-5.5,0-10,4.5-10,10c0,2.4,0.8,4.6,2.2,6.3c1.2,1.5,3.5,3.1,5,5.6c-0.7-0.2-1.1-0.4-1.4-0.5
			c-3.2-1.3-5-4.3-6.8-5.6c-1.7-1.4-3.9-2.2-6.3-2.2c-5.5,0-9.9,4.4-10,9.9h0c0,0,0,0,0,0c0,0,0,0,0,0h0c0,5.5,4.5,9.9,10,9.9
			c2.4,0,4.6-0.8,6.3-2.2c1.7-1.3,3.6-4.3,6.8-5.6c0.2-0.1,0.7-0.3,1.4-0.5c-1.5,2.5-3.9,4.1-5,5.6c-1.4,1.7-2.2,3.9-2.2,6.3
			c0,5.5,4.5,10,10,10c5.5,0,10-4.5,10-10c0-2.4-0.8-4.6-2.2-6.3c-1.2-1.6-3.9-3.4-5.3-6.2h1.3v0l0.6,0c7.1,0,11.8,3.8,15.5,10.6
			c0.2,0.4,0.9,1.7,0.9,1.7s0.7-1.2,0.9-1.5c3.8-6.8,8.4-10.6,15.5-10.6c-10.1,8.2-4.1,21.9,7.4,20.6c10.8-1.2,14.9-19.9,31.5-21.7
			C93.8,38.4,89.7,19.8,78.9,18.6z M63.9,40.3c-3.5,1.5-6.6,4.2-8.7,7.6c-2.1-3.5-5.2-6.1-8.7-7.6l-0.1,0c0,0,0,0,0.1,0
			c0,0,0,0-0.1,0l0.1,0c3.5-1.5,6.6-4.2,8.7-7.6C57.2,36.1,60.4,38.7,63.9,40.3C63.9,40.3,63.9,40.3,63.9,40.3
			C63.9,40.3,63.9,40.3,63.9,40.3z M84.3,40.3c2.7,1.9,2.8,3.4,2.8,4.4c0,2-1.7,3.8-4.1,3.5c-3.6-0.4-6.6-7.9-11.4-7.9h0h0
			c0,0,0,0,0,0l0.5,0c4.5-0.5,7.5-7.5,10.9-7.9c2.5-0.3,4.1,1.5,4.1,3.5C87.1,36.9,87,38.4,84.3,40.3L84.3,40.3L84.3,40.3z"/>
	</g>
	<path class="st6" d="M63.9,40.3c-3.5,1.5-6.6,4.2-8.7,7.6c-2.1-3.5-5.2-6.1-8.7-7.6l-0.1,0c0,0,0,0,0.1,0c0,0,0,0-0.1,0l0.1,0
		c3.5-1.5,6.6-4.2,8.7-7.6C57.2,36.1,60.4,38.7,63.9,40.3C63.9,40.3,63.9,40.3,63.9,40.3C63.9,40.3,63.9,40.3,63.9,40.3z"/>
</g>
</svg>
