<?xml version="1.0" encoding="utf-8"?>
<!-- Generator: Adobe Illustrator 28.3.0, SVG Export Plug-In . SVG Version: 6.00 Build 0)  -->
<svg version="1.1" xmlns="http://www.w3.org/2000/svg" xmlns:xlink="http://www.w3.org/1999/xlink" x="0px" y="0px"
	 width="461.223px" height="150px" viewBox="0 0 461.223 150" enable-background="new 0 0 461.223 150" xml:space="preserve">
<g id="Calque_1">
	<rect x="-189.664" y="-1075.533" fill="#FFFFFF" width="1366" height="2065.439"/>
	<g>
		<g>
			<g>
				<path d="M231.304,24.849c-0.798-0.435-1.423-1.034-1.876-1.799c-0.453-0.766-0.679-1.629-0.679-2.591
					c0-0.961,0.229-1.824,0.686-2.59c0.458-0.765,1.085-1.365,1.883-1.799c0.798-0.434,1.692-0.651,2.681-0.651
					c0.803,0,1.535,0.141,2.198,0.421c0.663,0.279,1.223,0.686,1.68,1.218l-1.176,1.105c-0.71-0.765-1.582-1.147-2.618-1.147
					c-0.672,0-1.274,0.146-1.806,0.44s-0.948,0.703-1.246,1.226c-0.299,0.522-0.448,1.115-0.448,1.777
					c0,0.663,0.149,1.256,0.448,1.778c0.298,0.522,0.714,0.931,1.246,1.225c0.532,0.295,1.134,0.441,1.806,0.441
					c1.036,0,1.908-0.387,2.618-1.162l1.176,1.12c-0.458,0.532-1.02,0.938-1.688,1.218c-0.667,0.28-1.402,0.42-2.205,0.42
					C232.995,25.5,232.102,25.283,231.304,24.849z"/>
				<path d="M241.293,24.849c-0.803-0.435-1.433-1.036-1.89-1.807c-0.457-0.77-0.686-1.631-0.686-2.583
					c0-0.951,0.229-1.812,0.686-2.583c0.458-0.77,1.087-1.372,1.89-1.806s1.704-0.651,2.702-0.651s1.899,0.218,2.702,0.651
					s1.433,1.034,1.891,1.799c0.457,0.766,0.686,1.629,0.686,2.59c0,0.962-0.229,1.825-0.686,2.591
					c-0.458,0.765-1.088,1.364-1.891,1.799c-0.803,0.434-1.703,0.65-2.702,0.65S242.095,25.283,241.293,24.849z M245.759,23.463
					c0.522-0.294,0.933-0.704,1.231-1.231c0.299-0.527,0.448-1.118,0.448-1.771c0-0.652-0.149-1.243-0.448-1.771
					c-0.298-0.527-0.709-0.938-1.231-1.232c-0.523-0.294-1.111-0.44-1.764-0.44c-0.654,0-1.242,0.146-1.764,0.44
					s-0.934,0.705-1.232,1.232c-0.299,0.527-0.448,1.118-0.448,1.771c0,0.653,0.149,1.244,0.448,1.771
					c0.298,0.527,0.709,0.938,1.232,1.231c0.522,0.295,1.11,0.441,1.764,0.441C244.648,23.904,245.236,23.758,245.759,23.463z"/>
				<path d="M251.205,15.56h1.82v9.8h-1.82V15.56z"/>
				<path d="M257.49,17.086v2.982h4.732v1.54h-4.732v3.752h-1.82v-9.8h7.154v1.525H257.49z"/>
				<path d="M266.408,17.086v2.982h4.732v1.54h-4.732v3.752h-1.82v-9.8h7.154v1.525H266.408z"/>
				<path d="M274.556,24.359c-0.756-0.761-1.134-1.851-1.134-3.269v-5.53h1.82v5.46c0,1.923,0.831,2.884,2.492,2.884
					c1.652,0,2.478-0.961,2.478-2.884v-5.46h1.792v5.53c0,1.418-0.375,2.508-1.127,3.269c-0.751,0.761-1.804,1.141-3.157,1.141
					C276.367,25.5,275.313,25.12,274.556,24.359z"/>
				<path d="M290.964,25.36l-2.002-2.87c-0.084,0.01-0.21,0.014-0.378,0.014h-2.212v2.856h-1.82v-9.8h4.032
					c0.85,0,1.589,0.14,2.219,0.42c0.63,0.28,1.113,0.682,1.449,1.204s0.504,1.144,0.504,1.861c0,0.738-0.18,1.372-0.539,1.904
					s-0.875,0.929-1.547,1.19l2.254,3.22H290.964z M290.306,17.604c-0.411-0.336-1.013-0.504-1.806-0.504h-2.128v3.906h2.128
					c0.793,0,1.396-0.171,1.806-0.512s0.616-0.823,0.616-1.449C290.922,18.421,290.717,17.94,290.306,17.604z"/>
				<path d="M302.136,23.834v1.526h-7.35v-9.8h7.154v1.525h-5.334v2.549h4.732v1.498h-4.732v2.701H302.136z"/>
				<path d="M308.877,25.178c-0.705-0.215-1.263-0.5-1.673-0.854l0.63-1.414c0.401,0.317,0.894,0.576,1.477,0.777
					c0.583,0.2,1.169,0.301,1.757,0.301c0.729,0,1.271-0.116,1.631-0.35c0.359-0.233,0.539-0.542,0.539-0.925
					c0-0.279-0.1-0.511-0.301-0.692c-0.201-0.183-0.455-0.324-0.763-0.427c-0.308-0.103-0.729-0.22-1.26-0.351
					c-0.747-0.177-1.351-0.354-1.813-0.532c-0.462-0.177-0.859-0.454-1.19-0.833c-0.332-0.378-0.497-0.889-0.497-1.532
					c0-0.542,0.147-1.034,0.441-1.478s0.737-0.795,1.33-1.057s1.318-0.393,2.177-0.393c0.598,0,1.186,0.075,1.765,0.225
					c0.578,0.149,1.078,0.364,1.498,0.644l-0.574,1.414c-0.43-0.252-0.878-0.443-1.344-0.574c-0.467-0.13-0.919-0.195-1.358-0.195
					c-0.719,0-1.253,0.121-1.603,0.363c-0.35,0.243-0.525,0.565-0.525,0.967c0,0.279,0.1,0.509,0.301,0.686
					c0.201,0.178,0.455,0.317,0.763,0.42s0.728,0.22,1.26,0.351c0.728,0.168,1.325,0.343,1.792,0.524
					c0.466,0.183,0.865,0.46,1.197,0.833c0.331,0.374,0.497,0.878,0.497,1.512c0,0.542-0.146,1.032-0.44,1.471
					s-0.74,0.788-1.337,1.05c-0.598,0.261-1.326,0.392-2.185,0.392C310.312,25.5,309.581,25.392,308.877,25.178z"/>
				<path d="M323.191,23.093h-4.9l-0.966,2.268h-1.876l4.41-9.8h1.792l4.424,9.8h-1.903L323.191,23.093z M322.59,21.664
					l-1.849-4.284l-1.834,4.284H322.59z"/>
				<path d="M327.321,15.56h1.82v9.8h-1.82V15.56z"/>
				<path d="M340.495,15.56v9.8h-1.498l-5.404-6.636v6.636h-1.806v-9.8h1.498l5.404,6.636V15.56H340.495z"/>
				<path d="M345.115,17.1h-3.248v-1.54h8.316v1.54h-3.248v8.26h-1.82V17.1z"/>
				<path d="M364.421,25.36l-0.014-6.496l-3.22,5.376h-0.812l-3.22-5.292v6.412h-1.736v-9.8h1.498l3.892,6.496l3.822-6.496h1.498
					l0.014,9.8H364.421z"/>
				<path d="M375.145,23.093h-4.9l-0.966,2.268h-1.876l4.41-9.8h1.792l4.424,9.8h-1.903L375.145,23.093z M374.543,21.664
					l-1.849-4.284l-1.834,4.284H374.543z"/>
				<path d="M385.687,25.36l-2.002-2.87c-0.084,0.01-0.21,0.014-0.378,0.014h-2.212v2.856h-1.82v-9.8h4.032
					c0.849,0,1.589,0.14,2.219,0.42s1.113,0.682,1.449,1.204s0.504,1.144,0.504,1.861c0,0.738-0.18,1.372-0.539,1.904
					s-0.875,0.929-1.547,1.19l2.254,3.22H385.687z M385.028,17.604c-0.411-0.336-1.013-0.504-1.806-0.504h-2.128v3.906h2.128
					c0.793,0,1.395-0.171,1.806-0.512c0.411-0.341,0.616-0.823,0.616-1.449C385.645,18.421,385.44,17.94,385.028,17.604z"/>
				<path d="M391.357,17.1h-3.248v-1.54h8.316v1.54h-3.248v8.26h-1.82V17.1z"/>
				<path d="M397.796,15.56h1.82v9.8h-1.82V15.56z"/>
				<path d="M410.97,15.56v9.8h-1.498l-5.404-6.636v6.636h-1.806v-9.8h1.498l5.404,6.636V15.56H410.97z"/>
				<path d="M416.92,20.74h3.85v1.456h-3.85V20.74z"/>
				<path d="M433.96,16.96l-3.684,8.4h-1.188l-3.696-8.4h1.296l3.024,6.9l3.048-6.9H433.96z"/>
				<path d="M435.399,25.012c-0.504-0.28-0.898-0.666-1.182-1.158c-0.284-0.492-0.426-1.05-0.426-1.674s0.142-1.183,0.426-1.674
					c0.284-0.492,0.678-0.877,1.182-1.152c0.504-0.276,1.072-0.414,1.704-0.414s1.198,0.138,1.698,0.414
					c0.5,0.275,0.892,0.66,1.176,1.152c0.284,0.491,0.426,1.05,0.426,1.674s-0.142,1.182-0.426,1.674s-0.676,0.878-1.176,1.158
					c-0.5,0.279-1.066,0.42-1.698,0.42S435.903,25.292,435.399,25.012z M438.202,24.142c0.324-0.188,0.578-0.452,0.762-0.792
					c0.184-0.34,0.275-0.73,0.275-1.17c0-0.44-0.092-0.83-0.275-1.17c-0.185-0.34-0.438-0.603-0.762-0.786
					c-0.324-0.185-0.69-0.276-1.098-0.276s-0.774,0.092-1.098,0.276c-0.324,0.184-0.58,0.446-0.769,0.786
					c-0.188,0.34-0.282,0.729-0.282,1.17c0,0.439,0.094,0.83,0.282,1.17c0.188,0.34,0.444,0.604,0.769,0.792
					c0.324,0.188,0.689,0.282,1.098,0.282S437.878,24.33,438.202,24.142z"/>
				<path d="M445.575,24.988c-0.168,0.145-0.376,0.254-0.624,0.33s-0.504,0.114-0.768,0.114c-0.64,0-1.136-0.172-1.488-0.517
					c-0.352-0.344-0.528-0.836-0.528-1.476v-3.492h-1.08V19h1.08v-1.392h1.152V19h1.824v0.948h-1.824v3.444
					c0,0.344,0.086,0.607,0.258,0.792c0.172,0.184,0.418,0.275,0.738,0.275c0.352,0,0.652-0.1,0.9-0.3L445.575,24.988z"/>
				<path d="M448.96,19.228c0.392-0.192,0.868-0.288,1.428-0.288v1.116c-0.064-0.008-0.152-0.013-0.264-0.013
					c-0.624,0-1.114,0.187-1.47,0.559s-0.534,0.902-0.534,1.59v3.168h-1.151V19h1.104v1.068
					C448.272,19.7,448.567,19.42,448.96,19.228z"/>
				<path d="M457.467,22.564h-5.16c0.072,0.56,0.318,1.01,0.738,1.35c0.42,0.341,0.942,0.511,1.566,0.511
					c0.76,0,1.372-0.257,1.836-0.769l0.636,0.744c-0.288,0.336-0.646,0.592-1.074,0.768c-0.428,0.177-0.906,0.265-1.434,0.265
					c-0.672,0-1.268-0.139-1.788-0.414c-0.52-0.276-0.922-0.662-1.206-1.158c-0.284-0.496-0.426-1.056-0.426-1.68
					c0-0.616,0.138-1.172,0.414-1.668c0.276-0.496,0.656-0.883,1.14-1.158c0.484-0.276,1.03-0.414,1.638-0.414
					c0.607,0,1.149,0.138,1.626,0.414c0.476,0.275,0.848,0.662,1.116,1.158s0.402,1.063,0.402,1.704
					C457.491,22.304,457.483,22.42,457.467,22.564z M452.961,20.416c-0.372,0.336-0.59,0.776-0.654,1.32h4.08
					c-0.064-0.536-0.282-0.974-0.654-1.314c-0.372-0.34-0.834-0.51-1.386-0.51C453.795,19.912,453.333,20.08,452.961,20.416z"/>
				<path d="M234.949,40.564h-5.16c0.072,0.56,0.318,1.01,0.738,1.35c0.42,0.341,0.942,0.511,1.566,0.511
					c0.76,0,1.372-0.257,1.836-0.769l0.636,0.744c-0.288,0.336-0.646,0.592-1.074,0.768c-0.428,0.177-0.906,0.265-1.434,0.265
					c-0.672,0-1.268-0.139-1.788-0.414c-0.52-0.276-0.922-0.662-1.206-1.158c-0.284-0.496-0.426-1.056-0.426-1.68
					c0-0.616,0.138-1.172,0.414-1.668c0.276-0.496,0.656-0.883,1.14-1.158c0.484-0.276,1.03-0.414,1.638-0.414
					c0.607,0,1.149,0.138,1.626,0.414c0.476,0.275,0.848,0.662,1.116,1.158s0.402,1.063,0.402,1.704
					C234.973,40.304,234.965,40.42,234.949,40.564z M230.443,38.416c-0.372,0.336-0.59,0.776-0.654,1.32h4.08
					c-0.064-0.536-0.282-0.974-0.654-1.314c-0.372-0.34-0.834-0.51-1.386-0.51C231.277,37.912,230.815,38.08,230.443,38.416z"/>
				<path d="M236.893,43.222c-0.479-0.141-0.856-0.318-1.128-0.534l0.48-0.912c0.279,0.2,0.62,0.36,1.02,0.48
					c0.4,0.119,0.804,0.18,1.212,0.18c1.008,0,1.512-0.288,1.512-0.864c0-0.192-0.068-0.344-0.204-0.456
					c-0.137-0.111-0.307-0.193-0.51-0.246c-0.204-0.052-0.494-0.109-0.87-0.174c-0.512-0.08-0.93-0.172-1.254-0.276
					c-0.324-0.104-0.602-0.279-0.834-0.527s-0.348-0.596-0.348-1.044c0-0.576,0.24-1.038,0.72-1.387
					c0.48-0.348,1.124-0.521,1.933-0.521c0.424,0,0.848,0.052,1.271,0.156c0.424,0.104,0.772,0.244,1.044,0.42l-0.492,0.912
					c-0.52-0.336-1.132-0.504-1.836-0.504c-0.488,0-0.86,0.08-1.116,0.239c-0.257,0.16-0.384,0.372-0.384,0.637
					c0,0.208,0.072,0.371,0.216,0.491s0.322,0.208,0.534,0.265c0.212,0.056,0.51,0.12,0.894,0.191
					c0.512,0.089,0.926,0.183,1.242,0.282c0.315,0.101,0.586,0.271,0.81,0.51c0.224,0.24,0.336,0.576,0.336,1.009
					c0,0.575-0.246,1.033-0.738,1.373c-0.492,0.341-1.162,0.511-2.01,0.511C237.873,43.432,237.373,43.362,236.893,43.222z"/>
				<path d="M247.609,37.348c0.488,0.271,0.87,0.651,1.146,1.14c0.276,0.488,0.414,1.052,0.414,1.692
					c0,0.64-0.138,1.206-0.414,1.697c-0.276,0.492-0.658,0.875-1.146,1.146c-0.488,0.272-1.041,0.408-1.656,0.408
					c-0.456,0-0.875-0.088-1.254-0.265c-0.38-0.176-0.702-0.432-0.966-0.768v3.288h-1.151V37h1.104v1.009
					c0.256-0.353,0.58-0.618,0.972-0.799c0.392-0.18,0.824-0.27,1.296-0.27C246.568,36.94,247.121,37.076,247.609,37.348z
					 M246.955,42.142c0.324-0.188,0.58-0.452,0.768-0.792s0.282-0.73,0.282-1.17c0-0.44-0.094-0.83-0.282-1.17
					s-0.444-0.603-0.768-0.786c-0.324-0.185-0.69-0.276-1.099-0.276c-0.4,0-0.762,0.094-1.086,0.282
					c-0.324,0.188-0.58,0.45-0.768,0.786c-0.188,0.336-0.282,0.724-0.282,1.164c0,0.439,0.092,0.83,0.276,1.17
					c0.184,0.34,0.439,0.604,0.768,0.792c0.328,0.188,0.692,0.282,1.092,0.282C246.265,42.425,246.631,42.33,246.955,42.142z"/>
				<path d="M255.043,37.588c0.468,0.433,0.702,1.076,0.702,1.933v3.84h-1.092v-0.84c-0.192,0.296-0.466,0.521-0.822,0.678
					c-0.356,0.156-0.778,0.234-1.267,0.234c-0.712,0-1.282-0.172-1.71-0.517c-0.428-0.344-0.642-0.796-0.642-1.355
					c0-0.561,0.204-1.01,0.612-1.351c0.408-0.34,1.056-0.51,1.944-0.51h1.824v-0.228c0-0.496-0.144-0.876-0.432-1.141
					c-0.288-0.264-0.712-0.396-1.272-0.396c-0.376,0-0.744,0.062-1.104,0.186c-0.36,0.124-0.665,0.29-0.912,0.498l-0.48-0.863
					c0.328-0.265,0.72-0.467,1.176-0.606s0.94-0.21,1.452-0.21C253.9,36.94,254.575,37.156,255.043,37.588z M253.897,42.25
					c0.32-0.195,0.552-0.474,0.696-0.834v-0.888h-1.776c-0.976,0-1.464,0.328-1.464,0.984c0,0.319,0.124,0.571,0.372,0.756
					c0.248,0.184,0.592,0.275,1.032,0.275C253.197,42.544,253.577,42.446,253.897,42.25z"/>
				<path d="M258.954,43.012c-0.508-0.28-0.905-0.666-1.193-1.158s-0.433-1.05-0.433-1.674s0.145-1.183,0.433-1.674
					c0.288-0.492,0.686-0.877,1.193-1.152c0.508-0.276,1.086-0.414,1.734-0.414c0.576,0,1.09,0.116,1.542,0.348
					c0.452,0.232,0.802,0.568,1.05,1.008l-0.876,0.564c-0.2-0.304-0.448-0.532-0.744-0.684c-0.296-0.152-0.624-0.229-0.983-0.229
					c-0.416,0-0.791,0.092-1.122,0.276c-0.332,0.184-0.592,0.446-0.78,0.786s-0.282,0.729-0.282,1.17
					c0,0.448,0.094,0.842,0.282,1.182s0.448,0.603,0.78,0.786c0.332,0.184,0.706,0.276,1.122,0.276c0.359,0,0.688-0.076,0.983-0.229
					c0.296-0.151,0.544-0.38,0.744-0.684l0.876,0.552c-0.248,0.44-0.598,0.778-1.05,1.014c-0.452,0.236-0.966,0.354-1.542,0.354
					C260.041,43.432,259.462,43.292,258.954,43.012z"/>
				<path d="M270.397,40.564h-5.16c0.072,0.56,0.318,1.01,0.738,1.35c0.42,0.341,0.942,0.511,1.566,0.511
					c0.76,0,1.372-0.257,1.836-0.769l0.636,0.744c-0.288,0.336-0.646,0.592-1.074,0.768c-0.428,0.177-0.906,0.265-1.434,0.265
					c-0.672,0-1.269-0.139-1.788-0.414c-0.521-0.276-0.922-0.662-1.206-1.158c-0.284-0.496-0.426-1.056-0.426-1.68
					c0-0.616,0.138-1.172,0.414-1.668s0.656-0.883,1.14-1.158c0.484-0.276,1.03-0.414,1.638-0.414c0.608,0,1.15,0.138,1.626,0.414
					c0.476,0.275,0.848,0.662,1.116,1.158s0.402,1.063,0.402,1.704C270.421,40.304,270.413,40.42,270.397,40.564z M265.891,38.416
					c-0.372,0.336-0.59,0.776-0.654,1.32h4.08c-0.064-0.536-0.282-0.974-0.654-1.314c-0.372-0.34-0.834-0.51-1.386-0.51
					C266.725,37.912,266.263,38.08,265.891,38.416z"/>
				<path d="M280.273,37.348c0.488,0.271,0.87,0.651,1.146,1.14c0.275,0.488,0.414,1.052,0.414,1.692
					c0,0.64-0.138,1.206-0.414,1.697c-0.276,0.492-0.658,0.875-1.146,1.146c-0.488,0.272-1.04,0.408-1.656,0.408
					c-0.472,0-0.904-0.092-1.296-0.276c-0.392-0.184-0.716-0.452-0.972-0.804v1.008h-1.104v-8.904h1.152v3.504
					c0.256-0.336,0.576-0.59,0.96-0.762s0.804-0.258,1.26-0.258C279.232,36.94,279.784,37.076,280.273,37.348z M279.619,42.142
					c0.324-0.188,0.58-0.452,0.768-0.792c0.188-0.34,0.282-0.73,0.282-1.17c0-0.44-0.095-0.83-0.282-1.17
					c-0.188-0.34-0.444-0.603-0.768-0.786c-0.324-0.185-0.69-0.276-1.098-0.276c-0.4,0-0.764,0.092-1.092,0.276
					c-0.328,0.184-0.584,0.446-0.768,0.786s-0.276,0.729-0.276,1.17c0,0.439,0.092,0.83,0.276,1.17s0.44,0.604,0.768,0.792
					c0.328,0.188,0.691,0.282,1.092,0.282C278.929,42.425,279.295,42.33,279.619,42.142z"/>
				<path d="M289.152,40.564h-5.16c0.072,0.56,0.318,1.01,0.738,1.35c0.42,0.341,0.942,0.511,1.566,0.511
					c0.76,0,1.372-0.257,1.836-0.769l0.636,0.744c-0.288,0.336-0.646,0.592-1.074,0.768c-0.428,0.177-0.906,0.265-1.434,0.265
					c-0.672,0-1.269-0.139-1.788-0.414c-0.521-0.276-0.922-0.662-1.206-1.158c-0.284-0.496-0.426-1.056-0.426-1.68
					c0-0.616,0.138-1.172,0.414-1.668s0.656-0.883,1.14-1.158c0.484-0.276,1.03-0.414,1.638-0.414c0.608,0,1.15,0.138,1.626,0.414
					c0.476,0.275,0.848,0.662,1.116,1.158s0.402,1.063,0.402,1.704C289.177,40.304,289.169,40.42,289.152,40.564z M284.647,38.416
					c-0.372,0.336-0.59,0.776-0.654,1.32h4.08c-0.064-0.536-0.282-0.974-0.654-1.314c-0.372-0.34-0.834-0.51-1.386-0.51
					C285.481,37.912,285.019,38.08,284.647,38.416z"/>
				<path d="M294.931,37.588c0.468,0.433,0.702,1.076,0.702,1.933v3.84h-1.092v-0.84c-0.192,0.296-0.466,0.521-0.822,0.678
					c-0.356,0.156-0.778,0.234-1.267,0.234c-0.712,0-1.282-0.172-1.71-0.517c-0.428-0.344-0.642-0.796-0.642-1.355
					c0-0.561,0.204-1.01,0.612-1.351c0.408-0.34,1.056-0.51,1.944-0.51h1.824v-0.228c0-0.496-0.144-0.876-0.432-1.141
					c-0.288-0.264-0.712-0.396-1.272-0.396c-0.376,0-0.744,0.062-1.104,0.186c-0.36,0.124-0.665,0.29-0.912,0.498l-0.48-0.863
					c0.328-0.265,0.72-0.467,1.176-0.606s0.94-0.21,1.452-0.21C293.788,36.94,294.462,37.156,294.931,37.588z M293.784,42.25
					c0.32-0.195,0.552-0.474,0.696-0.834v-0.888h-1.776c-0.976,0-1.464,0.328-1.464,0.984c0,0.319,0.124,0.571,0.372,0.756
					c0.248,0.184,0.592,0.275,1.032,0.275C293.085,42.544,293.464,42.446,293.784,42.25z"/>
				<path d="M303.696,37v6.36h-1.092V42.4c-0.232,0.328-0.538,0.582-0.918,0.762c-0.38,0.181-0.794,0.271-1.242,0.271
					c-0.848,0-1.516-0.234-2.004-0.702c-0.488-0.468-0.732-1.158-0.732-2.07V37h1.152v3.528c0,0.616,0.148,1.082,0.444,1.398
					c0.296,0.315,0.72,0.474,1.272,0.474c0.608,0,1.088-0.184,1.44-0.552c0.352-0.368,0.527-0.889,0.527-1.561V37H303.696z"/>
				<path d="M309.468,42.988c-0.168,0.145-0.376,0.254-0.624,0.33s-0.504,0.114-0.768,0.114c-0.64,0-1.136-0.172-1.488-0.517
					c-0.352-0.344-0.528-0.836-0.528-1.476v-3.492h-1.08V37h1.08v-1.392h1.152V37h1.824v0.948h-1.824v3.444
					c0,0.344,0.085,0.607,0.258,0.792c0.172,0.184,0.418,0.275,0.738,0.275c0.353,0,0.652-0.1,0.9-0.3L309.468,42.988z"/>
				<path d="M316.368,40.564h-5.16c0.072,0.56,0.318,1.01,0.738,1.35c0.42,0.341,0.942,0.511,1.566,0.511
					c0.76,0,1.372-0.257,1.836-0.769l0.636,0.744c-0.288,0.336-0.646,0.592-1.074,0.768c-0.428,0.177-0.906,0.265-1.434,0.265
					c-0.672,0-1.269-0.139-1.788-0.414c-0.521-0.276-0.922-0.662-1.206-1.158c-0.284-0.496-0.426-1.056-0.426-1.68
					c0-0.616,0.138-1.172,0.414-1.668s0.656-0.883,1.14-1.158c0.484-0.276,1.03-0.414,1.638-0.414c0.608,0,1.15,0.138,1.626,0.414
					c0.476,0.275,0.848,0.662,1.116,1.158s0.402,1.063,0.402,1.704C316.393,40.304,316.384,40.42,316.368,40.564z M311.862,38.416
					c-0.372,0.336-0.59,0.776-0.654,1.32h4.08c-0.064-0.536-0.282-0.974-0.654-1.314c-0.372-0.34-0.834-0.51-1.386-0.51
					C312.696,37.912,312.234,38.08,311.862,38.416z M313.968,34.516h1.464l-2.016,1.56h-1.08L313.968,34.516z"/>
				<path d="M234.757,79.36l-1.716-2.46c-0.072,0.008-0.18,0.012-0.324,0.012h-1.896v2.448h-1.56v-8.4h3.456
					c0.728,0,1.362,0.12,1.902,0.36c0.54,0.24,0.954,0.584,1.242,1.032s0.432,0.979,0.432,1.596c0,0.632-0.154,1.176-0.462,1.632
					c-0.309,0.456-0.75,0.797-1.326,1.021l1.932,2.76H234.757z M234.193,72.712c-0.352-0.287-0.868-0.432-1.548-0.432h-1.824v3.348
					h1.824c0.68,0,1.196-0.146,1.548-0.438s0.528-0.706,0.528-1.242S234.545,73,234.193,72.712z"/>
				<path d="M244.165,70.456v8.904h-1.44v-0.828c-0.248,0.305-0.554,0.532-0.918,0.685c-0.364,0.151-0.766,0.228-1.206,0.228
					c-0.616,0-1.17-0.136-1.662-0.408c-0.492-0.271-0.878-0.658-1.158-1.158c-0.28-0.499-0.42-1.073-0.42-1.722
					c0-0.647,0.14-1.22,0.42-1.716s0.666-0.88,1.158-1.152c0.492-0.271,1.046-0.408,1.662-0.408c0.424,0,0.812,0.072,1.164,0.217
					c0.352,0.144,0.652,0.359,0.9,0.647v-3.288H244.165z M241.753,77.914c0.288-0.164,0.516-0.397,0.684-0.702
					c0.168-0.304,0.252-0.655,0.252-1.056c0-0.399-0.084-0.752-0.252-1.056s-0.396-0.538-0.684-0.702s-0.612-0.246-0.972-0.246
					s-0.684,0.082-0.972,0.246s-0.516,0.398-0.684,0.702s-0.252,0.656-0.252,1.056c0,0.4,0.084,0.752,0.252,1.056
					c0.168,0.305,0.396,0.538,0.684,0.702s0.612,0.246,0.972,0.246S241.465,78.078,241.753,77.914z"/>
				<path d="M252.133,72.952l-2.748,6.408h-1.548l-2.748-6.408h1.56l1.992,4.752l2.052-4.752H252.133z"/>
				<path d="M256.836,79.24c-0.496-0.136-0.892-0.308-1.188-0.516l0.576-1.141c0.288,0.192,0.634,0.347,1.038,0.462
					c0.404,0.116,0.802,0.175,1.194,0.175c0.896,0,1.344-0.236,1.344-0.708c0-0.225-0.114-0.38-0.342-0.469
					c-0.228-0.088-0.594-0.172-1.098-0.252c-0.528-0.079-0.958-0.172-1.29-0.275c-0.332-0.104-0.62-0.286-0.864-0.546
					s-0.366-0.622-0.366-1.086c0-0.608,0.253-1.095,0.762-1.458c0.508-0.364,1.193-0.547,2.058-0.547c0.44,0,0.88,0.051,1.32,0.15
					c0.439,0.101,0.8,0.234,1.08,0.402l-0.576,1.14c-0.544-0.319-1.156-0.479-1.836-0.479c-0.44,0-0.774,0.065-1.002,0.197
					c-0.229,0.132-0.342,0.307-0.342,0.522c0,0.24,0.122,0.41,0.366,0.51c0.244,0.101,0.622,0.194,1.134,0.282
					c0.512,0.08,0.932,0.172,1.26,0.275c0.328,0.104,0.609,0.28,0.846,0.528c0.236,0.248,0.354,0.601,0.354,1.056
					c0,0.601-0.26,1.08-0.78,1.44c-0.521,0.36-1.229,0.54-2.124,0.54C257.84,79.444,257.332,79.376,256.836,79.24z"/>
				<path d="M268.764,72.952v6.408h-1.428v-0.816c-0.24,0.288-0.54,0.511-0.899,0.666c-0.36,0.156-0.749,0.234-1.164,0.234
					c-0.856,0-1.53-0.238-2.022-0.714s-0.738-1.182-0.738-2.118v-3.66h1.5v3.456c0,0.576,0.13,1.006,0.39,1.29
					c0.26,0.284,0.63,0.426,1.11,0.426c0.536,0,0.962-0.166,1.278-0.498c0.316-0.331,0.474-0.81,0.474-1.434v-3.24H268.764z"/>
				<path d="M274.44,72.88v1.429c-0.128-0.024-0.244-0.036-0.348-0.036c-0.584,0-1.04,0.17-1.368,0.51
					c-0.328,0.34-0.492,0.83-0.492,1.47v3.108h-1.5v-6.408h1.428v0.937C272.592,73.217,273.353,72.88,274.44,72.88z"/>
				<path d="M284.586,71.32c0.54,0.24,0.954,0.584,1.242,1.032s0.432,0.979,0.432,1.596c0,0.608-0.144,1.139-0.432,1.59
					c-0.288,0.452-0.702,0.798-1.242,1.038s-1.174,0.36-1.902,0.36h-1.896v2.424h-1.56v-8.4h3.456
					C283.412,70.96,284.046,71.08,284.586,71.32z M284.16,75.184c0.352-0.288,0.528-0.7,0.528-1.236s-0.176-0.948-0.528-1.236
					c-0.353-0.287-0.868-0.432-1.548-0.432h-1.824v3.336h1.824C283.292,75.616,283.808,75.472,284.16,75.184z"/>
				<path d="M287.796,70.456h1.5v8.904h-1.5V70.456z"/>
				<path d="M295.878,73.558c0.5,0.452,0.75,1.134,0.75,2.046v3.756h-1.416v-0.78c-0.185,0.28-0.446,0.494-0.786,0.643
					c-0.34,0.147-0.75,0.222-1.23,0.222s-0.9-0.082-1.26-0.246c-0.36-0.164-0.638-0.392-0.834-0.684
					c-0.196-0.292-0.294-0.622-0.294-0.99c0-0.576,0.214-1.038,0.642-1.386c0.428-0.349,1.102-0.522,2.022-0.522h1.656V75.52
					c0-0.448-0.134-0.792-0.402-1.032c-0.268-0.24-0.666-0.36-1.194-0.36c-0.36,0-0.714,0.057-1.062,0.168
					c-0.348,0.112-0.642,0.269-0.882,0.469L291,73.672c0.336-0.256,0.74-0.451,1.212-0.588c0.472-0.136,0.972-0.204,1.5-0.204
					C294.656,72.88,295.378,73.106,295.878,73.558z M294.51,78.094c0.292-0.172,0.498-0.418,0.618-0.738v-0.744h-1.548
					c-0.864,0-1.296,0.284-1.296,0.852c0,0.272,0.108,0.488,0.324,0.648c0.216,0.16,0.517,0.24,0.9,0.24
					C293.884,78.352,294.218,78.266,294.51,78.094z"/>
				<path d="M304.128,73.588c0.488,0.473,0.732,1.173,0.732,2.101v3.672h-1.5v-3.48c0-0.56-0.132-0.981-0.396-1.266
					c-0.264-0.284-0.64-0.426-1.128-0.426c-0.552,0-0.988,0.166-1.308,0.498c-0.32,0.332-0.48,0.81-0.48,1.434v3.24h-1.5v-6.408
					h1.428v0.828c0.248-0.296,0.56-0.52,0.936-0.672s0.8-0.229,1.272-0.229C302.992,72.88,303.64,73.116,304.128,73.588z"/>
				<path d="M306.84,71.638c-0.185-0.172-0.276-0.386-0.276-0.643c0-0.256,0.092-0.47,0.276-0.642
					c0.184-0.172,0.412-0.258,0.684-0.258c0.272,0,0.5,0.082,0.685,0.246c0.184,0.164,0.275,0.37,0.275,0.617
					c0,0.265-0.09,0.486-0.27,0.666c-0.18,0.181-0.41,0.271-0.69,0.271C307.252,71.896,307.023,71.81,306.84,71.638z
					 M306.768,72.952h1.5v6.408h-1.5V72.952z"/>
				<path d="M314.088,79.012c-0.176,0.144-0.39,0.252-0.642,0.323c-0.252,0.072-0.518,0.108-0.798,0.108
					c-0.704,0-1.248-0.184-1.632-0.552s-0.576-0.904-0.576-1.608V74.2h-1.056V73h1.056v-1.464h1.5V73h1.716v1.2h-1.716v3.048
					c0,0.312,0.076,0.551,0.229,0.714c0.151,0.164,0.372,0.246,0.66,0.246c0.336,0,0.616-0.088,0.84-0.264L314.088,79.012z"/>
				<path d="M321.204,72.952l-3,6.924c-0.28,0.696-0.62,1.187-1.02,1.471c-0.4,0.283-0.884,0.426-1.452,0.426
					c-0.32,0-0.636-0.052-0.948-0.156c-0.312-0.104-0.568-0.248-0.768-0.432l0.6-1.104c0.144,0.136,0.314,0.244,0.51,0.324
					c0.196,0.08,0.394,0.12,0.594,0.12c0.264,0,0.482-0.068,0.654-0.204c0.172-0.136,0.33-0.364,0.474-0.684l0.108-0.252
					l-2.796-6.433h1.56l2.016,4.74l2.028-4.74H321.204z"/>
				<path d="M233.815,92.572c0.437,0.208,0.778,0.506,1.026,0.895c0.248,0.388,0.372,0.834,0.372,1.338
					c0,0.527-0.13,0.992-0.39,1.392c-0.26,0.4-0.616,0.71-1.068,0.93c-0.452,0.221-0.958,0.33-1.518,0.33
					c-1.128,0-1.998-0.363-2.61-1.092c-0.612-0.728-0.918-1.76-0.918-3.096c0-0.937,0.166-1.734,0.498-2.395
					c0.332-0.66,0.796-1.159,1.392-1.5c0.596-0.34,1.29-0.51,2.082-0.51c0.408,0,0.792,0.042,1.152,0.126
					c0.36,0.084,0.672,0.206,0.936,0.366l-0.456,0.936c-0.4-0.264-0.936-0.396-1.607-0.396c-0.872,0-1.557,0.27-2.052,0.81
					c-0.496,0.54-0.744,1.326-0.744,2.358c0,0.128,0.004,0.228,0.012,0.3c0.24-0.36,0.57-0.634,0.99-0.822
					c0.42-0.188,0.894-0.281,1.422-0.281C232.885,92.26,233.379,92.364,233.815,92.572z M233.533,96.04
					c0.344-0.296,0.516-0.691,0.516-1.188s-0.174-0.89-0.522-1.183c-0.348-0.292-0.814-0.438-1.398-0.438
					c-0.376,0-0.71,0.072-1.002,0.216c-0.292,0.145-0.521,0.34-0.684,0.588c-0.164,0.248-0.246,0.524-0.246,0.828
					c0,0.296,0.078,0.566,0.234,0.811c0.156,0.244,0.384,0.439,0.684,0.588c0.3,0.147,0.658,0.222,1.074,0.222
					C232.741,96.484,233.189,96.336,233.533,96.04z"/>
				<path d="M245.869,89.74c0.624,0.521,0.936,1.236,0.936,2.148s-0.312,1.628-0.936,2.147c-0.624,0.521-1.48,0.78-2.568,0.78
					h-2.076v2.544h-1.2v-8.4h3.276C244.389,88.96,245.245,89.22,245.869,89.74z M245.005,93.286c0.399-0.324,0.6-0.79,0.6-1.397
					c0-0.608-0.2-1.074-0.6-1.398c-0.4-0.324-0.98-0.486-1.74-0.486h-2.04v3.769h2.04C244.024,93.772,244.605,93.61,245.005,93.286z
					"/>
				<path d="M248.521,88.456h1.152v8.904h-1.152V88.456z"/>
				<path d="M251.568,97.198c-0.16-0.156-0.24-0.354-0.24-0.594c0-0.232,0.08-0.426,0.24-0.582s0.352-0.234,0.576-0.234
					c0.224,0,0.412,0.076,0.563,0.229c0.152,0.151,0.229,0.348,0.229,0.588s-0.078,0.438-0.234,0.594
					c-0.156,0.156-0.342,0.234-0.558,0.234C251.92,97.432,251.729,97.354,251.568,97.198z"/>
				<path d="M258.607,97.162c-0.588-0.195-1.05-0.45-1.386-0.762l0.444-0.937c0.32,0.288,0.73,0.522,1.23,0.702
					c0.5,0.181,1.014,0.271,1.542,0.271c0.696,0,1.216-0.118,1.56-0.354c0.344-0.235,0.516-0.55,0.516-0.941
					c0-0.288-0.094-0.522-0.282-0.702c-0.188-0.18-0.42-0.318-0.696-0.414c-0.276-0.096-0.666-0.204-1.17-0.324
					c-0.632-0.151-1.142-0.304-1.53-0.456c-0.388-0.151-0.72-0.386-0.996-0.702c-0.276-0.315-0.414-0.741-0.414-1.277
					c0-0.448,0.118-0.853,0.354-1.212c0.236-0.36,0.594-0.648,1.074-0.864c0.479-0.216,1.076-0.324,1.788-0.324
					c0.496,0,0.983,0.064,1.464,0.192c0.479,0.128,0.892,0.312,1.236,0.552l-0.396,0.96c-0.353-0.224-0.728-0.394-1.128-0.51
					c-0.4-0.116-0.792-0.174-1.176-0.174c-0.681,0-1.19,0.124-1.53,0.372s-0.51,0.567-0.51,0.96c0,0.287,0.096,0.521,0.288,0.701
					c0.192,0.181,0.43,0.32,0.714,0.42c0.284,0.101,0.67,0.206,1.158,0.318c0.632,0.152,1.14,0.305,1.524,0.456
					c0.384,0.152,0.714,0.384,0.99,0.696c0.276,0.312,0.414,0.731,0.414,1.26c0,0.44-0.12,0.842-0.36,1.206
					c-0.24,0.364-0.604,0.652-1.092,0.864c-0.488,0.212-1.088,0.317-1.8,0.317C259.804,97.456,259.194,97.358,258.607,97.162z"/>
				<path d="M269.61,91.588c0.468,0.433,0.702,1.076,0.702,1.933v3.84h-1.092v-0.84c-0.192,0.296-0.466,0.521-0.822,0.678
					c-0.356,0.156-0.778,0.234-1.267,0.234c-0.712,0-1.282-0.172-1.71-0.517c-0.428-0.344-0.642-0.796-0.642-1.355
					c0-0.561,0.204-1.01,0.612-1.351c0.408-0.34,1.056-0.51,1.944-0.51h1.824v-0.228c0-0.496-0.144-0.876-0.432-1.141
					c-0.288-0.264-0.712-0.396-1.272-0.396c-0.376,0-0.744,0.062-1.104,0.186c-0.36,0.124-0.665,0.29-0.912,0.498l-0.48-0.863
					c0.328-0.265,0.72-0.467,1.176-0.606s0.94-0.21,1.452-0.21C268.468,90.94,269.142,91.156,269.61,91.588z M268.464,96.25
					c0.32-0.195,0.552-0.474,0.696-0.834v-0.888h-1.776c-0.976,0-1.464,0.328-1.464,0.984c0,0.319,0.124,0.571,0.372,0.756
					c0.248,0.184,0.592,0.275,1.032,0.275C267.764,96.544,268.144,96.446,268.464,96.25z"/>
				<path d="M272.466,89.56c-0.148-0.145-0.222-0.32-0.222-0.528s0.074-0.386,0.222-0.534c0.148-0.147,0.334-0.222,0.558-0.222
					s0.41,0.07,0.558,0.21c0.148,0.14,0.222,0.314,0.222,0.522c0,0.216-0.074,0.397-0.222,0.546
					c-0.148,0.147-0.334,0.222-0.558,0.222S272.614,89.704,272.466,89.56z M272.448,91h1.151v6.36h-1.151V91z"/>
				<path d="M281.118,91.642c0.476,0.468,0.714,1.154,0.714,2.058v3.66h-1.152v-3.528c0-0.615-0.148-1.08-0.444-1.392
					c-0.296-0.312-0.72-0.468-1.272-0.468c-0.624,0-1.116,0.182-1.476,0.546s-0.54,0.886-0.54,1.565v3.276h-1.152V91h1.104v0.96
					c0.232-0.327,0.546-0.579,0.942-0.756c0.396-0.176,0.846-0.264,1.35-0.264C280,90.94,280.642,91.175,281.118,91.642z"/>
				<path d="M287.544,96.988c-0.168,0.145-0.376,0.254-0.624,0.33s-0.504,0.114-0.768,0.114c-0.64,0-1.136-0.172-1.488-0.517
					c-0.353-0.344-0.528-0.836-0.528-1.476v-3.492h-1.08V91h1.08v-1.392h1.152V91h1.824v0.948h-1.824v3.444
					c0,0.344,0.086,0.607,0.258,0.792c0.172,0.184,0.418,0.275,0.738,0.275c0.352,0,0.652-0.1,0.9-0.3L287.544,96.988z"/>
				<path d="M300.12,97.36l-0.013-6.12l-3.036,5.101h-0.552l-3.036-5.064v6.084h-1.152v-8.4h0.983l3.504,5.904l3.456-5.904h0.984
					l0.012,8.4H300.12z"/>
				<path d="M307.961,91.588c0.468,0.433,0.702,1.076,0.702,1.933v3.84h-1.092v-0.84c-0.192,0.296-0.466,0.521-0.822,0.678
					s-0.778,0.234-1.266,0.234c-0.712,0-1.282-0.172-1.71-0.517c-0.428-0.344-0.642-0.796-0.642-1.355
					c0-0.561,0.204-1.01,0.611-1.351c0.408-0.34,1.057-0.51,1.944-0.51h1.824v-0.228c0-0.496-0.145-0.876-0.432-1.141
					c-0.288-0.264-0.712-0.396-1.272-0.396c-0.376,0-0.744,0.062-1.104,0.186s-0.665,0.29-0.912,0.498l-0.48-0.863
					c0.328-0.265,0.72-0.467,1.176-0.606s0.94-0.21,1.452-0.21C306.819,90.94,307.493,91.156,307.961,91.588z M306.815,96.25
					c0.32-0.195,0.552-0.474,0.696-0.834v-0.888h-1.776c-0.976,0-1.464,0.328-1.464,0.984c0,0.319,0.124,0.571,0.372,0.756
					c0.248,0.184,0.592,0.275,1.032,0.275C306.115,96.544,306.495,96.446,306.815,96.25z"/>
				<path d="M312.792,91.228c0.392-0.192,0.868-0.288,1.428-0.288v1.116c-0.064-0.008-0.152-0.013-0.264-0.013
					c-0.624,0-1.114,0.187-1.47,0.559s-0.534,0.902-0.534,1.59v3.168H310.8V91h1.104v1.068
					C312.104,91.7,312.399,91.42,312.792,91.228z"/>
				<path d="M319.475,96.988c-0.168,0.145-0.376,0.254-0.624,0.33s-0.504,0.114-0.768,0.114c-0.64,0-1.136-0.172-1.488-0.517
					c-0.352-0.344-0.528-0.836-0.528-1.476v-3.492h-1.08V91h1.08v-1.392h1.152V91h1.824v0.948h-1.824v3.444
					c0,0.344,0.085,0.607,0.258,0.792c0.172,0.184,0.418,0.275,0.738,0.275c0.353,0,0.652-0.1,0.9-0.3L319.475,96.988z"/>
				<path d="M320.885,89.56c-0.148-0.145-0.222-0.32-0.222-0.528s0.074-0.386,0.222-0.534c0.148-0.147,0.333-0.222,0.558-0.222
					c0.224,0,0.41,0.07,0.558,0.21c0.148,0.14,0.222,0.314,0.222,0.522c0,0.216-0.074,0.397-0.222,0.546
					c-0.148,0.147-0.334,0.222-0.558,0.222C321.219,89.776,321.033,89.704,320.885,89.56z M320.867,91h1.152v6.36h-1.152V91z"/>
				<path d="M329.537,91.642c0.476,0.468,0.714,1.154,0.714,2.058v3.66h-1.152v-3.528c0-0.615-0.148-1.08-0.444-1.392
					c-0.296-0.312-0.72-0.468-1.272-0.468c-0.624,0-1.116,0.182-1.476,0.546c-0.36,0.364-0.54,0.886-0.54,1.565v3.276h-1.152V91
					h1.104v0.96c0.231-0.327,0.546-0.579,0.941-0.756c0.396-0.176,0.846-0.264,1.351-0.264
					C328.419,90.94,329.061,91.175,329.537,91.642z"/>
				<path d="M333.233,96.022c0.148,0.156,0.222,0.35,0.222,0.582c0,0.12-0.014,0.236-0.042,0.348
					c-0.028,0.112-0.082,0.284-0.162,0.517l-0.564,1.668h-0.756l0.444-1.788c-0.152-0.057-0.274-0.15-0.366-0.282
					s-0.138-0.286-0.138-0.462c0-0.24,0.076-0.437,0.228-0.588c0.152-0.152,0.344-0.229,0.576-0.229
					C332.898,95.788,333.085,95.866,333.233,96.022z"/>
				<path d="M345.131,95.296h-1.596v2.064h-1.164v-2.064h-4.668v-0.84l4.296-5.496h1.296l-4.116,5.305h3.228V92.44h1.128v1.824
					h1.596V95.296z"/>
				<path d="M353.159,95.296h-1.596v2.064h-1.164v-2.064h-4.668v-0.84l4.296-5.496h1.296l-4.116,5.305h3.228V92.44h1.128v1.824
					h1.596V95.296z"/>
				<path d="M360.238,93.748c0.256,0.345,0.384,0.756,0.384,1.236c0,0.504-0.136,0.942-0.408,1.314
					c-0.272,0.371-0.66,0.657-1.164,0.857s-1.096,0.3-1.776,0.3c-0.672,0-1.258-0.1-1.758-0.3s-0.886-0.486-1.158-0.857
					c-0.272-0.372-0.408-0.811-0.408-1.314c0-0.48,0.126-0.892,0.378-1.236c0.252-0.344,0.618-0.607,1.098-0.792
					c-0.384-0.184-0.676-0.428-0.876-0.731c-0.2-0.304-0.3-0.664-0.3-1.08c0-0.464,0.126-0.868,0.378-1.212s0.605-0.608,1.062-0.792
					c0.456-0.185,0.984-0.276,1.584-0.276c0.608,0,1.142,0.092,1.603,0.276c0.459,0.184,0.815,0.448,1.067,0.792
					s0.378,0.748,0.378,1.212c0,0.408-0.102,0.766-0.306,1.074c-0.204,0.308-0.498,0.554-0.882,0.737
					C359.614,93.14,359.982,93.404,360.238,93.748z M358.847,96.07c0.384-0.276,0.576-0.649,0.576-1.122
					c0-0.464-0.192-0.83-0.576-1.098c-0.384-0.269-0.908-0.402-1.572-0.402s-1.184,0.134-1.56,0.402
					c-0.376,0.268-0.564,0.634-0.564,1.098c0,0.473,0.188,0.846,0.564,1.122c0.376,0.276,0.896,0.414,1.56,0.414
					S358.463,96.346,358.847,96.07z M355.931,90.202c-0.328,0.244-0.492,0.574-0.492,0.99s0.162,0.744,0.486,0.984
					c0.324,0.239,0.773,0.359,1.35,0.359c0.584,0,1.042-0.12,1.374-0.359c0.332-0.24,0.498-0.568,0.498-0.984s-0.17-0.746-0.51-0.99
					c-0.34-0.244-0.794-0.366-1.362-0.366C356.707,89.836,356.259,89.958,355.931,90.202z"/>
				<path d="M366.832,92.572c0.437,0.208,0.778,0.506,1.026,0.895c0.248,0.388,0.372,0.834,0.372,1.338
					c0,0.527-0.13,0.992-0.39,1.392c-0.26,0.4-0.616,0.71-1.068,0.93c-0.452,0.221-0.958,0.33-1.518,0.33
					c-1.128,0-1.998-0.363-2.61-1.092c-0.612-0.728-0.918-1.76-0.918-3.096c0-0.937,0.166-1.734,0.498-2.395
					c0.332-0.66,0.796-1.159,1.392-1.5c0.596-0.34,1.29-0.51,2.082-0.51c0.408,0,0.792,0.042,1.152,0.126
					c0.36,0.084,0.672,0.206,0.936,0.366l-0.456,0.936c-0.4-0.264-0.936-0.396-1.607-0.396c-0.872,0-1.557,0.27-2.052,0.81
					c-0.496,0.54-0.744,1.326-0.744,2.358c0,0.128,0.004,0.228,0.012,0.3c0.24-0.36,0.57-0.634,0.99-0.822
					c0.42-0.188,0.894-0.281,1.422-0.281C365.902,92.26,366.397,92.364,366.832,92.572z M366.55,96.04
					c0.344-0.296,0.516-0.691,0.516-1.188s-0.174-0.89-0.522-1.183c-0.348-0.292-0.814-0.438-1.398-0.438
					c-0.376,0-0.71,0.072-1.002,0.216c-0.292,0.145-0.521,0.34-0.684,0.588c-0.164,0.248-0.246,0.524-0.246,0.828
					c0,0.296,0.078,0.566,0.234,0.811c0.156,0.244,0.384,0.439,0.684,0.588c0.3,0.147,0.658,0.222,1.074,0.222
					C365.758,96.484,366.206,96.336,366.55,96.04z"/>
				<path d="M370.793,96.946c-0.516-0.34-0.922-0.834-1.218-1.482c-0.296-0.647-0.444-1.415-0.444-2.304
					c0-0.888,0.148-1.656,0.444-2.304c0.296-0.648,0.702-1.142,1.218-1.482c0.516-0.34,1.106-0.51,1.77-0.51
					c0.656,0,1.242,0.17,1.758,0.51c0.516,0.341,0.922,0.834,1.218,1.482c0.296,0.647,0.444,1.416,0.444,2.304
					c0,0.889-0.148,1.656-0.444,2.304c-0.296,0.648-0.702,1.143-1.218,1.482c-0.516,0.34-1.102,0.51-1.758,0.51
					C371.898,97.456,371.309,97.286,370.793,96.946z M374.177,95.56c0.403-0.552,0.605-1.353,0.605-2.4s-0.202-1.848-0.605-2.399
					c-0.404-0.553-0.942-0.828-1.614-0.828c-0.68,0-1.222,0.275-1.626,0.828c-0.404,0.552-0.606,1.352-0.606,2.399
					s0.202,1.849,0.606,2.4c0.404,0.552,0.946,0.828,1.626,0.828C373.234,96.388,373.773,96.112,374.177,95.56z"/>
				<path d="M235.237,107.74c0.624,0.521,0.936,1.236,0.936,2.148s-0.312,1.628-0.936,2.147c-0.624,0.521-1.48,0.78-2.568,0.78
					h-2.076v2.544h-1.2v-8.4h3.276C233.757,106.96,234.613,107.22,235.237,107.74z M234.373,111.286c0.399-0.324,0.6-0.79,0.6-1.397
					c0-0.608-0.2-1.074-0.6-1.398c-0.4-0.324-0.98-0.486-1.74-0.486h-2.04v3.769h2.04
					C233.393,111.772,233.973,111.61,234.373,111.286z"/>
				<path d="M238.765,115.012c-0.504-0.28-0.898-0.666-1.182-1.158c-0.284-0.492-0.426-1.05-0.426-1.674s0.142-1.183,0.426-1.674
					c0.284-0.492,0.678-0.877,1.182-1.152c0.504-0.276,1.072-0.414,1.704-0.414s1.198,0.138,1.698,0.414
					c0.5,0.275,0.892,0.66,1.176,1.152c0.284,0.491,0.426,1.05,0.426,1.674s-0.142,1.182-0.426,1.674s-0.676,0.878-1.176,1.158
					c-0.5,0.279-1.066,0.42-1.698,0.42S239.269,115.292,238.765,115.012z M241.567,114.142c0.324-0.188,0.578-0.452,0.762-0.792
					c0.184-0.34,0.275-0.73,0.275-1.17c0-0.44-0.092-0.83-0.275-1.17c-0.185-0.34-0.438-0.603-0.762-0.786
					c-0.324-0.185-0.69-0.276-1.098-0.276s-0.774,0.092-1.098,0.276c-0.324,0.184-0.58,0.446-0.769,0.786
					c-0.188,0.34-0.282,0.729-0.282,1.17c0,0.439,0.094,0.83,0.282,1.17c0.188,0.34,0.444,0.604,0.769,0.792
					c0.324,0.188,0.689,0.282,1.098,0.282S241.243,114.33,241.567,114.142z"/>
				<path d="M250.687,109.642c0.476,0.468,0.714,1.154,0.714,2.058v3.66h-1.151v-3.528c0-0.615-0.148-1.08-0.444-1.392
					c-0.296-0.312-0.72-0.468-1.272-0.468c-0.624,0-1.116,0.182-1.476,0.546c-0.36,0.364-0.54,0.886-0.54,1.565v3.276h-1.152V109
					h1.104v0.96c0.232-0.327,0.546-0.579,0.942-0.756c0.396-0.176,0.846-0.264,1.35-0.264
					C249.568,108.94,250.211,109.175,250.687,109.642z"/>
				<path d="M257.112,114.988c-0.168,0.145-0.376,0.254-0.624,0.33s-0.504,0.114-0.768,0.114c-0.64,0-1.136-0.172-1.488-0.517
					c-0.352-0.344-0.528-0.836-0.528-1.476v-3.492h-1.08V109h1.08v-1.392h1.152V109h1.824v0.948h-1.824v3.444
					c0,0.344,0.086,0.607,0.258,0.792c0.172,0.184,0.418,0.275,0.738,0.275c0.352,0,0.652-0.1,0.9-0.3L257.112,114.988z"/>
				<path d="M262.519,115.162c-0.588-0.195-1.05-0.45-1.386-0.762l0.444-0.937c0.32,0.288,0.73,0.522,1.23,0.702
					c0.5,0.181,1.014,0.271,1.542,0.271c0.696,0,1.216-0.118,1.56-0.354c0.344-0.235,0.516-0.55,0.516-0.941
					c0-0.288-0.094-0.522-0.282-0.702c-0.188-0.18-0.42-0.318-0.696-0.414c-0.276-0.096-0.666-0.204-1.17-0.324
					c-0.632-0.151-1.142-0.304-1.53-0.456c-0.388-0.151-0.72-0.386-0.996-0.702c-0.276-0.315-0.414-0.741-0.414-1.277
					c0-0.448,0.118-0.853,0.354-1.212c0.236-0.36,0.594-0.648,1.074-0.864c0.479-0.216,1.076-0.324,1.788-0.324
					c0.496,0,0.983,0.064,1.464,0.192c0.479,0.128,0.892,0.312,1.236,0.552l-0.396,0.96c-0.353-0.224-0.728-0.394-1.128-0.51
					c-0.4-0.116-0.792-0.174-1.176-0.174c-0.681,0-1.19,0.124-1.53,0.372s-0.51,0.567-0.51,0.96c0,0.287,0.096,0.521,0.288,0.701
					c0.192,0.181,0.43,0.32,0.714,0.42c0.284,0.101,0.67,0.206,1.158,0.318c0.632,0.152,1.14,0.305,1.524,0.456
					c0.384,0.152,0.714,0.384,0.99,0.696c0.276,0.312,0.414,0.731,0.414,1.26c0,0.44-0.12,0.842-0.36,1.206
					c-0.24,0.364-0.604,0.652-1.092,0.864c-0.488,0.212-1.088,0.317-1.8,0.317C263.716,115.456,263.107,115.358,262.519,115.162z"/>
				<path d="M273.523,109.588c0.468,0.433,0.702,1.076,0.702,1.933v3.84h-1.092v-0.84c-0.192,0.296-0.466,0.521-0.822,0.678
					c-0.356,0.156-0.778,0.234-1.267,0.234c-0.712,0-1.282-0.172-1.71-0.517c-0.428-0.344-0.642-0.796-0.642-1.355
					c0-0.561,0.204-1.01,0.612-1.351c0.408-0.34,1.056-0.51,1.944-0.51h1.824v-0.228c0-0.496-0.144-0.876-0.432-1.141
					c-0.288-0.264-0.712-0.396-1.272-0.396c-0.376,0-0.744,0.062-1.104,0.186c-0.36,0.124-0.665,0.29-0.912,0.498l-0.48-0.863
					c0.328-0.265,0.72-0.467,1.176-0.606s0.94-0.21,1.452-0.21C272.38,108.94,273.054,109.156,273.523,109.588z M272.376,114.25
					c0.32-0.195,0.552-0.474,0.696-0.834v-0.888h-1.776c-0.976,0-1.464,0.328-1.464,0.984c0,0.319,0.124,0.571,0.372,0.756
					c0.248,0.184,0.592,0.275,1.032,0.275C271.676,114.544,272.056,114.446,272.376,114.25z"/>
				<path d="M276.378,107.56c-0.148-0.145-0.222-0.32-0.222-0.528s0.074-0.386,0.222-0.534c0.148-0.147,0.334-0.222,0.558-0.222
					s0.41,0.07,0.558,0.21c0.148,0.14,0.222,0.314,0.222,0.522c0,0.216-0.074,0.397-0.222,0.546
					c-0.148,0.147-0.334,0.222-0.558,0.222S276.526,107.704,276.378,107.56z M276.36,109h1.151v6.36h-1.151V109z"/>
				<path d="M285.03,109.642c0.476,0.468,0.714,1.154,0.714,2.058v3.66h-1.152v-3.528c0-0.615-0.148-1.08-0.444-1.392
					c-0.296-0.312-0.72-0.468-1.272-0.468c-0.624,0-1.116,0.182-1.476,0.546c-0.36,0.364-0.54,0.886-0.54,1.565v3.276h-1.152V109
					h1.104v0.96c0.231-0.327,0.546-0.579,0.941-0.756c0.396-0.176,0.846-0.264,1.351-0.264
					C283.912,108.94,284.554,109.175,285.03,109.642z"/>
				<path d="M291.456,114.988c-0.168,0.145-0.376,0.254-0.624,0.33s-0.504,0.114-0.768,0.114c-0.64,0-1.136-0.172-1.488-0.517
					c-0.353-0.344-0.528-0.836-0.528-1.476v-3.492h-1.08V109h1.08v-1.392h1.152V109h1.824v0.948H289.2v3.444
					c0,0.344,0.086,0.607,0.258,0.792c0.172,0.184,0.418,0.275,0.738,0.275c0.352,0,0.652-0.1,0.9-0.3L291.456,114.988z"/>
				<path d="M304.032,115.36l-0.013-6.12l-3.036,5.101h-0.552l-3.036-5.064v6.084h-1.152v-8.4h0.983l3.504,5.904l3.456-5.904h0.984
					l0.012,8.4H304.032z"/>
				<path d="M311.874,109.588c0.468,0.433,0.702,1.076,0.702,1.933v3.84h-1.092v-0.84c-0.192,0.296-0.466,0.521-0.822,0.678
					c-0.356,0.156-0.778,0.234-1.267,0.234c-0.712,0-1.282-0.172-1.71-0.517c-0.428-0.344-0.642-0.796-0.642-1.355
					c0-0.561,0.204-1.01,0.612-1.351c0.408-0.34,1.056-0.51,1.944-0.51h1.824v-0.228c0-0.496-0.144-0.876-0.432-1.141
					c-0.288-0.264-0.712-0.396-1.272-0.396c-0.376,0-0.744,0.062-1.104,0.186c-0.36,0.124-0.665,0.29-0.912,0.498l-0.48-0.863
					c0.328-0.265,0.72-0.467,1.176-0.606s0.94-0.21,1.452-0.21C310.732,108.94,311.406,109.156,311.874,109.588z M310.728,114.25
					c0.32-0.195,0.552-0.474,0.696-0.834v-0.888h-1.776c-0.976,0-1.464,0.328-1.464,0.984c0,0.319,0.124,0.571,0.372,0.756
					c0.248,0.184,0.592,0.275,1.032,0.275C310.028,114.544,310.408,114.446,310.728,114.25z"/>
				<path d="M316.704,109.228c0.392-0.192,0.868-0.288,1.428-0.288v1.116c-0.064-0.008-0.152-0.013-0.264-0.013
					c-0.624,0-1.114,0.187-1.47,0.559s-0.534,0.902-0.534,1.59v3.168h-1.151V109h1.104v1.068
					C316.016,109.7,316.312,109.42,316.704,109.228z"/>
				<path d="M323.388,114.988c-0.168,0.145-0.376,0.254-0.624,0.33s-0.504,0.114-0.769,0.114c-0.64,0-1.136-0.172-1.487-0.517
					c-0.353-0.344-0.528-0.836-0.528-1.476v-3.492h-1.08V109h1.08v-1.392h1.152V109h1.824v0.948h-1.824v3.444
					c0,0.344,0.085,0.607,0.258,0.792c0.172,0.184,0.418,0.275,0.738,0.275c0.352,0,0.652-0.1,0.9-0.3L323.388,114.988z"/>
				<path d="M324.797,107.56c-0.148-0.145-0.222-0.32-0.222-0.528s0.074-0.386,0.222-0.534c0.148-0.147,0.333-0.222,0.558-0.222
					c0.224,0,0.41,0.07,0.558,0.21c0.148,0.14,0.222,0.314,0.222,0.522c0,0.216-0.074,0.397-0.222,0.546
					c-0.148,0.147-0.334,0.222-0.558,0.222C325.131,107.776,324.945,107.704,324.797,107.56z M324.779,109h1.152v6.36h-1.152V109z"
					/>
				<path d="M333.449,109.642c0.476,0.468,0.714,1.154,0.714,2.058v3.66h-1.152v-3.528c0-0.615-0.148-1.08-0.444-1.392
					c-0.296-0.312-0.72-0.468-1.272-0.468c-0.624,0-1.116,0.182-1.476,0.546c-0.36,0.364-0.54,0.886-0.54,1.565v3.276h-1.152V109
					h1.104v0.96c0.231-0.327,0.546-0.579,0.941-0.756c0.396-0.176,0.846-0.264,1.351-0.264
					C332.331,108.94,332.973,109.175,333.449,109.642z"/>
				<path d="M230.365,132.97c-0.528-0.34-0.944-0.836-1.248-1.488s-0.456-1.426-0.456-2.322c0-0.896,0.151-1.67,0.456-2.322
					c0.304-0.651,0.72-1.147,1.248-1.487s1.128-0.51,1.8-0.51s1.273,0.17,1.806,0.51s0.95,0.836,1.254,1.487
					c0.304,0.652,0.456,1.427,0.456,2.322c0,0.896-0.152,1.67-0.456,2.322c-0.304,0.652-0.722,1.148-1.254,1.488
					s-1.134,0.51-1.806,0.51S230.893,133.31,230.365,132.97z M233.587,131.38c0.348-0.495,0.522-1.235,0.522-2.22
					c0-0.983-0.174-1.724-0.522-2.22c-0.348-0.496-0.822-0.744-1.422-0.744c-0.592,0-1.062,0.248-1.41,0.744
					c-0.348,0.496-0.522,1.236-0.522,2.22c0,0.984,0.174,1.725,0.522,2.22c0.348,0.497,0.818,0.744,1.41,0.744
					C232.765,132.124,233.239,131.877,233.587,131.38z"/>
				<path d="M242.761,132.04v1.32h-6.192v-1.044l3.336-3.168c0.375-0.36,0.63-0.674,0.762-0.942
					c0.132-0.268,0.198-0.534,0.198-0.798c0-0.392-0.132-0.691-0.396-0.899c-0.264-0.208-0.652-0.312-1.164-0.312
					c-0.856,0-1.512,0.292-1.968,0.876l-1.092-0.84c0.328-0.44,0.77-0.782,1.326-1.026c0.556-0.243,1.178-0.365,1.866-0.365
					c0.912,0,1.64,0.216,2.184,0.647s0.816,1.021,0.816,1.764c0,0.456-0.096,0.885-0.288,1.284c-0.192,0.4-0.56,0.856-1.104,1.368
					l-2.244,2.136H242.761z"/>
				<path d="M254.461,131.452h-1.488v1.908h-1.512v-1.908h-4.608v-1.08l4.14-5.412h1.668l-3.9,5.173h2.748v-1.692h1.464v1.692h1.488
					V131.452z"/>
				<path d="M256.824,132.97c-0.528-0.34-0.944-0.836-1.248-1.488s-0.456-1.426-0.456-2.322c0-0.896,0.152-1.67,0.456-2.322
					c0.304-0.651,0.72-1.147,1.248-1.487c0.528-0.34,1.128-0.51,1.8-0.51c0.672,0,1.274,0.17,1.806,0.51s0.95,0.836,1.254,1.487
					c0.304,0.652,0.456,1.427,0.456,2.322c0,0.896-0.152,1.67-0.456,2.322c-0.305,0.652-0.723,1.148-1.254,1.488
					s-1.134,0.51-1.806,0.51C257.952,133.48,257.353,133.31,256.824,132.97z M260.046,131.38c0.348-0.495,0.522-1.235,0.522-2.22
					c0-0.983-0.174-1.724-0.522-2.22s-0.822-0.744-1.422-0.744c-0.592,0-1.062,0.248-1.41,0.744s-0.522,1.236-0.522,2.22
					c0,0.984,0.174,1.725,0.522,2.22c0.348,0.497,0.818,0.744,1.41,0.744C259.225,132.124,259.698,131.877,260.046,131.38z"/>
				<path d="M271.86,129.22c0.408,0.432,0.612,0.972,0.612,1.62c0,0.487-0.124,0.932-0.372,1.331
					c-0.249,0.4-0.623,0.719-1.122,0.954c-0.5,0.236-1.11,0.354-1.83,0.354c-0.6,0-1.178-0.086-1.734-0.258
					c-0.556-0.172-1.03-0.41-1.422-0.714l0.672-1.213c0.304,0.257,0.674,0.459,1.11,0.606c0.436,0.148,0.886,0.222,1.35,0.222
					c0.552,0,0.986-0.113,1.302-0.342c0.316-0.228,0.474-0.538,0.474-0.93s-0.15-0.698-0.45-0.918c-0.3-0.22-0.758-0.33-1.374-0.33
					h-0.769v-1.068l1.908-2.268H266.4v-1.309h5.724v1.044l-2.04,2.425C270.86,128.524,271.452,128.788,271.86,129.22z"/>
				<path d="M279.516,132.04v1.32h-6.192v-1.044l3.336-3.168c0.375-0.36,0.63-0.674,0.762-0.942
					c0.132-0.268,0.198-0.534,0.198-0.798c0-0.392-0.132-0.691-0.396-0.899c-0.264-0.208-0.652-0.312-1.164-0.312
					c-0.856,0-1.512,0.292-1.968,0.876l-1.092-0.84c0.328-0.44,0.77-0.782,1.326-1.026c0.556-0.243,1.178-0.365,1.866-0.365
					c0.912,0,1.64,0.216,2.184,0.647s0.816,1.021,0.816,1.764c0,0.456-0.096,0.885-0.288,1.284c-0.192,0.4-0.56,0.856-1.104,1.368
					l-2.244,2.136H279.516z"/>
				<path d="M290.064,124.96v1.044l-3.264,7.356h-1.668l3.156-7.08h-3.3v1.428h-1.452v-2.748H290.064z"/>
				<path d="M297.107,132.04v1.32h-6.192v-1.044l3.336-3.168c0.375-0.36,0.63-0.674,0.762-0.942
					c0.132-0.268,0.198-0.534,0.198-0.798c0-0.392-0.132-0.691-0.396-0.899c-0.264-0.208-0.652-0.312-1.164-0.312
					c-0.856,0-1.512,0.292-1.968,0.876l-1.092-0.84c0.328-0.44,0.77-0.782,1.326-1.026c0.556-0.243,1.178-0.365,1.866-0.365
					c0.912,0,1.64,0.216,2.184,0.647s0.816,1.021,0.816,1.764c0,0.456-0.096,0.885-0.288,1.284c-0.191,0.4-0.56,0.856-1.104,1.368
					l-2.244,2.136H297.107z"/>
				<path d="M307.655,124.96v1.044l-3.264,7.356h-1.668l3.156-7.08h-3.3v1.428h-1.452v-2.748H307.655z"/>
				<path d="M313.871,129.22c0.408,0.432,0.612,0.972,0.612,1.62c0,0.487-0.124,0.932-0.372,1.331
					c-0.249,0.4-0.623,0.719-1.122,0.954c-0.5,0.236-1.11,0.354-1.83,0.354c-0.6,0-1.178-0.086-1.734-0.258
					c-0.556-0.172-1.03-0.41-1.422-0.714l0.672-1.213c0.304,0.257,0.674,0.459,1.11,0.606c0.436,0.148,0.886,0.222,1.35,0.222
					c0.552,0,0.986-0.113,1.302-0.342c0.316-0.228,0.474-0.538,0.474-0.93s-0.15-0.698-0.45-0.918s-0.758-0.33-1.374-0.33h-0.768
					v-1.068l1.908-2.268h-3.816v-1.309h5.724v1.044l-2.04,2.425C312.871,128.524,313.463,128.788,313.871,129.22z"/>
			</g>
		</g>
		<rect x="218.146" fill="#282A27" width="2" height="150"/>
		<g>
			<path d="M58.619,63.294c-0.298,0.754-0.777,1.497-1.44,2.228c-0.526,0.594-1.292,1.029-2.297,1.303l-1.303,0.377
				c-0.571,0.115-0.994,0.172-1.268,0.172c-0.709,0.091-1.611,0.137-2.708,0.137h-0.411h-0.514c-1.303,0-2.834-0.274-4.594-0.822
				c-0.983-0.298-1.806-0.617-2.468-0.96c-0.754-0.366-1.474-0.812-2.16-1.337c-1.508-1.189-2.583-2.628-3.222-4.319
				c-0.64-1.714-0.96-3.611-0.96-5.691c0-2.148,0.297-4.182,0.891-6.102c0.594-1.897,1.543-3.497,2.845-4.799
				c1.234-1.234,2.571-2.182,4.011-2.845c1.508-0.708,5.907-1.063,13.198-1.063c0.137,0.503,0.251,0.857,0.343,1.063
				c0.091,0.274,0.171,0.492,0.24,0.651c0.045,0.16,0.114,0.32,0.206,0.48l1.131,2.023c0.434,0.8,0.742,1.508,0.925,2.125
				l-1.165-0.994l-1.92-1.68c-1.234-0.937-2.525-1.634-3.874-2.091c-1.257-0.434-2.663-0.651-4.216-0.651
				c-1.486,0-2.766,0.206-3.839,0.617c-1.326,0.503-2.263,1.292-2.811,2.365c-0.32,0.526-0.56,1.063-0.72,1.611
				c-0.046,0.114-0.149,0.469-0.308,1.063c-0.092,0.252-0.171,0.503-0.24,0.754l-0.034,0.171c-0.298,1.211-0.446,2.686-0.446,4.422
				c0,0.777,0.091,1.692,0.274,2.742c0.183,1.029,0.434,2.114,0.754,3.257c0.777,2.583,1.874,4.651,3.291,6.205
				c1.691,1.828,3.702,2.743,6.033,2.743c2.308,0,4.159-0.411,5.553-1.234c1.44-0.845,2.696-2.297,3.771-4.353
				C59.167,61.682,58.984,62.493,58.619,63.294z"/>
			<path d="M71.817,59.557c-1.531,1.668-3.257,2.502-5.176,2.502c-1.943,0-3.474-0.731-4.594-2.194
				c-0.96-1.348-1.44-2.994-1.44-4.936c0-2.011,0.742-3.828,2.228-5.451c1.485-1.622,3.21-2.434,5.176-2.434
				c1.942,0,3.462,0.709,4.559,2.125c1.006,1.325,1.508,2.971,1.508,4.936C74.079,56.049,73.325,57.866,71.817,59.557z
				 M70.925,54.518c-0.023-0.274-0.092-0.72-0.206-1.337c0-0.045-0.012-0.103-0.034-0.171c-0.274-1.28-0.674-2.274-1.2-2.982
				c-0.732-0.937-1.611-1.406-2.64-1.406c-0.96,0-1.771,0.469-2.434,1.406c-0.526,0.8-0.788,1.782-0.788,2.948
				c0,0.32,0.022,0.846,0.069,1.577v0.103c0.022,0.548,0.091,1.12,0.206,1.714c0.228,1.12,0.583,2.023,1.063,2.708
				c0.686,0.914,1.577,1.371,2.674,1.371c1.097,0,1.954-0.48,2.571-1.44c0.526-0.868,0.788-1.839,0.788-2.914
				C70.994,55.638,70.971,55.112,70.925,54.518z"/>
			<path d="M83.506,61.271c-0.64,0.526-1.303,0.788-1.988,0.788c-0.709,0-1.257-0.262-1.645-0.788
				c-0.366-0.502-0.549-4.456-0.549-11.861l-0.103-0.411c-0.137-0.137-0.297-0.206-0.48-0.206c-0.206,0-0.526,0.137-0.96,0.412
				l-0.925,0.754c0.045-0.251,0.309-0.64,0.788-1.166l1.131-1.028c0.274-0.206,0.56-0.365,0.857-0.48l0.583-0.206l0.137-0.034h0.548
				c0.251,0,0.571,0.194,0.96,0.583c0.365,0.389,0.559,0.766,0.583,1.131v0.686l0.069,0.377v9.598
				c0.046,0.32,0.103,0.549,0.172,0.686c0.137,0.206,0.331,0.308,0.583,0.308c0.32-0.045,0.674-0.228,1.063-0.549l0.583-0.48
				C84.34,60.277,83.871,60.906,83.506,61.271z M82.135,43.651c-0.663,0.526-1.268,0.788-1.817,0.788
				c-0.64,0-1.063-0.309-1.268-0.926c-0.206-0.594-0.308-1.142-0.308-1.645c0-1.531,0.525-2.297,1.577-2.297
				c1.119,0,1.839,0.229,2.159,0.686c0.388,0.458,0.583,1.006,0.583,1.645C83.06,42.543,82.752,43.126,82.135,43.651z"/>
			<path d="M97.835,40.737c-0.845,0.343-1.76,0.514-2.742,0.514l-2.091-0.069c-0.914,0-1.371,1.988-1.371,5.965l2.262-0.069
				c0.549,0,0.994-0.069,1.337-0.206c0.343-0.114,0.559-0.251,0.651-0.412c-0.434,1.006-0.971,1.703-1.611,2.091
				c-0.366,0.229-0.754,0.4-1.166,0.514l-0.617,0.103c-0.16,0.023-0.446,0.034-0.857,0.034v14.26c0,1.234-0.092,2.422-0.274,3.565
				c-0.274,1.417-0.72,2.548-1.337,3.393c-0.594,0.914-1.211,1.588-1.851,2.023c-0.8,0.571-2.925,0.857-6.376,0.857
				c0.411-1.234,1.188-1.953,2.331-2.16l2.914-0.274c0.937-0.274,1.405-7.507,1.405-21.699h-2.365l0.892-0.96l0.925-1.028
				l0.583-0.034v-1.68c0-1.599,0.388-3.028,1.166-4.285c0.914-1.462,4.319-2.194,10.215-2.194
				C99.377,39.812,98.703,40.394,97.835,40.737z"/>
			<path d="M111.134,40.737c-0.845,0.343-1.76,0.514-2.742,0.514l-2.091-0.069c-0.915,0-1.371,1.988-1.371,5.965l2.262-0.069
				c0.549,0,0.995-0.069,1.337-0.206c0.343-0.114,0.56-0.251,0.651-0.412c-0.434,1.006-0.972,1.703-1.611,2.091
				c-0.366,0.229-0.754,0.4-1.166,0.514l-0.617,0.103c-0.16,0.023-0.446,0.034-0.857,0.034v14.26c0,1.234-0.092,2.422-0.274,3.565
				c-0.274,1.417-0.72,2.548-1.337,3.393c-0.594,0.914-1.211,1.588-1.851,2.023c-0.8,0.571-2.925,0.857-6.376,0.857
				c0.411-1.234,1.188-1.953,2.331-2.16l2.914-0.274c0.937-0.274,1.405-7.507,1.405-21.699h-2.365l0.892-0.96l0.925-1.028
				l0.583-0.034v-1.68c0-1.599,0.388-3.028,1.166-4.285c0.913-1.462,4.319-2.194,10.215-2.194
				C112.677,39.812,112.003,40.394,111.134,40.737z"/>
			<path d="M125.223,59.694l-0.857,0.925l-0.857,0.686c-0.64,0.503-1.36,0.754-2.159,0.754c-0.732,0-1.2-0.434-1.406-1.302
				l-0.069-2.434l-0.822,0.857l-0.823,0.754l-1.029,0.857l-0.925,0.617c-0.777,0.435-1.542,0.651-2.297,0.651
				c-0.822,0-1.405-0.457-1.748-1.371c-0.252-0.686-0.377-4.217-0.377-10.593l-0.137-0.891c-0.069-0.251-0.24-0.377-0.514-0.377
				c-0.229,0-0.503,0.069-0.823,0.206l-0.788,0.411c0.457-0.708,0.995-1.291,1.611-1.748c0.662-0.457,1.314-0.686,1.954-0.686
				c0.662,0,1.153,0.297,1.474,0.891c0.251,0.503,0.377,3.211,0.377,8.125l0.069,2.022c0.206,0.754,0.525,1.131,0.96,1.131
				c0.457,0,0.834-0.069,1.131-0.206l0.685-0.445c0.32-0.251,0.571-0.468,0.755-0.651l0.548-0.686c0.48-0.663,0.72-3.199,0.72-7.61
				c0-0.731,0.331-1.359,0.994-1.885c0.594-0.457,1.303-0.686,2.126-0.686l-0.035,4.422l0.035,5.21l0.034,2.64l0.137,0.137
				l0.24,0.137l0.411,0.034c0.411,0,0.902-0.183,1.474-0.549l0.651-0.48l0.617-0.583L125.223,59.694z"/>
			<path d="M138.318,52.153l-2.365,2.434l0.069-0.137l0.069-0.206c0.069-0.137,0.137-0.354,0.206-0.651l0.069-0.96l0.137-0.651
				c0-0.48-0.069-0.857-0.206-1.131c-0.229-0.365-0.526-0.549-0.891-0.549c-0.434,0-1.086,0.503-1.954,1.508l-0.857,1.028
				l-0.72,1.029l0.035,6.376c-0.549,0.503-1.063,0.891-1.543,1.165c-0.526,0.321-1.075,0.537-1.645,0.651V50.713
				c0-0.16-0.08-0.309-0.24-0.446c-0.16-0.137-0.343-0.217-0.548-0.24c-0.229,0.023-0.503,0.137-0.823,0.343l-0.754,0.583
				l0.617-0.925l0.412-0.549l1.405-1.44c0.731-0.663,1.268-0.994,1.611-0.994c0.365,0,0.651,0.115,0.857,0.343
				c0.206,0.206,0.365,0.514,0.48,0.926c0.069,0.411,0.102,0.766,0.102,1.063l0.035,1.028v2.263l1.577-2.297
				c0.823-1.097,1.485-1.862,1.988-2.297c0.823-0.686,1.577-1.028,2.263-1.028c0.685,0,1.2,0.229,1.542,0.686
				c0.389,0.411,0.583,0.972,0.583,1.68C139.826,50.027,139.323,50.941,138.318,52.153z"/>
			<path d="M151.035,60.928c-1.074,0.709-2.411,1.063-4.011,1.063c-1.668,0-2.982-0.594-3.942-1.782
				c-0.959-1.211-1.44-2.662-1.44-4.354c0-2.377,0.674-4.41,2.023-6.102c1.44-1.782,2.983-2.674,4.628-2.674
				c1.599,0,2.81,0.24,3.633,0.72c0.548,0.297,1.234,0.88,2.057,1.748l-8.33,8.296c0.366,0.686,0.926,1.177,1.68,1.474
				c0.548,0.229,1.245,0.343,2.091,0.343c0.434,0,0.822-0.045,1.166-0.137c0.411-0.114,0.834-0.263,1.268-0.446
				c0.937-0.411,1.657-0.823,2.16-1.234C153.126,59.168,152.132,60.197,151.035,60.928z M149.082,50.027
				c-0.343-0.412-0.915-0.674-1.714-0.788c-0.846,0-1.508,0.606-1.989,1.817c-0.115,0.32-0.24,0.777-0.377,1.371
				c-0.092,0.389-0.138,0.8-0.138,1.234c0,0.823,0.035,1.429,0.103,1.817c0.022,0.092,0.035,0.171,0.035,0.24
				c0.022,0.115,0.034,0.194,0.034,0.24c0,0.092,0.022,0.206,0.069,0.343c0,0.183,0.08,0.445,0.24,0.788l1.577-1.508l0.754-0.788
				l1.029-1.166c0.251-0.32,0.468-0.674,0.651-1.063c0.137-0.32,0.206-0.651,0.206-0.994
				C149.562,50.999,149.401,50.484,149.082,50.027z"/>
			<path d="M25.059,104.875c-0.526,1.211-1.28,2.331-2.263,3.359c-0.983,1.051-2.343,1.794-4.079,2.228
				c-1.257,0.365-2.971,0.548-5.142,0.548c-2.057,0-3.851-0.183-5.382-0.548c-0.549-0.115-1.052-0.252-1.508-0.411
				c-0.572-0.206-1.029-0.4-1.371-0.583c-0.891-0.435-1.703-0.915-2.434-1.44c-1.006-0.732-1.771-1.795-2.297-3.188
				C0.194,103.743,0,102.533,0,101.207c0-1.303,0.114-2.308,0.343-3.017c0.343-0.937,0.891-1.634,1.645-2.091
				c-0.32,0.32-0.549,0.731-0.686,1.234C1.28,97.562,1.245,97.939,1.2,98.464c-0.046,0.731-0.069,1.36-0.069,1.886
				c0,1.44,0.857,2.948,2.571,4.525c1.348,1.234,3.313,2.216,5.896,2.948c2.011,0.571,4.194,0.857,6.548,0.857
				c1.12,0,2.137-0.092,3.051-0.275c0.754-0.16,1.496-0.445,2.228-0.857c1.577-0.959,2.365-2.285,2.365-3.976
				c0-1.668-0.263-2.96-0.788-3.874c-0.526-0.892-1.292-1.531-2.297-1.92c-1.189-0.526-2.811-1.029-4.868-1.508l-4.936-1.132
				c-1.074-0.274-1.92-0.525-2.537-0.754c-0.732-0.228-1.486-0.525-2.263-0.892c-1.143-0.502-1.977-1.279-2.502-2.331
				c-0.503-1.006-0.754-2.194-0.754-3.565c0-1.829,0.651-3.439,1.954-4.834c1.257-1.394,6.582-2.091,15.975-2.091
				c0,0.641,0.24,1.44,0.72,2.4l1.302,2.365c0.502,0.914,0.845,1.725,1.029,2.434c-1.851-2.217-3.783-3.805-5.794-4.765
				c-2.125-1.028-4.297-1.542-6.513-1.542c-2.217,0-3.886,0.32-5.005,0.959c-1.349,0.801-2.022,2.08-2.022,3.84
				c0,1.714,0.891,2.948,2.674,3.702c1.371,0.526,3.074,1.006,5.108,1.44l5.073,1.063c1.965,0.503,3.679,1.132,5.142,1.886
				c1.165,0.594,2.011,1.44,2.537,2.537c0.526,1.165,0.788,2.457,0.788,3.874C25.813,102.327,25.561,103.663,25.059,104.875z"/>
			<path d="M42.164,101.241c-0.16,0.229-0.389,0.492-0.685,0.788c-0.48,0.48-0.994,0.812-1.543,0.995l-0.377,0.069l-0.377,0.069
				c-1.074-0.206-1.771-0.788-2.091-1.749c-0.137-0.525-0.206-1.485-0.206-2.88c-0.389,0.503-0.949,1.075-1.68,1.714
				c-1.006,0.915-1.783,1.577-2.331,1.989c-0.321,0.206-0.754,0.434-1.303,0.685c-0.389,0.159-0.766,0.24-1.131,0.24
				c-0.777,0-1.428-0.617-1.954-1.852c-0.412-1.005-0.617-2.502-0.617-4.49c0-2.079,0.8-3.988,2.4-5.725
				c0.845-0.914,1.839-1.611,2.982-2.091c1.166-0.457,2.456-0.685,3.874-0.685h2.948v12.684c0,0.297,0.159,0.446,0.48,0.446
				c0.365-0.046,0.823-0.229,1.371-0.549l0.754-0.411L42.164,101.241z M36.885,89.277c-1.6,0-2.96,0.606-4.08,1.817
				c-1.097,1.234-1.645,2.48-1.645,3.737c0,1.28,0.103,2.194,0.309,2.743c0.343,0.8,0.868,1.2,1.577,1.2
				c0.708,0,1.428-0.194,2.16-0.583c0.365-0.228,0.925-0.64,1.68-1.234V89.277z"/>
			<path d="M51.18,102.407c-0.64,0.526-1.303,0.788-1.988,0.788c-0.709,0-1.257-0.263-1.645-0.788
				c-0.366-0.502-0.549-4.457-0.549-11.86l-0.103-0.412c-0.137-0.137-0.297-0.206-0.48-0.206c-0.206,0-0.526,0.137-0.96,0.411
				l-0.925,0.755c0.045-0.251,0.309-0.64,0.788-1.166l1.131-1.029c0.274-0.206,0.56-0.365,0.857-0.48l0.583-0.206l0.137-0.034h0.548
				c0.251,0,0.571,0.194,0.96,0.582c0.365,0.389,0.559,0.766,0.583,1.132v0.685l0.069,0.377v9.598
				c0.046,0.32,0.103,0.548,0.172,0.685c0.137,0.206,0.331,0.309,0.583,0.309c0.32-0.045,0.674-0.228,1.063-0.548l0.583-0.48
				C52.013,101.413,51.545,102.042,51.18,102.407z M49.808,84.787c-0.663,0.526-1.268,0.788-1.817,0.788
				c-0.64,0-1.063-0.309-1.268-0.925c-0.206-0.594-0.308-1.143-0.308-1.645c0-1.531,0.525-2.297,1.577-2.297
				c1.119,0,1.839,0.229,2.159,0.685c0.388,0.457,0.583,1.006,0.583,1.645C50.734,83.679,50.425,84.261,49.808,84.787z"/>
			<path d="M66.674,102.304c-0.252,0.206-0.594,0.423-1.028,0.651l-0.034,0.035c-0.343,0.137-0.686,0.206-1.028,0.206
				c-0.686,0-1.2-0.206-1.543-0.617c-0.343-0.389-0.514-2.902-0.514-7.542v-1.851c0-0.457-0.069-0.857-0.206-1.2
				c-0.183-0.32-0.514-0.48-0.994-0.48c-0.526,0-1.2,0.514-2.023,1.543l-0.651,0.959l-0.925,1.406v3.428v1.063l-0.069,1.508
				l-0.069,0.137c-0.366,0.503-0.823,0.88-1.371,1.131c-0.389,0.206-0.949,0.377-1.68,0.514l0.034-4.559v-2.674v-2.331
				c0-1.439-0.046-2.285-0.137-2.536c-0.092-0.069-0.217-0.114-0.377-0.137c-0.229,0.046-0.537,0.16-0.925,0.343l-0.925,0.583
				c0.686-0.868,1.291-1.565,1.817-2.091c1.006-0.96,1.714-1.44,2.125-1.44c0.48,0,0.834,0.149,1.063,0.446
				c0.114,0.183,0.228,0.548,0.343,1.097l0.137,1.816l0.034,2.194l1.543-2.194l0.96-1.268c1.257-1.394,2.388-2.091,3.394-2.091
				c1.006,0,1.646,0.446,1.92,1.337c0.159,0.412,0.24,1.28,0.24,2.606l-0.034,4.388v2.194v1.989l0.137,0.548
				c0.069,0.137,0.217,0.206,0.446,0.206c0.228,0,0.549-0.137,0.96-0.411l0.857-0.72C67.759,101.241,67.268,101.847,66.674,102.304z
				"/>
			<path d="M76.101,101.755c-1.028,0.96-1.966,1.44-2.811,1.44c-0.891,0-1.463-0.468-1.714-1.405
				c-0.137-0.48-0.206-4.491-0.206-12.032l-1.988,0.034l0.069-0.411l0.172-0.309c0.091-0.137,0.457-0.423,1.097-0.857l1.268-0.925
				c0.48-0.434,0.971-1.108,1.474-2.023l0.514-1.063l0.549-1.268v5.347l2.811,0.035c-0.229,0.389-0.526,0.708-0.891,0.959
				l-0.617,0.309c-0.274,0.092-0.492,0.149-0.651,0.172h-0.274l-0.377,0.034v10.353c0,0.183,0.034,0.366,0.103,0.548
				c0.137,0.137,0.343,0.206,0.617,0.206c0.274,0,0.754-0.24,1.44-0.72c0.251-0.114,0.72-0.491,1.405-1.131
				C77.472,100.191,76.809,101.093,76.101,101.755z"/>
			<path d="M125.772,110.531c-1.623,0-3.085-0.286-4.388-0.857c-1.326-0.572-2.468-1.44-3.428-2.606
				c-2.011-2.491-3.451-5.336-4.319-8.536c-0.411-1.462-0.743-3.096-0.994-4.902c-0.229-1.599-0.343-3.336-0.343-5.21l-0.617,1.303
				l-0.206,0.514l-0.171,0.548l-0.755,2.434l-0.822,2.674l-0.755,2.982l-0.411,1.749l-0.274,1.029l-0.994-2.023l-0.617-1.474
				l-1.508-4.011l-1.234-3.702l-0.48-1.508l-0.514-1.474c0,3.016-0.503,6.331-1.508,9.941c-0.982,3.519-2.308,6.662-3.976,9.427
				c-0.664,1.166-1.406,2.034-2.228,2.606c-0.983,0.777-2.137,1.166-3.462,1.166c-1.326,0-2.457-0.755-3.394-2.263
				c-0.731-1.12-1.2-2.559-1.405-4.319c0.685,0.822,1.485,1.44,2.4,1.851c1.005,0.48,2.022,0.72,3.051,0.72
				c1.005,0,1.976-0.263,2.914-0.788c0.891-0.48,1.668-1.257,2.331-2.331c1.051-1.668,1.965-3.668,2.743-5.999
				c0.594-1.988,1.039-4.148,1.337-6.479l0.274-2.742l0.035-1.749v-0.994c0-0.159-0.058-0.64-0.172-1.44v-0.103
				c-0.137-0.776-0.446-1.405-0.925-1.885c-0.594-0.594-1.829-0.892-3.702-0.892c-1.897,0-3.68,0.663-5.348,1.988
				c-1.806,1.44-2.708,3.085-2.708,4.936c0,1.76,0.126,3.166,0.377,4.217c0.297,0.982,0.742,1.885,1.337,2.708l1.234,1.508
				c0.274,0.32,0.434,0.583,0.48,0.788c-0.023,0.16-0.183,0.332-0.48,0.514c-0.069,0.069-0.571,0.229-1.508,0.48
				c-1.051-0.571-1.84-1.622-2.365-3.154c-0.526-1.554-0.788-2.982-0.788-4.285c0-2.628,0.663-4.776,1.988-6.445
				c1.142-1.462,2.742-2.537,4.799-3.222c2.034-0.686,3.919-1.029,5.656-1.029c1.577,0,2.743,0.16,3.497,0.48
				c0.662,0.297,1.222,0.801,1.679,1.508c0.571,0.915,1.051,1.897,1.44,2.948c0.228,0.617,0.537,1.657,0.925,3.12l0.514,1.851
				l0.377,1.2l0.274,0.96l0.548,1.645l0.755-2.571c0.594-1.92,1.2-3.531,1.816-4.834c0.96-1.896,2.011-3.359,3.154-4.388
				c1.417-1.28,2.754-1.92,4.011-1.92c1.256,0,2.205,0.171,2.845,0.514c0.617,0.32,1.12,0.857,1.508,1.611
				c-0.32-0.411-0.823-0.765-1.508-1.063c-0.64-0.274-1.463-0.411-2.468-0.411c-0.982,0-1.943,0.708-2.88,2.125
				c-0.754,1.257-1.131,2.446-1.131,3.565v0.651c0,0.069,0.012,0.218,0.035,0.446l0.034,0.446c0,0.32,0.012,0.56,0.035,0.72
				c0.022,0.115,0.045,0.252,0.069,0.411c0.022,0.16,0.045,0.297,0.069,0.411l0.514,2.4c0.251,1.075,0.617,2.297,1.096,3.668
				c0.457,1.28,0.949,2.434,1.474,3.462c0.617,1.211,1.234,2.331,1.851,3.359c0.343,0.594,0.697,1.12,1.063,1.577
				c0.343,0.525,0.72,1.039,1.131,1.542c0.845,1.029,1.829,2,2.948,2.914c1.051,0.822,2.171,1.485,3.359,1.988H125.772z"/>
			<path d="M135.884,101.241c-0.16,0.229-0.389,0.492-0.685,0.788c-0.48,0.48-0.994,0.812-1.542,0.995l-0.377,0.069l-0.377,0.069
				c-1.074-0.206-1.771-0.788-2.091-1.749c-0.137-0.525-0.206-1.485-0.206-2.88c-0.389,0.503-0.949,1.075-1.679,1.714
				c-1.006,0.915-1.783,1.577-2.331,1.989c-0.32,0.206-0.754,0.434-1.303,0.685c-0.389,0.159-0.766,0.24-1.131,0.24
				c-0.777,0-1.428-0.617-1.954-1.852c-0.411-1.005-0.617-2.502-0.617-4.49c0-2.079,0.799-3.988,2.399-5.725
				c0.845-0.914,1.839-1.611,2.983-2.091c1.166-0.457,2.456-0.685,3.874-0.685h2.948v12.684c0,0.297,0.159,0.446,0.48,0.446
				c0.365-0.046,0.822-0.229,1.371-0.549l0.754-0.411L135.884,101.241z M130.605,89.277c-1.6,0-2.96,0.606-4.079,1.817
				c-1.097,1.234-1.645,2.48-1.645,3.737c0,1.28,0.102,2.194,0.309,2.743c0.343,0.8,0.868,1.2,1.577,1.2
				c0.708,0,1.428-0.194,2.16-0.583c0.365-0.228,0.925-0.64,1.679-1.234V89.277z"/>
			<path d="M148.019,93.288l-2.365,2.434l0.069-0.137l0.069-0.206c0.069-0.137,0.137-0.354,0.206-0.651l0.069-0.959l0.137-0.651
				c0-0.48-0.069-0.857-0.206-1.132c-0.229-0.365-0.526-0.548-0.891-0.548c-0.434,0-1.086,0.503-1.954,1.508l-0.857,1.029
				l-0.72,1.028l0.035,6.376c-0.549,0.503-1.063,0.892-1.543,1.166c-0.526,0.32-1.075,0.537-1.645,0.651V91.848
				c0-0.159-0.08-0.308-0.24-0.445c-0.16-0.138-0.343-0.217-0.548-0.24c-0.229,0.023-0.503,0.137-0.823,0.343l-0.754,0.583
				l0.617-0.925l0.412-0.548l1.405-1.44c0.731-0.663,1.268-0.994,1.611-0.994c0.365,0,0.651,0.114,0.857,0.343
				c0.206,0.206,0.365,0.514,0.48,0.925c0.069,0.411,0.102,0.766,0.102,1.063l0.035,1.029v2.262l1.577-2.297
				c0.823-1.097,1.485-1.863,1.988-2.297c0.823-0.685,1.577-1.028,2.263-1.028c0.685,0,1.2,0.229,1.542,0.685
				c0.389,0.411,0.583,0.972,0.583,1.68C149.528,91.163,149.025,92.077,148.019,93.288z"/>
			<path d="M158.029,101.755c-1.028,0.96-1.966,1.44-2.811,1.44c-0.891,0-1.462-0.468-1.714-1.405
				c-0.137-0.48-0.206-4.491-0.206-12.032l-1.988,0.034l0.069-0.411l0.172-0.309c0.091-0.137,0.457-0.423,1.096-0.857l1.269-0.925
				c0.48-0.434,0.971-1.108,1.474-2.023l0.514-1.063l0.548-1.268v5.347l2.811,0.035c-0.229,0.389-0.526,0.708-0.892,0.959
				l-0.617,0.309c-0.274,0.092-0.492,0.149-0.651,0.172h-0.274l-0.377,0.034v10.353c0,0.183,0.035,0.366,0.103,0.548
				c0.137,0.137,0.343,0.206,0.617,0.206c0.274,0,0.755-0.24,1.44-0.72c0.251-0.114,0.72-0.491,1.405-1.131
				C159.4,100.191,158.737,101.093,158.029,101.755z"/>
			<path d="M169.032,102.407c-0.64,0.526-1.303,0.788-1.988,0.788c-0.709,0-1.257-0.263-1.645-0.788
				c-0.366-0.502-0.549-4.457-0.549-11.86l-0.102-0.412c-0.137-0.137-0.297-0.206-0.48-0.206c-0.206,0-0.527,0.137-0.96,0.411
				l-0.926,0.755c0.045-0.251,0.309-0.64,0.788-1.166l1.131-1.029c0.274-0.206,0.56-0.365,0.857-0.48l0.583-0.206l0.137-0.034h0.548
				c0.252,0,0.571,0.194,0.96,0.582c0.365,0.389,0.56,0.766,0.583,1.132v0.685l0.069,0.377v9.598
				c0.045,0.32,0.103,0.548,0.172,0.685c0.137,0.206,0.33,0.309,0.582,0.309c0.32-0.045,0.674-0.228,1.063-0.548l0.583-0.48
				C169.866,101.413,169.397,102.042,169.032,102.407z M167.661,84.787c-0.663,0.526-1.268,0.788-1.816,0.788
				c-0.641,0-1.063-0.309-1.269-0.925c-0.206-0.594-0.308-1.143-0.308-1.645c0-1.531,0.525-2.297,1.577-2.297
				c1.119,0,1.839,0.229,2.159,0.685c0.389,0.457,0.583,1.006,0.583,1.645C168.587,83.679,168.278,84.261,167.661,84.787z"/>
			<path d="M184.526,102.304c-0.252,0.206-0.594,0.423-1.029,0.651l-0.034,0.035c-0.343,0.137-0.686,0.206-1.029,0.206
				c-0.685,0-1.2-0.206-1.542-0.617c-0.343-0.389-0.514-2.902-0.514-7.542v-1.851c0-0.457-0.069-0.857-0.206-1.2
				c-0.183-0.32-0.514-0.48-0.994-0.48c-0.527,0-1.2,0.514-2.023,1.543l-0.651,0.959l-0.925,1.406v3.428v1.063l-0.069,1.508
				l-0.069,0.137c-0.366,0.503-0.823,0.88-1.371,1.131c-0.389,0.206-0.949,0.377-1.68,0.514l0.035-4.559v-2.674v-2.331
				c0-1.439-0.046-2.285-0.137-2.536c-0.092-0.069-0.218-0.114-0.377-0.137c-0.229,0.046-0.537,0.16-0.925,0.343l-0.926,0.583
				c0.685-0.868,1.291-1.565,1.816-2.091c1.006-0.96,1.714-1.44,2.126-1.44c0.48,0,0.834,0.149,1.063,0.446
				c0.114,0.183,0.228,0.548,0.343,1.097l0.137,1.816l0.035,2.194l1.542-2.194l0.96-1.268c1.257-1.394,2.388-2.091,3.393-2.091
				c1.006,0,1.646,0.446,1.92,1.337c0.159,0.412,0.24,1.28,0.24,2.606l-0.034,4.388v2.194v1.989l0.137,0.548
				c0.069,0.137,0.217,0.206,0.446,0.206c0.228,0,0.548-0.137,0.959-0.411l0.857-0.72
				C185.611,101.241,185.12,101.847,184.526,102.304z"/>
		</g>
	</g>
</g>
</svg>
