<?xml version="1.0" encoding="utf-8"?>
<!-- Generator: Adobe Illustrator 28.3.0, SVG Export Plug-In . SVG Version: 6.00 Build 0)  -->
<svg version="1.1" xmlns="http://www.w3.org/2000/svg" xmlns:xlink="http://www.w3.org/1999/xlink" x="0px" y="0px"
	 width="473.861px" height="150px" viewBox="0 0 473.861 150" enable-background="new 0 0 473.861 150" xml:space="preserve">
<g id="Calque_1">
	<rect x="-189.665" y="-875.413" fill="#FFFFFF" width="1366" height="2065.439"/>
	<g>
		<g>
			<g>
				<path d="M237.68,21.153c0.317,0.415,0.476,0.931,0.476,1.547c0,0.85-0.327,1.505-0.98,1.967s-1.605,0.693-2.856,0.693h-4.872
					v-9.8h4.592c1.157,0,2.048,0.227,2.674,0.679c0.625,0.453,0.938,1.076,0.938,1.869c0,0.485-0.112,0.915-0.336,1.288
					s-0.532,0.663-0.924,0.868C236.934,20.441,237.363,20.738,237.68,21.153z M231.268,16.988v2.702h2.576
					c0.635,0,1.122-0.114,1.463-0.343s0.511-0.562,0.511-1.001c0-0.448-0.17-0.786-0.511-1.016
					c-0.341-0.229-0.828-0.343-1.463-0.343H231.268z M236.322,22.518c0-0.942-0.705-1.414-2.114-1.414h-2.94v2.828h2.94
					C235.618,23.932,236.322,23.461,236.322,22.518z"/>
				<path d="M241.25,24.968c-0.607-0.327-1.081-0.782-1.421-1.365c-0.341-0.583-0.511-1.244-0.511-1.981s0.17-1.395,0.511-1.974
					c0.34-0.579,0.814-1.031,1.421-1.358c0.606-0.326,1.288-0.489,2.044-0.489c0.765,0,1.451,0.163,2.058,0.489
					c0.606,0.327,1.08,0.779,1.421,1.358s0.511,1.236,0.511,1.974s-0.17,1.398-0.511,1.981s-0.814,1.038-1.421,1.365
					c-0.606,0.326-1.293,0.489-2.058,0.489C242.538,25.458,241.857,25.295,241.25,24.968z M244.89,23.316
					c0.42-0.43,0.63-0.994,0.63-1.694s-0.21-1.265-0.63-1.693c-0.42-0.43-0.952-0.645-1.596-0.645c-0.645,0-1.174,0.215-1.589,0.645
					c-0.416,0.429-0.623,0.993-0.623,1.693s0.208,1.265,0.623,1.694s0.945,0.644,1.589,0.644
					C243.938,23.96,244.47,23.746,244.89,23.316z"/>
				<path d="M256.202,17.884v7.476h-1.666v-0.952c-0.28,0.336-0.63,0.595-1.05,0.777c-0.42,0.182-0.873,0.272-1.358,0.272
					c-0.999,0-1.785-0.277-2.359-0.833c-0.574-0.555-0.861-1.379-0.861-2.471v-4.27h1.75v4.031c0,0.672,0.152,1.174,0.455,1.505
					c0.303,0.332,0.735,0.497,1.295,0.497c0.625,0,1.122-0.193,1.491-0.581c0.369-0.387,0.553-0.944,0.553-1.673v-3.779H256.202z"/>
				<path d="M258.498,14.972h1.75V25.36h-1.75V14.972z"/>
				<path d="M267.927,18.591c0.583,0.527,0.875,1.322,0.875,2.387v4.382h-1.652v-0.91c-0.215,0.327-0.521,0.576-0.917,0.749
					c-0.397,0.173-0.875,0.259-1.435,0.259s-1.05-0.096-1.47-0.287c-0.42-0.19-0.744-0.457-0.973-0.798
					c-0.229-0.34-0.343-0.726-0.343-1.154c0-0.673,0.25-1.211,0.749-1.617s1.286-0.609,2.359-0.609h1.932V20.88
					c0-0.522-0.157-0.924-0.469-1.203c-0.312-0.28-0.777-0.42-1.393-0.42c-0.42,0-0.833,0.064-1.239,0.195s-0.749,0.313-1.029,0.546
					l-0.686-1.273c0.392-0.299,0.863-0.527,1.414-0.687c0.551-0.158,1.134-0.237,1.75-0.237
					C266.501,17.8,267.343,18.064,267.927,18.591z M266.331,23.883c0.341-0.201,0.581-0.488,0.721-0.861v-0.868h-1.806
					c-1.008,0-1.512,0.331-1.512,0.994c0,0.317,0.126,0.569,0.378,0.756s0.602,0.28,1.05,0.28
					C265.6,24.184,265.99,24.084,266.331,23.883z"/>
				<path d="M277.552,18.626c0.569,0.551,0.854,1.368,0.854,2.45v4.284h-1.75V21.3c0-0.653-0.154-1.146-0.462-1.478
					c-0.308-0.331-0.747-0.497-1.316-0.497c-0.644,0-1.152,0.194-1.525,0.581c-0.374,0.388-0.561,0.945-0.561,1.673v3.78h-1.75
					v-7.476h1.666v0.966c0.29-0.346,0.653-0.606,1.092-0.784c0.438-0.177,0.933-0.266,1.484-0.266
					C276.226,17.8,276.982,18.076,277.552,18.626z"/>
				<path d="M288.122,17.884v6.342c0,2.632-1.344,3.948-4.032,3.948c-0.719,0-1.4-0.092-2.044-0.273s-1.176-0.446-1.596-0.791
					l0.784-1.316c0.327,0.271,0.74,0.488,1.239,0.651c0.5,0.163,1.006,0.245,1.52,0.245c0.821,0,1.423-0.187,1.806-0.561
					c0.383-0.373,0.574-0.942,0.574-1.708V24.03c-0.299,0.327-0.663,0.574-1.092,0.742c-0.43,0.168-0.901,0.252-1.414,0.252
					c-0.71,0-1.352-0.151-1.925-0.455c-0.574-0.303-1.027-0.73-1.358-1.281c-0.332-0.551-0.497-1.181-0.497-1.89
					s0.166-1.337,0.497-1.883c0.331-0.546,0.784-0.969,1.358-1.268c0.574-0.298,1.215-0.447,1.925-0.447
					c0.541,0,1.033,0.089,1.477,0.266c0.443,0.178,0.814,0.448,1.113,0.812v-0.993H288.122z M285.762,22.945
					c0.425-0.396,0.637-0.912,0.637-1.547c0-0.625-0.212-1.134-0.637-1.526c-0.425-0.392-0.968-0.588-1.631-0.588
					c-0.672,0-1.22,0.196-1.645,0.588c-0.425,0.393-0.638,0.901-0.638,1.526c0,0.635,0.213,1.15,0.638,1.547
					c0.424,0.396,0.973,0.595,1.645,0.595C284.794,23.54,285.337,23.341,285.762,22.945z"/>
				<path d="M297.417,22.182h-5.866c0.103,0.551,0.371,0.986,0.805,1.309c0.435,0.322,0.974,0.483,1.617,0.483
					c0.821,0,1.498-0.271,2.03-0.812l0.938,1.078c-0.336,0.401-0.761,0.705-1.274,0.91c-0.514,0.205-1.092,0.308-1.736,0.308
					c-0.821,0-1.545-0.163-2.17-0.489c-0.625-0.327-1.108-0.782-1.449-1.365s-0.511-1.244-0.511-1.981
					c0-0.728,0.166-1.384,0.497-1.967c0.331-0.583,0.791-1.038,1.379-1.365c0.588-0.326,1.251-0.489,1.988-0.489
					c0.728,0,1.379,0.16,1.953,0.482c0.574,0.322,1.021,0.775,1.344,1.358c0.322,0.583,0.483,1.258,0.483,2.022
					C297.445,21.786,297.436,21.958,297.417,22.182z M292.245,19.697c-0.388,0.331-0.623,0.772-0.707,1.323h4.242
					c-0.075-0.541-0.303-0.98-0.686-1.316s-0.859-0.504-1.428-0.504C293.105,19.2,292.631,19.366,292.245,19.697z"/>
				<path d="M303.452,17.8v1.666c-0.149-0.028-0.285-0.042-0.406-0.042c-0.682,0-1.214,0.198-1.596,0.595
					c-0.383,0.396-0.574,0.968-0.574,1.715v3.626h-1.75v-7.476h1.666v1.092C301.295,18.192,302.182,17.8,303.452,17.8z"/>
				<path d="M305.019,16.351c-0.215-0.201-0.322-0.45-0.322-0.749s0.107-0.549,0.322-0.749c0.215-0.201,0.481-0.301,0.798-0.301
					c0.317,0,0.583,0.096,0.798,0.286c0.214,0.191,0.322,0.433,0.322,0.722c0,0.308-0.104,0.566-0.314,0.776
					s-0.479,0.315-0.805,0.315C305.5,16.652,305.234,16.551,305.019,16.351z M304.935,17.884h1.75v7.476h-1.75V17.884z"/>
				<path d="M315.981,22.182h-5.866c0.103,0.551,0.371,0.986,0.805,1.309c0.434,0.322,0.973,0.483,1.617,0.483
					c0.821,0,1.498-0.271,2.029-0.812l0.938,1.078c-0.336,0.401-0.761,0.705-1.274,0.91c-0.513,0.205-1.092,0.308-1.735,0.308
					c-0.822,0-1.545-0.163-2.17-0.489c-0.625-0.327-1.108-0.782-1.449-1.365c-0.341-0.583-0.511-1.244-0.511-1.981
					c0-0.728,0.166-1.384,0.497-1.967c0.331-0.583,0.791-1.038,1.379-1.365c0.588-0.326,1.25-0.489,1.988-0.489
					c0.729,0,1.379,0.16,1.953,0.482s1.022,0.775,1.344,1.358s0.483,1.258,0.483,2.022C316.009,21.786,316,21.958,315.981,22.182z
					 M310.808,19.697c-0.387,0.331-0.623,0.772-0.707,1.323h4.242c-0.075-0.541-0.304-0.98-0.686-1.316
					c-0.383-0.336-0.859-0.504-1.428-0.504C311.669,19.2,311.196,19.366,310.808,19.697z"/>
				<path d="M321.175,20.74h3.85v1.456h-3.85V20.74z"/>
				<path d="M338.214,16.96l-3.684,8.4h-1.188l-3.696-8.4h1.296l3.024,6.9l3.048-6.9H338.214z"/>
				<path d="M339.655,25.012c-0.504-0.28-0.898-0.666-1.183-1.158c-0.284-0.492-0.426-1.05-0.426-1.674s0.142-1.183,0.426-1.674
					c0.284-0.492,0.678-0.877,1.183-1.152c0.504-0.276,1.071-0.414,1.704-0.414c0.632,0,1.198,0.138,1.698,0.414
					c0.5,0.275,0.893,0.66,1.176,1.152c0.284,0.491,0.426,1.05,0.426,1.674s-0.143,1.182-0.426,1.674s-0.676,0.878-1.176,1.158
					c-0.5,0.279-1.066,0.42-1.698,0.42C340.726,25.432,340.159,25.292,339.655,25.012z M342.457,24.142
					c0.324-0.188,0.578-0.452,0.762-0.792c0.184-0.34,0.276-0.73,0.276-1.17c0-0.44-0.092-0.83-0.276-1.17
					c-0.184-0.34-0.438-0.603-0.762-0.786c-0.324-0.185-0.69-0.276-1.098-0.276c-0.408,0-0.774,0.092-1.098,0.276
					c-0.324,0.184-0.58,0.446-0.768,0.786c-0.188,0.34-0.282,0.729-0.282,1.17c0,0.439,0.094,0.83,0.282,1.17
					c0.188,0.34,0.444,0.604,0.768,0.792c0.324,0.188,0.69,0.282,1.098,0.282C341.767,24.424,342.132,24.33,342.457,24.142z"/>
				<path d="M349.831,24.988c-0.168,0.145-0.376,0.254-0.624,0.33s-0.504,0.114-0.768,0.114c-0.64,0-1.136-0.172-1.488-0.517
					c-0.353-0.344-0.528-0.836-0.528-1.476v-3.492h-1.08V19h1.08v-1.392h1.152V19h1.824v0.948h-1.824v3.444
					c0,0.344,0.086,0.607,0.258,0.792c0.172,0.184,0.418,0.275,0.738,0.275c0.352,0,0.652-0.1,0.9-0.3L349.831,24.988z"/>
				<path d="M353.214,19.228c0.392-0.192,0.868-0.288,1.428-0.288v1.116c-0.064-0.008-0.152-0.013-0.264-0.013
					c-0.624,0-1.114,0.187-1.47,0.559c-0.356,0.372-0.534,0.902-0.534,1.59v3.168h-1.152V19h1.104v1.068
					C352.526,19.7,352.822,19.42,353.214,19.228z"/>
				<path d="M361.722,22.564h-5.16c0.072,0.56,0.318,1.01,0.738,1.35c0.42,0.341,0.942,0.511,1.566,0.511
					c0.76,0,1.372-0.257,1.836-0.769l0.636,0.744c-0.288,0.336-0.646,0.592-1.074,0.768c-0.428,0.177-0.906,0.265-1.434,0.265
					c-0.672,0-1.269-0.139-1.788-0.414c-0.521-0.276-0.922-0.662-1.206-1.158c-0.284-0.496-0.426-1.056-0.426-1.68
					c0-0.616,0.138-1.172,0.414-1.668s0.656-0.883,1.14-1.158c0.484-0.276,1.03-0.414,1.638-0.414c0.608,0,1.15,0.138,1.626,0.414
					c0.476,0.275,0.848,0.662,1.116,1.158s0.402,1.063,0.402,1.704C361.747,22.304,361.738,22.42,361.722,22.564z M357.216,20.416
					c-0.372,0.336-0.59,0.776-0.654,1.32h4.08c-0.064-0.536-0.282-0.974-0.654-1.314c-0.372-0.34-0.834-0.51-1.386-0.51
					C358.05,19.912,357.588,20.08,357.216,20.416z"/>
				<path d="M370.908,19.588c0.468,0.433,0.702,1.076,0.702,1.933v3.84h-1.092v-0.84c-0.192,0.296-0.466,0.521-0.822,0.678
					s-0.778,0.234-1.266,0.234c-0.712,0-1.282-0.172-1.71-0.517c-0.428-0.344-0.642-0.796-0.642-1.355
					c0-0.561,0.204-1.01,0.611-1.351c0.408-0.34,1.057-0.51,1.944-0.51h1.824v-0.228c0-0.496-0.145-0.876-0.432-1.141
					c-0.288-0.264-0.712-0.396-1.272-0.396c-0.376,0-0.744,0.062-1.104,0.186s-0.665,0.29-0.912,0.498l-0.48-0.863
					c0.328-0.265,0.72-0.467,1.176-0.606s0.94-0.21,1.452-0.21C369.766,18.94,370.44,19.156,370.908,19.588z M369.762,24.25
					c0.32-0.195,0.552-0.474,0.696-0.834v-0.888h-1.776c-0.976,0-1.464,0.328-1.464,0.984c0,0.319,0.124,0.571,0.372,0.756
					c0.248,0.184,0.592,0.275,1.032,0.275C369.062,24.544,369.442,24.446,369.762,24.25z"/>
				<path d="M375.738,19.228c0.392-0.192,0.868-0.288,1.428-0.288v1.116c-0.064-0.008-0.152-0.013-0.264-0.013
					c-0.624,0-1.114,0.187-1.47,0.559c-0.356,0.372-0.534,0.902-0.534,1.59v3.168h-1.152V19h1.104v1.068
					C375.05,19.7,375.346,19.42,375.738,19.228z"/>
				<path d="M382.422,24.988c-0.168,0.145-0.376,0.254-0.624,0.33s-0.504,0.114-0.768,0.114c-0.64,0-1.136-0.172-1.488-0.517
					c-0.352-0.344-0.528-0.836-0.528-1.476v-3.492h-1.08V19h1.08v-1.392h1.152V19h1.824v0.948h-1.824v3.444
					c0,0.344,0.085,0.607,0.258,0.792c0.172,0.184,0.418,0.275,0.738,0.275c0.353,0,0.652-0.1,0.9-0.3L382.422,24.988z"/>
				<path d="M383.832,17.56c-0.148-0.145-0.222-0.32-0.222-0.528s0.074-0.386,0.222-0.534c0.148-0.147,0.333-0.222,0.558-0.222
					c0.224,0,0.41,0.07,0.558,0.21c0.148,0.14,0.222,0.314,0.222,0.522c0,0.216-0.074,0.397-0.222,0.546
					c-0.148,0.147-0.334,0.222-0.558,0.222C384.166,17.776,383.98,17.704,383.832,17.56z M383.814,19h1.152v6.36h-1.152V19z"/>
				<path d="M387.486,25.222c-0.48-0.141-0.856-0.318-1.128-0.534l0.48-0.912c0.28,0.2,0.62,0.36,1.02,0.48
					c0.4,0.119,0.804,0.18,1.212,0.18c1.008,0,1.512-0.288,1.512-0.864c0-0.192-0.068-0.344-0.204-0.456
					c-0.136-0.111-0.306-0.193-0.51-0.246c-0.204-0.052-0.494-0.109-0.87-0.174c-0.512-0.08-0.93-0.172-1.254-0.276
					c-0.324-0.104-0.602-0.279-0.834-0.527c-0.232-0.248-0.348-0.596-0.348-1.044c0-0.576,0.24-1.038,0.72-1.387
					c0.48-0.348,1.124-0.521,1.932-0.521c0.424,0,0.848,0.052,1.272,0.156c0.424,0.104,0.772,0.244,1.044,0.42l-0.492,0.912
					c-0.52-0.336-1.132-0.504-1.836-0.504c-0.488,0-0.86,0.08-1.116,0.239c-0.256,0.16-0.384,0.372-0.384,0.637
					c0,0.208,0.072,0.371,0.216,0.491c0.145,0.12,0.322,0.208,0.534,0.265c0.212,0.056,0.51,0.12,0.894,0.191
					c0.512,0.089,0.926,0.183,1.242,0.282c0.316,0.101,0.586,0.271,0.81,0.51c0.224,0.24,0.336,0.576,0.336,1.009
					c0,0.575-0.246,1.033-0.738,1.373c-0.492,0.341-1.162,0.511-2.01,0.511C388.466,25.432,387.966,25.362,387.486,25.222z"/>
				<path d="M397.511,19.588c0.468,0.433,0.702,1.076,0.702,1.933v3.84h-1.092v-0.84c-0.192,0.296-0.466,0.521-0.822,0.678
					c-0.356,0.156-0.778,0.234-1.266,0.234c-0.712,0-1.282-0.172-1.71-0.517c-0.428-0.344-0.642-0.796-0.642-1.355
					c0-0.561,0.204-1.01,0.612-1.351c0.408-0.34,1.056-0.51,1.944-0.51h1.824v-0.228c0-0.496-0.144-0.876-0.432-1.141
					c-0.288-0.264-0.712-0.396-1.272-0.396c-0.376,0-0.744,0.062-1.104,0.186c-0.36,0.124-0.664,0.29-0.912,0.498l-0.479-0.863
					c0.328-0.265,0.72-0.467,1.176-0.606s0.94-0.21,1.452-0.21C396.37,18.94,397.043,19.156,397.511,19.588z M396.366,24.25
					c0.319-0.195,0.552-0.474,0.696-0.834v-0.888h-1.776c-0.977,0-1.464,0.328-1.464,0.984c0,0.319,0.124,0.571,0.372,0.756
					c0.248,0.184,0.592,0.275,1.032,0.275S396.045,24.446,396.366,24.25z"/>
				<path d="M405.671,19.642c0.476,0.468,0.714,1.154,0.714,2.058v3.66h-1.151v-3.528c0-0.615-0.148-1.08-0.444-1.392
					c-0.296-0.312-0.72-0.468-1.272-0.468c-0.624,0-1.116,0.182-1.476,0.546c-0.36,0.364-0.54,0.886-0.54,1.565v3.276h-1.152V19
					h1.104v0.96c0.232-0.327,0.546-0.579,0.942-0.756c0.396-0.176,0.846-0.264,1.35-0.264
					C404.553,18.94,405.196,19.174,405.671,19.642z"/>
				<path d="M416.778,19.348c0.487,0.271,0.87,0.651,1.146,1.14c0.276,0.488,0.414,1.052,0.414,1.692
					c0,0.64-0.138,1.206-0.414,1.697c-0.276,0.492-0.658,0.875-1.146,1.146c-0.488,0.272-1.041,0.408-1.656,0.408
					c-0.472,0-0.904-0.092-1.296-0.276c-0.393-0.184-0.716-0.452-0.972-0.804v1.008h-1.104v-8.904h1.152v3.504
					c0.256-0.336,0.576-0.59,0.96-0.762c0.384-0.172,0.804-0.258,1.26-0.258C415.737,18.94,416.29,19.076,416.778,19.348z
					 M416.124,24.142c0.324-0.188,0.58-0.452,0.768-0.792c0.188-0.34,0.282-0.73,0.282-1.17c0-0.44-0.094-0.83-0.282-1.17
					c-0.188-0.34-0.443-0.603-0.768-0.786c-0.324-0.185-0.69-0.276-1.098-0.276c-0.4,0-0.764,0.092-1.092,0.276
					c-0.328,0.184-0.584,0.446-0.768,0.786c-0.184,0.34-0.276,0.729-0.276,1.17c0,0.439,0.092,0.83,0.276,1.17
					c0.184,0.34,0.439,0.604,0.768,0.792c0.328,0.188,0.692,0.282,1.092,0.282C415.433,24.424,415.799,24.33,416.124,24.142z"/>
				<path d="M420.954,25.012c-0.504-0.28-0.898-0.666-1.183-1.158c-0.284-0.492-0.426-1.05-0.426-1.674s0.142-1.183,0.426-1.674
					c0.284-0.492,0.678-0.877,1.183-1.152c0.504-0.276,1.071-0.414,1.704-0.414c0.632,0,1.198,0.138,1.698,0.414
					c0.5,0.275,0.893,0.66,1.176,1.152c0.284,0.491,0.426,1.05,0.426,1.674s-0.143,1.182-0.426,1.674s-0.676,0.878-1.176,1.158
					c-0.5,0.279-1.066,0.42-1.698,0.42C422.025,25.432,421.458,25.292,420.954,25.012z M423.755,24.142
					c0.324-0.188,0.578-0.452,0.762-0.792c0.184-0.34,0.276-0.73,0.276-1.17c0-0.44-0.092-0.83-0.276-1.17
					c-0.184-0.34-0.438-0.603-0.762-0.786c-0.324-0.185-0.69-0.276-1.098-0.276c-0.408,0-0.774,0.092-1.098,0.276
					c-0.324,0.184-0.58,0.446-0.768,0.786c-0.188,0.34-0.282,0.729-0.282,1.17c0,0.439,0.094,0.83,0.282,1.17
					c0.188,0.34,0.444,0.604,0.768,0.792c0.324,0.188,0.69,0.282,1.098,0.282C423.065,24.424,423.431,24.33,423.755,24.142z"/>
				<path d="M433.481,19v6.36h-1.092V24.4c-0.232,0.328-0.538,0.582-0.918,0.762c-0.38,0.181-0.794,0.271-1.242,0.271
					c-0.848,0-1.516-0.234-2.004-0.702c-0.488-0.468-0.731-1.158-0.731-2.07V19h1.152v3.528c0,0.616,0.148,1.082,0.444,1.398
					c0.296,0.315,0.72,0.474,1.272,0.474c0.608,0,1.088-0.184,1.44-0.552s0.528-0.889,0.528-1.561V19H433.481z"/>
				<path d="M435.677,16.456h1.152v8.904h-1.152V16.456z"/>
				<path d="M443.363,19.588c0.468,0.433,0.702,1.076,0.702,1.933v3.84h-1.092v-0.84c-0.192,0.296-0.466,0.521-0.822,0.678
					c-0.356,0.156-0.778,0.234-1.266,0.234c-0.712,0-1.282-0.172-1.71-0.517c-0.428-0.344-0.642-0.796-0.642-1.355
					c0-0.561,0.204-1.01,0.612-1.351c0.408-0.34,1.056-0.51,1.944-0.51h1.824v-0.228c0-0.496-0.144-0.876-0.432-1.141
					c-0.288-0.264-0.712-0.396-1.272-0.396c-0.376,0-0.744,0.062-1.104,0.186c-0.36,0.124-0.664,0.29-0.912,0.498l-0.479-0.863
					c0.328-0.265,0.72-0.467,1.176-0.606s0.94-0.21,1.452-0.21C442.221,18.94,442.895,19.156,443.363,19.588z M442.217,24.25
					c0.319-0.195,0.552-0.474,0.696-0.834v-0.888h-1.776c-0.977,0-1.464,0.328-1.464,0.984c0,0.319,0.124,0.571,0.372,0.756
					c0.248,0.184,0.592,0.275,1.032,0.275S441.897,24.446,442.217,24.25z"/>
				<path d="M451.523,19.642c0.476,0.468,0.714,1.154,0.714,2.058v3.66h-1.152v-3.528c0-0.615-0.148-1.08-0.444-1.392
					c-0.296-0.312-0.72-0.468-1.272-0.468c-0.624,0-1.116,0.182-1.476,0.546c-0.36,0.364-0.54,0.886-0.54,1.565v3.276h-1.152V19
					h1.104v0.96c0.231-0.327,0.546-0.579,0.941-0.756c0.396-0.176,0.846-0.264,1.351-0.264
					C450.405,18.94,451.047,19.174,451.523,19.642z"/>
				<path d="M460.493,19v5.496c0,1.112-0.276,1.935-0.828,2.466c-0.552,0.532-1.376,0.799-2.472,0.799
					c-0.6,0-1.172-0.082-1.716-0.246s-0.984-0.398-1.32-0.702l0.552-0.888c0.296,0.256,0.662,0.457,1.098,0.605
					c0.436,0.148,0.886,0.222,1.35,0.222c0.744,0,1.294-0.176,1.65-0.527c0.355-0.353,0.534-0.889,0.534-1.608v-0.504
					c-0.272,0.328-0.606,0.574-1.002,0.738s-0.826,0.246-1.29,0.246c-0.608,0-1.158-0.13-1.65-0.391
					c-0.492-0.26-0.878-0.624-1.158-1.092s-0.42-1.002-0.42-1.602c0-0.601,0.14-1.135,0.42-1.603s0.666-0.83,1.158-1.086
					s1.042-0.384,1.65-0.384c0.48,0,0.926,0.088,1.338,0.264c0.412,0.177,0.75,0.437,1.014,0.78V19H460.493z M458.303,23.824
					c0.332-0.176,0.592-0.422,0.78-0.738c0.188-0.315,0.282-0.674,0.282-1.073c0-0.616-0.204-1.114-0.612-1.494
					s-0.932-0.57-1.572-0.57c-0.648,0-1.176,0.19-1.584,0.57c-0.408,0.38-0.612,0.878-0.612,1.494c0,0.399,0.094,0.758,0.282,1.073
					c0.188,0.316,0.448,0.562,0.78,0.738c0.332,0.176,0.71,0.264,1.134,0.264C457.597,24.088,457.971,24,458.303,23.824z"/>
				<path d="M468.413,22.564h-5.16c0.072,0.56,0.318,1.01,0.738,1.35c0.42,0.341,0.942,0.511,1.566,0.511
					c0.76,0,1.372-0.257,1.836-0.769l0.636,0.744c-0.288,0.336-0.646,0.592-1.074,0.768c-0.428,0.177-0.906,0.265-1.434,0.265
					c-0.672,0-1.269-0.139-1.788-0.414c-0.521-0.276-0.922-0.662-1.206-1.158c-0.284-0.496-0.426-1.056-0.426-1.68
					c0-0.616,0.138-1.172,0.414-1.668s0.656-0.883,1.14-1.158c0.484-0.276,1.03-0.414,1.638-0.414c0.608,0,1.15,0.138,1.626,0.414
					c0.476,0.275,0.848,0.662,1.116,1.158s0.402,1.063,0.402,1.704C468.437,22.304,468.429,22.42,468.413,22.564z M463.907,20.416
					c-0.372,0.336-0.59,0.776-0.654,1.32h4.08c-0.064-0.536-0.282-0.974-0.654-1.314c-0.372-0.34-0.834-0.51-1.386-0.51
					C464.741,19.912,464.279,20.08,463.907,20.416z"/>
				<path d="M472.025,19.228c0.392-0.192,0.868-0.288,1.428-0.288v1.116c-0.064-0.008-0.152-0.013-0.264-0.013
					c-0.624,0-1.114,0.187-1.47,0.559s-0.534,0.902-0.534,1.59v3.168h-1.152V19h1.104v1.068
					C471.336,19.7,471.632,19.42,472.025,19.228z"/>
				<path d="M230.592,36.004v2.929h4.212v1.031h-4.212v3.396h-1.2v-8.4h5.928v1.044H230.592z"/>
				<path d="M240.955,37.588c0.468,0.433,0.702,1.076,0.702,1.933v3.84h-1.092v-0.84c-0.192,0.296-0.466,0.521-0.822,0.678
					c-0.356,0.156-0.778,0.234-1.267,0.234c-0.712,0-1.282-0.172-1.71-0.517c-0.428-0.344-0.642-0.796-0.642-1.355
					c0-0.561,0.204-1.01,0.612-1.351c0.408-0.34,1.056-0.51,1.944-0.51h1.824v-0.228c0-0.496-0.144-0.876-0.432-1.141
					c-0.288-0.264-0.712-0.396-1.272-0.396c-0.376,0-0.744,0.062-1.104,0.186c-0.36,0.124-0.665,0.29-0.912,0.498l-0.48-0.863
					c0.328-0.265,0.72-0.467,1.176-0.606s0.94-0.21,1.452-0.21C239.812,36.94,240.486,37.156,240.955,37.588z M239.808,42.25
					c0.32-0.195,0.552-0.474,0.696-0.834v-0.888h-1.776c-0.976,0-1.464,0.328-1.464,0.984c0,0.319,0.124,0.571,0.372,0.756
					c0.248,0.184,0.592,0.275,1.032,0.275C239.108,42.544,239.488,42.446,239.808,42.25z"/>
				<path d="M248.82,37.348c0.488,0.271,0.87,0.651,1.146,1.14c0.276,0.488,0.414,1.052,0.414,1.692c0,0.64-0.138,1.206-0.414,1.697
					c-0.276,0.492-0.658,0.875-1.146,1.146c-0.488,0.272-1.041,0.408-1.656,0.408c-0.473,0-0.904-0.092-1.296-0.276
					c-0.392-0.184-0.716-0.452-0.972-0.804v1.008h-1.104v-8.904h1.151v3.504c0.256-0.336,0.576-0.59,0.96-0.762
					c0.384-0.172,0.804-0.258,1.26-0.258C247.78,36.94,248.332,37.076,248.82,37.348z M248.167,42.142
					c0.324-0.188,0.58-0.452,0.768-0.792s0.282-0.73,0.282-1.17c0-0.44-0.094-0.83-0.282-1.17s-0.444-0.603-0.768-0.786
					c-0.324-0.185-0.69-0.276-1.099-0.276c-0.4,0-0.764,0.092-1.092,0.276c-0.328,0.184-0.584,0.446-0.768,0.786
					c-0.185,0.34-0.276,0.729-0.276,1.17c0,0.439,0.092,0.83,0.276,1.17c0.184,0.34,0.439,0.604,0.768,0.792
					c0.328,0.188,0.692,0.282,1.092,0.282C247.476,42.424,247.842,42.33,248.167,42.142z"/>
				<path d="M253.968,37.228c0.392-0.192,0.868-0.288,1.428-0.288v1.116c-0.064-0.008-0.152-0.013-0.264-0.013
					c-0.624,0-1.114,0.187-1.47,0.559s-0.534,0.902-0.534,1.59v3.168h-1.152V37h1.104v1.068
					C253.28,37.7,253.576,37.42,253.968,37.228z"/>
				<path d="M256.831,35.56c-0.148-0.145-0.223-0.32-0.223-0.528s0.074-0.386,0.223-0.534c0.147-0.147,0.333-0.222,0.558-0.222
					c0.224,0,0.41,0.07,0.558,0.21s0.222,0.314,0.222,0.522c0,0.216-0.074,0.397-0.222,0.546c-0.148,0.147-0.334,0.222-0.558,0.222
					C257.164,35.776,256.978,35.704,256.831,35.56z M256.812,37h1.152v6.36h-1.152V37z"/>
				<path d="M261.198,43.012c-0.508-0.28-0.906-0.666-1.194-1.158s-0.432-1.05-0.432-1.674s0.144-1.183,0.432-1.674
					c0.288-0.492,0.686-0.877,1.194-1.152c0.508-0.276,1.086-0.414,1.734-0.414c0.576,0,1.09,0.116,1.542,0.348
					c0.452,0.232,0.802,0.568,1.05,1.008l-0.876,0.564c-0.2-0.304-0.448-0.532-0.744-0.684c-0.296-0.152-0.624-0.229-0.984-0.229
					c-0.416,0-0.791,0.092-1.122,0.276c-0.332,0.184-0.592,0.446-0.78,0.786c-0.188,0.34-0.282,0.729-0.282,1.17
					c0,0.448,0.094,0.842,0.282,1.182c0.188,0.34,0.448,0.603,0.78,0.786c0.332,0.184,0.706,0.276,1.122,0.276
					c0.36,0,0.688-0.076,0.984-0.229c0.296-0.151,0.544-0.38,0.744-0.684l0.876,0.552c-0.248,0.44-0.598,0.778-1.05,1.014
					c-0.452,0.236-0.966,0.354-1.542,0.354C262.284,43.432,261.706,43.292,261.198,43.012z"/>
				<path d="M271.35,37.588c0.468,0.433,0.702,1.076,0.702,1.933v3.84h-1.092v-0.84c-0.192,0.296-0.466,0.521-0.822,0.678
					c-0.356,0.156-0.778,0.234-1.267,0.234c-0.712,0-1.282-0.172-1.71-0.517c-0.428-0.344-0.642-0.796-0.642-1.355
					c0-0.561,0.204-1.01,0.612-1.351c0.408-0.34,1.056-0.51,1.944-0.51h1.824v-0.228c0-0.496-0.144-0.876-0.432-1.141
					c-0.288-0.264-0.712-0.396-1.272-0.396c-0.376,0-0.744,0.062-1.104,0.186c-0.36,0.124-0.665,0.29-0.912,0.498l-0.48-0.863
					c0.328-0.265,0.72-0.467,1.176-0.606s0.94-0.21,1.452-0.21C270.208,36.94,270.882,37.156,271.35,37.588z M270.204,42.25
					c0.32-0.195,0.552-0.474,0.696-0.834v-0.888h-1.776c-0.976,0-1.464,0.328-1.464,0.984c0,0.319,0.124,0.571,0.372,0.756
					c0.248,0.184,0.592,0.275,1.032,0.275C269.504,42.544,269.884,42.446,270.204,42.25z"/>
				<path d="M277.764,42.988c-0.168,0.145-0.376,0.254-0.624,0.33s-0.504,0.114-0.769,0.114c-0.64,0-1.136-0.172-1.487-0.517
					c-0.353-0.344-0.528-0.836-0.528-1.476v-3.492h-1.08V37h1.08v-1.392h1.152V37h1.824v0.948h-1.824v3.444
					c0,0.344,0.085,0.607,0.258,0.792c0.172,0.184,0.418,0.275,0.738,0.275c0.352,0,0.652-0.1,0.9-0.3L277.764,42.988z"/>
				<path d="M279.174,35.56c-0.148-0.145-0.222-0.32-0.222-0.528s0.074-0.386,0.222-0.534c0.148-0.147,0.333-0.222,0.558-0.222
					c0.224,0,0.41,0.07,0.558,0.21c0.148,0.14,0.222,0.314,0.222,0.522c0,0.216-0.074,0.397-0.222,0.546
					c-0.148,0.147-0.334,0.222-0.558,0.222C279.507,35.776,279.322,35.704,279.174,35.56z M279.156,37h1.152v6.36h-1.152V37z"/>
				<path d="M283.524,43.012c-0.504-0.28-0.898-0.666-1.183-1.158c-0.284-0.492-0.426-1.05-0.426-1.674s0.142-1.183,0.426-1.674
					c0.284-0.492,0.678-0.877,1.183-1.152c0.504-0.276,1.071-0.414,1.704-0.414c0.632,0,1.198,0.138,1.698,0.414
					c0.5,0.275,0.893,0.66,1.176,1.152c0.284,0.491,0.426,1.05,0.426,1.674s-0.143,1.182-0.426,1.674s-0.676,0.878-1.176,1.158
					c-0.5,0.279-1.066,0.42-1.698,0.42C284.595,43.432,284.028,43.292,283.524,43.012z M286.326,42.142
					c0.324-0.188,0.578-0.452,0.762-0.792c0.184-0.34,0.276-0.73,0.276-1.17c0-0.44-0.092-0.83-0.276-1.17
					c-0.184-0.34-0.438-0.603-0.762-0.786c-0.324-0.185-0.69-0.276-1.098-0.276c-0.408,0-0.774,0.092-1.098,0.276
					c-0.324,0.184-0.58,0.446-0.768,0.786c-0.188,0.34-0.282,0.729-0.282,1.17c0,0.439,0.094,0.83,0.282,1.17
					c0.188,0.34,0.444,0.604,0.768,0.792c0.324,0.188,0.69,0.282,1.098,0.282C285.636,42.424,286.001,42.33,286.326,42.142z"/>
				<path d="M295.446,37.642c0.476,0.468,0.714,1.154,0.714,2.058v3.66h-1.152v-3.528c0-0.615-0.148-1.08-0.444-1.392
					c-0.296-0.312-0.72-0.468-1.272-0.468c-0.624,0-1.116,0.182-1.476,0.546s-0.54,0.886-0.54,1.565v3.276h-1.152V37h1.104v0.96
					c0.232-0.327,0.546-0.579,0.942-0.756c0.396-0.176,0.846-0.264,1.35-0.264C294.328,36.94,294.969,37.174,295.446,37.642z"/>
				<path d="M311.381,37.636c0.468,0.464,0.702,1.151,0.702,2.063v3.66h-1.152v-3.528c0-0.615-0.142-1.08-0.426-1.392
					c-0.284-0.312-0.689-0.468-1.218-0.468c-0.584,0-1.048,0.182-1.392,0.546c-0.345,0.364-0.517,0.886-0.517,1.565v3.276h-1.152
					v-3.528c0-0.615-0.142-1.08-0.426-1.392c-0.284-0.312-0.69-0.468-1.218-0.468c-0.584,0-1.048,0.182-1.392,0.546
					c-0.344,0.364-0.517,0.886-0.517,1.565v3.276h-1.151V37h1.104v0.948c0.232-0.328,0.536-0.578,0.912-0.75
					s0.804-0.258,1.284-0.258c0.496,0,0.936,0.1,1.32,0.3s0.68,0.492,0.888,0.876c0.24-0.368,0.574-0.655,1.002-0.864
					c0.428-0.208,0.91-0.312,1.446-0.312C310.28,36.94,310.914,37.172,311.381,37.636z"/>
				<path d="M318.545,37.588c0.468,0.433,0.702,1.076,0.702,1.933v3.84h-1.092v-0.84c-0.192,0.296-0.466,0.521-0.822,0.678
					c-0.356,0.156-0.778,0.234-1.266,0.234c-0.712,0-1.282-0.172-1.71-0.517c-0.428-0.344-0.642-0.796-0.642-1.355
					c0-0.561,0.204-1.01,0.612-1.351c0.408-0.34,1.056-0.51,1.944-0.51h1.824v-0.228c0-0.496-0.144-0.876-0.432-1.141
					c-0.288-0.264-0.712-0.396-1.272-0.396c-0.376,0-0.744,0.062-1.104,0.186c-0.36,0.124-0.664,0.29-0.912,0.498l-0.48-0.863
					c0.328-0.265,0.72-0.467,1.176-0.606s0.939-0.21,1.452-0.21C317.403,36.94,318.078,37.156,318.545,37.588z M317.399,42.25
					c0.32-0.195,0.552-0.474,0.696-0.834v-0.888h-1.775c-0.977,0-1.464,0.328-1.464,0.984c0,0.319,0.124,0.571,0.372,0.756
					c0.248,0.184,0.592,0.275,1.032,0.275C316.7,42.544,317.08,42.446,317.399,42.25z"/>
				<path d="M321.401,35.56c-0.148-0.145-0.222-0.32-0.222-0.528s0.074-0.386,0.222-0.534c0.148-0.147,0.333-0.222,0.558-0.222
					c0.224,0,0.41,0.07,0.558,0.21c0.148,0.14,0.222,0.314,0.222,0.522c0,0.216-0.074,0.397-0.222,0.546
					c-0.148,0.147-0.334,0.222-0.558,0.222C321.735,35.776,321.549,35.704,321.401,35.56z M321.383,37h1.152v6.36h-1.152V37z"/>
				<path d="M325.055,43.222c-0.48-0.141-0.856-0.318-1.128-0.534l0.48-0.912c0.28,0.2,0.62,0.36,1.02,0.48
					c0.4,0.119,0.804,0.18,1.212,0.18c1.008,0,1.512-0.288,1.512-0.864c0-0.192-0.068-0.344-0.204-0.456
					c-0.136-0.111-0.306-0.193-0.51-0.246c-0.204-0.052-0.494-0.109-0.87-0.174c-0.512-0.08-0.93-0.172-1.254-0.276
					c-0.324-0.104-0.602-0.279-0.834-0.527c-0.232-0.248-0.348-0.596-0.348-1.044c0-0.576,0.24-1.038,0.72-1.387
					c0.48-0.348,1.124-0.521,1.932-0.521c0.424,0,0.848,0.052,1.272,0.156c0.424,0.104,0.772,0.244,1.044,0.42l-0.492,0.912
					c-0.52-0.336-1.132-0.504-1.836-0.504c-0.488,0-0.86,0.08-1.116,0.239c-0.256,0.16-0.384,0.372-0.384,0.637
					c0,0.208,0.072,0.371,0.216,0.491c0.145,0.12,0.322,0.208,0.534,0.265c0.212,0.056,0.51,0.12,0.894,0.191
					c0.512,0.089,0.926,0.183,1.242,0.282c0.316,0.101,0.586,0.271,0.81,0.51c0.224,0.24,0.336,0.576,0.336,1.009
					c0,0.575-0.246,1.033-0.738,1.373c-0.492,0.341-1.162,0.511-2.01,0.511C326.035,43.432,325.535,43.362,325.055,43.222z"/>
				<path d="M331.763,43.012c-0.504-0.28-0.898-0.666-1.182-1.158s-0.426-1.05-0.426-1.674s0.143-1.183,0.426-1.674
					c0.284-0.492,0.678-0.877,1.182-1.152c0.504-0.276,1.072-0.414,1.704-0.414c0.632,0,1.198,0.138,1.698,0.414
					c0.5,0.275,0.892,0.66,1.176,1.152c0.284,0.491,0.426,1.05,0.426,1.674s-0.142,1.182-0.426,1.674
					c-0.284,0.492-0.676,0.878-1.176,1.158c-0.5,0.279-1.066,0.42-1.698,0.42C332.835,43.432,332.267,43.292,331.763,43.012z
					 M334.565,42.142c0.324-0.188,0.578-0.452,0.762-0.792s0.276-0.73,0.276-1.17c0-0.44-0.092-0.83-0.276-1.17
					s-0.438-0.603-0.762-0.786c-0.324-0.185-0.689-0.276-1.098-0.276s-0.774,0.092-1.098,0.276c-0.324,0.184-0.58,0.446-0.768,0.786
					s-0.282,0.729-0.282,1.17c0,0.439,0.094,0.83,0.282,1.17s0.444,0.604,0.768,0.792c0.324,0.188,0.69,0.282,1.098,0.282
					S334.241,42.33,334.565,42.142z"/>
				<path d="M343.685,37.642c0.476,0.468,0.714,1.154,0.714,2.058v3.66h-1.152v-3.528c0-0.615-0.148-1.08-0.444-1.392
					c-0.296-0.312-0.72-0.468-1.272-0.468c-0.624,0-1.116,0.182-1.476,0.546c-0.36,0.364-0.54,0.886-0.54,1.565v3.276h-1.152V37
					h1.104v0.96c0.231-0.327,0.546-0.579,0.941-0.756c0.396-0.176,0.846-0.264,1.351-0.264
					C342.567,36.94,343.209,37.174,343.685,37.642z"/>
				<path d="M227.628,81.664c-0.24-0.063-0.44-0.16-0.6-0.288l0.372-0.888c0.24,0.2,0.552,0.3,0.936,0.3
					c0.304,0,0.538-0.094,0.702-0.281c0.164-0.188,0.246-0.467,0.246-0.835V73h1.151v6.648c0,0.656-0.176,1.172-0.528,1.548
					s-0.852,0.564-1.5,0.564C228.128,81.76,227.869,81.728,227.628,81.664z M229.302,71.56c-0.148-0.145-0.222-0.32-0.222-0.528
					s0.074-0.386,0.222-0.534c0.148-0.147,0.334-0.222,0.558-0.222s0.41,0.07,0.558,0.21c0.147,0.14,0.222,0.314,0.222,0.522
					c0,0.216-0.074,0.397-0.222,0.546c-0.148,0.147-0.334,0.222-0.558,0.222S229.45,71.704,229.302,71.56z"/>
				<path d="M238.56,73v6.36h-1.092V78.4c-0.232,0.328-0.538,0.582-0.918,0.762c-0.38,0.181-0.794,0.271-1.242,0.271
					c-0.848,0-1.516-0.234-2.004-0.702s-0.732-1.158-0.732-2.07V73h1.152v3.528c0,0.616,0.148,1.082,0.444,1.398
					c0.296,0.315,0.72,0.474,1.271,0.474c0.608,0,1.088-0.184,1.44-0.552c0.352-0.368,0.528-0.889,0.528-1.561V73H238.56z"/>
				<path d="M240.756,70.456h1.151v8.904h-1.151V70.456z"/>
				<path d="M244.122,71.56c-0.148-0.145-0.222-0.32-0.222-0.528s0.074-0.386,0.222-0.534c0.148-0.147,0.333-0.222,0.558-0.222
					c0.224,0,0.41,0.07,0.558,0.21c0.148,0.14,0.222,0.314,0.222,0.522c0,0.216-0.074,0.397-0.222,0.546
					c-0.148,0.147-0.334,0.222-0.558,0.222C244.456,71.776,244.27,71.704,244.122,71.56z M244.104,73h1.152v6.36h-1.152V73z"/>
				<path d="M253.176,76.564h-5.16c0.072,0.56,0.318,1.01,0.738,1.35c0.42,0.341,0.942,0.511,1.566,0.511
					c0.76,0,1.372-0.257,1.836-0.769l0.636,0.744c-0.288,0.336-0.646,0.592-1.074,0.768c-0.428,0.177-0.906,0.265-1.434,0.265
					c-0.672,0-1.268-0.139-1.788-0.414c-0.52-0.276-0.922-0.662-1.206-1.158c-0.284-0.496-0.426-1.056-0.426-1.68
					c0-0.616,0.138-1.172,0.414-1.668c0.276-0.496,0.656-0.883,1.14-1.158c0.484-0.276,1.03-0.414,1.638-0.414
					c0.607,0,1.149,0.138,1.626,0.414c0.476,0.275,0.848,0.662,1.116,1.158s0.402,1.063,0.402,1.704
					C253.2,76.304,253.192,76.42,253.176,76.564z M248.67,74.416c-0.372,0.336-0.59,0.776-0.654,1.32h4.08
					c-0.064-0.536-0.282-0.974-0.654-1.314c-0.372-0.34-0.834-0.51-1.386-0.51C249.504,73.912,249.042,74.08,248.67,74.416z"/>
				<path d="M260.118,73.642c0.476,0.468,0.714,1.154,0.714,2.058v3.66h-1.151v-3.528c0-0.615-0.148-1.08-0.444-1.392
					c-0.296-0.312-0.72-0.468-1.272-0.468c-0.624,0-1.116,0.182-1.476,0.546c-0.36,0.364-0.54,0.886-0.54,1.565v3.276h-1.152V73
					h1.104v0.96c0.232-0.327,0.546-0.579,0.942-0.756c0.396-0.176,0.846-0.264,1.35-0.264C259,72.94,259.642,73.174,260.118,73.642z
					"/>
				<path d="M262.668,79.198c-0.16-0.156-0.24-0.354-0.24-0.594c0-0.232,0.08-0.426,0.24-0.582c0.16-0.156,0.352-0.234,0.576-0.234
					c0.224,0,0.412,0.076,0.564,0.229c0.152,0.151,0.228,0.348,0.228,0.588s-0.078,0.438-0.233,0.594
					c-0.156,0.156-0.342,0.234-0.559,0.234C263.02,79.432,262.828,79.354,262.668,79.198z"/>
				<path d="M266.585,79.012c-0.508-0.28-0.905-0.666-1.193-1.158s-0.433-1.05-0.433-1.674s0.145-1.183,0.433-1.674
					c0.288-0.492,0.686-0.877,1.193-1.152c0.508-0.276,1.086-0.414,1.734-0.414c0.576,0,1.09,0.116,1.542,0.348
					c0.452,0.232,0.802,0.568,1.05,1.008l-0.876,0.564c-0.2-0.304-0.448-0.532-0.744-0.684c-0.296-0.152-0.624-0.229-0.983-0.229
					c-0.416,0-0.791,0.092-1.122,0.276c-0.332,0.184-0.592,0.446-0.78,0.786s-0.282,0.729-0.282,1.17
					c0,0.448,0.094,0.842,0.282,1.182s0.448,0.603,0.78,0.786c0.332,0.184,0.706,0.276,1.122,0.276c0.359,0,0.688-0.076,0.983-0.229
					c0.296-0.151,0.544-0.38,0.744-0.684l0.876,0.552c-0.248,0.44-0.598,0.778-1.05,1.014c-0.452,0.236-0.966,0.354-1.542,0.354
					C267.672,79.432,267.094,79.292,266.585,79.012z"/>
				<path d="M277.638,73.642c0.476,0.468,0.714,1.154,0.714,2.058v3.66H277.2v-3.528c0-0.615-0.148-1.08-0.444-1.392
					c-0.296-0.312-0.72-0.468-1.272-0.468c-0.624,0-1.116,0.182-1.476,0.546c-0.36,0.364-0.54,0.886-0.54,1.565v3.276h-1.152v-8.904
					h1.152V73.9c0.24-0.304,0.554-0.54,0.942-0.708s0.822-0.252,1.302-0.252C276.52,72.94,277.162,73.174,277.638,73.642z"/>
				<path d="M284.826,73.588c0.468,0.433,0.702,1.076,0.702,1.933v3.84h-1.092v-0.84c-0.192,0.296-0.466,0.521-0.822,0.678
					c-0.356,0.156-0.778,0.234-1.266,0.234c-0.712,0-1.282-0.172-1.71-0.517c-0.428-0.344-0.642-0.796-0.642-1.355
					c0-0.561,0.204-1.01,0.612-1.351c0.408-0.34,1.056-0.51,1.944-0.51h1.824v-0.228c0-0.496-0.144-0.876-0.432-1.141
					c-0.288-0.264-0.712-0.396-1.272-0.396c-0.376,0-0.744,0.062-1.104,0.186c-0.36,0.124-0.664,0.29-0.912,0.498l-0.479-0.863
					c0.328-0.265,0.72-0.467,1.176-0.606s0.94-0.21,1.452-0.21C283.684,72.94,284.358,73.156,284.826,73.588z M283.68,78.25
					c0.319-0.195,0.552-0.474,0.696-0.834v-0.888H282.6c-0.977,0-1.464,0.328-1.464,0.984c0,0.319,0.124,0.571,0.372,0.756
					c0.248,0.184,0.592,0.275,1.032,0.275S283.36,78.446,283.68,78.25z"/>
				<path d="M287.664,70.456h1.152v8.904h-1.152V70.456z"/>
				<path d="M300.87,73.636c0.468,0.464,0.702,1.151,0.702,2.063v3.66h-1.152v-3.528c0-0.615-0.142-1.08-0.426-1.392
					c-0.284-0.312-0.689-0.468-1.218-0.468c-0.584,0-1.048,0.182-1.392,0.546c-0.345,0.364-0.517,0.886-0.517,1.565v3.276h-1.152
					v-3.528c0-0.615-0.142-1.08-0.426-1.392c-0.284-0.312-0.69-0.468-1.218-0.468c-0.584,0-1.048,0.182-1.392,0.546
					c-0.344,0.364-0.517,0.886-0.517,1.565v3.276h-1.151V73h1.104v0.948c0.232-0.328,0.536-0.578,0.912-0.75
					s0.804-0.258,1.284-0.258c0.496,0,0.936,0.1,1.32,0.3s0.68,0.492,0.888,0.876c0.24-0.368,0.574-0.655,1.002-0.864
					c0.428-0.208,0.91-0.312,1.446-0.312C299.768,72.94,300.402,73.172,300.87,73.636z"/>
				<path d="M308.034,73.588c0.468,0.433,0.702,1.076,0.702,1.933v3.84h-1.092v-0.84c-0.192,0.296-0.466,0.521-0.822,0.678
					c-0.356,0.156-0.778,0.234-1.266,0.234c-0.712,0-1.282-0.172-1.71-0.517c-0.428-0.344-0.642-0.796-0.642-1.355
					c0-0.561,0.204-1.01,0.612-1.351c0.408-0.34,1.056-0.51,1.944-0.51h1.824v-0.228c0-0.496-0.144-0.876-0.432-1.141
					c-0.288-0.264-0.712-0.396-1.272-0.396c-0.376,0-0.744,0.062-1.104,0.186c-0.36,0.124-0.664,0.29-0.912,0.498l-0.48-0.863
					c0.328-0.265,0.72-0.467,1.176-0.606s0.939-0.21,1.452-0.21C306.892,72.94,307.566,73.156,308.034,73.588z M306.888,78.25
					c0.32-0.195,0.552-0.474,0.696-0.834v-0.888h-1.775c-0.977,0-1.464,0.328-1.464,0.984c0,0.319,0.124,0.571,0.372,0.756
					c0.248,0.184,0.592,0.275,1.032,0.275C306.188,78.544,306.568,78.446,306.888,78.25z"/>
				<path d="M316.194,73.642c0.476,0.468,0.714,1.154,0.714,2.058v3.66h-1.152v-3.528c0-0.615-0.148-1.08-0.444-1.392
					c-0.296-0.312-0.72-0.468-1.272-0.468c-0.624,0-1.116,0.182-1.476,0.546s-0.54,0.886-0.54,1.565v3.276h-1.152V73h1.104v0.96
					c0.232-0.327,0.546-0.579,0.942-0.756c0.396-0.176,0.846-0.264,1.35-0.264C315.076,72.94,315.717,73.174,316.194,73.642z"/>
				<path d="M325.08,70.456v8.904h-1.104v-1.008c-0.256,0.352-0.58,0.62-0.972,0.804c-0.392,0.185-0.824,0.276-1.296,0.276
					c-0.616,0-1.168-0.136-1.656-0.408c-0.488-0.271-0.87-0.654-1.146-1.146c-0.276-0.491-0.414-1.058-0.414-1.697
					c0-0.641,0.138-1.204,0.414-1.692c0.276-0.488,0.658-0.868,1.146-1.14c0.488-0.272,1.04-0.408,1.656-0.408
					c0.456,0,0.876,0.086,1.26,0.258c0.384,0.172,0.704,0.426,0.96,0.762v-3.504H325.08z M322.896,78.142
					c0.328-0.188,0.584-0.452,0.768-0.792c0.184-0.34,0.276-0.73,0.276-1.17c0-0.44-0.092-0.83-0.276-1.17
					c-0.184-0.34-0.44-0.603-0.768-0.786c-0.328-0.185-0.692-0.276-1.092-0.276c-0.408,0-0.773,0.092-1.098,0.276
					c-0.324,0.184-0.58,0.446-0.768,0.786s-0.282,0.729-0.282,1.17c0,0.439,0.094,0.83,0.282,1.17s0.444,0.604,0.768,0.792
					c0.324,0.188,0.69,0.282,1.098,0.282C322.204,78.424,322.567,78.33,322.896,78.142z"/>
				<path d="M329.255,73.228c0.392-0.192,0.868-0.288,1.428-0.288v1.116c-0.064-0.008-0.152-0.013-0.264-0.013
					c-0.624,0-1.114,0.187-1.47,0.559c-0.356,0.372-0.534,0.902-0.534,1.59v3.168h-1.152V73h1.104v1.068
					C328.567,73.7,328.863,73.42,329.255,73.228z"/>
				<path d="M332.118,71.56c-0.148-0.145-0.223-0.32-0.223-0.528s0.074-0.386,0.223-0.534c0.147-0.147,0.333-0.222,0.558-0.222
					c0.224,0,0.41,0.07,0.558,0.21s0.222,0.314,0.222,0.522c0,0.216-0.074,0.397-0.222,0.546c-0.148,0.147-0.334,0.222-0.558,0.222
					C332.451,71.776,332.265,71.704,332.118,71.56z M332.099,73h1.152v6.36h-1.152V73z"/>
				<path d="M341.171,76.564h-5.16c0.072,0.56,0.318,1.01,0.738,1.35c0.42,0.341,0.941,0.511,1.565,0.511
					c0.76,0,1.372-0.257,1.836-0.769l0.636,0.744c-0.288,0.336-0.646,0.592-1.074,0.768c-0.428,0.177-0.906,0.265-1.434,0.265
					c-0.672,0-1.268-0.139-1.788-0.414c-0.52-0.276-0.922-0.662-1.206-1.158s-0.426-1.056-0.426-1.68
					c0-0.616,0.139-1.172,0.414-1.668c0.276-0.496,0.656-0.883,1.141-1.158c0.483-0.276,1.029-0.414,1.638-0.414
					c0.608,0,1.15,0.138,1.626,0.414c0.476,0.275,0.848,0.662,1.116,1.158c0.268,0.496,0.402,1.063,0.402,1.704
					C341.195,76.304,341.187,76.42,341.171,76.564z M336.666,74.416c-0.372,0.336-0.59,0.776-0.654,1.32h4.08
					c-0.064-0.536-0.282-0.974-0.654-1.314c-0.372-0.34-0.834-0.51-1.386-0.51S337.037,74.08,336.666,74.416z"/>
				<path d="M344.783,73.228c0.392-0.192,0.868-0.288,1.428-0.288v1.116c-0.064-0.008-0.152-0.013-0.264-0.013
					c-0.624,0-1.114,0.187-1.47,0.559s-0.534,0.902-0.534,1.59v3.168h-1.151V73h1.104v1.068
					C344.095,73.7,344.391,73.42,344.783,73.228z"/>
				<path d="M355.463,71.542c0.848,0.444,1.51,1.066,1.986,1.866s0.714,1.712,0.714,2.736s-0.188,1.828-0.564,2.412
					s-0.9,0.876-1.572,0.876c-0.384,0-0.702-0.098-0.954-0.294s-0.414-0.479-0.486-0.847c-0.24,0.368-0.554,0.65-0.942,0.847
					c-0.388,0.196-0.834,0.294-1.338,0.294c-0.56,0-1.064-0.132-1.512-0.396c-0.448-0.264-0.798-0.63-1.05-1.098
					s-0.378-0.998-0.378-1.59c0-0.584,0.126-1.11,0.378-1.578s0.602-0.832,1.05-1.092c0.448-0.26,0.952-0.391,1.512-0.391
					c0.464,0,0.884,0.086,1.26,0.258c0.375,0.173,0.688,0.427,0.936,0.763v-0.973h1.044v4.32c0,0.296,0.064,0.515,0.192,0.654
					s0.292,0.21,0.492,0.21c0.353,0,0.626-0.206,0.822-0.618s0.294-0.994,0.294-1.746c0-0.888-0.2-1.67-0.6-2.346
					c-0.4-0.676-0.962-1.202-1.687-1.578c-0.724-0.376-1.554-0.564-2.49-0.564c-0.944,0-1.778,0.196-2.502,0.589
					c-0.724,0.392-1.286,0.939-1.686,1.644c-0.4,0.704-0.6,1.508-0.6,2.412c0,0.912,0.198,1.72,0.594,2.424
					c0.396,0.704,0.952,1.254,1.668,1.65c0.716,0.396,1.542,0.594,2.478,0.594c0.393,0,0.792-0.044,1.2-0.132
					c0.408-0.089,0.78-0.221,1.116-0.396l0.264,0.769c-0.352,0.184-0.76,0.323-1.224,0.42c-0.464,0.096-0.916,0.144-1.356,0.144
					c-1.096,0-2.069-0.233-2.922-0.702c-0.852-0.468-1.514-1.118-1.986-1.949c-0.472-0.832-0.708-1.772-0.708-2.82
					s0.238-1.984,0.714-2.809c0.476-0.823,1.144-1.468,2.004-1.932c0.859-0.464,1.842-0.696,2.946-0.696
					C353.651,70.876,354.615,71.098,355.463,71.542z M353.525,78.232c0.308-0.176,0.552-0.426,0.732-0.75s0.27-0.702,0.27-1.134
					c0-0.433-0.09-0.811-0.27-1.135c-0.18-0.323-0.424-0.571-0.732-0.743s-0.658-0.259-1.05-0.259c-0.608,0-1.1,0.194-1.476,0.582
					c-0.376,0.389-0.564,0.906-0.564,1.555c0,0.647,0.19,1.168,0.57,1.56c0.38,0.393,0.87,0.588,1.47,0.588
					C352.867,78.496,353.217,78.408,353.525,78.232z"/>
				<path d="M360.851,79.012c-0.504-0.28-0.898-0.666-1.182-1.158c-0.284-0.492-0.426-1.05-0.426-1.674s0.142-1.183,0.426-1.674
					c0.284-0.492,0.678-0.877,1.182-1.152c0.504-0.276,1.072-0.414,1.704-0.414s1.198,0.138,1.698,0.414
					c0.5,0.275,0.892,0.66,1.176,1.152c0.284,0.491,0.426,1.05,0.426,1.674s-0.142,1.182-0.426,1.674s-0.676,0.878-1.176,1.158
					c-0.5,0.279-1.066,0.42-1.698,0.42S361.355,79.292,360.851,79.012z M363.653,78.142c0.324-0.188,0.578-0.452,0.762-0.792
					c0.184-0.34,0.275-0.73,0.275-1.17c0-0.44-0.092-0.83-0.275-1.17c-0.185-0.34-0.438-0.603-0.762-0.786
					c-0.324-0.185-0.69-0.276-1.098-0.276s-0.774,0.092-1.098,0.276c-0.324,0.184-0.58,0.446-0.769,0.786
					c-0.188,0.34-0.282,0.729-0.282,1.17c0,0.439,0.094,0.83,0.282,1.17c0.188,0.34,0.444,0.604,0.769,0.792
					c0.324,0.188,0.689,0.282,1.098,0.282S363.33,78.33,363.653,78.142z"/>
				<path d="M369.443,73.228c0.392-0.192,0.868-0.288,1.428-0.288v1.116c-0.064-0.008-0.152-0.013-0.264-0.013
					c-0.624,0-1.114,0.187-1.47,0.559c-0.356,0.372-0.534,0.902-0.534,1.59v3.168h-1.152V73h1.104v1.068
					C368.755,73.7,369.051,73.42,369.443,73.228z"/>
				<path d="M376.613,73.588c0.468,0.433,0.702,1.076,0.702,1.933v3.84h-1.092v-0.84c-0.192,0.296-0.466,0.521-0.822,0.678
					c-0.356,0.156-0.778,0.234-1.266,0.234c-0.712,0-1.282-0.172-1.71-0.517c-0.428-0.344-0.642-0.796-0.642-1.355
					c0-0.561,0.204-1.01,0.612-1.351c0.408-0.34,1.056-0.51,1.944-0.51h1.824v-0.228c0-0.496-0.144-0.876-0.432-1.141
					c-0.288-0.264-0.712-0.396-1.272-0.396c-0.376,0-0.744,0.062-1.104,0.186c-0.36,0.124-0.664,0.29-0.912,0.498l-0.479-0.863
					c0.328-0.265,0.72-0.467,1.176-0.606s0.94-0.21,1.452-0.21C375.471,72.94,376.145,73.156,376.613,73.588z M375.467,78.25
					c0.319-0.195,0.552-0.474,0.696-0.834v-0.888h-1.776c-0.977,0-1.464,0.328-1.464,0.984c0,0.319,0.124,0.571,0.372,0.756
					c0.248,0.184,0.592,0.275,1.032,0.275S375.147,78.446,375.467,78.25z"/>
				<path d="M384.773,73.642c0.476,0.468,0.714,1.154,0.714,2.058v3.66h-1.152v-3.528c0-0.615-0.148-1.08-0.444-1.392
					c-0.296-0.312-0.72-0.468-1.272-0.468c-0.624,0-1.116,0.182-1.476,0.546c-0.36,0.364-0.54,0.886-0.54,1.565v3.276h-1.152V73
					h1.104v0.96c0.231-0.327,0.546-0.579,0.941-0.756c0.396-0.176,0.846-0.264,1.351-0.264
					C383.655,72.94,384.297,73.174,384.773,73.642z"/>
				<path d="M393.743,73v5.496c0,1.112-0.276,1.935-0.828,2.466c-0.552,0.532-1.376,0.799-2.472,0.799
					c-0.6,0-1.172-0.082-1.716-0.246s-0.984-0.398-1.32-0.702l0.552-0.888c0.296,0.256,0.662,0.457,1.098,0.605
					c0.436,0.148,0.886,0.222,1.35,0.222c0.744,0,1.294-0.176,1.65-0.527c0.355-0.353,0.534-0.889,0.534-1.608v-0.504
					c-0.272,0.328-0.606,0.574-1.002,0.738s-0.826,0.246-1.29,0.246c-0.608,0-1.158-0.13-1.65-0.391
					c-0.492-0.26-0.878-0.624-1.158-1.092s-0.42-1.002-0.42-1.602c0-0.601,0.14-1.135,0.42-1.603s0.666-0.83,1.158-1.086
					s1.042-0.384,1.65-0.384c0.48,0,0.926,0.088,1.338,0.264c0.412,0.177,0.75,0.437,1.014,0.78V73H393.743z M391.553,77.824
					c0.332-0.176,0.592-0.422,0.78-0.738c0.188-0.315,0.282-0.674,0.282-1.073c0-0.616-0.204-1.114-0.612-1.494
					s-0.932-0.57-1.572-0.57c-0.648,0-1.176,0.19-1.584,0.57c-0.408,0.38-0.612,0.878-0.612,1.494c0,0.399,0.094,0.758,0.282,1.073
					c0.188,0.316,0.448,0.562,0.78,0.738c0.332,0.176,0.71,0.264,1.134,0.264C390.847,78.088,391.221,78,391.553,77.824z"/>
				<path d="M401.663,76.564h-5.16c0.072,0.56,0.318,1.01,0.738,1.35c0.42,0.341,0.942,0.511,1.566,0.511
					c0.76,0,1.372-0.257,1.836-0.769l0.636,0.744c-0.288,0.336-0.646,0.592-1.074,0.768c-0.428,0.177-0.906,0.265-1.434,0.265
					c-0.672,0-1.269-0.139-1.788-0.414c-0.521-0.276-0.922-0.662-1.206-1.158c-0.284-0.496-0.426-1.056-0.426-1.68
					c0-0.616,0.138-1.172,0.414-1.668s0.656-0.883,1.14-1.158c0.484-0.276,1.03-0.414,1.638-0.414c0.608,0,1.15,0.138,1.626,0.414
					c0.476,0.275,0.848,0.662,1.116,1.158s0.402,1.063,0.402,1.704C401.687,76.304,401.679,76.42,401.663,76.564z M397.157,74.416
					c-0.372,0.336-0.59,0.776-0.654,1.32h4.08c-0.064-0.536-0.282-0.974-0.654-1.314c-0.372-0.34-0.834-0.51-1.386-0.51
					C397.991,73.912,397.529,74.08,397.157,74.416z"/>
				<path d="M402.983,79.198c-0.16-0.156-0.24-0.354-0.24-0.594c0-0.232,0.08-0.426,0.24-0.582c0.16-0.156,0.352-0.234,0.576-0.234
					s0.412,0.076,0.564,0.229c0.152,0.151,0.228,0.348,0.228,0.588s-0.078,0.438-0.234,0.594s-0.342,0.234-0.558,0.234
					C403.334,79.432,403.143,79.354,402.983,79.198z"/>
				<path d="M407.302,72.448V73h1.849v0.948h-1.824v5.412h-1.152v-5.412h-1.08V73h1.08v-0.563c0-0.632,0.184-1.132,0.552-1.5
					c0.368-0.368,0.884-0.552,1.548-0.552c0.256,0,0.496,0.031,0.72,0.096c0.224,0.064,0.416,0.156,0.576,0.276l-0.348,0.876
					c-0.264-0.2-0.56-0.301-0.888-0.301C407.646,71.332,407.302,71.704,407.302,72.448z"/>
				<path d="M413.194,73.228c0.392-0.192,0.868-0.288,1.428-0.288v1.116c-0.064-0.008-0.152-0.013-0.264-0.013
					c-0.624,0-1.114,0.187-1.47,0.559s-0.534,0.902-0.534,1.59v3.168h-1.151V73h1.104v1.068
					C412.506,73.7,412.802,73.42,413.194,73.228z"/>
				<path d="M231.312,88.96v8.4h-1.188v-7.356h-1.896V88.96H231.312z"/>
				<path d="M242.676,97.36l-1.812-2.58c-0.224,0.017-0.4,0.024-0.528,0.024h-2.076v2.556h-1.2v-8.4h3.276
					c1.088,0,1.944,0.261,2.568,0.78c0.624,0.521,0.936,1.236,0.936,2.148c0,0.647-0.16,1.199-0.48,1.655s-0.776,0.788-1.368,0.996
					l1.992,2.82H242.676z M242.041,93.292c0.399-0.327,0.6-0.796,0.6-1.403c0-0.608-0.2-1.074-0.6-1.398
					c-0.4-0.324-0.98-0.486-1.74-0.486h-2.04v3.78h2.04C241.06,93.784,241.64,93.62,242.041,93.292z"/>
				<path d="M251.544,91v6.36h-1.092V96.4c-0.232,0.328-0.538,0.582-0.918,0.762c-0.38,0.181-0.794,0.271-1.242,0.271
					c-0.849,0-1.517-0.234-2.004-0.702s-0.732-1.158-0.732-2.07V91h1.152v3.528c0,0.616,0.147,1.082,0.443,1.398
					c0.296,0.315,0.72,0.474,1.272,0.474c0.607,0,1.088-0.184,1.44-0.552s0.528-0.889,0.528-1.561V91H251.544z"/>
				<path d="M259.464,94.564h-5.16c0.072,0.56,0.318,1.01,0.738,1.35c0.42,0.341,0.942,0.511,1.566,0.511
					c0.76,0,1.372-0.257,1.836-0.769l0.636,0.744c-0.288,0.336-0.646,0.592-1.074,0.768c-0.428,0.177-0.906,0.265-1.434,0.265
					c-0.672,0-1.268-0.139-1.788-0.414c-0.52-0.276-0.922-0.662-1.206-1.158c-0.284-0.496-0.426-1.056-0.426-1.68
					c0-0.616,0.138-1.172,0.414-1.668c0.276-0.496,0.656-0.883,1.14-1.158c0.484-0.276,1.03-0.414,1.638-0.414
					c0.607,0,1.149,0.138,1.626,0.414c0.476,0.275,0.848,0.662,1.116,1.158s0.402,1.063,0.402,1.704
					C259.488,94.304,259.48,94.42,259.464,94.564z M254.958,92.416c-0.372,0.336-0.59,0.776-0.654,1.32h4.08
					c-0.064-0.536-0.282-0.974-0.654-1.314c-0.372-0.34-0.834-0.51-1.386-0.51C255.792,91.912,255.33,92.08,254.958,92.416z"/>
				<path d="M272.268,97.36l-0.012-6.12l-3.036,5.101h-0.552l-3.036-5.064v6.084h-1.152v-8.4h0.984l3.504,5.904l3.456-5.904h0.983
					l0.012,8.4H272.268z"/>
				<path d="M280.11,91.588c0.468,0.433,0.702,1.076,0.702,1.933v3.84h-1.092v-0.84c-0.192,0.296-0.466,0.521-0.822,0.678
					c-0.356,0.156-0.778,0.234-1.267,0.234c-0.712,0-1.282-0.172-1.71-0.517c-0.428-0.344-0.642-0.796-0.642-1.355
					c0-0.561,0.204-1.01,0.612-1.351c0.408-0.34,1.056-0.51,1.944-0.51h1.824v-0.228c0-0.496-0.144-0.876-0.432-1.141
					c-0.288-0.264-0.712-0.396-1.272-0.396c-0.376,0-0.744,0.062-1.104,0.186c-0.36,0.124-0.665,0.29-0.912,0.498l-0.48-0.863
					c0.328-0.265,0.72-0.467,1.176-0.606s0.94-0.21,1.452-0.21C278.967,90.94,279.642,91.156,280.11,91.588z M278.963,96.25
					c0.32-0.195,0.552-0.474,0.696-0.834v-0.888h-1.776c-0.976,0-1.464,0.328-1.464,0.984c0,0.319,0.124,0.571,0.372,0.756
					c0.248,0.184,0.592,0.275,1.032,0.275C278.264,96.544,278.644,96.446,278.963,96.25z"/>
				<path d="M288.875,91v6.36h-1.092V96.4c-0.232,0.328-0.538,0.582-0.918,0.762c-0.38,0.181-0.794,0.271-1.242,0.271
					c-0.848,0-1.516-0.234-2.004-0.702s-0.732-1.158-0.732-2.07V91h1.152v3.528c0,0.616,0.148,1.082,0.444,1.398
					c0.296,0.315,0.72,0.474,1.271,0.474c0.608,0,1.088-0.184,1.44-0.552c0.352-0.368,0.528-0.889,0.528-1.561V91H288.875z"/>
				<path d="M293.063,91.228c0.392-0.192,0.868-0.288,1.428-0.288v1.116c-0.064-0.008-0.152-0.013-0.264-0.013
					c-0.624,0-1.114,0.187-1.47,0.559s-0.534,0.902-0.534,1.59v3.168h-1.151V91h1.104v1.068
					C292.375,91.7,292.671,91.42,293.063,91.228z"/>
				<path d="M295.925,89.56c-0.148-0.145-0.222-0.32-0.222-0.528s0.074-0.386,0.222-0.534c0.148-0.147,0.334-0.222,0.558-0.222
					s0.41,0.07,0.558,0.21c0.148,0.14,0.222,0.314,0.222,0.522c0,0.216-0.074,0.397-0.222,0.546
					c-0.148,0.147-0.334,0.222-0.558,0.222S296.074,89.704,295.925,89.56z M295.908,91h1.151v6.36h-1.151V91z"/>
				<path d="M300.293,97.012c-0.508-0.28-0.906-0.666-1.194-1.158s-0.432-1.05-0.432-1.674s0.144-1.183,0.432-1.674
					c0.288-0.492,0.686-0.877,1.194-1.152c0.508-0.276,1.086-0.414,1.734-0.414c0.576,0,1.09,0.116,1.542,0.348
					c0.452,0.232,0.802,0.568,1.05,1.008l-0.876,0.564c-0.2-0.304-0.448-0.532-0.744-0.684c-0.296-0.152-0.624-0.229-0.984-0.229
					c-0.416,0-0.79,0.092-1.122,0.276c-0.332,0.184-0.592,0.446-0.78,0.786s-0.282,0.729-0.282,1.17
					c0,0.448,0.094,0.842,0.282,1.182s0.448,0.603,0.78,0.786s0.706,0.276,1.122,0.276c0.36,0,0.688-0.076,0.984-0.229
					c0.296-0.151,0.544-0.38,0.744-0.684l0.876,0.552c-0.248,0.44-0.599,0.778-1.05,1.014c-0.452,0.236-0.966,0.354-1.542,0.354
					C301.379,97.432,300.801,97.292,300.293,97.012z"/>
				<path d="M311.735,94.564h-5.16c0.072,0.56,0.318,1.01,0.738,1.35c0.42,0.341,0.942,0.511,1.566,0.511
					c0.76,0,1.372-0.257,1.836-0.769l0.636,0.744c-0.288,0.336-0.646,0.592-1.074,0.768c-0.428,0.177-0.906,0.265-1.434,0.265
					c-0.672,0-1.268-0.139-1.788-0.414c-0.52-0.276-0.922-0.662-1.206-1.158c-0.284-0.496-0.426-1.056-0.426-1.68
					c0-0.616,0.138-1.172,0.414-1.668c0.276-0.496,0.656-0.883,1.14-1.158c0.484-0.276,1.03-0.414,1.638-0.414
					c0.607,0,1.149,0.138,1.626,0.414c0.476,0.275,0.848,0.662,1.116,1.158s0.402,1.063,0.402,1.704
					C311.759,94.304,311.751,94.42,311.735,94.564z M307.229,92.416c-0.372,0.336-0.59,0.776-0.654,1.32h4.08
					c-0.064-0.536-0.282-0.974-0.654-1.314c-0.372-0.34-0.834-0.51-1.386-0.51C308.063,91.912,307.601,92.08,307.229,92.416z"/>
				<path d="M317.616,96.496c-0.624-0.64-0.937-1.56-0.937-2.76V88.96h1.2v4.729c0,1.8,0.788,2.7,2.364,2.7
					c0.768,0,1.355-0.223,1.764-0.666c0.408-0.444,0.612-1.122,0.612-2.034V88.96h1.164v4.776c0,1.208-0.312,2.13-0.937,2.766
					c-0.624,0.637-1.496,0.954-2.616,0.954C319.111,97.456,318.24,97.136,317.616,96.496z"/>
				<path d="M329.651,96.988c-0.168,0.145-0.376,0.254-0.624,0.33s-0.504,0.114-0.768,0.114c-0.64,0-1.136-0.172-1.488-0.517
					c-0.352-0.344-0.528-0.836-0.528-1.476v-3.492h-1.08V91h1.08v-1.392h1.152V91h1.824v0.948h-1.824v3.444
					c0,0.344,0.086,0.607,0.258,0.792c0.172,0.184,0.418,0.275,0.738,0.275c0.352,0,0.652-0.1,0.9-0.3L329.651,96.988z"/>
				<path d="M333.035,91.228c0.392-0.192,0.868-0.288,1.428-0.288v1.116c-0.064-0.008-0.152-0.013-0.264-0.013
					c-0.624,0-1.114,0.187-1.47,0.559s-0.534,0.902-0.534,1.59v3.168h-1.151V91h1.104v1.068
					C332.347,91.7,332.643,91.42,333.035,91.228z"/>
				<path d="M335.897,89.56c-0.148-0.145-0.222-0.32-0.222-0.528s0.074-0.386,0.222-0.534c0.148-0.147,0.334-0.222,0.558-0.222
					s0.41,0.07,0.558,0.21c0.148,0.14,0.222,0.314,0.222,0.522c0,0.216-0.074,0.397-0.222,0.546
					c-0.148,0.147-0.334,0.222-0.558,0.222S336.045,89.704,335.897,89.56z M335.879,91h1.151v6.36h-1.151V91z"/>
				<path d="M339.227,88.456h1.152v8.904h-1.152V88.456z"/>
				<path d="M342.575,88.456h1.152v8.904h-1.152V88.456z"/>
				<path d="M346.943,97.012c-0.504-0.28-0.898-0.666-1.182-1.158s-0.426-1.05-0.426-1.674s0.143-1.183,0.426-1.674
					c0.284-0.492,0.678-0.877,1.182-1.152c0.504-0.276,1.072-0.414,1.704-0.414c0.632,0,1.198,0.138,1.698,0.414
					c0.5,0.275,0.892,0.66,1.176,1.152c0.284,0.491,0.426,1.05,0.426,1.674s-0.142,1.182-0.426,1.674
					c-0.284,0.492-0.676,0.878-1.176,1.158c-0.5,0.279-1.066,0.42-1.698,0.42C348.015,97.432,347.447,97.292,346.943,97.012z
					 M349.745,96.142c0.324-0.188,0.578-0.452,0.762-0.792s0.276-0.73,0.276-1.17c0-0.44-0.092-0.83-0.276-1.17
					s-0.438-0.603-0.762-0.786c-0.324-0.185-0.689-0.276-1.098-0.276s-0.774,0.092-1.098,0.276c-0.324,0.184-0.58,0.446-0.768,0.786
					s-0.282,0.729-0.282,1.17c0,0.439,0.094,0.83,0.282,1.17s0.444,0.604,0.768,0.792c0.324,0.188,0.69,0.282,1.098,0.282
					S349.421,96.33,349.745,96.142z"/>
				<path d="M236.016,113.296h-1.596v2.064h-1.164v-2.064h-4.668v-0.84l4.296-5.496h1.296l-4.116,5.305h3.229v-1.824h1.128v1.824
					h1.596V113.296z"/>
				<path d="M244.044,113.296h-1.596v2.064h-1.164v-2.064h-4.668v-0.84l4.296-5.496h1.296l-4.116,5.305h3.228v-1.824h1.128v1.824
					h1.596V113.296z"/>
				<path d="M251.124,111.748c0.256,0.345,0.384,0.756,0.384,1.236c0,0.504-0.136,0.942-0.408,1.314
					c-0.272,0.371-0.66,0.657-1.164,0.857s-1.096,0.3-1.776,0.3c-0.672,0-1.258-0.1-1.758-0.3s-0.886-0.486-1.158-0.857
					c-0.272-0.372-0.408-0.811-0.408-1.314c0-0.48,0.126-0.892,0.378-1.236c0.252-0.344,0.618-0.607,1.098-0.792
					c-0.384-0.184-0.676-0.428-0.876-0.731s-0.3-0.664-0.3-1.08c0-0.464,0.126-0.868,0.378-1.212s0.606-0.608,1.062-0.792
					c0.456-0.185,0.984-0.276,1.584-0.276c0.608,0,1.142,0.092,1.602,0.276c0.46,0.184,0.816,0.448,1.068,0.792
					s0.378,0.748,0.378,1.212c0,0.408-0.102,0.766-0.306,1.074c-0.204,0.308-0.498,0.554-0.882,0.737
					C250.5,111.14,250.868,111.404,251.124,111.748z M249.732,114.07c0.384-0.276,0.576-0.649,0.576-1.122
					c0-0.464-0.192-0.83-0.576-1.098c-0.384-0.269-0.908-0.402-1.572-0.402c-0.664,0-1.184,0.134-1.56,0.402
					c-0.376,0.268-0.564,0.634-0.564,1.098c0,0.473,0.188,0.846,0.564,1.122s0.896,0.414,1.56,0.414
					C248.824,114.484,249.348,114.346,249.732,114.07z M246.816,108.202c-0.328,0.244-0.492,0.574-0.492,0.99
					s0.162,0.744,0.486,0.984c0.324,0.239,0.774,0.359,1.35,0.359c0.583,0,1.042-0.12,1.374-0.359
					c0.332-0.24,0.498-0.568,0.498-0.984s-0.17-0.746-0.51-0.99s-0.794-0.366-1.362-0.366S247.144,107.958,246.816,108.202z"/>
				<path d="M257.718,110.572c0.436,0.208,0.778,0.506,1.026,0.895c0.248,0.388,0.372,0.834,0.372,1.338
					c0,0.527-0.13,0.992-0.39,1.392c-0.26,0.4-0.616,0.71-1.068,0.93c-0.452,0.221-0.958,0.33-1.518,0.33
					c-1.128,0-1.998-0.363-2.61-1.092c-0.611-0.728-0.918-1.76-0.918-3.096c0-0.937,0.166-1.734,0.498-2.395s0.796-1.159,1.393-1.5
					c0.596-0.34,1.29-0.51,2.082-0.51c0.408,0,0.792,0.042,1.151,0.126c0.36,0.084,0.672,0.206,0.937,0.366l-0.456,0.936
					c-0.4-0.264-0.937-0.396-1.608-0.396c-0.872,0-1.556,0.27-2.052,0.81s-0.744,1.326-0.744,2.358c0,0.128,0.004,0.228,0.012,0.3
					c0.24-0.36,0.57-0.634,0.99-0.822c0.42-0.188,0.895-0.281,1.422-0.281C256.788,110.26,257.282,110.364,257.718,110.572z
					 M257.436,114.04c0.344-0.296,0.516-0.691,0.516-1.188s-0.174-0.89-0.522-1.183c-0.348-0.292-0.814-0.438-1.398-0.438
					c-0.376,0-0.71,0.072-1.002,0.216c-0.292,0.145-0.52,0.34-0.684,0.588s-0.246,0.524-0.246,0.828
					c0,0.296,0.078,0.566,0.234,0.811c0.156,0.244,0.384,0.439,0.684,0.588c0.3,0.147,0.658,0.222,1.074,0.222
					C256.644,114.484,257.092,114.336,257.436,114.04z"/>
				<path d="M261.678,114.946c-0.517-0.34-0.922-0.834-1.218-1.482c-0.296-0.647-0.444-1.415-0.444-2.304
					c0-0.888,0.147-1.656,0.444-2.304c0.296-0.648,0.702-1.142,1.218-1.482c0.516-0.34,1.105-0.51,1.77-0.51
					c0.656,0,1.242,0.17,1.758,0.51c0.516,0.341,0.922,0.834,1.218,1.482c0.296,0.647,0.444,1.416,0.444,2.304
					c0,0.889-0.148,1.656-0.444,2.304c-0.296,0.648-0.702,1.143-1.218,1.482s-1.102,0.51-1.758,0.51
					C262.784,115.456,262.194,115.286,261.678,114.946z M265.062,113.56c0.404-0.552,0.606-1.353,0.606-2.4
					s-0.202-1.848-0.606-2.399c-0.404-0.553-0.942-0.828-1.614-0.828c-0.68,0-1.222,0.275-1.626,0.828
					c-0.404,0.552-0.606,1.352-0.606,2.399s0.202,1.849,0.606,2.4c0.404,0.552,0.946,0.828,1.626,0.828
					C264.12,114.388,264.658,114.112,265.062,113.56z"/>
				<path d="M277.776,107.74c0.624,0.521,0.936,1.236,0.936,2.148s-0.312,1.628-0.936,2.147c-0.624,0.521-1.48,0.78-2.568,0.78
					h-2.076v2.544h-1.2v-8.4h3.275C276.295,106.96,277.152,107.22,277.776,107.74z M276.912,111.286
					c0.4-0.324,0.601-0.79,0.601-1.397c0-0.608-0.2-1.074-0.601-1.398c-0.4-0.324-0.979-0.486-1.74-0.486h-2.04v3.769h2.04
					C275.932,111.772,276.512,111.61,276.912,111.286z"/>
				<path d="M281.304,115.012c-0.504-0.28-0.898-0.666-1.182-1.158s-0.426-1.05-0.426-1.674s0.142-1.183,0.426-1.674
					c0.284-0.492,0.678-0.877,1.182-1.152c0.504-0.276,1.072-0.414,1.704-0.414s1.198,0.138,1.698,0.414
					c0.5,0.275,0.892,0.66,1.176,1.152c0.284,0.491,0.426,1.05,0.426,1.674s-0.142,1.182-0.426,1.674
					c-0.284,0.492-0.676,0.878-1.176,1.158c-0.5,0.279-1.066,0.42-1.698,0.42S281.808,115.292,281.304,115.012z M284.106,114.142
					c0.324-0.188,0.578-0.452,0.762-0.792c0.184-0.34,0.276-0.73,0.276-1.17c0-0.44-0.092-0.83-0.276-1.17
					c-0.184-0.34-0.438-0.603-0.762-0.786c-0.324-0.185-0.69-0.276-1.099-0.276c-0.408,0-0.773,0.092-1.098,0.276
					c-0.324,0.184-0.58,0.446-0.768,0.786s-0.282,0.729-0.282,1.17c0,0.439,0.094,0.83,0.282,1.17s0.444,0.604,0.768,0.792
					c0.324,0.188,0.69,0.282,1.098,0.282C283.416,114.424,283.782,114.33,284.106,114.142z"/>
				<path d="M293.226,109.642c0.476,0.468,0.714,1.154,0.714,2.058v3.66h-1.152v-3.528c0-0.615-0.148-1.08-0.444-1.392
					c-0.296-0.312-0.72-0.468-1.271-0.468c-0.624,0-1.116,0.182-1.477,0.546c-0.359,0.364-0.54,0.886-0.54,1.565v3.276h-1.151V109
					h1.104v0.96c0.232-0.327,0.546-0.579,0.942-0.756c0.396-0.176,0.846-0.264,1.35-0.264
					C292.107,108.94,292.75,109.174,293.226,109.642z"/>
				<path d="M299.652,114.988c-0.168,0.145-0.376,0.254-0.624,0.33s-0.504,0.114-0.769,0.114c-0.64,0-1.136-0.172-1.487-0.517
					c-0.353-0.344-0.528-0.836-0.528-1.476v-3.492h-1.08V109h1.08v-1.392h1.152V109h1.824v0.948h-1.824v3.444
					c0,0.344,0.085,0.607,0.258,0.792c0.172,0.184,0.418,0.275,0.738,0.275c0.352,0,0.652-0.1,0.9-0.3L299.652,114.988z"/>
				<path d="M305.057,115.162c-0.588-0.195-1.05-0.45-1.386-0.762l0.444-0.937c0.319,0.288,0.729,0.522,1.229,0.702
					c0.5,0.181,1.014,0.271,1.542,0.271c0.696,0,1.216-0.118,1.561-0.354c0.344-0.235,0.516-0.55,0.516-0.941
					c0-0.288-0.094-0.522-0.282-0.702c-0.188-0.18-0.42-0.318-0.696-0.414s-0.666-0.204-1.17-0.324
					c-0.632-0.151-1.142-0.304-1.53-0.456c-0.389-0.151-0.72-0.386-0.996-0.702c-0.276-0.315-0.414-0.741-0.414-1.277
					c0-0.448,0.118-0.853,0.354-1.212c0.236-0.36,0.594-0.648,1.074-0.864c0.48-0.216,1.076-0.324,1.788-0.324
					c0.496,0,0.984,0.064,1.464,0.192c0.48,0.128,0.892,0.312,1.236,0.552l-0.396,0.96c-0.352-0.224-0.728-0.394-1.128-0.51
					c-0.399-0.116-0.792-0.174-1.176-0.174c-0.68,0-1.19,0.124-1.53,0.372c-0.34,0.248-0.51,0.567-0.51,0.96
					c0,0.287,0.096,0.521,0.288,0.701c0.192,0.181,0.43,0.32,0.714,0.42c0.284,0.101,0.67,0.206,1.158,0.318
					c0.632,0.152,1.14,0.305,1.524,0.456c0.384,0.152,0.714,0.384,0.99,0.696c0.276,0.312,0.414,0.731,0.414,1.26
					c0,0.44-0.12,0.842-0.359,1.206c-0.24,0.364-0.604,0.652-1.092,0.864s-1.088,0.317-1.8,0.317
					C306.255,115.456,305.646,115.358,305.057,115.162z"/>
				<path d="M316.061,109.588c0.468,0.433,0.702,1.076,0.702,1.933v3.84h-1.092v-0.84c-0.192,0.296-0.466,0.521-0.822,0.678
					c-0.356,0.156-0.778,0.234-1.266,0.234c-0.712,0-1.282-0.172-1.71-0.517c-0.428-0.344-0.642-0.796-0.642-1.355
					c0-0.561,0.204-1.01,0.612-1.351c0.408-0.34,1.056-0.51,1.944-0.51h1.824v-0.228c0-0.496-0.144-0.876-0.432-1.141
					c-0.288-0.264-0.712-0.396-1.272-0.396c-0.376,0-0.744,0.062-1.104,0.186c-0.36,0.124-0.664,0.29-0.912,0.498l-0.479-0.863
					c0.328-0.265,0.72-0.467,1.176-0.606s0.94-0.21,1.452-0.21C314.919,108.94,315.593,109.156,316.061,109.588z M314.916,114.25
					c0.319-0.195,0.552-0.474,0.696-0.834v-0.888h-1.776c-0.977,0-1.464,0.328-1.464,0.984c0,0.319,0.124,0.571,0.372,0.756
					c0.248,0.184,0.592,0.275,1.032,0.275S314.595,114.446,314.916,114.25z"/>
				<path d="M318.917,107.56c-0.148-0.145-0.223-0.32-0.223-0.528s0.074-0.386,0.223-0.534c0.147-0.147,0.333-0.222,0.558-0.222
					c0.224,0,0.41,0.07,0.558,0.21s0.222,0.314,0.222,0.522c0,0.216-0.074,0.397-0.222,0.546c-0.148,0.147-0.334,0.222-0.558,0.222
					C319.251,107.776,319.065,107.704,318.917,107.56z M318.899,109h1.152v6.36h-1.152V109z"/>
				<path d="M327.569,109.642c0.476,0.468,0.714,1.154,0.714,2.058v3.66h-1.151v-3.528c0-0.615-0.148-1.08-0.444-1.392
					c-0.296-0.312-0.72-0.468-1.272-0.468c-0.624,0-1.116,0.182-1.476,0.546c-0.36,0.364-0.54,0.886-0.54,1.565v3.276h-1.152V109
					h1.104v0.96c0.232-0.327,0.546-0.579,0.942-0.756c0.396-0.176,0.846-0.264,1.35-0.264
					C326.451,108.94,327.093,109.174,327.569,109.642z"/>
				<path d="M333.995,114.988c-0.168,0.145-0.376,0.254-0.624,0.33s-0.504,0.114-0.768,0.114c-0.64,0-1.136-0.172-1.488-0.517
					c-0.352-0.344-0.528-0.836-0.528-1.476v-3.492h-1.08V109h1.08v-1.392h1.152V109h1.824v0.948h-1.824v3.444
					c0,0.344,0.085,0.607,0.258,0.792c0.172,0.184,0.418,0.275,0.738,0.275c0.353,0,0.652-0.1,0.9-0.3L333.995,114.988z"/>
				<path d="M346.571,115.36l-0.012-6.12l-3.036,5.101h-0.552l-3.036-5.064v6.084h-1.152v-8.4h0.984l3.504,5.904l3.456-5.904h0.984
					l0.012,8.4H346.571z"/>
				<path d="M354.413,109.588c0.468,0.433,0.702,1.076,0.702,1.933v3.84h-1.092v-0.84c-0.192,0.296-0.466,0.521-0.822,0.678
					c-0.356,0.156-0.778,0.234-1.266,0.234c-0.712,0-1.282-0.172-1.71-0.517c-0.428-0.344-0.642-0.796-0.642-1.355
					c0-0.561,0.204-1.01,0.612-1.351c0.408-0.34,1.056-0.51,1.944-0.51h1.824v-0.228c0-0.496-0.144-0.876-0.432-1.141
					c-0.288-0.264-0.712-0.396-1.272-0.396c-0.376,0-0.744,0.062-1.104,0.186c-0.36,0.124-0.664,0.29-0.912,0.498l-0.48-0.863
					c0.328-0.265,0.72-0.467,1.176-0.606s0.939-0.21,1.452-0.21C353.271,108.94,353.945,109.156,354.413,109.588z M353.267,114.25
					c0.32-0.195,0.552-0.474,0.696-0.834v-0.888h-1.775c-0.977,0-1.464,0.328-1.464,0.984c0,0.319,0.124,0.571,0.372,0.756
					c0.248,0.184,0.592,0.275,1.032,0.275C352.567,114.544,352.947,114.446,353.267,114.25z"/>
				<path d="M359.243,109.228c0.392-0.192,0.868-0.288,1.428-0.288v1.116c-0.064-0.008-0.152-0.013-0.264-0.013
					c-0.624,0-1.114,0.187-1.47,0.559c-0.356,0.372-0.534,0.902-0.534,1.59v3.168h-1.152V109h1.104v1.068
					C358.555,109.7,358.851,109.42,359.243,109.228z"/>
				<path d="M365.926,114.988c-0.168,0.145-0.376,0.254-0.624,0.33s-0.504,0.114-0.768,0.114c-0.64,0-1.136-0.172-1.488-0.517
					c-0.353-0.344-0.528-0.836-0.528-1.476v-3.492h-1.08V109h1.08v-1.392h1.152V109h1.824v0.948h-1.824v3.444
					c0,0.344,0.086,0.607,0.258,0.792c0.172,0.184,0.418,0.275,0.738,0.275c0.352,0,0.652-0.1,0.9-0.3L365.926,114.988z"/>
				<path d="M367.336,107.56c-0.148-0.145-0.222-0.32-0.222-0.528s0.074-0.386,0.222-0.534c0.148-0.147,0.334-0.222,0.558-0.222
					c0.224,0,0.41,0.07,0.559,0.21c0.147,0.14,0.222,0.314,0.222,0.522c0,0.216-0.074,0.397-0.222,0.546
					c-0.148,0.147-0.334,0.222-0.559,0.222C367.67,107.776,367.484,107.704,367.336,107.56z M367.318,109h1.152v6.36h-1.152V109z"/>
				<path d="M375.988,109.642c0.476,0.468,0.714,1.154,0.714,2.058v3.66h-1.152v-3.528c0-0.615-0.148-1.08-0.444-1.392
					c-0.296-0.312-0.72-0.468-1.271-0.468c-0.624,0-1.116,0.182-1.477,0.546c-0.359,0.364-0.54,0.886-0.54,1.565v3.276h-1.151V109
					h1.104v0.96c0.232-0.327,0.546-0.579,0.942-0.756c0.396-0.176,0.846-0.264,1.35-0.264
					C374.87,108.94,375.512,109.174,375.988,109.642z"/>
				<path d="M230.364,132.97c-0.528-0.34-0.944-0.836-1.248-1.488s-0.456-1.426-0.456-2.322c0-0.896,0.151-1.67,0.456-2.322
					c0.304-0.651,0.72-1.147,1.248-1.487s1.128-0.51,1.8-0.51s1.273,0.17,1.806,0.51s0.95,0.836,1.254,1.487
					c0.304,0.652,0.456,1.427,0.456,2.322c0,0.896-0.152,1.67-0.456,2.322c-0.304,0.652-0.722,1.148-1.254,1.488
					s-1.134,0.51-1.806,0.51S230.892,133.31,230.364,132.97z M233.586,131.38c0.348-0.495,0.522-1.235,0.522-2.22
					c0-0.983-0.174-1.724-0.522-2.22c-0.348-0.496-0.822-0.744-1.422-0.744c-0.592,0-1.062,0.248-1.41,0.744
					c-0.348,0.496-0.522,1.236-0.522,2.22c0,0.984,0.174,1.725,0.522,2.22c0.348,0.497,0.818,0.744,1.41,0.744
					C232.764,132.124,233.238,131.877,233.586,131.38z"/>
				<path d="M242.76,132.04v1.32h-6.192v-1.044l3.336-3.168c0.375-0.36,0.63-0.674,0.762-0.942c0.132-0.268,0.198-0.534,0.198-0.798
					c0-0.392-0.132-0.691-0.396-0.899c-0.264-0.208-0.652-0.312-1.164-0.312c-0.856,0-1.512,0.292-1.968,0.876l-1.092-0.84
					c0.328-0.44,0.77-0.782,1.326-1.026c0.556-0.243,1.178-0.365,1.866-0.365c0.912,0,1.64,0.216,2.184,0.647
					s0.816,1.021,0.816,1.764c0,0.456-0.096,0.885-0.288,1.284c-0.192,0.4-0.56,0.856-1.104,1.368l-2.244,2.136H242.76z"/>
				<path d="M254.46,131.452h-1.488v1.908h-1.512v-1.908h-4.608v-1.08l4.14-5.412h1.668l-3.9,5.173h2.748v-1.692h1.464v1.692h1.488
					V131.452z"/>
				<path d="M256.824,132.97c-0.528-0.34-0.944-0.836-1.248-1.488s-0.456-1.426-0.456-2.322c0-0.896,0.152-1.67,0.456-2.322
					c0.304-0.651,0.72-1.147,1.248-1.487c0.528-0.34,1.128-0.51,1.8-0.51c0.672,0,1.274,0.17,1.806,0.51s0.95,0.836,1.254,1.487
					c0.304,0.652,0.456,1.427,0.456,2.322c0,0.896-0.152,1.67-0.456,2.322c-0.305,0.652-0.723,1.148-1.254,1.488
					s-1.134,0.51-1.806,0.51C257.952,133.48,257.352,133.31,256.824,132.97z M260.046,131.38c0.348-0.495,0.522-1.235,0.522-2.22
					c0-0.983-0.174-1.724-0.522-2.22s-0.822-0.744-1.422-0.744c-0.592,0-1.062,0.248-1.41,0.744s-0.522,1.236-0.522,2.22
					c0,0.984,0.174,1.725,0.522,2.22c0.348,0.497,0.818,0.744,1.41,0.744C259.224,132.124,259.698,131.877,260.046,131.38z"/>
				<path d="M272.591,132.04v1.32h-6.192v-1.044l3.336-3.168c0.375-0.36,0.63-0.674,0.762-0.942
					c0.132-0.268,0.198-0.534,0.198-0.798c0-0.392-0.132-0.691-0.396-0.899c-0.264-0.208-0.652-0.312-1.164-0.312
					c-0.856,0-1.512,0.292-1.968,0.876l-1.092-0.84c0.328-0.44,0.77-0.782,1.326-1.026c0.556-0.243,1.178-0.365,1.866-0.365
					c0.912,0,1.64,0.216,2.184,0.647s0.816,1.021,0.816,1.764c0,0.456-0.096,0.885-0.288,1.284c-0.192,0.4-0.56,0.856-1.104,1.368
					l-2.244,2.136H272.591z"/>
				<path d="M278.759,128.494c0.44,0.212,0.784,0.515,1.032,0.906s0.372,0.844,0.372,1.356c0,0.544-0.136,1.021-0.408,1.434
					s-0.64,0.73-1.104,0.954c-0.464,0.224-0.984,0.336-1.561,0.336c-1.152,0-2.046-0.36-2.682-1.08
					c-0.636-0.72-0.954-1.752-0.954-3.096c0-0.944,0.172-1.75,0.516-2.418c0.344-0.668,0.826-1.177,1.446-1.524
					s1.338-0.521,2.154-0.521c0.432,0,0.838,0.046,1.218,0.138s0.71,0.226,0.99,0.401l-0.576,1.177
					c-0.416-0.272-0.948-0.408-1.596-0.408c-0.808,0-1.44,0.248-1.896,0.744s-0.684,1.212-0.684,2.147v0.013
					c0.248-0.288,0.563-0.506,0.948-0.654c0.384-0.148,0.816-0.222,1.296-0.222C277.824,128.176,278.319,128.282,278.759,128.494z
					 M278.196,131.866c0.304-0.26,0.456-0.605,0.456-1.038c0-0.439-0.152-0.788-0.456-1.044c-0.305-0.256-0.712-0.384-1.225-0.384
					c-0.504,0-0.914,0.136-1.229,0.408c-0.316,0.271-0.474,0.616-0.474,1.032c0,0.407,0.154,0.745,0.462,1.014
					c0.308,0.268,0.734,0.402,1.278,0.402C277.496,132.256,277.891,132.126,278.196,131.866z"/>
				<path d="M290.753,129.754c0.235,0.341,0.354,0.738,0.354,1.194c0,0.512-0.142,0.96-0.426,1.344
					c-0.284,0.385-0.686,0.679-1.206,0.883c-0.52,0.203-1.124,0.306-1.812,0.306s-1.29-0.103-1.806-0.306
					c-0.516-0.204-0.914-0.498-1.194-0.883c-0.28-0.384-0.42-0.832-0.42-1.344c0-0.456,0.116-0.854,0.348-1.194
					c0.232-0.34,0.564-0.609,0.996-0.81c-0.336-0.184-0.594-0.426-0.774-0.726c-0.18-0.301-0.27-0.646-0.27-1.038
					c0-0.473,0.13-0.884,0.39-1.236c0.26-0.352,0.626-0.624,1.098-0.816c0.472-0.191,1.016-0.287,1.632-0.287
					c0.624,0,1.172,0.096,1.644,0.287c0.472,0.192,0.84,0.465,1.104,0.816c0.264,0.353,0.396,0.764,0.396,1.236
					c0,0.392-0.092,0.735-0.276,1.031c-0.184,0.297-0.448,0.54-0.792,0.732C290.179,129.144,290.517,129.414,290.753,129.754z
					 M289.031,131.896c0.336-0.24,0.504-0.572,0.504-0.996c0-0.416-0.168-0.744-0.504-0.984c-0.336-0.239-0.792-0.359-1.368-0.359
					c-0.576,0-1.028,0.12-1.356,0.359c-0.328,0.24-0.492,0.568-0.492,0.984c0,0.424,0.164,0.756,0.492,0.996s0.78,0.36,1.356,0.36
					C288.239,132.256,288.695,132.136,289.031,131.896z M286.505,126.376c-0.284,0.209-0.426,0.5-0.426,0.876
					c0,0.36,0.142,0.646,0.426,0.858c0.284,0.212,0.67,0.318,1.158,0.318c0.496,0,0.888-0.106,1.176-0.318
					c0.288-0.212,0.432-0.498,0.432-0.858c0-0.376-0.146-0.667-0.438-0.876c-0.292-0.208-0.683-0.312-1.17-0.312
					S286.789,126.168,286.505,126.376z"/>
				<path d="M293.819,132.97c-0.527-0.34-0.944-0.836-1.248-1.488c-0.304-0.652-0.456-1.426-0.456-2.322
					c0-0.896,0.152-1.67,0.456-2.322c0.304-0.651,0.721-1.147,1.248-1.487c0.528-0.34,1.128-0.51,1.8-0.51
					c0.672,0,1.274,0.17,1.806,0.51c0.532,0.34,0.95,0.836,1.254,1.487c0.304,0.652,0.456,1.427,0.456,2.322
					c0,0.896-0.152,1.67-0.456,2.322c-0.304,0.652-0.722,1.148-1.254,1.488c-0.532,0.34-1.134,0.51-1.806,0.51
					C294.947,133.48,294.347,133.31,293.819,132.97z M297.042,131.38c0.348-0.495,0.521-1.235,0.521-2.22
					c0-0.983-0.174-1.724-0.521-2.22c-0.349-0.496-0.822-0.744-1.422-0.744c-0.592,0-1.062,0.248-1.41,0.744
					c-0.349,0.496-0.522,1.236-0.522,2.22c0,0.984,0.174,1.725,0.522,2.22c0.348,0.497,0.817,0.744,1.41,0.744
					C296.219,132.124,296.693,131.877,297.042,131.38z"/>
				<path d="M306.407,124.96v8.4h-1.56v-7.092h-1.776v-1.309H306.407z"/>
				<path d="M314.411,124.96v1.044l-3.264,7.356h-1.668l3.156-7.08h-3.3v1.428h-1.452v-2.748H314.411z"/>
			</g>
		</g>
		<rect x="218.145" fill="#282A27" width="2" height="150"/>
		<g>
			<g>
				<path d="M2.182,64.275H6.44v14.931h9.227v3.47H2.182V64.275z"/>
				<path d="M31.438,76.761H20.74c0.192,0.876,0.648,1.568,1.367,2.076c0.718,0.509,1.612,0.763,2.681,0.763
					c0.736,0,1.389-0.109,1.958-0.329c0.569-0.219,1.1-0.564,1.59-1.038l2.182,2.366c-1.332,1.524-3.277,2.286-5.835,2.286
					c-1.595,0-3.006-0.311-4.232-0.933s-2.173-1.485-2.839-2.59c-0.666-1.104-0.999-2.356-0.999-3.759
					c0-1.384,0.329-2.633,0.985-3.745c0.657-1.113,1.56-1.98,2.708-2.603s2.432-0.934,3.851-0.934c1.384,0,2.637,0.299,3.759,0.894
					c1.122,0.597,2.002,1.451,2.642,2.563c0.639,1.113,0.959,2.405,0.959,3.877C31.517,75.71,31.491,76.078,31.438,76.761z
					 M21.844,72.214c-0.631,0.525-1.017,1.244-1.157,2.155h6.966c-0.141-0.894-0.526-1.607-1.157-2.143
					c-0.631-0.534-1.402-0.802-2.313-0.802C23.254,71.424,22.475,71.688,21.844,72.214z"/>
				<path d="M54.188,65.089c1.2,0.544,2.125,1.314,2.773,2.313c0.648,0.999,0.973,2.182,0.973,3.549c0,1.35-0.325,2.528-0.973,3.535
					c-0.648,1.008-1.573,1.779-2.773,2.313c-1.2,0.535-2.615,0.802-4.245,0.802h-3.707v5.073h-4.258v-18.4h7.965
					C51.573,64.275,52.988,64.547,54.188,65.089z M52.625,73.304c0.666-0.552,0.999-1.336,0.999-2.353
					c0-1.034-0.333-1.827-0.999-2.379s-1.639-0.828-2.918-0.828h-3.47v6.388h3.47C50.986,74.132,51.958,73.856,52.625,73.304z"/>
				<path d="M66.569,68.849c0.832-0.351,1.792-0.526,2.878-0.526v3.785c-0.456-0.034-0.763-0.053-0.92-0.053
					c-1.174,0-2.094,0.329-2.76,0.986c-0.666,0.657-0.999,1.643-0.999,2.957v6.677h-4.101V68.534h3.917V70.4
					C65.075,69.716,65.737,69.2,66.569,68.849z"/>
				<path d="M82.564,69.887c1.174,1.043,1.761,2.615,1.761,4.718v8.07h-3.838v-1.761c-0.771,1.313-2.208,1.971-4.311,1.971
					c-1.087,0-2.029-0.184-2.826-0.552s-1.406-0.876-1.827-1.524s-0.631-1.384-0.631-2.208c0-1.314,0.495-2.349,1.485-3.102
					c0.99-0.754,2.519-1.131,4.587-1.131h3.259c0-0.894-0.272-1.581-0.815-2.063c-0.543-0.481-1.358-0.723-2.444-0.723
					c-0.754,0-1.495,0.118-2.221,0.354c-0.728,0.237-1.345,0.557-1.854,0.96l-1.472-2.865c0.771-0.543,1.695-0.964,2.773-1.262
					s2.186-0.447,3.325-0.447C79.708,68.323,81.39,68.844,82.564,69.887z M79.068,79.639c0.543-0.324,0.929-0.802,1.157-1.433
					v-1.445h-2.812c-1.683,0-2.523,0.552-2.523,1.655c0,0.526,0.206,0.942,0.618,1.249c0.412,0.307,0.977,0.46,1.695,0.46
					C77.903,80.126,78.525,79.964,79.068,79.639z"/>
				<path d="M88.032,63.172h4.101v19.504h-4.101V63.172z"/>
				<path d="M96.154,65.905c-0.473-0.438-0.71-0.981-0.71-1.63s0.237-1.191,0.71-1.63c0.473-0.438,1.086-0.657,1.84-0.657
					s1.367,0.211,1.84,0.631c0.473,0.421,0.709,0.946,0.709,1.577c0,0.684-0.236,1.249-0.709,1.695
					c-0.473,0.447-1.087,0.671-1.84,0.671S96.627,66.343,96.154,65.905z M95.944,68.534h4.101v14.142h-4.101V68.534z"/>
				<path d="M116.697,69.9c1.078,1.052,1.617,2.611,1.617,4.68v8.096h-4.101v-7.465c0-1.122-0.246-1.959-0.736-2.511
					s-1.2-0.828-2.129-0.828c-1.034,0-1.858,0.32-2.471,0.96s-0.92,1.59-0.92,2.852v6.992h-4.101V68.534h3.917v1.655
					c0.543-0.595,1.218-1.056,2.024-1.38c0.806-0.324,1.691-0.486,2.655-0.486C114.204,68.323,115.619,68.849,116.697,69.9z"/>
				<path d="M125.306,63.657c0.473,0.465,0.709,1.074,0.709,1.827c0,0.351-0.044,0.701-0.131,1.052
					c-0.088,0.351-0.272,0.876-0.552,1.577l-1.525,3.785h-2.602l1.13-4.153c-0.438-0.192-0.78-0.481-1.025-0.867
					c-0.246-0.386-0.368-0.85-0.368-1.394c0-0.753,0.241-1.362,0.723-1.827c0.481-0.464,1.091-0.696,1.827-0.696
					S124.833,63.193,125.306,63.657z"/>
				<path d="M141.642,69.9c1.078,1.052,1.617,2.611,1.617,4.68v8.096h-4.101v-7.465c0-1.122-0.246-1.959-0.736-2.511
					s-1.2-0.828-2.129-0.828c-1.034,0-1.858,0.32-2.471,0.96s-0.92,1.59-0.92,2.852v6.992h-4.101V68.534h3.917v1.655
					c0.543-0.595,1.218-1.056,2.024-1.38c0.806-0.324,1.691-0.486,2.655-0.486C139.149,68.323,140.564,68.849,141.642,69.9z"/>
				<path d="M149.843,81.953c-1.183-0.622-2.107-1.485-2.773-2.59c-0.666-1.104-0.999-2.356-0.999-3.759
					c0-1.401,0.333-2.654,0.999-3.759c0.666-1.104,1.59-1.967,2.773-2.589c1.183-0.622,2.519-0.934,4.009-0.934
					c1.489,0,2.821,0.312,3.995,0.934s2.094,1.485,2.76,2.589c0.666,1.104,0.999,2.357,0.999,3.759c0,1.402-0.333,2.655-0.999,3.759
					c-0.666,1.104-1.586,1.968-2.76,2.59s-2.506,0.933-3.995,0.933C152.362,82.885,151.026,82.575,149.843,81.953z M156.441,78.457
					c0.674-0.71,1.012-1.66,1.012-2.853c0-1.191-0.338-2.142-1.012-2.852c-0.675-0.71-1.538-1.064-2.589-1.064
					c-1.052,0-1.919,0.354-2.603,1.064s-1.025,1.66-1.025,2.852c0,1.192,0.342,2.143,1.025,2.853s1.551,1.064,2.603,1.064
					C154.903,79.521,155.766,79.167,156.441,78.457z"/>
				<path d="M164.55,65.905c-0.473-0.438-0.71-0.981-0.71-1.63s0.237-1.191,0.71-1.63c0.473-0.438,1.086-0.657,1.84-0.657
					s1.367,0.211,1.84,0.631c0.473,0.421,0.709,0.946,0.709,1.577c0,0.684-0.236,1.249-0.709,1.695
					c-0.473,0.447-1.087,0.671-1.84,0.671S165.023,66.343,164.55,65.905z M164.34,68.534h4.101v14.142h-4.101V68.534z"/>
				<path d="M181.242,82.675l-3.102-4.337l-3.207,4.337h-4.469l5.441-7.124l-5.257-7.018h4.6l2.997,4.127l3.076-4.127h4.363
					l-5.257,6.913l5.468,7.229H181.242z"/>
			</g>
		</g>
	</g>
</g>
</svg>
