<?xml version="1.0" encoding="utf-8"?>
<!-- Generator: Adobe Illustrator 28.3.0, SVG Export Plug-In . SVG Version: 6.00 Build 0)  -->
<svg version="1.1" xmlns="http://www.w3.org/2000/svg" xmlns:xlink="http://www.w3.org/1999/xlink" x="0px" y="0px"
	 width="484.978px" height="150px" viewBox="0 0 484.978 150" enable-background="new 0 0 484.978 150" xml:space="preserve">
<g id="Calque_1">
	<rect x="-729.683" y="-275.053" fill="#FFFFFF" width="1366" height="2065.439"/>
	<g>
		<g>
			<g id="XMLID_00000075122165652998994000000012975917001782856837_">
				<path id="XMLID_00000085930274013509454910000016533308497051303846_" fill="#97BF0D" d="M19.116,90.395
					c0.019,0.143,0.038,0.287,0.061,0.427c-0.003-0.107-0.004-0.214-0.005-0.321C19.153,90.466,19.135,90.43,19.116,90.395z"/>
				
					<linearGradient id="XMLID_00000015320530764834779110000012602908246237275282_" gradientUnits="userSpaceOnUse" x1="22.6128" y1="89.7998" x2="24.1032" y2="89.7998">
					<stop  offset="0" style="stop-color:#FFEE27"/>
					<stop  offset="0.1582" style="stop-color:#FCC732"/>
					<stop  offset="0.3163" style="stop-color:#F3A136"/>
					<stop  offset="0.4703" style="stop-color:#EC7E35"/>
					<stop  offset="0.6185" style="stop-color:#E76033"/>
					<stop  offset="0.7593" style="stop-color:#E34931"/>
					<stop  offset="0.8899" style="stop-color:#E23830"/>
					<stop  offset="1" style="stop-color:#E13130"/>
				</linearGradient>
				
					<path id="XMLID_00000116925964626140189500000017426906445095383938_" fill="url(#XMLID_00000015320530764834779110000012602908246237275282_)" d="
					M23.811,93.683c0.022-1.003,0.11-2.012,0.195-2.988c0.026-0.301,0.052-0.602,0.077-0.902c0.147-1.819-0.513-3.446-1.47-4.972
					c0.129,0.766,0.155,1.557,0.134,2.398c-0.009,0.337-0.02,0.675-0.032,1.012c-0.03,0.886,0.214,1.803,0.241,2.693
					c0.042,1.396,0.345,2.683,0.905,3.853C23.82,94.415,23.803,94.05,23.811,93.683z"/>
				
					<linearGradient id="XMLID_00000048494293834897901030000011043754916034609335_" gradientUnits="userSpaceOnUse" x1="2.7741" y1="85.2994" x2="20.5199" y2="85.2994">
					<stop  offset="0" style="stop-color:#FFEE27"/>
					<stop  offset="0.1582" style="stop-color:#FCC732"/>
					<stop  offset="0.3163" style="stop-color:#F3A136"/>
					<stop  offset="0.4703" style="stop-color:#EC7E35"/>
					<stop  offset="0.6185" style="stop-color:#E76033"/>
					<stop  offset="0.7593" style="stop-color:#E34931"/>
					<stop  offset="0.8899" style="stop-color:#E23830"/>
					<stop  offset="1" style="stop-color:#E13130"/>
				</linearGradient>
				
					<path id="XMLID_00000108989316892631555430000012693558399142550949_" fill="url(#XMLID_00000048494293834897901030000011043754916034609335_)" d="
					M4.213,72.386c-0.101-0.031-0.202-0.062-0.304-0.094c-0.384-0.119-0.76-0.236-1.135-0.322c1.076,0.843,2.061,1.827,2.943,2.941
					c1.367,1.727,1.97,3.829,2.491,6.617c0.264,1.412,0.486,2.852,0.7,4.245c0.21,1.362,0.702,2.771,0.958,4.145
					c0.46,2.477,1.434,4.351,2.978,5.729c2.199,1.962,4.862,2.62,7.676,2.982c-0.941-0.663-1.747-1.412-2.334-2.016
					c-0.235-0.236-0.462-0.484-0.674-0.733c-0.134-0.155-0.21-0.25-0.213-0.254l-0.084-0.112c-1.374-1.743-2.55-3.826-2.954-6.193
					c-0.236-1.384-0.417-2.795-0.593-4.16c-0.123-0.954-0.249-1.941-0.393-2.906c-0.306-2.048-0.582-3.626-1.461-4.969
					C9.956,74.448,7.063,73.254,4.213,72.386z"/>
				
					<linearGradient id="XMLID_00000079478373695839185410000006848269676431704984_" gradientUnits="userSpaceOnUse" x1="15.9884" y1="87.1065" x2="22.6142" y2="87.1065">
					<stop  offset="0" style="stop-color:#FFEE27"/>
					<stop  offset="0.1582" style="stop-color:#FCC732"/>
					<stop  offset="0.3163" style="stop-color:#F3A136"/>
					<stop  offset="0.4703" style="stop-color:#EC7E35"/>
					<stop  offset="0.6185" style="stop-color:#E76033"/>
					<stop  offset="0.7593" style="stop-color:#E34931"/>
					<stop  offset="0.8899" style="stop-color:#E23830"/>
					<stop  offset="1" style="stop-color:#E13130"/>
				</linearGradient>
				
					<path id="XMLID_00000135684423406367295670000013985225624577649044_" fill="url(#XMLID_00000079478373695839185410000006848269676431704984_)" d="
					M19.794,84.216c-0.45-2.585-1.466-4.57-3.806-6.189c0.779,1.227,0.962,2.612,1.112,4.177c0.077,0.807,0.143,1.626,0.206,2.419
					c0.081,1.016,0.165,2.067,0.274,3.094c0.363,3.418,2.202,6.239,4.922,8.384c0.036,0.029,0.074,0.056,0.112,0.084
					c-1.269-2.054-2.234-4.465-2.371-7.298C20.171,87.383,20.066,85.775,19.794,84.216z"/>
				
					<linearGradient id="XMLID_00000035499623764657495000000017549470206121332667_" gradientUnits="userSpaceOnUse" x1="12.405" y1="80.8152" x2="24.9382" y2="80.8152">
					<stop  offset="0" style="stop-color:#FFEE27"/>
					<stop  offset="0.1582" style="stop-color:#FCC732"/>
					<stop  offset="0.3163" style="stop-color:#F3A136"/>
					<stop  offset="0.4703" style="stop-color:#EC7E35"/>
					<stop  offset="0.6185" style="stop-color:#E76033"/>
					<stop  offset="0.7593" style="stop-color:#E34931"/>
					<stop  offset="0.8899" style="stop-color:#E23830"/>
					<stop  offset="1" style="stop-color:#E13130"/>
				</linearGradient>
				
					<path id="XMLID_00000076571301434120197200000003003481082206508179_" fill="url(#XMLID_00000035499623764657495000000017549470206121332667_)" d="
					M16.352,76.935c1.509,0.925,6.187,4.785,7.674,7.602c0.409,0.705,0.713,1.431,0.913,2.186c-0.15-3.936-3.095-7.896-6.469-9.526
					c-1.661-0.803-3.461-1.316-5.193-1.974c-0.289-0.11-0.58-0.214-0.872-0.315c0,0,0.484,0.188,1.267,0.564
					C14.667,75.922,15.56,76.408,16.352,76.935z"/>
				<path id="XMLID_00000065056209519818849070000007405947745255165850_" fill="#97BF0D" d="M13.672,75.471
					c-0.782-0.376-1.267-0.564-1.267-0.564l1.087,0.482C13.553,75.416,13.612,75.444,13.672,75.471z"/>
				<path id="XMLID_00000171716027362517006960000005831455588059189641_" fill="#97BF0D" d="M5.679,94.234
					c-6.847-8.144-3.751-16.961-3.751-16.961c-2.534,5.324-2.597,10.57-0.028,15.735c2.612,5.25,6.944,8.359,12.635,9.656
					c0.853,0.194,1.112-0.031,1.148-0.873c0.004-0.093,0.006-0.184,0.007-0.276c-0.246-0.087-0.488-0.178-0.73-0.273
					c0.427,0.149,0.73,0.273,0.73,0.273c-2.179-1.013-4.039-2.109-5.627-3.257C8.277,96.966,6.836,95.61,5.679,94.234z"/>
				<path id="XMLID_00000151524080645572879250000016447163609318781571_" fill="#005379" d="M27.128,85.596
					c2.161-1.938,4.764-2.398,7.437-2.72c1.247-0.15,2.293-0.315,1.842-2.285c-0.601-2.625-1.526-5.079-2.754-7.406
					c-0.001,0.009-0.003,0.019-0.005,0.028c-0.088,0.556-0.172,1.096-0.269,1.632c-0.067,0.37-0.3,0.608-0.672,0.696
					c-0.359,0.085-0.649-0.037-0.875-0.312c-0.218-0.266-0.209-0.573-0.142-0.893c0.12-0.569,0.238-1.139,0.355-1.708
					c0.111-0.541,0.222-1.083,0.332-1.625c0.001-0.007,0.003-0.014,0.005-0.021c-1.025-1.672-2.105-3.309-3.206-4.938
					c-0.021,0.067-0.018,0.14-0.031,0.203c-0.204,0.977-0.406,1.954-0.608,2.931c-0.131,0.631-0.261,1.261-0.395,1.891
					c-0.006,0.029-0.012,0.057-0.018,0.086c-0.03,0.143-0.026,0.268,0.008,0.388c0.026,0.093,0.07,0.183,0.133,0.276
					c0.636,0.94,1.258,1.89,1.879,2.84c0.35,0.535,0.288,1.038-0.151,1.339c-0.447,0.306-0.971,0.162-1.335-0.377
					c-0.342-0.507-0.675-1.02-1.012-1.531c-0.187,0.062-0.16,0.218-0.185,0.336c-0.146,0.685-0.277,1.374-0.429,2.058
					c-0.13,0.59-0.543,0.881-1.059,0.773c-0.509-0.106-0.775-0.554-0.66-1.135c0.16-0.802,0.331-1.601,0.526-2.538
					c-0.657,0.434-1.203,0.806-1.762,1.16c-0.616,0.389-1.311,0.116-1.421-0.552c-0.073-0.444,0.164-0.732,0.512-0.961
					c0.961-0.631,1.919-1.267,2.881-1.899c0.165-0.108,0.297-0.216,0.341-0.436c0.019-0.093,0.038-0.187,0.057-0.28
					c0.249-1.239,0.503-2.476,0.758-3.713c0.081-0.394,0.162-0.788,0.243-1.182c0.011-0.054,0.002-0.112,0.003-0.171
					c-0.19-0.034-0.29,0.1-0.406,0.177c-1.361,0.893-2.715,1.797-4.082,2.682c-0.174,0.113-0.281,0.242-0.35,0.405
					c-0.03,0.071-0.053,0.147-0.069,0.233c-0.138,0.71-0.283,1.418-0.431,2.126c-0.081,0.388-0.162,0.777-0.244,1.165
					c-0.135,0.638-0.563,0.968-1.086,0.854c-0.527-0.115-0.768-0.578-0.631-1.231c0.105-0.504,0.216-1.006,0.323-1.5
					c0.02-0.091,0.04-0.183,0.059-0.273c-0.19-0.116-0.268,0.014-0.356,0.071c-0.002,0.001-0.004,0.002-0.005,0.003
					c-0.613,0.396-1.217,0.806-1.831,1.2c-0.463,0.297-0.996,0.206-1.269-0.199c-0.276-0.41-0.161-0.94,0.294-1.248
					c0.462-0.313,0.93-0.621,1.412-0.937c0.238-0.156,0.479-0.314,0.726-0.478c-0.365-0.192-0.706-0.206-1.029-0.277
					c-0.126-0.028-0.253-0.053-0.379-0.078c-0.195-0.039-0.391-0.078-0.585-0.123c-0.545-0.125-0.85-0.543-0.761-1.033
					c0.041-0.227,0.163-0.413,0.337-0.54c0.205-0.149,0.482-0.214,0.783-0.155c0.79,0.154,1.58,0.315,2.368,0.482
					c0.322,0.068,0.644,0.134,0.965,0.206c0.334,0.075,0.591,0.017,0.873-0.173c0.137-0.092,0.275-0.184,0.412-0.276
					c1.178-0.789,2.365-1.565,3.547-2.347c0.13-0.086,0.283-0.152,0.414-0.395c-0.562-0.099-1.072-0.178-1.578-0.28
					c-1.229-0.247-2.457-0.496-3.681-0.762c-0.165-0.036-0.308-0.034-0.446,0.005c-0.102,0.028-0.201,0.076-0.303,0.145
					c-0.545,0.369-1.093,0.733-1.643,1.094c-0.399,0.262-0.798,0.523-1.197,0.784c-0.43,0.281-0.846,0.277-1.141,0.014
					c-0.056-0.05-0.108-0.108-0.154-0.176c-0.179-0.262-0.202-0.548-0.082-0.81c0.081-0.178,0.228-0.345,0.438-0.486
					c0.532-0.356,1.067-0.706,1.64-1.083c-0.223-0.163-0.452-0.155-0.658-0.201c-0.537-0.12-1.078-0.225-1.617-0.335
					c-0.017-0.003-0.033-0.007-0.05-0.01c-0.701-0.143-1.031-0.526-0.929-1.074c0.095-0.509,0.504-0.752,1.124-0.677
					c0.056,0.007,0.114,0.015,0.174,0.027c0.629,0.127,1.257,0.257,1.886,0.384c0.067,0.013,0.135,0.023,0.226,0.035
					c0.064,0.008,0.138,0.018,0.232,0.031c-0.066-0.1-0.13-0.196-0.193-0.292c-0.33-0.496-0.632-0.947-0.923-1.404
					c-0.293-0.462-0.248-0.911,0.098-1.218c0.443-0.394,1.009-0.304,1.374,0.24c0.038,0.057,0.076,0.115,0.114,0.172
					c0.61,0.911,1.209,1.829,1.814,2.743c0.022,0.033,0.043,0.067,0.065,0.099c0.073,0.108,0.156,0.204,0.32,0.237
					c1.724,0.346,3.445,0.706,5.167,1.062c-1.096-1.609-2.187-3.231-3.239-4.891c-0.208-0.04-0.415-0.083-0.623-0.124
					c-0.888-0.175-1.775-0.357-2.661-0.538c-0.026-0.005-0.05-0.012-0.074-0.018c-0.605-0.149-0.906-0.542-0.803-1.053
					c0.106-0.526,0.579-0.792,1.215-0.658c0.239,0.05,0.477,0.105,0.715,0.16c0.333,0.077,0.666,0.155,0.998,0.233
					c-0.984-1.639-1.921-3.324-2.781-5.077c-3.197,6.592-7.366,12.166-11.29,17.886c-1.305,1.903-0.67,2.689,1.007,3.573
					c2.835,1.493,5.965,2.154,8.913,3.325C22.753,76.903,26.384,79.866,27.128,85.596z"/>
				<path id="XMLID_00000031893804666191928130000007240792982576338561_" fill="#97BF0D" d="M26.297,90.009
					c2.892-2.152,2.892-2.152,3.847-2.085c-2.272,2.019-4.01,4.278-4.327,7.627c1.657-1.622,3.653-2.1,5.552-2.806
					c4.168-1.548,6.923-5.678,6.885-10.486c-1.656,2.239-3.915,2.719-6.349,3.034C28.81,85.696,26.726,87.598,26.297,90.009z"/>
				<path id="XMLID_00000112591704344884922130000004808375335819689372_" fill="#97BF0D" d="M23.06,101.515
					c0.001,0.091,0.003,0.183,0.007,0.276c0.036,0.842,0.295,1.068,1.148,0.873c5.691-1.297,10.024-4.406,12.635-9.656
					c1.271-2.554,1.896-5.128,1.899-7.721C38.75,85.286,37.123,97.068,23.06,101.515z"/>
			</g>
			<g>
				<rect x="132.495" y="74.743" fill="#97BF0D" width="11.165" height="3.109"/>
				<path fill="#005379" d="M59.07,66.515c-0.28-0.212-0.625-0.319-1.026-0.319c-0.4,0-0.749,0.107-1.038,0.319
					c-0.282,0.207-0.529,0.492-0.734,0.845L44.806,86.453h4.177l8.926-15.093l4.236,7.112h-5.953l-1.748,3h9.478l2.938,4.933
					l0.029,0.048h4.394L59.79,67.361C59.584,67.007,59.342,66.723,59.07,66.515z"/>
				<path fill="#005379" d="M89.682,77.617c0,0.982-0.122,1.832-0.362,2.526c-0.238,0.687-0.63,1.258-1.167,1.698
					c-0.54,0.442-1.272,0.77-2.178,0.973c-0.914,0.206-2.061,0.311-3.408,0.311c-1.347,0-2.494-0.105-3.408-0.311
					c-0.906-0.204-1.638-0.531-2.177-0.973c-0.536-0.439-0.929-1.01-1.167-1.698c-0.24-0.694-0.362-1.544-0.362-2.526V66.468h-3.762
					v11.149c0,1.529,0.203,2.882,0.604,4.02c0.403,1.145,1.044,2.107,1.906,2.859c0.86,0.75,1.986,1.316,3.346,1.681
					c1.354,0.363,3.007,0.548,4.911,0.548c1.922,0,3.584-0.184,4.938-0.548c1.36-0.365,2.486-0.931,3.346-1.681
					c0.862-0.752,1.503-1.713,1.906-2.859c0.401-1.14,0.604-2.492,0.604-4.02V66.468h-3.572V77.617z"/>
				<path fill="#005379" d="M117.08,66.223c-0.82,0-1.409,0.414-1.751,1.23l-6.007,13.783l-6.006-13.782
					c-0.171-0.398-0.426-0.706-0.76-0.916c-0.333-0.209-0.694-0.314-1.073-0.314c-0.954,0-1.563,0.501-1.81,1.488l-5.089,18.617
					l-0.034,0.124h3.606l3.729-13.71l5.467,12.615c0.378,0.907,1.004,1.367,1.861,1.367c0.438,0,0.811-0.122,1.11-0.362
					c0.291-0.234,0.542-0.571,0.75-1.004l5.495-12.617l3.71,13.638l0.02,0.073h3.633l-5.096-18.743
					C118.55,66.723,117.959,66.223,117.08,66.223z"/>
				<polygon fill="#005379" points="130.161,70.122 144.396,70.122 144.396,66.468 126.534,66.468 126.534,86.453 144.423,86.453 
					144.423,82.799 130.161,82.799 				"/>
				<path fill="#005379" d="M168.236,77.983c0.724-1.127,1.091-2.541,1.091-4.204c0-1.114-0.167-2.133-0.496-3.028
					c-0.33-0.898-0.814-1.675-1.438-2.308c-0.623-0.633-1.396-1.126-2.294-1.465c-0.897-0.339-1.925-0.51-3.056-0.51h-14.306v19.984
					h3.626V70.122h10.68c1.166,0,2.082,0.307,2.722,0.912c0.639,0.604,0.963,1.546,0.963,2.8c0,1.256-0.312,2.227-0.926,2.886
					c-0.613,0.657-1.541,0.989-2.759,0.989h-8.345v3.245h7.458l5.008,5.498h5.179l-6.022-6.077
					C166.557,79.876,167.537,79.071,168.236,77.983z"/>
				<path fill="#005379" d="M186.923,67.361c-0.205-0.354-0.447-0.638-0.72-0.846c-0.28-0.212-0.625-0.319-1.026-0.319
					c-0.4,0-0.749,0.107-1.038,0.319c-0.283,0.207-0.53,0.492-0.734,0.845l-11.377,18.944l-0.09,0.149h4.177l8.926-15.093
					l4.236,7.112h-5.953l-1.748,3h9.478l2.938,4.933l0.029,0.048h4.394L186.923,67.361z"/>
			</g>
		</g>
		<g>
			<g>
				<path d="M256.751,23.092h-4.9l-0.966,2.268h-1.876l4.41-9.8h1.792l4.424,9.8h-1.904L256.751,23.092z M256.149,21.663
					l-1.848-4.284l-1.834,4.284H256.149z"/>
				<path d="M261.721,24.359c-0.756-0.761-1.134-1.851-1.134-3.269v-5.53h1.82v5.46c0,1.923,0.831,2.884,2.492,2.884
					c1.652,0,2.478-0.961,2.478-2.884v-5.46h1.792v5.53c0,1.418-0.375,2.508-1.127,3.269c-0.751,0.761-1.804,1.141-3.157,1.141
					C263.531,25.499,262.477,25.119,261.721,24.359z"/>
				<path d="M280.719,25.36l-0.014-6.496l-3.22,5.376h-0.812l-3.22-5.292v6.412h-1.736v-9.8h1.498l3.893,6.496l3.822-6.496h1.498
					l0.015,9.8H280.719z"/>
				<path d="M292.436,23.833v1.526h-7.35v-9.8h7.154v1.525h-5.334v2.549h4.732v1.498h-4.732v2.701H292.436z"/>
				<path d="M300.879,25.36l-2.002-2.87c-0.084,0.01-0.21,0.014-0.378,0.014h-2.212v2.856h-1.82v-9.8h4.032
					c0.849,0,1.589,0.14,2.219,0.42c0.63,0.28,1.113,0.682,1.449,1.204s0.504,1.144,0.504,1.861c0,0.738-0.18,1.372-0.539,1.904
					s-0.875,0.929-1.547,1.19l2.254,3.22H300.879z M300.22,17.604c-0.411-0.336-1.013-0.504-1.806-0.504h-2.128v3.906h2.128
					c0.793,0,1.395-0.171,1.806-0.512c0.411-0.341,0.616-0.823,0.616-1.449C300.837,18.42,300.631,17.94,300.22,17.604z"/>
				<path d="M311.056,23.092h-4.9l-0.966,2.268h-1.876l4.41-9.8h1.792l4.424,9.8h-1.903L311.056,23.092z M310.455,21.663
					l-1.849-4.284l-1.834,4.284H310.455z"/>
				<path d="M318.504,20.74h3.85v1.456h-3.85V20.74z"/>
				<path d="M335.544,16.959l-3.684,8.4h-1.188l-3.696-8.4h1.296l3.024,6.9l3.048-6.9H335.544z"/>
				<path d="M336.984,25.012c-0.504-0.28-0.898-0.666-1.183-1.158c-0.284-0.492-0.426-1.05-0.426-1.674s0.142-1.183,0.426-1.674
					c0.284-0.492,0.678-0.877,1.183-1.152c0.504-0.276,1.071-0.414,1.704-0.414c0.632,0,1.198,0.138,1.698,0.414
					c0.5,0.275,0.893,0.66,1.176,1.152c0.284,0.491,0.426,1.05,0.426,1.674s-0.143,1.182-0.426,1.674s-0.676,0.878-1.176,1.158
					c-0.5,0.279-1.066,0.42-1.698,0.42C338.055,25.432,337.488,25.291,336.984,25.012z M339.786,24.142
					c0.324-0.188,0.578-0.452,0.762-0.792c0.184-0.34,0.276-0.73,0.276-1.17c0-0.44-0.092-0.83-0.276-1.17
					c-0.184-0.34-0.438-0.603-0.762-0.786c-0.324-0.185-0.69-0.276-1.098-0.276c-0.408,0-0.774,0.092-1.098,0.276
					c-0.324,0.184-0.58,0.446-0.768,0.786c-0.188,0.34-0.282,0.729-0.282,1.17c0,0.439,0.094,0.83,0.282,1.17
					c0.188,0.34,0.444,0.604,0.768,0.792c0.324,0.188,0.69,0.282,1.098,0.282C339.096,24.424,339.462,24.329,339.786,24.142z"/>
				<path d="M347.16,24.988c-0.168,0.145-0.376,0.254-0.624,0.33s-0.504,0.114-0.769,0.114c-0.64,0-1.136-0.172-1.487-0.517
					c-0.353-0.344-0.528-0.836-0.528-1.476v-3.492h-1.08v-0.948h1.08v-1.392h1.152v1.392h1.824v0.948h-1.824v3.444
					c0,0.344,0.085,0.607,0.258,0.792c0.172,0.184,0.418,0.275,0.738,0.275c0.352,0,0.652-0.1,0.9-0.3L347.16,24.988z"/>
				<path d="M350.544,19.228c0.392-0.192,0.868-0.288,1.428-0.288v1.116c-0.064-0.008-0.152-0.013-0.264-0.013
					c-0.624,0-1.114,0.187-1.47,0.559s-0.534,0.902-0.534,1.59v3.168h-1.152v-6.36h1.104v1.068
					C349.855,19.699,350.151,19.419,350.544,19.228z"/>
				<path d="M359.051,22.564h-5.16c0.072,0.56,0.318,1.01,0.738,1.35c0.42,0.341,0.942,0.511,1.566,0.511
					c0.76,0,1.372-0.257,1.836-0.769l0.636,0.744c-0.288,0.336-0.646,0.592-1.074,0.768c-0.428,0.177-0.906,0.265-1.434,0.265
					c-0.672,0-1.269-0.139-1.788-0.414c-0.521-0.276-0.922-0.662-1.206-1.158c-0.284-0.496-0.426-1.056-0.426-1.68
					c0-0.616,0.138-1.172,0.414-1.668s0.656-0.883,1.14-1.158c0.484-0.276,1.03-0.414,1.638-0.414c0.608,0,1.15,0.138,1.626,0.414
					c0.476,0.275,0.848,0.662,1.116,1.158s0.402,1.063,0.402,1.704C359.076,22.304,359.068,22.419,359.051,22.564z M354.546,20.415
					c-0.372,0.336-0.59,0.776-0.654,1.32h4.08c-0.064-0.536-0.282-0.974-0.654-1.314c-0.372-0.34-0.834-0.51-1.386-0.51
					C355.38,19.911,354.918,20.079,354.546,20.415z"/>
				<path d="M368.927,19.348c0.488,0.271,0.87,0.651,1.146,1.14c0.275,0.488,0.414,1.052,0.414,1.692
					c0,0.64-0.138,1.206-0.414,1.697c-0.276,0.492-0.658,0.875-1.146,1.146c-0.488,0.272-1.04,0.408-1.656,0.408
					c-0.456,0-0.875-0.088-1.254-0.265c-0.38-0.176-0.702-0.432-0.966-0.768v3.288H363.9v-8.688h1.104v1.009
					c0.256-0.353,0.58-0.618,0.972-0.799c0.392-0.18,0.824-0.27,1.296-0.27C367.887,18.94,368.439,19.075,368.927,19.348z
					 M368.274,24.142c0.324-0.188,0.58-0.452,0.768-0.792c0.188-0.34,0.282-0.73,0.282-1.17c0-0.44-0.095-0.83-0.282-1.17
					c-0.188-0.34-0.444-0.603-0.768-0.786c-0.324-0.185-0.69-0.276-1.098-0.276c-0.4,0-0.762,0.094-1.086,0.282
					c-0.324,0.188-0.58,0.45-0.768,0.786s-0.282,0.724-0.282,1.164c0,0.439,0.092,0.83,0.276,1.17s0.44,0.604,0.768,0.792
					c0.328,0.188,0.691,0.282,1.092,0.282C367.584,24.424,367.95,24.329,368.274,24.142z"/>
				<path d="M376.361,19.587c0.468,0.433,0.702,1.076,0.702,1.933v3.84h-1.092v-0.84c-0.192,0.296-0.466,0.521-0.822,0.678
					s-0.778,0.234-1.266,0.234c-0.712,0-1.282-0.172-1.71-0.517c-0.428-0.344-0.642-0.796-0.642-1.355
					c0-0.561,0.204-1.01,0.611-1.351c0.408-0.34,1.057-0.51,1.944-0.51h1.824v-0.228c0-0.496-0.145-0.876-0.432-1.141
					c-0.288-0.264-0.712-0.396-1.272-0.396c-0.376,0-0.744,0.062-1.104,0.186s-0.665,0.29-0.912,0.498l-0.48-0.863
					c0.328-0.265,0.72-0.467,1.176-0.606s0.94-0.21,1.452-0.21C375.219,18.94,375.893,19.156,376.361,19.587z M375.215,24.249
					c0.32-0.195,0.552-0.474,0.696-0.834v-0.888h-1.776c-0.976,0-1.464,0.328-1.464,0.984c0,0.319,0.124,0.571,0.372,0.756
					c0.248,0.184,0.592,0.275,1.032,0.275C374.515,24.543,374.895,24.446,375.215,24.249z"/>
				<path d="M381.191,19.228c0.392-0.192,0.868-0.288,1.428-0.288v1.116c-0.064-0.008-0.152-0.013-0.264-0.013
					c-0.624,0-1.114,0.187-1.47,0.559c-0.356,0.372-0.534,0.902-0.534,1.59v3.168h-1.152v-6.36h1.104v1.068
					C380.504,19.699,380.799,19.419,381.191,19.228z"/>
				<path d="M387.875,24.988c-0.168,0.145-0.376,0.254-0.624,0.33s-0.504,0.114-0.768,0.114c-0.64,0-1.136-0.172-1.488-0.517
					c-0.352-0.344-0.528-0.836-0.528-1.476v-3.492h-1.08v-0.948h1.08v-1.392h1.152v1.392h1.824v0.948h-1.824v3.444
					c0,0.344,0.085,0.607,0.258,0.792c0.172,0.184,0.418,0.275,0.738,0.275c0.353,0,0.652-0.1,0.9-0.3L387.875,24.988z"/>
				<path d="M394.775,22.564h-5.16c0.072,0.56,0.318,1.01,0.738,1.35c0.42,0.341,0.942,0.511,1.566,0.511
					c0.76,0,1.372-0.257,1.836-0.769l0.636,0.744c-0.288,0.336-0.646,0.592-1.074,0.768c-0.428,0.177-0.906,0.265-1.434,0.265
					c-0.672,0-1.269-0.139-1.788-0.414c-0.521-0.276-0.922-0.662-1.206-1.158c-0.284-0.496-0.426-1.056-0.426-1.68
					c0-0.616,0.138-1.172,0.414-1.668s0.656-0.883,1.14-1.158c0.484-0.276,1.03-0.414,1.638-0.414c0.608,0,1.15,0.138,1.626,0.414
					c0.476,0.275,0.848,0.662,1.116,1.158s0.402,1.063,0.402,1.704C394.799,22.304,394.791,22.419,394.775,22.564z M390.269,20.415
					c-0.372,0.336-0.59,0.776-0.654,1.32h4.08c-0.064-0.536-0.282-0.974-0.654-1.314c-0.372-0.34-0.834-0.51-1.386-0.51
					C391.103,19.911,390.641,20.079,390.269,20.415z"/>
				<path d="M401.717,19.642c0.476,0.468,0.714,1.154,0.714,2.058v3.66h-1.152v-3.528c0-0.615-0.148-1.08-0.444-1.392
					c-0.296-0.312-0.72-0.468-1.272-0.468c-0.624,0-1.116,0.182-1.476,0.546s-0.54,0.886-0.54,1.565v3.276h-1.152v-6.36h1.104v0.96
					c0.232-0.327,0.546-0.579,0.942-0.756c0.396-0.176,0.846-0.264,1.35-0.264C400.599,18.94,401.241,19.174,401.717,19.642z"/>
				<path d="M408.905,19.587c0.468,0.433,0.702,1.076,0.702,1.933v3.84h-1.092v-0.84c-0.192,0.296-0.466,0.521-0.822,0.678
					c-0.356,0.156-0.778,0.234-1.266,0.234c-0.712,0-1.282-0.172-1.71-0.517c-0.428-0.344-0.642-0.796-0.642-1.355
					c0-0.561,0.204-1.01,0.612-1.351c0.408-0.34,1.056-0.51,1.944-0.51h1.824v-0.228c0-0.496-0.144-0.876-0.432-1.141
					c-0.288-0.264-0.712-0.396-1.272-0.396c-0.376,0-0.744,0.062-1.104,0.186c-0.36,0.124-0.664,0.29-0.912,0.498l-0.48-0.863
					c0.328-0.265,0.72-0.467,1.176-0.606s0.939-0.21,1.452-0.21C407.763,18.94,408.437,19.156,408.905,19.587z M407.759,24.249
					c0.32-0.195,0.552-0.474,0.696-0.834v-0.888h-1.775c-0.977,0-1.464,0.328-1.464,0.984c0,0.319,0.124,0.571,0.372,0.756
					c0.248,0.184,0.592,0.275,1.032,0.275C407.059,24.543,407.439,24.446,407.759,24.249z"/>
				<path d="M411.761,17.56c-0.148-0.145-0.223-0.32-0.223-0.528s0.074-0.386,0.223-0.534c0.147-0.147,0.333-0.222,0.558-0.222
					c0.224,0,0.41,0.07,0.558,0.21s0.222,0.314,0.222,0.522c0,0.216-0.074,0.397-0.222,0.546c-0.148,0.147-0.334,0.222-0.558,0.222
					C412.095,17.776,411.909,17.703,411.761,17.56z M411.743,18.999h1.152v6.36h-1.152V18.999z"/>
				<path d="M417.083,19.228c0.392-0.192,0.868-0.288,1.428-0.288v1.116c-0.064-0.008-0.152-0.013-0.264-0.013
					c-0.624,0-1.114,0.187-1.47,0.559c-0.356,0.372-0.534,0.902-0.534,1.59v3.168h-1.152v-6.36h1.104v1.068
					C416.395,19.699,416.691,19.419,417.083,19.228z"/>
				<path d="M425.59,22.564h-5.16c0.072,0.56,0.318,1.01,0.738,1.35c0.42,0.341,0.942,0.511,1.566,0.511
					c0.76,0,1.372-0.257,1.836-0.769l0.636,0.744c-0.288,0.336-0.646,0.592-1.074,0.768c-0.428,0.177-0.906,0.265-1.434,0.265
					c-0.672,0-1.268-0.139-1.788-0.414c-0.52-0.276-0.922-0.662-1.206-1.158s-0.426-1.056-0.426-1.68
					c0-0.616,0.138-1.172,0.414-1.668c0.276-0.496,0.656-0.883,1.14-1.158c0.484-0.276,1.03-0.414,1.638-0.414
					s1.15,0.138,1.626,0.414c0.476,0.275,0.848,0.662,1.116,1.158c0.269,0.496,0.402,1.063,0.402,1.704
					C425.615,22.304,425.607,22.419,425.59,22.564z M421.085,20.415c-0.372,0.336-0.59,0.776-0.654,1.32h4.08
					c-0.064-0.536-0.282-0.974-0.654-1.314c-0.372-0.34-0.834-0.51-1.386-0.51S421.457,20.079,421.085,20.415z"/>
				<path d="M435.467,19.348c0.488,0.271,0.87,0.651,1.146,1.14c0.276,0.488,0.414,1.052,0.414,1.692
					c0,0.64-0.138,1.206-0.414,1.697c-0.276,0.492-0.658,0.875-1.146,1.146c-0.488,0.272-1.041,0.408-1.656,0.408
					c-0.456,0-0.875-0.088-1.254-0.265c-0.38-0.176-0.702-0.432-0.966-0.768v3.288h-1.151v-8.688h1.104v1.009
					c0.256-0.353,0.58-0.618,0.972-0.799c0.392-0.18,0.824-0.27,1.296-0.27C434.426,18.94,434.979,19.075,435.467,19.348z
					 M434.813,24.142c0.324-0.188,0.58-0.452,0.768-0.792s0.282-0.73,0.282-1.17c0-0.44-0.094-0.83-0.282-1.17
					s-0.444-0.603-0.768-0.786c-0.324-0.185-0.69-0.276-1.099-0.276c-0.4,0-0.762,0.094-1.086,0.282
					c-0.324,0.188-0.58,0.45-0.768,0.786c-0.188,0.336-0.282,0.724-0.282,1.164c0,0.439,0.092,0.83,0.276,1.17
					c0.184,0.34,0.439,0.604,0.768,0.792c0.328,0.188,0.692,0.282,1.092,0.282C434.123,24.424,434.489,24.329,434.813,24.142z"/>
				<path d="M438.623,16.455h1.152v8.904h-1.152V16.455z"/>
				<path d="M442.991,25.012c-0.504-0.28-0.898-0.666-1.183-1.158c-0.284-0.492-0.426-1.05-0.426-1.674s0.142-1.183,0.426-1.674
					c0.284-0.492,0.678-0.877,1.183-1.152c0.504-0.276,1.071-0.414,1.704-0.414c0.632,0,1.198,0.138,1.698,0.414
					c0.5,0.275,0.893,0.66,1.176,1.152c0.284,0.491,0.426,1.05,0.426,1.674s-0.143,1.182-0.426,1.674s-0.676,0.878-1.176,1.158
					c-0.5,0.279-1.066,0.42-1.698,0.42C444.062,25.432,443.495,25.291,442.991,25.012z M445.793,24.142
					c0.324-0.188,0.578-0.452,0.762-0.792c0.184-0.34,0.276-0.73,0.276-1.17c0-0.44-0.092-0.83-0.276-1.17
					c-0.184-0.34-0.438-0.603-0.762-0.786c-0.324-0.185-0.69-0.276-1.098-0.276c-0.408,0-0.774,0.092-1.098,0.276
					c-0.324,0.184-0.58,0.446-0.768,0.786c-0.188,0.34-0.282,0.729-0.282,1.17c0,0.439,0.094,0.83,0.282,1.17
					c0.188,0.34,0.444,0.604,0.768,0.792c0.324,0.188,0.69,0.282,1.098,0.282C445.103,24.424,445.468,24.329,445.793,24.142z"/>
				<path d="M459.448,19.636c0.468,0.464,0.702,1.151,0.702,2.063v3.66h-1.152v-3.528c0-0.615-0.143-1.08-0.426-1.392
					c-0.284-0.312-0.69-0.468-1.218-0.468c-0.584,0-1.048,0.182-1.392,0.546c-0.344,0.364-0.516,0.886-0.516,1.565v3.276h-1.152
					v-3.528c0-0.615-0.143-1.08-0.426-1.392c-0.284-0.312-0.69-0.468-1.218-0.468c-0.584,0-1.048,0.182-1.392,0.546
					s-0.516,0.886-0.516,1.565v3.276h-1.152v-6.36h1.104v0.948c0.232-0.328,0.536-0.578,0.912-0.75s0.805-0.258,1.284-0.258
					c0.496,0,0.936,0.1,1.32,0.3c0.384,0.2,0.68,0.492,0.888,0.876c0.24-0.368,0.574-0.655,1.002-0.864
					c0.428-0.208,0.91-0.312,1.446-0.312C458.346,18.94,458.98,19.172,459.448,19.636z"/>
				<path d="M467.302,19.348c0.488,0.271,0.87,0.651,1.146,1.14c0.275,0.488,0.414,1.052,0.414,1.692
					c0,0.64-0.138,1.206-0.414,1.697c-0.276,0.492-0.658,0.875-1.146,1.146c-0.488,0.272-1.04,0.408-1.656,0.408
					c-0.472,0-0.904-0.092-1.296-0.276c-0.392-0.184-0.716-0.452-0.972-0.804v1.008h-1.104v-8.904h1.152v3.504
					c0.256-0.336,0.576-0.59,0.96-0.762s0.804-0.258,1.26-0.258C466.262,18.94,466.814,19.075,467.302,19.348z M466.649,24.142
					c0.324-0.188,0.58-0.452,0.768-0.792c0.188-0.34,0.282-0.73,0.282-1.17c0-0.44-0.095-0.83-0.282-1.17
					c-0.188-0.34-0.444-0.603-0.768-0.786c-0.324-0.185-0.69-0.276-1.098-0.276c-0.4,0-0.764,0.092-1.092,0.276
					c-0.328,0.184-0.584,0.446-0.768,0.786s-0.276,0.729-0.276,1.17c0,0.439,0.092,0.83,0.276,1.17s0.44,0.604,0.768,0.792
					c0.328,0.188,0.691,0.282,1.092,0.282C465.959,24.424,466.325,24.329,466.649,24.142z"/>
				<path d="M470.476,17.56c-0.148-0.145-0.222-0.32-0.222-0.528s0.074-0.386,0.222-0.534c0.148-0.147,0.334-0.222,0.558-0.222
					s0.41,0.07,0.558,0.21c0.148,0.14,0.222,0.314,0.222,0.522c0,0.216-0.074,0.397-0.222,0.546
					c-0.148,0.147-0.334,0.222-0.558,0.222S470.625,17.703,470.476,17.56z M470.459,18.999h1.151v6.36h-1.151V18.999z"/>
				<path d="M479.53,22.564h-5.16c0.072,0.56,0.318,1.01,0.738,1.35c0.42,0.341,0.942,0.511,1.566,0.511
					c0.76,0,1.372-0.257,1.836-0.769l0.636,0.744c-0.288,0.336-0.646,0.592-1.074,0.768c-0.428,0.177-0.906,0.265-1.434,0.265
					c-0.672,0-1.268-0.139-1.788-0.414c-0.52-0.276-0.922-0.662-1.206-1.158s-0.426-1.056-0.426-1.68
					c0-0.616,0.138-1.172,0.414-1.668c0.276-0.496,0.656-0.883,1.14-1.158c0.484-0.276,1.03-0.414,1.638-0.414
					s1.15,0.138,1.626,0.414c0.476,0.275,0.848,0.662,1.116,1.158c0.269,0.496,0.402,1.063,0.402,1.704
					C479.554,22.304,479.547,22.419,479.53,22.564z M475.024,20.415c-0.372,0.336-0.59,0.776-0.654,1.32h4.08
					c-0.064-0.536-0.282-0.974-0.654-1.314c-0.372-0.34-0.834-0.51-1.386-0.51S475.396,20.079,475.024,20.415z"/>
				<path d="M483.142,19.228c0.392-0.192,0.868-0.288,1.428-0.288v1.116c-0.064-0.008-0.152-0.013-0.264-0.013
					c-0.624,0-1.114,0.187-1.47,0.559c-0.356,0.372-0.534,0.902-0.534,1.59v3.168h-1.152v-6.36h1.104v1.068
					C482.454,19.699,482.75,19.419,483.142,19.228z"/>
				<path d="M251.821,42.898c-0.676-0.372-1.206-0.884-1.59-1.536s-0.576-1.386-0.576-2.202c0-0.815,0.192-1.55,0.576-2.202
					c0.384-0.651,0.916-1.164,1.596-1.536c0.68-0.371,1.44-0.558,2.28-0.558c0.656,0,1.256,0.11,1.8,0.33s1.008,0.546,1.392,0.978
					l-0.78,0.757c-0.632-0.664-1.42-0.996-2.364-0.996c-0.624,0-1.188,0.14-1.692,0.42c-0.504,0.28-0.898,0.666-1.182,1.158
					c-0.284,0.491-0.426,1.042-0.426,1.649c0,0.608,0.142,1.158,0.426,1.65s0.678,0.878,1.182,1.158
					c0.504,0.279,1.068,0.42,1.692,0.42c0.936,0,1.724-0.336,2.364-1.009l0.78,0.757c-0.384,0.432-0.85,0.76-1.398,0.983
					c-0.548,0.225-1.15,0.336-1.806,0.336C253.255,43.455,252.497,43.27,251.821,42.898z"/>
				<path d="M258.847,34.455h1.152v8.904h-1.152V34.455z"/>
				<path d="M262.213,35.56c-0.148-0.145-0.222-0.32-0.222-0.528s0.074-0.386,0.222-0.534c0.148-0.147,0.333-0.222,0.558-0.222
					c0.224,0,0.41,0.07,0.558,0.21c0.148,0.14,0.222,0.314,0.222,0.522c0,0.216-0.074,0.397-0.222,0.546
					c-0.148,0.147-0.334,0.222-0.558,0.222C262.547,35.776,262.361,35.703,262.213,35.56z M262.195,36.999h1.152v6.36h-1.152V36.999
					z"/>
				<path d="M275.401,37.636c0.468,0.464,0.702,1.151,0.702,2.063v3.66h-1.152v-3.528c0-0.615-0.143-1.08-0.426-1.392
					c-0.284-0.312-0.69-0.468-1.218-0.468c-0.584,0-1.048,0.182-1.392,0.546c-0.344,0.364-0.516,0.886-0.516,1.565v3.276h-1.152
					v-3.528c0-0.615-0.143-1.08-0.426-1.392c-0.284-0.312-0.69-0.468-1.218-0.468c-0.584,0-1.048,0.182-1.392,0.546
					s-0.516,0.886-0.516,1.565v3.276h-1.152v-6.36h1.104v0.948c0.232-0.328,0.536-0.578,0.912-0.75s0.805-0.258,1.284-0.258
					c0.496,0,0.936,0.1,1.32,0.3c0.384,0.2,0.68,0.492,0.888,0.876c0.24-0.368,0.574-0.655,1.002-0.864
					c0.428-0.208,0.91-0.312,1.446-0.312C274.298,36.94,274.932,37.172,275.401,37.636z"/>
				<path d="M282.565,37.587c0.468,0.433,0.702,1.076,0.702,1.933v3.84h-1.092v-0.84c-0.192,0.296-0.466,0.521-0.822,0.678
					s-0.778,0.234-1.266,0.234c-0.712,0-1.282-0.172-1.71-0.517c-0.428-0.344-0.642-0.796-0.642-1.355
					c0-0.561,0.204-1.01,0.611-1.351c0.408-0.34,1.057-0.51,1.944-0.51h1.824v-0.228c0-0.496-0.145-0.876-0.432-1.141
					c-0.288-0.264-0.712-0.396-1.272-0.396c-0.376,0-0.744,0.062-1.104,0.186s-0.665,0.29-0.912,0.498l-0.48-0.863
					c0.328-0.265,0.72-0.467,1.176-0.606s0.94-0.21,1.452-0.21C281.422,36.94,282.096,37.156,282.565,37.587z M281.419,42.249
					c0.32-0.195,0.552-0.474,0.696-0.834v-0.888h-1.776c-0.976,0-1.464,0.328-1.464,0.984c0,0.319,0.124,0.571,0.372,0.756
					c0.248,0.184,0.592,0.275,1.032,0.275C280.718,42.543,281.098,42.446,281.419,42.249z"/>
				<path d="M288.978,42.988c-0.168,0.145-0.376,0.254-0.624,0.33s-0.504,0.114-0.768,0.114c-0.64,0-1.136-0.172-1.488-0.517
					c-0.352-0.344-0.528-0.836-0.528-1.476v-3.492h-1.08v-0.948h1.08v-1.392h1.152v1.392h1.824v0.948h-1.824v3.444
					c0,0.344,0.086,0.607,0.258,0.792c0.172,0.184,0.418,0.275,0.738,0.275c0.352,0,0.652-0.1,0.9-0.3L288.978,42.988z"/>
				<path d="M290.388,35.56c-0.148-0.145-0.222-0.32-0.222-0.528s0.074-0.386,0.222-0.534c0.148-0.147,0.334-0.222,0.558-0.222
					c0.224,0,0.41,0.07,0.559,0.21c0.147,0.14,0.222,0.314,0.222,0.522c0,0.216-0.074,0.397-0.222,0.546
					c-0.148,0.147-0.334,0.222-0.559,0.222C290.722,35.776,290.536,35.703,290.388,35.56z M290.37,36.999h1.152v6.36h-1.152V36.999z
					"/>
				<path d="M294.043,43.222c-0.48-0.141-0.856-0.318-1.128-0.534l0.479-0.912c0.28,0.2,0.62,0.36,1.021,0.48
					c0.399,0.119,0.804,0.18,1.212,0.18c1.008,0,1.512-0.288,1.512-0.864c0-0.192-0.068-0.344-0.204-0.456
					c-0.136-0.111-0.306-0.193-0.51-0.246c-0.204-0.052-0.494-0.109-0.87-0.174c-0.512-0.08-0.93-0.172-1.254-0.276
					c-0.324-0.104-0.602-0.279-0.834-0.527c-0.232-0.248-0.348-0.596-0.348-1.044c0-0.576,0.24-1.038,0.72-1.387
					c0.479-0.348,1.124-0.521,1.932-0.521c0.424,0,0.848,0.052,1.272,0.156c0.424,0.104,0.771,0.244,1.044,0.42l-0.492,0.912
					c-0.521-0.336-1.132-0.504-1.836-0.504c-0.488,0-0.86,0.08-1.116,0.239c-0.256,0.16-0.384,0.372-0.384,0.637
					c0,0.208,0.072,0.371,0.216,0.491c0.144,0.12,0.322,0.208,0.534,0.265c0.212,0.056,0.51,0.12,0.894,0.191
					c0.512,0.089,0.926,0.183,1.242,0.282c0.316,0.101,0.586,0.271,0.81,0.51c0.224,0.24,0.336,0.576,0.336,1.009
					c0,0.575-0.246,1.033-0.738,1.373c-0.492,0.341-1.162,0.511-2.01,0.511C295.022,43.432,294.522,43.362,294.043,43.222z"/>
				<path d="M304.068,37.587c0.468,0.433,0.702,1.076,0.702,1.933v3.84h-1.092v-0.84c-0.192,0.296-0.466,0.521-0.822,0.678
					c-0.356,0.156-0.778,0.234-1.266,0.234c-0.712,0-1.282-0.172-1.71-0.517c-0.428-0.344-0.642-0.796-0.642-1.355
					c0-0.561,0.204-1.01,0.612-1.351c0.408-0.34,1.056-0.51,1.944-0.51h1.824v-0.228c0-0.496-0.144-0.876-0.432-1.141
					c-0.288-0.264-0.712-0.396-1.272-0.396c-0.376,0-0.744,0.062-1.104,0.186c-0.36,0.124-0.664,0.29-0.912,0.498l-0.48-0.863
					c0.328-0.265,0.72-0.467,1.176-0.606s0.939-0.21,1.452-0.21C302.926,36.94,303.6,37.156,304.068,37.587z M302.922,42.249
					c0.32-0.195,0.552-0.474,0.696-0.834v-0.888h-1.775c-0.977,0-1.464,0.328-1.464,0.984c0,0.319,0.124,0.571,0.372,0.756
					c0.248,0.184,0.592,0.275,1.032,0.275C302.222,42.543,302.602,42.446,302.922,42.249z"/>
				<path d="M310.482,42.988c-0.168,0.145-0.376,0.254-0.624,0.33s-0.504,0.114-0.768,0.114c-0.64,0-1.136-0.172-1.488-0.517
					c-0.353-0.344-0.528-0.836-0.528-1.476v-3.492h-1.08v-0.948h1.08v-1.392h1.152v1.392h1.824v0.948h-1.824v3.444
					c0,0.344,0.086,0.607,0.258,0.792c0.172,0.184,0.418,0.275,0.738,0.275c0.352,0,0.652-0.1,0.9-0.3L310.482,42.988z"/>
				<path d="M311.892,35.56c-0.148-0.145-0.223-0.32-0.223-0.528s0.074-0.386,0.223-0.534c0.147-0.147,0.333-0.222,0.558-0.222
					c0.224,0,0.41,0.07,0.558,0.21s0.222,0.314,0.222,0.522c0,0.216-0.074,0.397-0.222,0.546c-0.148,0.147-0.334,0.222-0.558,0.222
					C312.226,35.776,312.04,35.703,311.892,35.56z M311.874,36.999h1.152v6.36h-1.152V36.999z"/>
				<path d="M316.242,43.012c-0.504-0.28-0.898-0.666-1.182-1.158s-0.426-1.05-0.426-1.674s0.143-1.183,0.426-1.674
					c0.284-0.492,0.678-0.877,1.182-1.152c0.504-0.276,1.072-0.414,1.704-0.414c0.632,0,1.198,0.138,1.698,0.414
					c0.5,0.275,0.892,0.66,1.176,1.152c0.284,0.491,0.426,1.05,0.426,1.674s-0.142,1.182-0.426,1.674
					c-0.284,0.492-0.676,0.878-1.176,1.158c-0.5,0.279-1.066,0.42-1.698,0.42C317.314,43.432,316.746,43.291,316.242,43.012z
					 M319.044,42.142c0.324-0.188,0.578-0.452,0.762-0.792s0.276-0.73,0.276-1.17c0-0.44-0.092-0.83-0.276-1.17
					s-0.438-0.603-0.762-0.786c-0.324-0.185-0.689-0.276-1.098-0.276s-0.774,0.092-1.098,0.276c-0.324,0.184-0.58,0.446-0.768,0.786
					s-0.282,0.729-0.282,1.17c0,0.439,0.094,0.83,0.282,1.17s0.444,0.604,0.768,0.792c0.324,0.188,0.69,0.282,1.098,0.282
					S318.72,42.329,319.044,42.142z"/>
				<path d="M328.164,37.642c0.476,0.468,0.714,1.154,0.714,2.058v3.66h-1.152v-3.528c0-0.615-0.148-1.08-0.444-1.392
					c-0.296-0.312-0.72-0.468-1.272-0.468c-0.624,0-1.116,0.182-1.476,0.546c-0.36,0.364-0.54,0.886-0.54,1.565v3.276h-1.152v-6.36
					h1.104v0.96c0.231-0.327,0.546-0.579,0.941-0.756c0.396-0.176,0.846-0.264,1.351-0.264
					C327.046,36.94,327.688,37.174,328.164,37.642z"/>
				<path d="M336.774,33.256h1.044l-3.96,11.304h-1.044L336.774,33.256z"/>
				<path d="M343.343,42.898c-0.676-0.372-1.206-0.884-1.59-1.536s-0.576-1.386-0.576-2.202c0-0.815,0.192-1.55,0.576-2.202
					c0.384-0.651,0.916-1.164,1.596-1.536c0.68-0.371,1.44-0.558,2.28-0.558c0.656,0,1.256,0.11,1.8,0.33s1.008,0.546,1.392,0.978
					l-0.78,0.757c-0.632-0.664-1.42-0.996-2.364-0.996c-0.624,0-1.188,0.14-1.692,0.42c-0.504,0.28-0.898,0.666-1.182,1.158
					c-0.284,0.491-0.426,1.042-0.426,1.649c0,0.608,0.142,1.158,0.426,1.65s0.678,0.878,1.182,1.158
					c0.504,0.279,1.068,0.42,1.692,0.42c0.936,0,1.724-0.336,2.364-1.009l0.78,0.757c-0.384,0.432-0.85,0.76-1.398,0.983
					c-0.548,0.225-1.15,0.336-1.806,0.336C344.777,43.455,344.019,43.27,343.343,42.898z"/>
				<path d="M355.692,37.642c0.476,0.468,0.714,1.154,0.714,2.058v3.66h-1.152v-3.528c0-0.615-0.148-1.08-0.444-1.392
					c-0.296-0.312-0.72-0.468-1.271-0.468c-0.624,0-1.116,0.182-1.477,0.546c-0.359,0.364-0.54,0.886-0.54,1.565v3.276h-1.151
					v-8.904h1.151V37.9c0.24-0.304,0.554-0.54,0.942-0.708c0.388-0.168,0.822-0.252,1.302-0.252
					C354.573,36.94,355.215,37.174,355.692,37.642z"/>
				<path d="M362.88,37.587c0.468,0.433,0.702,1.076,0.702,1.933v3.84h-1.092v-0.84c-0.192,0.296-0.466,0.521-0.822,0.678
					c-0.356,0.156-0.778,0.234-1.267,0.234c-0.712,0-1.282-0.172-1.71-0.517c-0.428-0.344-0.642-0.796-0.642-1.355
					c0-0.561,0.204-1.01,0.612-1.351c0.408-0.34,1.056-0.51,1.944-0.51h1.824v-0.228c0-0.496-0.144-0.876-0.432-1.141
					c-0.288-0.264-0.712-0.396-1.272-0.396c-0.376,0-0.744,0.062-1.104,0.186c-0.36,0.124-0.665,0.29-0.912,0.498l-0.48-0.863
					c0.328-0.265,0.72-0.467,1.176-0.606s0.94-0.21,1.452-0.21C361.737,36.94,362.411,37.156,362.88,37.587z M361.733,42.249
					c0.32-0.195,0.552-0.474,0.696-0.834v-0.888h-1.776c-0.976,0-1.464,0.328-1.464,0.984c0,0.319,0.124,0.571,0.372,0.756
					c0.248,0.184,0.592,0.275,1.032,0.275C361.033,42.543,361.413,42.446,361.733,42.249z"/>
				<path d="M371.645,36.999v6.36h-1.092V42.4c-0.232,0.328-0.538,0.582-0.918,0.762c-0.38,0.181-0.794,0.271-1.242,0.271
					c-0.848,0-1.516-0.234-2.004-0.702s-0.732-1.158-0.732-2.07v-3.66h1.152v3.528c0,0.616,0.148,1.082,0.444,1.398
					c0.296,0.315,0.72,0.474,1.271,0.474c0.608,0,1.088-0.184,1.44-0.552c0.352-0.368,0.528-0.889,0.528-1.561v-3.288H371.645z"/>
				<path d="M375.137,36.448v0.552h1.848v0.948h-1.824v5.412h-1.152v-5.412h-1.08v-0.948h1.08v-0.563c0-0.632,0.184-1.132,0.552-1.5
					s0.884-0.552,1.548-0.552c0.256,0,0.496,0.031,0.72,0.096s0.416,0.156,0.576,0.276l-0.348,0.876
					c-0.264-0.2-0.56-0.301-0.888-0.301C375.481,35.331,375.137,35.703,375.137,36.448z"/>
				<path d="M379.373,36.448v0.552h1.848v0.948h-1.824v5.412h-1.152v-5.412h-1.08v-0.948h1.08v-0.563c0-0.632,0.184-1.132,0.552-1.5
					c0.368-0.368,0.884-0.552,1.548-0.552c0.256,0,0.496,0.031,0.72,0.096c0.224,0.064,0.416,0.156,0.576,0.276l-0.348,0.876
					c-0.265-0.2-0.561-0.301-0.889-0.301C379.717,35.331,379.373,35.703,379.373,36.448z"/>
				<path d="M386.531,37.587c0.468,0.433,0.702,1.076,0.702,1.933v3.84h-1.092v-0.84c-0.192,0.296-0.466,0.521-0.822,0.678
					c-0.356,0.156-0.778,0.234-1.266,0.234c-0.712,0-1.282-0.172-1.71-0.517c-0.428-0.344-0.642-0.796-0.642-1.355
					c0-0.561,0.204-1.01,0.612-1.351c0.408-0.34,1.056-0.51,1.944-0.51h1.824v-0.228c0-0.496-0.144-0.876-0.432-1.141
					c-0.288-0.264-0.712-0.396-1.272-0.396c-0.376,0-0.744,0.062-1.104,0.186c-0.36,0.124-0.664,0.29-0.912,0.498l-0.479-0.863
					c0.328-0.265,0.72-0.467,1.176-0.606s0.94-0.21,1.452-0.21C385.389,36.94,386.063,37.156,386.531,37.587z M385.385,42.249
					c0.319-0.195,0.552-0.474,0.696-0.834v-0.888h-1.776c-0.977,0-1.464,0.328-1.464,0.984c0,0.319,0.124,0.571,0.372,0.756
					c0.248,0.184,0.592,0.275,1.032,0.275S385.065,42.446,385.385,42.249z"/>
				<path d="M395.489,36.999v5.496c0,1.112-0.276,1.935-0.828,2.466c-0.552,0.532-1.376,0.799-2.472,0.799
					c-0.601,0-1.172-0.082-1.716-0.246s-0.984-0.398-1.32-0.702l0.552-0.888c0.296,0.256,0.662,0.457,1.098,0.605
					s0.886,0.222,1.35,0.222c0.744,0,1.294-0.176,1.65-0.527c0.356-0.353,0.534-0.889,0.534-1.608v-0.504
					c-0.271,0.328-0.605,0.574-1.002,0.738c-0.396,0.164-0.826,0.246-1.29,0.246c-0.607,0-1.158-0.13-1.649-0.391
					c-0.492-0.26-0.878-0.624-1.158-1.092c-0.28-0.468-0.42-1.002-0.42-1.602c0-0.601,0.14-1.135,0.42-1.603
					c0.28-0.468,0.666-0.83,1.158-1.086c0.492-0.256,1.042-0.384,1.649-0.384c0.48,0,0.926,0.088,1.338,0.264
					c0.412,0.177,0.75,0.437,1.014,0.78v-0.984H395.489z M393.299,41.824c0.332-0.176,0.592-0.422,0.78-0.738
					c0.188-0.315,0.282-0.674,0.282-1.073c0-0.616-0.204-1.114-0.612-1.494c-0.408-0.38-0.932-0.57-1.572-0.57
					c-0.648,0-1.176,0.19-1.584,0.57s-0.612,0.878-0.612,1.494c0,0.399,0.094,0.758,0.282,1.073c0.188,0.316,0.448,0.562,0.78,0.738
					s0.71,0.264,1.134,0.264C392.592,42.087,392.967,41.999,393.299,41.824z"/>
				<path d="M403.409,40.564h-5.16c0.072,0.56,0.318,1.01,0.738,1.35c0.42,0.341,0.941,0.511,1.565,0.511
					c0.76,0,1.372-0.257,1.836-0.769l0.636,0.744c-0.288,0.336-0.646,0.592-1.074,0.768c-0.428,0.177-0.906,0.265-1.434,0.265
					c-0.672,0-1.268-0.139-1.788-0.414c-0.52-0.276-0.922-0.662-1.206-1.158s-0.426-1.056-0.426-1.68
					c0-0.616,0.139-1.172,0.414-1.668c0.276-0.496,0.656-0.883,1.141-1.158c0.483-0.276,1.029-0.414,1.638-0.414
					c0.608,0,1.15,0.138,1.626,0.414c0.476,0.275,0.848,0.662,1.116,1.158c0.268,0.496,0.402,1.063,0.402,1.704
					C403.433,40.304,403.424,40.419,403.409,40.564z M398.903,38.415c-0.372,0.336-0.59,0.776-0.654,1.32h4.08
					c-0.064-0.536-0.282-0.974-0.654-1.314c-0.372-0.34-0.834-0.51-1.386-0.51S399.275,38.079,398.903,38.415z"/>
				<path d="M410.789,33.256h1.044l-3.96,11.304h-1.044L410.789,33.256z"/>
				<path d="M423.172,34.959l-3.684,8.4H418.3l-3.696-8.4h1.296l3.024,6.9l3.048-6.9H423.172z"/>
				<path d="M429.317,40.564h-5.16c0.072,0.56,0.318,1.01,0.738,1.35c0.42,0.341,0.942,0.511,1.566,0.511
					c0.76,0,1.372-0.257,1.836-0.769l0.636,0.744c-0.288,0.336-0.646,0.592-1.074,0.768c-0.428,0.177-0.906,0.265-1.434,0.265
					c-0.672,0-1.268-0.139-1.788-0.414c-0.52-0.276-0.922-0.662-1.206-1.158c-0.284-0.496-0.426-1.056-0.426-1.68
					c0-0.616,0.138-1.172,0.414-1.668c0.276-0.496,0.656-0.883,1.14-1.158c0.484-0.276,1.03-0.414,1.638-0.414
					c0.607,0,1.149,0.138,1.626,0.414c0.476,0.275,0.848,0.662,1.116,1.158s0.402,1.063,0.402,1.704
					C429.34,40.304,429.333,40.419,429.317,40.564z M424.811,38.415c-0.372,0.336-0.59,0.776-0.654,1.32h4.08
					c-0.064-0.536-0.282-0.974-0.654-1.314c-0.372-0.34-0.834-0.51-1.386-0.51C425.645,37.911,425.182,38.079,424.811,38.415z"/>
				<path d="M436.258,37.642c0.476,0.468,0.714,1.154,0.714,2.058v3.66h-1.151v-3.528c0-0.615-0.148-1.08-0.444-1.392
					c-0.296-0.312-0.72-0.468-1.272-0.468c-0.624,0-1.116,0.182-1.476,0.546c-0.36,0.364-0.54,0.886-0.54,1.565v3.276h-1.152v-6.36
					h1.104v0.96c0.232-0.327,0.546-0.579,0.942-0.756c0.396-0.176,0.846-0.264,1.35-0.264
					C435.14,36.94,435.783,37.174,436.258,37.642z"/>
				<path d="M442.684,42.988c-0.168,0.145-0.376,0.254-0.624,0.33s-0.504,0.114-0.768,0.114c-0.64,0-1.136-0.172-1.488-0.517
					c-0.352-0.344-0.528-0.836-0.528-1.476v-3.492h-1.08v-0.948h1.08v-1.392h1.152v1.392h1.824v0.948h-1.824v3.444
					c0,0.344,0.086,0.607,0.258,0.792c0.172,0.184,0.418,0.275,0.738,0.275c0.352,0,0.652-0.1,0.9-0.3L442.684,42.988z"/>
				<path d="M444.094,35.56c-0.148-0.145-0.222-0.32-0.222-0.528s0.074-0.386,0.222-0.534c0.148-0.147,0.334-0.222,0.558-0.222
					c0.224,0,0.41,0.07,0.559,0.21c0.147,0.14,0.222,0.314,0.222,0.522c0,0.216-0.074,0.397-0.222,0.546
					c-0.148,0.147-0.334,0.222-0.559,0.222C444.428,35.776,444.242,35.703,444.094,35.56z M444.076,36.999h1.152v6.36h-1.152V36.999
					z"/>
				<path d="M447.424,34.455h1.152v8.904h-1.152V34.455z"/>
				<path d="M455.11,37.587c0.468,0.433,0.702,1.076,0.702,1.933v3.84h-1.092v-0.84c-0.192,0.296-0.466,0.521-0.822,0.678
					c-0.356,0.156-0.778,0.234-1.266,0.234c-0.712,0-1.282-0.172-1.71-0.517c-0.428-0.344-0.642-0.796-0.642-1.355
					c0-0.561,0.204-1.01,0.612-1.351c0.408-0.34,1.056-0.51,1.944-0.51h1.824v-0.228c0-0.496-0.144-0.876-0.432-1.141
					c-0.288-0.264-0.712-0.396-1.272-0.396c-0.376,0-0.744,0.062-1.104,0.186c-0.36,0.124-0.664,0.29-0.912,0.498l-0.48-0.863
					c0.328-0.265,0.72-0.467,1.176-0.606s0.939-0.21,1.452-0.21C453.968,36.94,454.642,37.156,455.11,37.587z M453.964,42.249
					c0.32-0.195,0.552-0.474,0.696-0.834v-0.888h-1.775c-0.977,0-1.464,0.328-1.464,0.984c0,0.319,0.124,0.571,0.372,0.756
					c0.248,0.184,0.592,0.275,1.032,0.275C453.264,42.543,453.644,42.446,453.964,42.249z"/>
				<path d="M461.524,42.988c-0.168,0.145-0.376,0.254-0.624,0.33s-0.504,0.114-0.768,0.114c-0.64,0-1.136-0.172-1.488-0.517
					c-0.353-0.344-0.528-0.836-0.528-1.476v-3.492h-1.08v-0.948h1.08v-1.392h1.152v1.392h1.824v0.948h-1.824v3.444
					c0,0.344,0.086,0.607,0.258,0.792c0.172,0.184,0.418,0.275,0.738,0.275c0.352,0,0.652-0.1,0.9-0.3L461.524,42.988z"/>
				<path d="M462.934,35.56c-0.148-0.145-0.223-0.32-0.223-0.528s0.074-0.386,0.223-0.534c0.147-0.147,0.333-0.222,0.558-0.222
					c0.224,0,0.41,0.07,0.558,0.21s0.222,0.314,0.222,0.522c0,0.216-0.074,0.397-0.222,0.546c-0.148,0.147-0.334,0.222-0.558,0.222
					C463.268,35.776,463.082,35.703,462.934,35.56z M462.916,36.999h1.152v6.36h-1.152V36.999z"/>
				<path d="M467.284,43.012c-0.504-0.28-0.898-0.666-1.182-1.158s-0.426-1.05-0.426-1.674s0.143-1.183,0.426-1.674
					c0.284-0.492,0.678-0.877,1.182-1.152c0.504-0.276,1.072-0.414,1.704-0.414c0.632,0,1.198,0.138,1.698,0.414
					c0.5,0.275,0.892,0.66,1.176,1.152c0.284,0.491,0.426,1.05,0.426,1.674s-0.142,1.182-0.426,1.674
					c-0.284,0.492-0.676,0.878-1.176,1.158c-0.5,0.279-1.066,0.42-1.698,0.42C468.356,43.432,467.788,43.291,467.284,43.012z
					 M470.086,42.142c0.324-0.188,0.578-0.452,0.762-0.792s0.276-0.73,0.276-1.17c0-0.44-0.092-0.83-0.276-1.17
					s-0.438-0.603-0.762-0.786c-0.324-0.185-0.689-0.276-1.098-0.276s-0.774,0.092-1.098,0.276c-0.324,0.184-0.58,0.446-0.768,0.786
					s-0.282,0.729-0.282,1.17c0,0.439,0.094,0.83,0.282,1.17s0.444,0.604,0.768,0.792c0.324,0.188,0.69,0.282,1.098,0.282
					S469.762,42.329,470.086,42.142z"/>
				<path d="M479.206,37.642c0.476,0.468,0.714,1.154,0.714,2.058v3.66h-1.151v-3.528c0-0.615-0.148-1.08-0.444-1.392
					c-0.296-0.312-0.72-0.468-1.272-0.468c-0.624,0-1.116,0.182-1.476,0.546c-0.36,0.364-0.54,0.886-0.54,1.565v3.276h-1.152v-6.36
					h1.104v0.96c0.232-0.327,0.546-0.579,0.942-0.756c0.396-0.176,0.846-0.264,1.35-0.264
					C478.088,36.94,478.73,37.174,479.206,37.642z"/>
				<path d="M259.795,72.999l-2.376,6.36h-1.104l-1.836-4.824l-1.86,4.824h-1.104l-2.364-6.36h1.092l1.848,5.064l1.92-5.064h0.972
					l1.884,5.088l1.896-5.088H259.795z"/>
				<path d="M270.487,72.999l-2.376,6.36h-1.104l-1.836-4.824l-1.859,4.824h-1.104l-2.364-6.36h1.092l1.848,5.064l1.92-5.064h0.972
					l1.884,5.088l1.896-5.088H270.487z"/>
				<path d="M281.179,72.999l-2.376,6.36h-1.104l-1.836-4.824l-1.86,4.824h-1.104l-2.364-6.36h1.092l1.848,5.064l1.92-5.064h0.972
					l1.884,5.088l1.896-5.088H281.179z"/>
				<path d="M281.647,79.198c-0.16-0.156-0.24-0.354-0.24-0.594c0-0.232,0.08-0.426,0.24-0.582c0.16-0.156,0.352-0.234,0.576-0.234
					s0.412,0.076,0.564,0.229c0.152,0.151,0.228,0.348,0.228,0.588s-0.078,0.438-0.234,0.594s-0.342,0.234-0.558,0.234
					C281.999,79.432,281.807,79.354,281.647,79.198z"/>
				<path d="M289.129,73.587c0.468,0.433,0.702,1.076,0.702,1.933v3.84h-1.092v-0.84c-0.192,0.296-0.466,0.521-0.822,0.678
					c-0.356,0.156-0.778,0.234-1.266,0.234c-0.712,0-1.282-0.172-1.71-0.517c-0.428-0.344-0.642-0.796-0.642-1.355
					c0-0.561,0.204-1.01,0.612-1.351c0.408-0.34,1.056-0.51,1.944-0.51h1.824v-0.228c0-0.496-0.144-0.876-0.432-1.141
					c-0.288-0.264-0.712-0.396-1.272-0.396c-0.376,0-0.744,0.062-1.104,0.186c-0.36,0.124-0.664,0.29-0.912,0.498l-0.48-0.863
					c0.328-0.265,0.72-0.467,1.176-0.606s0.939-0.21,1.452-0.21C287.986,72.94,288.661,73.156,289.129,73.587z M287.983,78.249
					c0.32-0.195,0.552-0.474,0.696-0.834v-0.888h-1.775c-0.977,0-1.464,0.328-1.464,0.984c0,0.319,0.124,0.571,0.372,0.756
					c0.248,0.184,0.592,0.275,1.032,0.275C287.283,78.543,287.663,78.446,287.983,78.249z"/>
				<path d="M297.894,72.999v6.36h-1.092V78.4c-0.232,0.328-0.538,0.582-0.918,0.762c-0.38,0.181-0.794,0.271-1.242,0.271
					c-0.848,0-1.516-0.234-2.004-0.702s-0.732-1.158-0.732-2.07v-3.66h1.152v3.528c0,0.616,0.148,1.082,0.444,1.398
					c0.296,0.315,0.72,0.474,1.271,0.474c0.608,0,1.088-0.184,1.44-0.552c0.352-0.368,0.528-0.889,0.528-1.561v-3.288H297.894z"/>
				<path d="M309.948,73.636c0.468,0.464,0.702,1.151,0.702,2.063v3.66h-1.152v-3.528c0-0.615-0.143-1.08-0.426-1.392
					c-0.284-0.312-0.69-0.468-1.218-0.468c-0.584,0-1.048,0.182-1.392,0.546c-0.344,0.364-0.516,0.886-0.516,1.565v3.276h-1.152
					v-3.528c0-0.615-0.143-1.08-0.426-1.392c-0.284-0.312-0.69-0.468-1.218-0.468c-0.584,0-1.048,0.182-1.392,0.546
					s-0.516,0.886-0.516,1.565v3.276h-1.152v-6.36h1.104v0.948c0.232-0.328,0.536-0.578,0.912-0.75s0.805-0.258,1.284-0.258
					c0.496,0,0.936,0.1,1.32,0.3c0.384,0.2,0.68,0.492,0.888,0.876c0.24-0.368,0.574-0.655,1.002-0.864
					c0.428-0.208,0.91-0.312,1.446-0.312C308.846,72.94,309.48,73.172,309.948,73.636z"/>
				<path d="M318.534,76.564h-5.16c0.072,0.56,0.318,1.01,0.738,1.35c0.42,0.341,0.942,0.511,1.566,0.511
					c0.76,0,1.372-0.257,1.836-0.769l0.636,0.744c-0.288,0.336-0.646,0.592-1.074,0.768c-0.428,0.177-0.906,0.265-1.434,0.265
					c-0.672,0-1.268-0.139-1.788-0.414c-0.52-0.276-0.922-0.662-1.206-1.158s-0.426-1.056-0.426-1.68
					c0-0.616,0.138-1.172,0.414-1.668c0.276-0.496,0.656-0.883,1.14-1.158c0.484-0.276,1.03-0.414,1.638-0.414
					s1.15,0.138,1.626,0.414c0.476,0.275,0.848,0.662,1.116,1.158c0.269,0.496,0.402,1.063,0.402,1.704
					C318.558,76.304,318.55,76.419,318.534,76.564z M314.028,74.415c-0.372,0.336-0.59,0.776-0.654,1.32h4.08
					c-0.064-0.536-0.282-0.974-0.654-1.314c-0.372-0.34-0.834-0.51-1.386-0.51S314.4,74.079,314.028,74.415z"/>
				<path d="M322.146,73.228c0.392-0.192,0.868-0.288,1.428-0.288v1.116c-0.064-0.008-0.152-0.013-0.264-0.013
					c-0.624,0-1.114,0.187-1.47,0.559c-0.356,0.372-0.534,0.902-0.534,1.59v3.168h-1.152v-6.36h1.104v1.068
					C321.458,73.699,321.754,73.419,322.146,73.228z"/>
				<path d="M329.316,73.587c0.468,0.433,0.702,1.076,0.702,1.933v3.84h-1.092v-0.84c-0.192,0.296-0.466,0.521-0.822,0.678
					c-0.356,0.156-0.778,0.234-1.266,0.234c-0.712,0-1.282-0.172-1.71-0.517c-0.428-0.344-0.642-0.796-0.642-1.355
					c0-0.561,0.204-1.01,0.612-1.351c0.408-0.34,1.056-0.51,1.944-0.51h1.824v-0.228c0-0.496-0.144-0.876-0.432-1.141
					c-0.288-0.264-0.712-0.396-1.272-0.396c-0.376,0-0.744,0.062-1.104,0.186c-0.36,0.124-0.664,0.29-0.912,0.498l-0.48-0.863
					c0.328-0.265,0.72-0.467,1.176-0.606s0.939-0.21,1.452-0.21C328.174,72.94,328.848,73.156,329.316,73.587z M328.17,78.249
					c0.32-0.195,0.552-0.474,0.696-0.834v-0.888h-1.775c-0.977,0-1.464,0.328-1.464,0.984c0,0.319,0.124,0.571,0.372,0.756
					c0.248,0.184,0.592,0.275,1.032,0.275C327.47,78.543,327.85,78.446,328.17,78.249z"/>
				<path d="M331.854,79.198c-0.16-0.156-0.24-0.354-0.24-0.594c0-0.232,0.08-0.426,0.24-0.582c0.16-0.156,0.352-0.234,0.576-0.234
					s0.412,0.076,0.564,0.229c0.152,0.151,0.228,0.348,0.228,0.588s-0.078,0.438-0.234,0.594s-0.342,0.234-0.558,0.234
					C332.206,79.432,332.014,79.354,331.854,79.198z"/>
				<path d="M336.173,72.448v0.552h1.849v0.948h-1.824v5.412h-1.152v-5.412h-1.08v-0.948h1.08v-0.563c0-0.632,0.184-1.132,0.552-1.5
					c0.368-0.368,0.884-0.552,1.548-0.552c0.256,0,0.496,0.031,0.72,0.096c0.224,0.064,0.416,0.156,0.576,0.276l-0.348,0.876
					c-0.264-0.2-0.56-0.301-0.888-0.301C336.518,71.331,336.173,71.703,336.173,72.448z"/>
				<path d="M342.066,73.228c0.392-0.192,0.868-0.288,1.428-0.288v1.116c-0.064-0.008-0.152-0.013-0.264-0.013
					c-0.624,0-1.114,0.187-1.47,0.559s-0.534,0.902-0.534,1.59v3.168h-1.151v-6.36h1.104v1.068
					C341.378,73.699,341.673,73.419,342.066,73.228z"/>
				<path d="M251.209,97.012c-0.508-0.28-0.905-0.666-1.193-1.158s-0.433-1.05-0.433-1.674s0.145-1.183,0.433-1.674
					c0.288-0.492,0.686-0.877,1.193-1.152c0.508-0.276,1.086-0.414,1.734-0.414c0.576,0,1.09,0.116,1.542,0.348
					c0.452,0.232,0.802,0.568,1.05,1.008l-0.876,0.564c-0.2-0.304-0.448-0.532-0.744-0.684c-0.296-0.152-0.624-0.229-0.983-0.229
					c-0.416,0-0.791,0.092-1.122,0.276c-0.332,0.184-0.592,0.446-0.78,0.786s-0.282,0.729-0.282,1.17
					c0,0.448,0.094,0.842,0.282,1.182s0.448,0.603,0.78,0.786c0.332,0.184,0.706,0.276,1.122,0.276c0.359,0,0.688-0.076,0.983-0.229
					c0.296-0.151,0.544-0.38,0.744-0.684l0.876,0.552c-0.248,0.44-0.598,0.778-1.05,1.014c-0.452,0.236-0.966,0.354-1.542,0.354
					C252.295,97.432,251.717,97.291,251.209,97.012z"/>
				<path d="M257.947,97.012c-0.504-0.28-0.898-0.666-1.182-1.158c-0.284-0.492-0.426-1.05-0.426-1.674s0.142-1.183,0.426-1.674
					c0.284-0.492,0.678-0.877,1.182-1.152c0.504-0.276,1.072-0.414,1.704-0.414s1.198,0.138,1.698,0.414
					c0.5,0.275,0.892,0.66,1.176,1.152c0.284,0.491,0.426,1.05,0.426,1.674s-0.142,1.182-0.426,1.674s-0.676,0.878-1.176,1.158
					c-0.5,0.279-1.066,0.42-1.698,0.42S258.451,97.291,257.947,97.012z M260.749,96.142c0.324-0.188,0.578-0.452,0.762-0.792
					c0.184-0.34,0.275-0.73,0.275-1.17c0-0.44-0.092-0.83-0.275-1.17c-0.185-0.34-0.438-0.603-0.762-0.786
					c-0.324-0.185-0.69-0.276-1.098-0.276s-0.774,0.092-1.098,0.276c-0.324,0.184-0.58,0.446-0.769,0.786
					c-0.188,0.34-0.282,0.729-0.282,1.17c0,0.439,0.094,0.83,0.282,1.17c0.188,0.34,0.444,0.604,0.769,0.792
					c0.324,0.188,0.689,0.282,1.098,0.282S260.425,96.329,260.749,96.142z"/>
				<path d="M269.869,91.642c0.476,0.468,0.714,1.154,0.714,2.058v3.66h-1.151v-3.528c0-0.615-0.148-1.08-0.444-1.392
					c-0.296-0.312-0.72-0.468-1.272-0.468c-0.624,0-1.116,0.182-1.476,0.546c-0.36,0.364-0.54,0.886-0.54,1.565v3.276h-1.152v-6.36
					h1.104v0.96c0.232-0.327,0.546-0.579,0.942-0.756c0.396-0.176,0.846-0.264,1.35-0.264
					C268.751,90.94,269.393,91.174,269.869,91.642z"/>
				<path d="M276.295,96.988c-0.168,0.145-0.376,0.254-0.624,0.33s-0.504,0.114-0.768,0.114c-0.64,0-1.136-0.172-1.488-0.517
					c-0.352-0.344-0.528-0.836-0.528-1.476v-3.492h-1.08v-0.948h1.08v-1.392h1.152v1.392h1.824v0.948h-1.824v3.444
					c0,0.344,0.086,0.607,0.258,0.792c0.172,0.184,0.418,0.275,0.738,0.275c0.352,0,0.652-0.1,0.9-0.3L276.295,96.988z"/>
				<path d="M282.025,91.587c0.468,0.433,0.702,1.076,0.702,1.933v3.84h-1.092v-0.84c-0.192,0.296-0.466,0.521-0.822,0.678
					c-0.356,0.156-0.778,0.234-1.267,0.234c-0.712,0-1.282-0.172-1.71-0.517c-0.428-0.344-0.642-0.796-0.642-1.355
					c0-0.561,0.204-1.01,0.612-1.351c0.408-0.34,1.056-0.51,1.944-0.51h1.824v-0.228c0-0.496-0.144-0.876-0.432-1.141
					c-0.288-0.264-0.712-0.396-1.272-0.396c-0.376,0-0.744,0.062-1.104,0.186c-0.36,0.124-0.665,0.29-0.912,0.498l-0.48-0.863
					c0.328-0.265,0.72-0.467,1.176-0.606s0.94-0.21,1.452-0.21C280.882,90.94,281.557,91.156,282.025,91.587z M280.879,96.249
					c0.32-0.195,0.552-0.474,0.696-0.834v-0.888h-1.776c-0.976,0-1.464,0.328-1.464,0.984c0,0.319,0.124,0.571,0.372,0.756
					c0.248,0.184,0.592,0.275,1.032,0.275C280.179,96.543,280.559,96.446,280.879,96.249z"/>
				<path d="M285.936,97.012c-0.508-0.28-0.905-0.666-1.193-1.158s-0.433-1.05-0.433-1.674s0.145-1.183,0.433-1.674
					c0.288-0.492,0.686-0.877,1.193-1.152c0.508-0.276,1.086-0.414,1.734-0.414c0.576,0,1.09,0.116,1.542,0.348
					c0.452,0.232,0.802,0.568,1.05,1.008l-0.876,0.564c-0.2-0.304-0.448-0.532-0.744-0.684c-0.296-0.152-0.624-0.229-0.983-0.229
					c-0.416,0-0.791,0.092-1.122,0.276c-0.332,0.184-0.592,0.446-0.78,0.786s-0.282,0.729-0.282,1.17
					c0,0.448,0.094,0.842,0.282,1.182s0.448,0.603,0.78,0.786c0.332,0.184,0.706,0.276,1.122,0.276c0.359,0,0.688-0.076,0.983-0.229
					c0.296-0.151,0.544-0.38,0.744-0.684l0.876,0.552c-0.248,0.44-0.598,0.778-1.05,1.014c-0.452,0.236-0.966,0.354-1.542,0.354
					C287.023,97.432,286.444,97.291,285.936,97.012z"/>
				<path d="M295.411,96.988c-0.168,0.145-0.376,0.254-0.624,0.33s-0.504,0.114-0.769,0.114c-0.64,0-1.136-0.172-1.487-0.517
					c-0.353-0.344-0.528-0.836-0.528-1.476v-3.492h-1.08v-0.948h1.08v-1.392h1.152v1.392h1.824v0.948h-1.824v3.444
					c0,0.344,0.085,0.607,0.258,0.792c0.172,0.184,0.418,0.275,0.738,0.275c0.352,0,0.652-0.1,0.9-0.3L295.411,96.988z"/>
				<path d="M304.842,89.541c0.848,0.444,1.51,1.066,1.986,1.866s0.714,1.712,0.714,2.736s-0.188,1.828-0.564,2.412
					s-0.9,0.876-1.572,0.876c-0.384,0-0.702-0.098-0.954-0.294s-0.414-0.479-0.486-0.847c-0.24,0.368-0.554,0.65-0.942,0.847
					c-0.388,0.196-0.834,0.294-1.338,0.294c-0.56,0-1.064-0.132-1.512-0.396c-0.448-0.264-0.798-0.63-1.05-1.098
					s-0.378-0.998-0.378-1.59c0-0.584,0.126-1.11,0.378-1.578s0.602-0.832,1.05-1.092c0.448-0.26,0.952-0.391,1.512-0.391
					c0.464,0,0.884,0.086,1.26,0.258c0.375,0.173,0.688,0.427,0.936,0.763v-0.973h1.044v4.32c0,0.296,0.064,0.515,0.192,0.654
					s0.292,0.21,0.492,0.21c0.353,0,0.626-0.206,0.822-0.618s0.294-0.994,0.294-1.746c0-0.888-0.2-1.67-0.6-2.346
					c-0.4-0.676-0.962-1.202-1.687-1.578c-0.724-0.376-1.554-0.564-2.49-0.564c-0.944,0-1.778,0.196-2.502,0.589
					c-0.724,0.392-1.286,0.939-1.686,1.644c-0.4,0.704-0.6,1.508-0.6,2.412c0,0.912,0.198,1.72,0.594,2.424
					c0.396,0.704,0.952,1.254,1.668,1.65c0.716,0.396,1.542,0.594,2.478,0.594c0.393,0,0.792-0.044,1.2-0.132
					c0.408-0.089,0.78-0.221,1.116-0.396l0.264,0.769c-0.352,0.184-0.76,0.323-1.224,0.42c-0.464,0.096-0.916,0.144-1.356,0.144
					c-1.096,0-2.069-0.233-2.922-0.702c-0.852-0.468-1.514-1.118-1.986-1.949c-0.472-0.832-0.708-1.772-0.708-2.82
					s0.238-1.984,0.714-2.809c0.476-0.823,1.144-1.468,2.004-1.932c0.859-0.464,1.842-0.696,2.946-0.696
					C303.03,88.875,303.994,89.098,304.842,89.541z M302.904,96.232c0.308-0.176,0.552-0.426,0.732-0.75s0.27-0.702,0.27-1.134
					c0-0.433-0.09-0.811-0.27-1.135c-0.18-0.323-0.424-0.571-0.732-0.743s-0.658-0.259-1.05-0.259c-0.608,0-1.1,0.194-1.476,0.582
					c-0.376,0.389-0.564,0.906-0.564,1.555c0,0.647,0.19,1.168,0.57,1.56c0.38,0.393,0.87,0.588,1.47,0.588
					C302.246,96.495,302.596,96.407,302.904,96.232z"/>
				<path d="M308.671,97.198c-0.16-0.156-0.24-0.354-0.24-0.594c0-0.232,0.08-0.426,0.24-0.582c0.16-0.156,0.352-0.234,0.576-0.234
					s0.412,0.076,0.564,0.229c0.152,0.151,0.228,0.348,0.228,0.588s-0.078,0.438-0.234,0.594s-0.342,0.234-0.558,0.234
					C309.022,97.432,308.83,97.354,308.671,97.198z"/>
				<path d="M316.152,91.587c0.468,0.433,0.702,1.076,0.702,1.933v3.84h-1.092v-0.84c-0.192,0.296-0.466,0.521-0.822,0.678
					c-0.356,0.156-0.778,0.234-1.266,0.234c-0.712,0-1.282-0.172-1.71-0.517c-0.428-0.344-0.642-0.796-0.642-1.355
					c0-0.561,0.204-1.01,0.612-1.351c0.408-0.34,1.056-0.51,1.944-0.51h1.824v-0.228c0-0.496-0.144-0.876-0.432-1.141
					c-0.288-0.264-0.712-0.396-1.272-0.396c-0.376,0-0.744,0.062-1.104,0.186c-0.36,0.124-0.664,0.29-0.912,0.498l-0.48-0.863
					c0.328-0.265,0.72-0.467,1.176-0.606s0.939-0.21,1.452-0.21C315.01,90.94,315.684,91.156,316.152,91.587z M315.006,96.249
					c0.32-0.195,0.552-0.474,0.696-0.834v-0.888h-1.775c-0.977,0-1.464,0.328-1.464,0.984c0,0.319,0.124,0.571,0.372,0.756
					c0.248,0.184,0.592,0.275,1.032,0.275C314.306,96.543,314.686,96.446,315.006,96.249z"/>
				<path d="M324.918,90.999v6.36h-1.092V96.4c-0.232,0.328-0.538,0.582-0.918,0.762c-0.38,0.181-0.794,0.271-1.242,0.271
					c-0.848,0-1.516-0.234-2.004-0.702c-0.488-0.468-0.731-1.158-0.731-2.07v-3.66h1.152v3.528c0,0.616,0.148,1.082,0.444,1.398
					c0.296,0.315,0.72,0.474,1.272,0.474c0.608,0,1.088-0.184,1.44-0.552s0.528-0.889,0.528-1.561v-3.288H324.918z"/>
				<path d="M336.972,91.636c0.468,0.464,0.702,1.151,0.702,2.063v3.66h-1.152v-3.528c0-0.615-0.143-1.08-0.426-1.392
					c-0.284-0.312-0.69-0.468-1.218-0.468c-0.584,0-1.048,0.182-1.392,0.546c-0.344,0.364-0.516,0.886-0.516,1.565v3.276h-1.152
					v-3.528c0-0.615-0.143-1.08-0.426-1.392c-0.284-0.312-0.69-0.468-1.218-0.468c-0.584,0-1.048,0.182-1.392,0.546
					s-0.516,0.886-0.516,1.565v3.276h-1.152v-6.36h1.104v0.948c0.232-0.328,0.536-0.578,0.912-0.75s0.805-0.258,1.284-0.258
					c0.496,0,0.936,0.1,1.32,0.3c0.384,0.2,0.68,0.492,0.888,0.876c0.24-0.368,0.574-0.655,1.002-0.864
					c0.428-0.208,0.91-0.312,1.446-0.312C335.87,90.94,336.504,91.172,336.972,91.636z"/>
				<path d="M345.557,94.564h-5.16c0.072,0.56,0.318,1.01,0.738,1.35c0.42,0.341,0.942,0.511,1.566,0.511
					c0.76,0,1.372-0.257,1.836-0.769l0.636,0.744c-0.288,0.336-0.646,0.592-1.074,0.768c-0.428,0.177-0.906,0.265-1.434,0.265
					c-0.672,0-1.268-0.139-1.788-0.414c-0.52-0.276-0.922-0.662-1.206-1.158s-0.426-1.056-0.426-1.68
					c0-0.616,0.138-1.172,0.414-1.668c0.276-0.496,0.656-0.883,1.14-1.158c0.484-0.276,1.03-0.414,1.638-0.414
					s1.15,0.138,1.626,0.414c0.476,0.275,0.848,0.662,1.116,1.158c0.269,0.496,0.402,1.063,0.402,1.704
					C345.582,94.304,345.574,94.419,345.557,94.564z M341.051,92.415c-0.372,0.336-0.59,0.776-0.654,1.32h4.08
					c-0.064-0.536-0.282-0.974-0.654-1.314c-0.372-0.34-0.834-0.51-1.386-0.51S341.423,92.079,341.051,92.415z"/>
				<path d="M349.17,91.228c0.392-0.192,0.868-0.288,1.428-0.288v1.116c-0.064-0.008-0.152-0.013-0.264-0.013
					c-0.624,0-1.114,0.187-1.47,0.559c-0.356,0.372-0.534,0.902-0.534,1.59v3.168h-1.152v-6.36h1.104v1.068
					C348.482,91.699,348.778,91.419,349.17,91.228z"/>
				<path d="M356.339,91.587c0.468,0.433,0.702,1.076,0.702,1.933v3.84h-1.092v-0.84c-0.192,0.296-0.466,0.521-0.822,0.678
					c-0.356,0.156-0.778,0.234-1.266,0.234c-0.712,0-1.282-0.172-1.71-0.517c-0.428-0.344-0.642-0.796-0.642-1.355
					c0-0.561,0.204-1.01,0.612-1.351c0.408-0.34,1.056-0.51,1.944-0.51h1.824v-0.228c0-0.496-0.144-0.876-0.432-1.141
					c-0.288-0.264-0.712-0.396-1.272-0.396c-0.376,0-0.744,0.062-1.104,0.186c-0.36,0.124-0.664,0.29-0.912,0.498l-0.48-0.863
					c0.328-0.265,0.72-0.467,1.176-0.606s0.939-0.21,1.452-0.21C355.197,90.94,355.872,91.156,356.339,91.587z M355.193,96.249
					c0.32-0.195,0.552-0.474,0.696-0.834v-0.888h-1.775c-0.977,0-1.464,0.328-1.464,0.984c0,0.319,0.124,0.571,0.372,0.756
					c0.248,0.184,0.592,0.275,1.032,0.275C354.494,96.543,354.874,96.446,355.193,96.249z"/>
				<path d="M358.878,97.198c-0.16-0.156-0.24-0.354-0.24-0.594c0-0.232,0.08-0.426,0.24-0.582s0.352-0.234,0.576-0.234
					c0.224,0,0.412,0.076,0.563,0.229c0.152,0.151,0.229,0.348,0.229,0.588s-0.078,0.438-0.234,0.594
					c-0.156,0.156-0.342,0.234-0.558,0.234C359.23,97.432,359.038,97.354,358.878,97.198z"/>
				<path d="M363.197,90.448v0.552h1.848v0.948h-1.824v5.412h-1.152v-5.412h-1.08v-0.948h1.08v-0.563c0-0.632,0.184-1.132,0.552-1.5
					c0.368-0.368,0.884-0.552,1.548-0.552c0.256,0,0.496,0.031,0.72,0.096c0.224,0.064,0.416,0.156,0.576,0.276l-0.348,0.876
					c-0.265-0.2-0.561-0.301-0.889-0.301C363.542,89.331,363.197,89.703,363.197,90.448z"/>
				<path d="M369.089,91.228c0.392-0.192,0.868-0.288,1.428-0.288v1.116c-0.064-0.008-0.152-0.013-0.264-0.013
					c-0.624,0-1.114,0.187-1.47,0.559s-0.534,0.902-0.534,1.59v3.168h-1.152v-6.36h1.104v1.068
					C368.401,91.699,368.697,91.419,369.089,91.228z"/>
				<path d="M256.963,113.295h-1.596v2.064h-1.164v-2.064h-4.668v-0.84l4.296-5.496h1.296l-4.116,5.305h3.228v-1.824h1.128v1.824
					h1.596V113.295z"/>
				<path d="M264.991,113.295h-1.596v2.064h-1.164v-2.064h-4.668v-0.84l4.296-5.496h1.296l-4.116,5.305h3.228v-1.824h1.128v1.824
					h1.596V113.295z"/>
				<path d="M272.071,111.747c0.256,0.345,0.384,0.756,0.384,1.236c0,0.504-0.136,0.942-0.408,1.314
					c-0.271,0.371-0.66,0.657-1.164,0.857c-0.504,0.2-1.096,0.3-1.775,0.3c-0.672,0-1.258-0.1-1.758-0.3s-0.886-0.486-1.158-0.857
					c-0.272-0.372-0.408-0.811-0.408-1.314c0-0.48,0.126-0.892,0.378-1.236c0.252-0.344,0.618-0.607,1.098-0.792
					c-0.384-0.184-0.676-0.428-0.876-0.731c-0.2-0.304-0.3-0.664-0.3-1.08c0-0.464,0.126-0.868,0.378-1.212s0.606-0.608,1.062-0.792
					c0.456-0.185,0.983-0.276,1.584-0.276c0.607,0,1.142,0.092,1.602,0.276c0.46,0.184,0.816,0.448,1.068,0.792
					s0.378,0.748,0.378,1.212c0,0.408-0.102,0.766-0.306,1.074c-0.204,0.308-0.498,0.554-0.882,0.737
					C271.447,111.14,271.815,111.404,272.071,111.747z M270.679,114.07c0.384-0.276,0.576-0.649,0.576-1.122
					c0-0.464-0.191-0.83-0.576-1.098c-0.384-0.269-0.908-0.402-1.572-0.402c-0.664,0-1.185,0.134-1.561,0.402
					c-0.376,0.268-0.563,0.634-0.563,1.098c0,0.473,0.188,0.846,0.563,1.122s0.896,0.414,1.561,0.414
					C269.771,114.484,270.295,114.346,270.679,114.07z M267.763,108.201c-0.328,0.244-0.492,0.574-0.492,0.99
					s0.162,0.744,0.485,0.984c0.324,0.239,0.774,0.359,1.351,0.359c0.583,0,1.042-0.12,1.374-0.359
					c0.332-0.24,0.498-0.568,0.498-0.984s-0.17-0.746-0.51-0.99c-0.34-0.244-0.794-0.366-1.362-0.366
					C268.539,107.835,268.09,107.957,267.763,108.201z"/>
				<path d="M278.665,110.572c0.436,0.208,0.778,0.506,1.026,0.895c0.248,0.388,0.372,0.834,0.372,1.338
					c0,0.527-0.13,0.992-0.391,1.392c-0.26,0.4-0.616,0.71-1.067,0.93c-0.452,0.221-0.958,0.33-1.519,0.33
					c-1.128,0-1.998-0.363-2.61-1.092c-0.612-0.728-0.918-1.76-0.918-3.096c0-0.937,0.166-1.734,0.498-2.395
					c0.332-0.66,0.796-1.159,1.392-1.5c0.596-0.34,1.29-0.51,2.082-0.51c0.408,0,0.792,0.042,1.152,0.126s0.672,0.206,0.936,0.366
					l-0.456,0.936c-0.4-0.264-0.936-0.396-1.608-0.396c-0.872,0-1.556,0.27-2.052,0.81s-0.744,1.326-0.744,2.358
					c0,0.128,0.004,0.228,0.013,0.3c0.24-0.36,0.569-0.634,0.99-0.822c0.42-0.188,0.894-0.281,1.422-0.281
					C277.735,110.26,278.229,110.364,278.665,110.572z M278.382,114.039c0.344-0.296,0.517-0.691,0.517-1.188
					s-0.174-0.89-0.522-1.183c-0.348-0.292-0.814-0.438-1.397-0.438c-0.376,0-0.71,0.072-1.002,0.216
					c-0.292,0.145-0.52,0.34-0.684,0.588s-0.246,0.524-0.246,0.828c0,0.296,0.078,0.566,0.234,0.811s0.384,0.439,0.684,0.588
					c0.3,0.147,0.658,0.222,1.074,0.222C277.59,114.484,278.039,114.335,278.382,114.039z"/>
				<path d="M282.625,114.946c-0.516-0.34-0.922-0.834-1.218-1.482c-0.296-0.647-0.444-1.415-0.444-2.304
					c0-0.888,0.148-1.656,0.444-2.304c0.296-0.648,0.702-1.142,1.218-1.482c0.516-0.34,1.106-0.51,1.77-0.51
					c0.656,0,1.242,0.17,1.758,0.51c0.516,0.341,0.922,0.834,1.218,1.482c0.296,0.647,0.444,1.416,0.444,2.304
					c0,0.889-0.148,1.656-0.444,2.304c-0.296,0.648-0.702,1.143-1.218,1.482c-0.517,0.34-1.103,0.51-1.758,0.51
					C283.731,115.455,283.14,115.285,282.625,114.946z M286.008,113.56c0.404-0.552,0.606-1.353,0.606-2.4s-0.202-1.848-0.606-2.399
					c-0.404-0.553-0.942-0.828-1.614-0.828c-0.68,0-1.222,0.275-1.626,0.828c-0.404,0.552-0.606,1.352-0.606,2.399
					s0.202,1.849,0.606,2.4s0.946,0.828,1.626,0.828C285.067,114.388,285.605,114.112,286.008,113.56z"/>
				<path d="M298.722,107.74c0.624,0.521,0.937,1.236,0.937,2.148s-0.312,1.628-0.937,2.147c-0.624,0.521-1.48,0.78-2.568,0.78
					h-2.076v2.544h-1.2v-8.4h3.276C297.242,106.959,298.098,107.22,298.722,107.74z M297.859,111.285c0.4-0.324,0.6-0.79,0.6-1.397
					c0-0.608-0.2-1.074-0.6-1.398s-0.98-0.486-1.74-0.486h-2.04v3.769h2.04C296.879,111.772,297.459,111.61,297.859,111.285z"/>
				<path d="M302.251,115.012c-0.504-0.28-0.898-0.666-1.183-1.158c-0.284-0.492-0.426-1.05-0.426-1.674s0.142-1.183,0.426-1.674
					c0.284-0.492,0.678-0.877,1.183-1.152c0.504-0.276,1.071-0.414,1.704-0.414c0.632,0,1.198,0.138,1.698,0.414
					c0.5,0.275,0.893,0.66,1.176,1.152c0.284,0.491,0.426,1.05,0.426,1.674s-0.143,1.182-0.426,1.674s-0.676,0.878-1.176,1.158
					c-0.5,0.279-1.066,0.42-1.698,0.42C303.322,115.432,302.755,115.291,302.251,115.012z M305.052,114.142
					c0.324-0.188,0.578-0.452,0.762-0.792c0.184-0.34,0.276-0.73,0.276-1.17c0-0.44-0.092-0.83-0.276-1.17
					c-0.184-0.34-0.438-0.603-0.762-0.786c-0.324-0.185-0.69-0.276-1.098-0.276c-0.408,0-0.774,0.092-1.098,0.276
					c-0.324,0.184-0.58,0.446-0.768,0.786c-0.188,0.34-0.282,0.729-0.282,1.17c0,0.439,0.094,0.83,0.282,1.17
					c0.188,0.34,0.444,0.604,0.768,0.792c0.324,0.188,0.69,0.282,1.098,0.282C304.362,114.424,304.728,114.329,305.052,114.142z"/>
				<path d="M314.172,109.642c0.476,0.468,0.714,1.154,0.714,2.058v3.66h-1.152v-3.528c0-0.615-0.148-1.08-0.444-1.392
					c-0.296-0.312-0.72-0.468-1.272-0.468c-0.624,0-1.116,0.182-1.476,0.546s-0.54,0.886-0.54,1.565v3.276h-1.152v-6.36h1.104v0.96
					c0.232-0.327,0.546-0.579,0.942-0.756c0.396-0.176,0.846-0.264,1.35-0.264C313.054,108.94,313.696,109.174,314.172,109.642z"/>
				<path d="M320.598,114.988c-0.168,0.145-0.376,0.254-0.624,0.33s-0.504,0.114-0.768,0.114c-0.64,0-1.136-0.172-1.488-0.517
					c-0.353-0.344-0.528-0.836-0.528-1.476v-3.492h-1.08v-0.948h1.08v-1.392h1.152v1.392h1.824v0.948h-1.824v3.444
					c0,0.344,0.086,0.607,0.258,0.792c0.172,0.184,0.418,0.275,0.738,0.275c0.352,0,0.652-0.1,0.9-0.3L320.598,114.988z"/>
				<path d="M326.004,115.161c-0.588-0.195-1.05-0.45-1.386-0.762l0.444-0.937c0.32,0.288,0.73,0.522,1.23,0.702
					c0.5,0.181,1.014,0.271,1.542,0.271c0.696,0,1.216-0.118,1.56-0.354c0.344-0.235,0.516-0.55,0.516-0.941
					c0-0.288-0.094-0.522-0.282-0.702s-0.42-0.318-0.696-0.414c-0.276-0.096-0.666-0.204-1.17-0.324
					c-0.632-0.151-1.143-0.304-1.53-0.456c-0.388-0.151-0.72-0.386-0.996-0.702c-0.276-0.315-0.414-0.741-0.414-1.277
					c0-0.448,0.118-0.853,0.354-1.212c0.235-0.36,0.594-0.648,1.074-0.864s1.076-0.324,1.788-0.324c0.496,0,0.984,0.064,1.464,0.192
					s0.892,0.312,1.236,0.552l-0.396,0.96c-0.353-0.224-0.729-0.394-1.128-0.51s-0.792-0.174-1.176-0.174
					c-0.68,0-1.19,0.124-1.53,0.372c-0.34,0.248-0.51,0.567-0.51,0.96c0,0.287,0.096,0.521,0.288,0.701
					c0.192,0.181,0.43,0.32,0.714,0.42c0.284,0.101,0.67,0.206,1.158,0.318c0.632,0.152,1.141,0.305,1.524,0.456
					c0.384,0.152,0.714,0.384,0.99,0.696c0.276,0.312,0.414,0.731,0.414,1.26c0,0.44-0.12,0.842-0.36,1.206
					s-0.604,0.652-1.092,0.864c-0.488,0.212-1.088,0.317-1.8,0.317C327.202,115.455,326.592,115.358,326.004,115.161z"/>
				<path d="M337.008,109.587c0.468,0.433,0.702,1.076,0.702,1.933v3.84h-1.092v-0.84c-0.192,0.296-0.466,0.521-0.822,0.678
					s-0.778,0.234-1.266,0.234c-0.712,0-1.282-0.172-1.71-0.517c-0.428-0.344-0.642-0.796-0.642-1.355
					c0-0.561,0.204-1.01,0.611-1.351c0.408-0.34,1.057-0.51,1.944-0.51h1.824v-0.228c0-0.496-0.145-0.876-0.432-1.141
					c-0.288-0.264-0.712-0.396-1.272-0.396c-0.376,0-0.744,0.062-1.104,0.186s-0.665,0.29-0.912,0.498l-0.48-0.863
					c0.328-0.265,0.72-0.467,1.176-0.606s0.94-0.21,1.452-0.21C335.866,108.94,336.54,109.156,337.008,109.587z M335.862,114.249
					c0.32-0.195,0.552-0.474,0.696-0.834v-0.888h-1.776c-0.976,0-1.464,0.328-1.464,0.984c0,0.319,0.124,0.571,0.372,0.756
					c0.248,0.184,0.592,0.275,1.032,0.275C335.162,114.543,335.542,114.446,335.862,114.249z"/>
				<path d="M339.864,107.56c-0.148-0.145-0.222-0.32-0.222-0.528s0.074-0.386,0.222-0.534c0.148-0.147,0.334-0.222,0.558-0.222
					c0.224,0,0.41,0.07,0.559,0.21c0.147,0.14,0.222,0.314,0.222,0.522c0,0.216-0.074,0.397-0.222,0.546
					c-0.148,0.147-0.334,0.222-0.559,0.222C340.198,107.776,340.012,107.703,339.864,107.56z M339.846,108.999h1.152v6.36h-1.152
					V108.999z"/>
				<path d="M348.516,109.642c0.476,0.468,0.714,1.154,0.714,2.058v3.66h-1.152v-3.528c0-0.615-0.148-1.08-0.444-1.392
					c-0.296-0.312-0.72-0.468-1.271-0.468c-0.624,0-1.116,0.182-1.477,0.546c-0.359,0.364-0.54,0.886-0.54,1.565v3.276h-1.151v-6.36
					h1.104v0.96c0.232-0.327,0.546-0.579,0.942-0.756c0.396-0.176,0.846-0.264,1.35-0.264
					C347.398,108.94,348.04,109.174,348.516,109.642z"/>
				<path d="M354.942,114.988c-0.168,0.145-0.376,0.254-0.624,0.33s-0.504,0.114-0.769,0.114c-0.64,0-1.136-0.172-1.487-0.517
					c-0.353-0.344-0.528-0.836-0.528-1.476v-3.492h-1.08v-0.948h1.08v-1.392h1.152v1.392h1.824v0.948h-1.824v3.444
					c0,0.344,0.085,0.607,0.258,0.792c0.172,0.184,0.418,0.275,0.738,0.275c0.352,0,0.652-0.1,0.9-0.3L354.942,114.988z"/>
				<path d="M367.518,115.36l-0.012-6.12l-3.036,5.101h-0.552l-3.036-5.064v6.084h-1.152v-8.4h0.984l3.504,5.904l3.456-5.904h0.984
					l0.012,8.4H367.518z"/>
				<path d="M375.359,109.587c0.468,0.433,0.702,1.076,0.702,1.933v3.84h-1.092v-0.84c-0.192,0.296-0.466,0.521-0.822,0.678
					c-0.356,0.156-0.778,0.234-1.266,0.234c-0.712,0-1.282-0.172-1.71-0.517c-0.428-0.344-0.642-0.796-0.642-1.355
					c0-0.561,0.204-1.01,0.612-1.351c0.408-0.34,1.056-0.51,1.944-0.51h1.824v-0.228c0-0.496-0.144-0.876-0.432-1.141
					c-0.288-0.264-0.712-0.396-1.272-0.396c-0.376,0-0.744,0.062-1.104,0.186c-0.36,0.124-0.664,0.29-0.912,0.498l-0.479-0.863
					c0.328-0.265,0.72-0.467,1.176-0.606s0.94-0.21,1.452-0.21C374.217,108.94,374.891,109.156,375.359,109.587z M374.214,114.249
					c0.319-0.195,0.552-0.474,0.696-0.834v-0.888h-1.776c-0.977,0-1.464,0.328-1.464,0.984c0,0.319,0.124,0.571,0.372,0.756
					c0.248,0.184,0.592,0.275,1.032,0.275S373.893,114.446,374.214,114.249z"/>
				<path d="M380.189,109.228c0.392-0.192,0.868-0.288,1.428-0.288v1.116c-0.064-0.008-0.152-0.013-0.264-0.013
					c-0.624,0-1.114,0.187-1.47,0.559c-0.356,0.372-0.534,0.902-0.534,1.59v3.168h-1.152v-6.36h1.104v1.068
					C379.502,109.699,379.797,109.419,380.189,109.228z"/>
				<path d="M386.873,114.988c-0.168,0.145-0.376,0.254-0.624,0.33s-0.504,0.114-0.768,0.114c-0.64,0-1.136-0.172-1.488-0.517
					c-0.352-0.344-0.528-0.836-0.528-1.476v-3.492h-1.08v-0.948h1.08v-1.392h1.152v1.392h1.824v0.948h-1.824v3.444
					c0,0.344,0.086,0.607,0.258,0.792c0.172,0.184,0.418,0.275,0.738,0.275c0.352,0,0.652-0.1,0.9-0.3L386.873,114.988z"/>
				<path d="M388.283,107.56c-0.148-0.145-0.222-0.32-0.222-0.528s0.074-0.386,0.222-0.534c0.148-0.147,0.334-0.222,0.558-0.222
					s0.41,0.07,0.558,0.21c0.148,0.14,0.222,0.314,0.222,0.522c0,0.216-0.074,0.397-0.222,0.546
					c-0.148,0.147-0.334,0.222-0.558,0.222S388.431,107.703,388.283,107.56z M388.265,108.999h1.151v6.36h-1.151V108.999z"/>
				<path d="M396.935,109.642c0.476,0.468,0.714,1.154,0.714,2.058v3.66h-1.152v-3.528c0-0.615-0.148-1.08-0.444-1.392
					c-0.296-0.312-0.72-0.468-1.272-0.468c-0.624,0-1.116,0.182-1.476,0.546s-0.54,0.886-0.54,1.565v3.276h-1.152v-6.36h1.104v0.96
					c0.232-0.327,0.546-0.579,0.942-0.756c0.396-0.176,0.846-0.264,1.35-0.264C395.817,108.94,396.459,109.174,396.935,109.642z"/>
				<path d="M251.311,132.97c-0.528-0.34-0.944-0.836-1.248-1.488c-0.304-0.652-0.456-1.426-0.456-2.322
					c0-0.896,0.152-1.67,0.456-2.322c0.304-0.651,0.72-1.147,1.248-1.487c0.528-0.34,1.128-0.51,1.8-0.51s1.274,0.17,1.806,0.51
					c0.532,0.34,0.95,0.836,1.254,1.487c0.304,0.652,0.456,1.427,0.456,2.322c0,0.896-0.152,1.67-0.456,2.322
					s-0.722,1.148-1.254,1.488c-0.532,0.34-1.134,0.51-1.806,0.51S251.839,133.31,251.311,132.97z M254.533,131.379
					c0.348-0.495,0.522-1.235,0.522-2.22c0-0.983-0.174-1.724-0.522-2.22c-0.348-0.496-0.822-0.744-1.422-0.744
					c-0.592,0-1.062,0.248-1.41,0.744c-0.348,0.496-0.521,1.236-0.521,2.22c0,0.984,0.174,1.725,0.521,2.22
					c0.348,0.497,0.818,0.744,1.41,0.744C253.711,132.123,254.185,131.876,254.533,131.379z"/>
				<path d="M263.707,132.039v1.32h-6.192v-1.044l3.336-3.168c0.376-0.36,0.63-0.674,0.762-0.942
					c0.132-0.268,0.198-0.534,0.198-0.798c0-0.392-0.132-0.691-0.396-0.899s-0.652-0.312-1.164-0.312
					c-0.856,0-1.512,0.292-1.968,0.876l-1.092-0.84c0.328-0.44,0.77-0.782,1.326-1.026c0.556-0.243,1.178-0.365,1.866-0.365
					c0.912,0,1.64,0.216,2.184,0.647s0.816,1.021,0.816,1.764c0,0.456-0.097,0.885-0.288,1.284c-0.192,0.4-0.561,0.856-1.104,1.368
					l-2.244,2.136H263.707z"/>
				<path d="M274.38,129.753c0.236,0.341,0.354,0.738,0.354,1.194c0,0.512-0.142,0.96-0.426,1.344
					c-0.284,0.385-0.686,0.679-1.206,0.883c-0.52,0.203-1.124,0.306-1.812,0.306c-0.688,0-1.29-0.103-1.806-0.306
					c-0.516-0.204-0.914-0.498-1.194-0.883c-0.28-0.384-0.42-0.832-0.42-1.344c0-0.456,0.116-0.854,0.348-1.194
					c0.232-0.34,0.564-0.609,0.996-0.81c-0.336-0.184-0.594-0.426-0.774-0.726c-0.18-0.301-0.27-0.646-0.27-1.038
					c0-0.473,0.13-0.884,0.39-1.236c0.26-0.352,0.626-0.624,1.099-0.816c0.472-0.191,1.016-0.287,1.632-0.287
					c0.624,0,1.172,0.096,1.644,0.287c0.472,0.192,0.84,0.465,1.104,0.816c0.264,0.353,0.396,0.764,0.396,1.236
					c0,0.392-0.092,0.735-0.275,1.031c-0.185,0.297-0.448,0.54-0.792,0.732C273.806,129.144,274.144,129.413,274.38,129.753z
					 M272.659,131.896c0.336-0.24,0.504-0.572,0.504-0.996c0-0.416-0.168-0.744-0.504-0.984c-0.336-0.239-0.792-0.359-1.368-0.359
					s-1.028,0.12-1.356,0.359c-0.328,0.24-0.492,0.568-0.492,0.984c0,0.424,0.164,0.756,0.492,0.996s0.78,0.36,1.356,0.36
					S272.322,132.136,272.659,131.896z M270.132,126.375c-0.284,0.209-0.426,0.5-0.426,0.876c0,0.36,0.142,0.646,0.426,0.858
					c0.284,0.212,0.67,0.318,1.158,0.318c0.496,0,0.888-0.106,1.176-0.318c0.288-0.212,0.432-0.498,0.432-0.858
					c0-0.376-0.146-0.667-0.438-0.876c-0.292-0.208-0.682-0.312-1.17-0.312C270.802,126.064,270.417,126.167,270.132,126.375z"/>
				<path d="M280.999,128.902c0.568,0.46,0.852,1.086,0.852,1.878c0,0.504-0.124,0.96-0.372,1.368s-0.62,0.731-1.116,0.972
					s-1.108,0.36-1.836,0.36c-0.6,0-1.18-0.086-1.74-0.258c-0.561-0.172-1.032-0.41-1.416-0.714l0.66-1.213
					c0.312,0.257,0.686,0.459,1.122,0.606c0.436,0.148,0.886,0.222,1.35,0.222c0.552,0,0.986-0.113,1.302-0.342
					c0.316-0.228,0.474-0.542,0.474-0.941c0-0.433-0.17-0.759-0.51-0.979c-0.34-0.22-0.922-0.33-1.746-0.33h-2.028l0.432-4.572
					h4.932v1.309h-3.612l-0.18,1.943h0.804C279.554,128.211,280.43,128.442,280.999,128.902z"/>
				<path d="M291.318,128.902c0.568,0.46,0.853,1.086,0.853,1.878c0,0.504-0.124,0.96-0.372,1.368s-0.62,0.731-1.116,0.972
					s-1.108,0.36-1.836,0.36c-0.6,0-1.18-0.086-1.74-0.258c-0.56-0.172-1.032-0.41-1.416-0.714l0.66-1.213
					c0.312,0.257,0.686,0.459,1.122,0.606c0.436,0.148,0.886,0.222,1.35,0.222c0.552,0,0.986-0.113,1.302-0.342
					c0.315-0.228,0.474-0.542,0.474-0.941c0-0.433-0.17-0.759-0.51-0.979c-0.34-0.22-0.922-0.33-1.746-0.33h-2.028l0.432-4.572
					h4.932v1.309h-3.612l-0.18,1.943h0.804C289.874,128.211,290.75,128.442,291.318,128.902z"/>
				<path d="M299.094,132.039v1.32h-6.192v-1.044l3.336-3.168c0.375-0.36,0.63-0.674,0.762-0.942
					c0.132-0.268,0.198-0.534,0.198-0.798c0-0.392-0.132-0.691-0.396-0.899c-0.264-0.208-0.652-0.312-1.164-0.312
					c-0.856,0-1.512,0.292-1.968,0.876l-1.092-0.84c0.328-0.44,0.77-0.782,1.326-1.026c0.556-0.243,1.178-0.365,1.866-0.365
					c0.912,0,1.64,0.216,2.184,0.647s0.816,1.021,0.816,1.764c0,0.456-0.096,0.885-0.288,1.284c-0.192,0.4-0.56,0.856-1.104,1.368
					l-2.244,2.136H299.094z"/>
				<path d="M305.01,132.97c-0.528-0.34-0.944-0.836-1.248-1.488c-0.304-0.652-0.456-1.426-0.456-2.322
					c0-0.896,0.152-1.67,0.456-2.322c0.304-0.651,0.72-1.147,1.248-1.487c0.528-0.34,1.128-0.51,1.8-0.51s1.274,0.17,1.806,0.51
					c0.532,0.34,0.95,0.836,1.254,1.487c0.304,0.652,0.456,1.427,0.456,2.322c0,0.896-0.152,1.67-0.456,2.322
					s-0.722,1.148-1.254,1.488c-0.532,0.34-1.134,0.51-1.806,0.51S305.538,133.31,305.01,132.97z M308.232,131.379
					c0.348-0.495,0.522-1.235,0.522-2.22c0-0.983-0.174-1.724-0.522-2.22c-0.348-0.496-0.822-0.744-1.422-0.744
					c-0.592,0-1.062,0.248-1.41,0.744c-0.348,0.496-0.521,1.236-0.521,2.22c0,0.984,0.174,1.725,0.521,2.22
					c0.348,0.497,0.818,0.744,1.41,0.744C307.41,132.123,307.884,131.876,308.232,131.379z"/>
				<path d="M313.086,132.97c-0.527-0.34-0.944-0.836-1.248-1.488c-0.304-0.652-0.456-1.426-0.456-2.322
					c0-0.896,0.152-1.67,0.456-2.322c0.304-0.651,0.721-1.147,1.248-1.487c0.528-0.34,1.128-0.51,1.8-0.51
					c0.672,0,1.274,0.17,1.806,0.51c0.532,0.34,0.95,0.836,1.254,1.487c0.304,0.652,0.456,1.427,0.456,2.322
					c0,0.896-0.152,1.67-0.456,2.322c-0.304,0.652-0.722,1.148-1.254,1.488c-0.532,0.34-1.134,0.51-1.806,0.51
					C314.214,133.48,313.614,133.31,313.086,132.97z M316.308,131.379c0.348-0.495,0.521-1.235,0.521-2.22
					c0-0.983-0.174-1.724-0.521-2.22c-0.349-0.496-0.822-0.744-1.422-0.744c-0.592,0-1.062,0.248-1.41,0.744
					c-0.349,0.496-0.522,1.236-0.522,2.22c0,0.984,0.174,1.725,0.522,2.22c0.348,0.497,0.817,0.744,1.41,0.744
					C315.486,132.123,315.96,131.876,316.308,131.379z"/>
				<path d="M324.473,132.97c-0.527-0.34-0.944-0.836-1.248-1.488c-0.304-0.652-0.456-1.426-0.456-2.322
					c0-0.896,0.152-1.67,0.456-2.322c0.304-0.651,0.721-1.147,1.248-1.487c0.528-0.34,1.128-0.51,1.8-0.51
					c0.672,0,1.274,0.17,1.806,0.51c0.532,0.34,0.95,0.836,1.254,1.487c0.304,0.652,0.456,1.427,0.456,2.322
					c0,0.896-0.152,1.67-0.456,2.322c-0.304,0.652-0.722,1.148-1.254,1.488c-0.532,0.34-1.134,0.51-1.806,0.51
					C325.602,133.48,325.002,133.31,324.473,132.97z M327.696,131.379c0.348-0.495,0.521-1.235,0.521-2.22
					c0-0.983-0.174-1.724-0.521-2.22c-0.349-0.496-0.822-0.744-1.422-0.744c-0.592,0-1.062,0.248-1.41,0.744
					c-0.349,0.496-0.522,1.236-0.522,2.22c0,0.984,0.174,1.725,0.522,2.22c0.348,0.497,0.817,0.744,1.41,0.744
					C326.874,132.123,327.347,131.876,327.696,131.379z"/>
				<path d="M336.078,129.22c0.408,0.432,0.612,0.972,0.612,1.62c0,0.487-0.124,0.932-0.372,1.331
					c-0.249,0.4-0.623,0.719-1.122,0.954c-0.5,0.236-1.11,0.354-1.83,0.354c-0.6,0-1.178-0.086-1.734-0.258
					c-0.556-0.172-1.03-0.41-1.422-0.714l0.672-1.213c0.304,0.257,0.674,0.459,1.11,0.606c0.436,0.148,0.886,0.222,1.35,0.222
					c0.552,0,0.986-0.113,1.302-0.342c0.316-0.228,0.474-0.538,0.474-0.93s-0.15-0.698-0.45-0.918s-0.758-0.33-1.374-0.33h-0.768
					v-1.068l1.908-2.268h-3.816v-1.309h5.724v1.044l-2.04,2.425C335.078,128.524,335.67,128.787,336.078,129.22z"/>
				<path d="M344.093,123.256h1.344l-3.96,11.304h-1.344L344.093,123.256z"/>
				<path d="M350.489,132.97c-0.528-0.34-0.944-0.836-1.248-1.488s-0.456-1.426-0.456-2.322c0-0.896,0.152-1.67,0.456-2.322
					c0.304-0.651,0.72-1.147,1.248-1.487c0.528-0.34,1.128-0.51,1.8-0.51c0.672,0,1.274,0.17,1.806,0.51s0.95,0.836,1.254,1.487
					c0.304,0.652,0.456,1.427,0.456,2.322c0,0.896-0.152,1.67-0.456,2.322c-0.305,0.652-0.723,1.148-1.254,1.488
					s-1.134,0.51-1.806,0.51C351.617,133.48,351.017,133.31,350.489,132.97z M353.711,131.379c0.348-0.495,0.522-1.235,0.522-2.22
					c0-0.983-0.174-1.724-0.522-2.22s-0.822-0.744-1.422-0.744c-0.592,0-1.062,0.248-1.41,0.744s-0.522,1.236-0.522,2.22
					c0,0.984,0.174,1.725,0.522,2.22c0.348,0.497,0.818,0.744,1.41,0.744C352.889,132.123,353.363,131.876,353.711,131.379z"/>
				<path d="M362.165,128.493c0.44,0.212,0.784,0.515,1.032,0.906s0.372,0.844,0.372,1.356c0,0.544-0.136,1.021-0.408,1.434
					s-0.64,0.73-1.104,0.954c-0.464,0.224-0.984,0.336-1.561,0.336c-1.152,0-2.046-0.36-2.682-1.08
					c-0.636-0.72-0.954-1.752-0.954-3.096c0-0.944,0.172-1.75,0.516-2.418c0.344-0.668,0.826-1.177,1.446-1.524
					s1.338-0.521,2.154-0.521c0.432,0,0.838,0.046,1.218,0.138s0.71,0.226,0.99,0.401l-0.576,1.177
					c-0.416-0.272-0.948-0.408-1.596-0.408c-0.808,0-1.44,0.248-1.896,0.744s-0.684,1.212-0.684,2.147v0.013
					c0.248-0.288,0.563-0.506,0.948-0.654c0.384-0.148,0.816-0.222,1.296-0.222C361.229,128.176,361.725,128.282,362.165,128.493z
					 M361.601,131.865c0.304-0.26,0.456-0.605,0.456-1.038c0-0.439-0.152-0.788-0.456-1.044c-0.305-0.256-0.712-0.384-1.225-0.384
					c-0.504,0-0.914,0.136-1.229,0.408c-0.316,0.271-0.474,0.616-0.474,1.032c0,0.407,0.154,0.745,0.462,1.014
					c0.308,0.268,0.734,0.402,1.278,0.402C360.901,132.256,361.297,132.125,361.601,131.865z"/>
				<path d="M374.033,124.959v1.044l-3.264,7.356H369.1l3.156-7.08h-3.3v1.428h-1.452v-2.748H374.033z"/>
				<path d="M378.016,124.959v8.4h-1.56v-7.092h-1.776v-1.309H378.016z"/>
				<path d="M384.7,132.97c-0.527-0.34-0.944-0.836-1.248-1.488c-0.304-0.652-0.456-1.426-0.456-2.322
					c0-0.896,0.152-1.67,0.456-2.322c0.304-0.651,0.721-1.147,1.248-1.487c0.528-0.34,1.128-0.51,1.8-0.51
					c0.672,0,1.274,0.17,1.806,0.51c0.532,0.34,0.95,0.836,1.254,1.487c0.304,0.652,0.456,1.427,0.456,2.322
					c0,0.896-0.152,1.67-0.456,2.322c-0.304,0.652-0.722,1.148-1.254,1.488c-0.532,0.34-1.134,0.51-1.806,0.51
					C385.828,133.48,385.228,133.31,384.7,132.97z M387.922,131.379c0.348-0.495,0.521-1.235,0.521-2.22
					c0-0.983-0.174-1.724-0.521-2.22c-0.349-0.496-0.822-0.744-1.422-0.744c-0.592,0-1.062,0.248-1.41,0.744
					c-0.349,0.496-0.522,1.236-0.522,2.22c0,0.984,0.174,1.725,0.522,2.22c0.348,0.497,0.817,0.744,1.41,0.744
					C387.1,132.123,387.574,131.876,387.922,131.379z"/>
				<path d="M397.096,132.039v1.32h-6.192v-1.044l3.336-3.168c0.375-0.36,0.63-0.674,0.762-0.942
					c0.132-0.268,0.198-0.534,0.198-0.798c0-0.392-0.132-0.691-0.396-0.899c-0.264-0.208-0.652-0.312-1.164-0.312
					c-0.856,0-1.512,0.292-1.968,0.876l-1.092-0.84c0.328-0.44,0.77-0.782,1.326-1.026c0.556-0.243,1.178-0.365,1.866-0.365
					c0.912,0,1.64,0.216,2.184,0.647s0.816,1.021,0.816,1.764c0,0.456-0.096,0.885-0.288,1.284c-0.191,0.4-0.56,0.856-1.104,1.368
					l-2.244,2.136H397.096z"/>
				<path d="M404.212,124.959v8.4h-1.56v-7.092h-1.776v-1.309H404.212z"/>
				<path d="M411.184,128.493c0.439,0.212,0.784,0.515,1.032,0.906c0.248,0.392,0.372,0.844,0.372,1.356
					c0,0.544-0.136,1.021-0.408,1.434s-0.64,0.73-1.104,0.954s-0.984,0.336-1.56,0.336c-1.152,0-2.046-0.36-2.683-1.08
					c-0.636-0.72-0.954-1.752-0.954-3.096c0-0.944,0.172-1.75,0.516-2.418c0.344-0.668,0.826-1.177,1.446-1.524
					c0.62-0.348,1.338-0.521,2.154-0.521c0.432,0,0.838,0.046,1.218,0.138c0.38,0.092,0.709,0.226,0.99,0.401l-0.576,1.177
					c-0.416-0.272-0.948-0.408-1.596-0.408c-0.808,0-1.44,0.248-1.896,0.744s-0.684,1.212-0.684,2.147v0.013
					c0.248-0.288,0.564-0.506,0.948-0.654s0.816-0.222,1.296-0.222C410.248,128.176,410.744,128.282,411.184,128.493z
					 M410.62,131.865c0.304-0.26,0.456-0.605,0.456-1.038c0-0.439-0.152-0.788-0.456-1.044c-0.304-0.256-0.712-0.384-1.224-0.384
					c-0.504,0-0.914,0.136-1.23,0.408c-0.316,0.271-0.474,0.616-0.474,1.032c0,0.407,0.154,0.745,0.462,1.014
					c0.308,0.268,0.734,0.402,1.278,0.402C409.92,132.256,410.316,132.125,410.62,131.865z"/>
				<path d="M424.204,131.451h-1.488v1.908h-1.512v-1.908h-4.608v-1.08l4.141-5.412h1.668l-3.9,5.173h2.748v-1.692h1.464v1.692
					h1.488V131.451z"/>
				<path d="M430.095,129.22c0.408,0.432,0.612,0.972,0.612,1.62c0,0.487-0.124,0.932-0.372,1.331
					c-0.248,0.4-0.622,0.719-1.122,0.954c-0.5,0.236-1.11,0.354-1.83,0.354c-0.6,0-1.178-0.086-1.734-0.258s-1.03-0.41-1.422-0.714
					l0.672-1.213c0.304,0.257,0.674,0.459,1.11,0.606c0.436,0.148,0.886,0.222,1.35,0.222c0.552,0,0.986-0.113,1.302-0.342
					c0.315-0.228,0.474-0.538,0.474-0.93s-0.15-0.698-0.45-0.918c-0.3-0.22-0.758-0.33-1.374-0.33h-0.768v-1.068l1.908-2.268h-3.816
					v-1.309h5.724v1.044l-2.04,2.425C429.095,128.524,429.687,128.787,430.095,129.22z"/>
			</g>
		</g>
		<rect x="239.162" fill="#282A27" width="2" height="150"/>
	</g>
</g>
</svg>
