<?xml version="1.0" encoding="utf-8"?>
<!-- Generator: Adobe Illustrator 28.3.0, SVG Export Plug-In . SVG Version: 6.00 Build 0)  -->
<svg version="1.1" xmlns="http://www.w3.org/2000/svg" xmlns:xlink="http://www.w3.org/1999/xlink" x="0px" y="0px"
	 width="447.696px" height="150px" viewBox="0 0 447.696 150" enable-background="new 0 0 447.696 150" xml:space="preserve">
<g id="Calque_1">
	<rect x="-189.656" y="-475.173" fill="#FFFFFF" width="1366" height="2065.439"/>
	<g>
		<g>
			<g>
				<g>
					<g>
						<g>
							<path fill="#031228" d="M65.981,91.492c-1.075,1.587-3.366,3.097-6.87,4.529c-3.506,1.433-6.897,2.149-10.171,2.149
								c-2.815,0-5.604-0.486-8.367-1.459c-3.276-1.177-6.064-2.942-8.367-5.297c-1.945-1.996-3.506-4.401-4.683-7.216
								c-1.331-3.172-1.996-6.499-1.996-9.979c0-2.507,0.549-5.168,1.65-7.983c1.1-2.814,2.725-5.297,4.875-7.446
								c2.405-2.405,5.117-4.209,8.137-5.412c3.019-1.202,5.884-1.804,8.597-1.804c1.637,0,3.378,0.243,5.22,0.729
								c1.842,0.487,3.582,1.216,5.22,2.188c0.716,0.41,1.151,0.819,1.305,1.228c0.154,0.41,0.154,0.742,0,0.998
								c-0.308,0.359-0.693,0.359-1.155,0c-0.205-0.204-0.602-0.511-1.192-0.921c-0.59-0.409-1.347-0.844-2.271-1.305
								c-0.924-0.461-1.925-0.831-3.002-1.113c-1.077-0.281-2.437-0.422-4.079-0.422c-2.053,0-4.002,0.397-5.85,1.19
								c-1.847,0.794-3.643,2.034-5.387,3.723c-4.106,3.941-6.158,9.494-6.158,16.658c0,7.779,2.128,13.792,6.386,18.04
								c1.128,1.126,2.871,2.137,5.231,3.032c2.359,0.896,4.513,1.343,6.463,1.343c2.871,0,5.629-0.601,8.27-1.804
								c2.641-1.202,4.707-2.674,6.194-4.414c0.667-0.768,1.334-0.921,2.001-0.461C66.39,90.571,66.39,90.981,65.981,91.492z"/>
						</g>
					</g>
					<path fill="#031228" d="M77.538,86.916l-3.343,0.015l-2.349-4.897c-0.66,0.288-1.191,0.504-1.595,0.649
						c-1.357,0.468-2.585,0.702-3.685,0.702c-0.99,0-2.677-0.386-5.06-1.159c-1.247-0.404-2.218-0.607-2.915-0.607
						c-0.55,0-1.054,0.093-1.512,0.279c-0.459,0.186-0.816,0.502-1.073,0.948l-1.65,3.68c-0.147,0.261-0.368,0.391-0.661,0.391
						c-0.257,0-0.33-0.202-0.22-0.607L64.845,59.75L77.538,86.916z M71.457,81.071l-0.118-0.383l-7.596-16.258l-6.952,16.803
						c0.918-0.295,1.791-0.561,2.619-0.801c0.827-0.24,1.571-0.36,2.234-0.36c0.955,0,2.002,0.184,3.142,0.552
						c2.61,0.847,4.282,1.269,5.018,1.269c0.368,0,0.735-0.054,1.102-0.165C71.272,81.62,71.457,81.4,71.457,81.071z"/>
					<path fill="#031228" d="M105.552,86.613h-3.145V60.068h3.145V86.613z"/>
					<path fill="#031228" d="M128.137,60.384v25.876c-0.073,0.333-0.146,0.5-0.22,0.5l-0.769-0.666l-16.171-24.167v24.226
						c-0.147,0.222-0.313,0.332-0.497,0.332c-0.221,0-0.387-0.128-0.497-0.387V59.94l3.208-0.007l13.952,21.778V60.385
						c0-0.297,0.146-0.446,0.441-0.446C127.88,59.866,128.063,60.014,128.137,60.384z"/>
					<path fill="#031228" d="M148.96,79.576c0,2.024-0.782,3.744-2.345,5.16c-1.564,1.417-3.358,2.125-5.38,2.125
						c-1.509,0-2.806-0.267-3.891-0.8c-1.086-0.533-2.272-1.37-3.559-2.511c-0.331-0.294-0.617-0.616-0.856-0.966
						c-0.239-0.349-0.359-0.653-0.359-0.911c0-0.442,0.166-0.662,0.497-0.662c0.147,0,0.386,0.301,0.717,0.901
						c0.331,0.6,0.754,1.137,1.269,1.61c0.736,0.691,1.508,1.237,2.318,1.637c1.104,0.546,2.281,0.818,3.532,0.818
						c1.655,0,3.007-0.486,4.056-1.459c1.049-0.973,1.573-2.212,1.573-3.717c0-0.735-0.175-1.487-0.524-2.258
						c-0.35-0.771-0.911-1.578-1.683-2.423c-1.545-1.211-2.879-2.275-4.001-3.194c-1.123-0.917-1.959-1.67-2.511-2.258
						c-0.736-0.734-1.316-1.615-1.738-2.643c-0.423-1.028-0.634-1.909-0.634-2.644c0-0.586,0.138-1.275,0.414-2.064
						c0.276-0.79,0.668-1.462,1.187-2.011c1.122-1.187,2.749-1.487,3.973-1.487c0.736,0,1.508,0.166,2.318,0.497
						c0.809,0.331,1.214,0.644,1.214,0.938c0,0.295-0.147,0.441-0.441,0.441c-0.147,0-0.497-0.166-1.049-0.497
						c-0.552-0.331-1.251-0.497-2.097-0.497c-1.178,0-2.061,0.331-2.649,0.993c-0.589,0.662-0.883,1.472-0.883,2.428
						c0,0.626,0.128,1.196,0.386,1.711c0.257,0.516,0.791,1.214,1.601,2.097l3.09,2.815c1.324,0.993,2.078,1.573,2.262,1.738
						c0.184,0.166,0.533,0.506,1.049,1.021c1.03,1.031,1.812,1.996,2.345,2.897C148.693,77.305,148.96,78.362,148.96,79.576z"/>
					<path fill="#031228" d="M156.537,86.613h-3.146V60.068h3.146V86.613z"/>
					<path fill="#031228" d="M185.081,86.916l-3.343,0.015l-2.349-4.897c-0.661,0.288-1.191,0.504-1.595,0.649
						c-1.357,0.468-2.585,0.702-3.685,0.702c-0.99,0-2.677-0.386-5.06-1.159c-1.247-0.404-2.218-0.607-2.915-0.607
						c-0.55,0-1.054,0.093-1.512,0.279c-0.459,0.186-0.816,0.502-1.073,0.948l-1.65,3.68c-0.147,0.26-0.367,0.391-0.661,0.391
						c-0.257,0-0.331-0.202-0.22-0.607l11.368-26.559L185.081,86.916z M178.999,81.071l-0.118-0.383l-7.596-16.258l-6.952,16.803
						c0.918-0.295,1.791-0.561,2.619-0.801c0.827-0.24,1.571-0.36,2.233-0.36c0.955,0,2.002,0.185,3.142,0.552
						c2.61,0.847,4.282,1.269,5.018,1.269c0.368,0,0.735-0.054,1.102-0.165C178.815,81.62,178.999,81.4,178.999,81.071z"/>
					<path fill="#031228" d="M97.969,86.246c0.001-0.007,0.006-0.013,0.006-0.02c0-0.011-0.007-0.021-0.009-0.032
						c0-0.043,0.003-0.085-0.009-0.134c0-0.295-0.149-0.441-0.446-0.441H85.171V60.068H81.97v26.545h0.378h15.13h0.034
						c0.228-0.046,0.361-0.138,0.421-0.268c0.011-0.016,0.015-0.033,0.022-0.049C97.959,86.279,97.966,86.264,97.969,86.246z"/>
				</g>
				<g>
					<path fill="#031228" d="M71.67,91.187h0.588v3.787h1.992v0.552h-2.58V91.187z"/>
					<path fill="#031228" d="M78.068,95.636c-0.331,0-0.635-0.058-0.913-0.174c-0.278-0.116-0.516-0.277-0.714-0.481
						c-0.198-0.204-0.354-0.445-0.466-0.723c-0.112-0.278-0.169-0.578-0.169-0.901c0-0.323,0.056-0.623,0.169-0.901
						c0.112-0.278,0.268-0.519,0.466-0.723c0.198-0.204,0.436-0.365,0.714-0.481c0.278-0.116,0.582-0.175,0.913-0.175
						c0.331,0,0.635,0.058,0.913,0.175c0.278,0.117,0.516,0.277,0.714,0.481c0.198,0.204,0.353,0.445,0.466,0.723
						c0.113,0.278,0.169,0.578,0.169,0.901c0,0.323-0.056,0.623-0.169,0.901c-0.112,0.278-0.268,0.519-0.466,0.723
						c-0.198,0.204-0.436,0.365-0.714,0.481C78.704,95.578,78.399,95.636,78.068,95.636z M78.068,95.084
						c0.249,0,0.474-0.046,0.674-0.138c0.2-0.092,0.372-0.215,0.515-0.371c0.143-0.155,0.253-0.338,0.331-0.548
						c0.078-0.21,0.116-0.434,0.116-0.671c0-0.237-0.039-0.46-0.116-0.671c-0.078-0.21-0.188-0.393-0.331-0.549
						c-0.143-0.155-0.314-0.279-0.515-0.371c-0.2-0.092-0.425-0.138-0.674-0.138c-0.249,0-0.474,0.046-0.674,0.138
						c-0.2,0.092-0.372,0.216-0.515,0.371c-0.143,0.155-0.253,0.338-0.331,0.549c-0.078,0.21-0.116,0.434-0.116,0.671
						c0,0.237,0.039,0.461,0.116,0.671c0.078,0.21,0.188,0.393,0.331,0.548c0.143,0.156,0.314,0.279,0.515,0.371
						C77.594,95.038,77.819,95.084,78.068,95.084z"/>
					<path fill="#031228" d="M81.807,91.187h0.68l1.275,3.53h0.012l1.324-3.53h0.643l-1.71,4.339h-0.552L81.807,91.187z"/>
					<path fill="#031228" d="M87.487,91.187h2.801v0.552h-2.212v1.293h2.059v0.552h-2.059v1.391h2.322v0.552h-2.911V91.187z"/>
					<path fill="#031228" d="M95.386,91.187h1.526c0.278,0,0.507,0.038,0.686,0.113c0.18,0.076,0.322,0.172,0.426,0.288
						c0.104,0.116,0.177,0.247,0.218,0.392c0.04,0.145,0.061,0.285,0.061,0.42c0,0.139-0.025,0.273-0.074,0.401
						c-0.049,0.129-0.12,0.245-0.211,0.349c-0.092,0.104-0.204,0.193-0.337,0.264c-0.133,0.071-0.281,0.115-0.444,0.132l1.232,1.979
						h-0.735l-1.103-1.912h-0.656v1.912h-0.589V91.187z M95.975,93.099h0.772c0.115,0,0.228-0.009,0.34-0.027
						c0.113-0.018,0.212-0.052,0.3-0.101c0.088-0.049,0.159-0.12,0.211-0.211c0.053-0.092,0.08-0.211,0.08-0.359
						c0-0.147-0.026-0.266-0.08-0.359c-0.053-0.092-0.123-0.162-0.211-0.211c-0.088-0.049-0.188-0.083-0.3-0.101
						c-0.112-0.018-0.225-0.028-0.34-0.028h-0.772V93.099z"/>
					<path fill="#031228" d="M102.348,95.636c-0.331,0-0.635-0.058-0.913-0.174c-0.278-0.116-0.516-0.277-0.714-0.481
						c-0.198-0.204-0.354-0.445-0.466-0.723c-0.112-0.278-0.169-0.578-0.169-0.901c0-0.323,0.056-0.623,0.169-0.901
						c0.112-0.278,0.268-0.519,0.466-0.723c0.198-0.204,0.436-0.365,0.714-0.481c0.278-0.116,0.582-0.175,0.913-0.175
						c0.331,0,0.635,0.058,0.913,0.175c0.278,0.117,0.516,0.277,0.714,0.481c0.198,0.204,0.354,0.445,0.466,0.723
						c0.112,0.278,0.169,0.578,0.169,0.901c0,0.323-0.056,0.623-0.169,0.901c-0.112,0.278-0.268,0.519-0.466,0.723
						c-0.198,0.204-0.436,0.365-0.714,0.481C102.983,95.578,102.679,95.636,102.348,95.636z M102.348,95.084
						c0.249,0,0.474-0.046,0.674-0.138c0.2-0.092,0.372-0.215,0.515-0.371c0.143-0.155,0.253-0.338,0.331-0.548
						c0.078-0.21,0.116-0.434,0.116-0.671c0-0.237-0.038-0.46-0.116-0.671c-0.078-0.21-0.188-0.393-0.331-0.549
						c-0.143-0.155-0.314-0.279-0.515-0.371c-0.2-0.092-0.425-0.138-0.674-0.138c-0.249,0-0.474,0.046-0.674,0.138
						c-0.2,0.092-0.372,0.216-0.515,0.371c-0.143,0.155-0.253,0.338-0.331,0.549c-0.078,0.21-0.116,0.434-0.116,0.671
						c0,0.237,0.038,0.461,0.116,0.671c0.078,0.21,0.188,0.393,0.331,0.548c0.143,0.156,0.314,0.279,0.515,0.371
						C101.874,95.038,102.099,95.084,102.348,95.084z"/>
					<path fill="#031228" d="M108.672,95.636c-0.331,0-0.635-0.058-0.913-0.174c-0.278-0.116-0.516-0.277-0.714-0.481
						c-0.198-0.204-0.353-0.445-0.466-0.723c-0.112-0.278-0.168-0.578-0.168-0.901c0-0.323,0.056-0.623,0.168-0.901
						c0.113-0.278,0.268-0.519,0.466-0.723c0.199-0.204,0.436-0.365,0.714-0.481c0.278-0.116,0.582-0.175,0.913-0.175
						c0.331,0,0.635,0.058,0.913,0.175c0.278,0.117,0.516,0.277,0.714,0.481c0.198,0.204,0.354,0.445,0.466,0.723
						c0.112,0.278,0.169,0.578,0.169,0.901c0,0.323-0.056,0.623-0.169,0.901c-0.112,0.278-0.267,0.519-0.466,0.723
						c-0.198,0.204-0.436,0.365-0.714,0.481C109.308,95.578,109.003,95.636,108.672,95.636z M108.672,95.084
						c0.249,0,0.474-0.046,0.674-0.138c0.2-0.092,0.372-0.215,0.515-0.371c0.143-0.155,0.253-0.338,0.331-0.548
						c0.078-0.21,0.117-0.434,0.117-0.671c0-0.237-0.039-0.46-0.117-0.671c-0.077-0.21-0.188-0.393-0.331-0.549
						c-0.143-0.155-0.315-0.279-0.515-0.371c-0.2-0.092-0.425-0.138-0.674-0.138c-0.249,0-0.474,0.046-0.674,0.138
						c-0.2,0.092-0.372,0.216-0.515,0.371c-0.143,0.155-0.253,0.338-0.331,0.549c-0.077,0.21-0.116,0.434-0.116,0.671
						c0,0.237,0.039,0.461,0.116,0.671c0.078,0.21,0.188,0.393,0.331,0.548c0.143,0.156,0.315,0.279,0.515,0.371
						C108.198,95.038,108.423,95.084,108.672,95.084z"/>
					<path fill="#031228" d="M112.962,91.187h0.876l1.379,3.285h0.024l1.367-3.285h0.876v4.339h-0.589v-3.567h-0.012l-1.465,3.567
						h-0.392l-1.465-3.567h-0.012v3.567h-0.589V91.187z"/>
					<path fill="#031228" d="M126.517,95.526h-0.79l-0.533-0.576c-0.184,0.22-0.379,0.39-0.585,0.509
						c-0.206,0.118-0.454,0.178-0.745,0.178c-0.245,0-0.457-0.036-0.637-0.107c-0.18-0.071-0.328-0.167-0.444-0.285
						c-0.117-0.119-0.202-0.252-0.258-0.401c-0.055-0.149-0.082-0.303-0.082-0.463c0-0.151,0.026-0.289,0.079-0.413
						c0.053-0.125,0.125-0.238,0.214-0.34c0.09-0.102,0.195-0.194,0.316-0.276c0.121-0.082,0.246-0.153,0.377-0.214
						c-0.139-0.147-0.258-0.298-0.359-0.454c-0.1-0.155-0.15-0.339-0.15-0.552c0-0.163,0.031-0.308,0.095-0.435
						c0.063-0.127,0.148-0.233,0.254-0.319s0.229-0.151,0.368-0.196c0.139-0.045,0.286-0.067,0.441-0.067
						c0.151,0,0.295,0.02,0.432,0.061c0.137,0.041,0.256,0.102,0.359,0.184c0.102,0.082,0.183,0.184,0.242,0.307
						c0.059,0.122,0.089,0.265,0.089,0.429c0,0.135-0.026,0.258-0.08,0.371c-0.053,0.113-0.122,0.214-0.208,0.307
						c-0.086,0.092-0.182,0.174-0.288,0.245c-0.106,0.071-0.214,0.136-0.325,0.193l0.858,0.895l0.546-0.889h0.668l-0.839,1.299
						L126.517,95.526z M123.796,93.479c-0.086,0.049-0.173,0.102-0.26,0.159c-0.088,0.057-0.167,0.121-0.236,0.19
						c-0.07,0.07-0.126,0.148-0.169,0.236c-0.043,0.088-0.064,0.187-0.064,0.297c0,0.106,0.022,0.205,0.067,0.297
						c0.045,0.092,0.106,0.173,0.184,0.242c0.077,0.069,0.164,0.123,0.26,0.162c0.096,0.039,0.197,0.058,0.303,0.058
						s0.205-0.016,0.297-0.049c0.092-0.033,0.178-0.075,0.257-0.126c0.08-0.051,0.153-0.109,0.221-0.175
						c0.067-0.065,0.13-0.133,0.187-0.202L123.796,93.479z M124.611,92.094c0-0.143-0.049-0.256-0.147-0.34
						c-0.098-0.084-0.225-0.126-0.38-0.126c-0.156,0-0.29,0.044-0.404,0.132c-0.115,0.088-0.172,0.213-0.172,0.377
						c0,0.073,0.013,0.143,0.04,0.208c0.026,0.065,0.061,0.129,0.104,0.19c0.043,0.061,0.089,0.119,0.138,0.172
						c0.049,0.053,0.098,0.104,0.147,0.153c0.073-0.041,0.15-0.086,0.23-0.135c0.079-0.049,0.152-0.104,0.217-0.165
						c0.065-0.061,0.119-0.13,0.162-0.205C124.59,92.278,124.611,92.192,124.611,92.094z"/>
					<path fill="#031228" d="M131.42,94.618c0.106,0.16,0.242,0.277,0.407,0.353c0.166,0.076,0.336,0.113,0.512,0.113
						c0.098,0,0.199-0.015,0.301-0.046c0.102-0.03,0.195-0.076,0.279-0.138c0.083-0.061,0.152-0.137,0.205-0.227
						c0.053-0.09,0.08-0.194,0.08-0.313c0-0.168-0.053-0.295-0.159-0.383c-0.107-0.088-0.238-0.161-0.396-0.22
						c-0.157-0.059-0.329-0.117-0.515-0.172c-0.186-0.055-0.358-0.132-0.515-0.23c-0.158-0.098-0.289-0.23-0.395-0.395
						c-0.106-0.165-0.159-0.389-0.159-0.671c0-0.127,0.027-0.261,0.082-0.404c0.055-0.143,0.142-0.274,0.261-0.393
						c0.118-0.118,0.27-0.217,0.456-0.297c0.186-0.08,0.409-0.12,0.671-0.12c0.237,0,0.463,0.033,0.68,0.098
						c0.216,0.065,0.406,0.198,0.57,0.398l-0.478,0.435c-0.073-0.115-0.178-0.206-0.313-0.276c-0.135-0.069-0.288-0.104-0.459-0.104
						c-0.164,0-0.3,0.021-0.407,0.064c-0.109,0.043-0.195,0.098-0.261,0.166c-0.065,0.067-0.111,0.14-0.138,0.217
						c-0.027,0.078-0.04,0.149-0.04,0.214c0,0.184,0.053,0.325,0.159,0.423c0.106,0.098,0.238,0.178,0.396,0.239
						c0.157,0.061,0.329,0.117,0.515,0.166c0.186,0.049,0.358,0.117,0.515,0.205c0.158,0.088,0.289,0.206,0.395,0.356
						c0.106,0.149,0.159,0.355,0.159,0.616c0,0.208-0.039,0.396-0.119,0.564c-0.08,0.168-0.187,0.308-0.322,0.422
						c-0.135,0.115-0.294,0.202-0.478,0.264c-0.184,0.061-0.38,0.092-0.588,0.092c-0.278,0-0.542-0.049-0.791-0.147
						c-0.249-0.098-0.447-0.249-0.594-0.453L131.42,94.618z"/>
					<path fill="#031228" d="M135.924,91.187h1.526c0.278,0,0.507,0.038,0.686,0.113c0.18,0.076,0.322,0.172,0.426,0.288
						c0.104,0.116,0.177,0.247,0.217,0.392c0.041,0.145,0.061,0.285,0.061,0.42s-0.02,0.275-0.061,0.42
						c-0.041,0.145-0.113,0.276-0.217,0.392c-0.104,0.117-0.246,0.212-0.426,0.288c-0.18,0.075-0.408,0.113-0.686,0.113h-0.938
						v1.912h-0.589V91.187z M136.512,93.099h0.772c0.114,0,0.228-0.009,0.34-0.027c0.112-0.018,0.212-0.052,0.3-0.101
						s0.159-0.12,0.211-0.211c0.053-0.092,0.08-0.211,0.08-0.359c0-0.147-0.026-0.266-0.08-0.359
						c-0.053-0.092-0.124-0.162-0.211-0.211c-0.088-0.049-0.188-0.083-0.3-0.101c-0.112-0.018-0.226-0.028-0.34-0.028h-0.772V93.099
						z"/>
					<path fill="#031228" d="M141.691,91.187h0.533l1.857,4.339h-0.686l-0.435-1.072h-2.065l-0.429,1.072h-0.687L141.691,91.187z
						 M142.745,93.938l-0.809-1.991h-0.012l-0.821,1.991H142.745z"/>
					<path fill="#031228" d="M148.689,93.356c0-0.151,0.028-0.292,0.086-0.423c0.057-0.131,0.135-0.245,0.233-0.343
						c0.098-0.098,0.212-0.176,0.343-0.233c0.131-0.057,0.272-0.086,0.423-0.086c0.151,0,0.292,0.028,0.423,0.086
						c0.131,0.057,0.245,0.135,0.343,0.233c0.098,0.098,0.176,0.212,0.233,0.343c0.057,0.131,0.086,0.272,0.086,0.423
						c0,0.151-0.028,0.292-0.086,0.423c-0.057,0.131-0.135,0.245-0.233,0.343c-0.098,0.098-0.212,0.176-0.343,0.233
						c-0.131,0.057-0.272,0.086-0.423,0.086c-0.151,0-0.292-0.028-0.423-0.086c-0.131-0.057-0.245-0.135-0.343-0.233
						c-0.098-0.098-0.176-0.212-0.233-0.343C148.717,93.648,148.689,93.507,148.689,93.356z"/>
					<path fill="#031228" d="M156.018,91.187h0.772l2.39,3.567h0.012v-3.567h0.588v4.339h-0.748l-2.415-3.567h-0.012v3.567h-0.588
						V91.187z"/>
					<path fill="#031228" d="M163.482,91.187h0.533l1.857,4.339h-0.686l-0.435-1.072h-2.065l-0.429,1.072h-0.687L163.482,91.187z
						 M164.536,93.938l-0.809-1.991h-0.012l-0.821,1.991H164.536z"/>
					<path fill="#031228" d="M167.662,91.187h0.772l2.39,3.567h0.012v-3.567h0.588v4.339h-0.748l-2.415-3.567h-0.012v3.567h-0.588
						V91.187z"/>
					<path fill="#031228" d="M174.672,91.738h-1.397v-0.552h3.383v0.552h-1.397v3.787h-0.588V91.738z"/>
					<path fill="#031228" d="M178.508,91.187h2.801v0.552h-2.212v1.293h2.059v0.552h-2.059v1.391h2.322v0.552h-2.911V91.187z"/>
					<path fill="#031228" d="M183.607,94.618c0.106,0.16,0.242,0.277,0.407,0.353c0.166,0.076,0.336,0.113,0.512,0.113
						c0.098,0,0.199-0.015,0.301-0.046c0.102-0.03,0.195-0.076,0.279-0.138c0.083-0.061,0.152-0.137,0.205-0.227
						c0.053-0.09,0.08-0.194,0.08-0.313c0-0.168-0.053-0.295-0.159-0.383c-0.107-0.088-0.238-0.161-0.395-0.22
						c-0.157-0.059-0.329-0.117-0.515-0.172c-0.186-0.055-0.358-0.132-0.515-0.23c-0.158-0.098-0.289-0.23-0.395-0.395
						c-0.106-0.165-0.159-0.389-0.159-0.671c0-0.127,0.027-0.261,0.082-0.404c0.055-0.143,0.142-0.274,0.261-0.393
						c0.118-0.118,0.27-0.217,0.456-0.297c0.186-0.08,0.409-0.12,0.671-0.12c0.237,0,0.463,0.033,0.68,0.098
						c0.216,0.065,0.406,0.198,0.57,0.398l-0.478,0.435c-0.073-0.115-0.178-0.206-0.313-0.276c-0.135-0.069-0.288-0.104-0.459-0.104
						c-0.164,0-0.3,0.021-0.407,0.064c-0.109,0.043-0.195,0.098-0.261,0.166c-0.065,0.067-0.111,0.14-0.138,0.217
						c-0.027,0.078-0.04,0.149-0.04,0.214c0,0.184,0.053,0.325,0.159,0.423c0.106,0.098,0.238,0.178,0.396,0.239
						c0.157,0.061,0.329,0.117,0.515,0.166c0.186,0.049,0.358,0.117,0.515,0.205c0.158,0.088,0.289,0.206,0.395,0.356
						c0.106,0.149,0.159,0.355,0.159,0.616c0,0.208-0.039,0.396-0.119,0.564c-0.08,0.168-0.187,0.308-0.322,0.422
						c-0.135,0.115-0.294,0.202-0.478,0.264c-0.184,0.061-0.38,0.092-0.588,0.092c-0.278,0-0.542-0.049-0.791-0.147
						c-0.249-0.098-0.447-0.249-0.594-0.453L183.607,94.618z"/>
				</g>
			</g>
			<g>
				
					<linearGradient id="SVGID_00000105387858274240791680000007597462671785914541_" gradientUnits="userSpaceOnUse" x1="-5.0037" y1="81.4299" x2="28.4461" y2="53.5977">
					<stop  offset="0" style="stop-color:#EACA83"/>
					<stop  offset="1" style="stop-color:#805937"/>
				</linearGradient>
				<path fill="url(#SVGID_00000105387858274240791680000007597462671785914541_)" d="M28.359,59.074
					c-0.308-2.161-0.332-4.379-0.084-6.664c1.279,1.02,2.434,2.136,3.469,3.319c0.512-0.444,1.034-0.871,1.57-1.271
					c-1.574-2.097-3.506-4.028-5.766-5.699c-0.206-0.152-0.524-0.142-0.799-0.03c-0.279,0.105-0.505,0.336-0.544,0.587
					c-0.624,4.156-0.314,8.197,0.77,11.858c0.434-0.676,0.904-1.33,1.406-1.963C28.373,59.166,28.365,59.121,28.359,59.074z"/>
				
					<linearGradient id="SVGID_00000140708131806295179780000004262434574080230057_" gradientUnits="userSpaceOnUse" x1="6.3587" y1="95.0856" x2="39.8086" y2="67.2533">
					<stop  offset="0" style="stop-color:#EACA83"/>
					<stop  offset="1" style="stop-color:#805937"/>
				</linearGradient>
				<path fill="url(#SVGID_00000140708131806295179780000004262434574080230057_)" d="M21.676,80.527
					c-0.205,0.17-0.409,0.345-0.612,0.524c-0.198,0.177-0.392,0.357-0.586,0.543c-0.168,0.16-0.196,0.381-0.126,0.561
					c0.067,0.183,0.257,0.313,0.486,0.308c1.088-0.025,2.169-0.129,3.229-0.299c-0.089-0.31-0.178-0.62-0.256-0.933
					c-0.494,0.049-0.99,0.089-1.491,0.108c0.417-0.384,0.839-0.743,1.269-1.091c-0.071-0.337-0.133-0.676-0.192-1.015
					c-0.158,0.109-0.316,0.207-0.474,0.321C22.5,79.863,22.087,80.186,21.676,80.527z"/>
				
					<linearGradient id="SVGID_00000047764950247195944250000018280741068414087090_" gradientUnits="userSpaceOnUse" x1="-2.0544" y1="84.9745" x2="31.3955" y2="57.1422">
					<stop  offset="0" style="stop-color:#EACA83"/>
					<stop  offset="1" style="stop-color:#805937"/>
				</linearGradient>
				<path fill="url(#SVGID_00000047764950247195944250000018280741068414087090_)" d="M19.808,70.296
					c-1.727-1.305-3.338-2.864-4.766-4.653c2.285-0.249,4.502-0.223,6.664,0.084c0.267,0.037,0.533,0.078,0.796,0.122
					c0.267,0.047,0.534,0.099,0.798,0.153c0.403,0.083,0.793,0.182,1.184,0.282c0.101-0.283,0.202-0.565,0.313-0.85
					c0.089-0.229,0.189-0.452,0.285-0.677c-3.987-1.414-8.489-1.883-13.135-1.185c-0.25,0.039-0.482,0.264-0.587,0.543
					c-0.112,0.276-0.122,0.594,0.03,0.8c1.841,2.49,3.996,4.586,6.343,6.239c1.663,1.174,3.428,2.12,5.248,2.848
					c0.009-0.539,0.039-1.083,0.092-1.634C21.952,71.768,20.861,71.086,19.808,70.296z"/>
				
					<linearGradient id="SVGID_00000083771948492565597510000005958524293986794887_" gradientUnits="userSpaceOnUse" x1="6.0814" y1="94.7523" x2="39.5312" y2="66.9201">
					<stop  offset="0" style="stop-color:#EACA83"/>
					<stop  offset="1" style="stop-color:#805937"/>
				</linearGradient>
				<path fill="url(#SVGID_00000083771948492565597510000005958524293986794887_)" d="M23.301,83.998
					c-0.264,0.054-0.531,0.106-0.798,0.153c-0.263,0.044-0.529,0.085-0.796,0.122c-2.162,0.308-4.379,0.333-6.664,0.085
					c1.428-1.789,3.038-3.35,4.766-4.653c1.08-0.81,2.2-1.507,3.353-2.119c-0.06-0.532-0.108-1.067-0.138-1.605
					c-1.835,0.73-3.614,1.682-5.289,2.865c-2.347,1.652-4.502,3.748-6.343,6.239c-0.152,0.205-0.142,0.523-0.03,0.799
					c0.105,0.279,0.337,0.505,0.587,0.543c4.665,0.701,9.185,0.225,13.184-1.203c-0.209-0.503-0.4-1.012-0.579-1.525
					C24.14,83.806,23.727,83.909,23.301,83.998z"/>
				
					<linearGradient id="SVGID_00000176045570339614690220000006579322441941825982_" gradientUnits="userSpaceOnUse" x1="14.9069" y1="105.3592" x2="48.3567" y2="77.5269">
					<stop  offset="0" style="stop-color:#EACA83"/>
					<stop  offset="1" style="stop-color:#805937"/>
				</linearGradient>
				<path fill="url(#SVGID_00000176045570339614690220000006579322441941825982_)" d="M28.274,97.59
					c-0.247-2.278-0.223-4.49,0.082-6.644c-0.494-0.663-0.959-1.356-1.394-2.08c-1.075,3.65-1.38,7.677-0.759,11.818
					c0.039,0.251,0.265,0.482,0.544,0.587c0.275,0.112,0.594,0.122,0.799-0.03c2.186-1.616,4.068-3.474,5.614-5.493
					c-0.548-0.409-1.079-0.838-1.589-1.292C30.58,95.569,29.485,96.624,28.274,97.59z"/>
				
					<linearGradient id="SVGID_00000172439825668388434420000015042658698015052729_" gradientUnits="userSpaceOnUse" x1="-0.0227" y1="87.4169" x2="33.4277" y2="59.5842">
					<stop  offset="0" style="stop-color:#EACA83"/>
					<stop  offset="1" style="stop-color:#805937"/>
				</linearGradient>
				<path fill="url(#SVGID_00000172439825668388434420000015042658698015052729_)" d="M20.353,67.845
					c-0.07,0.181-0.042,0.401,0.126,0.561c0.194,0.185,0.389,0.365,0.586,0.542c0.202,0.179,0.407,0.354,0.612,0.524
					c0.411,0.341,0.823,0.665,1.247,0.974c0.127,0.091,0.254,0.169,0.38,0.257c0.059-0.339,0.125-0.679,0.2-1.022
					c-0.4-0.326-0.794-0.662-1.182-1.021c0.47,0.018,0.936,0.054,1.399,0.099c0.08-0.311,0.166-0.624,0.259-0.938
					c-1.031-0.162-2.082-0.26-3.14-0.284C20.61,67.532,20.42,67.662,20.353,67.845z"/>
				
					<linearGradient id="SVGID_00000163064595040274174410000006090937753555786933_" gradientUnits="userSpaceOnUse" x1="23.4748" y1="115.6564" x2="56.9247" y2="87.8241">
					<stop  offset="0" style="stop-color:#EACA83"/>
					<stop  offset="1" style="stop-color:#805937"/>
				</linearGradient>
				<path fill="url(#SVGID_00000163064595040274174410000006090937753555786933_)" d="M42.077,101.8
					c-0.98,2.809-2.574,5.529-4.445,8.133l-0.001-0.001l-0.001,0.001c-1.871-2.604-3.463-5.324-4.444-8.133
					c1.137-1.321,2.164-2.69,3.045-4.106c-0.454-0.242-0.899-0.496-1.333-0.764c-0.239,0.345-0.483,0.688-0.74,1.028
					c-0.317,0.414-0.645,0.816-0.988,1.222c-0.342,0.405-0.697,0.813-1.059,1.199c-0.428,0.463-0.837,0.726-0.805,1.339
					c0.041,0.804,0.524,1.739,0.845,2.519c0.352,0.886,0.756,1.781,1.208,2.644c0.236,0.458,0.485,0.918,0.744,1.377
					c0.26,0.457,0.53,0.9,0.81,1.349c0.279,0.449,0.567,0.898,0.862,1.347c0.295,0.439,0.597,0.877,0.903,1.316
					c0.197,0.282,0.576,0.381,0.949,0.355h0.002h0.002c0.374,0.025,0.752-0.073,0.949-0.355c0.307-0.439,0.608-0.877,0.903-1.316
					c0.295-0.449,0.583-0.898,0.862-1.347c0.279-0.45,0.55-0.893,0.809-1.349c0.26-0.46,0.508-0.919,0.745-1.377
					c0.451-0.863,0.855-1.758,1.207-2.644c0.322-0.781,0.804-1.715,0.845-2.519c0.032-0.613-0.377-0.876-0.805-1.339
					c-0.065-0.07-0.129-0.143-0.194-0.214c-0.932-0.209-1.86-0.465-2.783-0.773C40.764,100.213,41.401,101.015,42.077,101.8z"/>
				
					<linearGradient id="SVGID_00000113324428387659426960000013448152664087789238_" gradientUnits="userSpaceOnUse" x1="22.7631" y1="114.8009" x2="56.2129" y2="86.9687">
					<stop  offset="0" style="stop-color:#EACA83"/>
					<stop  offset="1" style="stop-color:#805937"/>
				</linearGradient>
				<path fill="url(#SVGID_00000113324428387659426960000013448152664087789238_)" d="M35.684,103.366
					c0.355,0.707,0.754,1.384,1.17,2.063c0.166,0.273,0.474,0.37,0.776,0.349h0.001h0.001c0.303,0.02,0.61-0.077,0.777-0.349
					c0.416-0.68,0.815-1.357,1.171-2.063c0.187-0.364,0.568-0.846,0.512-1.24c-0.062-0.439-0.538-0.877-0.788-1.237
					c-0.366-0.516-0.721-1.06-1.049-1.597c-0.129-0.211-0.376-0.312-0.623-0.306c-0.246-0.006-0.493,0.095-0.623,0.306
					c-0.329,0.537-0.683,1.08-1.049,1.597c-0.25,0.36-0.725,0.798-0.788,1.237C35.116,102.52,35.496,103.001,35.684,103.366z
					 M37.631,101.052c0.247,0.394,0.499,0.79,0.76,1.187c-0.237,0.451-0.489,0.902-0.759,1.348h0
					c-0.271-0.447-0.523-0.897-0.759-1.348C37.132,101.842,37.385,101.446,37.631,101.052z"/>
				
					<linearGradient id="SVGID_00000183929225068025574160000009462609625450534333_" gradientUnits="userSpaceOnUse" x1="10.8335" y1="100.4636" x2="44.2833" y2="72.6313">
					<stop  offset="0" style="stop-color:#EACA83"/>
					<stop  offset="1" style="stop-color:#805937"/>
				</linearGradient>
				<path fill="url(#SVGID_00000183929225068025574160000009462609625450534333_)" d="M24.62,87.36
					c-1.791,0.693-3.684,1.147-5.676,1.417c-1.026,0.132-2.098,0.227-3.158,0.265c-0.633,0.027-1.111-0.074-1.52,0.38
					c-0.537,0.595-0.853,1.594-1.185,2.377c-0.371,0.87-0.724,1.792-1.017,2.721c-0.31,0.979-0.599,2.003-0.83,3.026
					c-0.119,0.514-0.232,1.034-0.341,1.56c-0.107,0.525-0.199,1.045-0.292,1.574c-0.06,0.339,0.139,0.677,0.423,0.924l0.002,0.002
					l0.002,0.002c0.247,0.284,0.585,0.482,0.924,0.423c0.529-0.094,1.049-0.186,1.573-0.293c0.526-0.108,1.046-0.221,1.561-0.34
					c1.022-0.231,2.047-0.521,3.026-0.83c0.929-0.293,1.851-0.646,2.721-1.017c0.783-0.333,1.782-0.649,2.377-1.185
					c0.454-0.409,0.354-0.886,0.38-1.52c0.038-1.061,0.133-2.132,0.265-3.159c0.271-1.991,0.725-3.886,1.418-5.675
					c0.083-0.217,0.026-0.42-0.107-0.545C25.04,87.334,24.837,87.277,24.62,87.36z M21.828,97.092c-2.68,1.297-5.73,2.1-8.897,2.61
					l0-0.001H12.93c0.51-3.168,1.313-6.217,2.61-8.896c2.759-0.205,5.414-0.689,7.848-1.561
					C22.516,91.679,22.032,94.334,21.828,97.092z"/>
				
					<linearGradient id="SVGID_00000115499965568045695080000017672145887519969215_" gradientUnits="userSpaceOnUse" x1="10.8657" y1="100.5022" x2="44.3154" y2="72.67">
					<stop  offset="0" style="stop-color:#EACA83"/>
					<stop  offset="1" style="stop-color:#805937"/>
				</linearGradient>
				<path fill="url(#SVGID_00000115499965568045695080000017672145887519969215_)" d="M15.868,96.764l0.001,0.001
					c0.2,0.229,0.486,0.379,0.797,0.304c0.388-0.094,0.773-0.189,1.152-0.291c0.384-0.106,0.765-0.22,1.137-0.341
					c0.389-0.124,0.998-0.195,1.237-0.514c0.266-0.354,0.24-1.001,0.319-1.434c0.107-0.626,0.235-1.255,0.384-1.87
					c0.058-0.241-0.044-0.487-0.222-0.658c-0.171-0.178-0.417-0.281-0.658-0.223c-0.615,0.15-1.244,0.277-1.87,0.384
					c-0.432,0.079-1.08,0.053-1.434,0.319c-0.319,0.239-0.39,0.848-0.515,1.237c-0.121,0.373-0.234,0.753-0.341,1.137
					c-0.101,0.38-0.197,0.764-0.291,1.152c-0.076,0.311,0.074,0.597,0.304,0.797L15.868,96.764z M17.832,93.724
					c0.465-0.097,0.925-0.198,1.378-0.303c-0.105,0.454-0.206,0.913-0.302,1.379c-0.487,0.151-0.984,0.291-1.491,0.415
					C17.541,94.707,17.68,94.21,17.832,93.724z"/>
				
					<linearGradient id="SVGID_00000006686285707672975920000018091131405350850697_" gradientUnits="userSpaceOnUse" x1="-2.1304" y1="84.8831" x2="31.3195" y2="57.0509">
					<stop  offset="0" style="stop-color:#EACA83"/>
					<stop  offset="1" style="stop-color:#805937"/>
				</linearGradient>
				<path fill="url(#SVGID_00000006686285707672975920000018091131405350850697_)" d="M12.251,80.518
					c0.386-0.361,0.794-0.717,1.199-1.058c0.406-0.343,0.808-0.671,1.223-0.988c1.607-1.217,3.26-2.232,5.019-3.01
					c0.213-0.095,0.315-0.279,0.309-0.462c0.005-0.184-0.097-0.367-0.309-0.463c-1.759-0.778-3.412-1.793-5.019-3.01
					c-0.415-0.317-0.817-0.645-1.223-0.988c-0.405-0.342-0.813-0.697-1.199-1.058c-0.463-0.429-0.727-0.838-1.339-0.805
					c-0.804,0.041-1.739,0.523-2.519,0.844c-0.886,0.353-1.782,0.758-2.644,1.208c-0.458,0.236-0.917,0.486-1.377,0.745
					c-0.457,0.259-0.899,0.53-1.35,0.809c-0.449,0.28-0.898,0.568-1.347,0.863c-0.439,0.295-0.877,0.596-1.316,0.903
					c-0.282,0.197-0.381,0.574-0.355,0.948V75v0.002c-0.025,0.374,0.073,0.752,0.355,0.949c0.439,0.307,0.878,0.608,1.316,0.903
					c0.449,0.295,0.898,0.583,1.347,0.863c0.451,0.279,0.893,0.55,1.35,0.81c0.459,0.259,0.919,0.508,1.377,0.745
					c0.862,0.451,1.759,0.854,2.644,1.208c0.781,0.321,1.715,0.803,2.519,0.844C11.524,81.356,11.788,80.947,12.251,80.518z
					 M2.698,75h0.001H2.698c2.605-1.872,5.325-3.464,8.133-4.445c2.099,1.807,4.321,3.338,6.656,4.445
					c-2.334,1.106-4.556,2.638-6.656,4.445C8.023,78.464,5.303,76.872,2.698,75z"/>
				
					<linearGradient id="SVGID_00000018929329524854225760000006132811210602453390_" gradientUnits="userSpaceOnUse" x1="-1.9548" y1="85.0942" x2="31.495" y2="57.262">
					<stop  offset="0" style="stop-color:#EACA83"/>
					<stop  offset="1" style="stop-color:#805937"/>
				</linearGradient>
				<path fill="url(#SVGID_00000018929329524854225760000006132811210602453390_)" d="M13.34,74.378
					c-0.537-0.329-1.081-0.683-1.597-1.049c-0.36-0.25-0.798-0.725-1.237-0.788c-0.394-0.056-0.876,0.324-1.239,0.511
					c-0.708,0.356-1.384,0.755-2.064,1.171c-0.273,0.166-0.37,0.473-0.35,0.776V75v0.001c-0.02,0.303,0.077,0.61,0.35,0.776
					c0.68,0.416,1.357,0.815,2.064,1.171c0.363,0.187,0.845,0.568,1.239,0.511c0.439-0.062,0.877-0.537,1.237-0.788
					c0.516-0.366,1.059-0.72,1.597-1.049c0.211-0.129,0.312-0.377,0.306-0.623C13.652,74.754,13.55,74.507,13.34,74.378z
					 M10.393,75.76C9.941,75.523,9.491,75.271,9.044,75v0c0.447-0.271,0.897-0.523,1.349-0.76c0.396,0.261,0.793,0.513,1.187,0.76
					C11.185,75.246,10.789,75.499,10.393,75.76z"/>
				
					<linearGradient id="SVGID_00000178913105739806023920000014944766439555786638_" gradientUnits="userSpaceOnUse" x1="-8.3267" y1="77.4362" x2="25.1231" y2="49.6039">
					<stop  offset="0" style="stop-color:#EACA83"/>
					<stop  offset="1" style="stop-color:#805937"/>
				</linearGradient>
				<path fill="url(#SVGID_00000178913105739806023920000014944766439555786638_)" d="M11.233,52.453
					c0.232,1.023,0.52,2.047,0.83,3.026c0.293,0.928,0.646,1.851,1.017,2.721c0.333,0.783,0.649,1.782,1.185,2.377
					c0.409,0.455,0.887,0.354,1.52,0.381c1.061,0.037,2.133,0.133,3.158,0.265c1.992,0.271,3.885,0.724,5.676,1.417
					c0.217,0.084,0.419,0.026,0.544-0.107c0.133-0.125,0.19-0.328,0.107-0.545c-0.693-1.79-1.147-3.684-1.418-5.676
					c-0.132-1.026-0.227-2.097-0.265-3.158c-0.027-0.634,0.074-1.112-0.38-1.52c-0.595-0.536-1.594-0.853-2.377-1.185
					c-0.87-0.371-1.792-0.724-2.721-1.017c-0.979-0.31-2.003-0.599-3.026-0.83c-0.514-0.12-1.035-0.232-1.561-0.34
					c-0.524-0.107-1.045-0.199-1.573-0.293c-0.339-0.06-0.677,0.14-0.924,0.423l-0.002,0.001l-0.002,0.002
					c-0.284,0.247-0.482,0.585-0.423,0.924c0.094,0.529,0.185,1.049,0.292,1.574C11.001,51.418,11.114,51.939,11.233,52.453z
					 M12.93,50.298c3.168,0.511,6.217,1.313,8.897,2.61c0.205,2.758,0.688,5.414,1.56,7.848c-2.434-0.871-5.089-1.355-7.848-1.56
					C14.243,56.515,13.44,53.467,12.93,50.298L12.93,50.298L12.93,50.298z"/>
				
					<linearGradient id="SVGID_00000128459888269398019020000011595979401497392800_" gradientUnits="userSpaceOnUse" x1="-8.1668" y1="77.6286" x2="25.2832" y2="49.7962">
					<stop  offset="0" style="stop-color:#EACA83"/>
					<stop  offset="1" style="stop-color:#805937"/>
				</linearGradient>
				<path fill="url(#SVGID_00000128459888269398019020000011595979401497392800_)" d="M15.854,55.186
					c0.107,0.384,0.22,0.764,0.341,1.137c0.125,0.389,0.195,0.998,0.515,1.237c0.354,0.266,1.002,0.24,1.434,0.318
					c0.625,0.108,1.255,0.235,1.87,0.385c0.242,0.057,0.488-0.046,0.658-0.223c0.178-0.17,0.28-0.416,0.222-0.657
					c-0.149-0.615-0.277-1.244-0.384-1.87c-0.078-0.432-0.053-1.08-0.319-1.434c-0.239-0.319-0.847-0.39-1.237-0.514
					c-0.372-0.121-0.753-0.235-1.137-0.341c-0.379-0.101-0.764-0.197-1.152-0.291c-0.311-0.075-0.597,0.074-0.797,0.304
					l-0.001,0.001l-0.001,0.001c-0.23,0.2-0.379,0.486-0.304,0.797C15.657,54.422,15.753,54.807,15.854,55.186z M18.908,55.2
					c0.096,0.466,0.197,0.925,0.302,1.378c-0.453-0.104-0.913-0.206-1.378-0.302c-0.151-0.486-0.291-0.983-0.415-1.491
					C17.925,54.91,18.421,55.049,18.908,55.2z"/>
				
					<linearGradient id="SVGID_00000116212842651296349730000016940298551462450357_" gradientUnits="userSpaceOnUse" x1="-5.1791" y1="81.2191" x2="28.2707" y2="53.3868">
					<stop  offset="0" style="stop-color:#EACA83"/>
					<stop  offset="1" style="stop-color:#805937"/>
				</linearGradient>
				<path fill="url(#SVGID_00000116212842651296349730000016940298551462450357_)" d="M33.187,48.2
					c0.981-2.808,2.573-5.529,4.444-8.133l0.001,0.001l0.001-0.001c1.871,2.604,3.464,5.324,4.445,8.133
					c-0.742,0.862-1.435,1.747-2.074,2.65c0.959-0.354,1.91-0.657,2.849-0.9c0.099-0.11,0.198-0.222,0.298-0.329
					c0.428-0.464,0.838-0.727,0.805-1.339c-0.041-0.804-0.524-1.739-0.845-2.519c-0.353-0.886-0.756-1.782-1.207-2.644
					c-0.237-0.458-0.485-0.917-0.745-1.377c-0.26-0.457-0.53-0.9-0.809-1.35c-0.279-0.449-0.568-0.897-0.862-1.346
					c-0.295-0.439-0.596-0.877-0.903-1.316c-0.197-0.282-0.575-0.381-0.949-0.355h-0.002h-0.002
					c-0.374-0.025-0.752,0.073-0.949,0.355c-0.306,0.439-0.608,0.878-0.903,1.316c-0.295,0.449-0.583,0.897-0.862,1.346
					c-0.279,0.451-0.55,0.893-0.81,1.35c-0.259,0.459-0.508,0.918-0.744,1.377c-0.451,0.863-0.855,1.758-1.208,2.644
					c-0.321,0.781-0.804,1.715-0.845,2.519c-0.032,0.612,0.377,0.875,0.805,1.339c0.361,0.386,0.717,0.794,1.059,1.199
					c0.342,0.406,0.671,0.809,0.988,1.223c0.31,0.409,0.606,0.82,0.888,1.236c0.429-0.27,0.864-0.526,1.306-0.77
					C35.445,51.021,34.377,49.583,33.187,48.2z"/>
				
					<linearGradient id="SVGID_00000178180374546284479580000002397668165958996401_" gradientUnits="userSpaceOnUse" x1="-4.2092" y1="82.3849" x2="29.2406" y2="54.5526">
					<stop  offset="0" style="stop-color:#EACA83"/>
					<stop  offset="1" style="stop-color:#805937"/>
				</linearGradient>
				<path fill="url(#SVGID_00000178180374546284479580000002397668165958996401_)" d="M39.58,46.635
					c-0.356-0.707-0.755-1.384-1.171-2.063c-0.166-0.273-0.473-0.37-0.777-0.35h-0.001H37.63c-0.303-0.02-0.61,0.077-0.776,0.35
					c-0.416,0.68-0.815,1.357-1.17,2.063c-0.187,0.364-0.567,0.846-0.512,1.24c0.063,0.439,0.538,0.877,0.788,1.237
					c0.366,0.516,0.721,1.059,1.049,1.597c0.13,0.211,0.377,0.312,0.623,0.306c0.246,0.006,0.493-0.095,0.623-0.306
					c0.329-0.537,0.683-1.081,1.049-1.597c0.25-0.36,0.726-0.797,0.788-1.237C40.148,47.48,39.767,46.999,39.58,46.635z
					 M37.631,48.948c-0.246-0.394-0.499-0.79-0.759-1.187c0.237-0.451,0.489-0.902,0.759-1.349h0
					c0.271,0.447,0.523,0.897,0.759,1.349C38.131,48.158,37.878,48.554,37.631,48.948z"/>
			</g>
		</g>
		<g>
			<g>
				<path d="M231.312,33.849c-0.798-0.435-1.423-1.034-1.876-1.799c-0.453-0.766-0.679-1.629-0.679-2.591
					c0-0.961,0.229-1.824,0.686-2.59c0.458-0.765,1.085-1.365,1.883-1.799c0.798-0.434,1.692-0.651,2.681-0.651
					c0.803,0,1.535,0.141,2.198,0.421c0.663,0.279,1.223,0.686,1.68,1.218l-1.176,1.105c-0.71-0.765-1.582-1.147-2.618-1.147
					c-0.672,0-1.274,0.146-1.806,0.44s-0.948,0.703-1.246,1.226c-0.299,0.522-0.448,1.115-0.448,1.777
					c0,0.663,0.149,1.256,0.448,1.778c0.298,0.522,0.714,0.931,1.246,1.225c0.532,0.295,1.134,0.441,1.806,0.441
					c1.036,0,1.908-0.387,2.618-1.162l1.176,1.12c-0.458,0.532-1.02,0.938-1.688,1.218c-0.667,0.28-1.402,0.42-2.205,0.42
					C233.003,34.499,232.109,34.283,231.312,33.849z"/>
				<path d="M245.78,32.092h-4.9l-0.966,2.268h-1.876l4.41-9.8h1.792l4.424,9.8h-1.903L245.78,32.092z M245.179,30.663l-1.849-4.284
					l-1.834,4.284H245.179z"/>
				<path d="M249.91,24.56h1.82v8.26h5.124v1.54h-6.944V24.56z"/>
				<path d="M258.296,24.56h1.82v9.8h-1.82V24.56z"/>
				<path d="M271.47,24.56v9.8h-1.498l-5.404-6.636v6.636h-1.806v-9.8h1.498l5.404,6.636V24.56H271.47z"/>
				<path d="M274.949,34.178c-0.705-0.215-1.263-0.5-1.673-0.854l0.63-1.414c0.401,0.317,0.894,0.576,1.477,0.777
					c0.583,0.2,1.169,0.301,1.757,0.301c0.728,0,1.271-0.116,1.631-0.35c0.359-0.233,0.539-0.542,0.539-0.925
					c0-0.279-0.1-0.511-0.301-0.692c-0.2-0.183-0.455-0.324-0.763-0.427c-0.308-0.103-0.728-0.22-1.26-0.351
					c-0.747-0.177-1.351-0.354-1.813-0.532c-0.462-0.177-0.858-0.454-1.189-0.833c-0.332-0.378-0.497-0.889-0.497-1.532
					c0-0.542,0.146-1.034,0.441-1.478c0.294-0.443,0.737-0.795,1.33-1.057s1.318-0.393,2.177-0.393c0.597,0,1.185,0.075,1.764,0.225
					c0.578,0.149,1.078,0.364,1.498,0.644l-0.574,1.414c-0.43-0.252-0.877-0.443-1.344-0.574c-0.467-0.13-0.92-0.195-1.358-0.195
					c-0.719,0-1.253,0.121-1.603,0.363c-0.351,0.243-0.525,0.565-0.525,0.967c0,0.279,0.101,0.509,0.301,0.686
					c0.201,0.178,0.455,0.317,0.764,0.42c0.308,0.103,0.728,0.22,1.26,0.351c0.728,0.168,1.325,0.343,1.792,0.524
					c0.467,0.183,0.865,0.46,1.197,0.833c0.331,0.374,0.497,0.878,0.497,1.512c0,0.542-0.147,1.032-0.441,1.471
					s-0.74,0.788-1.337,1.05c-0.598,0.261-1.325,0.392-2.184,0.392C276.384,34.499,275.654,34.392,274.949,34.178z"/>
				<path d="M282.908,24.56h1.82v9.8h-1.82V24.56z"/>
				<path d="M293.73,32.092h-4.9l-0.966,2.268h-1.876l4.41-9.8h1.792l4.424,9.8h-1.904L293.73,32.092z M293.128,30.663l-1.848-4.284
					l-1.834,4.284H293.128z"/>
				<path d="M301.178,29.74h3.85v1.456h-3.85V29.74z"/>
				<path d="M318.217,25.959l-3.684,8.4h-1.188l-3.696-8.4h1.296l3.024,6.9l3.048-6.9H318.217z"/>
				<path d="M319.657,34.012c-0.504-0.28-0.898-0.666-1.182-1.158c-0.284-0.492-0.426-1.05-0.426-1.674s0.142-1.183,0.426-1.674
					c0.284-0.492,0.678-0.877,1.182-1.152c0.504-0.276,1.072-0.414,1.704-0.414s1.198,0.138,1.698,0.414
					c0.5,0.275,0.892,0.66,1.176,1.152c0.284,0.491,0.426,1.05,0.426,1.674s-0.142,1.182-0.426,1.674s-0.676,0.878-1.176,1.158
					c-0.5,0.279-1.066,0.42-1.698,0.42S320.161,34.291,319.657,34.012z M322.459,33.142c0.324-0.188,0.578-0.452,0.762-0.792
					c0.184-0.34,0.275-0.73,0.275-1.17c0-0.44-0.092-0.83-0.275-1.17c-0.185-0.34-0.438-0.603-0.762-0.786
					c-0.324-0.185-0.69-0.276-1.098-0.276s-0.774,0.092-1.098,0.276c-0.324,0.184-0.58,0.446-0.769,0.786
					c-0.188,0.34-0.282,0.729-0.282,1.17c0,0.439,0.094,0.83,0.282,1.17c0.188,0.34,0.444,0.604,0.769,0.792
					c0.324,0.188,0.689,0.282,1.098,0.282S322.136,33.329,322.459,33.142z"/>
				<path d="M329.833,33.988c-0.168,0.145-0.376,0.254-0.624,0.33s-0.504,0.114-0.768,0.114c-0.64,0-1.136-0.172-1.488-0.517
					c-0.352-0.344-0.528-0.836-0.528-1.476v-3.492h-1.08v-0.948h1.08v-1.392h1.152v1.392h1.824v0.948h-1.824v3.444
					c0,0.344,0.086,0.607,0.258,0.792c0.172,0.184,0.418,0.275,0.738,0.275c0.352,0,0.652-0.1,0.9-0.3L329.833,33.988z"/>
				<path d="M333.217,28.228c0.392-0.192,0.868-0.288,1.428-0.288v1.116c-0.064-0.008-0.152-0.013-0.264-0.013
					c-0.624,0-1.114,0.187-1.47,0.559c-0.356,0.372-0.534,0.902-0.534,1.59v3.168h-1.152v-6.36h1.104v1.068
					C332.529,28.7,332.825,28.419,333.217,28.228z"/>
				<path d="M341.725,31.564h-5.16c0.072,0.56,0.318,1.01,0.738,1.35c0.42,0.341,0.942,0.511,1.566,0.511
					c0.76,0,1.372-0.257,1.836-0.769l0.636,0.744c-0.288,0.336-0.646,0.592-1.074,0.768c-0.428,0.177-0.906,0.265-1.434,0.265
					c-0.672,0-1.268-0.139-1.788-0.414c-0.52-0.276-0.922-0.662-1.206-1.158s-0.426-1.056-0.426-1.68
					c0-0.616,0.138-1.172,0.414-1.668c0.276-0.496,0.656-0.883,1.14-1.158c0.484-0.276,1.03-0.414,1.638-0.414
					s1.15,0.138,1.626,0.414c0.476,0.275,0.848,0.662,1.116,1.158c0.269,0.496,0.402,1.063,0.402,1.704
					C341.749,31.304,341.741,31.419,341.725,31.564z M337.219,29.415c-0.372,0.336-0.59,0.776-0.654,1.32h4.08
					c-0.064-0.536-0.282-0.974-0.654-1.314c-0.372-0.34-0.834-0.51-1.386-0.51S337.591,29.079,337.219,29.415z"/>
				<path d="M352.297,31.564h-5.16c0.072,0.56,0.318,1.01,0.738,1.35c0.42,0.341,0.942,0.511,1.566,0.511
					c0.76,0,1.372-0.257,1.836-0.769l0.636,0.744c-0.288,0.336-0.646,0.592-1.074,0.768c-0.428,0.177-0.906,0.265-1.434,0.265
					c-0.672,0-1.269-0.139-1.788-0.414c-0.521-0.276-0.922-0.662-1.206-1.158c-0.284-0.496-0.426-1.056-0.426-1.68
					c0-0.616,0.138-1.172,0.414-1.668s0.656-0.883,1.14-1.158c0.484-0.276,1.03-0.414,1.638-0.414c0.608,0,1.15,0.138,1.626,0.414
					c0.476,0.275,0.848,0.662,1.116,1.158s0.402,1.063,0.402,1.704C352.321,31.304,352.313,31.419,352.297,31.564z M347.791,29.415
					c-0.372,0.336-0.59,0.776-0.654,1.32h4.08c-0.064-0.536-0.282-0.974-0.654-1.314c-0.372-0.34-0.834-0.51-1.386-0.51
					C348.625,28.912,348.163,29.079,347.791,29.415z"/>
				<path d="M354.241,34.222c-0.48-0.141-0.856-0.318-1.128-0.534l0.479-0.912c0.28,0.2,0.62,0.36,1.021,0.48
					c0.399,0.119,0.804,0.18,1.212,0.18c1.008,0,1.512-0.288,1.512-0.864c0-0.192-0.068-0.344-0.204-0.456
					c-0.136-0.111-0.306-0.193-0.51-0.246c-0.204-0.052-0.494-0.109-0.87-0.174c-0.512-0.08-0.93-0.172-1.254-0.276
					c-0.324-0.104-0.602-0.279-0.834-0.527c-0.232-0.248-0.348-0.596-0.348-1.044c0-0.576,0.24-1.038,0.72-1.387
					c0.479-0.348,1.124-0.521,1.932-0.521c0.424,0,0.848,0.052,1.272,0.156c0.424,0.104,0.771,0.244,1.044,0.42l-0.492,0.912
					c-0.521-0.336-1.132-0.504-1.836-0.504c-0.488,0-0.86,0.08-1.116,0.239c-0.256,0.16-0.384,0.372-0.384,0.637
					c0,0.208,0.072,0.371,0.216,0.491c0.144,0.12,0.322,0.208,0.534,0.265c0.212,0.056,0.51,0.12,0.894,0.191
					c0.512,0.089,0.926,0.183,1.242,0.282c0.316,0.101,0.586,0.271,0.81,0.51c0.224,0.24,0.336,0.576,0.336,1.009
					c0,0.575-0.246,1.033-0.738,1.373c-0.492,0.341-1.162,0.511-2.01,0.511C355.221,34.432,354.721,34.362,354.241,34.222z"/>
				<path d="M364.957,28.348c0.488,0.271,0.87,0.651,1.146,1.14s0.414,1.052,0.414,1.692c0,0.64-0.138,1.206-0.414,1.697
					c-0.276,0.492-0.658,0.875-1.146,1.146c-0.488,0.272-1.04,0.408-1.656,0.408c-0.456,0-0.874-0.088-1.254-0.265
					c-0.38-0.176-0.702-0.432-0.966-0.768v3.288h-1.152v-8.688h1.104v1.009c0.256-0.353,0.58-0.618,0.972-0.799
					c0.392-0.18,0.824-0.27,1.296-0.27C363.917,27.94,364.469,28.076,364.957,28.348z M364.303,33.142
					c0.324-0.188,0.58-0.452,0.768-0.792s0.282-0.73,0.282-1.17c0-0.44-0.094-0.83-0.282-1.17s-0.444-0.603-0.768-0.786
					c-0.324-0.185-0.69-0.276-1.098-0.276c-0.4,0-0.762,0.094-1.086,0.282c-0.324,0.188-0.58,0.45-0.769,0.786
					c-0.188,0.336-0.282,0.724-0.282,1.164c0,0.439,0.092,0.83,0.276,1.17c0.184,0.34,0.44,0.604,0.768,0.792
					c0.328,0.188,0.692,0.282,1.092,0.282C363.613,33.424,363.979,33.329,364.303,33.142z"/>
				<path d="M372.391,28.587c0.468,0.433,0.702,1.076,0.702,1.933v3.84h-1.092v-0.84c-0.192,0.296-0.466,0.521-0.822,0.678
					c-0.356,0.156-0.778,0.234-1.266,0.234c-0.712,0-1.282-0.172-1.71-0.517c-0.428-0.344-0.642-0.796-0.642-1.355
					c0-0.561,0.204-1.01,0.612-1.351c0.408-0.34,1.056-0.51,1.944-0.51h1.824v-0.228c0-0.496-0.144-0.876-0.432-1.141
					c-0.288-0.264-0.712-0.396-1.272-0.396c-0.376,0-0.744,0.062-1.104,0.186c-0.36,0.124-0.664,0.29-0.912,0.498l-0.479-0.863
					c0.328-0.265,0.72-0.467,1.176-0.606s0.94-0.21,1.452-0.21C371.249,27.94,371.923,28.156,372.391,28.587z M371.245,33.249
					c0.319-0.195,0.552-0.474,0.696-0.834v-0.888h-1.776c-0.977,0-1.464,0.328-1.464,0.984c0,0.319,0.124,0.571,0.372,0.756
					c0.248,0.184,0.592,0.275,1.032,0.275S370.925,33.446,371.245,33.249z"/>
				<path d="M376.303,34.012c-0.508-0.28-0.906-0.666-1.194-1.158s-0.432-1.05-0.432-1.674s0.144-1.183,0.432-1.674
					c0.288-0.492,0.686-0.877,1.194-1.152c0.508-0.276,1.086-0.414,1.734-0.414c0.576,0,1.09,0.116,1.542,0.348
					c0.452,0.232,0.802,0.568,1.05,1.008l-0.876,0.564c-0.2-0.304-0.448-0.532-0.744-0.684c-0.296-0.152-0.624-0.229-0.984-0.229
					c-0.416,0-0.79,0.092-1.122,0.276c-0.332,0.184-0.592,0.446-0.78,0.786s-0.282,0.729-0.282,1.17
					c0,0.448,0.094,0.842,0.282,1.182s0.448,0.603,0.78,0.786s0.706,0.276,1.122,0.276c0.36,0,0.688-0.076,0.984-0.229
					c0.296-0.151,0.544-0.38,0.744-0.684l0.876,0.552c-0.248,0.44-0.599,0.778-1.05,1.014c-0.452,0.236-0.966,0.354-1.542,0.354
					C377.389,34.432,376.811,34.291,376.303,34.012z"/>
				<path d="M387.745,31.564h-5.16c0.072,0.56,0.318,1.01,0.738,1.35c0.42,0.341,0.942,0.511,1.566,0.511
					c0.76,0,1.372-0.257,1.836-0.769l0.636,0.744c-0.288,0.336-0.646,0.592-1.074,0.768c-0.428,0.177-0.906,0.265-1.434,0.265
					c-0.672,0-1.268-0.139-1.788-0.414c-0.52-0.276-0.922-0.662-1.206-1.158c-0.284-0.496-0.426-1.056-0.426-1.68
					c0-0.616,0.138-1.172,0.414-1.668c0.276-0.496,0.656-0.883,1.14-1.158c0.484-0.276,1.03-0.414,1.638-0.414
					c0.607,0,1.149,0.138,1.626,0.414c0.476,0.275,0.848,0.662,1.116,1.158s0.402,1.063,0.402,1.704
					C387.769,31.304,387.761,31.419,387.745,31.564z M383.239,29.415c-0.372,0.336-0.59,0.776-0.654,1.32h4.08
					c-0.064-0.536-0.282-0.974-0.654-1.314c-0.372-0.34-0.834-0.51-1.386-0.51C384.073,28.912,383.61,29.079,383.239,29.415z"/>
				<path d="M397.621,28.348c0.487,0.271,0.87,0.651,1.146,1.14c0.276,0.488,0.414,1.052,0.414,1.692
					c0,0.64-0.138,1.206-0.414,1.697c-0.276,0.492-0.658,0.875-1.146,1.146c-0.488,0.272-1.041,0.408-1.656,0.408
					c-0.472,0-0.904-0.092-1.296-0.276c-0.393-0.184-0.716-0.452-0.972-0.804v1.008h-1.104v-8.904h1.152v3.504
					c0.256-0.336,0.576-0.59,0.96-0.762c0.384-0.172,0.804-0.258,1.26-0.258C396.581,27.94,397.133,28.076,397.621,28.348z
					 M396.967,33.142c0.324-0.188,0.58-0.452,0.768-0.792c0.188-0.34,0.282-0.73,0.282-1.17c0-0.44-0.094-0.83-0.282-1.17
					c-0.188-0.34-0.443-0.603-0.768-0.786c-0.324-0.185-0.69-0.276-1.098-0.276c-0.4,0-0.764,0.092-1.092,0.276
					c-0.328,0.184-0.584,0.446-0.768,0.786c-0.184,0.34-0.276,0.729-0.276,1.17c0,0.439,0.092,0.83,0.276,1.17
					c0.184,0.34,0.439,0.604,0.768,0.792c0.328,0.188,0.692,0.282,1.092,0.282C396.276,33.424,396.643,33.329,396.967,33.142z"/>
				<path d="M400.795,26.56c-0.148-0.145-0.223-0.32-0.223-0.528s0.074-0.386,0.223-0.534c0.147-0.147,0.333-0.222,0.558-0.222
					c0.224,0,0.41,0.07,0.558,0.21s0.222,0.314,0.222,0.522c0,0.216-0.074,0.397-0.222,0.546c-0.148,0.147-0.334,0.222-0.558,0.222
					C401.128,26.776,400.942,26.704,400.795,26.56z M400.776,27.999h1.152v6.36h-1.152V27.999z"/>
				<path d="M409.849,31.564h-5.16c0.072,0.56,0.318,1.01,0.738,1.35c0.42,0.341,0.941,0.511,1.565,0.511
					c0.76,0,1.372-0.257,1.836-0.769l0.636,0.744c-0.288,0.336-0.646,0.592-1.074,0.768c-0.428,0.177-0.906,0.265-1.434,0.265
					c-0.672,0-1.268-0.139-1.788-0.414c-0.52-0.276-0.922-0.662-1.206-1.158s-0.426-1.056-0.426-1.68
					c0-0.616,0.139-1.172,0.414-1.668c0.276-0.496,0.656-0.883,1.141-1.158c0.483-0.276,1.029-0.414,1.638-0.414
					c0.608,0,1.15,0.138,1.626,0.414c0.476,0.275,0.848,0.662,1.116,1.158c0.268,0.496,0.402,1.063,0.402,1.704
					C409.873,31.304,409.864,31.419,409.849,31.564z M405.343,29.415c-0.372,0.336-0.59,0.776-0.654,1.32h4.08
					c-0.064-0.536-0.282-0.974-0.654-1.314c-0.372-0.34-0.834-0.51-1.386-0.51S405.714,29.079,405.343,29.415z"/>
				<path d="M416.79,28.642c0.476,0.468,0.714,1.154,0.714,2.058v3.66h-1.152v-3.528c0-0.615-0.148-1.08-0.444-1.392
					c-0.296-0.312-0.72-0.468-1.271-0.468c-0.624,0-1.116,0.182-1.477,0.546c-0.359,0.364-0.54,0.886-0.54,1.565v3.276h-1.151v-6.36
					h1.104v0.96c0.232-0.327,0.546-0.579,0.942-0.756c0.396-0.176,0.846-0.264,1.35-0.264
					C415.672,27.94,416.314,28.174,416.79,28.642z"/>
				<path d="M419.232,30.568h3.228v0.996h-3.228V30.568z"/>
				<path d="M430.08,31.564h-5.16c0.072,0.56,0.318,1.01,0.738,1.35c0.42,0.341,0.942,0.511,1.566,0.511
					c0.76,0,1.372-0.257,1.836-0.769l0.636,0.744c-0.288,0.336-0.646,0.592-1.074,0.768c-0.428,0.177-0.906,0.265-1.434,0.265
					c-0.672,0-1.268-0.139-1.788-0.414c-0.52-0.276-0.922-0.662-1.206-1.158s-0.426-1.056-0.426-1.68
					c0-0.616,0.138-1.172,0.414-1.668c0.276-0.496,0.656-0.883,1.14-1.158c0.484-0.276,1.03-0.414,1.638-0.414
					s1.15,0.138,1.626,0.414c0.476,0.275,0.848,0.662,1.116,1.158c0.269,0.496,0.402,1.063,0.402,1.704
					C430.104,31.304,430.097,31.419,430.08,31.564z M428.053,27.076l-1.104-0.924l-1.104,0.924H424.8l1.596-1.56h1.104l1.596,1.56
					H428.053z M425.574,29.415c-0.372,0.336-0.59,0.776-0.654,1.32H429c-0.064-0.536-0.282-0.974-0.654-1.314
					c-0.372-0.34-0.834-0.51-1.386-0.51S425.946,29.079,425.574,29.415z"/>
				<path d="M435.276,33.988c-0.168,0.145-0.376,0.254-0.624,0.33s-0.504,0.114-0.768,0.114c-0.64,0-1.136-0.172-1.488-0.517
					c-0.353-0.344-0.528-0.836-0.528-1.476v-3.492h-1.08v-0.948h1.08v-1.392h1.152v1.392h1.824v0.948h-1.824v3.444
					c0,0.344,0.086,0.607,0.258,0.792c0.172,0.184,0.418,0.275,0.738,0.275c0.352,0,0.652-0.1,0.9-0.3L435.276,33.988z"/>
				<path d="M438.66,28.228c0.392-0.192,0.868-0.288,1.428-0.288v1.116c-0.064-0.008-0.152-0.013-0.264-0.013
					c-0.624,0-1.114,0.187-1.47,0.559c-0.356,0.372-0.534,0.902-0.534,1.59v3.168h-1.152v-6.36h1.104v1.068
					C437.972,28.7,438.268,28.419,438.66,28.228z"/>
				<path d="M447.168,31.564h-5.16c0.072,0.56,0.318,1.01,0.738,1.35c0.42,0.341,0.942,0.511,1.566,0.511
					c0.76,0,1.372-0.257,1.836-0.769l0.636,0.744c-0.288,0.336-0.646,0.592-1.074,0.768c-0.428,0.177-0.906,0.265-1.434,0.265
					c-0.672,0-1.269-0.139-1.788-0.414c-0.521-0.276-0.922-0.662-1.206-1.158c-0.284-0.496-0.426-1.056-0.426-1.68
					c0-0.616,0.138-1.172,0.414-1.668s0.656-0.883,1.14-1.158c0.484-0.276,1.03-0.414,1.638-0.414c0.608,0,1.15,0.138,1.626,0.414
					c0.476,0.275,0.848,0.662,1.116,1.158s0.402,1.063,0.402,1.704C447.192,31.304,447.184,31.419,447.168,31.564z M442.662,29.415
					c-0.372,0.336-0.59,0.776-0.654,1.32h4.08c-0.064-0.536-0.282-0.974-0.654-1.314c-0.372-0.34-0.834-0.51-1.386-0.51
					C443.496,28.912,443.034,29.079,442.662,29.415z"/>
				<path d="M230.019,52.162c-0.588-0.195-1.05-0.45-1.386-0.762l0.444-0.937c0.32,0.288,0.73,0.522,1.23,0.702
					c0.5,0.181,1.014,0.271,1.542,0.271c0.696,0,1.216-0.118,1.56-0.354c0.344-0.235,0.516-0.55,0.516-0.941
					c0-0.288-0.094-0.522-0.282-0.702s-0.42-0.318-0.696-0.414c-0.275-0.096-0.666-0.204-1.17-0.324
					c-0.632-0.151-1.142-0.304-1.53-0.456c-0.388-0.151-0.72-0.386-0.996-0.702c-0.276-0.315-0.414-0.741-0.414-1.277
					c0-0.448,0.118-0.853,0.354-1.212c0.236-0.36,0.594-0.648,1.074-0.864s1.076-0.324,1.788-0.324c0.496,0,0.984,0.064,1.464,0.192
					s0.892,0.312,1.236,0.552l-0.396,0.96c-0.352-0.224-0.728-0.394-1.128-0.51c-0.4-0.116-0.792-0.174-1.176-0.174
					c-0.68,0-1.19,0.124-1.53,0.372s-0.51,0.567-0.51,0.96c0,0.287,0.096,0.521,0.288,0.701c0.192,0.181,0.43,0.32,0.714,0.42
					c0.284,0.101,0.67,0.206,1.158,0.318c0.632,0.152,1.14,0.305,1.523,0.456c0.384,0.152,0.714,0.384,0.99,0.696
					c0.276,0.312,0.414,0.731,0.414,1.26c0,0.44-0.12,0.842-0.36,1.206s-0.604,0.652-1.092,0.864
					c-0.488,0.212-1.088,0.317-1.8,0.317C231.217,52.455,230.606,52.358,230.019,52.162z"/>
				<path d="M242.612,45.999v6.36h-1.092V51.4c-0.232,0.328-0.538,0.582-0.918,0.762c-0.38,0.181-0.794,0.271-1.242,0.271
					c-0.848,0-1.516-0.234-2.004-0.702s-0.732-1.158-0.732-2.07v-3.66h1.152v3.528c0,0.616,0.148,1.082,0.444,1.398
					c0.296,0.315,0.72,0.474,1.271,0.474c0.608,0,1.088-0.184,1.44-0.552c0.352-0.368,0.528-0.889,0.528-1.561v-3.288H242.612z"/>
				<path d="M244.826,44.56c-0.148-0.145-0.222-0.32-0.222-0.528s0.074-0.386,0.222-0.534c0.148-0.147,0.334-0.222,0.558-0.222
					s0.41,0.07,0.558,0.21c0.148,0.14,0.222,0.314,0.222,0.522c0,0.216-0.074,0.397-0.222,0.546
					c-0.148,0.147-0.334,0.222-0.558,0.222S244.975,44.704,244.826,44.56z M244.809,45.999h1.151v6.36h-1.151V45.999z"/>
				<path d="M251.732,51.988c-0.168,0.145-0.376,0.254-0.624,0.33s-0.504,0.114-0.769,0.114c-0.64,0-1.136-0.172-1.487-0.517
					c-0.353-0.344-0.528-0.836-0.528-1.476v-3.492h-1.08v-0.948h1.08v-1.392h1.152v1.392h1.824v0.948h-1.824v3.444
					c0,0.344,0.085,0.607,0.258,0.792c0.172,0.184,0.418,0.275,0.738,0.275c0.352,0,0.652-0.1,0.9-0.3L251.732,51.988z"/>
				<path d="M258.632,49.564h-5.16c0.072,0.56,0.318,1.01,0.738,1.35c0.42,0.341,0.942,0.511,1.566,0.511
					c0.76,0,1.372-0.257,1.836-0.769l0.636,0.744c-0.288,0.336-0.646,0.592-1.074,0.768c-0.428,0.177-0.906,0.265-1.434,0.265
					c-0.672,0-1.268-0.139-1.788-0.414c-0.52-0.276-0.922-0.662-1.206-1.158s-0.426-1.056-0.426-1.68
					c0-0.616,0.138-1.172,0.414-1.668c0.276-0.496,0.656-0.883,1.14-1.158c0.484-0.276,1.03-0.414,1.638-0.414
					c0.608,0,1.15,0.138,1.626,0.414c0.476,0.275,0.848,0.662,1.116,1.158c0.269,0.496,0.402,1.063,0.402,1.704
					C258.656,49.304,258.648,49.419,258.632,49.564z M254.126,47.415c-0.372,0.336-0.59,0.776-0.654,1.32h4.08
					c-0.064-0.536-0.282-0.974-0.654-1.314c-0.372-0.34-0.834-0.51-1.386-0.51C254.96,46.912,254.498,47.079,254.126,47.415z"/>
				<path d="M265.472,46.228c0.392-0.192,0.868-0.288,1.428-0.288v1.116c-0.064-0.008-0.152-0.013-0.264-0.013
					c-0.624,0-1.114,0.187-1.47,0.559s-0.534,0.902-0.534,1.59v3.168h-1.151v-6.36h1.104v1.068
					C264.784,46.7,265.08,46.419,265.472,46.228z"/>
				<path d="M269.276,52.012c-0.504-0.28-0.898-0.666-1.183-1.158c-0.284-0.492-0.426-1.05-0.426-1.674s0.142-1.183,0.426-1.674
					c0.284-0.492,0.678-0.877,1.183-1.152c0.504-0.276,1.071-0.414,1.704-0.414c0.632,0,1.198,0.138,1.698,0.414
					c0.5,0.275,0.893,0.66,1.176,1.152c0.284,0.491,0.426,1.05,0.426,1.674s-0.143,1.182-0.426,1.674s-0.676,0.878-1.176,1.158
					c-0.5,0.279-1.066,0.42-1.698,0.42C270.348,52.432,269.78,52.291,269.276,52.012z M272.078,51.142
					c0.324-0.188,0.578-0.452,0.762-0.792c0.184-0.34,0.276-0.73,0.276-1.17c0-0.44-0.092-0.83-0.276-1.17
					c-0.184-0.34-0.438-0.603-0.762-0.786c-0.324-0.185-0.69-0.276-1.098-0.276c-0.408,0-0.774,0.092-1.098,0.276
					c-0.324,0.184-0.58,0.446-0.768,0.786c-0.188,0.34-0.282,0.729-0.282,1.17c0,0.439,0.094,0.83,0.282,1.17
					c0.188,0.34,0.444,0.604,0.768,0.792c0.324,0.188,0.69,0.282,1.098,0.282C271.388,51.424,271.754,51.329,272.078,51.142z"/>
				<path d="M285.734,46.636c0.468,0.464,0.702,1.151,0.702,2.063v3.66h-1.152v-3.528c0-0.615-0.143-1.08-0.426-1.392
					c-0.284-0.312-0.69-0.468-1.218-0.468c-0.584,0-1.048,0.182-1.392,0.546c-0.344,0.364-0.516,0.886-0.516,1.565v3.276h-1.152
					v-3.528c0-0.615-0.143-1.08-0.426-1.392c-0.284-0.312-0.69-0.468-1.218-0.468c-0.584,0-1.048,0.182-1.392,0.546
					s-0.516,0.886-0.516,1.565v3.276h-1.152v-6.36h1.104v0.948c0.232-0.328,0.536-0.578,0.912-0.75s0.805-0.258,1.284-0.258
					c0.496,0,0.936,0.1,1.32,0.3c0.384,0.2,0.68,0.492,0.888,0.876c0.24-0.368,0.574-0.655,1.002-0.864
					c0.428-0.208,0.91-0.312,1.446-0.312C284.632,45.94,285.266,46.172,285.734,46.636z"/>
				<path d="M292.897,46.587c0.468,0.433,0.702,1.076,0.702,1.933v3.84h-1.092v-0.84c-0.192,0.296-0.466,0.521-0.822,0.678
					c-0.356,0.156-0.778,0.234-1.266,0.234c-0.712,0-1.282-0.172-1.71-0.517c-0.428-0.344-0.642-0.796-0.642-1.355
					c0-0.561,0.204-1.01,0.612-1.351c0.408-0.34,1.056-0.51,1.944-0.51h1.824v-0.228c0-0.496-0.144-0.876-0.432-1.141
					c-0.288-0.264-0.712-0.396-1.272-0.396c-0.376,0-0.744,0.062-1.104,0.186c-0.36,0.124-0.664,0.29-0.912,0.498l-0.479-0.863
					c0.328-0.265,0.72-0.467,1.176-0.606s0.94-0.21,1.452-0.21C291.756,45.94,292.43,46.156,292.897,46.587z M291.752,51.249
					c0.319-0.195,0.552-0.474,0.696-0.834v-0.888h-1.776c-0.977,0-1.464,0.328-1.464,0.984c0,0.319,0.124,0.571,0.372,0.756
					c0.248,0.184,0.592,0.275,1.032,0.275S291.432,51.446,291.752,51.249z"/>
				<path d="M301.058,46.642c0.476,0.468,0.714,1.154,0.714,2.058v3.66h-1.151v-3.528c0-0.615-0.148-1.08-0.444-1.392
					c-0.296-0.312-0.72-0.468-1.272-0.468c-0.624,0-1.116,0.182-1.476,0.546c-0.36,0.364-0.54,0.886-0.54,1.565v3.276h-1.152v-6.36
					h1.104v0.96c0.232-0.327,0.546-0.579,0.942-0.756c0.396-0.176,0.846-0.264,1.35-0.264
					C299.939,45.94,300.582,46.174,301.058,46.642z"/>
				<path d="M307.484,51.988c-0.168,0.145-0.376,0.254-0.624,0.33s-0.504,0.114-0.768,0.114c-0.64,0-1.136-0.172-1.488-0.517
					c-0.352-0.344-0.528-0.836-0.528-1.476v-3.492h-1.08v-0.948h1.08v-1.392h1.152v1.392h1.824v0.948h-1.824v3.444
					c0,0.344,0.085,0.607,0.258,0.792c0.172,0.184,0.418,0.275,0.738,0.275c0.353,0,0.652-0.1,0.9-0.3L307.484,51.988z"/>
				<path d="M308.894,44.56c-0.148-0.145-0.222-0.32-0.222-0.528s0.074-0.386,0.222-0.534c0.148-0.147,0.334-0.222,0.558-0.222
					s0.41,0.07,0.558,0.21c0.148,0.14,0.222,0.314,0.222,0.522c0,0.216-0.074,0.397-0.222,0.546
					c-0.148,0.147-0.334,0.222-0.558,0.222S309.042,44.704,308.894,44.56z M308.876,45.999h1.151v6.36h-1.151V45.999z"/>
				<path d="M318.224,45.999v8.688h-1.152V51.4c-0.264,0.336-0.586,0.592-0.966,0.768c-0.38,0.177-0.798,0.265-1.254,0.265
					c-0.616,0-1.168-0.136-1.656-0.408c-0.488-0.271-0.87-0.654-1.146-1.146c-0.276-0.491-0.414-1.058-0.414-1.697
					c0-0.641,0.138-1.204,0.414-1.692c0.276-0.488,0.658-0.868,1.146-1.14c0.488-0.272,1.04-0.408,1.656-0.408
					c0.472,0,0.904,0.09,1.296,0.27c0.392,0.181,0.716,0.446,0.972,0.799v-1.009H318.224z M316.04,51.142
					c0.328-0.188,0.584-0.452,0.768-0.792c0.184-0.34,0.276-0.73,0.276-1.17c0-0.44-0.094-0.828-0.282-1.164
					c-0.188-0.336-0.444-0.599-0.768-0.786c-0.324-0.188-0.686-0.282-1.086-0.282c-0.408,0-0.773,0.092-1.098,0.276
					c-0.324,0.184-0.58,0.446-0.768,0.786s-0.282,0.729-0.282,1.17c0,0.439,0.094,0.83,0.282,1.17s0.444,0.604,0.768,0.792
					c0.324,0.188,0.69,0.282,1.098,0.282C315.348,51.424,315.711,51.329,316.04,51.142z"/>
				<path d="M326.335,45.999v6.36h-1.092V51.4c-0.232,0.328-0.538,0.582-0.918,0.762c-0.38,0.181-0.794,0.271-1.242,0.271
					c-0.848,0-1.516-0.234-2.004-0.702c-0.488-0.468-0.731-1.158-0.731-2.07v-3.66h1.152v3.528c0,0.616,0.148,1.082,0.444,1.398
					c0.296,0.315,0.72,0.474,1.272,0.474c0.608,0,1.088-0.184,1.44-0.552s0.528-0.889,0.528-1.561v-3.288H326.335z"/>
				<path d="M334.255,49.564h-5.16c0.072,0.56,0.318,1.01,0.738,1.35c0.42,0.341,0.942,0.511,1.566,0.511
					c0.76,0,1.372-0.257,1.836-0.769l0.636,0.744c-0.288,0.336-0.646,0.592-1.074,0.768c-0.428,0.177-0.906,0.265-1.434,0.265
					c-0.672,0-1.268-0.139-1.788-0.414c-0.52-0.276-0.922-0.662-1.206-1.158s-0.426-1.056-0.426-1.68
					c0-0.616,0.138-1.172,0.414-1.668c0.276-0.496,0.656-0.883,1.14-1.158c0.484-0.276,1.03-0.414,1.638-0.414
					s1.15,0.138,1.626,0.414c0.476,0.275,0.848,0.662,1.116,1.158c0.269,0.496,0.402,1.063,0.402,1.704
					C334.279,49.304,334.271,49.419,334.255,49.564z M329.749,47.415c-0.372,0.336-0.59,0.776-0.654,1.32h4.08
					c-0.064-0.536-0.282-0.974-0.654-1.314c-0.372-0.34-0.834-0.51-1.386-0.51S330.121,47.079,329.749,47.415z"/>
				<path d="M343.441,46.587c0.468,0.433,0.702,1.076,0.702,1.933v3.84h-1.092v-0.84c-0.192,0.296-0.466,0.521-0.822,0.678
					c-0.356,0.156-0.778,0.234-1.267,0.234c-0.712,0-1.282-0.172-1.71-0.517c-0.428-0.344-0.642-0.796-0.642-1.355
					c0-0.561,0.204-1.01,0.612-1.351c0.408-0.34,1.056-0.51,1.944-0.51h1.824v-0.228c0-0.496-0.144-0.876-0.432-1.141
					c-0.288-0.264-0.712-0.396-1.272-0.396c-0.376,0-0.744,0.062-1.104,0.186c-0.36,0.124-0.665,0.29-0.912,0.498l-0.48-0.863
					c0.328-0.265,0.72-0.467,1.176-0.606s0.94-0.21,1.452-0.21C342.299,45.94,342.973,46.156,343.441,46.587z M339.307,43.516h1.464
					l1.632,1.56h-1.08L339.307,43.516z M342.295,51.249c0.32-0.195,0.552-0.474,0.696-0.834v-0.888h-1.776
					c-0.976,0-1.464,0.328-1.464,0.984c0,0.319,0.124,0.571,0.372,0.756c0.248,0.184,0.592,0.275,1.032,0.275
					C341.595,51.543,341.975,51.446,342.295,51.249z"/>
				<path d="M356.899,43.959v8.4h-0.984l-5.04-6.264v6.264h-1.2v-8.4h0.984l5.04,6.265v-6.265H356.899z"/>
				<path d="M363.589,46.587c0.468,0.433,0.702,1.076,0.702,1.933v3.84h-1.092v-0.84c-0.192,0.296-0.466,0.521-0.822,0.678
					c-0.356,0.156-0.778,0.234-1.266,0.234c-0.712,0-1.282-0.172-1.71-0.517c-0.428-0.344-0.642-0.796-0.642-1.355
					c0-0.561,0.204-1.01,0.612-1.351c0.408-0.34,1.056-0.51,1.944-0.51h1.824v-0.228c0-0.496-0.144-0.876-0.432-1.141
					c-0.288-0.264-0.712-0.396-1.272-0.396c-0.376,0-0.744,0.062-1.104,0.186c-0.36,0.124-0.664,0.29-0.912,0.498l-0.479-0.863
					c0.328-0.265,0.72-0.467,1.176-0.606s0.94-0.21,1.452-0.21C362.447,45.94,363.121,46.156,363.589,46.587z M362.443,51.249
					c0.319-0.195,0.552-0.474,0.696-0.834v-0.888h-1.776c-0.977,0-1.464,0.328-1.464,0.984c0,0.319,0.124,0.571,0.372,0.756
					c0.248,0.184,0.592,0.275,1.032,0.275S362.123,51.446,362.443,51.249z"/>
				<path d="M371.749,46.642c0.476,0.468,0.714,1.154,0.714,2.058v3.66h-1.152v-3.528c0-0.615-0.148-1.08-0.444-1.392
					c-0.296-0.312-0.72-0.468-1.272-0.468c-0.624,0-1.116,0.182-1.476,0.546c-0.36,0.364-0.54,0.886-0.54,1.565v3.276h-1.152v-6.36
					h1.104v0.96c0.231-0.327,0.546-0.579,0.941-0.756c0.396-0.176,0.846-0.264,1.351-0.264
					C370.631,45.94,371.273,46.174,371.749,46.642z"/>
				<path d="M378.175,51.988c-0.168,0.145-0.376,0.254-0.624,0.33s-0.504,0.114-0.768,0.114c-0.64,0-1.136-0.172-1.488-0.517
					c-0.353-0.344-0.528-0.836-0.528-1.476v-3.492h-1.08v-0.948h1.08v-1.392h1.152v1.392h1.824v0.948h-1.824v3.444
					c0,0.344,0.086,0.607,0.258,0.792c0.172,0.184,0.418,0.275,0.738,0.275c0.352,0,0.652-0.1,0.9-0.3L378.175,51.988z"/>
				<path d="M385.075,49.564h-5.16c0.072,0.56,0.318,1.01,0.738,1.35c0.42,0.341,0.942,0.511,1.566,0.511
					c0.76,0,1.372-0.257,1.836-0.769l0.636,0.744c-0.288,0.336-0.646,0.592-1.074,0.768c-0.428,0.177-0.906,0.265-1.434,0.265
					c-0.672,0-1.268-0.139-1.788-0.414c-0.52-0.276-0.922-0.662-1.206-1.158c-0.284-0.496-0.426-1.056-0.426-1.68
					c0-0.616,0.138-1.172,0.414-1.668c0.276-0.496,0.656-0.883,1.14-1.158c0.484-0.276,1.03-0.414,1.638-0.414
					c0.607,0,1.149,0.138,1.626,0.414c0.476,0.275,0.848,0.662,1.116,1.158s0.402,1.063,0.402,1.704
					C385.099,49.304,385.091,49.419,385.075,49.564z M380.569,47.415c-0.372,0.336-0.59,0.776-0.654,1.32h4.08
					c-0.064-0.536-0.282-0.974-0.654-1.314c-0.372-0.34-0.834-0.51-1.386-0.51C381.403,46.912,380.94,47.079,380.569,47.415z"/>
				<path d="M387.019,52.222c-0.48-0.141-0.856-0.318-1.128-0.534l0.48-0.912c0.28,0.2,0.62,0.36,1.02,0.48
					c0.4,0.119,0.804,0.18,1.212,0.18c1.008,0,1.512-0.288,1.512-0.864c0-0.192-0.068-0.344-0.204-0.456
					c-0.136-0.111-0.306-0.193-0.51-0.246c-0.204-0.052-0.494-0.109-0.87-0.174c-0.512-0.08-0.93-0.172-1.254-0.276
					c-0.324-0.104-0.603-0.279-0.834-0.527c-0.232-0.248-0.349-0.596-0.349-1.044c0-0.576,0.24-1.038,0.72-1.387
					c0.48-0.348,1.124-0.521,1.932-0.521c0.424,0,0.848,0.052,1.272,0.156c0.424,0.104,0.772,0.244,1.044,0.42l-0.492,0.912
					c-0.521-0.336-1.132-0.504-1.836-0.504c-0.488,0-0.86,0.08-1.116,0.239c-0.256,0.16-0.384,0.372-0.384,0.637
					c0,0.208,0.072,0.371,0.216,0.491c0.144,0.12,0.322,0.208,0.534,0.265c0.212,0.056,0.51,0.12,0.894,0.191
					c0.512,0.089,0.926,0.183,1.242,0.282c0.316,0.101,0.586,0.271,0.81,0.51c0.224,0.24,0.336,0.576,0.336,1.009
					c0,0.575-0.246,1.033-0.738,1.373c-0.492,0.341-1.162,0.511-2.01,0.511C387.999,52.432,387.499,52.362,387.019,52.222z"/>
				<path d="M238.856,81.999l-2.376,6.36h-1.104l-1.836-4.824l-1.86,4.824h-1.104l-2.364-6.36h1.092l1.848,5.064l1.92-5.064h0.973
					l1.884,5.088l1.896-5.088H238.856z"/>
				<path d="M249.549,81.999l-2.376,6.36h-1.104l-1.836-4.824l-1.86,4.824h-1.104l-2.364-6.36h1.092l1.848,5.064l1.92-5.064h0.972
					l1.884,5.088l1.896-5.088H249.549z"/>
				<path d="M260.24,81.999l-2.376,6.36h-1.104l-1.836-4.824l-1.86,4.824h-1.104l-2.364-6.36h1.092l1.848,5.064l1.92-5.064h0.973
					l1.884,5.088l1.896-5.088H260.24z"/>
				<path d="M260.708,88.198c-0.16-0.156-0.24-0.354-0.24-0.594c0-0.232,0.08-0.426,0.24-0.582c0.16-0.156,0.352-0.234,0.576-0.234
					c0.224,0,0.412,0.076,0.564,0.229c0.152,0.151,0.228,0.348,0.228,0.588s-0.078,0.438-0.233,0.594
					c-0.156,0.156-0.342,0.234-0.559,0.234C261.061,88.432,260.868,88.354,260.708,88.198z"/>
				<path d="M264.626,88.012c-0.508-0.28-0.905-0.666-1.193-1.158S263,85.804,263,85.18s0.145-1.183,0.433-1.674
					c0.288-0.492,0.686-0.877,1.193-1.152c0.508-0.276,1.086-0.414,1.734-0.414c0.576,0,1.09,0.116,1.542,0.348
					c0.452,0.232,0.802,0.568,1.05,1.008l-0.876,0.564c-0.2-0.304-0.448-0.532-0.744-0.684c-0.296-0.152-0.624-0.229-0.983-0.229
					c-0.416,0-0.791,0.092-1.122,0.276c-0.332,0.184-0.592,0.446-0.78,0.786s-0.282,0.729-0.282,1.17
					c0,0.448,0.094,0.842,0.282,1.182s0.448,0.603,0.78,0.786c0.332,0.184,0.706,0.276,1.122,0.276c0.359,0,0.688-0.076,0.983-0.229
					c0.296-0.151,0.544-0.38,0.744-0.684l0.876,0.552c-0.248,0.44-0.598,0.778-1.05,1.014c-0.452,0.236-0.966,0.354-1.542,0.354
					C265.712,88.432,265.134,88.291,264.626,88.012z"/>
				<path d="M274.778,82.587c0.468,0.433,0.702,1.076,0.702,1.933v3.84h-1.092v-0.84c-0.192,0.296-0.466,0.521-0.822,0.678
					c-0.356,0.156-0.778,0.234-1.266,0.234c-0.712,0-1.282-0.172-1.71-0.517c-0.428-0.344-0.642-0.796-0.642-1.355
					c0-0.561,0.204-1.01,0.612-1.351c0.408-0.34,1.056-0.51,1.944-0.51h1.824v-0.228c0-0.496-0.144-0.876-0.432-1.141
					c-0.288-0.264-0.712-0.396-1.272-0.396c-0.376,0-0.744,0.062-1.104,0.186c-0.36,0.124-0.664,0.29-0.912,0.498l-0.48-0.863
					c0.328-0.265,0.72-0.467,1.176-0.606s0.939-0.21,1.452-0.21C273.636,81.94,274.311,82.156,274.778,82.587z M273.632,87.249
					c0.32-0.195,0.552-0.474,0.696-0.834v-0.888h-1.775c-0.977,0-1.464,0.328-1.464,0.984c0,0.319,0.124,0.571,0.372,0.756
					c0.248,0.184,0.592,0.275,1.032,0.275C272.933,87.543,273.312,87.446,273.632,87.249z"/>
				<path d="M277.616,79.455h1.152v8.904h-1.152V79.455z"/>
				<path d="M280.982,80.56c-0.148-0.145-0.223-0.32-0.223-0.528s0.074-0.386,0.223-0.534c0.147-0.147,0.333-0.222,0.558-0.222
					c0.224,0,0.41,0.07,0.558,0.21s0.222,0.314,0.222,0.522c0,0.216-0.074,0.397-0.222,0.546c-0.148,0.147-0.334,0.222-0.558,0.222
					C281.316,80.776,281.13,80.704,280.982,80.56z M280.964,81.999h1.152v6.36h-1.152V81.999z"/>
				<path d="M289.634,82.642c0.476,0.468,0.714,1.154,0.714,2.058v3.66h-1.151v-3.528c0-0.615-0.148-1.08-0.444-1.392
					c-0.296-0.312-0.72-0.468-1.272-0.468c-0.624,0-1.116,0.182-1.476,0.546c-0.36,0.364-0.54,0.886-0.54,1.565v3.276h-1.152v-6.36
					h1.104v0.96c0.232-0.327,0.546-0.579,0.942-0.756c0.396-0.176,0.846-0.264,1.35-0.264
					C288.516,81.94,289.158,82.174,289.634,82.642z"/>
				<path d="M292.808,88.222c-0.48-0.141-0.856-0.318-1.128-0.534l0.48-0.912c0.28,0.2,0.62,0.36,1.02,0.48
					c0.4,0.119,0.804,0.18,1.212,0.18c1.008,0,1.512-0.288,1.512-0.864c0-0.192-0.068-0.344-0.204-0.456
					c-0.136-0.111-0.306-0.193-0.51-0.246c-0.204-0.052-0.494-0.109-0.87-0.174c-0.512-0.08-0.93-0.172-1.254-0.276
					c-0.324-0.104-0.603-0.279-0.834-0.527c-0.232-0.248-0.349-0.596-0.349-1.044c0-0.576,0.24-1.038,0.72-1.387
					c0.48-0.348,1.124-0.521,1.932-0.521c0.424,0,0.848,0.052,1.272,0.156c0.424,0.104,0.772,0.244,1.044,0.42l-0.492,0.912
					c-0.521-0.336-1.132-0.504-1.836-0.504c-0.488,0-0.86,0.08-1.116,0.239c-0.256,0.16-0.384,0.372-0.384,0.637
					c0,0.208,0.072,0.371,0.216,0.491c0.144,0.12,0.322,0.208,0.534,0.265c0.212,0.056,0.51,0.12,0.894,0.191
					c0.512,0.089,0.926,0.183,1.242,0.282c0.316,0.101,0.586,0.271,0.81,0.51c0.224,0.24,0.336,0.576,0.336,1.009
					c0,0.575-0.246,1.033-0.738,1.373c-0.492,0.341-1.162,0.511-2.01,0.511C293.788,88.432,293.288,88.362,292.808,88.222z"/>
				<path d="M298.514,80.56c-0.148-0.145-0.222-0.32-0.222-0.528s0.074-0.386,0.222-0.534c0.148-0.147,0.334-0.222,0.558-0.222
					s0.41,0.07,0.558,0.21c0.148,0.14,0.222,0.314,0.222,0.522c0,0.216-0.074,0.397-0.222,0.546
					c-0.148,0.147-0.334,0.222-0.558,0.222S298.662,80.704,298.514,80.56z M298.496,81.999h1.151v6.36h-1.151V81.999z"/>
				<path d="M306.182,82.587c0.468,0.433,0.702,1.076,0.702,1.933v3.84h-1.092v-0.84c-0.192,0.296-0.466,0.521-0.822,0.678
					c-0.356,0.156-0.778,0.234-1.266,0.234c-0.712,0-1.282-0.172-1.71-0.517c-0.428-0.344-0.642-0.796-0.642-1.355
					c0-0.561,0.204-1.01,0.612-1.351c0.408-0.34,1.056-0.51,1.944-0.51h1.824v-0.228c0-0.496-0.144-0.876-0.432-1.141
					c-0.288-0.264-0.712-0.396-1.272-0.396c-0.376,0-0.744,0.062-1.104,0.186c-0.36,0.124-0.664,0.29-0.912,0.498l-0.479-0.863
					c0.328-0.265,0.72-0.467,1.176-0.606s0.94-0.21,1.452-0.21C305.04,81.94,305.714,82.156,306.182,82.587z M305.036,87.249
					c0.319-0.195,0.552-0.474,0.696-0.834v-0.888h-1.776c-0.977,0-1.464,0.328-1.464,0.984c0,0.319,0.124,0.571,0.372,0.756
					c0.248,0.184,0.592,0.275,1.032,0.275S304.716,87.446,305.036,87.249z"/>
				<path d="M308.72,88.198c-0.16-0.156-0.24-0.354-0.24-0.594c0-0.232,0.08-0.426,0.24-0.582s0.352-0.234,0.576-0.234
					c0.224,0,0.412,0.076,0.563,0.229c0.152,0.151,0.229,0.348,0.229,0.588s-0.078,0.438-0.234,0.594
					c-0.156,0.156-0.342,0.234-0.558,0.234C309.072,88.432,308.88,88.354,308.72,88.198z"/>
				<path d="M313.04,81.448v0.552h1.848v0.948h-1.824v5.412h-1.152v-5.412h-1.08v-0.948h1.08v-0.563c0-0.632,0.184-1.132,0.552-1.5
					c0.368-0.368,0.884-0.552,1.548-0.552c0.256,0,0.496,0.031,0.72,0.096c0.224,0.064,0.416,0.156,0.576,0.276l-0.348,0.876
					c-0.265-0.2-0.561-0.301-0.889-0.301C313.384,80.331,313.04,80.704,313.04,81.448z"/>
				<path d="M318.932,82.228c0.392-0.192,0.868-0.288,1.428-0.288v1.116c-0.064-0.008-0.152-0.013-0.264-0.013
					c-0.624,0-1.114,0.187-1.47,0.559s-0.534,0.902-0.534,1.59v3.168h-1.152v-6.36h1.104v1.068
					C318.243,82.7,318.539,82.419,318.932,82.228z"/>
				<path d="M230.27,106.012c-0.508-0.28-0.906-0.666-1.194-1.158s-0.432-1.05-0.432-1.674s0.144-1.183,0.432-1.674
					c0.288-0.492,0.686-0.877,1.194-1.152c0.508-0.276,1.086-0.414,1.734-0.414c0.576,0,1.09,0.116,1.542,0.348
					c0.452,0.232,0.802,0.568,1.05,1.008l-0.876,0.564c-0.2-0.304-0.448-0.532-0.744-0.684c-0.296-0.152-0.624-0.229-0.984-0.229
					c-0.416,0-0.791,0.092-1.122,0.276c-0.332,0.184-0.592,0.446-0.78,0.786c-0.188,0.34-0.282,0.729-0.282,1.17
					c0,0.448,0.094,0.842,0.282,1.182c0.188,0.34,0.448,0.603,0.78,0.786c0.332,0.184,0.706,0.276,1.122,0.276
					c0.36,0,0.688-0.076,0.984-0.229c0.296-0.151,0.544-0.38,0.744-0.684l0.876,0.552c-0.248,0.44-0.598,0.778-1.05,1.014
					c-0.452,0.236-0.966,0.354-1.542,0.354C231.356,106.432,230.778,106.291,230.27,106.012z"/>
				<path d="M237.009,106.012c-0.504-0.28-0.898-0.666-1.182-1.158s-0.426-1.05-0.426-1.674s0.143-1.183,0.426-1.674
					c0.284-0.492,0.678-0.877,1.182-1.152c0.504-0.276,1.072-0.414,1.704-0.414c0.632,0,1.198,0.138,1.698,0.414
					c0.5,0.275,0.892,0.66,1.176,1.152c0.284,0.491,0.426,1.05,0.426,1.674s-0.142,1.182-0.426,1.674
					c-0.284,0.492-0.676,0.878-1.176,1.158c-0.5,0.279-1.066,0.42-1.698,0.42C238.081,106.432,237.513,106.291,237.009,106.012z
					 M239.811,105.142c0.324-0.188,0.578-0.452,0.762-0.792s0.276-0.73,0.276-1.17c0-0.44-0.092-0.83-0.276-1.17
					s-0.438-0.603-0.762-0.786c-0.324-0.185-0.689-0.276-1.098-0.276s-0.774,0.092-1.098,0.276c-0.324,0.184-0.58,0.446-0.768,0.786
					s-0.282,0.729-0.282,1.17c0,0.439,0.094,0.83,0.282,1.17s0.444,0.604,0.768,0.792c0.324,0.188,0.69,0.282,1.098,0.282
					S239.487,105.329,239.811,105.142z"/>
				<path d="M248.931,100.642c0.476,0.468,0.714,1.154,0.714,2.058v3.66h-1.152v-3.528c0-0.615-0.148-1.08-0.444-1.392
					c-0.296-0.312-0.72-0.468-1.272-0.468c-0.624,0-1.116,0.182-1.476,0.546c-0.36,0.364-0.54,0.886-0.54,1.565v3.276h-1.152v-6.36
					h1.104v0.96c0.231-0.327,0.546-0.579,0.941-0.756c0.396-0.176,0.846-0.264,1.351-0.264
					C247.812,99.94,248.455,100.174,248.931,100.642z"/>
				<path d="M255.356,105.988c-0.168,0.145-0.376,0.254-0.624,0.33s-0.504,0.114-0.768,0.114c-0.64,0-1.136-0.172-1.488-0.517
					c-0.353-0.344-0.528-0.836-0.528-1.476v-3.492h-1.08v-0.948h1.08v-1.392h1.152v1.392h1.824v0.948h-1.824v3.444
					c0,0.344,0.086,0.607,0.258,0.792c0.172,0.184,0.418,0.275,0.738,0.275c0.352,0,0.652-0.1,0.9-0.3L255.356,105.988z"/>
				<path d="M261.086,100.587c0.468,0.433,0.702,1.076,0.702,1.933v3.84h-1.092v-0.84c-0.192,0.296-0.466,0.521-0.822,0.678
					s-0.778,0.234-1.266,0.234c-0.712,0-1.282-0.172-1.71-0.517c-0.428-0.344-0.642-0.796-0.642-1.355
					c0-0.561,0.204-1.01,0.611-1.351c0.408-0.34,1.057-0.51,1.944-0.51h1.824v-0.228c0-0.496-0.145-0.876-0.432-1.141
					c-0.288-0.264-0.712-0.396-1.272-0.396c-0.376,0-0.744,0.062-1.104,0.186s-0.665,0.29-0.912,0.498l-0.48-0.863
					c0.328-0.265,0.72-0.467,1.176-0.606s0.94-0.21,1.452-0.21C259.944,99.94,260.618,100.156,261.086,100.587z M259.94,105.249
					c0.32-0.195,0.552-0.474,0.696-0.834v-0.888h-1.776c-0.976,0-1.464,0.328-1.464,0.984c0,0.319,0.124,0.571,0.372,0.756
					c0.248,0.184,0.592,0.275,1.032,0.275C259.24,105.543,259.62,105.446,259.94,105.249z"/>
				<path d="M264.998,106.012c-0.508-0.28-0.906-0.666-1.194-1.158s-0.432-1.05-0.432-1.674s0.144-1.183,0.432-1.674
					c0.288-0.492,0.686-0.877,1.194-1.152c0.508-0.276,1.086-0.414,1.734-0.414c0.576,0,1.09,0.116,1.542,0.348
					c0.452,0.232,0.802,0.568,1.05,1.008l-0.876,0.564c-0.2-0.304-0.448-0.532-0.744-0.684c-0.296-0.152-0.624-0.229-0.984-0.229
					c-0.416,0-0.791,0.092-1.122,0.276c-0.332,0.184-0.592,0.446-0.78,0.786c-0.188,0.34-0.282,0.729-0.282,1.17
					c0,0.448,0.094,0.842,0.282,1.182c0.188,0.34,0.448,0.603,0.78,0.786c0.332,0.184,0.706,0.276,1.122,0.276
					c0.36,0,0.688-0.076,0.984-0.229c0.296-0.151,0.544-0.38,0.744-0.684l0.876,0.552c-0.248,0.44-0.598,0.778-1.05,1.014
					c-0.452,0.236-0.966,0.354-1.542,0.354C266.084,106.432,265.506,106.291,264.998,106.012z"/>
				<path d="M274.472,105.988c-0.168,0.145-0.376,0.254-0.624,0.33s-0.504,0.114-0.768,0.114c-0.64,0-1.136-0.172-1.488-0.517
					c-0.352-0.344-0.528-0.836-0.528-1.476v-3.492h-1.08v-0.948h1.08v-1.392h1.152v1.392h1.824v0.948h-1.824v3.444
					c0,0.344,0.085,0.607,0.258,0.792c0.172,0.184,0.418,0.275,0.738,0.275c0.353,0,0.652-0.1,0.9-0.3L274.472,105.988z"/>
				<path d="M283.904,98.541c0.848,0.444,1.51,1.066,1.985,1.866c0.477,0.8,0.714,1.712,0.714,2.736s-0.188,1.828-0.564,2.412
					s-0.9,0.876-1.572,0.876c-0.384,0-0.702-0.098-0.954-0.294s-0.414-0.479-0.485-0.847c-0.24,0.368-0.555,0.65-0.942,0.847
					c-0.388,0.196-0.834,0.294-1.338,0.294c-0.56,0-1.064-0.132-1.512-0.396c-0.448-0.264-0.798-0.63-1.05-1.098
					s-0.378-0.998-0.378-1.59c0-0.584,0.126-1.11,0.378-1.578s0.602-0.832,1.05-1.092c0.447-0.26,0.952-0.391,1.512-0.391
					c0.464,0,0.884,0.086,1.26,0.258c0.376,0.173,0.688,0.427,0.937,0.763v-0.973h1.044v4.32c0,0.296,0.063,0.515,0.191,0.654
					s0.292,0.21,0.492,0.21c0.352,0,0.626-0.206,0.822-0.618c0.196-0.412,0.294-0.994,0.294-1.746c0-0.888-0.2-1.67-0.6-2.346
					s-0.962-1.202-1.686-1.578c-0.724-0.376-1.554-0.564-2.49-0.564c-0.944,0-1.778,0.196-2.502,0.589
					c-0.724,0.392-1.286,0.939-1.686,1.644c-0.4,0.704-0.601,1.508-0.601,2.412c0,0.912,0.198,1.72,0.594,2.424
					s0.952,1.254,1.668,1.65c0.716,0.396,1.542,0.594,2.478,0.594c0.392,0,0.792-0.044,1.2-0.132
					c0.408-0.089,0.78-0.221,1.116-0.396l0.264,0.769c-0.352,0.184-0.76,0.323-1.224,0.42c-0.464,0.096-0.917,0.144-1.356,0.144
					c-1.096,0-2.07-0.233-2.922-0.702c-0.852-0.468-1.514-1.118-1.986-1.949c-0.472-0.832-0.708-1.772-0.708-2.82
					s0.238-1.984,0.714-2.809c0.476-0.823,1.144-1.468,2.004-1.932s1.842-0.696,2.946-0.696
					C282.092,97.875,283.056,98.098,283.904,98.541z M281.966,105.232c0.308-0.176,0.552-0.426,0.732-0.75
					c0.18-0.324,0.27-0.702,0.27-1.134c0-0.433-0.09-0.811-0.27-1.135c-0.18-0.323-0.424-0.571-0.732-0.743
					c-0.308-0.172-0.658-0.259-1.05-0.259c-0.608,0-1.1,0.194-1.476,0.582c-0.376,0.389-0.564,0.906-0.564,1.555
					c0,0.647,0.19,1.168,0.57,1.56c0.38,0.393,0.87,0.588,1.47,0.588C281.308,105.495,281.658,105.408,281.966,105.232z"/>
				<path d="M289.31,106.012c-0.508-0.28-0.905-0.666-1.193-1.158s-0.433-1.05-0.433-1.674s0.145-1.183,0.433-1.674
					c0.288-0.492,0.686-0.877,1.193-1.152c0.508-0.276,1.086-0.414,1.734-0.414c0.576,0,1.09,0.116,1.542,0.348
					c0.452,0.232,0.802,0.568,1.05,1.008l-0.876,0.564c-0.2-0.304-0.448-0.532-0.744-0.684c-0.296-0.152-0.624-0.229-0.983-0.229
					c-0.416,0-0.791,0.092-1.122,0.276c-0.332,0.184-0.592,0.446-0.78,0.786s-0.282,0.729-0.282,1.17
					c0,0.448,0.094,0.842,0.282,1.182s0.448,0.603,0.78,0.786c0.332,0.184,0.706,0.276,1.122,0.276c0.359,0,0.688-0.076,0.983-0.229
					c0.296-0.151,0.544-0.38,0.744-0.684l0.876,0.552c-0.248,0.44-0.598,0.778-1.05,1.014c-0.452,0.236-0.966,0.354-1.542,0.354
					C290.396,106.432,289.818,106.291,289.31,106.012z"/>
				<path d="M299.462,100.587c0.468,0.433,0.702,1.076,0.702,1.933v3.84h-1.092v-0.84c-0.192,0.296-0.466,0.521-0.822,0.678
					c-0.356,0.156-0.778,0.234-1.267,0.234c-0.712,0-1.282-0.172-1.71-0.517c-0.428-0.344-0.642-0.796-0.642-1.355
					c0-0.561,0.204-1.01,0.612-1.351c0.408-0.34,1.056-0.51,1.944-0.51h1.824v-0.228c0-0.496-0.144-0.876-0.432-1.141
					c-0.288-0.264-0.712-0.396-1.272-0.396c-0.376,0-0.744,0.062-1.104,0.186c-0.36,0.124-0.665,0.29-0.912,0.498l-0.48-0.863
					c0.328-0.265,0.72-0.467,1.176-0.606s0.94-0.21,1.452-0.21C298.319,99.94,298.994,100.156,299.462,100.587z M298.315,105.249
					c0.32-0.195,0.552-0.474,0.696-0.834v-0.888h-1.776c-0.976,0-1.464,0.328-1.464,0.984c0,0.319,0.124,0.571,0.372,0.756
					c0.248,0.184,0.592,0.275,1.032,0.275C297.616,105.543,297.996,105.446,298.315,105.249z"/>
				<path d="M302.3,97.455h1.152v8.904H302.3V97.455z"/>
				<path d="M305.666,98.56c-0.148-0.145-0.223-0.32-0.223-0.528s0.074-0.386,0.223-0.534c0.147-0.147,0.333-0.222,0.558-0.222
					c0.224,0,0.41,0.07,0.558,0.21s0.222,0.314,0.222,0.522c0,0.216-0.074,0.397-0.222,0.546c-0.148,0.147-0.334,0.222-0.558,0.222
					C305.999,98.776,305.813,98.704,305.666,98.56z M305.647,99.999h1.152v6.36h-1.152V99.999z"/>
				<path d="M314.317,100.642c0.476,0.468,0.714,1.154,0.714,2.058v3.66h-1.151v-3.528c0-0.615-0.148-1.08-0.444-1.392
					c-0.296-0.312-0.72-0.468-1.272-0.468c-0.624,0-1.116,0.182-1.476,0.546c-0.36,0.364-0.54,0.886-0.54,1.565v3.276h-1.152v-6.36
					h1.104v0.96c0.232-0.327,0.546-0.579,0.942-0.756c0.396-0.176,0.846-0.264,1.35-0.264
					C313.199,99.94,313.842,100.174,314.317,100.642z"/>
				<path d="M317.492,106.222c-0.48-0.141-0.856-0.318-1.128-0.534l0.48-0.912c0.28,0.2,0.62,0.36,1.02,0.48
					c0.4,0.119,0.804,0.18,1.212,0.18c1.008,0,1.512-0.288,1.512-0.864c0-0.192-0.068-0.344-0.204-0.456
					c-0.136-0.111-0.306-0.193-0.51-0.246c-0.204-0.052-0.494-0.109-0.87-0.174c-0.512-0.08-0.93-0.172-1.254-0.276
					c-0.324-0.104-0.603-0.279-0.834-0.527c-0.232-0.248-0.349-0.596-0.349-1.044c0-0.576,0.24-1.038,0.72-1.387
					c0.48-0.348,1.124-0.521,1.932-0.521c0.424,0,0.848,0.052,1.272,0.156c0.424,0.104,0.772,0.244,1.044,0.42l-0.492,0.912
					c-0.521-0.336-1.132-0.504-1.836-0.504c-0.488,0-0.86,0.08-1.116,0.239c-0.256,0.16-0.384,0.372-0.384,0.637
					c0,0.208,0.072,0.371,0.216,0.491c0.144,0.12,0.322,0.208,0.534,0.265c0.212,0.056,0.51,0.12,0.894,0.191
					c0.512,0.089,0.926,0.183,1.242,0.282c0.316,0.101,0.586,0.271,0.81,0.51c0.224,0.24,0.336,0.576,0.336,1.009
					c0,0.575-0.246,1.033-0.738,1.373c-0.492,0.341-1.162,0.511-2.01,0.511C318.472,106.432,317.972,106.362,317.492,106.222z"/>
				<path d="M323.197,98.56c-0.148-0.145-0.222-0.32-0.222-0.528s0.074-0.386,0.222-0.534c0.148-0.147,0.334-0.222,0.558-0.222
					s0.41,0.07,0.558,0.21c0.148,0.14,0.222,0.314,0.222,0.522c0,0.216-0.074,0.397-0.222,0.546
					c-0.148,0.147-0.334,0.222-0.558,0.222S323.346,98.704,323.197,98.56z M323.18,99.999h1.151v6.36h-1.151V99.999z"/>
				<path d="M330.865,100.587c0.468,0.433,0.702,1.076,0.702,1.933v3.84h-1.092v-0.84c-0.192,0.296-0.466,0.521-0.822,0.678
					c-0.356,0.156-0.778,0.234-1.266,0.234c-0.712,0-1.282-0.172-1.71-0.517c-0.428-0.344-0.642-0.796-0.642-1.355
					c0-0.561,0.204-1.01,0.612-1.351c0.408-0.34,1.056-0.51,1.944-0.51h1.824v-0.228c0-0.496-0.144-0.876-0.432-1.141
					c-0.288-0.264-0.712-0.396-1.272-0.396c-0.376,0-0.744,0.062-1.104,0.186c-0.36,0.124-0.664,0.29-0.912,0.498l-0.48-0.863
					c0.328-0.265,0.72-0.467,1.176-0.606s0.939-0.21,1.452-0.21C329.723,99.94,330.397,100.156,330.865,100.587z M329.719,105.249
					c0.32-0.195,0.552-0.474,0.696-0.834v-0.888h-1.775c-0.977,0-1.464,0.328-1.464,0.984c0,0.319,0.124,0.571,0.372,0.756
					c0.248,0.184,0.592,0.275,1.032,0.275C329.02,105.543,329.399,105.446,329.719,105.249z"/>
				<path d="M333.403,106.198c-0.16-0.156-0.24-0.354-0.24-0.594c0-0.232,0.08-0.426,0.24-0.582s0.352-0.234,0.576-0.234
					c0.224,0,0.412,0.076,0.563,0.229c0.152,0.151,0.229,0.348,0.229,0.588s-0.078,0.438-0.234,0.594
					c-0.156,0.156-0.342,0.234-0.558,0.234C333.755,106.432,333.563,106.354,333.403,106.198z"/>
				<path d="M337.723,99.448v0.552h1.848v0.948h-1.824v5.412h-1.152v-5.412h-1.08v-0.948h1.08v-0.563c0-0.632,0.184-1.132,0.552-1.5
					c0.368-0.368,0.884-0.552,1.548-0.552c0.256,0,0.496,0.031,0.72,0.096c0.224,0.064,0.416,0.156,0.576,0.276l-0.348,0.876
					c-0.265-0.2-0.561-0.301-0.889-0.301C338.067,98.331,337.723,98.704,337.723,99.448z"/>
				<path d="M343.615,100.228c0.392-0.192,0.868-0.288,1.428-0.288v1.116c-0.064-0.008-0.152-0.013-0.264-0.013
					c-0.624,0-1.114,0.187-1.47,0.559s-0.534,0.902-0.534,1.59v3.168h-1.152v-6.36h1.104v1.068
					C342.927,100.7,343.223,100.419,343.615,100.228z"/>
				<path d="M230.373,123.97c-0.528-0.34-0.944-0.836-1.248-1.488s-0.456-1.426-0.456-2.322c0-0.896,0.151-1.67,0.456-2.322
					c0.304-0.651,0.72-1.147,1.248-1.487s1.128-0.51,1.8-0.51s1.273,0.17,1.806,0.51s0.95,0.836,1.254,1.487
					c0.304,0.652,0.456,1.427,0.456,2.322c0,0.896-0.152,1.67-0.456,2.322c-0.304,0.652-0.722,1.148-1.254,1.488
					s-1.134,0.51-1.806,0.51S230.9,124.31,230.373,123.97z M233.595,122.379c0.348-0.495,0.522-1.235,0.522-2.22
					c0-0.983-0.174-1.724-0.522-2.22c-0.348-0.496-0.822-0.744-1.422-0.744c-0.592,0-1.062,0.248-1.41,0.744
					c-0.348,0.496-0.522,1.236-0.522,2.22c0,0.984,0.174,1.725,0.522,2.22c0.348,0.497,0.818,0.744,1.41,0.744
					C232.772,123.123,233.247,122.876,233.595,122.379z"/>
				<path d="M243.02,115.959v1.044l-3.264,7.356h-1.668l3.156-7.08h-3.3v1.428h-1.452v-2.748H243.02z"/>
				<path d="M252.596,119.494c0.44,0.212,0.784,0.515,1.032,0.906s0.372,0.844,0.372,1.356c0,0.544-0.136,1.021-0.408,1.434
					c-0.271,0.412-0.64,0.73-1.104,0.954s-0.984,0.336-1.56,0.336c-1.152,0-2.046-0.36-2.682-1.08s-0.954-1.752-0.954-3.096
					c0-0.944,0.172-1.75,0.516-2.418s0.826-1.177,1.446-1.524s1.338-0.521,2.154-0.521c0.432,0,0.838,0.046,1.218,0.138
					s0.71,0.226,0.99,0.401l-0.576,1.177c-0.416-0.272-0.948-0.408-1.596-0.408c-0.809,0-1.44,0.248-1.896,0.744
					s-0.684,1.212-0.684,2.147v0.013c0.248-0.288,0.564-0.506,0.948-0.654c0.384-0.148,0.815-0.222,1.296-0.222
					C251.66,119.176,252.156,119.282,252.596,119.494z M252.032,122.866c0.304-0.26,0.456-0.605,0.456-1.038
					c0-0.439-0.152-0.788-0.456-1.044c-0.304-0.256-0.712-0.384-1.224-0.384c-0.504,0-0.914,0.136-1.23,0.408
					c-0.316,0.271-0.474,0.616-0.474,1.032c0,0.407,0.153,0.745,0.462,1.014c0.308,0.268,0.733,0.402,1.278,0.402
					C251.332,123.256,251.728,123.125,252.032,122.866z"/>
				<path d="M261.093,115.959v1.044l-3.264,7.356h-1.668l3.156-7.08h-3.3v1.428h-1.452v-2.748H261.093z"/>
				<path d="M267.068,123.97c-0.528-0.34-0.944-0.836-1.248-1.488s-0.456-1.426-0.456-2.322c0-0.896,0.151-1.67,0.456-2.322
					c0.304-0.651,0.72-1.147,1.248-1.487s1.128-0.51,1.8-0.51s1.273,0.17,1.806,0.51s0.95,0.836,1.254,1.487
					c0.304,0.652,0.456,1.427,0.456,2.322c0,0.896-0.152,1.67-0.456,2.322c-0.304,0.652-0.722,1.148-1.254,1.488
					s-1.134,0.51-1.806,0.51S267.596,124.31,267.068,123.97z M270.29,122.379c0.348-0.495,0.522-1.235,0.522-2.22
					c0-0.983-0.174-1.724-0.522-2.22c-0.348-0.496-0.822-0.744-1.422-0.744c-0.592,0-1.062,0.248-1.41,0.744
					c-0.348,0.496-0.522,1.236-0.522,2.22c0,0.984,0.174,1.725,0.522,2.22c0.348,0.497,0.818,0.744,1.41,0.744
					C269.468,123.123,269.942,122.876,270.29,122.379z"/>
				<path d="M278.672,120.22c0.408,0.432,0.612,0.972,0.612,1.62c0,0.487-0.124,0.932-0.372,1.331
					c-0.248,0.4-0.622,0.719-1.122,0.954c-0.5,0.236-1.11,0.354-1.83,0.354c-0.6,0-1.178-0.086-1.734-0.258s-1.03-0.41-1.422-0.714
					l0.672-1.213c0.304,0.257,0.674,0.459,1.11,0.606c0.436,0.148,0.886,0.222,1.35,0.222c0.552,0,0.986-0.113,1.302-0.342
					c0.315-0.228,0.474-0.538,0.474-0.93s-0.15-0.698-0.45-0.918c-0.3-0.22-0.758-0.33-1.374-0.33h-0.768v-1.068l1.908-2.268h-3.816
					v-1.309h5.724v1.044l-2.04,2.425C277.672,119.524,278.264,119.787,278.672,120.22z"/>
				<path d="M289.13,116.919c0.636,0.721,0.954,1.752,0.954,3.097c0,0.943-0.172,1.75-0.517,2.418
					c-0.344,0.668-0.826,1.176-1.446,1.523c-0.62,0.349-1.338,0.522-2.154,0.522c-0.432,0-0.838-0.046-1.218-0.138
					c-0.38-0.093-0.71-0.227-0.99-0.402l0.576-1.176c0.416,0.271,0.948,0.407,1.596,0.407c0.808,0,1.44-0.247,1.896-0.743
					s0.684-1.212,0.684-2.148v-0.012c-0.248,0.288-0.564,0.506-0.948,0.653c-0.384,0.148-0.816,0.223-1.296,0.223
					c-0.552,0-1.048-0.106-1.488-0.318c-0.439-0.212-0.784-0.514-1.032-0.906c-0.248-0.392-0.372-0.844-0.372-1.355
					c0-0.544,0.136-1.022,0.408-1.435c0.272-0.411,0.64-0.729,1.104-0.953c0.464-0.225,0.984-0.336,1.56-0.336
					C287.6,115.84,288.494,116.2,289.13,116.919z M287.798,119.512c0.315-0.272,0.474-0.616,0.474-1.032
					c0-0.408-0.154-0.746-0.462-1.014c-0.308-0.269-0.734-0.402-1.278-0.402c-0.488,0-0.884,0.13-1.188,0.39
					c-0.304,0.261-0.456,0.606-0.456,1.038c0,0.44,0.152,0.788,0.456,1.044c0.304,0.256,0.712,0.384,1.224,0.384
					C287.071,119.919,287.481,119.784,287.798,119.512z"/>
				<path d="M297.164,123.039v1.32h-6.192v-1.044l3.336-3.168c0.376-0.36,0.63-0.674,0.762-0.942
					c0.132-0.268,0.198-0.534,0.198-0.798c0-0.392-0.132-0.691-0.396-0.899c-0.265-0.208-0.652-0.312-1.164-0.312
					c-0.856,0-1.512,0.292-1.968,0.876l-1.092-0.84c0.328-0.44,0.771-0.782,1.326-1.026c0.556-0.243,1.178-0.365,1.866-0.365
					c0.912,0,1.64,0.216,2.184,0.647s0.816,1.021,0.816,1.764c0,0.456-0.096,0.885-0.288,1.284c-0.192,0.4-0.56,0.856-1.104,1.368
					l-2.244,2.136H297.164z"/>
				<path d="M308.863,122.452h-1.488v1.908h-1.512v-1.908h-4.608v-1.08l4.14-5.412h1.668l-3.9,5.173h2.748v-1.692h1.464v1.692h1.488
					V122.452z"/>
				<path d="M317.011,122.452h-1.488v1.908h-1.512v-1.908h-4.608v-1.08l4.14-5.412h1.668l-3.9,5.173h2.748v-1.692h1.464v1.692h1.488
					V122.452z"/>
			</g>
		</g>
		<rect x="218.153" fill="#282A27" width="2" height="150"/>
	</g>
</g>
</svg>
