<?xml version="1.0" encoding="utf-8"?>
<!-- Generator: Adobe Illustrator 28.3.0, SVG Export Plug-In . SVG Version: 6.00 Build 0)  -->
<svg version="1.1" xmlns="http://www.w3.org/2000/svg" xmlns:xlink="http://www.w3.org/1999/xlink" x="0px" y="0px"
	 width="467.83px" height="150px" viewBox="0 0 467.83 150" enable-background="new 0 0 467.83 150" xml:space="preserve">
<g id="Calque_1">
	<rect x="-189.664" y="-275.053" fill="#FFFFFF" width="1366" height="2065.439"/>
	<g>
		<g>
			<g>
				<path d="M232.823,30.258l-1.554,1.596v2.506h-1.82v-9.8h1.82v5.025l4.844-5.025h2.044l-4.116,4.382l4.368,5.418h-2.128
					L232.823,30.258z"/>
				<path d="M247.005,32.833v1.526h-7.351v-9.8h7.154v1.525h-5.334v2.549h4.732v1.498h-4.732v2.701H247.005z"/>
				<path d="M255.447,34.36l-2.002-2.87c-0.084,0.01-0.21,0.014-0.378,0.014h-2.212v2.856h-1.82v-9.8h4.032
					c0.85,0,1.589,0.14,2.219,0.42c0.63,0.28,1.113,0.682,1.449,1.204c0.336,0.522,0.504,1.144,0.504,1.861
					c0,0.738-0.18,1.372-0.539,1.904c-0.359,0.532-0.875,0.929-1.547,1.19l2.254,3.22H255.447z M254.789,26.604
					c-0.411-0.336-1.013-0.504-1.807-0.504h-2.128v3.906h2.128c0.793,0,1.396-0.171,1.807-0.512c0.41-0.341,0.616-0.823,0.616-1.449
					C255.405,27.42,255.199,26.94,254.789,26.604z"/>
				<path d="M260.115,34.178c-0.705-0.215-1.262-0.5-1.673-0.854l0.63-1.414c0.401,0.317,0.894,0.576,1.477,0.777
					c0.583,0.2,1.169,0.301,1.757,0.301c0.728,0,1.271-0.116,1.631-0.35s0.539-0.542,0.539-0.925c0-0.279-0.101-0.511-0.301-0.692
					c-0.201-0.183-0.455-0.324-0.763-0.427c-0.308-0.103-0.728-0.22-1.26-0.351c-0.747-0.177-1.351-0.354-1.813-0.532
					c-0.462-0.177-0.859-0.454-1.19-0.833c-0.332-0.378-0.497-0.889-0.497-1.532c0-0.542,0.147-1.034,0.441-1.478
					c0.294-0.443,0.737-0.795,1.33-1.057c0.592-0.262,1.318-0.393,2.177-0.393c0.597,0,1.185,0.075,1.764,0.225
					s1.078,0.364,1.498,0.644l-0.574,1.414c-0.429-0.252-0.877-0.443-1.344-0.574c-0.467-0.13-0.919-0.195-1.358-0.195
					c-0.719,0-1.253,0.121-1.603,0.363c-0.35,0.243-0.525,0.565-0.525,0.967c0,0.279,0.1,0.509,0.301,0.686
					c0.201,0.178,0.455,0.317,0.763,0.42c0.308,0.103,0.728,0.22,1.26,0.351c0.729,0.168,1.325,0.343,1.792,0.524
					c0.467,0.183,0.866,0.46,1.197,0.833c0.331,0.374,0.497,0.878,0.497,1.512c0,0.542-0.147,1.032-0.441,1.471
					s-0.739,0.788-1.337,1.05c-0.597,0.261-1.325,0.392-2.184,0.392C261.55,34.499,260.82,34.392,260.115,34.178z"/>
				<path d="M269.922,26.1h-3.248v-1.54h8.316v1.54h-3.248v8.26h-1.82V26.1z"/>
				<path d="M276.362,24.56h1.82v9.8h-1.82V24.56z"/>
				<path d="M282.683,33.849c-0.798-0.435-1.423-1.034-1.876-1.799c-0.453-0.766-0.679-1.629-0.679-2.591
					c0-0.961,0.229-1.824,0.687-2.59c0.457-0.765,1.085-1.365,1.883-1.799s1.691-0.651,2.681-0.651c0.803,0,1.535,0.141,2.198,0.421
					c0.663,0.279,1.223,0.686,1.68,1.218l-1.176,1.105c-0.709-0.765-1.582-1.147-2.618-1.147c-0.672,0-1.273,0.146-1.806,0.44
					s-0.947,0.703-1.246,1.226s-0.448,1.115-0.448,1.777c0,0.663,0.149,1.256,0.448,1.778s0.714,0.931,1.246,1.225
					c0.532,0.295,1.134,0.441,1.806,0.441c1.036,0,1.909-0.387,2.618-1.162l1.176,1.12c-0.457,0.532-1.02,0.938-1.687,1.218
					c-0.667,0.28-1.402,0.42-2.205,0.42C284.375,34.499,283.482,34.282,282.683,33.849z"/>
				<path d="M294.324,29.74h3.85v1.456h-3.85V29.74z"/>
				<path d="M305.55,33.898c-0.676-0.372-1.206-0.884-1.59-1.536c-0.384-0.652-0.576-1.386-0.576-2.202
					c0-0.815,0.192-1.55,0.576-2.202c0.384-0.651,0.916-1.164,1.596-1.536c0.68-0.371,1.44-0.558,2.28-0.558
					c0.655,0,1.256,0.11,1.8,0.33s1.008,0.546,1.392,0.978l-0.78,0.757c-0.632-0.664-1.42-0.996-2.364-0.996
					c-0.624,0-1.188,0.14-1.692,0.42s-0.898,0.666-1.182,1.158c-0.284,0.491-0.426,1.042-0.426,1.649
					c0,0.608,0.142,1.158,0.426,1.65c0.284,0.492,0.678,0.878,1.182,1.158c0.504,0.279,1.068,0.42,1.692,0.42
					c0.936,0,1.724-0.336,2.364-1.009l0.78,0.757c-0.384,0.432-0.85,0.76-1.397,0.983c-0.548,0.225-1.15,0.336-1.806,0.336
					C306.983,34.455,306.226,34.27,305.55,33.898z"/>
				<path d="M313.332,34.012c-0.504-0.28-0.898-0.666-1.182-1.158s-0.426-1.05-0.426-1.674s0.142-1.183,0.426-1.674
					c0.284-0.492,0.678-0.877,1.182-1.152c0.504-0.276,1.072-0.414,1.704-0.414s1.198,0.138,1.698,0.414
					c0.5,0.275,0.892,0.66,1.176,1.152c0.284,0.491,0.426,1.05,0.426,1.674s-0.142,1.182-0.426,1.674
					c-0.284,0.492-0.676,0.878-1.176,1.158c-0.5,0.279-1.066,0.42-1.698,0.42S313.836,34.291,313.332,34.012z M316.134,33.142
					c0.324-0.188,0.578-0.452,0.762-0.792c0.184-0.34,0.276-0.73,0.276-1.17c0-0.44-0.092-0.83-0.276-1.17
					c-0.184-0.34-0.438-0.603-0.762-0.786c-0.324-0.185-0.69-0.276-1.099-0.276c-0.408,0-0.773,0.092-1.098,0.276
					c-0.324,0.184-0.58,0.446-0.768,0.786s-0.282,0.729-0.282,1.17c0,0.439,0.094,0.83,0.282,1.17s0.444,0.604,0.768,0.792
					c0.324,0.188,0.69,0.282,1.098,0.282C315.443,33.424,315.81,33.329,316.134,33.142z"/>
				<path d="M325.254,28.642c0.476,0.468,0.714,1.154,0.714,2.058v3.66h-1.152v-3.528c0-0.615-0.148-1.08-0.444-1.392
					c-0.296-0.312-0.72-0.468-1.272-0.468c-0.624,0-1.116,0.182-1.476,0.546s-0.54,0.886-0.54,1.565v3.276h-1.152v-6.36h1.104v0.96
					c0.232-0.327,0.546-0.579,0.942-0.756c0.396-0.176,0.846-0.264,1.35-0.264C324.136,27.94,324.777,28.174,325.254,28.642z"/>
				<path d="M329.399,27.448v0.552h1.848v0.948h-1.824v5.412h-1.152v-5.412h-1.08v-0.948h1.08v-0.563c0-0.632,0.184-1.132,0.552-1.5
					s0.884-0.552,1.548-0.552c0.256,0,0.496,0.031,0.72,0.096c0.224,0.064,0.416,0.156,0.576,0.276l-0.348,0.876
					c-0.264-0.2-0.56-0.301-0.888-0.301C329.743,26.331,329.399,26.703,329.399,27.448z"/>
				<path d="M337.968,31.564h-5.16c0.072,0.56,0.318,1.01,0.738,1.35c0.42,0.341,0.941,0.511,1.565,0.511
					c0.76,0,1.372-0.257,1.836-0.769l0.636,0.744c-0.288,0.336-0.646,0.592-1.074,0.768c-0.428,0.177-0.906,0.265-1.434,0.265
					c-0.672,0-1.268-0.139-1.788-0.414c-0.52-0.276-0.922-0.662-1.206-1.158s-0.426-1.056-0.426-1.68
					c0-0.616,0.139-1.172,0.414-1.668c0.276-0.496,0.656-0.883,1.141-1.158c0.483-0.276,1.029-0.414,1.638-0.414
					c0.608,0,1.15,0.138,1.626,0.414c0.476,0.275,0.848,0.662,1.116,1.158c0.268,0.496,0.402,1.063,0.402,1.704
					C337.992,31.304,337.983,31.419,337.968,31.564z M333.462,29.415c-0.372,0.336-0.59,0.776-0.654,1.32h4.08
					c-0.064-0.536-0.282-0.974-0.654-1.314c-0.372-0.34-0.834-0.51-1.386-0.51S333.834,29.079,333.462,29.415z"/>
				<path d="M340.626,34.012c-0.508-0.28-0.906-0.666-1.194-1.158S339,31.804,339,31.18s0.144-1.183,0.432-1.674
					c0.288-0.492,0.686-0.877,1.194-1.152c0.508-0.276,1.086-0.414,1.734-0.414c0.576,0,1.09,0.116,1.542,0.348
					c0.452,0.232,0.802,0.568,1.05,1.008l-0.876,0.564c-0.2-0.304-0.448-0.532-0.744-0.684c-0.296-0.152-0.624-0.229-0.984-0.229
					c-0.416,0-0.79,0.092-1.122,0.276c-0.332,0.184-0.592,0.446-0.78,0.786c-0.188,0.34-0.282,0.729-0.282,1.17
					c0,0.448,0.094,0.842,0.282,1.182c0.188,0.34,0.448,0.603,0.78,0.786s0.706,0.276,1.122,0.276c0.36,0,0.688-0.076,0.984-0.229
					c0.296-0.151,0.544-0.38,0.744-0.684l0.876,0.552c-0.248,0.44-0.598,0.778-1.05,1.014c-0.452,0.236-0.966,0.354-1.542,0.354
					C341.712,34.432,341.134,34.291,340.626,34.012z"/>
				<path d="M350.1,33.988c-0.168,0.145-0.376,0.254-0.624,0.33s-0.504,0.114-0.769,0.114c-0.64,0-1.136-0.172-1.487-0.517
					c-0.353-0.344-0.528-0.836-0.528-1.476v-3.492h-1.08v-0.948h1.08v-1.392h1.152v1.392h1.824v0.948h-1.824v3.444
					c0,0.344,0.085,0.607,0.258,0.792c0.172,0.184,0.418,0.275,0.738,0.275c0.352,0,0.652-0.1,0.9-0.3L350.1,33.988z"/>
				<path d="M351.509,26.56c-0.148-0.145-0.222-0.32-0.222-0.528s0.074-0.386,0.222-0.534c0.148-0.147,0.333-0.222,0.558-0.222
					c0.224,0,0.41,0.07,0.558,0.21c0.148,0.14,0.222,0.314,0.222,0.522c0,0.216-0.074,0.397-0.222,0.546
					c-0.148,0.147-0.334,0.222-0.558,0.222C351.843,26.776,351.657,26.703,351.509,26.56z M351.491,27.999h1.152v6.36h-1.152V27.999
					z"/>
				<path d="M355.859,34.012c-0.504-0.28-0.898-0.666-1.183-1.158c-0.284-0.492-0.426-1.05-0.426-1.674s0.142-1.183,0.426-1.674
					c0.284-0.492,0.678-0.877,1.183-1.152c0.504-0.276,1.071-0.414,1.704-0.414c0.632,0,1.198,0.138,1.698,0.414
					c0.5,0.275,0.893,0.66,1.176,1.152c0.284,0.491,0.426,1.05,0.426,1.674s-0.143,1.182-0.426,1.674s-0.676,0.878-1.176,1.158
					c-0.5,0.279-1.066,0.42-1.698,0.42C356.931,34.432,356.363,34.291,355.859,34.012z M358.661,33.142
					c0.324-0.188,0.578-0.452,0.762-0.792c0.184-0.34,0.276-0.73,0.276-1.17c0-0.44-0.092-0.83-0.276-1.17
					c-0.184-0.34-0.438-0.603-0.762-0.786c-0.324-0.185-0.69-0.276-1.098-0.276c-0.408,0-0.774,0.092-1.098,0.276
					c-0.324,0.184-0.58,0.446-0.768,0.786c-0.188,0.34-0.282,0.729-0.282,1.17c0,0.439,0.094,0.83,0.282,1.17
					c0.188,0.34,0.444,0.604,0.768,0.792c0.324,0.188,0.69,0.282,1.098,0.282C357.971,33.424,358.337,33.329,358.661,33.142z"/>
				<path d="M367.781,28.642c0.476,0.468,0.714,1.154,0.714,2.058v3.66h-1.152v-3.528c0-0.615-0.148-1.08-0.444-1.392
					c-0.296-0.312-0.72-0.468-1.272-0.468c-0.624,0-1.116,0.182-1.476,0.546s-0.54,0.886-0.54,1.565v3.276h-1.152v-6.36h1.104v0.96
					c0.232-0.327,0.546-0.579,0.942-0.756c0.396-0.176,0.846-0.264,1.35-0.264C366.663,27.94,367.305,28.174,367.781,28.642z"/>
				<path d="M370.955,34.222c-0.48-0.141-0.856-0.318-1.128-0.534l0.48-0.912c0.28,0.2,0.62,0.36,1.02,0.48
					c0.4,0.119,0.804,0.18,1.212,0.18c1.008,0,1.512-0.288,1.512-0.864c0-0.192-0.068-0.344-0.204-0.456
					c-0.136-0.111-0.306-0.193-0.51-0.246c-0.204-0.052-0.494-0.109-0.87-0.174c-0.512-0.08-0.93-0.172-1.254-0.276
					c-0.324-0.104-0.602-0.279-0.834-0.527c-0.232-0.248-0.348-0.596-0.348-1.044c0-0.576,0.24-1.038,0.72-1.387
					c0.48-0.348,1.124-0.521,1.932-0.521c0.424,0,0.848,0.052,1.272,0.156c0.424,0.104,0.772,0.244,1.044,0.42l-0.492,0.912
					c-0.52-0.336-1.132-0.504-1.836-0.504c-0.488,0-0.86,0.08-1.116,0.239c-0.256,0.16-0.384,0.372-0.384,0.637
					c0,0.208,0.072,0.371,0.216,0.491c0.145,0.12,0.322,0.208,0.534,0.265c0.212,0.056,0.51,0.12,0.894,0.191
					c0.512,0.089,0.926,0.183,1.242,0.282c0.316,0.101,0.586,0.271,0.81,0.51c0.224,0.24,0.336,0.576,0.336,1.009
					c0,0.575-0.246,1.033-0.738,1.373c-0.492,0.341-1.162,0.511-2.01,0.511C371.935,34.432,371.435,34.362,370.955,34.222z"/>
				<path d="M385.595,31.564h-5.16c0.072,0.56,0.318,1.01,0.738,1.35c0.42,0.341,0.942,0.511,1.566,0.511
					c0.76,0,1.372-0.257,1.836-0.769l0.636,0.744c-0.288,0.336-0.646,0.592-1.074,0.768c-0.428,0.177-0.906,0.265-1.434,0.265
					c-0.672,0-1.269-0.139-1.788-0.414c-0.521-0.276-0.922-0.662-1.206-1.158c-0.284-0.496-0.426-1.056-0.426-1.68
					c0-0.616,0.138-1.172,0.414-1.668s0.656-0.883,1.14-1.158c0.484-0.276,1.03-0.414,1.638-0.414c0.608,0,1.15,0.138,1.626,0.414
					c0.476,0.275,0.848,0.662,1.116,1.158s0.402,1.063,0.402,1.704C385.619,31.304,385.611,31.419,385.595,31.564z M381.089,29.415
					c-0.372,0.336-0.59,0.776-0.654,1.32h4.08c-0.064-0.536-0.282-0.974-0.654-1.314c-0.372-0.34-0.834-0.51-1.386-0.51
					C381.923,28.911,381.461,29.079,381.089,29.415z"/>
				<path d="M390.791,33.988c-0.168,0.145-0.376,0.254-0.624,0.33s-0.504,0.114-0.769,0.114c-0.64,0-1.136-0.172-1.487-0.517
					c-0.353-0.344-0.528-0.836-0.528-1.476v-3.492h-1.08v-0.948h1.08v-1.392h1.152v1.392h1.824v0.948h-1.824v3.444
					c0,0.344,0.085,0.607,0.258,0.792c0.172,0.184,0.418,0.275,0.738,0.275c0.352,0,0.652-0.1,0.9-0.3L390.791,33.988z"/>
				<path d="M395.429,26.56c-0.148-0.145-0.222-0.32-0.222-0.528s0.074-0.386,0.222-0.534c0.148-0.147,0.334-0.222,0.558-0.222
					c0.224,0,0.41,0.07,0.559,0.21c0.147,0.14,0.222,0.314,0.222,0.522c0,0.216-0.074,0.397-0.222,0.546
					c-0.148,0.147-0.334,0.222-0.559,0.222C395.763,26.776,395.577,26.703,395.429,26.56z M395.411,27.999h1.152v6.36h-1.152V27.999
					z"/>
				<path d="M408.616,28.636c0.468,0.464,0.702,1.151,0.702,2.063v3.66h-1.152v-3.528c0-0.615-0.142-1.08-0.426-1.392
					c-0.284-0.312-0.689-0.468-1.218-0.468c-0.584,0-1.048,0.182-1.392,0.546c-0.345,0.364-0.517,0.886-0.517,1.565v3.276h-1.152
					v-3.528c0-0.615-0.142-1.08-0.426-1.392c-0.284-0.312-0.69-0.468-1.218-0.468c-0.584,0-1.048,0.182-1.392,0.546
					c-0.344,0.364-0.517,0.886-0.517,1.565v3.276h-1.151v-6.36h1.104v0.948c0.232-0.328,0.536-0.578,0.912-0.75
					s0.804-0.258,1.284-0.258c0.496,0,0.936,0.1,1.32,0.3s0.68,0.492,0.888,0.876c0.24-0.368,0.574-0.655,1.002-0.864
					c0.428-0.208,0.91-0.312,1.446-0.312C407.515,27.94,408.148,28.172,408.616,28.636z"/>
				<path d="M416.471,28.348c0.488,0.271,0.87,0.651,1.146,1.14s0.414,1.052,0.414,1.692c0,0.64-0.138,1.206-0.414,1.697
					c-0.276,0.492-0.658,0.875-1.146,1.146c-0.488,0.272-1.04,0.408-1.656,0.408c-0.456,0-0.874-0.088-1.254-0.265
					c-0.38-0.176-0.702-0.432-0.966-0.768v3.288h-1.152v-8.688h1.104v1.009c0.256-0.353,0.58-0.618,0.972-0.799
					c0.392-0.18,0.824-0.27,1.296-0.27C415.431,27.94,415.982,28.075,416.471,28.348z M415.816,33.142
					c0.324-0.188,0.58-0.452,0.768-0.792s0.282-0.73,0.282-1.17c0-0.44-0.094-0.83-0.282-1.17s-0.444-0.603-0.768-0.786
					c-0.324-0.185-0.69-0.276-1.098-0.276c-0.4,0-0.762,0.094-1.086,0.282c-0.324,0.188-0.58,0.45-0.769,0.786
					c-0.188,0.336-0.282,0.724-0.282,1.164c0,0.439,0.092,0.83,0.276,1.17c0.184,0.34,0.44,0.604,0.768,0.792
					c0.328,0.188,0.692,0.282,1.092,0.282C415.127,33.424,415.493,33.329,415.816,33.142z"/>
				<path d="M421.618,28.228c0.392-0.192,0.868-0.288,1.428-0.288v1.116c-0.064-0.008-0.152-0.013-0.264-0.013
					c-0.624,0-1.114,0.187-1.47,0.559c-0.356,0.372-0.534,0.902-0.534,1.59v3.168h-1.152v-6.36h1.104v1.068
					C420.931,28.699,421.227,28.419,421.618,28.228z"/>
				<path d="M430.126,31.564h-5.16c0.072,0.56,0.318,1.01,0.738,1.35c0.42,0.341,0.942,0.511,1.566,0.511
					c0.76,0,1.372-0.257,1.836-0.769l0.636,0.744c-0.288,0.336-0.646,0.592-1.074,0.768c-0.428,0.177-0.906,0.265-1.434,0.265
					c-0.672,0-1.268-0.139-1.788-0.414c-0.52-0.276-0.922-0.662-1.206-1.158s-0.426-1.056-0.426-1.68
					c0-0.616,0.138-1.172,0.414-1.668c0.276-0.496,0.656-0.883,1.14-1.158c0.484-0.276,1.03-0.414,1.638-0.414
					s1.15,0.138,1.626,0.414c0.476,0.275,0.848,0.662,1.116,1.158c0.269,0.496,0.402,1.063,0.402,1.704
					C430.15,31.304,430.143,31.419,430.126,31.564z M425.62,29.415c-0.372,0.336-0.59,0.776-0.654,1.32h4.08
					c-0.064-0.536-0.282-0.974-0.654-1.314c-0.372-0.34-0.834-0.51-1.386-0.51S425.992,29.079,425.62,29.415z"/>
				<path d="M432.07,34.222c-0.48-0.141-0.856-0.318-1.128-0.534l0.48-0.912c0.28,0.2,0.62,0.36,1.02,0.48
					c0.4,0.119,0.804,0.18,1.212,0.18c1.008,0,1.512-0.288,1.512-0.864c0-0.192-0.068-0.344-0.204-0.456
					c-0.136-0.111-0.306-0.193-0.51-0.246c-0.204-0.052-0.494-0.109-0.87-0.174c-0.512-0.08-0.93-0.172-1.254-0.276
					c-0.324-0.104-0.602-0.279-0.834-0.527c-0.232-0.248-0.348-0.596-0.348-1.044c0-0.576,0.24-1.038,0.72-1.387
					c0.48-0.348,1.124-0.521,1.932-0.521c0.424,0,0.848,0.052,1.272,0.156c0.424,0.104,0.772,0.244,1.044,0.42l-0.492,0.912
					c-0.52-0.336-1.132-0.504-1.836-0.504c-0.488,0-0.86,0.08-1.116,0.239c-0.256,0.16-0.384,0.372-0.384,0.637
					c0,0.208,0.072,0.371,0.216,0.491c0.145,0.12,0.322,0.208,0.534,0.265c0.212,0.056,0.51,0.12,0.894,0.191
					c0.512,0.089,0.926,0.183,1.242,0.282c0.316,0.101,0.586,0.271,0.81,0.51c0.224,0.24,0.336,0.576,0.336,1.009
					c0,0.575-0.246,1.033-0.738,1.373c-0.492,0.341-1.162,0.511-2.01,0.511C433.05,34.432,432.55,34.362,432.07,34.222z"/>
				<path d="M438.082,34.222c-0.479-0.141-0.856-0.318-1.128-0.534l0.48-0.912c0.279,0.2,0.62,0.36,1.02,0.48
					c0.4,0.119,0.804,0.18,1.212,0.18c1.008,0,1.512-0.288,1.512-0.864c0-0.192-0.068-0.344-0.204-0.456
					c-0.137-0.111-0.307-0.193-0.51-0.246c-0.204-0.052-0.494-0.109-0.87-0.174c-0.512-0.08-0.93-0.172-1.254-0.276
					c-0.324-0.104-0.602-0.279-0.834-0.527s-0.348-0.596-0.348-1.044c0-0.576,0.24-1.038,0.72-1.387
					c0.48-0.348,1.124-0.521,1.933-0.521c0.424,0,0.848,0.052,1.271,0.156c0.424,0.104,0.772,0.244,1.044,0.42l-0.492,0.912
					c-0.52-0.336-1.132-0.504-1.836-0.504c-0.488,0-0.86,0.08-1.116,0.239c-0.257,0.16-0.384,0.372-0.384,0.637
					c0,0.208,0.072,0.371,0.216,0.491s0.322,0.208,0.534,0.265c0.212,0.056,0.51,0.12,0.894,0.191
					c0.512,0.089,0.926,0.183,1.242,0.282c0.315,0.101,0.586,0.271,0.81,0.51c0.224,0.24,0.336,0.576,0.336,1.009
					c0,0.575-0.246,1.033-0.738,1.373c-0.492,0.341-1.162,0.511-2.01,0.511C439.063,34.432,438.563,34.362,438.082,34.222z"/>
				<path d="M443.788,26.56c-0.148-0.145-0.222-0.32-0.222-0.528s0.074-0.386,0.222-0.534c0.148-0.147,0.334-0.222,0.558-0.222
					s0.41,0.07,0.558,0.21c0.148,0.14,0.222,0.314,0.222,0.522c0,0.216-0.074,0.397-0.222,0.546
					c-0.148,0.147-0.334,0.222-0.558,0.222S443.937,26.703,443.788,26.56z M443.771,27.999h1.151v6.36h-1.151V27.999z"/>
				<path d="M448.138,34.012c-0.504-0.28-0.898-0.666-1.182-1.158s-0.426-1.05-0.426-1.674s0.142-1.183,0.426-1.674
					c0.284-0.492,0.678-0.877,1.182-1.152c0.504-0.276,1.072-0.414,1.704-0.414s1.198,0.138,1.698,0.414
					c0.5,0.275,0.892,0.66,1.176,1.152c0.284,0.491,0.426,1.05,0.426,1.674s-0.142,1.182-0.426,1.674
					c-0.284,0.492-0.676,0.878-1.176,1.158c-0.5,0.279-1.066,0.42-1.698,0.42S448.642,34.291,448.138,34.012z M450.94,33.142
					c0.324-0.188,0.578-0.452,0.762-0.792c0.184-0.34,0.276-0.73,0.276-1.17c0-0.44-0.092-0.83-0.276-1.17
					c-0.184-0.34-0.438-0.603-0.762-0.786c-0.324-0.185-0.69-0.276-1.099-0.276c-0.408,0-0.773,0.092-1.098,0.276
					c-0.324,0.184-0.58,0.446-0.768,0.786s-0.282,0.729-0.282,1.17c0,0.439,0.094,0.83,0.282,1.17s0.444,0.604,0.768,0.792
					c0.324,0.188,0.69,0.282,1.098,0.282C450.25,33.424,450.616,33.329,450.94,33.142z"/>
				<path d="M460.06,28.642c0.476,0.468,0.714,1.154,0.714,2.058v3.66h-1.152v-3.528c0-0.615-0.148-1.08-0.444-1.392
					c-0.296-0.312-0.72-0.468-1.271-0.468c-0.624,0-1.116,0.182-1.477,0.546c-0.359,0.364-0.54,0.886-0.54,1.565v3.276h-1.151v-6.36
					h1.104v0.96c0.232-0.327,0.546-0.579,0.942-0.756c0.396-0.176,0.846-0.264,1.35-0.264
					C458.942,27.94,459.584,28.174,460.06,28.642z"/>
				<path d="M463.234,34.222c-0.48-0.141-0.856-0.318-1.128-0.534l0.48-0.912c0.28,0.2,0.62,0.36,1.02,0.48
					c0.4,0.119,0.804,0.18,1.212,0.18c1.008,0,1.512-0.288,1.512-0.864c0-0.192-0.068-0.344-0.204-0.456
					c-0.136-0.111-0.306-0.193-0.51-0.246c-0.204-0.052-0.494-0.109-0.87-0.174c-0.512-0.08-0.93-0.172-1.254-0.276
					c-0.324-0.104-0.603-0.279-0.834-0.527c-0.232-0.248-0.349-0.596-0.349-1.044c0-0.576,0.24-1.038,0.72-1.387
					c0.48-0.348,1.124-0.521,1.932-0.521c0.424,0,0.848,0.052,1.272,0.156c0.424,0.104,0.772,0.244,1.044,0.42l-0.492,0.912
					c-0.521-0.336-1.132-0.504-1.836-0.504c-0.488,0-0.86,0.08-1.116,0.239c-0.256,0.16-0.384,0.372-0.384,0.637
					c0,0.208,0.072,0.371,0.216,0.491c0.144,0.12,0.322,0.208,0.534,0.265c0.212,0.056,0.51,0.12,0.894,0.191
					c0.512,0.089,0.926,0.183,1.242,0.282c0.316,0.101,0.586,0.271,0.81,0.51c0.224,0.24,0.336,0.576,0.336,1.009
					c0,0.575-0.246,1.033-0.738,1.373c-0.492,0.341-1.162,0.511-2.01,0.511C464.214,34.432,463.714,34.362,463.234,34.222z"/>
				<path d="M235.225,43.455v8.904h-1.104v-1.008c-0.256,0.352-0.58,0.62-0.972,0.804c-0.392,0.185-0.824,0.276-1.296,0.276
					c-0.616,0-1.168-0.136-1.656-0.408c-0.488-0.271-0.87-0.654-1.146-1.146c-0.276-0.491-0.414-1.058-0.414-1.697
					c0-0.641,0.138-1.204,0.414-1.692c0.276-0.488,0.658-0.868,1.146-1.14c0.488-0.272,1.04-0.408,1.656-0.408
					c0.456,0,0.876,0.086,1.26,0.258s0.704,0.426,0.96,0.762v-3.504H235.225z M233.041,51.142c0.328-0.188,0.584-0.452,0.768-0.792
					c0.184-0.34,0.276-0.73,0.276-1.17c0-0.44-0.092-0.83-0.276-1.17c-0.184-0.34-0.44-0.603-0.768-0.786
					c-0.328-0.185-0.692-0.276-1.092-0.276c-0.408,0-0.774,0.092-1.098,0.276c-0.324,0.184-0.58,0.446-0.768,0.786
					c-0.188,0.34-0.282,0.729-0.282,1.17c0,0.439,0.094,0.83,0.282,1.17c0.188,0.34,0.444,0.604,0.768,0.792
					c0.324,0.188,0.69,0.282,1.098,0.282C232.349,51.424,232.713,51.329,233.041,51.142z"/>
				<path d="M237.073,43.959h1.008l-0.084,3.24h-0.852L237.073,43.959z"/>
				<path d="M244.267,46.587c0.468,0.433,0.702,1.076,0.702,1.933v3.84h-1.092v-0.84c-0.192,0.296-0.466,0.521-0.822,0.678
					c-0.356,0.156-0.778,0.234-1.266,0.234c-0.712,0-1.282-0.172-1.71-0.517c-0.428-0.344-0.642-0.796-0.642-1.355
					c0-0.561,0.204-1.01,0.612-1.351c0.408-0.34,1.056-0.51,1.944-0.51h1.824v-0.228c0-0.496-0.144-0.876-0.432-1.141
					c-0.288-0.264-0.712-0.396-1.272-0.396c-0.376,0-0.744,0.062-1.104,0.186c-0.36,0.124-0.664,0.29-0.912,0.498l-0.48-0.863
					c0.328-0.265,0.72-0.467,1.176-0.606s0.939-0.21,1.452-0.21C243.125,45.94,243.799,46.156,244.267,46.587z M243.121,51.249
					c0.32-0.195,0.552-0.474,0.696-0.834v-0.888h-1.775c-0.977,0-1.464,0.328-1.464,0.984c0,0.319,0.124,0.571,0.372,0.756
					c0.248,0.184,0.592,0.275,1.032,0.275C242.421,51.543,242.801,51.446,243.121,51.249z"/>
				<path d="M253.141,43.455v8.904h-1.104v-1.008c-0.256,0.352-0.58,0.62-0.972,0.804c-0.392,0.185-0.824,0.276-1.296,0.276
					c-0.616,0-1.168-0.136-1.656-0.408c-0.488-0.271-0.87-0.654-1.146-1.146c-0.276-0.491-0.414-1.058-0.414-1.697
					c0-0.641,0.138-1.204,0.414-1.692s0.658-0.868,1.146-1.14c0.488-0.272,1.04-0.408,1.656-0.408c0.456,0,0.876,0.086,1.26,0.258
					s0.704,0.426,0.96,0.762v-3.504H253.141z M250.956,51.142c0.328-0.188,0.584-0.452,0.769-0.792
					c0.184-0.34,0.275-0.73,0.275-1.17c0-0.44-0.092-0.83-0.275-1.17c-0.185-0.34-0.44-0.603-0.769-0.786
					c-0.328-0.185-0.692-0.276-1.092-0.276c-0.408,0-0.774,0.092-1.098,0.276c-0.324,0.184-0.58,0.446-0.769,0.786
					c-0.188,0.34-0.282,0.729-0.282,1.17c0,0.439,0.094,0.83,0.282,1.17c0.188,0.34,0.444,0.604,0.769,0.792
					c0.324,0.188,0.689,0.282,1.098,0.282C250.264,51.424,250.628,51.329,250.956,51.142z"/>
				<path d="M260.647,46.642c0.476,0.468,0.714,1.154,0.714,2.058v3.66h-1.152v-3.528c0-0.615-0.148-1.08-0.444-1.392
					c-0.296-0.312-0.72-0.468-1.272-0.468c-0.624,0-1.116,0.182-1.476,0.546c-0.36,0.364-0.54,0.886-0.54,1.565v3.276h-1.152v-8.904
					h1.152V46.9c0.24-0.304,0.554-0.54,0.942-0.708s0.822-0.252,1.302-0.252C259.528,45.94,260.17,46.174,260.647,46.642z"/>
				<path d="M269.256,49.564h-5.16c0.072,0.56,0.318,1.01,0.738,1.35c0.42,0.341,0.942,0.511,1.566,0.511
					c0.76,0,1.372-0.257,1.836-0.769l0.636,0.744c-0.288,0.336-0.646,0.592-1.074,0.768c-0.428,0.177-0.906,0.265-1.434,0.265
					c-0.672,0-1.268-0.139-1.788-0.414c-0.52-0.276-0.922-0.662-1.206-1.158s-0.426-1.056-0.426-1.68
					c0-0.616,0.138-1.172,0.414-1.668c0.276-0.496,0.656-0.883,1.14-1.158c0.484-0.276,1.03-0.414,1.638-0.414
					s1.15,0.138,1.626,0.414c0.476,0.275,0.848,0.662,1.116,1.158c0.269,0.496,0.402,1.063,0.402,1.704
					C269.28,49.304,269.273,49.419,269.256,49.564z M264.75,47.415c-0.372,0.336-0.59,0.776-0.654,1.32h4.08
					c-0.064-0.536-0.282-0.974-0.654-1.314c-0.372-0.34-0.834-0.51-1.386-0.51S265.122,47.079,264.75,47.415z M266.857,43.516h1.464
					l-2.016,1.56h-1.08L266.857,43.516z"/>
				<path d="M271.2,52.222c-0.48-0.141-0.856-0.318-1.128-0.534l0.48-0.912c0.28,0.2,0.62,0.36,1.02,0.48
					c0.4,0.119,0.804,0.18,1.212,0.18c1.008,0,1.512-0.288,1.512-0.864c0-0.192-0.068-0.344-0.204-0.456
					c-0.136-0.111-0.306-0.193-0.51-0.246c-0.204-0.052-0.494-0.109-0.87-0.174c-0.512-0.08-0.93-0.172-1.254-0.276
					c-0.324-0.104-0.602-0.279-0.834-0.527c-0.232-0.248-0.348-0.596-0.348-1.044c0-0.576,0.24-1.038,0.72-1.387
					c0.48-0.348,1.124-0.521,1.932-0.521c0.424,0,0.848,0.052,1.272,0.156c0.424,0.104,0.772,0.244,1.044,0.42l-0.492,0.912
					c-0.52-0.336-1.132-0.504-1.836-0.504c-0.488,0-0.86,0.08-1.116,0.239c-0.256,0.16-0.384,0.372-0.384,0.637
					c0,0.208,0.072,0.371,0.216,0.491c0.145,0.12,0.322,0.208,0.534,0.265c0.212,0.056,0.51,0.12,0.894,0.191
					c0.512,0.089,0.926,0.183,1.242,0.282c0.316,0.101,0.586,0.271,0.81,0.51c0.224,0.24,0.336,0.576,0.336,1.009
					c0,0.575-0.246,1.033-0.738,1.373c-0.492,0.341-1.162,0.511-2.01,0.511C272.18,52.432,271.68,52.362,271.2,52.222z"/>
				<path d="M276.906,44.56c-0.148-0.145-0.222-0.32-0.222-0.528s0.074-0.386,0.222-0.534c0.148-0.147,0.334-0.222,0.558-0.222
					c0.224,0,0.41,0.07,0.559,0.21c0.147,0.14,0.222,0.314,0.222,0.522c0,0.216-0.074,0.397-0.222,0.546
					c-0.148,0.147-0.334,0.222-0.559,0.222C277.24,44.776,277.054,44.703,276.906,44.56z M276.888,45.999h1.152v6.36h-1.152V45.999z
					"/>
				<path d="M281.532,45.448v0.552h1.848v0.948h-1.824v5.412h-1.152v-5.412h-1.08v-0.948h1.08v-0.563c0-0.632,0.184-1.132,0.552-1.5
					s0.884-0.552,1.548-0.552c0.256,0,0.496,0.031,0.72,0.096s0.416,0.156,0.576,0.276l-0.348,0.876
					c-0.264-0.2-0.56-0.301-0.888-0.301C281.876,44.331,281.532,44.703,281.532,45.448z"/>
				<path d="M284.796,52.222c-0.48-0.141-0.856-0.318-1.128-0.534l0.48-0.912c0.28,0.2,0.62,0.36,1.02,0.48
					c0.4,0.119,0.804,0.18,1.212,0.18c1.008,0,1.512-0.288,1.512-0.864c0-0.192-0.068-0.344-0.204-0.456
					c-0.136-0.111-0.306-0.193-0.51-0.246c-0.204-0.052-0.494-0.109-0.87-0.174c-0.512-0.08-0.93-0.172-1.254-0.276
					c-0.324-0.104-0.602-0.279-0.834-0.527c-0.232-0.248-0.348-0.596-0.348-1.044c0-0.576,0.24-1.038,0.72-1.387
					c0.48-0.348,1.124-0.521,1.932-0.521c0.424,0,0.848,0.052,1.272,0.156c0.424,0.104,0.772,0.244,1.044,0.42l-0.492,0.912
					c-0.52-0.336-1.132-0.504-1.836-0.504c-0.488,0-0.86,0.08-1.116,0.239c-0.256,0.16-0.384,0.372-0.384,0.637
					c0,0.208,0.072,0.371,0.216,0.491c0.145,0.12,0.322,0.208,0.534,0.265c0.212,0.056,0.51,0.12,0.894,0.191
					c0.512,0.089,0.926,0.183,1.242,0.282c0.316,0.101,0.586,0.271,0.81,0.51c0.224,0.24,0.336,0.576,0.336,1.009
					c0,0.575-0.246,1.033-0.738,1.373c-0.492,0.341-1.162,0.511-2.01,0.511C285.776,52.432,285.276,52.362,284.796,52.222z"/>
				<path d="M298.74,46.348c0.487,0.271,0.87,0.651,1.146,1.14c0.276,0.488,0.414,1.052,0.414,1.692c0,0.64-0.138,1.206-0.414,1.697
					c-0.276,0.492-0.658,0.875-1.146,1.146c-0.488,0.272-1.041,0.408-1.656,0.408c-0.456,0-0.874-0.088-1.254-0.265
					c-0.38-0.176-0.702-0.432-0.966-0.768v3.288h-1.152v-8.688h1.104v1.009c0.256-0.353,0.58-0.618,0.972-0.799
					c0.392-0.18,0.824-0.27,1.296-0.27C297.7,45.94,298.252,46.075,298.74,46.348z M298.086,51.142
					c0.324-0.188,0.58-0.452,0.768-0.792c0.188-0.34,0.282-0.73,0.282-1.17c0-0.44-0.094-0.83-0.282-1.17
					c-0.188-0.34-0.443-0.603-0.768-0.786c-0.324-0.185-0.69-0.276-1.098-0.276c-0.4,0-0.762,0.094-1.086,0.282
					c-0.324,0.188-0.58,0.45-0.768,0.786s-0.282,0.724-0.282,1.164c0,0.439,0.092,0.83,0.276,1.17
					c0.184,0.34,0.439,0.604,0.768,0.792c0.328,0.188,0.692,0.282,1.092,0.282C297.396,51.424,297.762,51.329,298.086,51.142z"/>
				<path d="M307.62,49.564h-5.16c0.072,0.56,0.318,1.01,0.738,1.35c0.42,0.341,0.942,0.511,1.566,0.511
					c0.76,0,1.372-0.257,1.836-0.769l0.636,0.744c-0.288,0.336-0.646,0.592-1.074,0.768c-0.428,0.177-0.906,0.265-1.434,0.265
					c-0.672,0-1.268-0.139-1.788-0.414c-0.52-0.276-0.922-0.662-1.206-1.158c-0.284-0.496-0.426-1.056-0.426-1.68
					c0-0.616,0.138-1.172,0.414-1.668c0.276-0.496,0.656-0.883,1.14-1.158c0.484-0.276,1.03-0.414,1.638-0.414
					c0.607,0,1.149,0.138,1.626,0.414c0.476,0.275,0.848,0.662,1.116,1.158s0.402,1.063,0.402,1.704
					C307.644,49.304,307.636,49.419,307.62,49.564z M303.114,47.415c-0.372,0.336-0.59,0.776-0.654,1.32h4.08
					c-0.064-0.536-0.282-0.974-0.654-1.314c-0.372-0.34-0.834-0.51-1.386-0.51C303.948,46.911,303.485,47.079,303.114,47.415z"/>
				<path d="M311.232,46.228c0.392-0.192,0.868-0.288,1.428-0.288v1.116c-0.064-0.008-0.152-0.013-0.264-0.013
					c-0.624,0-1.114,0.187-1.47,0.559c-0.356,0.372-0.534,0.902-0.534,1.59v3.168h-1.152v-6.36h1.104v1.068
					C310.544,46.699,310.84,46.419,311.232,46.228z"/>
				<path d="M314.448,52.222c-0.48-0.141-0.856-0.318-1.128-0.534l0.48-0.912c0.28,0.2,0.62,0.36,1.02,0.48
					c0.4,0.119,0.804,0.18,1.212,0.18c1.008,0,1.512-0.288,1.512-0.864c0-0.192-0.068-0.344-0.204-0.456
					c-0.136-0.111-0.306-0.193-0.51-0.246c-0.204-0.052-0.494-0.109-0.87-0.174c-0.512-0.08-0.93-0.172-1.254-0.276
					c-0.324-0.104-0.603-0.279-0.834-0.527c-0.232-0.248-0.349-0.596-0.349-1.044c0-0.576,0.24-1.038,0.72-1.387
					c0.48-0.348,1.124-0.521,1.932-0.521c0.424,0,0.848,0.052,1.272,0.156c0.424,0.104,0.772,0.244,1.044,0.42L318,47.428
					c-0.521-0.336-1.132-0.504-1.836-0.504c-0.488,0-0.86,0.08-1.116,0.239c-0.256,0.16-0.384,0.372-0.384,0.637
					c0,0.208,0.072,0.371,0.216,0.491c0.144,0.12,0.322,0.208,0.534,0.265c0.212,0.056,0.51,0.12,0.894,0.191
					c0.512,0.089,0.926,0.183,1.242,0.282c0.316,0.101,0.586,0.271,0.81,0.51c0.224,0.24,0.336,0.576,0.336,1.009
					c0,0.575-0.246,1.033-0.738,1.373c-0.492,0.341-1.162,0.511-2.01,0.511C315.428,52.432,314.928,52.362,314.448,52.222z"/>
				<path d="M321.155,52.012c-0.504-0.28-0.898-0.666-1.182-1.158c-0.284-0.492-0.426-1.05-0.426-1.674s0.142-1.183,0.426-1.674
					c0.284-0.492,0.678-0.877,1.182-1.152c0.504-0.276,1.072-0.414,1.704-0.414s1.198,0.138,1.698,0.414
					c0.5,0.275,0.892,0.66,1.176,1.152c0.284,0.491,0.426,1.05,0.426,1.674s-0.142,1.182-0.426,1.674s-0.676,0.878-1.176,1.158
					c-0.5,0.279-1.066,0.42-1.698,0.42S321.659,52.291,321.155,52.012z M323.958,51.142c0.324-0.188,0.578-0.452,0.762-0.792
					c0.184-0.34,0.275-0.73,0.275-1.17c0-0.44-0.092-0.83-0.275-1.17c-0.185-0.34-0.438-0.603-0.762-0.786
					c-0.324-0.185-0.69-0.276-1.098-0.276s-0.774,0.092-1.098,0.276c-0.324,0.184-0.58,0.446-0.769,0.786
					c-0.188,0.34-0.282,0.729-0.282,1.17c0,0.439,0.094,0.83,0.282,1.17c0.188,0.34,0.444,0.604,0.769,0.792
					c0.324,0.188,0.689,0.282,1.098,0.282S323.634,51.329,323.958,51.142z"/>
				<path d="M333.078,46.642c0.476,0.468,0.714,1.154,0.714,2.058v3.66h-1.152v-3.528c0-0.615-0.148-1.08-0.444-1.392
					c-0.296-0.312-0.72-0.468-1.271-0.468c-0.624,0-1.116,0.182-1.477,0.546c-0.359,0.364-0.54,0.886-0.54,1.565v3.276h-1.151v-6.36
					h1.104v0.96c0.232-0.327,0.546-0.579,0.942-0.756c0.396-0.176,0.846-0.264,1.35-0.264
					C331.96,45.94,332.602,46.174,333.078,46.642z"/>
				<path d="M341.25,46.642c0.476,0.468,0.714,1.154,0.714,2.058v3.66h-1.152v-3.528c0-0.615-0.148-1.08-0.444-1.392
					c-0.296-0.312-0.72-0.468-1.271-0.468c-0.624,0-1.116,0.182-1.477,0.546c-0.359,0.364-0.54,0.886-0.54,1.565v3.276h-1.151v-6.36
					h1.104v0.96c0.232-0.327,0.546-0.579,0.942-0.756c0.396-0.176,0.846-0.264,1.35-0.264
					C340.131,45.94,340.773,46.174,341.25,46.642z"/>
				<path d="M348.438,46.587c0.468,0.433,0.702,1.076,0.702,1.933v3.84h-1.092v-0.84c-0.192,0.296-0.466,0.521-0.822,0.678
					c-0.356,0.156-0.778,0.234-1.266,0.234c-0.712,0-1.282-0.172-1.71-0.517c-0.428-0.344-0.642-0.796-0.642-1.355
					c0-0.561,0.204-1.01,0.612-1.351c0.408-0.34,1.056-0.51,1.944-0.51h1.824v-0.228c0-0.496-0.144-0.876-0.432-1.141
					c-0.288-0.264-0.712-0.396-1.272-0.396c-0.376,0-0.744,0.062-1.104,0.186c-0.36,0.124-0.664,0.29-0.912,0.498l-0.48-0.863
					c0.328-0.265,0.72-0.467,1.176-0.606s0.939-0.21,1.452-0.21C347.295,45.94,347.97,46.156,348.438,46.587z M347.292,51.249
					c0.32-0.195,0.552-0.474,0.696-0.834v-0.888h-1.775c-0.977,0-1.464,0.328-1.464,0.984c0,0.319,0.124,0.571,0.372,0.756
					c0.248,0.184,0.592,0.275,1.032,0.275C346.592,51.543,346.972,51.446,347.292,51.249z"/>
				<path d="M351.275,43.455h1.152v8.904h-1.152V43.455z"/>
				<path d="M354.642,44.56c-0.148-0.145-0.223-0.32-0.223-0.528s0.074-0.386,0.223-0.534c0.147-0.147,0.333-0.222,0.558-0.222
					c0.224,0,0.41,0.07,0.558,0.21s0.222,0.314,0.222,0.522c0,0.216-0.074,0.397-0.222,0.546c-0.148,0.147-0.334,0.222-0.558,0.222
					C354.975,44.776,354.789,44.703,354.642,44.56z M354.623,45.999h1.152v6.36h-1.152V45.999z"/>
				<path d="M358.295,52.222c-0.479-0.141-0.856-0.318-1.128-0.534l0.48-0.912c0.279,0.2,0.62,0.36,1.02,0.48
					c0.4,0.119,0.804,0.18,1.212,0.18c1.008,0,1.512-0.288,1.512-0.864c0-0.192-0.068-0.344-0.204-0.456
					c-0.137-0.111-0.307-0.193-0.51-0.246c-0.204-0.052-0.494-0.109-0.87-0.174c-0.512-0.08-0.93-0.172-1.254-0.276
					c-0.324-0.104-0.602-0.279-0.834-0.527s-0.348-0.596-0.348-1.044c0-0.576,0.24-1.038,0.72-1.387
					c0.48-0.348,1.124-0.521,1.933-0.521c0.424,0,0.848,0.052,1.271,0.156c0.424,0.104,0.772,0.244,1.044,0.42l-0.492,0.912
					c-0.52-0.336-1.132-0.504-1.836-0.504c-0.488,0-0.86,0.08-1.116,0.239c-0.257,0.16-0.384,0.372-0.384,0.637
					c0,0.208,0.072,0.371,0.216,0.491s0.322,0.208,0.534,0.265c0.212,0.056,0.51,0.12,0.894,0.191
					c0.512,0.089,0.926,0.183,1.242,0.282c0.315,0.101,0.586,0.271,0.81,0.51c0.224,0.24,0.336,0.576,0.336,1.009
					c0,0.575-0.246,1.033-0.738,1.373c-0.492,0.341-1.162,0.511-2.01,0.511C359.275,52.432,358.775,52.362,358.295,52.222z"/>
				<path d="M369.707,49.564h-5.16c0.072,0.56,0.318,1.01,0.738,1.35c0.42,0.341,0.942,0.511,1.566,0.511
					c0.76,0,1.372-0.257,1.836-0.769l0.636,0.744c-0.288,0.336-0.646,0.592-1.074,0.768c-0.428,0.177-0.906,0.265-1.434,0.265
					c-0.672,0-1.269-0.139-1.788-0.414c-0.521-0.276-0.922-0.662-1.206-1.158c-0.284-0.496-0.426-1.056-0.426-1.68
					c0-0.616,0.138-1.172,0.414-1.668s0.656-0.883,1.14-1.158c0.484-0.276,1.03-0.414,1.638-0.414c0.608,0,1.15,0.138,1.626,0.414
					c0.476,0.275,0.848,0.662,1.116,1.158s0.402,1.063,0.402,1.704C369.732,49.304,369.723,49.419,369.707,49.564z M365.201,47.415
					c-0.372,0.336-0.59,0.776-0.654,1.32h4.08c-0.064-0.536-0.282-0.974-0.654-1.314c-0.372-0.34-0.834-0.51-1.386-0.51
					C366.035,46.911,365.573,47.079,365.201,47.415z M367.307,43.516h1.464l-2.016,1.56h-1.08L367.307,43.516z"/>
				<path d="M371.651,52.222c-0.48-0.141-0.856-0.318-1.128-0.534l0.479-0.912c0.28,0.2,0.62,0.36,1.021,0.48
					c0.399,0.119,0.804,0.18,1.212,0.18c1.008,0,1.512-0.288,1.512-0.864c0-0.192-0.068-0.344-0.204-0.456
					c-0.136-0.111-0.306-0.193-0.51-0.246c-0.204-0.052-0.494-0.109-0.87-0.174c-0.512-0.08-0.93-0.172-1.254-0.276
					c-0.324-0.104-0.602-0.279-0.834-0.527c-0.232-0.248-0.348-0.596-0.348-1.044c0-0.576,0.24-1.038,0.72-1.387
					c0.479-0.348,1.124-0.521,1.932-0.521c0.424,0,0.848,0.052,1.272,0.156c0.424,0.104,0.771,0.244,1.044,0.42l-0.492,0.912
					c-0.521-0.336-1.132-0.504-1.836-0.504c-0.488,0-0.86,0.08-1.116,0.239c-0.256,0.16-0.384,0.372-0.384,0.637
					c0,0.208,0.072,0.371,0.216,0.491c0.144,0.12,0.322,0.208,0.534,0.265c0.212,0.056,0.51,0.12,0.894,0.191
					c0.512,0.089,0.926,0.183,1.242,0.282c0.316,0.101,0.586,0.271,0.81,0.51c0.224,0.24,0.336,0.576,0.336,1.009
					c0,0.575-0.246,1.033-0.738,1.373c-0.492,0.341-1.162,0.511-2.01,0.511C372.631,52.432,372.131,52.362,371.651,52.222z"/>
				<path d="M238.849,81.999l-2.376,6.36h-1.104l-1.836-4.824l-1.86,4.824h-1.104l-2.364-6.36h1.092l1.848,5.064l1.92-5.064h0.973
					l1.884,5.088l1.896-5.088H238.849z"/>
				<path d="M249.541,81.999l-2.376,6.36h-1.104l-1.836-4.824l-1.86,4.824h-1.104l-2.364-6.36h1.092l1.848,5.064l1.92-5.064h0.972
					l1.884,5.088l1.896-5.088H249.541z"/>
				<path d="M260.232,81.999l-2.376,6.36h-1.104l-1.836-4.824l-1.86,4.824h-1.104l-2.364-6.36h1.092l1.848,5.064l1.92-5.064h0.973
					l1.884,5.088l1.896-5.088H260.232z"/>
				<path d="M260.701,88.198c-0.16-0.156-0.24-0.354-0.24-0.594c0-0.232,0.08-0.426,0.24-0.582c0.16-0.156,0.352-0.234,0.576-0.234
					c0.224,0,0.412,0.076,0.564,0.229c0.152,0.151,0.228,0.348,0.228,0.588s-0.078,0.438-0.233,0.594
					c-0.156,0.156-0.342,0.234-0.559,0.234C261.053,88.432,260.86,88.354,260.701,88.198z"/>
				<path d="M266.196,85.396l-1.32,1.224v1.74h-1.151v-8.904h1.151v5.712l3.468-3.168h1.392l-2.676,2.628L270,88.36h-1.416
					L266.196,85.396z"/>
				<path d="M276.576,85.564h-5.16c0.072,0.56,0.318,1.01,0.738,1.35c0.42,0.341,0.942,0.511,1.566,0.511
					c0.76,0,1.372-0.257,1.836-0.769l0.636,0.744c-0.288,0.336-0.646,0.592-1.074,0.768c-0.428,0.177-0.906,0.265-1.434,0.265
					c-0.672,0-1.268-0.139-1.788-0.414c-0.52-0.276-0.922-0.662-1.206-1.158s-0.426-1.056-0.426-1.68
					c0-0.616,0.138-1.172,0.414-1.668c0.276-0.496,0.656-0.883,1.14-1.158c0.484-0.276,1.03-0.414,1.638-0.414
					s1.15,0.138,1.626,0.414c0.476,0.275,0.848,0.662,1.116,1.158c0.269,0.496,0.402,1.063,0.402,1.704
					C276.601,85.304,276.593,85.419,276.576,85.564z M272.07,83.415c-0.372,0.336-0.59,0.776-0.654,1.32h4.08
					c-0.064-0.536-0.282-0.974-0.654-1.314c-0.372-0.34-0.834-0.51-1.386-0.51S272.442,83.079,272.07,83.415z"/>
				<path d="M280.189,82.228c0.392-0.192,0.868-0.288,1.428-0.288v1.116c-0.064-0.008-0.152-0.013-0.264-0.013
					c-0.624,0-1.114,0.187-1.47,0.559c-0.356,0.372-0.534,0.902-0.534,1.59v3.168h-1.152v-6.36h1.104v1.068
					C279.501,82.699,279.796,82.419,280.189,82.228z"/>
				<path d="M283.404,88.222c-0.479-0.141-0.856-0.318-1.128-0.534l0.48-0.912c0.279,0.2,0.62,0.36,1.02,0.48
					c0.4,0.119,0.804,0.18,1.212,0.18c1.008,0,1.512-0.288,1.512-0.864c0-0.192-0.068-0.344-0.204-0.456
					c-0.137-0.111-0.307-0.193-0.51-0.246c-0.204-0.052-0.494-0.109-0.87-0.174c-0.512-0.08-0.93-0.172-1.254-0.276
					c-0.324-0.104-0.602-0.279-0.834-0.527s-0.348-0.596-0.348-1.044c0-0.576,0.24-1.038,0.72-1.387
					c0.48-0.348,1.124-0.521,1.933-0.521c0.424,0,0.848,0.052,1.271,0.156c0.424,0.104,0.772,0.244,1.044,0.42l-0.492,0.912
					c-0.52-0.336-1.132-0.504-1.836-0.504c-0.488,0-0.86,0.08-1.116,0.239c-0.257,0.16-0.384,0.372-0.384,0.637
					c0,0.208,0.072,0.371,0.216,0.491s0.322,0.208,0.534,0.265c0.212,0.056,0.51,0.12,0.894,0.191
					c0.512,0.089,0.926,0.183,1.242,0.282c0.315,0.101,0.586,0.271,0.81,0.51c0.224,0.24,0.336,0.576,0.336,1.009
					c0,0.575-0.246,1.033-0.738,1.373c-0.492,0.341-1.162,0.511-2.01,0.511C284.385,88.432,283.885,88.362,283.404,88.222z"/>
				<path d="M292.669,87.988c-0.168,0.145-0.376,0.254-0.624,0.33s-0.504,0.114-0.768,0.114c-0.64,0-1.136-0.172-1.488-0.517
					c-0.352-0.344-0.528-0.836-0.528-1.476v-3.492h-1.08v-0.948h1.08v-1.392h1.152v1.392h1.824v0.948h-1.824v3.444
					c0,0.344,0.085,0.607,0.258,0.792c0.172,0.184,0.418,0.275,0.738,0.275c0.353,0,0.652-0.1,0.9-0.3L292.669,87.988z"/>
				<path d="M294.078,80.56c-0.148-0.145-0.222-0.32-0.222-0.528s0.074-0.386,0.222-0.534c0.148-0.147,0.334-0.222,0.558-0.222
					s0.41,0.07,0.558,0.21c0.148,0.14,0.222,0.314,0.222,0.522c0,0.216-0.074,0.397-0.222,0.546
					c-0.148,0.147-0.334,0.222-0.558,0.222S294.227,80.703,294.078,80.56z M294.061,81.999h1.151v6.36h-1.151V81.999z"/>
				<path d="M298.446,88.012c-0.508-0.28-0.906-0.666-1.194-1.158s-0.432-1.05-0.432-1.674s0.144-1.183,0.432-1.674
					c0.288-0.492,0.686-0.877,1.194-1.152c0.508-0.276,1.086-0.414,1.734-0.414c0.576,0,1.09,0.116,1.542,0.348
					c0.452,0.232,0.802,0.568,1.05,1.008l-0.876,0.564c-0.2-0.304-0.448-0.532-0.744-0.684c-0.296-0.152-0.624-0.229-0.984-0.229
					c-0.416,0-0.79,0.092-1.122,0.276c-0.332,0.184-0.592,0.446-0.78,0.786s-0.282,0.729-0.282,1.17
					c0,0.448,0.094,0.842,0.282,1.182s0.448,0.603,0.78,0.786s0.706,0.276,1.122,0.276c0.36,0,0.688-0.076,0.984-0.229
					c0.296-0.151,0.544-0.38,0.744-0.684l0.876,0.552c-0.248,0.44-0.599,0.778-1.05,1.014c-0.452,0.236-0.966,0.354-1.542,0.354
					C299.532,88.432,298.954,88.291,298.446,88.012z"/>
				<path d="M304.2,88.198c-0.16-0.156-0.24-0.354-0.24-0.594c0-0.232,0.08-0.426,0.24-0.582c0.16-0.156,0.352-0.234,0.576-0.234
					s0.412,0.076,0.564,0.229c0.152,0.151,0.228,0.348,0.228,0.588s-0.078,0.438-0.234,0.594s-0.342,0.234-0.558,0.234
					C304.552,88.432,304.36,88.354,304.2,88.198z"/>
				<path d="M308.118,88.012c-0.508-0.28-0.906-0.666-1.194-1.158s-0.432-1.05-0.432-1.674s0.144-1.183,0.432-1.674
					c0.288-0.492,0.686-0.877,1.194-1.152c0.508-0.276,1.086-0.414,1.734-0.414c0.576,0,1.09,0.116,1.542,0.348
					c0.452,0.232,0.802,0.568,1.05,1.008l-0.876,0.564c-0.2-0.304-0.448-0.532-0.744-0.684c-0.296-0.152-0.624-0.229-0.984-0.229
					c-0.416,0-0.79,0.092-1.122,0.276c-0.332,0.184-0.592,0.446-0.78,0.786s-0.282,0.729-0.282,1.17
					c0,0.448,0.094,0.842,0.282,1.182s0.448,0.603,0.78,0.786s0.706,0.276,1.122,0.276c0.36,0,0.688-0.076,0.984-0.229
					c0.296-0.151,0.544-0.38,0.744-0.684l0.876,0.552c-0.248,0.44-0.599,0.778-1.05,1.014c-0.452,0.236-0.966,0.354-1.542,0.354
					C309.204,88.432,308.626,88.291,308.118,88.012z"/>
				<path d="M314.857,88.012c-0.504-0.28-0.898-0.666-1.183-1.158c-0.284-0.492-0.426-1.05-0.426-1.674s0.142-1.183,0.426-1.674
					c0.284-0.492,0.678-0.877,1.183-1.152c0.504-0.276,1.071-0.414,1.704-0.414c0.632,0,1.198,0.138,1.698,0.414
					c0.5,0.275,0.893,0.66,1.176,1.152c0.284,0.491,0.426,1.05,0.426,1.674s-0.143,1.182-0.426,1.674s-0.676,0.878-1.176,1.158
					c-0.5,0.279-1.066,0.42-1.698,0.42C315.928,88.432,315.36,88.291,314.857,88.012z M317.658,87.142
					c0.324-0.188,0.578-0.452,0.762-0.792c0.184-0.34,0.276-0.73,0.276-1.17c0-0.44-0.092-0.83-0.276-1.17
					c-0.184-0.34-0.438-0.603-0.762-0.786c-0.324-0.185-0.69-0.276-1.098-0.276c-0.408,0-0.774,0.092-1.098,0.276
					c-0.324,0.184-0.58,0.446-0.768,0.786c-0.188,0.34-0.282,0.729-0.282,1.17c0,0.439,0.094,0.83,0.282,1.17
					c0.188,0.34,0.444,0.604,0.768,0.792c0.324,0.188,0.69,0.282,1.098,0.282C316.968,87.424,317.334,87.329,317.658,87.142z"/>
				<path d="M331.314,82.636c0.468,0.464,0.702,1.151,0.702,2.063v3.66h-1.152v-3.528c0-0.615-0.143-1.08-0.426-1.392
					c-0.284-0.312-0.69-0.468-1.218-0.468c-0.584,0-1.048,0.182-1.392,0.546c-0.344,0.364-0.516,0.886-0.516,1.565v3.276h-1.152
					v-3.528c0-0.615-0.143-1.08-0.426-1.392c-0.284-0.312-0.69-0.468-1.218-0.468c-0.584,0-1.048,0.182-1.392,0.546
					s-0.516,0.886-0.516,1.565v3.276h-1.152v-6.36h1.104v0.948c0.232-0.328,0.536-0.578,0.912-0.75s0.805-0.258,1.284-0.258
					c0.496,0,0.936,0.1,1.32,0.3c0.384,0.2,0.68,0.492,0.888,0.876c0.24-0.368,0.574-0.655,1.002-0.864
					c0.428-0.208,0.91-0.312,1.446-0.312C330.212,81.94,330.846,82.172,331.314,82.636z"/>
				<path d="M230.263,106.012c-0.508-0.28-0.906-0.666-1.194-1.158s-0.432-1.05-0.432-1.674s0.144-1.183,0.432-1.674
					c0.288-0.492,0.686-0.877,1.194-1.152c0.508-0.276,1.086-0.414,1.734-0.414c0.576,0,1.09,0.116,1.542,0.348
					c0.452,0.232,0.802,0.568,1.05,1.008l-0.876,0.564c-0.2-0.304-0.448-0.532-0.744-0.684c-0.296-0.152-0.624-0.229-0.984-0.229
					c-0.416,0-0.791,0.092-1.122,0.276c-0.332,0.184-0.592,0.446-0.78,0.786c-0.188,0.34-0.282,0.729-0.282,1.17
					c0,0.448,0.094,0.842,0.282,1.182c0.188,0.34,0.448,0.603,0.78,0.786c0.332,0.184,0.706,0.276,1.122,0.276
					c0.36,0,0.688-0.076,0.984-0.229c0.296-0.151,0.544-0.38,0.744-0.684l0.876,0.552c-0.248,0.44-0.598,0.778-1.05,1.014
					c-0.452,0.236-0.966,0.354-1.542,0.354C231.349,106.432,230.771,106.291,230.263,106.012z"/>
				<path d="M237.001,106.012c-0.504-0.28-0.898-0.666-1.182-1.158s-0.426-1.05-0.426-1.674s0.143-1.183,0.426-1.674
					c0.284-0.492,0.678-0.877,1.182-1.152c0.504-0.276,1.072-0.414,1.704-0.414c0.632,0,1.198,0.138,1.698,0.414
					c0.5,0.275,0.892,0.66,1.176,1.152c0.284,0.491,0.426,1.05,0.426,1.674s-0.142,1.182-0.426,1.674
					c-0.284,0.492-0.676,0.878-1.176,1.158c-0.5,0.279-1.066,0.42-1.698,0.42C238.073,106.432,237.505,106.291,237.001,106.012z
					 M239.803,105.142c0.324-0.188,0.578-0.452,0.762-0.792s0.276-0.73,0.276-1.17c0-0.44-0.092-0.83-0.276-1.17
					s-0.438-0.603-0.762-0.786c-0.324-0.185-0.689-0.276-1.098-0.276s-0.774,0.092-1.098,0.276c-0.324,0.184-0.58,0.446-0.768,0.786
					s-0.282,0.729-0.282,1.17c0,0.439,0.094,0.83,0.282,1.17s0.444,0.604,0.768,0.792c0.324,0.188,0.69,0.282,1.098,0.282
					S239.479,105.329,239.803,105.142z"/>
				<path d="M248.923,100.642c0.476,0.468,0.714,1.154,0.714,2.058v3.66h-1.152v-3.528c0-0.615-0.148-1.08-0.444-1.392
					c-0.296-0.312-0.72-0.468-1.272-0.468c-0.624,0-1.116,0.182-1.476,0.546c-0.36,0.364-0.54,0.886-0.54,1.565v3.276h-1.152v-6.36
					h1.104v0.96c0.231-0.327,0.546-0.579,0.941-0.756c0.396-0.176,0.846-0.264,1.351-0.264
					C247.805,99.94,248.447,100.174,248.923,100.642z"/>
				<path d="M255.349,105.988c-0.168,0.145-0.376,0.254-0.624,0.33s-0.504,0.114-0.768,0.114c-0.64,0-1.136-0.172-1.488-0.517
					c-0.353-0.344-0.528-0.836-0.528-1.476v-3.492h-1.08v-0.948h1.08v-1.392h1.152v1.392h1.824v0.948h-1.824v3.444
					c0,0.344,0.086,0.607,0.258,0.792c0.172,0.184,0.418,0.275,0.738,0.275c0.352,0,0.652-0.1,0.9-0.3L255.349,105.988z"/>
				<path d="M261.079,100.587c0.468,0.433,0.702,1.076,0.702,1.933v3.84h-1.092v-0.84c-0.192,0.296-0.466,0.521-0.822,0.678
					s-0.778,0.234-1.266,0.234c-0.712,0-1.282-0.172-1.71-0.517c-0.428-0.344-0.642-0.796-0.642-1.355
					c0-0.561,0.204-1.01,0.611-1.351c0.408-0.34,1.057-0.51,1.944-0.51h1.824v-0.228c0-0.496-0.145-0.876-0.432-1.141
					c-0.288-0.264-0.712-0.396-1.272-0.396c-0.376,0-0.744,0.062-1.104,0.186s-0.665,0.29-0.912,0.498l-0.48-0.863
					c0.328-0.265,0.72-0.467,1.176-0.606s0.94-0.21,1.452-0.21C259.937,99.94,260.61,100.156,261.079,100.587z M259.933,105.249
					c0.32-0.195,0.552-0.474,0.696-0.834v-0.888h-1.776c-0.976,0-1.464,0.328-1.464,0.984c0,0.319,0.124,0.571,0.372,0.756
					c0.248,0.184,0.592,0.275,1.032,0.275C259.232,105.543,259.612,105.446,259.933,105.249z"/>
				<path d="M264.99,106.012c-0.508-0.28-0.906-0.666-1.194-1.158s-0.432-1.05-0.432-1.674s0.144-1.183,0.432-1.674
					c0.288-0.492,0.686-0.877,1.194-1.152c0.508-0.276,1.086-0.414,1.734-0.414c0.576,0,1.09,0.116,1.542,0.348
					c0.452,0.232,0.802,0.568,1.05,1.008l-0.876,0.564c-0.2-0.304-0.448-0.532-0.744-0.684c-0.296-0.152-0.624-0.229-0.984-0.229
					c-0.416,0-0.791,0.092-1.122,0.276c-0.332,0.184-0.592,0.446-0.78,0.786c-0.188,0.34-0.282,0.729-0.282,1.17
					c0,0.448,0.094,0.842,0.282,1.182c0.188,0.34,0.448,0.603,0.78,0.786c0.332,0.184,0.706,0.276,1.122,0.276
					c0.36,0,0.688-0.076,0.984-0.229c0.296-0.151,0.544-0.38,0.744-0.684l0.876,0.552c-0.248,0.44-0.598,0.778-1.05,1.014
					c-0.452,0.236-0.966,0.354-1.542,0.354C266.076,106.432,265.498,106.291,264.99,106.012z"/>
				<path d="M274.464,105.988c-0.168,0.145-0.376,0.254-0.624,0.33s-0.504,0.114-0.768,0.114c-0.64,0-1.136-0.172-1.488-0.517
					c-0.352-0.344-0.528-0.836-0.528-1.476v-3.492h-1.08v-0.948h1.08v-1.392h1.152v1.392h1.824v0.948h-1.824v3.444
					c0,0.344,0.085,0.607,0.258,0.792c0.172,0.184,0.418,0.275,0.738,0.275c0.353,0,0.652-0.1,0.9-0.3L274.464,105.988z"/>
				<path d="M283.897,98.541c0.848,0.444,1.51,1.066,1.985,1.866c0.477,0.8,0.714,1.712,0.714,2.736s-0.188,1.828-0.564,2.412
					s-0.9,0.876-1.572,0.876c-0.384,0-0.702-0.098-0.954-0.294s-0.414-0.479-0.485-0.847c-0.24,0.368-0.555,0.65-0.942,0.847
					c-0.388,0.196-0.834,0.294-1.338,0.294c-0.56,0-1.064-0.132-1.512-0.396c-0.448-0.264-0.798-0.63-1.05-1.098
					s-0.378-0.998-0.378-1.59c0-0.584,0.126-1.11,0.378-1.578s0.602-0.832,1.05-1.092c0.447-0.26,0.952-0.391,1.512-0.391
					c0.464,0,0.884,0.086,1.26,0.258c0.376,0.173,0.688,0.427,0.937,0.763v-0.973h1.044v4.32c0,0.296,0.063,0.515,0.191,0.654
					s0.292,0.21,0.492,0.21c0.352,0,0.626-0.206,0.822-0.618c0.196-0.412,0.294-0.994,0.294-1.746c0-0.888-0.2-1.67-0.6-2.346
					s-0.962-1.202-1.686-1.578c-0.724-0.376-1.554-0.564-2.49-0.564c-0.944,0-1.778,0.196-2.502,0.589
					c-0.724,0.392-1.286,0.939-1.686,1.644c-0.4,0.704-0.601,1.508-0.601,2.412c0,0.912,0.198,1.72,0.594,2.424
					s0.952,1.254,1.668,1.65c0.716,0.396,1.542,0.594,2.478,0.594c0.392,0,0.792-0.044,1.2-0.132
					c0.408-0.089,0.78-0.221,1.116-0.396l0.264,0.769c-0.352,0.184-0.76,0.323-1.224,0.42c-0.464,0.096-0.917,0.144-1.356,0.144
					c-1.096,0-2.07-0.233-2.922-0.702c-0.852-0.468-1.514-1.118-1.986-1.949c-0.472-0.832-0.708-1.772-0.708-2.82
					s0.238-1.984,0.714-2.809c0.476-0.823,1.144-1.468,2.004-1.932s1.842-0.696,2.946-0.696
					C282.084,97.875,283.048,98.098,283.897,98.541z M281.958,105.232c0.308-0.176,0.552-0.426,0.732-0.75
					c0.18-0.324,0.27-0.702,0.27-1.134c0-0.433-0.09-0.811-0.27-1.135c-0.18-0.323-0.424-0.571-0.732-0.743
					c-0.308-0.172-0.658-0.259-1.05-0.259c-0.608,0-1.1,0.194-1.476,0.582c-0.376,0.389-0.564,0.906-0.564,1.555
					c0,0.647,0.19,1.168,0.57,1.56c0.38,0.393,0.87,0.588,1.47,0.588C281.3,105.495,281.65,105.407,281.958,105.232z"/>
				<path d="M290.736,103.396l-1.32,1.224v1.74h-1.152v-8.904h1.152v5.712l3.468-3.168h1.393l-2.676,2.628l2.94,3.732h-1.416
					L290.736,103.396z"/>
				<path d="M301.116,103.564h-5.16c0.072,0.56,0.318,1.01,0.738,1.35c0.42,0.341,0.942,0.511,1.566,0.511
					c0.76,0,1.372-0.257,1.836-0.769l0.636,0.744c-0.288,0.336-0.646,0.592-1.074,0.768c-0.428,0.177-0.906,0.265-1.434,0.265
					c-0.672,0-1.269-0.139-1.788-0.414c-0.521-0.276-0.922-0.662-1.206-1.158c-0.284-0.496-0.426-1.056-0.426-1.68
					c0-0.616,0.138-1.172,0.414-1.668s0.656-0.883,1.14-1.158c0.484-0.276,1.03-0.414,1.638-0.414c0.608,0,1.15,0.138,1.626,0.414
					c0.476,0.275,0.848,0.662,1.116,1.158s0.402,1.063,0.402,1.704C301.141,103.304,301.132,103.419,301.116,103.564z
					 M296.61,101.415c-0.372,0.336-0.59,0.776-0.654,1.32h4.08c-0.064-0.536-0.282-0.974-0.654-1.314
					c-0.372-0.34-0.834-0.51-1.386-0.51C297.444,100.911,296.982,101.079,296.61,101.415z"/>
				<path d="M304.728,100.228c0.392-0.192,0.868-0.288,1.428-0.288v1.116c-0.064-0.008-0.152-0.013-0.264-0.013
					c-0.624,0-1.114,0.187-1.47,0.559s-0.534,0.902-0.534,1.59v3.168h-1.151v-6.36h1.104v1.068
					C304.04,100.699,304.336,100.419,304.728,100.228z"/>
				<path d="M307.944,106.222c-0.48-0.141-0.856-0.318-1.128-0.534l0.479-0.912c0.28,0.2,0.62,0.36,1.021,0.48
					c0.399,0.119,0.804,0.18,1.212,0.18c1.008,0,1.512-0.288,1.512-0.864c0-0.192-0.068-0.344-0.204-0.456
					c-0.136-0.111-0.306-0.193-0.51-0.246c-0.204-0.052-0.494-0.109-0.87-0.174c-0.512-0.08-0.93-0.172-1.254-0.276
					c-0.324-0.104-0.602-0.279-0.834-0.527c-0.232-0.248-0.348-0.596-0.348-1.044c0-0.576,0.24-1.038,0.72-1.387
					c0.479-0.348,1.124-0.521,1.932-0.521c0.424,0,0.848,0.052,1.272,0.156c0.424,0.104,0.771,0.244,1.044,0.42l-0.492,0.912
					c-0.521-0.336-1.132-0.504-1.836-0.504c-0.488,0-0.86,0.08-1.116,0.239c-0.256,0.16-0.384,0.372-0.384,0.637
					c0,0.208,0.072,0.371,0.216,0.491c0.144,0.12,0.322,0.208,0.534,0.265c0.212,0.056,0.51,0.12,0.894,0.191
					c0.512,0.089,0.926,0.183,1.242,0.282c0.316,0.101,0.586,0.271,0.81,0.51c0.224,0.24,0.336,0.576,0.336,1.009
					c0,0.575-0.246,1.033-0.738,1.373c-0.492,0.341-1.162,0.511-2.01,0.511C308.924,106.432,308.424,106.362,307.944,106.222z"/>
				<path d="M317.208,105.988c-0.168,0.145-0.376,0.254-0.624,0.33s-0.504,0.114-0.768,0.114c-0.64,0-1.136-0.172-1.488-0.517
					c-0.353-0.344-0.528-0.836-0.528-1.476v-3.492h-1.08v-0.948h1.08v-1.392h1.152v1.392h1.824v0.948h-1.824v3.444
					c0,0.344,0.086,0.607,0.258,0.792c0.172,0.184,0.418,0.275,0.738,0.275c0.352,0,0.652-0.1,0.9-0.3L317.208,105.988z"/>
				<path d="M318.618,98.56c-0.148-0.145-0.223-0.32-0.223-0.528s0.074-0.386,0.223-0.534c0.147-0.147,0.333-0.222,0.558-0.222
					c0.224,0,0.41,0.07,0.558,0.21s0.222,0.314,0.222,0.522c0,0.216-0.074,0.397-0.222,0.546c-0.148,0.147-0.334,0.222-0.558,0.222
					C318.952,98.776,318.766,98.703,318.618,98.56z M318.6,99.999h1.152v6.36H318.6V99.999z"/>
				<path d="M322.985,106.012c-0.508-0.28-0.905-0.666-1.193-1.158s-0.433-1.05-0.433-1.674s0.145-1.183,0.433-1.674
					c0.288-0.492,0.686-0.877,1.193-1.152c0.508-0.276,1.086-0.414,1.734-0.414c0.576,0,1.09,0.116,1.542,0.348
					c0.452,0.232,0.802,0.568,1.05,1.008l-0.876,0.564c-0.2-0.304-0.448-0.532-0.744-0.684c-0.296-0.152-0.624-0.229-0.983-0.229
					c-0.416,0-0.791,0.092-1.122,0.276c-0.332,0.184-0.592,0.446-0.78,0.786s-0.282,0.729-0.282,1.17
					c0,0.448,0.094,0.842,0.282,1.182s0.448,0.603,0.78,0.786c0.332,0.184,0.706,0.276,1.122,0.276c0.359,0,0.688-0.076,0.983-0.229
					c0.296-0.151,0.544-0.38,0.744-0.684l0.876,0.552c-0.248,0.44-0.598,0.778-1.05,1.014c-0.452,0.236-0.966,0.354-1.542,0.354
					C324.072,106.432,323.494,106.291,322.985,106.012z"/>
				<path d="M328.74,106.198c-0.16-0.156-0.24-0.354-0.24-0.594c0-0.232,0.08-0.426,0.24-0.582c0.16-0.156,0.352-0.234,0.576-0.234
					c0.224,0,0.412,0.076,0.564,0.229c0.152,0.151,0.228,0.348,0.228,0.588s-0.078,0.438-0.233,0.594
					c-0.156,0.156-0.342,0.234-0.559,0.234C329.092,106.432,328.899,106.354,328.74,106.198z"/>
				<path d="M332.657,106.012c-0.508-0.28-0.905-0.666-1.193-1.158s-0.433-1.05-0.433-1.674s0.145-1.183,0.433-1.674
					c0.288-0.492,0.686-0.877,1.193-1.152c0.508-0.276,1.086-0.414,1.734-0.414c0.576,0,1.09,0.116,1.542,0.348
					c0.452,0.232,0.802,0.568,1.05,1.008l-0.876,0.564c-0.2-0.304-0.448-0.532-0.744-0.684c-0.296-0.152-0.624-0.229-0.983-0.229
					c-0.416,0-0.791,0.092-1.122,0.276c-0.332,0.184-0.592,0.446-0.78,0.786s-0.282,0.729-0.282,1.17
					c0,0.448,0.094,0.842,0.282,1.182s0.448,0.603,0.78,0.786c0.332,0.184,0.706,0.276,1.122,0.276c0.359,0,0.688-0.076,0.983-0.229
					c0.296-0.151,0.544-0.38,0.744-0.684l0.876,0.552c-0.248,0.44-0.598,0.778-1.05,1.014c-0.452,0.236-0.966,0.354-1.542,0.354
					C333.744,106.432,333.166,106.291,332.657,106.012z"/>
				<path d="M339.396,106.012c-0.504-0.28-0.898-0.666-1.182-1.158c-0.284-0.492-0.426-1.05-0.426-1.674s0.142-1.183,0.426-1.674
					c0.284-0.492,0.678-0.877,1.182-1.152c0.504-0.276,1.072-0.414,1.704-0.414s1.198,0.138,1.698,0.414
					c0.5,0.275,0.892,0.66,1.176,1.152c0.284,0.491,0.426,1.05,0.426,1.674s-0.142,1.182-0.426,1.674s-0.676,0.878-1.176,1.158
					c-0.5,0.279-1.066,0.42-1.698,0.42S339.899,106.291,339.396,106.012z M342.198,105.142c0.324-0.188,0.578-0.452,0.762-0.792
					c0.184-0.34,0.275-0.73,0.275-1.17c0-0.44-0.092-0.83-0.275-1.17c-0.185-0.34-0.438-0.603-0.762-0.786
					c-0.324-0.185-0.69-0.276-1.098-0.276s-0.774,0.092-1.098,0.276c-0.324,0.184-0.58,0.446-0.769,0.786
					c-0.188,0.34-0.282,0.729-0.282,1.17c0,0.439,0.094,0.83,0.282,1.17c0.188,0.34,0.444,0.604,0.769,0.792
					c0.324,0.188,0.689,0.282,1.098,0.282S341.874,105.329,342.198,105.142z"/>
				<path d="M355.854,100.636c0.468,0.464,0.702,1.151,0.702,2.063v3.66h-1.152v-3.528c0-0.615-0.142-1.08-0.426-1.392
					c-0.284-0.312-0.69-0.468-1.218-0.468c-0.584,0-1.048,0.182-1.392,0.546c-0.344,0.364-0.516,0.886-0.516,1.565v3.276h-1.152
					v-3.528c0-0.615-0.142-1.08-0.426-1.392c-0.284-0.312-0.69-0.468-1.218-0.468c-0.584,0-1.048,0.182-1.392,0.546
					c-0.344,0.364-0.516,0.886-0.516,1.565v3.276h-1.152v-6.36h1.104v0.948c0.232-0.328,0.536-0.578,0.912-0.75
					s0.804-0.258,1.284-0.258c0.496,0,0.936,0.1,1.319,0.3c0.384,0.2,0.68,0.492,0.889,0.876c0.24-0.368,0.573-0.655,1.002-0.864
					c0.428-0.208,0.91-0.312,1.446-0.312C354.752,99.94,355.386,100.172,355.854,100.636z"/>
				<path d="M230.365,123.97c-0.528-0.34-0.944-0.836-1.248-1.488s-0.456-1.426-0.456-2.322c0-0.896,0.151-1.67,0.456-2.322
					c0.304-0.651,0.72-1.147,1.248-1.487s1.128-0.51,1.8-0.51s1.273,0.17,1.806,0.51s0.95,0.836,1.254,1.487
					c0.304,0.652,0.456,1.427,0.456,2.322c0,0.896-0.152,1.67-0.456,2.322c-0.304,0.652-0.722,1.148-1.254,1.488
					s-1.134,0.51-1.806,0.51S230.893,124.31,230.365,123.97z M233.587,122.379c0.348-0.495,0.522-1.235,0.522-2.22
					c0-0.983-0.174-1.724-0.522-2.22c-0.348-0.496-0.822-0.744-1.422-0.744c-0.592,0-1.062,0.248-1.41,0.744
					c-0.348,0.496-0.522,1.236-0.522,2.22c0,0.984,0.174,1.725,0.522,2.22c0.348,0.497,0.818,0.744,1.41,0.744
					C232.765,123.123,233.239,122.876,233.587,122.379z"/>
				<path d="M242.041,119.493c0.439,0.212,0.784,0.515,1.032,0.906c0.248,0.392,0.372,0.844,0.372,1.356
					c0,0.544-0.136,1.021-0.408,1.434s-0.64,0.73-1.104,0.954s-0.984,0.336-1.56,0.336c-1.152,0-2.046-0.36-2.683-1.08
					c-0.636-0.72-0.954-1.752-0.954-3.096c0-0.944,0.172-1.75,0.516-2.418c0.344-0.668,0.826-1.177,1.446-1.524
					c0.62-0.348,1.338-0.521,2.154-0.521c0.432,0,0.838,0.046,1.218,0.138c0.38,0.092,0.709,0.226,0.99,0.401l-0.576,1.177
					c-0.416-0.272-0.948-0.408-1.596-0.408c-0.808,0-1.44,0.248-1.896,0.744s-0.684,1.212-0.684,2.147v0.013
					c0.248-0.288,0.564-0.506,0.948-0.654s0.816-0.222,1.296-0.222C241.105,119.176,241.601,119.282,242.041,119.493z
					 M241.477,122.866c0.304-0.26,0.456-0.605,0.456-1.038c0-0.439-0.152-0.788-0.456-1.044c-0.304-0.256-0.712-0.384-1.224-0.384
					c-0.504,0-0.914,0.136-1.23,0.408c-0.316,0.271-0.474,0.616-0.474,1.032c0,0.407,0.154,0.745,0.462,1.014
					c0.308,0.268,0.734,0.402,1.278,0.402C240.776,123.256,241.173,123.125,241.477,122.866z"/>
				<path d="M253.908,115.959v1.044l-3.264,7.356h-1.668l3.156-7.08h-3.3v1.428h-1.452v-2.748H253.908z"/>
				<path d="M257.892,115.959v8.4h-1.56v-7.092h-1.776v-1.309H257.892z"/>
				<path d="M264.576,123.97c-0.528-0.34-0.944-0.836-1.248-1.488c-0.304-0.652-0.456-1.426-0.456-2.322
					c0-0.896,0.152-1.67,0.456-2.322c0.304-0.651,0.72-1.147,1.248-1.487c0.528-0.34,1.128-0.51,1.8-0.51s1.274,0.17,1.806,0.51
					c0.532,0.34,0.95,0.836,1.254,1.487c0.304,0.652,0.456,1.427,0.456,2.322c0,0.896-0.152,1.67-0.456,2.322
					s-0.722,1.148-1.254,1.488c-0.532,0.34-1.134,0.51-1.806,0.51S265.104,124.31,264.576,123.97z M267.798,122.379
					c0.348-0.495,0.522-1.235,0.522-2.22c0-0.983-0.174-1.724-0.522-2.22c-0.348-0.496-0.822-0.744-1.422-0.744
					c-0.592,0-1.062,0.248-1.41,0.744c-0.348,0.496-0.521,1.236-0.521,2.22c0,0.984,0.174,1.725,0.521,2.22
					c0.348,0.497,0.818,0.744,1.41,0.744C266.976,123.123,267.45,122.876,267.798,122.379z"/>
				<path d="M276.972,123.039v1.32h-6.192v-1.044l3.336-3.168c0.376-0.36,0.63-0.674,0.762-0.942
					c0.132-0.268,0.198-0.534,0.198-0.798c0-0.392-0.132-0.691-0.396-0.899s-0.652-0.312-1.164-0.312
					c-0.856,0-1.512,0.292-1.968,0.876l-1.092-0.84c0.328-0.44,0.77-0.782,1.326-1.026c0.556-0.243,1.178-0.365,1.866-0.365
					c0.912,0,1.64,0.216,2.184,0.647s0.816,1.021,0.816,1.764c0,0.456-0.097,0.885-0.288,1.284c-0.192,0.4-0.561,0.856-1.104,1.368
					l-2.244,2.136H276.972z"/>
				<path d="M284.088,115.959v8.4h-1.56v-7.092h-1.776v-1.309H284.088z"/>
				<path d="M291.06,119.493c0.44,0.212,0.784,0.515,1.032,0.906c0.248,0.392,0.372,0.844,0.372,1.356
					c0,0.544-0.137,1.021-0.408,1.434c-0.272,0.412-0.64,0.73-1.104,0.954c-0.464,0.224-0.984,0.336-1.56,0.336
					c-1.152,0-2.046-0.36-2.682-1.08s-0.954-1.752-0.954-3.096c0-0.944,0.172-1.75,0.516-2.418s0.826-1.177,1.446-1.524
					c0.62-0.348,1.338-0.521,2.154-0.521c0.432,0,0.838,0.046,1.218,0.138c0.38,0.092,0.709,0.226,0.99,0.401l-0.576,1.177
					c-0.416-0.272-0.948-0.408-1.596-0.408c-0.808,0-1.439,0.248-1.896,0.744s-0.684,1.212-0.684,2.147v0.013
					c0.248-0.288,0.564-0.506,0.948-0.654s0.816-0.222,1.296-0.222C290.124,119.176,290.619,119.282,291.06,119.493z
					 M290.496,122.866c0.304-0.26,0.456-0.605,0.456-1.038c0-0.439-0.152-0.788-0.456-1.044s-0.712-0.384-1.224-0.384
					c-0.504,0-0.914,0.136-1.23,0.408c-0.316,0.271-0.474,0.616-0.474,1.032c0,0.407,0.154,0.745,0.462,1.014
					c0.308,0.268,0.734,0.402,1.278,0.402C289.795,123.256,290.191,123.125,290.496,122.866z"/>
				<path d="M304.08,122.451h-1.488v1.908h-1.512v-1.908h-4.608v-1.08l4.14-5.412h1.668l-3.9,5.173h2.748v-1.692h1.464v1.692h1.488
					V122.451z"/>
				<path d="M309.971,120.22c0.408,0.432,0.612,0.972,0.612,1.62c0,0.487-0.124,0.932-0.372,1.331
					c-0.249,0.4-0.623,0.719-1.122,0.954c-0.5,0.236-1.11,0.354-1.83,0.354c-0.6,0-1.178-0.086-1.734-0.258
					c-0.556-0.172-1.03-0.41-1.422-0.714l0.672-1.213c0.304,0.257,0.674,0.459,1.11,0.606c0.436,0.148,0.886,0.222,1.35,0.222
					c0.552,0,0.986-0.113,1.302-0.342c0.316-0.228,0.474-0.538,0.474-0.93s-0.15-0.698-0.45-0.918c-0.3-0.22-0.758-0.33-1.374-0.33
					h-0.769v-1.068l1.908-2.268h-3.816v-1.309h5.724v1.044l-2.04,2.425C308.971,119.524,309.564,119.787,309.971,120.22z"/>
			</g>
		</g>
		<g>
			<g>
				<g>
					<path fill-rule="evenodd" clip-rule="evenodd" fill="#1B4D4D" d="M21.148,61.586l25.235-23.43H35.902
						c-4.513,0-8.436,1.527-11.733,4.582L11.985,53.88V38.156h-2.95c-2.5,0-4.615,0.868-6.386,2.638
						c-1.77,1.771-2.638,3.886-2.638,6.386v30.996c0,0.487,0.034,0.973,0.105,1.459v0.277c0,3.227,1.145,5.693,3.402,7.461
						c0.068,0.07,0.139,0.141,0.244,0.175l9.264,5.9c0.453,0.277,0.973,0.418,1.494,0.418c0.486,0,0.939-0.105,1.354-0.348
						c1.007-0.52,1.494-1.354,1.494-2.466V74.358l9.649,8.991c3.298,3.054,7.22,4.582,11.731,4.582h11.004L21.148,61.586z"/>
					<path fill-rule="evenodd" clip-rule="evenodd" fill="#A57135" d="M14.519,91.052l-9.268-5.9
						c-1.561-1.216-2.325-2.949-2.325-5.24V48.325c0.21,2.534,1.805,4.757,4.825,6.666c1.075,0.659,2.602,1.561,4.582,2.673
						c1.457,0.832,2.186,2.254,2.186,4.234V91.052z"/>
				</g>
				<g>
					<path fill="#1B4D4D" d="M86.735,48.543c-1.077,0.427-1.864,0.814-2.364,1.164c-0.501,0.35-0.776,0.551-0.825,0.6l-1.276-1.726
						H73.27c0.1,0.45,0.201,1.001,0.301,1.65c0.1,0.651,0.15,1.425,0.15,2.326v31.428c0,0.85-0.038,1.488-0.112,1.912
						c-0.076,0.427-0.164,0.863-0.263,1.313h11.026c-0.2-0.499-0.337-0.937-0.412-1.313c-0.074-0.375-0.112-1.013-0.112-1.912
						V58.783c0-0.4,0.061-0.888,0.187-1.463c0.125-0.575,0.424-1.126,0.9-1.65c0.475-0.526,1.201-0.976,2.175-1.351
						c0.975-0.375,2.288-0.562,3.938-0.562h1.124v-5.85h-1.875C88.996,47.907,87.808,48.12,86.735,48.543z"/>
					<path fill="#1B4D4D" d="M113.023,66.058c-0.701-0.248-1.4-0.45-2.101-0.6c-0.701-0.15-1.4-0.35-2.101-0.6
						c-0.999-0.301-1.8-0.613-2.399-0.938c-0.6-0.325-1.05-0.686-1.35-1.087c-0.301-0.4-0.501-0.874-0.6-1.425
						c-0.101-0.549-0.151-1.25-0.151-2.101v-4.351c0-2,0.99-3,2.968-3c1.384,0,2.361,0.4,2.93,1.2c0.569,0.8,0.852,2,0.852,3.6
						v4.351h7.577v-12.45c-1.5-0.25-3.102-0.438-4.801-0.562c-1.7-0.125-3.269-0.188-4.703-0.188h-4.522
						c-3,0-5.363,0.476-7.089,1.425c-1.725,0.95-2.588,2.549-2.588,4.799v8.476c0,0.75,0.049,1.438,0.15,2.063
						c0.101,0.625,0.312,1.189,0.638,1.688c0.324,0.499,0.813,0.949,1.462,1.349c0.649,0.402,1.501,0.776,2.551,1.126
						c1.05,0.35,2.036,0.65,2.962,0.899c0.924,0.25,1.962,0.5,3.112,0.751c1.05,0.25,2,0.674,2.85,1.274
						c0.85,0.6,1.276,1.551,1.276,2.85v6.076c0,2.152-1.001,3.225-3,3.225c-0.852,0-1.614-0.337-2.287-1.013
						c-0.676-0.675-1.012-1.962-1.012-3.862v-5.776h-8.327v13.726c1.6,0.4,3.399,0.648,5.401,0.749c2,0.101,3.8,0.151,5.401,0.151h3
						c3.7,0,6.363-0.526,7.988-1.577c1.624-1.048,2.437-2.774,2.437-5.174v-9.076c0-1.65-0.486-2.875-1.462-3.675
						C117.111,67.583,115.423,66.807,113.023,66.058z"/>
					<path fill="#1B4D4D" d="M65.545,48.844c-0.951-0.423-2.239-0.686-3.864-0.787c-1.624-0.099-3.711-0.15-6.262-0.15
						c-2.301,0-4.238,0.063-5.813,0.188c-1.575,0.124-2.863,0.412-3.863,0.861c-0.999,0.45-1.724,1.113-2.174,1.989
						c-0.451,0.876-0.676,2.063-0.676,3.562v22.926l11.351,10.444c0.244,0.002,0.472,0.008,0.725,0.008
						c2.75,0,4.976-0.101,6.676-0.301c1.699-0.2,3.025-0.562,3.974-1.088c0.95-0.524,1.6-1.249,1.951-2.174
						c0.35-0.925,0.525-2.112,0.525-3.564v-9h-9.75v9.076c0,0.901-0.188,1.575-0.564,2.025c-0.374,0.451-1.037,0.675-1.987,0.675
						c-0.949,0-1.638-0.174-2.063-0.526c-0.425-0.348-0.637-1.024-0.637-2.025V67.708h15.002V54.281
						c0-1.499-0.188-2.674-0.563-3.524C67.158,49.907,66.495,49.269,65.545,48.844z M58.269,64.108h-5.176v-9.901
						c0-1.5,0.876-2.25,2.626-2.25c1.699,0,2.55,0.724,2.55,2.174V64.108z"/>
					<path fill="#1B4D4D" d="M137.023,82.334c-0.551-0.701-0.826-2.075-0.826-4.125V52.332h5.252v-3.751h-5.326v-8.775l-10.05,1.726
						v7.05h-3.151v3.751h3.151v28.502c0,1.501,0.236,2.7,0.712,3.601c0.475,0.9,1.149,1.587,2.025,2.061
						c0.875,0.478,1.951,0.775,3.227,0.901c1.273,0.125,2.711,0.188,4.312,0.188c0.799,0,1.724-0.05,2.775-0.15
						c1.05-0.1,1.9-0.2,2.551-0.3c0.649-0.1,1.023-0.15,1.124-0.15v-3.599h-3C138.498,83.385,137.573,83.036,137.023,82.334z"/>
					<path fill="#1B4D4D" d="M175.949,71.608v8.851c0,1.9-0.875,2.85-2.625,2.85c-0.75,0-1.362-0.201-1.837-0.6
						c-0.476-0.4-0.712-1.149-0.712-2.25V55.331c0-1,0.225-1.811,0.679-2.437c0.451-0.624,1.406-0.937,2.864-0.937
						c0.752,0,1.343,0.101,1.772,0.299c0.426,0.202,0.754,0.476,0.979,0.825c0.226,0.351,0.365,0.726,0.415,1.126
						c0.051,0.4,0.076,0.776,0.076,1.124v7.051h7.916V48.807c-0.05,0-0.374-0.076-0.975-0.225c-0.6-0.15-1.789-0.312-3.563-0.487
						c-1.777-0.175-4.138-0.263-7.088-0.263c-2.402,0-4.413,0.1-6.039,0.299c-1.624,0.201-2.926,0.526-3.9,0.976
						c-0.975,0.449-1.663,1.075-2.063,1.875c-0.4,0.8-0.6,1.8-0.6,3v27.001c0,1.351,0.137,2.47,0.413,3.359
						c0.273,0.888,0.85,1.598,1.726,2.132c0.874,0.533,2.099,0.901,3.675,1.105c1.574,0.203,3.637,0.306,6.188,0.306
						c2.749,0,4.961-0.115,6.637-0.343c1.675-0.23,2.963-0.624,3.862-1.182c0.901-0.559,1.5-1.306,1.801-2.244
						c0.299-0.937,0.449-2.081,0.449-3.431v-9.076H175.949z"/>
					<path fill="#1B4D4D" d="M154.836,38.973c-0.875-0.545-2.314-0.817-4.312-0.817c-2.202,0-3.713,0.285-4.538,0.855
						c-0.826,0.568-1.238,1.471-1.238,2.708c0,1.288,0.412,2.228,1.238,2.821c0.825,0.594,2.287,0.891,4.386,0.891
						c2.101,0,3.589-0.298,4.464-0.891c0.874-0.593,1.312-1.533,1.312-2.821C156.148,40.433,155.711,39.518,154.836,38.973z"/>
					<path fill="#1B4D4D" d="M155.624,83.985V48.581h-10.577c0.1,0.45,0.2,1.001,0.301,1.65c0.1,0.651,0.15,1.425,0.15,2.326v31.428
						c0,0.85-0.038,1.488-0.112,1.912c-0.076,0.427-0.164,0.863-0.263,1.313h11.026c-0.2-0.499-0.336-0.937-0.412-1.313
						C155.662,85.521,155.624,84.884,155.624,83.985z"/>
				</g>
			</g>
			<g>
				<path fill="#7B838B" d="M7.212,106.27H2.351l-1.006,2.286H0l4.142-9.146h1.293l4.155,9.146H8.218L7.212,106.27z M6.755,105.224
					l-1.973-4.482l-1.973,4.482H6.755z"/>
				<path fill="#7B838B" d="M10.949,99.41h3.855c0.967,0,1.825,0.192,2.574,0.575c0.749,0.383,1.331,0.921,1.744,1.614
					c0.413,0.692,0.621,1.487,0.621,2.384c0,0.897-0.207,1.692-0.621,2.384c-0.414,0.693-0.995,1.23-1.744,1.614
					c-0.749,0.384-1.607,0.575-2.574,0.575h-3.855V99.41z M14.725,107.419c0.74,0,1.392-0.144,1.953-0.431
					c0.562-0.288,0.995-0.691,1.3-1.209c0.305-0.518,0.457-1.117,0.457-1.797s-0.152-1.278-0.457-1.797
					c-0.305-0.518-0.738-0.921-1.3-1.209c-0.562-0.287-1.213-0.431-1.953-0.431h-2.469v6.873H14.725z"/>
				<path fill="#7B838B" d="M29.607,99.41v9.146H28.3v-4.076h-5.252v4.076h-1.307V99.41h1.307v3.933H28.3V99.41H29.607z"/>
				<path fill="#7B838B" d="M38.987,107.419v1.136H32.35V99.41h6.454v1.136h-5.148v2.809h4.586v1.111h-4.586v2.953H38.987z
					 M36.387,96.966h1.594l-2.195,1.698H34.61L36.387,96.966z"/>
				<path fill="#7B838B" d="M41.777,108.34c-0.64-0.214-1.144-0.489-1.509-0.83l0.483-1.019c0.348,0.314,0.795,0.568,1.339,0.764
					c0.545,0.196,1.104,0.294,1.679,0.294c0.758,0,1.324-0.129,1.698-0.386c0.375-0.256,0.562-0.599,0.562-1.025
					c0-0.314-0.103-0.569-0.307-0.764c-0.205-0.196-0.457-0.346-0.758-0.451c-0.3-0.105-0.725-0.223-1.274-0.354
					c-0.688-0.165-1.244-0.33-1.666-0.496c-0.423-0.166-0.784-0.421-1.084-0.764c-0.3-0.344-0.451-0.808-0.451-1.392
					c0-0.487,0.128-0.928,0.385-1.319c0.257-0.392,0.647-0.706,1.17-0.941c0.523-0.235,1.171-0.353,1.947-0.353
					c0.54,0,1.071,0.069,1.594,0.208c0.522,0.14,0.971,0.34,1.345,0.602L46.5,101.16c-0.384-0.243-0.793-0.428-1.228-0.555
					c-0.436-0.126-0.862-0.189-1.28-0.189c-0.74,0-1.296,0.135-1.666,0.405c-0.37,0.27-0.555,0.618-0.555,1.045
					c0,0.314,0.104,0.568,0.314,0.764c0.209,0.196,0.468,0.348,0.777,0.457c0.309,0.109,0.73,0.225,1.261,0.346
					c0.688,0.166,1.241,0.331,1.659,0.497c0.418,0.166,0.778,0.418,1.078,0.757c0.3,0.34,0.451,0.797,0.451,1.372
					c0,0.479-0.131,0.917-0.392,1.313c-0.262,0.396-0.658,0.71-1.189,0.94c-0.531,0.231-1.185,0.346-1.96,0.346
					C43.081,108.66,42.417,108.554,41.777,108.34z"/>
				<path fill="#7B838B" d="M49.217,99.41h1.307v9.146h-1.307V99.41z"/>
				<path fill="#7B838B" d="M54.574,100.546v3.188h4.586v1.124h-4.586v3.697h-1.307V99.41h6.454v1.136H54.574z"/>
				<path fill="#7B838B" d="M62.198,108.34c-0.64-0.214-1.143-0.489-1.509-0.83l0.483-1.019c0.348,0.314,0.795,0.568,1.339,0.764
					c0.544,0.196,1.104,0.294,1.679,0.294c0.758,0,1.324-0.129,1.698-0.386c0.375-0.256,0.562-0.599,0.562-1.025
					c0-0.314-0.103-0.569-0.307-0.764c-0.205-0.196-0.457-0.346-0.758-0.451c-0.3-0.105-0.725-0.223-1.274-0.354
					c-0.688-0.165-1.243-0.33-1.666-0.496c-0.423-0.166-0.784-0.421-1.084-0.764c-0.301-0.344-0.451-0.808-0.451-1.392
					c0-0.487,0.129-0.928,0.386-1.319c0.256-0.392,0.646-0.706,1.169-0.941c0.523-0.235,1.172-0.353,1.947-0.353
					c0.54,0,1.071,0.069,1.594,0.208c0.523,0.14,0.971,0.34,1.346,0.602l-0.431,1.044c-0.383-0.243-0.792-0.428-1.228-0.555
					c-0.435-0.126-0.862-0.189-1.28-0.189c-0.74,0-1.295,0.135-1.666,0.405c-0.37,0.27-0.555,0.618-0.555,1.045
					c0,0.314,0.105,0.568,0.314,0.764c0.209,0.196,0.468,0.348,0.778,0.457c0.309,0.109,0.729,0.225,1.261,0.346
					c0.688,0.166,1.241,0.331,1.66,0.497c0.418,0.166,0.777,0.418,1.078,0.757c0.3,0.34,0.451,0.797,0.451,1.372
					c0,0.479-0.131,0.917-0.392,1.313c-0.261,0.396-0.658,0.71-1.189,0.94c-0.531,0.231-1.184,0.346-1.959,0.346
					C63.503,108.66,62.838,108.554,62.198,108.34z"/>
				<path fill="#7B838B" d="M79.516,100.259c0.68,0.566,1.019,1.346,1.019,2.339c0,0.992-0.34,1.772-1.019,2.338
					c-0.679,0.567-1.612,0.849-2.796,0.849h-2.26v2.77h-1.306V99.41h3.567C77.905,99.41,78.837,99.693,79.516,100.259z
					 M78.576,104.12c0.435-0.353,0.654-0.859,0.654-1.522s-0.218-1.17-0.654-1.523c-0.435-0.353-1.067-0.529-1.895-0.529H74.46
					v4.103h2.221C77.509,104.649,78.14,104.473,78.576,104.12z"/>
				<path fill="#7B838B" d="M89.093,107.419v1.136h-6.637V99.41h6.454v1.136h-5.148v2.809h4.586v1.111h-4.586v2.953H89.093z"/>
				<path fill="#7B838B" d="M97.325,108.556l-1.973-2.809c-0.244,0.017-0.435,0.027-0.575,0.027h-2.26v2.783H91.21V99.41h3.567
					c1.184,0,2.117,0.283,2.796,0.849c0.68,0.566,1.019,1.346,1.019,2.339c0,0.705-0.174,1.306-0.523,1.803
					c-0.348,0.497-0.845,0.858-1.489,1.084l2.169,3.071H97.325z M96.632,104.127c0.435-0.358,0.654-0.867,0.654-1.529
					s-0.218-1.17-0.654-1.523c-0.435-0.353-1.067-0.529-1.895-0.529h-2.221v4.116h2.221
					C95.565,104.662,96.197,104.484,96.632,104.127z"/>
				<path fill="#7B838B" d="M101.381,108.34c-0.64-0.214-1.143-0.489-1.509-0.83l0.483-1.019c0.348,0.314,0.795,0.568,1.339,0.764
					c0.544,0.196,1.104,0.294,1.679,0.294c0.758,0,1.324-0.129,1.698-0.386c0.375-0.256,0.562-0.599,0.562-1.025
					c0-0.314-0.103-0.569-0.307-0.764c-0.205-0.196-0.457-0.346-0.758-0.451c-0.3-0.105-0.725-0.223-1.274-0.354
					c-0.688-0.165-1.243-0.33-1.666-0.496c-0.423-0.166-0.784-0.421-1.084-0.764c-0.301-0.344-0.451-0.808-0.451-1.392
					c0-0.487,0.129-0.928,0.386-1.319c0.257-0.392,0.646-0.706,1.169-0.941s1.172-0.353,1.947-0.353c0.54,0,1.071,0.069,1.594,0.208
					c0.523,0.14,0.971,0.34,1.346,0.602l-0.431,1.044c-0.383-0.243-0.792-0.428-1.228-0.555c-0.435-0.126-0.862-0.189-1.28-0.189
					c-0.74,0-1.295,0.135-1.666,0.405s-0.555,0.618-0.555,1.045c0,0.314,0.105,0.568,0.314,0.764
					c0.209,0.196,0.468,0.348,0.778,0.457c0.309,0.109,0.729,0.225,1.261,0.346c0.688,0.166,1.241,0.331,1.66,0.497
					c0.418,0.166,0.777,0.418,1.078,0.757c0.3,0.34,0.451,0.797,0.451,1.372c0,0.479-0.131,0.917-0.392,1.313
					c-0.261,0.396-0.658,0.71-1.189,0.94c-0.531,0.231-1.184,0.346-1.959,0.346C102.686,108.66,102.022,108.554,101.381,108.34z"/>
				<path fill="#7B838B" d="M110.455,108.053c-0.74-0.406-1.322-0.965-1.744-1.679s-0.634-1.511-0.634-2.391
					c0-0.88,0.211-1.677,0.634-2.391s1.004-1.273,1.744-1.679c0.74-0.405,1.572-0.607,2.495-0.607c0.915,0,1.742,0.202,2.483,0.607
					c0.74,0.406,1.319,0.963,1.738,1.673c0.418,0.71,0.627,1.509,0.627,2.397c0,0.888-0.209,1.688-0.627,2.397
					c-0.418,0.71-0.998,1.267-1.738,1.673c-0.74,0.405-1.568,0.607-2.483,0.607C112.028,108.66,111.196,108.458,110.455,108.053z
					 M114.761,107.04c0.535-0.305,0.958-0.726,1.267-1.261s0.464-1.134,0.464-1.797s-0.155-1.261-0.464-1.797
					s-0.732-0.955-1.267-1.261c-0.536-0.305-1.139-0.457-1.81-0.457c-0.671,0-1.278,0.152-1.823,0.457
					c-0.545,0.306-0.971,0.726-1.28,1.261c-0.309,0.535-0.464,1.134-0.464,1.797s0.155,1.261,0.464,1.797
					c0.309,0.535,0.736,0.956,1.28,1.261c0.544,0.305,1.152,0.457,1.823,0.457C113.622,107.497,114.225,107.345,114.761,107.04z"/>
				<path fill="#7B838B" d="M127.663,99.41v9.146h-1.071l-5.488-6.82v6.82h-1.307V99.41h1.071l5.488,6.82v-6.82H127.663z"/>
				<path fill="#7B838B" d="M138.272,99.41v9.146h-1.071l-5.488-6.82v6.82h-1.307V99.41h1.071l5.487,6.82v-6.82H138.272z"/>
				<path fill="#7B838B" d="M146.843,106.27h-4.86l-1.006,2.286h-1.346l4.142-9.146h1.294l4.155,9.146h-1.372L146.843,106.27z
					 M146.385,105.224l-1.973-4.482l-1.973,4.482H146.385z"/>
				<path fill="#7B838B" d="M150.58,99.41h1.307v8.01h4.952v1.136h-6.258V99.41z"/>
				<path fill="#7B838B" d="M158.341,99.41h1.306v9.146h-1.306V99.41z"/>
				<path fill="#7B838B" d="M163.064,108.34c-0.64-0.214-1.144-0.489-1.509-0.83l0.483-1.019c0.348,0.314,0.795,0.568,1.339,0.764
					c0.545,0.196,1.104,0.294,1.679,0.294c0.758,0,1.324-0.129,1.698-0.386c0.375-0.256,0.562-0.599,0.562-1.025
					c0-0.314-0.103-0.569-0.307-0.764c-0.205-0.196-0.457-0.346-0.758-0.451c-0.3-0.105-0.725-0.223-1.274-0.354
					c-0.688-0.165-1.244-0.33-1.666-0.496c-0.423-0.166-0.784-0.421-1.084-0.764c-0.3-0.344-0.451-0.808-0.451-1.392
					c0-0.487,0.128-0.928,0.385-1.319c0.257-0.392,0.647-0.706,1.17-0.941s1.171-0.353,1.947-0.353c0.54,0,1.071,0.069,1.594,0.208
					c0.522,0.14,0.971,0.34,1.345,0.602l-0.431,1.044c-0.384-0.243-0.793-0.428-1.228-0.555c-0.436-0.126-0.862-0.189-1.28-0.189
					c-0.74,0-1.296,0.135-1.666,0.405c-0.37,0.27-0.555,0.618-0.555,1.045c0,0.314,0.104,0.568,0.314,0.764
					c0.209,0.196,0.468,0.348,0.777,0.457c0.309,0.109,0.73,0.225,1.261,0.346c0.688,0.166,1.241,0.331,1.659,0.497
					c0.418,0.166,0.778,0.418,1.078,0.757c0.3,0.34,0.451,0.797,0.451,1.372c0,0.479-0.131,0.917-0.392,1.313
					c-0.262,0.396-0.658,0.71-1.189,0.94c-0.531,0.231-1.185,0.346-1.96,0.346C164.368,108.66,163.704,108.554,163.064,108.34z"/>
				<path fill="#7B838B" d="M177.142,107.419v1.136h-6.637V99.41h6.454v1.136h-5.148v2.809h4.586v1.111h-4.586v2.953H177.142z
					 M174.541,96.966h1.594l-2.195,1.698h-1.176L174.541,96.966z"/>
				<path fill="#7B838B" d="M179.931,108.34c-0.64-0.214-1.144-0.489-1.509-0.83l0.483-1.019c0.348,0.314,0.795,0.568,1.339,0.764
					c0.545,0.196,1.104,0.294,1.679,0.294c0.758,0,1.324-0.129,1.698-0.386c0.375-0.256,0.562-0.599,0.562-1.025
					c0-0.314-0.103-0.569-0.307-0.764c-0.205-0.196-0.457-0.346-0.758-0.451c-0.3-0.105-0.725-0.223-1.274-0.354
					c-0.688-0.165-1.244-0.33-1.666-0.496c-0.423-0.166-0.784-0.421-1.084-0.764c-0.3-0.344-0.451-0.808-0.451-1.392
					c0-0.487,0.128-0.928,0.385-1.319c0.257-0.392,0.647-0.706,1.17-0.941s1.171-0.353,1.947-0.353c0.54,0,1.071,0.069,1.594,0.208
					c0.522,0.14,0.971,0.34,1.345,0.602l-0.431,1.044c-0.384-0.243-0.793-0.428-1.228-0.555c-0.436-0.126-0.862-0.189-1.28-0.189
					c-0.74,0-1.296,0.135-1.666,0.405c-0.37,0.27-0.555,0.618-0.555,1.045c0,0.314,0.104,0.568,0.314,0.764
					c0.209,0.196,0.468,0.348,0.777,0.457c0.309,0.109,0.73,0.225,1.261,0.346c0.688,0.166,1.241,0.331,1.659,0.497
					c0.418,0.166,0.778,0.418,1.078,0.757c0.3,0.34,0.451,0.797,0.451,1.372c0,0.479-0.131,0.917-0.392,1.313
					c-0.262,0.396-0.658,0.71-1.189,0.94c-0.531,0.231-1.185,0.346-1.96,0.346C181.235,108.66,180.572,108.554,179.931,108.34z"/>
			</g>
		</g>
		<rect x="218.146" fill="#282A27" width="2" height="150"/>
	</g>
</g>
</svg>
