<?xml version="1.0" encoding="UTF-8"?>
<svg xmlns="http://www.w3.org/2000/svg" version="1.1" viewBox="0 0 274.427 65.96">
  <g isolation="isolate">
    <g id="Calque_1" data-name="Calque 1">
      <g>
        <rect x="102.209" y="30.675" width="69.137" height="8.886" fill="#c00418" stroke-width="0"/>
        <path d="M65.187,17.847c-9.13-1.007-13.928,9.898-5.867,16.417-5.69,0-9.323-3.077-12.387-8.475-.176-.31-.712-1.235-.712-1.235,0,0-.528.933-.703,1.244-3.042,5.41-6.698,8.475-12.387,8.475l-.464-.005h0s-1.072.001-1.072.001c1.147-2.245,3.262-3.636,4.249-4.928,1.108-1.366,1.772-3.107,1.772-5.005,0-4.392-3.561-7.952-7.953-7.952s-7.953,3.561-7.953,7.952c0,1.897.665,3.638,1.773,5.005.918,1.203,2.813,2.491,3.996,4.472-.569-.158-.91-.302-1.09-.379-2.524-1.074-4.015-3.415-5.396-4.468-1.366-1.109-3.108-1.773-5.005-1.773-4.373,0-7.919,3.529-7.951,7.894h-.002c0,.01.001.02.001.03,0,.01-.001.02-.001.03h.002c.032,4.365,3.579,7.894,7.951,7.894,1.897,0,3.638-.665,5.005-1.772,1.38-1.054,2.871-3.395,5.396-4.468.18-.077.521-.22,1.09-.378-1.183,1.981-3.079,3.269-3.996,4.471-1.108,1.366-1.773,3.108-1.773,5.005,0,4.393,3.561,7.953,7.953,7.953s7.953-3.561,7.953-7.953c0-1.897-.665-3.638-1.772-5.005-.987-1.292-3.101-2.683-4.249-4.928h1.072s.464-.004.464-.004c5.69,0,9.409,3.03,12.387,8.475.179.327.703,1.315.703,1.315,0,0,.536-.925.712-1.234,3.064-5.398,6.697-8.475,12.387-8.475-8.06,6.519-3.262,17.424,5.867,16.417,8.596-.949,11.913-15.824,25.129-17.306-13.216-1.481-16.533-16.357-25.129-17.306ZM53.215,35.174c-2.751,1.215-5.274,3.324-6.913,6.079-1.638-2.755-4.161-4.864-6.912-6.079l-.089-.003.042-.018-.042-.018.089-.003c2.751-1.215,5.274-3.324,6.912-6.079,1.639,2.755,4.162,4.864,6.913,6.079,0,0,.024.011.047.021-.023.011-.047.021-.047.021ZM69.503,35.153c2.138,1.513,2.223,2.727,2.223,3.479.001,1.607-1.333,3.035-3.305,2.821-2.85-.308-5.245-6.332-9.094-6.3h.005-.005.006l.4-.019c3.614-.371,5.939-5.984,8.687-6.281,1.972-.213,3.306,1.215,3.305,2.822,0,.751-.086,1.965-2.223,3.478h-.003.003Z" fill="#c00418" stroke-width="0"/>
        <g>
          <path d="M124.133,15.449c-.1-.551-.234-1.178-.4-1.879h13.25c1.833,0,3.183.317,4.05.951.866.635,1.3,1.753,1.3,3.355v7.061c0,.867-.067,1.543-.2,2.027-.134.484-.342.868-.625,1.152-.284.283-.617.525-1,.725-.384.201-.825.436-1.325.701.9.469,1.683,1.02,2.35,1.653.667.634,1,1.352,1,2.152v10.515c0,.936-.092,1.703-.275,2.305-.184.6-.492,1.076-.925,1.426-.434.352-.983.594-1.65.727-.667.134-1.483.2-2.45.2h-13.3c.233-1.134.35-2.419.35-3.855v-27.289c0-.734-.05-1.376-.15-1.927ZM134.658,27.995c.283-.451.425-.959.425-1.525v-8.051c0-.5-.15-.924-.45-1.274-.3-.351-.734-.524-1.3-.524h-1.95v12.049h2.1c.5,0,.891-.225,1.175-.674ZM131.383,31.52v13.95h1.85c.533,0,.975-.208,1.325-.625.35-.416.525-.908.525-1.475v-10.101c0-.601-.167-1.042-.5-1.325-.333-.283-.733-.425-1.2-.425h-2Z" fill="#1a171b" stroke-width="0"/>
          <path d="M146.532,26.419c0-.899.15-1.615.45-2.149.3-.532.783-.95,1.45-1.25.667-.3,1.533-.491,2.6-.575,1.066-.082,2.366-.125,3.9-.125s2.8.051,3.8.15,1.791.3,2.375.6c.583.301.991.725,1.225,1.275.233.55.35,1.292.35,2.225v17.65c0,.9-.083,1.658-.25,2.275-.167.617-.534,1.107-1.1,1.475-.567.367-1.383.625-2.45.775-1.067.149-2.517.225-4.35.225-1.7,0-3.075-.067-4.125-.2-1.05-.134-1.867-.375-2.45-.726-.583-.35-.967-.816-1.15-1.399-.184-.583-.275-1.325-.275-2.226v-18ZM153.346,25.495c-.31.316-.463.725-.463,1.225v17.449c0,.668.154,1.125.463,1.375.309.25.737.375,1.287.375s.97-.115,1.262-.35c.292-.232.438-.699.438-1.4v-17.5c0-.5-.146-.899-.438-1.199-.292-.301-.729-.45-1.313-.45-.516,0-.927.159-1.236.476Z" fill="#1a171b" stroke-width="0"/>
          <path d="M168.107,48.036c-.95-.622-1.425-1.578-1.425-2.867v-20.199c0-.6-.025-1.025-.075-1.275-.05-.25-.142-.541-.275-.875h7.1v21.551c0,1.166.533,1.75,1.6,1.75,1.033,0,1.55-.584,1.55-1.75v-19.4c0-.6-.025-1.025-.075-1.275-.05-.25-.143-.541-.275-.875h7.1v23.1c0,.592.033,1.1.1,1.525.066.427.133.787.2,1.082h-6l-.75-.836c-.067.033-.292.148-.675.345-.383.196-.958.401-1.725.614-.767.213-1.567.32-2.4.32-1.7,0-3.025-.312-3.975-.934Z" fill="#1a171b" stroke-width="0"/>
          <path d="M191.907,48.645c-.85-.083-1.567-.282-2.15-.601-.583-.316-1.033-.774-1.35-1.375-.317-.6-.475-1.399-.475-2.399v-19h-2.1v-2.5h2.1v-4.7l6.7-1.15v5.851h3.55v2.5h-3.5v17.25c0,1.367.183,2.284.55,2.75.367.468.983.7,1.85.7h2v2.4c-.067,0-.317.033-.75.1-.434.066-1,.133-1.7.199-.7.066-1.317.101-1.85.101-1.067,0-2.025-.042-2.875-.125Z" fill="#1a171b" stroke-width="0"/>
          <path d="M201.457,20.075c-.55-.395-.825-1.021-.825-1.88,0-.825.275-1.427.825-1.806.55-.381,1.558-.57,3.025-.57,1.333,0,2.292.182,2.875.545.583.363.875.973.875,1.831s-.292,1.485-.875,1.88c-.583.396-1.575.594-2.975.594s-2.375-.197-2.925-.594ZM207.881,46.37c0,.6.025,1.024.075,1.274.05.25.141.542.275.875h-7.35c.066-.3.125-.591.175-.875.05-.282.075-.708.075-1.274v-20.951c0-.6-.034-1.115-.1-1.549-.067-.434-.133-.801-.2-1.101h7.05v23.601Z" fill="#1a171b" stroke-width="0"/>
          <path d="M228.381,22.77v36.7h-6.95c0-.033.033-.209.1-.525.066-.316.142-.725.225-1.225.083-.5.125-.95.125-1.35v-8.701c-.067.034-.3.135-.7.301-.4.167-.95.342-1.65.525-.7.182-1.367.274-2,.274-.8,0-1.55-.05-2.25-.149-.7-.101-1.3-.275-1.8-.525s-.892-.592-1.175-1.025c-.283-.433-.425-.982-.425-1.65v-19.149c0-.5.058-.966.175-1.399.117-.434.342-.809.675-1.125.333-.316.792-.559,1.375-.726.583-.167,1.325-.25,2.225-.25h12.05ZM218.781,25.544c-.233.318-.35.843-.35,1.576v16.699c0,.567.15,1.051.45,1.45s.733.601,1.3.601c.5,0,.9-.191,1.2-.576.3-.383.45-.857.45-1.424v-16.801c0-1.332-.584-2-1.75-2-.634,0-1.067.158-1.3.475Z" fill="#1a171b" stroke-width="0"/>
          <path d="M233.805,48.036c-.95-.622-1.425-1.578-1.425-2.867v-20.199c0-.6-.025-1.025-.075-1.275s-.142-.541-.274-.875h7.1v21.551c0,1.166.533,1.75,1.6,1.75,1.033,0,1.551-.584,1.551-1.75v-19.4c0-.6-.025-1.025-.075-1.275s-.143-.541-.275-.875h7.101v23.1c0,.592.032,1.1.1,1.525.066.427.133.787.2,1.082h-6l-.75-.836c-.067.033-.292.148-.675.345-.384.196-.959.401-1.726.614s-1.567.32-2.399.32c-1.7,0-3.025-.312-3.976-.934Z" fill="#1a171b" stroke-width="0"/>
          <path d="M259.831,35.52v8.851c0,.666.142,1.117.425,1.35.283.233.742.35,1.375.35s1.075-.15,1.325-.449c.25-.301.375-.75.375-1.351v-6.05h6.5v6c0,.967-.117,1.758-.35,2.375-.233.617-.667,1.1-1.3,1.449-.634.351-1.518.592-2.65.726-1.134.133-2.617.2-4.45.2-1.7,0-3.083-.075-4.149-.225-1.067-.15-1.884-.417-2.45-.801-.567-.383-.95-.875-1.15-1.475s-.3-1.35-.3-2.25v-17.5c0-1,.15-1.791.45-2.375.3-.583.782-1.025,1.45-1.325.666-.3,1.524-.491,2.574-.575,1.051-.082,2.342-.125,3.875-.125,1.7,0,3.092.033,4.176.1,1.082.068,1.941.242,2.574.525s1.075.709,1.325,1.275.375,1.35.375,2.35v8.95h-10ZM263.281,33.12v-6.65c0-.967-.567-1.45-1.7-1.45-1.167,0-1.75.5-1.75,1.5v6.601h3.45Z" fill="#1a171b" stroke-width="0"/>
        </g>
      </g>
    </g>
  </g>
</svg>