<?xml version="1.0" encoding="utf-8"?>
<!-- Generator: Adobe Illustrator 28.3.0, SVG Export Plug-In . SVG Version: 6.00 Build 0)  -->
<svg version="1.1" id="Calque_1" xmlns="http://www.w3.org/2000/svg" xmlns:xlink="http://www.w3.org/1999/xlink" x="0px" y="0px"
	 width="368.5px" height="68.6px" viewBox="0 0 368.5 68.6" style="enable-background:new 0 0 368.5 68.6;" xml:space="preserve">
<style type="text/css">
	.st0{fill:#C00418;}
	.st1{enable-background:new    ;}
	.st2{fill:#FFFFFF;}
</style>
<g id="Calque_1_00000141415057430762291390000006965437228015485851_">
	<g>
		<g>
			<rect x="101.7" y="32" class="st0" width="70.1" height="8.9"/>
		</g>
		<path class="st0" d="M64.6,19.2c-9.1-1-13.9,9.9-5.9,16.4c-5.7,0-9.3-3.1-12.4-8.5c-0.2-0.3-0.7-1.2-0.7-1.2s-0.5,0.9-0.7,1.2
			c-3,5.4-6.7,8.5-12.4,8.5H32l0,0h-1.1c1.1-2.2,3.3-3.6,4.2-4.9c1.1-1.4,1.8-3.1,1.8-5c0-4.4-3.6-8-8-8s-8,3.6-8,8
			c0,1.9,0.7,3.6,1.8,5c0.9,1.2,2.8,2.5,4,4.5c-0.6-0.2-0.9-0.3-1.1-0.4c-2.5-1.1-4-3.4-5.4-4.5s-3.1-1.8-5-1.8
			c-4.4,0-7.9,3.5-8,7.9l0,0l0,0l0,0l0,0c0,4.4,3.6,7.9,8,7.9c1.9,0,3.6-0.7,5-1.8s2.9-3.4,5.4-4.5c0.2-0.1,0.5-0.2,1.1-0.4
			c-1.2,2-3.1,3.3-4,4.5c-1.1,1.4-1.8,3.1-1.8,5c0,4.4,3.6,8,8,8s8-3.6,8-8c0-1.9-0.7-3.6-1.8-5c-1-1.3-3.1-2.7-4.2-4.9H32l0,0h0.5
			c5.7,0,9.4,3,12.4,8.5c0.2,0.3,0.7,1.3,0.7,1.3s0.5-0.9,0.7-1.2c3.1-5.4,6.7-8.5,12.4-8.5c-8.1,6.5-3.3,17.4,5.9,16.4
			c8.6-0.9,11.9-15.8,25.1-17.3C76.6,35,73.2,20.1,64.6,19.2z M52.7,36.5c-2.8,1.2-5.3,3.3-6.9,6.1c-1.6-2.8-4.2-4.9-6.9-6.1h-0.1
			l0,0l0,0h0.1c2.8-1.2,5.3-3.3,6.9-6.1C47.4,33.1,49.9,35.2,52.7,36.5C52.7,36.4,52.7,36.4,52.7,36.5L52.7,36.5z M69,36.5
			c2.1,1.5,2.2,2.7,2.2,3.5c0,1.6-1.3,3-3.3,2.8c-2.8-0.3-5.2-6.3-9.1-6.3l0,0l0,0l0,0h0.4c3.6-0.4,5.9-6,8.7-6.3
			c2-0.2,3.3,1.2,3.3,2.8C71.2,33.7,71.1,34.9,69,36.5L69,36.5L69,36.5z"/>
		<g class="st1">
			<path class="st2" d="M128.5,14.9h9.1c0,0.9,0.1,1.5,0.1,1.9c0.3,2.2,0.6,4.6,1,7.1c0.3,2.5,0.7,5,1,7.6c0.4,2.6,0.7,5.2,1.1,7.9
				c0.4,2.7,0.8,5.3,1.2,7.9c0,0.3,0.1,0.7,0.2,1.1c0.1,0.4,0.2,0.8,0.2,1c0.1,0.2,0.1,0.4,0.1,0.4h-8.1c0.1-0.9,0.2-1.6,0.1-2.1
				c-0.1-1.1-0.2-2.4-0.4-4.1c-0.2-1.6-0.4-3.3-0.5-4.9h-4.9c-0.3,1.8-0.5,3.4-0.6,4.8c-0.1,1.4-0.3,2.8-0.4,4.2c0,0.4,0,1.1,0,2
				h-4.9c0.3-1,0.5-1.7,0.6-2.1c0.2-1.3,0.5-2.8,0.8-4.6c0.3-1.8,0.6-3.7,1-5.7c0.3-2,0.7-4.1,1-6.2c0.3-2.1,0.6-4.1,0.9-6
				c0.3-1.9,0.5-3.6,0.8-5c0.2-1.5,0.4-2.6,0.5-3.4C128.4,16.4,128.5,15.8,128.5,14.9z M131.3,19.1l-2.3,16.5h4.3L131.3,19.1z"/>
			<path class="st2" d="M147.1,36.8c-0.4-0.3-0.8-0.6-1-0.9c-0.2-0.3-0.4-0.7-0.4-1.1c-0.1-0.4-0.1-0.9-0.1-1.4v-5.6
				c0-1.5,0.6-2.6,1.7-3.2c1.1-0.6,2.7-1,4.7-1h3c1,0,2,0,3.1,0.1c1.1,0.1,2.2,0.2,3.2,0.4v8.3h-5v-2.9c0-1.1-0.2-1.9-0.6-2.4
				c-0.4-0.5-1-0.8-2-0.8c-1.3,0-2,0.7-2,2v2.9c0,0.6,0,1,0.1,1.4c0.1,0.4,0.2,0.7,0.4,1c0.2,0.3,0.5,0.5,0.9,0.7
				c0.4,0.2,0.9,0.4,1.6,0.6c0.5,0.2,0.9,0.3,1.4,0.4c0.5,0.1,0.9,0.2,1.4,0.4c1.6,0.5,2.7,1,3.4,1.5c0.7,0.5,1,1.3,1,2.5v6
				c0,1.6-0.5,2.8-1.6,3.5c-1.1,0.7-2.9,1-5.3,1h-2c-1.1,0-2.3,0-3.6-0.1c-1.3-0.1-2.5-0.2-3.6-0.5v-9.1h5.5v3.8
				c0,1.3,0.2,2.1,0.7,2.6c0.4,0.5,1,0.7,1.5,0.7c1.3,0,2-0.7,2-2.1v-4.1c0-0.9-0.3-1.5-0.9-1.9c-0.6-0.4-1.2-0.7-1.9-0.9
				c-0.8-0.2-1.5-0.3-2.1-0.5c-0.6-0.2-1.3-0.4-2-0.6C148.1,37.3,147.5,37.1,147.1,36.8z"/>
			<path class="st2" d="M167.5,36.8c-0.4-0.3-0.8-0.6-1-0.9c-0.2-0.3-0.4-0.7-0.4-1.1c-0.1-0.4-0.1-0.9-0.1-1.4v-5.6
				c0-1.5,0.6-2.6,1.7-3.2c1.1-0.6,2.7-1,4.7-1h3c1,0,2,0,3.1,0.1c1.1,0.1,2.2,0.2,3.2,0.4v8.3h-5v-2.9c0-1.1-0.2-1.9-0.6-2.4
				c-0.4-0.5-1-0.8-2-0.8c-1.3,0-2,0.7-2,2v2.9c0,0.6,0,1,0.1,1.4c0.1,0.4,0.2,0.7,0.4,1c0.2,0.3,0.5,0.5,0.9,0.7
				c0.4,0.2,0.9,0.4,1.6,0.6c0.5,0.2,0.9,0.3,1.4,0.4c0.5,0.1,0.9,0.2,1.4,0.4c1.6,0.5,2.7,1,3.4,1.5c0.7,0.5,1,1.3,1,2.5v6
				c0,1.6-0.5,2.8-1.6,3.5c-1.1,0.7-2.9,1-5.3,1h-2c-1.1,0-2.3,0-3.6-0.1c-1.3-0.1-2.5-0.2-3.6-0.5v-9.1h5.5v3.8
				c0,1.3,0.2,2.1,0.7,2.6c0.4,0.5,1,0.7,1.5,0.7c1.3,0,2-0.7,2-2.1v-4.1c0-0.9-0.3-1.5-0.9-1.9c-0.6-0.4-1.2-0.7-1.9-0.9
				c-0.8-0.2-1.5-0.3-2.1-0.5c-0.6-0.2-1.3-0.4-2-0.6C168.5,37.3,167.9,37.1,167.5,36.8z"/>
			<path class="st2" d="M186.4,27.7c0-0.9,0.2-1.6,0.5-2.2s0.8-1,1.5-1.2c0.7-0.3,1.5-0.5,2.6-0.6c1.1-0.1,2.4-0.1,3.9-0.1
				c1.5,0,2.8,0,3.8,0.2c1,0.1,1.8,0.3,2.4,0.6c0.6,0.3,1,0.7,1.2,1.3s0.4,1.3,0.4,2.2v17.6c0,0.9-0.1,1.7-0.2,2.3
				c-0.2,0.6-0.5,1.1-1.1,1.5c-0.6,0.4-1.4,0.6-2.4,0.8c-1.1,0.2-2.5,0.2-4.4,0.2c-1.7,0-3.1-0.1-4.1-0.2c-1-0.1-1.9-0.4-2.5-0.7
				c-0.6-0.4-1-0.8-1.1-1.4c-0.2-0.6-0.3-1.3-0.3-2.2V27.7z M193.2,26.8c-0.3,0.3-0.5,0.7-0.5,1.2v17.4c0,0.7,0.2,1.1,0.5,1.4
				c0.3,0.2,0.7,0.4,1.3,0.4s1-0.1,1.3-0.4c0.3-0.2,0.4-0.7,0.4-1.4V28c0-0.5-0.1-0.9-0.4-1.2s-0.7-0.5-1.3-0.5
				C193.9,26.3,193.5,26.5,193.2,26.8z"/>
			<path class="st2" d="M217.4,33.3v-4.7c0-0.2,0-0.5-0.1-0.8c0-0.3-0.1-0.5-0.3-0.8c-0.2-0.2-0.4-0.4-0.7-0.5
				c-0.3-0.1-0.7-0.2-1.2-0.2c-1,0-1.6,0.2-1.9,0.6c-0.3,0.4-0.5,1-0.5,1.6v16.7c0,0.7,0.2,1.2,0.5,1.5c0.3,0.3,0.7,0.4,1.2,0.4
				c1.2,0,1.8-0.6,1.8-1.9v-5.9h6.7v6.1c0,0.9-0.1,1.7-0.3,2.3c-0.2,0.6-0.6,1.1-1.2,1.5c-0.6,0.4-1.5,0.6-2.6,0.8
				c-1.1,0.2-2.6,0.2-4.4,0.2c-1.7,0-3.1-0.1-4.1-0.2c-1-0.1-1.9-0.4-2.5-0.7c-0.6-0.4-1-0.8-1.2-1.4c-0.2-0.6-0.3-1.3-0.3-2.2v-18
				c0-0.8,0.1-1.5,0.4-2c0.3-0.5,0.7-0.9,1.4-1.2c0.7-0.3,1.5-0.5,2.6-0.6c1.1-0.1,2.4-0.2,4-0.2c2,0,3.5,0.1,4.7,0.2
				c1.2,0.1,2,0.2,2.4,0.3c0.4,0.1,0.6,0.2,0.6,0.2v9H217.4z"/>
			<path class="st2" d="M227.4,21.4c-0.6-0.4-0.8-1-0.8-1.9c0-0.8,0.3-1.4,0.8-1.8c0.5-0.4,1.6-0.6,3-0.6c1.3,0,2.3,0.2,2.9,0.5
				c0.6,0.4,0.9,1,0.9,1.8s-0.3,1.5-0.9,1.9s-1.6,0.6-3,0.6C228.9,22,227.9,21.8,227.4,21.4z M233.8,47.7c0,0.6,0,1,0.1,1.3
				c0,0.2,0.1,0.5,0.3,0.9h-7.3c0.1-0.3,0.1-0.6,0.2-0.9s0.1-0.7,0.1-1.3V26.7c0-0.6,0-1.1-0.1-1.6c-0.1-0.4-0.1-0.8-0.2-1.1h7V47.7
				z"/>
			<path class="st2" d="M247.4,49.2c-0.5,0.2-1.2,0.5-2,0.7c-0.8,0.3-1.6,0.4-2.4,0.4c-0.7,0-1.3-0.1-1.9-0.2
				c-0.6-0.2-1.2-0.4-1.7-0.7s-0.9-0.7-1.1-1.1c-0.3-0.5-0.4-1-0.4-1.6v-8.2c0-1,0.4-1.9,1.1-2.5c0.7-0.6,1.7-1,2.8-1.2
				c0.6-0.1,1.1-0.2,1.5-0.2c0.5-0.1,1-0.2,1.5-0.3c1.1-0.2,1.8-0.5,2.2-0.9c0.4-0.3,0.6-0.9,0.6-1.6v-3.7c0-0.6-0.2-1-0.5-1.3
				c-0.3-0.3-0.7-0.4-1.3-0.4c-0.8,0-1.5,0.3-1.9,0.9c-0.4,0.6-0.6,1.2-0.6,1.9v2.6h-5v-6.2c0-0.2,0-0.6-0.1-1.2
				c1.1-0.1,2-0.2,2.8-0.3c0.8-0.1,1.7-0.2,2.6-0.2s1.7-0.1,2.5-0.1c1.5,0,2.7,0,3.7,0.1c1,0.1,1.8,0.2,2.4,0.5s1,0.6,1.3,1.1
				s0.4,1.1,0.4,1.9V46c0,0.6,0.1,1.3,0.2,2c0.1,0.7,0.3,1.3,0.4,1.8h-5.2l-1.1-1C248.2,48.8,247.9,49,247.4,49.2z M245,37.4
				c-0.5,0.5-0.8,1.2-0.8,2v5.8c0,0.5,0.1,0.9,0.4,1.3c0.3,0.4,0.7,0.7,1.3,0.7c0.7,0,1.1-0.2,1.3-0.6c0.2-0.4,0.3-0.9,0.3-1.5v-8.5
				h-0.8C246.1,36.6,245.5,36.9,245,37.4z"/>
			<path class="st2" d="M262.7,49.9c-0.8-0.1-1.6-0.3-2.2-0.6s-1-0.8-1.3-1.4c-0.3-0.6-0.5-1.4-0.5-2.4v-19h-2.1v-2.5h2.1v-4.7
				l6.7-1.1v5.8h3.6v2.5h-3.5v17.2c0,1.4,0.2,2.3,0.5,2.8c0.4,0.5,1,0.7,1.8,0.7h2v2.4c-0.1,0-0.3,0-0.8,0.1c-0.4,0.1-1,0.1-1.7,0.2
				c-0.7,0.1-1.3,0.1-1.8,0.1C264.5,50.1,263.6,50,262.7,49.9z"/>
			<path class="st2" d="M272.3,21.4c-0.5-0.4-0.8-1-0.8-1.9c0-0.8,0.3-1.4,0.8-1.8c0.5-0.4,1.6-0.6,3-0.6c1.3,0,2.3,0.2,2.9,0.5
				c0.6,0.4,0.9,1,0.9,1.8s-0.3,1.5-0.9,1.9c-0.6,0.4-1.6,0.6-3,0.6C273.8,22,272.8,21.8,272.3,21.4z M278.7,47.7c0,0.6,0,1,0.1,1.3
				s0.1,0.5,0.3,0.9h-7.4c0.1-0.3,0.1-0.6,0.2-0.9c0.1-0.3,0.1-0.7,0.1-1.3V26.7c0-0.6,0-1.1-0.1-1.6c-0.1-0.4-0.1-0.8-0.2-1.1h7
				V47.7z"/>
			<path class="st2" d="M282.7,27.7c0-0.9,0.2-1.6,0.5-2.2s0.8-1,1.5-1.2c0.7-0.3,1.5-0.5,2.6-0.6c1.1-0.1,2.4-0.1,3.9-0.1
				c1.5,0,2.8,0,3.8,0.2c1,0.1,1.8,0.3,2.4,0.6c0.6,0.3,1,0.7,1.2,1.3s0.4,1.3,0.4,2.2v17.6c0,0.9-0.1,1.7-0.2,2.3
				c-0.2,0.6-0.5,1.1-1.1,1.5c-0.6,0.4-1.4,0.6-2.4,0.8c-1.1,0.2-2.5,0.2-4.4,0.2c-1.7,0-3.1-0.1-4.1-0.2c-1-0.1-1.9-0.4-2.5-0.7
				c-0.6-0.4-1-0.8-1.1-1.4c-0.2-0.6-0.3-1.3-0.3-2.2V27.7z M289.5,26.8c-0.3,0.3-0.5,0.7-0.5,1.2v17.4c0,0.7,0.2,1.1,0.5,1.4
				c0.3,0.2,0.7,0.4,1.3,0.4s1-0.1,1.3-0.4c0.3-0.2,0.4-0.7,0.4-1.4V28c0-0.5-0.1-0.9-0.4-1.2s-0.7-0.5-1.3-0.5
				C290.2,26.3,289.8,26.5,289.5,26.8z"/>
			<path class="st2" d="M318.1,24.7c0.9,0.7,1.4,1.6,1.4,2.8v20.2c0,0.6,0,1,0.1,1.3c0,0.2,0.1,0.5,0.3,0.9h-7.1V28.3
				c0-1.2-0.5-1.8-1.6-1.8c-0.5,0-0.8,0.2-1.1,0.5c-0.3,0.4-0.4,0.8-0.4,1.2v19.4c0,0.6,0,1,0.1,1.3s0.1,0.5,0.3,0.9h-7.4
				c0.1-0.3,0.1-0.6,0.2-0.9c0.1-0.3,0.1-0.7,0.1-1.3V26.7c0-0.6,0-1.1-0.1-1.5c-0.1-0.4-0.1-0.8-0.2-1.1h6l0.8,0.8
				c0.1,0,0.3-0.1,0.7-0.3c0.4-0.2,1-0.4,1.7-0.6c0.8-0.2,1.6-0.3,2.4-0.3C315.8,23.7,317.1,24,318.1,24.7z"/>
		</g>
	</g>
</g>
</svg>
