<?xml version="1.0" encoding="utf-8"?>
<!-- Generator: Adobe Illustrator 28.3.0, SVG Export Plug-In . SVG Version: 6.00 Build 0)  -->
<svg version="1.1" xmlns="http://www.w3.org/2000/svg" xmlns:xlink="http://www.w3.org/1999/xlink" x="0px" y="0px"
	 width="429.504px" height="65.96px" viewBox="0 0 429.504 65.96" enable-background="new 0 0 429.504 65.96" xml:space="preserve">
<g id="Calque_1">
	<g>
		<g>
			<rect x="102.209" y="30.675" fill="#C00418" width="69.137" height="8.886"/>
		</g>
		<path fill="#C00418" d="M65.187,17.847c-9.13-1.007-13.928,9.898-5.867,16.417c-5.69,0-9.323-3.077-12.387-8.475
			c-0.176-0.31-0.712-1.235-0.712-1.235s-0.528,0.933-0.703,1.244c-3.042,5.41-6.698,8.475-12.387,8.475l-0.464-0.005v0.001h-1.072
			c1.147-2.245,3.262-3.636,4.249-4.928c1.108-1.366,1.772-3.107,1.772-5.005c0-4.392-3.561-7.952-7.953-7.952
			c-4.392,0-7.953,3.561-7.953,7.952c0,1.897,0.665,3.638,1.773,5.005c0.918,1.203,2.813,2.491,3.996,4.472
			c-0.569-0.158-0.91-0.302-1.09-0.379c-2.524-1.074-4.015-3.415-5.396-4.468c-1.366-1.109-3.108-1.773-5.005-1.773
			c-4.373,0-7.919,3.529-7.951,7.894H8.036c0,0.01,0.001,0.02,0.001,0.03c0,0.01-0.001,0.02-0.001,0.03h0.002
			c0.032,4.365,3.579,7.894,7.951,7.894c1.897,0,3.638-0.665,5.005-1.772c1.38-1.054,2.871-3.395,5.396-4.468
			c0.18-0.077,0.521-0.221,1.09-0.378c-1.183,1.981-3.079,3.269-3.996,4.471c-1.108,1.366-1.773,3.108-1.773,5.005
			c0,4.393,3.561,7.953,7.953,7.953c4.393,0,7.953-3.561,7.953-7.953c0-1.897-0.665-3.638-1.772-5.005
			c-0.987-1.292-3.101-2.683-4.249-4.928h1.072v0.001l0.464-0.005c5.69,0,9.409,3.03,12.387,8.475
			c0.179,0.327,0.703,1.315,0.703,1.315s0.536-0.925,0.712-1.234c3.063-5.398,6.697-8.475,12.387-8.475
			c-8.06,6.519-3.262,17.424,5.867,16.417c8.596-0.949,11.913-15.824,25.129-17.306C77.1,33.672,73.783,18.796,65.187,17.847z
			 M53.215,35.174c-2.751,1.215-5.274,3.324-6.913,6.079c-1.638-2.755-4.161-4.864-6.912-6.079l-0.089-0.003
			c0.014-0.006,0.028-0.012,0.042-0.018c-0.014-0.006-0.028-0.012-0.042-0.018l0.089-0.003c2.751-1.215,5.274-3.324,6.912-6.079
			c1.639,2.755,4.162,4.864,6.913,6.079c0,0,0.024,0.011,0.047,0.021C53.239,35.164,53.215,35.174,53.215,35.174z M69.503,35.153
			c2.138,1.513,2.223,2.727,2.223,3.479c0.001,1.607-1.333,3.035-3.305,2.821c-2.85-0.308-5.245-6.332-9.094-6.3h0.005h-0.005
			c0.002,0,0.004,0,0.006,0l0.4-0.019c3.614-0.371,5.939-5.984,8.687-6.281c1.972-0.213,3.306,1.215,3.305,2.822
			C71.726,32.426,71.641,33.64,69.503,35.153H69.5H69.503z"/>
		<g>
			<path d="M136.208,17.193c-0.45-0.016-0.825-0.024-1.125-0.024c-0.267,0-0.417,0-0.45,0v27.45c0,0.934,0.058,1.699,0.175,2.3
				c0.117,0.601,0.242,1.134,0.375,1.601h-8c0.233-1.133,0.35-2.417,0.35-3.851v-27.5c-0.034,0-0.184,0-0.45,0
				c-0.233,0-0.55,0-0.95,0c-0.367,0-0.7,0.017-1,0.05c-0.367,0.067-0.7,0.125-1,0.176c-0.3,0.049-0.634,0.107-1,0.174v-3.949h15.9
				v3.949c-0.267-0.066-0.534-0.125-0.8-0.174c-0.268-0.051-0.534-0.092-0.8-0.125C137.066,17.235,136.658,17.21,136.208,17.193z"/>
			<path d="M141.932,26.418c0-0.899,0.15-1.616,0.45-2.149c0.3-0.533,0.783-0.951,1.45-1.25c0.667-0.301,1.533-0.492,2.6-0.576
				c1.066-0.082,2.366-0.125,3.9-0.125c1.533,0,2.8,0.051,3.8,0.15s1.791,0.301,2.375,0.6c0.583,0.301,0.991,0.726,1.225,1.275
				c0.233,0.551,0.35,1.293,0.35,2.225v17.65c0,0.9-0.083,1.658-0.25,2.275c-0.167,0.617-0.534,1.108-1.1,1.475
				c-0.567,0.367-1.383,0.625-2.45,0.775c-1.067,0.15-2.517,0.225-4.35,0.225c-1.7,0-3.075-0.066-4.125-0.199
				c-1.05-0.135-1.867-0.375-2.45-0.726c-0.583-0.351-0.967-0.816-1.15-1.399c-0.184-0.584-0.275-1.326-0.275-2.226V26.418z
				 M148.746,25.493c-0.31,0.316-0.463,0.725-0.463,1.225v17.45c0,0.667,0.154,1.125,0.463,1.375
				c0.309,0.25,0.737,0.375,1.287,0.375c0.549,0,0.97-0.116,1.262-0.351c0.292-0.232,0.438-0.699,0.438-1.399v-17.5
				c0-0.5-0.146-0.899-0.438-1.2c-0.292-0.3-0.729-0.449-1.313-0.449C149.466,25.019,149.054,25.177,148.746,25.493z"/>
			<path d="M163.507,48.034c-0.95-0.621-1.425-1.577-1.425-2.866v-20.2c0-0.6-0.025-1.025-0.075-1.275
				c-0.05-0.25-0.142-0.541-0.275-0.875h7.1v21.551c0,1.167,0.533,1.75,1.6,1.75c1.033,0,1.55-0.583,1.55-1.75v-19.4
				c0-0.6-0.025-1.025-0.075-1.275c-0.05-0.25-0.143-0.541-0.275-0.875h7.1v23.101c0,0.591,0.033,1.099,0.1,1.524
				c0.066,0.428,0.133,0.788,0.2,1.082h-6l-0.75-0.836c-0.067,0.033-0.292,0.148-0.675,0.346c-0.383,0.196-0.958,0.4-1.725,0.614
				c-0.767,0.212-1.567,0.319-2.4,0.319C165.782,48.968,164.457,48.656,163.507,48.034z"/>
			<path d="M191.656,26.593c-0.65,0.25-1.133,0.551-1.45,0.9c-0.317,0.35-0.517,0.717-0.6,1.1c-0.083,0.384-0.125,0.709-0.125,0.975
				v16.801c0,0.6,0.025,1.025,0.075,1.275c0.05,0.25,0.141,0.541,0.275,0.875h-7.35c0.066-0.301,0.125-0.592,0.175-0.875
				c0.05-0.283,0.075-0.709,0.075-1.275v-20.95c0-0.601-0.034-1.116-0.1-1.55c-0.067-0.434-0.133-0.801-0.2-1.1h6l0.85,1.149
				c0.033-0.032,0.217-0.167,0.55-0.399c0.333-0.233,0.858-0.492,1.575-0.775s1.508-0.426,2.375-0.426h1.25v3.9h-0.75
				C193.182,26.218,192.307,26.343,191.656,26.593z"/>
			<path d="M212.357,23.4c0.95,0.689,1.425,1.611,1.425,2.769v20.2c0,0.6,0.025,1.025,0.075,1.275
				c0.05,0.25,0.141,0.541,0.275,0.875h-7.1V26.968c0-1.166-0.534-1.75-1.6-1.75c-0.467,0-0.842,0.176-1.125,0.525
				s-0.425,0.758-0.425,1.225v19.4c0,0.6,0.025,1.025,0.075,1.275c0.05,0.25,0.141,0.541,0.275,0.875h-7.35
				c0.066-0.301,0.125-0.592,0.175-0.875c0.05-0.283,0.075-0.709,0.075-1.275v-20.95c0-0.59-0.034-1.099-0.1-1.524
				c-0.067-0.428-0.133-0.787-0.2-1.082h6l0.75,0.836c0.066-0.033,0.291-0.147,0.675-0.344c0.383-0.197,0.958-0.402,1.725-0.615
				c0.766-0.213,1.566-0.32,2.4-0.32C210.082,22.368,211.406,22.712,212.357,23.4z"/>
			<path d="M217.781,26.418c0-0.899,0.15-1.616,0.45-2.149c0.3-0.533,0.783-0.951,1.45-1.25c0.667-0.301,1.533-0.492,2.6-0.576
				c1.066-0.082,2.366-0.125,3.9-0.125c1.533,0,2.8,0.051,3.8,0.15s1.791,0.301,2.375,0.6c0.583,0.301,0.991,0.726,1.225,1.275
				c0.233,0.551,0.351,1.293,0.351,2.225v17.65c0,0.9-0.084,1.658-0.25,2.275c-0.168,0.617-0.534,1.108-1.101,1.475
				c-0.567,0.367-1.384,0.625-2.45,0.775c-1.067,0.15-2.517,0.225-4.35,0.225c-1.7,0-3.075-0.066-4.125-0.199
				c-1.05-0.135-1.867-0.375-2.45-0.726c-0.583-0.351-0.967-0.816-1.15-1.399c-0.184-0.584-0.275-1.326-0.275-2.226V26.418z
				 M224.594,25.493c-0.31,0.316-0.463,0.725-0.463,1.225v17.45c0,0.667,0.154,1.125,0.463,1.375
				c0.309,0.25,0.737,0.375,1.287,0.375c0.549,0,0.97-0.116,1.262-0.351c0.292-0.232,0.438-0.699,0.438-1.399v-17.5
				c0-0.5-0.146-0.899-0.438-1.2c-0.292-0.3-0.729-0.449-1.313-0.449C225.315,25.019,224.903,25.177,224.594,25.493z"/>
			<path d="M238.255,20.074c-0.55-0.396-0.825-1.022-0.825-1.88c0-0.826,0.275-1.428,0.825-1.807c0.55-0.38,1.558-0.57,3.024-0.57
				c1.333,0,2.292,0.183,2.875,0.545c0.583,0.363,0.875,0.974,0.875,1.832c0,0.857-0.292,1.484-0.875,1.88s-1.574,0.594-2.975,0.594
				S238.805,20.47,238.255,20.074z M244.68,46.368c0,0.6,0.025,1.025,0.075,1.275s0.142,0.541,0.274,0.875h-7.35
				c0.066-0.301,0.125-0.592,0.175-0.875s0.075-0.709,0.075-1.275v-20.95c0-0.601-0.033-1.116-0.1-1.55
				c-0.067-0.434-0.134-0.801-0.2-1.1h7.05V46.368z"/>
			<path d="M250.18,35.519c-0.434-0.268-0.759-0.566-0.975-0.9c-0.218-0.333-0.359-0.708-0.426-1.125
				c-0.066-0.416-0.1-0.875-0.1-1.375v-5.65c0-1.5,0.575-2.566,1.725-3.199c1.15-0.633,2.726-0.951,4.726-0.951h3.015
				c0.956,0,2.002,0.043,3.135,0.125c1.133,0.084,2.2,0.209,3.2,0.375v8.301h-5.05v-2.9c0-1.066-0.189-1.866-0.568-2.4
				c-0.38-0.532-1.031-0.799-1.953-0.799c-1.319,0-1.979,0.666-1.979,2v2.899c0,0.567,0.033,1.034,0.1,1.399
				c0.066,0.367,0.2,0.684,0.4,0.951c0.2,0.267,0.5,0.508,0.9,0.725c0.399,0.217,0.933,0.425,1.6,0.625
				c0.467,0.167,0.933,0.3,1.4,0.4c0.466,0.1,0.933,0.232,1.399,0.399c1.601,0.5,2.726,1.017,3.375,1.55
				c0.65,0.533,0.976,1.35,0.976,2.45v6.05c0,1.6-0.543,2.75-1.625,3.45c-1.084,0.7-2.859,1.05-5.325,1.05h-2
				c-1.067,0-2.268-0.033-3.601-0.1c-1.333-0.067-2.533-0.234-3.6-0.5v-9.15h5.55v3.85c0,1.268,0.226,2.125,0.675,2.576
				c0.45,0.449,0.958,0.674,1.525,0.674c1.333,0,2-0.716,2-2.149v-4.05c0-0.867-0.283-1.5-0.85-1.9c-0.567-0.4-1.2-0.683-1.9-0.85
				c-0.768-0.166-1.459-0.333-2.075-0.5c-0.617-0.166-1.274-0.367-1.975-0.6C251.18,36.035,250.613,35.785,250.18,35.519z"/>
			<path d="M296.73,48.318c-0.807,0.101-1.496,0.176-2.066,0.226s-1.167,0.101-1.788,0.149c-0.622,0.051-1.15,0.076-1.587,0.076
				h-6.709c-0.9,0-1.643-0.093-2.225-0.275c-0.584-0.184-1.043-0.441-1.375-0.775c-0.334-0.332-0.567-0.725-0.7-1.175
				c-0.134-0.45-0.2-0.925-0.2-1.425v-19.25c0-1.333,0.55-2.258,1.65-2.775c1.1-0.516,2.466-0.775,4.1-0.775
				c0.633,0,1.291,0.043,1.975,0.125c0.684,0.084,1.217,0.168,1.601,0.25c0.383,0.084,0.607,0.125,0.675,0.125v-6.949
				c0-0.467-0.042-0.9-0.125-1.301c-0.084-0.399-0.158-0.716-0.225-0.949h7V48.318z M287.004,45.519
				c0.25,0.299,0.691,0.449,1.325,0.449c0.666,0,1.116-0.15,1.35-0.449c0.233-0.301,0.351-0.768,0.351-1.4v-17.4
				c0-0.566-0.159-0.991-0.476-1.275c-0.316-0.282-0.725-0.424-1.225-0.424c-1.134,0-1.7,0.566-1.7,1.699v17.35
				C286.629,44.735,286.754,45.218,287.004,45.519z"/>
			<path d="M307.679,35.519v8.85c0,0.667,0.142,1.117,0.425,1.35c0.283,0.234,0.742,0.35,1.375,0.35s1.075-0.149,1.325-0.449
				c0.25-0.301,0.375-0.75,0.375-1.35v-6.051h6.5v6c0,0.967-0.117,1.759-0.35,2.375c-0.233,0.617-0.667,1.1-1.3,1.45
				c-0.634,0.351-1.518,0.591-2.65,0.726c-1.134,0.133-2.617,0.199-4.45,0.199c-1.7,0-3.083-0.074-4.149-0.225
				c-1.067-0.15-1.884-0.416-2.45-0.801c-0.567-0.383-0.95-0.875-1.15-1.475s-0.3-1.35-0.3-2.25v-17.5c0-1,0.15-1.791,0.45-2.375
				c0.3-0.582,0.782-1.025,1.45-1.324c0.666-0.301,1.524-0.492,2.574-0.576c1.051-0.082,2.342-0.125,3.875-0.125
				c1.7,0,3.092,0.034,4.176,0.101c1.082,0.067,1.941,0.242,2.574,0.524c0.633,0.284,1.075,0.709,1.325,1.275
				c0.25,0.567,0.375,1.35,0.375,2.35v8.951H307.679z M311.129,33.118v-6.65c0-0.967-0.567-1.449-1.7-1.449
				c-1.167,0-1.75,0.5-1.75,1.5v6.6H311.129z"/>
			<path d="M339.278,57.118c0,0.467,0.042,0.883,0.125,1.25c0.083,0.366,0.191,0.732,0.325,1.1h-7.2
				c0.033-0.3,0.066-0.667,0.101-1.1c0.032-0.434,0.05-0.834,0.05-1.2v-30.45c0-0.467-0.042-1.025-0.125-1.675
				c-0.084-0.649-0.158-1.175-0.225-1.575c-0.067-0.4-0.101-0.633-0.101-0.699h5.95c0.267,0.267,0.6,0.566,1,0.899
				c0.566-0.399,1.183-0.726,1.85-0.976s1.5-0.375,2.5-0.375c0.767,0,1.5,0.043,2.2,0.125c0.7,0.084,1.308,0.275,1.825,0.576
				c0.517,0.299,0.933,0.717,1.25,1.25c0.316,0.533,0.475,1.25,0.475,2.149v18c0,0.899-0.1,1.634-0.3,2.2s-0.524,1.008-0.975,1.324
				c-0.45,0.318-1.034,0.534-1.75,0.65c-0.718,0.117-1.575,0.176-2.575,0.176c-0.6,0-1.3-0.051-2.1-0.15
				c-0.801-0.1-1.567-0.316-2.301-0.65V57.118z M342.278,25.443c-0.3-0.282-0.699-0.424-1.199-0.424c-1.134,0-1.7,0.6-1.7,1.799
				v17.551c0,0.633,0.157,1.125,0.475,1.475c0.316,0.35,0.708,0.525,1.175,0.525c0.566,0,0.992-0.176,1.275-0.525
				s0.425-0.824,0.425-1.425V26.818C342.728,26.185,342.579,25.727,342.278,25.443z"/>
			<path d="M353.279,26.418c0-0.899,0.15-1.616,0.45-2.149s0.782-0.951,1.45-1.25c0.666-0.301,1.532-0.492,2.6-0.576
				c1.066-0.082,2.366-0.125,3.9-0.125c1.532,0,2.8,0.051,3.8,0.15s1.791,0.301,2.375,0.6c0.583,0.301,0.991,0.726,1.225,1.275
				c0.233,0.551,0.351,1.293,0.351,2.225v17.65c0,0.9-0.084,1.658-0.25,2.275c-0.168,0.617-0.534,1.108-1.101,1.475
				c-0.567,0.367-1.384,0.625-2.45,0.775s-2.517,0.225-4.35,0.225c-1.7,0-3.075-0.066-4.125-0.199
				c-1.05-0.135-1.867-0.375-2.45-0.726s-0.967-0.816-1.149-1.399c-0.184-0.584-0.275-1.326-0.275-2.226V26.418z M360.092,25.493
				c-0.31,0.316-0.464,0.725-0.464,1.225v17.45c0,0.667,0.154,1.125,0.464,1.375c0.309,0.25,0.737,0.375,1.287,0.375
				s0.97-0.116,1.262-0.351c0.292-0.232,0.438-0.699,0.438-1.399v-17.5c0-0.5-0.146-0.899-0.438-1.2
				c-0.292-0.3-0.729-0.449-1.313-0.449C360.812,25.019,360.401,25.177,360.092,25.493z"/>
			<path d="M385.628,31.193c0.267,0.784,0.633,1.851,1.1,3.201c0.467,1.35,0.941,2.75,1.425,4.199
				c0.483,1.45,0.958,2.859,1.426,4.225c0.466,1.367,0.85,2.468,1.149,3.301c0.2,0.566,0.583,1.367,1.15,2.4h-7.601l-4.1-15.101
				v12.95c0,0.6,0.025,1.025,0.075,1.275s0.142,0.541,0.274,0.875h-7.35c0.066-0.301,0.125-0.592,0.175-0.875
				s0.075-0.709,0.075-1.275v-29.1c0-0.701-0.033-1.316-0.1-1.851c-0.067-0.532-0.184-1.133-0.351-1.8h7.2v18.75l6.05-9.6h4.101
				l-5.15,7.149C385.211,29.985,385.361,30.41,385.628,31.193z"/>
			<path d="M401.128,35.519v8.85c0,0.667,0.142,1.117,0.425,1.35c0.283,0.234,0.742,0.35,1.375,0.35s1.075-0.149,1.325-0.449
				c0.25-0.301,0.375-0.75,0.375-1.35v-6.051h6.5v6c0,0.967-0.117,1.759-0.35,2.375c-0.233,0.617-0.667,1.1-1.3,1.45
				c-0.634,0.351-1.518,0.591-2.65,0.726c-1.134,0.133-2.617,0.199-4.45,0.199c-1.7,0-3.083-0.074-4.149-0.225
				c-1.067-0.15-1.884-0.416-2.45-0.801c-0.567-0.383-0.95-0.875-1.15-1.475s-0.3-1.35-0.3-2.25v-17.5c0-1,0.15-1.791,0.45-2.375
				c0.3-0.582,0.782-1.025,1.45-1.324c0.666-0.301,1.524-0.492,2.574-0.576c1.051-0.082,2.342-0.125,3.875-0.125
				c1.7,0,3.092,0.034,4.176,0.101c1.082,0.067,1.941,0.242,2.574,0.524c0.633,0.284,1.075,0.709,1.325,1.275
				c0.25,0.567,0.375,1.35,0.375,2.35v8.951H401.128z M404.578,33.118v-6.65c0-0.967-0.567-1.449-1.7-1.449
				c-1.167,0-1.75,0.5-1.75,1.5v6.6H404.578z"/>
			<path d="M424.052,26.593c-0.649,0.25-1.134,0.551-1.45,0.9s-0.517,0.717-0.6,1.1c-0.084,0.384-0.125,0.709-0.125,0.975v16.801
				c0,0.6,0.025,1.025,0.075,1.275s0.142,0.541,0.274,0.875h-7.35c0.066-0.301,0.125-0.592,0.175-0.875s0.075-0.709,0.075-1.275
				v-20.95c0-0.601-0.033-1.116-0.1-1.55c-0.067-0.434-0.134-0.801-0.2-1.1h6l0.85,1.149c0.033-0.032,0.217-0.167,0.55-0.399
				c0.333-0.233,0.858-0.492,1.575-0.775s1.508-0.426,2.375-0.426h1.25v3.9h-0.75C425.578,26.218,424.703,26.343,424.052,26.593z"/>
		</g>
	</g>
</g>
</svg>
