<?xml version="1.0" encoding="utf-8"?>
<!-- Generator: Adobe Illustrator 28.3.0, SVG Export Plug-In . SVG Version: 6.00 Build 0)  -->
<svg version="1.1" xmlns="http://www.w3.org/2000/svg" xmlns:xlink="http://www.w3.org/1999/xlink" x="0px" y="0px" width="257px"
	 height="65.9px" viewBox="0 0 257 65.9" style="enable-background:new 0 0 257 65.9;" xml:space="preserve">
<style type="text/css">
	.st0{fill:#C00418;}
	.st1{fill:#FFFFFF;}
</style>
<g id="Calque_1">
	<g>
		<g>
			<rect x="100" y="30.6" class="st0" width="69.1" height="8.9"/>
		</g>
		<path class="st0" d="M63,17.8c-9.1-1-13.9,9.9-5.9,16.4c-5.7,0-9.3-3.1-12.4-8.5c-0.2-0.3-0.7-1.2-0.7-1.2s-0.5,0.9-0.7,1.2
			c-3,5.4-6.7,8.5-12.4,8.5l-0.5,0v0h-1.1c1.1-2.2,3.3-3.6,4.2-4.9c1.1-1.4,1.8-3.1,1.8-5c0-4.4-3.6-8-8-8c-4.4,0-8,3.6-8,8
			c0,1.9,0.7,3.6,1.8,5c0.9,1.2,2.8,2.5,4,4.5c-0.6-0.2-0.9-0.3-1.1-0.4c-2.5-1.1-4-3.4-5.4-4.5c-1.4-1.1-3.1-1.8-5-1.8
			c-4.4,0-7.9,3.5-8,7.9h0c0,0,0,0,0,0c0,0,0,0,0,0h0c0,4.4,3.6,7.9,8,7.9c1.9,0,3.6-0.7,5-1.8c1.4-1.1,2.9-3.4,5.4-4.5
			c0.2-0.1,0.5-0.2,1.1-0.4c-1.2,2-3.1,3.3-4,4.5c-1.1,1.4-1.8,3.1-1.8,5c0,4.4,3.6,8,8,8c4.4,0,8-3.6,8-8c0-1.9-0.7-3.6-1.8-5
			c-1-1.3-3.1-2.7-4.2-4.9h1.1v0l0.5,0c5.7,0,9.4,3,12.4,8.5c0.2,0.3,0.7,1.3,0.7,1.3s0.5-0.9,0.7-1.2c3.1-5.4,6.7-8.5,12.4-8.5
			C49,42.5,53.8,53.4,63,52.4c8.6-0.9,11.9-15.8,25.1-17.3C74.9,33.6,71.6,18.8,63,17.8z M51,35.1c-2.8,1.2-5.3,3.3-6.9,6.1
			c-1.6-2.8-4.2-4.9-6.9-6.1l-0.1,0c0,0,0,0,0,0c0,0,0,0,0,0l0.1,0c2.8-1.2,5.3-3.3,6.9-6.1C45.7,31.8,48.2,33.9,51,35.1
			C51,35.1,51,35.1,51,35.1C51,35.1,51,35.1,51,35.1z M67.3,35.1c2.1,1.5,2.2,2.7,2.2,3.5c0,1.6-1.3,3-3.3,2.8
			c-2.8-0.3-5.2-6.3-9.1-6.3h0h0c0,0,0,0,0,0l0.4,0c3.6-0.4,5.9-6,8.7-6.3c2-0.2,3.3,1.2,3.3,2.8C69.5,32.4,69.4,33.6,67.3,35.1
			L67.3,35.1L67.3,35.1z"/>
		<g>
			<path class="st1" d="M133.7,26v-7.5c0-0.9-0.2-1.5-0.5-1.8s-0.9-0.5-1.6-0.5c-0.9,0-1.5,0.1-1.8,0.4c-0.4,0.3-0.5,0.9-0.5,1.8
				v25.1c0,0.8,0.1,1.4,0.4,1.7c0.3,0.3,0.8,0.5,1.5,0.5c0.8,0,1.3-0.2,1.5-0.5c0.2-0.3,0.3-0.9,0.3-1.6v-8.8h7.1v8.8
				c0,1-0.1,1.9-0.3,2.6c-0.2,0.7-0.6,1.2-1.2,1.6c-0.6,0.4-1.5,0.7-2.7,0.9c-1.2,0.2-2.8,0.3-4.9,0.3c-1.9,0-3.4-0.1-4.6-0.2
				c-1.2-0.2-2.1-0.4-2.7-0.8c-0.6-0.4-1-0.9-1.2-1.6c-0.2-0.7-0.3-1.5-0.3-2.5V17.9c0-1,0.1-1.9,0.4-2.5c0.3-0.6,0.8-1.1,1.5-1.4
				s1.7-0.5,2.8-0.6c1.2-0.1,2.7-0.1,4.5-0.1c2.1,0,3.8,0.1,5.3,0.2c1.5,0.1,2.6,0.3,3.5,0.4c0,0.6-0.1,1.2-0.1,1.9
				c0,0.7,0,1.5,0,2.4V26H133.7z"/>
			<path class="st1" d="M144,26.4c0-0.9,0.2-1.6,0.5-2.1s0.8-1,1.5-1.2c0.7-0.3,1.5-0.5,2.6-0.6c1.1-0.1,2.4-0.1,3.9-0.1
				c1.5,0,2.8,0.1,3.8,0.2s1.8,0.3,2.4,0.6c0.6,0.3,1,0.7,1.2,1.3c0.2,0.6,0.4,1.3,0.4,2.2v17.7c0,0.9-0.1,1.7-0.2,2.3
				c-0.2,0.6-0.5,1.1-1.1,1.5c-0.6,0.4-1.4,0.6-2.4,0.8c-1.1,0.2-2.5,0.2-4.4,0.2c-1.7,0-3.1-0.1-4.1-0.2c-1-0.1-1.9-0.4-2.5-0.7
				s-1-0.8-1.1-1.4c-0.2-0.6-0.3-1.3-0.3-2.2V26.4z M150.8,25.5c-0.3,0.3-0.5,0.7-0.5,1.2v17.5c0,0.7,0.2,1.1,0.5,1.4
				c0.3,0.2,0.7,0.4,1.3,0.4s1-0.1,1.3-0.4c0.3-0.2,0.4-0.7,0.4-1.4V26.6c0-0.5-0.1-0.9-0.4-1.2c-0.3-0.3-0.7-0.4-1.3-0.4
				C151.5,25,151.1,25.1,150.8,25.5z"/>
			<path class="st1" d="M179.3,23.4c1,0.7,1.4,1.6,1.4,2.8v20.2c0,0.6,0,1,0.1,1.3s0.1,0.5,0.3,0.9H174V26.9c0-1.2-0.5-1.8-1.6-1.8
				c-0.5,0-0.8,0.2-1.1,0.5s-0.4,0.8-0.4,1.2v19.4c0,0.6,0,1,0.1,1.3c0,0.2,0.1,0.5,0.3,0.9h-7.3c0.1-0.3,0.1-0.6,0.2-0.9
				s0.1-0.7,0.1-1.3v-21c0-0.6,0-1.1-0.1-1.5c-0.1-0.4-0.1-0.8-0.2-1.1h6l0.8,0.8c0.1,0,0.3-0.1,0.7-0.3c0.4-0.2,1-0.4,1.7-0.6
				s1.6-0.3,2.4-0.3C177.1,22.3,178.4,22.7,179.3,23.4z"/>
			<path class="st1" d="M189.3,48.6c-0.9-0.1-1.6-0.3-2.2-0.6c-0.6-0.3-1-0.8-1.3-1.4c-0.3-0.6-0.5-1.4-0.5-2.4v-19h-2.1v-2.5h2.1
				V18l6.7-1.1v5.9h3.5v2.5h-3.5v17.2c0,1.4,0.2,2.3,0.5,2.8s1,0.7,1.9,0.7h2v2.4c-0.1,0-0.3,0-0.8,0.1c-0.4,0.1-1,0.1-1.7,0.2
				c-0.7,0.1-1.3,0.1-1.8,0.1C191.1,48.7,190.2,48.7,189.3,48.6z"/>
			<path class="st1" d="M208.2,47.8c-0.5,0.2-1.2,0.5-2,0.7c-0.9,0.3-1.6,0.4-2.4,0.4c-0.7,0-1.3-0.1-1.9-0.2
				c-0.6-0.2-1.2-0.4-1.6-0.7c-0.5-0.3-0.9-0.7-1.2-1.1c-0.3-0.4-0.4-1-0.4-1.6v-8.2c0-1,0.4-1.9,1.1-2.5s1.7-1,2.8-1.2
				c0.6-0.1,1.1-0.1,1.5-0.2c0.5-0.1,1-0.2,1.5-0.3c1.1-0.2,1.8-0.5,2.2-0.9c0.4-0.3,0.6-0.9,0.6-1.6v-3.6c0-0.6-0.2-1-0.5-1.3
				c-0.3-0.3-0.7-0.4-1.3-0.4c-0.8,0-1.5,0.3-1.9,0.9c-0.4,0.6-0.6,1.2-0.6,2v2.5h-5v-6.2c0-0.2,0-0.6,0-1.2c1.1-0.1,2-0.2,2.8-0.4
				s1.7-0.2,2.6-0.2c0.9-0.1,1.7-0.1,2.5-0.1c1.5,0,2.7,0,3.7,0.1c1,0.1,1.8,0.2,2.4,0.5c0.6,0.2,1,0.6,1.3,1.1
				c0.3,0.5,0.4,1.1,0.4,1.9v18.8c0,0.6,0.1,1.3,0.2,2c0.1,0.7,0.3,1.3,0.4,1.8h-5.2l-1.1-1C208.9,47.5,208.6,47.6,208.2,47.8z
				 M205.8,36c-0.5,0.5-0.8,1.2-0.8,2.1v5.8c0,0.5,0.1,0.9,0.4,1.4s0.7,0.6,1.3,0.6c0.7,0,1.1-0.2,1.3-0.5s0.3-0.9,0.3-1.5v-8.6
				h-0.8C206.9,35.3,206.3,35.5,205.8,36z"/>
			<path class="st1" d="M229.8,31.9v-4.7c0-0.2,0-0.5-0.1-0.8c0-0.3-0.1-0.5-0.3-0.8c-0.2-0.2-0.4-0.4-0.7-0.6
				c-0.3-0.1-0.7-0.2-1.2-0.2c-1,0-1.6,0.2-1.9,0.6c-0.3,0.4-0.5,1-0.5,1.6V44c0,0.7,0.2,1.2,0.5,1.5c0.3,0.3,0.7,0.4,1.2,0.4
				c1.2,0,1.8-0.6,1.8-1.9v-5.9h6.7v6c0,0.9-0.1,1.7-0.3,2.3s-0.6,1.1-1.2,1.5c-0.6,0.4-1.5,0.6-2.6,0.8c-1.1,0.2-2.6,0.2-4.4,0.2
				c-1.7,0-3.1-0.1-4.1-0.2c-1-0.1-1.9-0.4-2.5-0.7c-0.6-0.4-1-0.8-1.2-1.4s-0.3-1.3-0.3-2.2v-18c0-0.8,0.1-1.5,0.4-2s0.7-1,1.4-1.2
				c0.7-0.3,1.5-0.5,2.6-0.7c1.1-0.1,2.4-0.2,4-0.2c2,0,3.5,0.1,4.7,0.2c1.2,0.1,2,0.2,2.4,0.3c0.4,0.1,0.6,0.1,0.7,0.1v9H229.8z"/>
			<path class="st1" d="M244,48.6c-0.9-0.1-1.6-0.3-2.2-0.6c-0.6-0.3-1-0.8-1.3-1.4c-0.3-0.6-0.5-1.4-0.5-2.4v-19h-2.1v-2.5h2.1V18
				l6.7-1.1v5.9h3.5v2.5h-3.5v17.2c0,1.4,0.2,2.3,0.6,2.8c0.4,0.5,1,0.7,1.8,0.7h2v2.4c-0.1,0-0.3,0-0.8,0.1c-0.4,0.1-1,0.1-1.7,0.2
				c-0.7,0.1-1.3,0.1-1.8,0.1C245.8,48.7,244.8,48.7,244,48.6z"/>
		</g>
	</g>
</g>
<g id="Calque_2">
</g>
</svg>
