<?xml version="1.0" encoding="utf-8"?>
<!-- Generator: Adobe Illustrator 28.3.0, SVG Export Plug-In . SVG Version: 6.00 Build 0)  -->
<svg version="1.1" xmlns="http://www.w3.org/2000/svg" xmlns:xlink="http://www.w3.org/1999/xlink" x="0px" y="0px" width="253.2px"
	 height="62.9px" viewBox="0 0 253.2 62.9" style="enable-background:new 0 0 253.2 62.9;" xml:space="preserve">
<style type="text/css">
	.st0{fill:#C00418;}
	.st1{fill:#FFFFFF;}
</style>
<g id="Calque_1">
	<g>
		<g>
			<rect x="100.9" y="29.2" class="st0" width="69.1" height="8.9"/>
		</g>
		<path class="st0" d="M63.8,16.3c-9.1-1-13.9,9.9-5.9,16.4c-5.7,0-9.3-3.1-12.4-8.5C45.4,24,44.9,23,44.9,23s-0.5,0.9-0.7,1.2
			c-3,5.4-6.7,8.5-12.4,8.5l-0.5,0v0h-1.1c1.1-2.2,3.3-3.6,4.2-4.9c1.1-1.4,1.8-3.1,1.8-5c0-4.4-3.6-8-8-8c-4.4,0-8,3.6-8,8
			c0,1.9,0.7,3.6,1.8,5c0.9,1.2,2.8,2.5,4,4.5c-0.6-0.2-0.9-0.3-1.1-0.4c-2.5-1.1-4-3.4-5.4-4.5c-1.4-1.1-3.1-1.8-5-1.8
			c-4.4,0-7.9,3.5-8,7.9h0c0,0,0,0,0,0c0,0,0,0,0,0h0c0,4.4,3.6,7.9,8,7.9c1.9,0,3.6-0.7,5-1.8c1.4-1.1,2.9-3.4,5.4-4.5
			c0.2-0.1,0.5-0.2,1.1-0.4c-1.2,2-3.1,3.3-4,4.5c-1.1,1.4-1.8,3.1-1.8,5c0,4.4,3.6,8,8,8c4.4,0,8-3.6,8-8c0-1.9-0.7-3.6-1.8-5
			c-1-1.3-3.1-2.7-4.2-4.9h1.1v0l0.5,0c5.7,0,9.4,3,12.4,8.5c0.2,0.3,0.7,1.3,0.7,1.3s0.5-0.9,0.7-1.2c3.1-5.4,6.7-8.5,12.4-8.5
			c-8.1,6.5-3.3,17.4,5.9,16.4C72.4,50,75.8,35.1,89,33.6C75.8,32.2,72.4,17.3,63.8,16.3z M51.9,33.7c-2.8,1.2-5.3,3.3-6.9,6.1
			c-1.6-2.8-4.2-4.9-6.9-6.1l-0.1,0c0,0,0,0,0,0c0,0,0,0,0,0l0.1,0c2.8-1.2,5.3-3.3,6.9-6.1C46.6,30.3,49.1,32.4,51.9,33.7
			C51.9,33.6,51.9,33.6,51.9,33.7C51.9,33.6,51.9,33.7,51.9,33.7z M68.2,33.6c2.1,1.5,2.2,2.7,2.2,3.5c0,1.6-1.3,3-3.3,2.8
			c-2.8-0.3-5.2-6.3-9.1-6.3h0h0c0,0,0,0,0,0l0.4,0c3.6-0.4,5.9-6,8.7-6.3c2-0.2,3.3,1.2,3.3,2.8C70.4,30.9,70.3,32.1,68.2,33.6
			L68.2,33.6L68.2,33.6z"/>
		<g>
			<path class="st1" d="M122.8,13.9c-0.1-0.6-0.2-1.2-0.4-1.9h13.2c1.8,0,3.2,0.3,4,1c0.9,0.6,1.3,1.8,1.3,3.4v7.1
				c0,0.9-0.1,1.5-0.2,2c-0.1,0.5-0.3,0.9-0.6,1.2c-0.3,0.3-0.6,0.5-1,0.7c-0.4,0.2-0.8,0.4-1.3,0.7c0.9,0.5,1.7,1,2.3,1.7
				s1,1.4,1,2.2v10.5c0,0.9-0.1,1.7-0.3,2.3c-0.2,0.6-0.5,1.1-0.9,1.4c-0.4,0.4-1,0.6-1.6,0.7c-0.7,0.1-1.5,0.2-2.5,0.2h-13.3
				c0.2-1.1,0.3-2.4,0.3-3.9V15.9C122.9,15.1,122.9,14.5,122.8,13.9z M133.3,26.5c0.3-0.5,0.4-1,0.4-1.5v-8.1c0-0.5-0.1-0.9-0.4-1.3
				c-0.3-0.4-0.7-0.5-1.3-0.5H130v12h2.1C132.6,27.1,133,26.9,133.3,26.5z M130,30v14h1.8c0.5,0,1-0.2,1.3-0.6
				c0.3-0.4,0.5-0.9,0.5-1.5V31.7c0-0.6-0.2-1-0.5-1.3S132.5,30,132,30H130z"/>
			<path class="st1" d="M146.6,46.5c-1-0.6-1.4-1.6-1.4-2.9V23.4c0-0.6,0-1-0.1-1.3s-0.1-0.5-0.3-0.9h7.1v21.6
				c0,1.2,0.5,1.8,1.6,1.8c1,0,1.5-0.6,1.5-1.8V23.4c0-0.6,0-1-0.1-1.3c-0.1-0.2-0.1-0.5-0.3-0.9h7.1v23.1c0,0.6,0,1.1,0.1,1.5
				c0.1,0.4,0.1,0.8,0.2,1.1h-6l-0.8-0.8c-0.1,0-0.3,0.1-0.7,0.3s-1,0.4-1.7,0.6c-0.8,0.2-1.6,0.3-2.4,0.3
				C148.9,47.4,147.6,47.1,146.6,46.5z"/>
			<path class="st1" d="M174.8,25.1c-0.7,0.2-1.1,0.5-1.5,0.9c-0.3,0.3-0.5,0.7-0.6,1.1c-0.1,0.4-0.1,0.7-0.1,1v16.8
				c0,0.6,0,1,0.1,1.3c0,0.2,0.1,0.5,0.3,0.9h-7.3c0.1-0.3,0.1-0.6,0.2-0.9c0-0.3,0.1-0.7,0.1-1.3v-21c0-0.6,0-1.1-0.1-1.5
				s-0.1-0.8-0.2-1.1h6l0.8,1.1c0,0,0.2-0.2,0.5-0.4s0.9-0.5,1.6-0.8s1.5-0.4,2.4-0.4h1.2v3.9h-0.8
				C176.3,24.7,175.4,24.8,174.8,25.1z"/>
			<path class="st1" d="M187,34v8.9c0,0.7,0.1,1.1,0.4,1.3c0.3,0.2,0.7,0.3,1.4,0.3c0.6,0,1.1-0.2,1.3-0.4c0.2-0.3,0.4-0.8,0.4-1.4
				v-6h6.5v6c0,1-0.1,1.8-0.3,2.4c-0.2,0.6-0.7,1.1-1.3,1.4c-0.6,0.4-1.5,0.6-2.6,0.7c-1.1,0.1-2.6,0.2-4.5,0.2
				c-1.7,0-3.1-0.1-4.2-0.2c-1.1-0.2-1.9-0.4-2.4-0.8c-0.6-0.4-1-0.9-1.2-1.5s-0.3-1.3-0.3-2.2V25.2c0-1,0.1-1.8,0.5-2.4
				c0.3-0.6,0.8-1,1.4-1.3s1.5-0.5,2.6-0.6c1-0.1,2.3-0.1,3.9-0.1c1.7,0,3.1,0,4.2,0.1c1.1,0.1,1.9,0.2,2.6,0.5
				c0.6,0.3,1.1,0.7,1.3,1.3S197,24,197,25v9H187z M190.5,31.6v-6.7c0-1-0.6-1.5-1.7-1.5c-1.2,0-1.8,0.5-1.8,1.5v6.6H190.5z"/>
			<path class="st1" d="M210.6,46.4c-0.5,0.2-1.2,0.5-2,0.7c-0.9,0.3-1.6,0.4-2.4,0.4c-0.7,0-1.3-0.1-1.9-0.2
				c-0.6-0.2-1.2-0.4-1.6-0.7c-0.5-0.3-0.9-0.7-1.2-1.1c-0.3-0.4-0.4-1-0.4-1.6v-8.2c0-1,0.4-1.9,1.1-2.5s1.7-1,2.8-1.2
				c0.6-0.1,1.1-0.1,1.5-0.2c0.5-0.1,1-0.2,1.5-0.3c1.1-0.2,1.8-0.5,2.2-0.9c0.4-0.4,0.6-0.9,0.6-1.6v-3.6c0-0.6-0.2-1-0.5-1.3
				c-0.3-0.3-0.7-0.4-1.3-0.4c-0.8,0-1.5,0.3-1.9,0.8c-0.4,0.6-0.6,1.2-0.6,2v2.5h-5v-6.2c0-0.2,0-0.6,0-1.2c1.1-0.1,2-0.2,2.8-0.4
				c0.8-0.1,1.7-0.2,2.6-0.2c0.9-0.1,1.7-0.1,2.5-0.1c1.5,0,2.7,0,3.7,0.1c1,0.1,1.8,0.2,2.4,0.5c0.6,0.2,1,0.6,1.3,1.1
				c0.3,0.5,0.4,1.1,0.4,1.9v18.8c0,0.6,0.1,1.3,0.2,2c0.1,0.7,0.3,1.3,0.4,1.8h-5.2l-1.1-1C211.4,46,211.1,46.1,210.6,46.4z
				 M208.2,34.5c-0.5,0.5-0.8,1.2-0.8,2.1v5.8c0,0.5,0.1,0.9,0.4,1.4c0.3,0.4,0.7,0.6,1.3,0.6c0.7,0,1.1-0.2,1.3-0.5
				s0.3-0.9,0.3-1.5v-8.6h-0.8C209.4,33.8,208.8,34,208.2,34.5z"/>
			<path class="st1" d="M222.8,46.5c-1-0.6-1.4-1.6-1.4-2.9V23.4c0-0.6,0-1-0.1-1.3s-0.1-0.5-0.3-0.9h7.1v21.6
				c0,1.2,0.5,1.8,1.6,1.8c1,0,1.6-0.6,1.6-1.8V23.4c0-0.6,0-1-0.1-1.3c-0.1-0.2-0.1-0.5-0.3-0.9h7.1v23.1c0,0.6,0,1.1,0.1,1.5
				c0.1,0.4,0.1,0.8,0.2,1.1h-6l-0.8-0.8c-0.1,0-0.3,0.1-0.7,0.3s-1,0.4-1.7,0.6c-0.8,0.2-1.6,0.3-2.4,0.3
				C225.1,47.4,223.8,47.1,222.8,46.5z"/>
		</g>
	</g>
</g>
<g id="Calque_2">
</g>
</svg>
