<?xml version="1.0" encoding="UTF-8"?>
<svg xmlns="http://www.w3.org/2000/svg" version="1.1" viewBox="0 0 494.62 65.96">
  <g isolation="isolate">
    <g id="Calque_1" data-name="Calque 1">
      <g>
        <rect x="102.209" y="30.675" width="69.137" height="8.886" fill="#c00418" stroke-width="0"/>
        <path d="M65.187,17.847c-9.13-1.007-13.928,9.898-5.867,16.417-5.69,0-9.323-3.077-12.387-8.475-.176-.31-.712-1.235-.712-1.235,0,0-.528.933-.703,1.244-3.042,5.41-6.698,8.475-12.387,8.475l-.464-.005h0s-1.072.001-1.072.001c1.147-2.245,3.262-3.636,4.249-4.928,1.108-1.366,1.772-3.107,1.772-5.005,0-4.392-3.561-7.952-7.953-7.952s-7.953,3.561-7.953,7.952c0,1.897.665,3.638,1.773,5.005.918,1.203,2.813,2.491,3.996,4.472-.569-.158-.91-.302-1.09-.379-2.524-1.074-4.015-3.415-5.396-4.468-1.366-1.109-3.108-1.773-5.005-1.773-4.373,0-7.919,3.529-7.951,7.894h-.002c0,.01.001.02.001.03,0,.01-.001.02-.001.03h.002c.032,4.365,3.579,7.894,7.951,7.894,1.897,0,3.638-.665,5.005-1.772,1.38-1.054,2.871-3.395,5.396-4.468.18-.077.521-.22,1.09-.378-1.183,1.981-3.079,3.269-3.996,4.471-1.108,1.366-1.773,3.108-1.773,5.005,0,4.393,3.561,7.953,7.953,7.953s7.953-3.561,7.953-7.953c0-1.897-.665-3.638-1.772-5.005-.987-1.292-3.101-2.683-4.249-4.928h1.072s.464-.004.464-.004c5.69,0,9.409,3.03,12.387,8.475.179.327.703,1.315.703,1.315,0,0,.536-.925.712-1.234,3.064-5.398,6.697-8.475,12.387-8.475-8.06,6.519-3.262,17.424,5.867,16.417,8.596-.949,11.913-15.824,25.129-17.306-13.216-1.481-16.533-16.357-25.129-17.306ZM53.215,35.174c-2.751,1.215-5.274,3.324-6.913,6.079-1.638-2.755-4.161-4.864-6.912-6.079l-.089-.003.042-.018-.042-.018.089-.003c2.751-1.215,5.274-3.324,6.912-6.079,1.639,2.755,4.162,4.864,6.913,6.079,0,0,.024.011.047.021-.023.011-.047.021-.047.021ZM69.503,35.153c2.138,1.513,2.223,2.727,2.223,3.479.001,1.607-1.333,3.035-3.305,2.821-2.85-.308-5.245-6.332-9.094-6.3h.005-.005.006l.4-.019c3.614-.371,5.939-5.984,8.687-6.281,1.972-.213,3.306,1.215,3.305,2.822,0,.751-.086,1.965-2.223,3.478h-.003.003Z" fill="#c00418" stroke-width="0"/>
        <g>
          <path d="M131.383,32.17v12.55c0,.934.075,1.7.226,2.3.149.6.308,1.1.475,1.5h-8.15c.233-1.133.351-2.416.351-3.85v-26.601c0-.732-.05-1.458-.15-2.175-.1-.717-.233-1.475-.399-2.275h12.649c2.167,0,3.675.325,4.525.976.85.649,1.274,1.809,1.274,3.475v7.8c0,1.5-.399,2.551-1.199,3.15-.801.6-1.918,1.067-3.351,1.4,1.4.233,2.508.608,3.325,1.125.816.517,1.225,1.475,1.225,2.875v10.55c0,.767.083,1.434.25,2,.167.567.333,1.083.5,1.55h-7.85v-13.5c0-1.066-.233-1.808-.7-2.225s-1.05-.625-1.75-.625h-1.25ZM131.383,16.97v12h1.351c.899,0,1.516-.316,1.85-.95.333-.633.5-1.267.5-1.9v-7.1c0-.566-.167-1.05-.5-1.45-.334-.399-.8-.6-1.4-.6h-1.8Z" fill="#1a171b" stroke-width="0"/>
          <path d="M152.982,35.52v8.85c0,.668.142,1.117.426,1.351.282.233.741.35,1.375.35s1.074-.149,1.324-.45c.25-.3.375-.75.375-1.35v-6.05h6.5v6c0,.967-.117,1.759-.35,2.375-.233.617-.667,1.1-1.3,1.45-.634.35-1.518.591-2.65.725-1.134.133-2.617.2-4.45.2-1.699,0-3.083-.075-4.149-.226-1.067-.149-1.884-.416-2.45-.8-.567-.383-.95-.875-1.15-1.475-.199-.601-.3-1.351-.3-2.25v-17.5c0-1,.15-1.792.45-2.375s.783-1.025,1.45-1.325c.666-.3,1.524-.491,2.575-.575,1.05-.083,2.341-.125,3.875-.125,1.699,0,3.091.034,4.175.101,1.083.066,1.941.242,2.575.524.633.284,1.074.709,1.324,1.275.25.567.375,1.35.375,2.35v8.95h-10ZM153.783,20.67l-4.15-4.851h5.4l2.55,4.851h-3.8ZM156.433,33.12v-6.649c0-.967-.567-1.45-1.7-1.45-1.167,0-1.75.5-1.75,1.5v6.6h3.45Z" fill="#1a171b" stroke-width="0"/>
          <path d="M177.032,48.37c-.6.2-1.324.316-2.175.351-.85.032-1.577.05-2.181.05-2.05,0-3.511-.325-4.384-.975-.874-.65-1.311-1.875-1.311-3.676v-18c0-1.532.483-2.55,1.45-3.05s2.482-.75,4.55-.75c.933,0,1.866.159,2.8.476s1.684.675,2.25,1.074c.367-.466.684-.832.95-1.1h5.05c0,.033-.033.2-.1.5-.067.3-.143.7-.225,1.2-.084.5-.125.967-.125,1.399v29.101c0,1.666-.45,2.833-1.351,3.5-.899.666-2.2,1-3.899,1h-5.601c-1,0-1.85-.034-2.55-.101s-1.275-.225-1.725-.475c-.45-.25-.775-.625-.976-1.125s-.3-1.184-.3-2.05v-4.8h6.35v4.55c0,.899.566,1.35,1.7,1.35.533,0,.967-.125,1.3-.375s.5-.608.5-1.075v-7ZM174.183,25.445c-.3.25-.45.659-.45,1.226v17.35c0,.7.142,1.2.425,1.5s.708.45,1.275.45c.533,0,.941-.15,1.225-.45s.426-.8.426-1.5v-17.35c0-1.066-.567-1.601-1.7-1.601-.5,0-.9.125-1.2.375Z" fill="#1a171b" stroke-width="0"/>
          <path d="M194.382,46.37c0,.601.025,1.025.075,1.275s.142.542.275.875h-7.351c.066-.3.125-.592.175-.875.051-.283.075-.708.075-1.275v-29.1c0-.7-.033-1.316-.1-1.85-.067-.533-.184-1.133-.351-1.801h7.2v32.75Z" fill="#1a171b" stroke-width="0"/>
          <path d="M205.182,35.52v8.85c0,.668.142,1.117.425,1.351s.741.35,1.375.35,1.075-.149,1.325-.45c.25-.3.375-.75.375-1.35v-6.05h6.5v6c0,.967-.117,1.759-.35,2.375-.234.617-.668,1.1-1.301,1.45-.633.35-1.517.591-2.649.725-1.134.133-2.617.2-4.45.2-1.7,0-3.084-.075-4.15-.226-1.066-.149-1.883-.416-2.449-.8-.567-.383-.95-.875-1.15-1.475-.2-.601-.3-1.351-.3-2.25v-17.5c0-1,.149-1.792.45-2.375.3-.583.782-1.025,1.449-1.325s1.525-.491,2.575-.575c1.05-.083,2.342-.125,3.875-.125,1.7,0,3.092.034,4.175.101s1.941.242,2.575.524c.633.284,1.075.709,1.325,1.275.25.567.375,1.35.375,2.35v8.95h-10ZM208.632,33.12v-6.649c0-.967-.567-1.45-1.7-1.45-1.167,0-1.75.5-1.75,1.5v6.6h3.45Z" fill="#1a171b" stroke-width="0"/>
          <path d="M235.832,27.02v19.35c0,.601.024,1.025.074,1.275.051.25.142.542.275.875h-7.101v-21.55c0-.667-.108-1.116-.324-1.351-.218-.232-.643-.35-1.275-.35-1.033,0-1.55.567-1.55,1.7v19.399c0,.601.024,1.025.075,1.275.05.25.141.542.274.875h-7.35c.066-.3.125-.592.175-.875s.075-.708.075-1.275v-20.949c0-.59-.034-1.099-.101-1.525s-.133-.787-.199-1.082h6l.75.836c.066-.033.291-.146.675-.344.383-.197.958-.401,1.725-.615.767-.213,1.566-.32,2.4-.32.933,0,1.732.125,2.4.375.666.25,1.332.659,2,1.226.066-.033.308-.167.725-.4.416-.232,1.083-.491,2-.774.916-.283,1.925-.426,3.025-.426,1.966,0,3.341.378,4.125,1.131.782.754,1.175,1.794,1.175,3.119v19.75c0,.601.024,1.025.075,1.275.05.25.141.542.274.875h-7.1v-21.45c0-.666-.117-1.133-.351-1.399s-.684-.4-1.35-.4c-1.067,0-1.6.584-1.6,1.75Z" fill="#1a171b" stroke-width="0"/>
          <path d="M256.732,35.52v8.85c0,.668.142,1.117.425,1.351s.742.35,1.375.35,1.075-.149,1.325-.45c.25-.3.375-.75.375-1.35v-6.05h6.5v6c0,.967-.117,1.759-.35,2.375-.233.617-.667,1.1-1.3,1.45-.634.35-1.518.591-2.65.725-1.134.133-2.617.2-4.45.2-1.7,0-3.083-.075-4.149-.226-1.067-.149-1.884-.416-2.45-.8-.567-.383-.95-.875-1.15-1.475-.2-.601-.3-1.351-.3-2.25v-17.5c0-1,.15-1.792.45-2.375s.782-1.025,1.45-1.325c.666-.3,1.524-.491,2.574-.575,1.051-.083,2.342-.125,3.875-.125,1.7,0,3.092.034,4.176.101,1.082.066,1.941.242,2.574.524.633.284,1.075.709,1.325,1.275.25.567.375,1.35.375,2.35v8.95h-10ZM260.182,33.12v-6.649c0-.967-.567-1.45-1.7-1.45-1.167,0-1.75.5-1.75,1.5v6.6h3.45Z" fill="#1a171b" stroke-width="0"/>
          <path d="M285.956,23.402c.95.688,1.426,1.611,1.426,2.769v20.199c0,.601.024,1.025.074,1.275.051.25.142.542.275.875h-7.1v-21.55c0-1.167-.534-1.75-1.601-1.75-.467,0-.842.175-1.125.524-.283.351-.425.759-.425,1.226v19.399c0,.601.025,1.025.075,1.275s.142.542.274.875h-7.35c.066-.3.125-.592.175-.875s.075-.708.075-1.275v-20.949c0-.59-.033-1.099-.1-1.525-.067-.427-.134-.787-.2-1.082h6l.75.836c.066-.033.291-.146.675-.344.383-.197.958-.401,1.725-.615.767-.213,1.566-.32,2.4-.32,1.7,0,3.025.345,3.975,1.032Z" fill="#1a171b" stroke-width="0"/>
          <path d="M295.956,48.645c-.851-.084-1.567-.283-2.15-.6s-1.033-.775-1.35-1.375c-.317-.601-.476-1.4-.476-2.4v-19h-2.1v-2.5h2.1v-4.7l6.7-1.149v5.85h3.55v2.5h-3.5v17.25c0,1.367.184,2.283.551,2.75.366.467.982.7,1.85.7h2v2.399c-.067,0-.317.034-.75.101-.434.066-1,.133-1.7.2-.7.066-1.317.1-1.85.1-1.067,0-2.025-.042-2.875-.125Z" fill="#1a171b" stroke-width="0"/>
          <path d="M306.681,35.52c-.434-.267-.759-.566-.975-.9-.218-.332-.359-.707-.426-1.125-.066-.416-.1-.875-.1-1.375v-5.649c0-1.5.575-2.566,1.725-3.2,1.15-.633,2.726-.95,4.726-.95h3.015c.956,0,2.002.042,3.135.125,1.133.084,2.2.209,3.2.375v8.3h-5.05v-2.899c0-1.066-.189-1.866-.568-2.4-.38-.532-1.031-.8-1.953-.8-1.319,0-1.979.667-1.979,2v2.9c0,.566.033,1.033.1,1.399.066.367.2.684.4.95.2.268.5.509.9.725.399.218.933.426,1.6.625.467.168.933.301,1.4.4.466.1.933.233,1.399.4,1.601.5,2.726,1.017,3.375,1.55.65.533.976,1.35.976,2.45v6.05c0,1.6-.543,2.75-1.625,3.45-1.084.699-2.859,1.05-5.325,1.05h-2c-1.067,0-2.268-.034-3.601-.101s-2.533-.233-3.6-.5v-9.149h5.55v3.85c0,1.268.226,2.125.675,2.575.45.45.958.675,1.525.675,1.333,0,2-.716,2-2.149v-4.051c0-.866-.283-1.5-.85-1.899-.567-.4-1.2-.683-1.9-.851-.768-.166-1.459-.332-2.075-.5-.617-.166-1.274-.366-1.975-.6-.7-.232-1.268-.482-1.7-.75Z" fill="#1a171b" stroke-width="0"/>
          <path d="M343.379,35.52v8.85c0,.668.142,1.117.425,1.351s.742.35,1.375.35,1.075-.149,1.325-.45c.25-.3.375-.75.375-1.35v-6.05h6.5v6c0,.967-.117,1.759-.35,2.375-.233.617-.667,1.1-1.3,1.45-.634.35-1.518.591-2.65.725-1.134.133-2.617.2-4.45.2-1.7,0-3.083-.075-4.149-.226-1.067-.149-1.884-.416-2.45-.8-.567-.383-.95-.875-1.15-1.475-.2-.601-.3-1.351-.3-2.25v-17.5c0-1,.15-1.792.45-2.375s.782-1.025,1.45-1.325c.666-.3,1.524-.491,2.574-.575,1.051-.083,2.342-.125,3.875-.125,1.7,0,3.092.034,4.176.101,1.082.066,1.941.242,2.574.524.633.284,1.075.709,1.325,1.275.25.567.375,1.35.375,2.35v8.95h-10ZM346.829,33.12v-6.649c0-.967-.567-1.45-1.7-1.45-1.167,0-1.75.5-1.75,1.5v6.6h3.45Z" fill="#1a171b" stroke-width="0"/>
          <path d="M361.954,48.645c-.851-.084-1.567-.283-2.15-.6s-1.033-.775-1.35-1.375c-.317-.601-.476-1.4-.476-2.4v-19h-2.1v-2.5h2.1v-4.7l6.7-1.149v5.85h3.55v2.5h-3.5v17.25c0,1.367.184,2.283.551,2.75.366.467.982.7,1.85.7h2v2.399c-.067,0-.317.034-.75.101-.434.066-1,.133-1.7.2-.7.066-1.317.1-1.85.1-1.067,0-2.025-.042-2.875-.125Z" fill="#1a171b" stroke-width="0"/>
          <path d="M391.104,26.595c-.649.25-1.134.55-1.45.899-.316.351-.517.718-.6,1.101-.084.384-.125.708-.125.975v16.8c0,.601.025,1.025.075,1.275s.142.542.274.875h-7.35c.066-.3.125-.592.175-.875s.075-.708.075-1.275v-20.949c0-.601-.033-1.117-.1-1.551-.067-.433-.134-.8-.2-1.1h6l.85,1.15c.033-.033.217-.167.55-.4.333-.232.858-.491,1.575-.775.717-.282,1.508-.425,2.375-.425h1.25v3.9h-.75c-1.1,0-1.975.125-2.625.375Z" fill="#1a171b" stroke-width="0"/>
          <path d="M403.378,35.52v8.85c0,.668.142,1.117.425,1.351s.742.35,1.375.35,1.075-.149,1.325-.45c.25-.3.375-.75.375-1.35v-6.05h6.5v6c0,.967-.117,1.759-.35,2.375-.233.617-.667,1.1-1.3,1.45-.634.35-1.518.591-2.65.725-1.134.133-2.617.2-4.45.2-1.7,0-3.083-.075-4.149-.226-1.067-.149-1.884-.416-2.45-.8-.567-.383-.95-.875-1.15-1.475-.2-.601-.3-1.351-.3-2.25v-17.5c0-1,.15-1.792.45-2.375s.782-1.025,1.45-1.325c.666-.3,1.524-.491,2.574-.575,1.051-.083,2.342-.125,3.875-.125,1.7,0,3.092.034,4.176.101,1.082.066,1.941.242,2.574.524.633.284,1.075.709,1.325,1.275.25.567.375,1.35.375,2.35v8.95h-10ZM404.178,20.67l-4.149-4.851h5.399l2.551,4.851h-3.801ZM406.828,33.12v-6.649c0-.967-.567-1.45-1.7-1.45-1.167,0-1.75.5-1.75,1.5v6.6h3.45Z" fill="#1a171b" stroke-width="0"/>
          <path d="M427.428,48.37c-.6.2-1.325.316-2.175.351-.85.032-1.577.05-2.182.05-2.049,0-3.51-.325-4.383-.975-.874-.65-1.311-1.875-1.311-3.676v-18c0-1.532.482-2.55,1.45-3.05.966-.5,2.482-.75,4.55-.75.933,0,1.866.159,2.8.476.933.316,1.683.675,2.25,1.074.366-.466.683-.832.95-1.1h5.05c0,.033-.033.2-.1.5-.067.3-.143.7-.226,1.2s-.125.967-.125,1.399v29.101c0,1.666-.449,2.833-1.35,3.5-.9.666-2.2,1-3.9,1h-5.6c-1,0-1.85-.034-2.55-.101s-1.275-.225-1.726-.475c-.449-.25-.774-.625-.975-1.125s-.3-1.184-.3-2.05v-4.8h6.35v4.55c0,.899.566,1.35,1.7,1.35.533,0,.967-.125,1.3-.375s.5-.608.5-1.075v-7ZM424.578,25.445c-.3.25-.45.659-.45,1.226v17.35c0,.7.142,1.2.425,1.5s.708.45,1.275.45c.532,0,.941-.15,1.225-.45s.425-.8.425-1.5v-17.35c0-1.066-.566-1.601-1.699-1.601-.5,0-.9.125-1.2.375Z" fill="#1a171b" stroke-width="0"/>
          <path d="M444.777,46.37c0,.601.025,1.025.075,1.275s.142.542.274.875h-7.35c.066-.3.125-.592.175-.875s.075-.708.075-1.275v-29.1c0-.7-.033-1.316-.1-1.85-.067-.533-.184-1.133-.351-1.801h7.2v32.75Z" fill="#1a171b" stroke-width="0"/>
          <path d="M455.577,35.52v8.85c0,.668.142,1.117.425,1.351s.742.35,1.375.35,1.075-.149,1.325-.45c.25-.3.375-.75.375-1.35v-6.05h6.5v6c0,.967-.117,1.759-.35,2.375-.233.617-.667,1.1-1.3,1.45-.634.35-1.518.591-2.65.725-1.134.133-2.617.2-4.45.2-1.7,0-3.083-.075-4.149-.226-1.067-.149-1.884-.416-2.45-.8-.567-.383-.95-.875-1.15-1.475-.2-.601-.3-1.351-.3-2.25v-17.5c0-1,.15-1.792.45-2.375s.782-1.025,1.45-1.325c.666-.3,1.524-.491,2.574-.575,1.051-.083,2.342-.125,3.875-.125,1.7,0,3.092.034,4.176.101,1.082.066,1.941.242,2.574.524.633.284,1.075.709,1.325,1.275.25.567.375,1.35.375,2.35v8.95h-10ZM459.027,33.12v-6.649c0-.967-.567-1.45-1.7-1.45-1.167,0-1.75.5-1.75,1.5v6.6h3.45Z" fill="#1a171b" stroke-width="0"/>
          <path d="M471.077,35.52c-.434-.267-.759-.566-.975-.9-.218-.332-.359-.707-.426-1.125-.066-.416-.1-.875-.1-1.375v-5.649c0-1.5.575-2.566,1.725-3.2,1.15-.633,2.726-.95,4.726-.95h3.015c.956,0,2.002.042,3.135.125,1.133.084,2.2.209,3.2.375v8.3h-5.05v-2.899c0-1.066-.189-1.866-.568-2.4-.38-.532-1.031-.8-1.953-.8-1.319,0-1.979.667-1.979,2v2.9c0,.566.033,1.033.1,1.399.066.367.2.684.4.95.2.268.5.509.9.725.399.218.933.426,1.6.625.467.168.933.301,1.4.4.466.1.933.233,1.399.4,1.601.5,2.726,1.017,3.375,1.55.65.533.976,1.35.976,2.45v6.05c0,1.6-.543,2.75-1.625,3.45-1.084.699-2.859,1.05-5.325,1.05h-2c-1.067,0-2.268-.034-3.601-.101s-2.533-.233-3.6-.5v-9.149h5.55v3.85c0,1.268.226,2.125.675,2.575.45.45.958.675,1.525.675,1.333,0,2-.716,2-2.149v-4.051c0-.866-.283-1.5-.85-1.899-.567-.4-1.2-.683-1.9-.851-.768-.166-1.459-.332-2.075-.5-.617-.166-1.274-.366-1.975-.6-.7-.232-1.268-.482-1.7-.75Z" fill="#1a171b" stroke-width="0"/>
        </g>
      </g>
    </g>
  </g>
</svg>