<?xml version="1.0" encoding="UTF-8"?>
<svg id="Calque_1" xmlns="http://www.w3.org/2000/svg" version="1.1" viewBox="0 0 472.5 66">
  <!-- Generator: Adobe Illustrator 29.3.0, SVG Export Plug-In . SVG Version: 2.1.0 Build 146)  -->
  <defs>
    <style>
      .st0 {
        fill: #c00418;
      }
    </style>
  </defs>
  <rect class="st0" x="102.2" y="30.7" width="69.1" height="8.9"/>
  <path class="st0" d="M65.2,17.9c-9.1-1-13.9,9.9-5.9,16.4-5.7,0-9.3-3.1-12.4-8.5-.2-.3-.7-1.2-.7-1.2,0,0-.5.9-.7,1.2-3,5.4-6.7,8.5-12.4,8.5h-1.5c1.2-2.2,3.3-3.6,4.2-4.9,1.1-1.4,1.8-3.1,1.8-5,0-4.4-3.6-8-8-8s-8,3.6-8,8,.7,3.6,1.8,5c.9,1.2,2.8,2.5,4,4.5-.6-.2-.9-.3-1.1-.4-2.5-1.1-4-3.4-5.4-4.5-1.4-1.1-3.1-1.8-5-1.8-4.4,0-7.9,3.5-7.9,7.9h0c0,4.4,3.6,7.9,7.9,7.9s3.6-.7,5-1.8c1.4-1,2.9-3.4,5.4-4.5.2,0,.5-.2,1.1-.4-1.2,2-3.1,3.3-4,4.5-1.1,1.4-1.8,3.1-1.8,5,0,4.4,3.6,8,8,8s8-3.6,8-8-.7-3.6-1.8-5c-1-1.3-3.1-2.7-4.2-4.9h1.5c5.7,0,9.4,3,12.4,8.5.2.3.7,1.3.7,1.3,0,0,.5-.9.7-1.2,3.1-5.4,6.7-8.5,12.4-8.5-8.1,6.5-3.3,17.4,5.9,16.4,8.6-1,11.9-15.8,25.1-17.3-13.2-1.5-16.5-16.4-25.1-17.3ZM53.2,35.2c-2.8,1.2-5.3,3.3-6.9,6.1-1.6-2.8-4.2-4.9-6.9-6.1h0s0,0,0,0h0s0,0,0,0c2.8-1.2,5.3-3.3,6.9-6.1,1.6,2.8,4.2,4.9,6.9,6.1,0,0,0,0,0,0,0,0,0,0,0,0ZM69.5,35.2c2.1,1.5,2.2,2.7,2.2,3.5,0,1.6-1.3,3-3.3,2.8-2.8-.3-5.2-6.3-9.1-6.3h.4c3.6-.4,5.9-6,8.7-6.3,2-.2,3.3,1.2,3.3,2.8s0,2-2.2,3.5h0Z"/>
  <path d="M135.9,26.1v-7.5c0-.9-.2-1.5-.5-1.8-.3-.3-.9-.5-1.6-.5s-1.5.1-1.8.5c-.4.3-.5.9-.5,1.8v25c0,.8.1,1.4.4,1.7.3.3.8.5,1.4.5s1.3-.2,1.5-.5c.2-.3.4-.9.4-1.6v-8.8h7.1v8.8c0,1,0,1.9-.3,2.6-.2.7-.6,1.2-1.2,1.7-.6.4-1.5.7-2.7.9s-2.8.3-4.9.3-3.4,0-4.6-.2c-1.2-.2-2.1-.4-2.7-.8-.6-.4-1-.9-1.2-1.6-.2-.7-.3-1.5-.3-2.5v-25.9c0-1,.1-1.9.4-2.5.3-.6.8-1.1,1.5-1.4s1.7-.5,2.9-.6c1.2-.1,2.7-.1,4.5-.1s3.8,0,5.3.2c1.4.1,2.6.3,3.5.4,0,.6,0,1.2,0,1.9s0,1.5,0,2.4v7.9h-6.3,0Z"/>
  <path d="M152.9,46.4c0,.6,0,1,0,1.3,0,.2.1.5.3.9h-7.4c0-.3.1-.6.2-.9,0-.3,0-.7,0-1.3v-29.1c0-.7,0-1.3-.1-1.9s-.2-1.1-.4-1.8h7.2v32.8h0Z"/>
  <path d="M166.5,47.9c-.5.2-1.2.5-2,.7-.9.2-1.6.4-2.4.4s-1.3,0-1.9-.2c-.6-.2-1.2-.4-1.6-.7s-.9-.7-1.1-1.1c-.3-.5-.4-1-.4-1.6v-8.2c0-1,.4-1.9,1.1-2.5.7-.6,1.7-1,2.8-1.2.6,0,1.1-.2,1.6-.2s1-.2,1.5-.3c1.1-.2,1.8-.5,2.2-.9.4-.4.6-.9.6-1.6v-3.6c0-.6-.2-1-.5-1.3-.3-.3-.8-.4-1.3-.4-.8,0-1.5.3-1.9.9s-.6,1.2-.6,2v2.5h-5v-6.2c0-.2,0-.6,0-1.2,1.1-.1,2-.2,2.8-.4s1.7-.2,2.6-.2c.9,0,1.7-.1,2.5-.1,1.5,0,2.7,0,3.7.1s1.8.2,2.4.5,1,.6,1.3,1.1.4,1.1.4,1.9v18.8c0,.6,0,1.3.2,2,.1.7.3,1.3.4,1.8h-5.2l-1.1-1c0,0-.4.2-.9.4h0ZM164.1,36.1c-.5.5-.8,1.2-.8,2v5.8c0,.5.1.9.4,1.3s.7.7,1.3.7,1.1-.2,1.4-.5c.2-.4.3-.9.3-1.5v-8.5h-.8c-.7,0-1.3.2-1.8.8Z"/>
  <path d="M178.8,35.5c-.4-.3-.8-.6-1-.9-.2-.3-.4-.7-.4-1.1,0-.4-.1-.9-.1-1.4v-5.6c0-1.5.6-2.6,1.7-3.2,1.1-.6,2.7-1,4.7-1h3c1,0,2,0,3.1.1,1.1,0,2.2.2,3.2.4v8.3h-5.1v-2.9c0-1.1-.2-1.9-.6-2.4-.4-.5-1-.8-1.9-.8-1.3,0-2,.7-2,2v2.9c0,.6,0,1,.1,1.4,0,.4.2.7.4,1s.5.5.9.7.9.4,1.6.6c.5.2.9.3,1.4.4.5,0,.9.2,1.4.4,1.6.5,2.7,1,3.4,1.5.6.5,1,1.3,1,2.5v6c0,1.6-.5,2.8-1.6,3.5s-2.9,1-5.3,1h-2c-1.1,0-2.3,0-3.6,0s-2.5-.2-3.6-.5v-9.2h5.6v3.8c0,1.3.2,2.1.7,2.6s1,.7,1.5.7c1.3,0,2-.7,2-2.2v-4c0-.9-.3-1.5-.9-1.9s-1.2-.7-1.9-.8c-.8-.2-1.5-.3-2.1-.5s-1.3-.4-2-.6-1.3-.5-1.7-.8h0Z"/>
  <path d="M199.2,35.5c-.4-.3-.8-.6-1-.9-.2-.3-.4-.7-.4-1.1,0-.4-.1-.9-.1-1.4v-5.6c0-1.5.6-2.6,1.7-3.2,1.1-.6,2.7-1,4.7-1h3c1,0,2,0,3.1.1,1.1,0,2.2.2,3.2.4v8.3h-5.1v-2.9c0-1.1-.2-1.9-.6-2.4-.4-.5-1-.8-1.9-.8-1.3,0-2,.7-2,2v2.9c0,.6,0,1,.1,1.4,0,.4.2.7.4,1s.5.5.9.7.9.4,1.6.6c.5.2.9.3,1.4.4.5,0,.9.2,1.4.4,1.6.5,2.7,1,3.4,1.5.6.5,1,1.3,1,2.5v6c0,1.6-.5,2.8-1.6,3.5s-2.9,1-5.3,1h-2c-1.1,0-2.3,0-3.6,0s-2.5-.2-3.6-.5v-9.2h5.6v3.8c0,1.3.2,2.1.7,2.6s1,.7,1.5.7c1.3,0,2-.7,2-2.2v-4c0-.9-.3-1.5-.9-1.9s-1.2-.7-1.9-.8c-.8-.2-1.5-.3-2.1-.5s-1.3-.4-2-.6-1.3-.5-1.7-.8h0Z"/>
  <path d="M224.9,35.5v8.9c0,.7.1,1.1.4,1.3.3.2.7.3,1.4.3s1.1-.2,1.3-.5.4-.8.4-1.3v-6h6.5v6c0,1-.1,1.8-.4,2.4-.2.6-.7,1.1-1.3,1.5-.6.3-1.5.6-2.6.7-1.1.1-2.6.2-4.4.2s-3.1,0-4.1-.2c-1.1-.2-1.9-.4-2.4-.8-.6-.4-.9-.9-1.1-1.5-.2-.6-.3-1.3-.3-2.2v-17.5c0-1,.1-1.8.4-2.4.3-.6.8-1,1.4-1.3s1.5-.5,2.6-.6c1.1,0,2.3-.1,3.9-.1s3.1,0,4.2.1,1.9.2,2.6.5,1.1.7,1.3,1.3.4,1.4.4,2.4v9h-10ZM228.3,33.1v-6.6c0-1-.6-1.5-1.7-1.5s-1.8.5-1.8,1.5v6.6h3.4Z"/>
  <path d="M255.5,27v19.4c0,.6,0,1,0,1.3s.1.5.3.9h-7.1v-21.5c0-.7-.1-1.1-.3-1.4s-.6-.4-1.3-.4c-1,0-1.6.6-1.6,1.7v19.4c0,.6,0,1,0,1.3s.1.5.3.9h-7.4c0-.3.1-.6.2-.9,0-.3,0-.7,0-1.3v-21c0-.6,0-1.1-.1-1.5s-.1-.8-.2-1.1h6l.8.8c0,0,.3-.1.7-.3.4-.2,1-.4,1.7-.6s1.6-.3,2.4-.3,1.7.1,2.4.4c.7.2,1.3.7,2,1.2,0,0,.3-.2.7-.4.4-.2,1.1-.5,2-.8.9-.3,1.9-.4,3-.4,2,0,3.3.4,4.1,1.1s1.2,1.8,1.2,3.1v19.8c0,.6,0,1,0,1.3,0,.2.1.5.3.9h-7.1v-21.5c0-.7-.1-1.1-.4-1.4s-.7-.4-1.4-.4c-1.1,0-1.6.6-1.6,1.8h0Z"/>
  <path d="M276.4,35.5v8.9c0,.7.1,1.1.4,1.3s.7.3,1.4.3,1.1-.2,1.3-.5.4-.8.4-1.3v-6h6.5v6c0,1-.1,1.8-.4,2.4-.2.6-.7,1.1-1.3,1.5-.6.3-1.5.6-2.6.7s-2.6.2-4.5.2-3.1,0-4.1-.2c-1.1-.2-1.9-.4-2.5-.8s-1-.9-1.1-1.5c-.2-.6-.3-1.3-.3-2.2v-17.5c0-1,.1-1.8.5-2.4.3-.6.8-1,1.5-1.3s1.5-.5,2.6-.6c1,0,2.3-.1,3.9-.1s3.1,0,4.2.1c1.1,0,1.9.2,2.6.5s1.1.7,1.3,1.3.4,1.4.4,2.4v9h-10ZM279.9,33.1v-6.6c0-1-.6-1.5-1.7-1.5s-1.8.5-1.8,1.5v6.6h3.5Z"/>
  <path d="M305.6,23.4c1,.7,1.4,1.6,1.4,2.8v20.2c0,.6,0,1,0,1.3,0,.2.1.5.3.9h-7.1v-21.5c0-1.2-.5-1.8-1.6-1.8s-.8.2-1.1.5-.4.8-.4,1.2v19.4c0,.6,0,1,0,1.3s.1.5.3.9h-7.4c0-.3.1-.6.2-.9,0-.3,0-.7,0-1.3v-21c0-.6,0-1.1-.1-1.5s-.1-.8-.2-1.1h6l.8.8c0,0,.3-.1.7-.3.4-.2,1-.4,1.7-.6s1.6-.3,2.4-.3c1.7,0,3,.3,4,1h0Z"/>
  <path d="M315.6,48.6c-.9,0-1.6-.3-2.1-.6s-1-.8-1.4-1.4c-.3-.6-.5-1.4-.5-2.4v-19h-2.1v-2.5h2.1v-4.7l6.7-1.1v5.9h3.5v2.5h-3.5v17.2c0,1.4.2,2.3.5,2.8s1,.7,1.9.7h2v2.4c0,0-.3,0-.8,0s-1,.1-1.7.2-1.3,0-1.9,0c-1.1,0-2,0-2.9-.1h0Z"/>
  <path d="M345.9,48.4c-.6.2-1.3.3-2.2.3-.9,0-1.6,0-2.2,0-2,0-3.5-.3-4.4-1s-1.3-1.9-1.3-3.7v-18c0-1.5.5-2.5,1.5-3s2.5-.8,4.5-.8,1.9.2,2.8.5c.9.3,1.7.7,2.2,1.1.4-.5.7-.8,1-1.1h5s0,.2-.1.5-.1.7-.2,1.2-.1,1-.1,1.4v29.1c0,1.7-.5,2.8-1.4,3.5s-2.2,1-3.9,1h-5.6c-1,0-1.9,0-2.5,0-.7,0-1.3-.2-1.7-.5s-.8-.6-1-1.1-.3-1.2-.3-2v-4.8h6.4v4.5c0,.9.6,1.3,1.7,1.3s1-.1,1.3-.4.5-.6.5-1.1v-7h0ZM343.1,25.4c-.3.2-.5.7-.5,1.2v17.4c0,.7.1,1.2.4,1.5s.7.5,1.3.5.9-.2,1.2-.5.4-.8.4-1.5v-17.4c0-1.1-.6-1.6-1.7-1.6s-.9.1-1.2.4h0Z"/>
  <path d="M363.3,35.5v8.9c0,.7.1,1.1.4,1.3s.7.3,1.4.3,1.1-.2,1.3-.5.4-.8.4-1.3v-6h6.5v6c0,1-.1,1.8-.4,2.4-.2.6-.7,1.1-1.3,1.5-.6.3-1.5.6-2.6.7s-2.6.2-4.5.2-3.1,0-4.1-.2c-1.1-.2-1.9-.4-2.5-.8s-1-.9-1.1-1.5c-.2-.6-.3-1.3-.3-2.2v-17.5c0-1,.1-1.8.5-2.4.3-.6.8-1,1.5-1.3s1.5-.5,2.6-.6c1,0,2.3-.1,3.9-.1s3.1,0,4.2.1c1.1,0,1.9.2,2.6.5s1.1.7,1.3,1.3.4,1.4.4,2.4v9h-10ZM362.1,20.7l2.5-4.9h5.4l-4.1,4.9h-3.8ZM366.8,33.1v-6.6c0-1-.6-1.5-1.7-1.5s-1.8.5-1.8,1.5v6.6h3.5Z"/>
  <path d="M392.5,23.4c1,.7,1.4,1.6,1.4,2.8v20.2c0,.6,0,1,0,1.3,0,.2.1.5.3.9h-7.1v-21.5c0-1.2-.5-1.8-1.6-1.8s-.8.2-1.1.5-.4.8-.4,1.2v19.4c0,.6,0,1,0,1.3s.1.5.3.9h-7.4c0-.3.1-.6.2-.9,0-.3,0-.7,0-1.3v-21c0-.6,0-1.1-.1-1.5s-.1-.8-.2-1.1h6l.8.8c0,0,.3-.1.7-.3.4-.2,1-.4,1.7-.6s1.6-.3,2.4-.3c1.7,0,3,.3,4,1h0Z"/>
  <path d="M404.8,35.5v8.9c0,.7.1,1.1.4,1.3s.7.3,1.4.3,1.1-.2,1.3-.5.4-.8.4-1.3v-6h6.5v6c0,1-.1,1.8-.4,2.4-.2.6-.7,1.1-1.3,1.5-.6.3-1.5.6-2.6.7s-2.6.2-4.5.2-3.1,0-4.1-.2c-1.1-.2-1.9-.4-2.5-.8s-1-.9-1.1-1.5c-.2-.6-.3-1.3-.3-2.2v-17.5c0-1,.1-1.8.5-2.4.3-.6.8-1,1.5-1.3s1.5-.5,2.6-.6c1,0,2.3-.1,3.9-.1s3.1,0,4.2.1c1.1,0,1.9.2,2.6.5s1.1.7,1.3,1.3.4,1.4.4,2.4v9h-10ZM403.5,20.7l2.5-4.9h5.4l-4.1,4.9h-3.8ZM408.2,33.1v-6.6c0-1-.6-1.5-1.7-1.5s-1.8.5-1.8,1.5v6.6h3.5Z"/>
  <path d="M427.7,26.6c-.6.2-1.1.5-1.5.9s-.5.7-.6,1.1c0,.4-.1.7-.1,1v16.8c0,.6,0,1,0,1.3s.1.5.3.9h-7.4c0-.3.1-.6.2-.9,0-.3,0-.7,0-1.3v-21c0-.6,0-1.1-.1-1.5,0-.4-.1-.8-.2-1.1h6l.9,1.1s.2-.2.5-.4.9-.5,1.6-.8,1.5-.4,2.4-.4h1.2v3.9h-.8c-1.1,0-2,.1-2.6.4h0Z"/>
  <path d="M442.8,47.9c-.5.2-1.2.5-2,.7-.9.2-1.6.4-2.4.4s-1.3,0-1.9-.2c-.6-.2-1.2-.4-1.6-.7-.5-.3-.9-.7-1.1-1.1-.3-.5-.4-1-.4-1.6v-8.2c0-1,.4-1.9,1.1-2.5s1.7-1,2.8-1.2c.6,0,1.1-.2,1.5-.2s1-.2,1.5-.3c1.1-.2,1.8-.5,2.2-.9s.6-.9.6-1.6v-3.6c0-.6-.2-1-.5-1.3s-.8-.4-1.3-.4c-.8,0-1.5.3-1.9.9s-.6,1.2-.6,2v2.5h-5v-6.2c0-.2,0-.6,0-1.2,1.1-.1,2-.2,2.8-.4s1.7-.2,2.6-.2c.9,0,1.7-.1,2.5-.1,1.5,0,2.7,0,3.7.1s1.8.2,2.4.5c.6.2,1,.6,1.3,1.1s.4,1.1.4,1.9v18.8c0,.6,0,1.3.2,2s.3,1.3.4,1.8h-5.2l-1.1-1c0,0-.4.2-.9.4h0ZM440.4,36.1c-.5.5-.8,1.2-.8,2v5.8c0,.5.1.9.4,1.3.3.4.7.7,1.3.7s1.1-.2,1.4-.5c.2-.4.3-.9.3-1.5v-8.5h-.8c-.7,0-1.3.2-1.8.8Z"/>
  <path d="M460.3,46.4c0,.6,0,1,0,1.3s.1.5.3.9h-7.4c0-.3.1-.6.2-.9,0-.3,0-.7,0-1.3v-29.1c0-.7,0-1.3-.1-1.9,0-.5-.2-1.1-.4-1.8h7.2v32.8h0Z"/>
</svg>