<?xml version="1.0" encoding="UTF-8"?>
<svg xmlns="http://www.w3.org/2000/svg" version="1.1" viewBox="0 0 240.292 65.96">
  <g isolation="isolate">
    <g id="Calque_1" data-name="Calque 1">
      <g>
        <rect x="102.209" y="30.675" width="69.137" height="8.886" fill="#c00418" stroke-width="0"/>
        <path d="M65.187,17.847c-9.13-1.007-13.928,9.898-5.867,16.417-5.69,0-9.323-3.077-12.387-8.475-.176-.31-.712-1.235-.712-1.235,0,0-.528.933-.703,1.244-3.042,5.41-6.698,8.475-12.387,8.475l-.464-.005h0s-1.072.001-1.072.001c1.147-2.245,3.262-3.636,4.249-4.928,1.108-1.366,1.772-3.107,1.772-5.005,0-4.392-3.561-7.952-7.953-7.952s-7.953,3.561-7.953,7.952c0,1.897.665,3.638,1.773,5.005.918,1.203,2.813,2.491,3.996,4.472-.569-.158-.91-.302-1.09-.379-2.524-1.074-4.015-3.415-5.396-4.468-1.366-1.109-3.108-1.773-5.005-1.773-4.373,0-7.919,3.529-7.951,7.894h-.002c0,.01.001.02.001.03,0,.01-.001.02-.001.03h.002c.032,4.365,3.579,7.894,7.951,7.894,1.897,0,3.638-.665,5.005-1.772,1.38-1.054,2.871-3.395,5.396-4.468.18-.077.521-.22,1.09-.378-1.183,1.981-3.079,3.269-3.996,4.471-1.108,1.366-1.773,3.108-1.773,5.005,0,4.393,3.561,7.953,7.953,7.953s7.953-3.561,7.953-7.953c0-1.897-.665-3.638-1.772-5.005-.987-1.292-3.101-2.683-4.249-4.928h1.072s.464-.004.464-.004c5.69,0,9.409,3.03,12.387,8.475.179.327.703,1.315.703,1.315,0,0,.536-.925.712-1.234,3.064-5.398,6.697-8.475,12.387-8.475-8.06,6.519-3.262,17.424,5.867,16.417,8.596-.949,11.913-15.824,25.129-17.306-13.216-1.481-16.533-16.357-25.129-17.306ZM53.215,35.174c-2.751,1.215-5.274,3.324-6.913,6.079-1.638-2.755-4.161-4.864-6.912-6.079l-.089-.003.042-.018-.042-.018.089-.003c2.751-1.215,5.274-3.324,6.912-6.079,1.639,2.755,4.162,4.864,6.913,6.079,0,0,.024.011.047.021-.023.011-.047.021-.047.021ZM69.503,35.153c2.138,1.513,2.223,2.727,2.223,3.479.001,1.607-1.333,3.035-3.305,2.821-2.85-.308-5.245-6.332-9.094-6.3h.005-.005.006l.4-.019c3.614-.371,5.939-5.984,8.687-6.281,1.972-.213,3.306,1.215,3.305,2.822,0,.751-.086,1.965-2.223,3.478h-.003.003Z" fill="#c00418" stroke-width="0"/>
        <g>
          <path d="M131.383,35.369v8.699c0,.934.091,1.842.275,2.725.183.885.325,1.459.425,1.726h-8.15c.233-1.133.35-2.417.35-3.851v-26.6c0-.732-.05-1.457-.15-2.175-.1-.716-.234-1.476-.4-2.274h12.65c2.167,0,3.675.324,4.525.975s1.275,1.809,1.275,3.475v12.301c0,.967-.092,1.774-.275,2.424-.184.65-.45,1.168-.8,1.551-.35.383-.784.65-1.3.8-.517.149-1.108.226-1.775.226h-6.65ZM131.383,17.019v15.3h1.95c.633,0,1.083-.316,1.35-.949.267-.633.4-1.268.4-1.9v-10.4c0-.566-.167-1.05-.5-1.449-.333-.4-.8-.601-1.4-.601h-1.8Z" fill="#1a171b" stroke-width="0"/>
          <path d="M152.658,25.494c-.25.35-.375.857-.375,1.524v19.351c0,.6.025,1.024.075,1.274.05.25.141.542.275.875h-7.35c.066-.3.125-.591.175-.875.05-.282.075-.708.075-1.274v-29.101c0-.7-.034-1.316-.1-1.851-.067-.532-.184-1.133-.35-1.799h7.2v9.299c.066,0,.308-.049.725-.149.417-.101.966-.2,1.65-.3.683-.1,1.275-.15,1.775-.15.667,0,1.35.051,2.05.15.7.1,1.341.275,1.925.525.583.25,1.066.592,1.45,1.024.383.434.575.983.575,1.649v20.701c0,.566.033.992.1,1.274.066.284.133.575.2.875h-6.6c-.3-.333-.45-.633-.45-.899v-20.65c0-.566-.108-1.041-.325-1.426-.217-.383-.675-.574-1.375-.574-.634,0-1.075.175-1.325.525Z" fill="#1a171b" stroke-width="0"/>
          <path d="M166.433,26.418c0-.899.15-1.615.45-2.149.3-.532.783-.95,1.45-1.25.667-.3,1.533-.491,2.6-.575,1.066-.082,2.366-.125,3.9-.125s2.8.051,3.8.15,1.791.3,2.375.6c.583.301.991.725,1.225,1.275.233.55.35,1.292.35,2.225v17.65c0,.9-.083,1.658-.25,2.275-.167.617-.534,1.107-1.1,1.475-.567.367-1.383.625-2.45.775-1.067.149-2.517.225-4.35.225-1.7,0-3.075-.067-4.125-.2-1.05-.134-1.867-.375-2.45-.726-.583-.35-.967-.816-1.15-1.399-.184-.583-.275-1.325-.275-2.226v-18ZM173.246,25.494c-.31.316-.463.725-.463,1.225v17.449c0,.668.154,1.125.463,1.375.309.25.737.375,1.287.375s.97-.115,1.262-.35c.292-.232.438-.699.438-1.4v-17.5c0-.5-.146-.899-.438-1.199-.292-.301-.729-.45-1.313-.45-.516,0-.927.159-1.236.476Z" fill="#1a171b" stroke-width="0"/>
          <path d="M191.157,48.644c-.85-.083-1.567-.282-2.15-.601-.583-.316-1.033-.774-1.35-1.375-.317-.6-.475-1.399-.475-2.399v-19h-2.1v-2.5h2.1v-4.7l6.7-1.15v5.851h3.55v2.5h-3.5v17.25c0,1.367.183,2.284.55,2.75.367.468.983.7,1.85.7h2v2.4c-.067,0-.317.033-.75.1-.434.066-1,.133-1.7.199-.7.066-1.317.101-1.85.101-1.067,0-2.025-.042-2.875-.125Z" fill="#1a171b" stroke-width="0"/>
          <path d="M200.382,26.418c0-.899.15-1.615.45-2.149.3-.532.783-.95,1.45-1.25.667-.3,1.533-.491,2.6-.575,1.066-.082,2.366-.125,3.9-.125s2.8.051,3.8.15,1.791.3,2.375.6c.583.301.991.725,1.225,1.275.233.55.35,1.292.35,2.225v17.65c0,.9-.083,1.658-.25,2.275-.167.617-.534,1.107-1.1,1.475-.567.367-1.383.625-2.45.775-1.067.149-2.517.225-4.35.225-1.7,0-3.075-.067-4.125-.2-1.05-.134-1.867-.375-2.45-.726-.583-.35-.967-.816-1.15-1.399-.184-.583-.275-1.325-.275-2.226v-18ZM207.195,25.494c-.31.316-.463.725-.463,1.225v17.449c0,.668.154,1.125.463,1.375.309.25.737.375,1.287.375s.97-.115,1.262-.35c.292-.232.438-.699.438-1.4v-17.5c0-.5-.146-.899-.438-1.199-.292-.301-.729-.45-1.313-.45-.516,0-.927.159-1.236.476Z" fill="#1a171b" stroke-width="0"/>
          <path d="M222.032,35.519c-.434-.267-.759-.566-.975-.899-.217-.334-.358-.709-.425-1.125-.067-.417-.1-.875-.1-1.375v-5.65c0-1.5.575-2.566,1.725-3.2,1.15-.633,2.725-.95,4.725-.95h3.015c.956,0,2.002.043,3.135.125,1.133.084,2.2.209,3.2.375v8.301h-5.05v-2.9c0-1.066-.189-1.867-.568-2.4-.38-.533-1.031-.8-1.954-.8-1.319,0-1.978.667-1.978,2v2.899c0,.568.033,1.034.1,1.4.066.367.2.684.4.95s.5.509.9.726.933.424,1.6.625c.467.166.933.299,1.4.399.466.101.933.233,1.399.399,1.601.5,2.726,1.018,3.375,1.551.65.533.976,1.35.976,2.449v6.051c0,1.6-.543,2.75-1.625,3.449-1.084.701-2.859,1.051-5.325,1.051h-2c-1.067,0-2.268-.033-3.6-.1-1.333-.068-2.534-.234-3.6-.5v-9.15h5.55v3.85c0,1.268.225,2.125.675,2.575.45.45.958.675,1.525.675,1.333,0,2-.717,2-2.15v-4.049c0-.867-.283-1.5-.85-1.9s-1.2-.684-1.9-.85c-.767-.167-1.458-.334-2.075-.5-.617-.167-1.275-.367-1.975-.601-.7-.233-1.268-.483-1.7-.75Z" fill="#1a171b" stroke-width="0"/>
        </g>
      </g>
    </g>
  </g>
</svg>