<?xml version="1.0" encoding="utf-8"?>
<!-- Generator: Adobe Illustrator 28.3.0, SVG Export Plug-In . SVG Version: 6.00 Build 0)  -->
<svg version="1.1" xmlns="http://www.w3.org/2000/svg" xmlns:xlink="http://www.w3.org/1999/xlink" x="0px" y="0px" width="327.8px"
	 height="66px" viewBox="0 0 327.8 66" style="enable-background:new 0 0 327.8 66;" xml:space="preserve">
<style type="text/css">
	.st0{fill:#C00418;}
</style>
<g id="Calque_1">
	<g>
		<g>
			<rect x="102.2" y="30.7" class="st0" width="69.1" height="8.9"/>
		</g>
		<path class="st0" d="M65.2,17.8c-9.1-1-13.9,9.9-5.9,16.4c-5.7,0-9.3-3.1-12.4-8.5c-0.2-0.3-0.7-1.2-0.7-1.2s-0.5,0.9-0.7,1.2
			c-3,5.4-6.7,8.5-12.4,8.5l-0.5,0v0h-1.1c1.1-2.2,3.3-3.6,4.2-4.9c1.1-1.4,1.8-3.1,1.8-5c0-4.4-3.6-8-8-8c-4.4,0-8,3.6-8,8
			c0,1.9,0.7,3.6,1.8,5c0.9,1.2,2.8,2.5,4,4.5c-0.6-0.2-0.9-0.3-1.1-0.4c-2.5-1.1-4-3.4-5.4-4.5c-1.4-1.1-3.1-1.8-5-1.8
			c-4.4,0-7.9,3.5-8,7.9h0c0,0,0,0,0,0c0,0,0,0,0,0h0c0,4.4,3.6,7.9,8,7.9c1.9,0,3.6-0.7,5-1.8c1.4-1.1,2.9-3.4,5.4-4.5
			c0.2-0.1,0.5-0.2,1.1-0.4c-1.2,2-3.1,3.3-4,4.5c-1.1,1.4-1.8,3.1-1.8,5c0,4.4,3.6,8,8,8c4.4,0,8-3.6,8-8c0-1.9-0.7-3.6-1.8-5
			c-1-1.3-3.1-2.7-4.2-4.9h1.1v0l0.5,0c5.7,0,9.4,3,12.4,8.5c0.2,0.3,0.7,1.3,0.7,1.3s0.5-0.9,0.7-1.2C50,39.1,53.6,36,59.3,36
			c-8.1,6.5-3.3,17.4,5.9,16.4c8.6-0.9,11.9-15.8,25.1-17.3C77.1,33.7,73.8,18.8,65.2,17.8z M53.2,35.2c-2.8,1.2-5.3,3.3-6.9,6.1
			c-1.6-2.8-4.2-4.9-6.9-6.1l-0.1,0c0,0,0,0,0,0c0,0,0,0,0,0l0.1,0c2.8-1.2,5.3-3.3,6.9-6.1C47.9,31.8,50.5,33.9,53.2,35.2
			C53.2,35.1,53.2,35.1,53.2,35.2C53.2,35.2,53.2,35.2,53.2,35.2z M69.5,35.2c2.1,1.5,2.2,2.7,2.2,3.5c0,1.6-1.3,3-3.3,2.8
			c-2.8-0.3-5.2-6.3-9.1-6.3h0h0c0,0,0,0,0,0l0.4,0c3.6-0.4,5.9-6,8.7-6.3c2-0.2,3.3,1.2,3.3,2.8C71.7,32.4,71.6,33.6,69.5,35.2
			L69.5,35.2L69.5,35.2z"/>
		<g>
			<path d="M131.4,35.4v8.7c0,0.9,0.1,1.8,0.3,2.7c0.2,0.9,0.3,1.5,0.4,1.7h-8.1c0.2-1.1,0.4-2.4,0.4-3.9V18.1c0-0.7,0-1.5-0.1-2.2
				c-0.1-0.7-0.2-1.5-0.4-2.3h12.6c2.2,0,3.7,0.3,4.5,1s1.3,1.8,1.3,3.5v12.3c0,1-0.1,1.8-0.3,2.4c-0.2,0.6-0.5,1.2-0.8,1.5
				c-0.4,0.4-0.8,0.7-1.3,0.8c-0.5,0.1-1.1,0.2-1.8,0.2H131.4z M131.4,17v15.3h1.9c0.6,0,1.1-0.3,1.4-0.9c0.3-0.6,0.4-1.3,0.4-1.9
				V19.1c0-0.6-0.2-1-0.5-1.4c-0.3-0.4-0.8-0.6-1.4-0.6H131.4z"/>
			<path d="M155.1,47.9c-0.5,0.2-1.2,0.5-2,0.7c-0.9,0.3-1.6,0.4-2.4,0.4c-0.7,0-1.3-0.1-1.9-0.2c-0.6-0.2-1.2-0.4-1.6-0.7
				c-0.5-0.3-0.9-0.7-1.1-1.1c-0.3-0.4-0.4-1-0.4-1.6v-8.2c0-1,0.4-1.9,1.1-2.5c0.7-0.6,1.7-1,2.8-1.2c0.6-0.1,1.1-0.1,1.5-0.2
				c0.5-0.1,1-0.2,1.5-0.3c1.1-0.2,1.8-0.5,2.2-0.9c0.4-0.3,0.6-0.9,0.6-1.6v-3.6c0-0.6-0.2-1-0.5-1.3s-0.7-0.4-1.3-0.4
				c-0.8,0-1.5,0.3-1.9,0.9c-0.4,0.6-0.6,1.2-0.6,2v2.5h-5v-6.2c0-0.2,0-0.6-0.1-1.2c1.1-0.1,2-0.2,2.8-0.4c0.8-0.1,1.7-0.2,2.6-0.2
				c0.9-0.1,1.7-0.1,2.5-0.1c1.5,0,2.7,0,3.7,0.1c1,0.1,1.8,0.2,2.4,0.5c0.6,0.2,1,0.6,1.3,1.1c0.3,0.5,0.4,1.1,0.4,1.9v18.8
				c0,0.6,0.1,1.3,0.2,2c0.1,0.7,0.3,1.3,0.4,1.8h-5.2l-1.1-1C155.9,47.5,155.6,47.7,155.1,47.9z M152.7,36.1
				c-0.5,0.5-0.8,1.2-0.8,2.1v5.8c0,0.5,0.1,0.9,0.4,1.4c0.3,0.4,0.7,0.6,1.3,0.6c0.7,0,1.1-0.2,1.3-0.5c0.2-0.4,0.3-0.9,0.3-1.5
				v-8.6h-0.8C153.9,35.3,153.3,35.6,152.7,36.1z"/>
			<path d="M174.8,26.6c-0.6,0.2-1.1,0.6-1.4,0.9c-0.3,0.3-0.5,0.7-0.6,1.1c-0.1,0.4-0.1,0.7-0.1,1v16.8c0,0.6,0,1,0.1,1.3
				c0,0.2,0.1,0.5,0.3,0.9h-7.4c0.1-0.3,0.1-0.6,0.2-0.9c0.1-0.3,0.1-0.7,0.1-1.3v-21c0-0.6,0-1.1-0.1-1.5c-0.1-0.4-0.1-0.8-0.2-1.1
				h6l0.8,1.1c0,0,0.2-0.2,0.6-0.4c0.3-0.2,0.9-0.5,1.6-0.8s1.5-0.4,2.4-0.4h1.2v3.9h-0.8C176.3,26.2,175.5,26.3,174.8,26.6z"/>
			<path d="M184.9,48.6c-0.9-0.1-1.6-0.3-2.2-0.6c-0.6-0.3-1-0.8-1.3-1.4c-0.3-0.6-0.5-1.4-0.5-2.4v-19h-2.1v-2.5h2.1v-4.7l6.7-1.1
				v5.9h3.6v2.5h-3.5v17.2c0,1.4,0.2,2.3,0.5,2.8c0.4,0.5,1,0.7,1.9,0.7h2v2.4c-0.1,0-0.3,0-0.8,0.1c-0.4,0.1-1,0.1-1.7,0.2
				c-0.7,0.1-1.3,0.1-1.8,0.1C186.7,48.8,185.7,48.7,184.9,48.6z"/>
			<path d="M200.9,35.5v8.8c0,0.7,0.1,1.1,0.4,1.3c0.3,0.2,0.7,0.3,1.4,0.3c0.6,0,1.1-0.1,1.3-0.4c0.2-0.3,0.4-0.8,0.4-1.3v-6.1h6.5
				v6c0,1-0.1,1.8-0.3,2.4c-0.2,0.6-0.7,1.1-1.3,1.5c-0.6,0.4-1.5,0.6-2.6,0.7c-1.1,0.1-2.6,0.2-4.5,0.2c-1.7,0-3.1-0.1-4.1-0.2
				c-1.1-0.2-1.9-0.4-2.4-0.8c-0.6-0.4-1-0.9-1.2-1.5c-0.2-0.6-0.3-1.3-0.3-2.2V26.7c0-1,0.1-1.8,0.5-2.4c0.3-0.6,0.8-1,1.4-1.3
				c0.7-0.3,1.5-0.5,2.6-0.6c1-0.1,2.3-0.1,3.9-0.1c1.7,0,3.1,0,4.2,0.1c1.1,0.1,1.9,0.2,2.6,0.5c0.6,0.3,1.1,0.7,1.3,1.3
				c0.2,0.6,0.4,1.3,0.4,2.3v9H200.9z M204.3,33.1v-6.7c0-1-0.6-1.4-1.7-1.4c-1.2,0-1.8,0.5-1.8,1.5v6.6H204.3z"/>
			<path d="M230.1,23.4c0.9,0.7,1.4,1.6,1.4,2.8v20.2c0,0.6,0,1,0.1,1.3c0.1,0.2,0.1,0.5,0.3,0.9h-7.1V27c0-1.2-0.5-1.8-1.6-1.8
				c-0.5,0-0.8,0.2-1.1,0.5s-0.4,0.8-0.4,1.2v19.4c0,0.6,0,1,0.1,1.3c0,0.2,0.1,0.5,0.3,0.9h-7.4c0.1-0.3,0.1-0.6,0.2-0.9
				c0.1-0.3,0.1-0.7,0.1-1.3v-21c0-0.6,0-1.1-0.1-1.5c-0.1-0.4-0.1-0.8-0.2-1.1h6l0.8,0.8c0.1,0,0.3-0.1,0.7-0.3
				c0.4-0.2,1-0.4,1.7-0.6c0.8-0.2,1.6-0.3,2.4-0.3C227.8,22.4,229.2,22.7,230.1,23.4z"/>
			<path d="M245.1,47.9c-0.5,0.2-1.2,0.5-2,0.7c-0.9,0.3-1.6,0.4-2.4,0.4c-0.7,0-1.3-0.1-1.9-0.2c-0.6-0.2-1.2-0.4-1.7-0.7
				c-0.5-0.3-0.9-0.7-1.2-1.1c-0.3-0.4-0.4-1-0.4-1.6v-8.2c0-1,0.4-1.9,1.1-2.5c0.7-0.6,1.7-1,2.8-1.2c0.6-0.1,1.1-0.1,1.5-0.2
				s1-0.2,1.5-0.3c1.1-0.2,1.8-0.5,2.2-0.9s0.6-0.9,0.6-1.6v-3.6c0-0.6-0.2-1-0.5-1.3c-0.3-0.3-0.7-0.4-1.3-0.4
				c-0.8,0-1.5,0.3-1.9,0.9c-0.4,0.6-0.6,1.2-0.6,2v2.5h-5v-6.2c0-0.2,0-0.6,0-1.2c1.1-0.1,2-0.2,2.8-0.4c0.8-0.1,1.7-0.2,2.6-0.2
				c0.9-0.1,1.7-0.1,2.5-0.1c1.5,0,2.7,0,3.7,0.1c1,0.1,1.8,0.2,2.4,0.5c0.6,0.2,1,0.6,1.3,1.1c0.3,0.5,0.4,1.1,0.4,1.9v18.8
				c0,0.6,0.1,1.3,0.2,2c0.1,0.7,0.3,1.3,0.4,1.8h-5.2l-1.1-1C245.9,47.5,245.6,47.7,245.1,47.9z M242.7,36.1
				c-0.5,0.5-0.8,1.2-0.8,2.1v5.8c0,0.5,0.1,0.9,0.4,1.4c0.3,0.4,0.7,0.6,1.3,0.6c0.7,0,1.1-0.2,1.3-0.5c0.2-0.4,0.3-0.9,0.3-1.5
				v-8.6h-0.8C243.9,35.3,243.3,35.6,242.7,36.1z"/>
			<path d="M256.2,20.1c-0.5-0.4-0.8-1-0.8-1.9c0-0.8,0.3-1.4,0.8-1.8c0.5-0.4,1.6-0.6,3-0.6c1.3,0,2.3,0.2,2.9,0.5
				c0.6,0.4,0.9,1,0.9,1.8c0,0.9-0.3,1.5-0.9,1.9s-1.6,0.6-3,0.6S256.8,20.5,256.2,20.1z M262.6,46.4c0,0.6,0,1,0.1,1.3
				s0.1,0.5,0.3,0.9h-7.3c0.1-0.3,0.1-0.6,0.2-0.9s0.1-0.7,0.1-1.3v-21c0-0.6,0-1.1-0.1-1.5c-0.1-0.4-0.1-0.8-0.2-1.1h7V46.4z"/>
			<path d="M275.6,26.6c-0.6,0.2-1.1,0.6-1.5,0.9s-0.5,0.7-0.6,1.1c-0.1,0.4-0.1,0.7-0.1,1v16.8c0,0.6,0,1,0.1,1.3s0.1,0.5,0.3,0.9
				h-7.3c0.1-0.3,0.1-0.6,0.2-0.9s0.1-0.7,0.1-1.3v-21c0-0.6,0-1.1-0.1-1.5c-0.1-0.4-0.1-0.8-0.2-1.1h6l0.8,1.1c0,0,0.2-0.2,0.5-0.4
				c0.3-0.2,0.9-0.5,1.6-0.8s1.5-0.4,2.4-0.4h1.2v3.9h-0.8C277.1,26.2,276.2,26.3,275.6,26.6z"/>
			<path d="M287.8,35.5v8.8c0,0.7,0.1,1.1,0.4,1.3c0.3,0.2,0.7,0.3,1.4,0.3s1.1-0.1,1.3-0.4c0.2-0.3,0.4-0.8,0.4-1.3v-6.1h6.5v6
				c0,1-0.1,1.8-0.3,2.4c-0.2,0.6-0.7,1.1-1.3,1.5c-0.6,0.4-1.5,0.6-2.7,0.7c-1.1,0.1-2.6,0.2-4.5,0.2c-1.7,0-3.1-0.1-4.1-0.2
				c-1.1-0.2-1.9-0.4-2.5-0.8c-0.6-0.4-1-0.9-1.2-1.5s-0.3-1.3-0.3-2.2V26.7c0-1,0.2-1.8,0.5-2.4c0.3-0.6,0.8-1,1.5-1.3
				c0.7-0.3,1.5-0.5,2.6-0.6c1.1-0.1,2.3-0.1,3.9-0.1c1.7,0,3.1,0,4.2,0.1c1.1,0.1,1.9,0.2,2.6,0.5c0.6,0.3,1.1,0.7,1.3,1.3
				c0.2,0.6,0.4,1.3,0.4,2.3v9H287.8z M291.3,33.1v-6.7c0-1-0.6-1.4-1.7-1.4c-1.2,0-1.8,0.5-1.8,1.5v6.6H291.3z"/>
			<path d="M303.3,35.5c-0.4-0.3-0.8-0.6-1-0.9c-0.2-0.3-0.4-0.7-0.4-1.1c-0.1-0.4-0.1-0.9-0.1-1.4v-5.7c0-1.5,0.6-2.6,1.7-3.2
				c1.2-0.6,2.7-1,4.7-1h3c1,0,2,0,3.1,0.1c1.1,0.1,2.2,0.2,3.2,0.4v8.3h-5v-2.9c0-1.1-0.2-1.9-0.6-2.4c-0.4-0.5-1-0.8-2-0.8
				c-1.3,0-2,0.7-2,2v2.9c0,0.6,0,1,0.1,1.4c0.1,0.4,0.2,0.7,0.4,1c0.2,0.3,0.5,0.5,0.9,0.7c0.4,0.2,0.9,0.4,1.6,0.6
				c0.5,0.2,0.9,0.3,1.4,0.4c0.5,0.1,0.9,0.2,1.4,0.4c1.6,0.5,2.7,1,3.4,1.5c0.7,0.5,1,1.3,1,2.5v6c0,1.6-0.5,2.8-1.6,3.5
				c-1.1,0.7-2.9,1-5.3,1h-2c-1.1,0-2.3,0-3.6-0.1c-1.3-0.1-2.5-0.2-3.6-0.5v-9.2h5.5v3.8c0,1.3,0.2,2.1,0.7,2.6
				c0.5,0.4,1,0.7,1.5,0.7c1.3,0,2-0.7,2-2.1v-4c0-0.9-0.3-1.5-0.8-1.9c-0.6-0.4-1.2-0.7-1.9-0.8c-0.8-0.2-1.5-0.3-2.1-0.5
				c-0.6-0.2-1.3-0.4-2-0.6C304.3,36,303.8,35.8,303.3,35.5z"/>
		</g>
	</g>
</g>
<g id="Calque_2">
</g>
</svg>
